<svg width="1024" height="896" viewBox="0 0 1024 896" fill="none" xmlns="http://www.w3.org/2000/svg">
<rect width="1024" height="896" fill="white"/>
<rect x="110" y="303" width="800" height="120" rx="40" fill="#6689FF"/>
<rect x="110" y="531" width="800" height="120" rx="40" fill="#21CE99"/>
<rect x="110" y="756" width="800" height="120" rx="40" fill="#F45430"/>
<path d="M472.932 287H479.052C484.116 287 488.604 284.048 488.604 278.552C488.604 272.336 484.02 270.008 478.548 270.008H472.932V287ZM476.676 273.464H478.884C482.052 273.464 484.716 275.024 484.716 278.36C484.716 282.224 482.1 283.544 478.62 283.544H476.676V273.464ZM492.655 281.168C492.655 284.888 495.535 287.288 499.135 287.288C502.735 287.288 505.615 284.888 505.615 281.168C505.615 277.448 502.735 275.048 499.135 275.048C495.535 275.048 492.655 277.448 492.655 281.168ZM496.255 281.168C496.255 279.416 497.335 278.216 499.135 278.216C500.935 278.216 502.015 279.416 502.015 281.168C502.015 282.92 500.935 284.12 499.135 284.12C497.335 284.12 496.255 282.92 496.255 281.168ZM510.183 287H513.783V275.336H510.183V287ZM509.895 271.664C509.895 272.816 510.831 273.752 511.983 273.752C513.135 273.752 514.071 272.816 514.071 271.664C514.071 270.512 513.135 269.576 511.983 269.576C510.831 269.576 509.895 270.512 509.895 271.664ZM518.77 287H522.37V281.192C522.37 279.68 522.658 278.216 524.53 278.216C526.378 278.216 526.402 279.944 526.402 281.288V287H530.002V280.568C530.002 277.448 529.33 275.048 525.682 275.048C523.93 275.048 522.754 276.008 522.274 276.92H522.226V275.336H518.77V287ZM547.191 275.336H543.879V276.872H543.831C543.279 276.032 541.887 275.048 539.847 275.048C536.535 275.048 534.519 278.024 534.519 281.12C534.519 284.648 536.799 287.144 540.255 287.144C541.335 287.144 542.727 286.736 543.543 285.608H543.591V286.736C543.591 288.392 542.559 289.592 540.375 289.592C538.911 289.592 537.687 289.016 536.583 288.08L534.591 291.056C536.271 292.4 538.383 292.76 540.447 292.76C544.959 292.76 547.191 290.408 547.191 286.016V275.336ZM538.119 281.096C538.119 279.584 539.367 278.216 540.999 278.216C542.631 278.216 543.879 279.584 543.879 281.096C543.879 282.608 542.631 283.976 540.999 283.976C539.367 283.976 538.119 282.608 538.119 281.096Z" fill="#004DEC"/>
<path d="M460.093 515H463.837V501.32H468.685V498.008H455.245V501.32H460.093V515ZM472.53 496.856V515H476.13V509.192C476.13 507.68 476.418 506.216 478.29 506.216C480.138 506.216 480.162 507.944 480.162 509.288V515H483.762V508.568C483.762 505.448 483.09 503.048 479.442 503.048C477.69 503.048 476.514 504.008 476.178 504.92H476.13V496.856H472.53ZM488.759 515H492.359V503.336H488.759V515ZM488.471 499.664C488.471 500.816 489.407 501.752 490.559 501.752C491.711 501.752 492.647 500.816 492.647 499.664C492.647 498.512 491.711 497.576 490.559 497.576C489.407 497.576 488.471 498.512 488.471 499.664ZM497.345 515H500.945V509.192C500.945 507.68 501.233 506.216 503.105 506.216C504.953 506.216 504.977 507.944 504.977 509.288V515H508.577V508.568C508.577 505.448 507.905 503.048 504.257 503.048C502.505 503.048 501.329 504.008 500.849 504.92H500.801V503.336H497.345V515ZM513.527 515H517.127V509.096H517.175L521.111 515H525.647L520.895 508.592L525.527 503.336H521.111L517.127 507.944V496.856H513.527V515ZM529.311 515H532.911V503.336H529.311V515ZM529.023 499.664C529.023 500.816 529.959 501.752 531.111 501.752C532.263 501.752 533.199 500.816 533.199 499.664C533.199 498.512 532.263 497.576 531.111 497.576C529.959 497.576 529.023 498.512 529.023 499.664ZM537.897 515H541.497V509.192C541.497 507.68 541.785 506.216 543.657 506.216C545.505 506.216 545.529 507.944 545.529 509.288V515H549.129V508.568C549.129 505.448 548.457 503.048 544.809 503.048C543.057 503.048 541.881 504.008 541.401 504.92H541.353V503.336H537.897V515ZM566.318 503.336H563.006V504.872H562.958C562.406 504.032 561.014 503.048 558.974 503.048C555.662 503.048 553.646 506.024 553.646 509.12C553.646 512.648 555.926 515.144 559.382 515.144C560.462 515.144 561.854 514.736 562.67 513.608H562.718V514.736C562.718 516.392 561.686 517.592 559.502 517.592C558.038 517.592 556.814 517.016 555.71 516.08L553.718 519.056C555.398 520.4 557.51 520.76 559.574 520.76C564.086 520.76 566.318 518.408 566.318 514.016V503.336ZM557.246 509.096C557.246 507.584 558.494 506.216 560.126 506.216C561.758 506.216 563.006 507.584 563.006 509.096C563.006 510.608 561.758 511.976 560.126 511.976C558.494 511.976 557.246 510.608 557.246 509.096Z" fill="#21CE99"/>
<path d="M466.094 741H469.838V734.376H476.918V730.92H469.838V727.464H477.494V724.008H466.094V741ZM490.64 737.136C490.04 737.952 489.248 738.552 488.072 738.552C486.68 738.552 485.648 737.664 485.36 736.296H493.712V735.168C493.712 731.448 491.6 729.048 488.24 729.048C484.64 729.048 481.76 731.448 481.76 735.168C481.76 738.888 484.64 741.288 488.24 741.288C490.112 741.288 492.008 740.448 493.16 738.984L490.64 737.136ZM485.36 733.848C485.456 732.72 486.32 731.64 487.904 731.64C489.2 731.64 490.136 732.648 490.112 733.848H485.36ZM506.822 737.136C506.222 737.952 505.43 738.552 504.254 738.552C502.862 738.552 501.83 737.664 501.542 736.296H509.894V735.168C509.894 731.448 507.782 729.048 504.422 729.048C500.822 729.048 497.942 731.448 497.942 735.168C497.942 738.888 500.822 741.288 504.422 741.288C506.294 741.288 508.19 740.448 509.342 738.984L506.822 737.136ZM501.542 733.848C501.638 732.72 502.502 731.64 504.086 731.64C505.382 731.64 506.318 732.648 506.294 733.848H501.542ZM514.531 741H518.131V722.856H514.531V741ZM523.165 741H526.765V729.336H523.165V741ZM522.877 725.664C522.877 726.816 523.813 727.752 524.965 727.752C526.117 727.752 527.053 726.816 527.053 725.664C527.053 724.512 526.117 723.576 524.965 723.576C523.813 723.576 522.877 724.512 522.877 725.664ZM531.752 741H535.352V735.192C535.352 733.68 535.64 732.216 537.512 732.216C539.36 732.216 539.384 733.944 539.384 735.288V741H542.984V734.568C542.984 731.448 542.312 729.048 538.664 729.048C536.912 729.048 535.736 730.008 535.256 730.92H535.208V729.336H531.752V741ZM560.173 729.336H556.861V730.872H556.813C556.261 730.032 554.869 729.048 552.829 729.048C549.517 729.048 547.501 732.024 547.501 735.12C547.501 738.648 549.781 741.144 553.237 741.144C554.317 741.144 555.709 740.736 556.525 739.608H556.573V740.736C556.573 742.392 555.541 743.592 553.357 743.592C551.893 743.592 550.669 743.016 549.565 742.08L547.573 745.056C549.253 746.4 551.365 746.76 553.429 746.76C557.941 746.76 560.173 744.408 560.173 740.016V729.336ZM551.101 735.096C551.101 733.584 552.349 732.216 553.981 732.216C555.613 732.216 556.861 733.584 556.861 735.096C556.861 736.608 555.613 737.976 553.981 737.976C552.349 737.976 551.101 736.608 551.101 735.096Z" fill="#F45430"/>
<path d="M240.576 349H244.32V332.008H240.576V349ZM262.051 349H265.675L267.835 341.248H267.883L270.307 349H273.859L278.011 337.336H274.363L272.179 344.656H272.131L269.971 337.336H266.035L264.043 344.656H263.995L261.619 337.336H257.779L262.051 349ZM288.883 349H292.195V343.072C292.195 339.184 291.067 337.048 286.867 337.048C284.971 337.048 283.051 337.672 281.731 338.92L283.651 340.888C284.419 340.024 285.403 339.496 286.579 339.496C287.827 339.496 288.883 340.312 288.883 341.584C285.883 341.584 280.987 341.656 280.987 345.688C280.987 348.04 282.955 349.288 285.139 349.288C286.603 349.288 288.043 348.784 288.835 347.536H288.883V349ZM288.883 343.888V344.656C288.883 346.096 287.563 346.84 286.147 346.84C285.355 346.84 284.443 346.432 284.443 345.568C284.443 343.984 286.891 343.888 287.995 343.888H288.883ZM296.854 349H300.454V343.192C300.454 341.68 300.742 340.216 302.614 340.216C304.462 340.216 304.486 341.944 304.486 343.288V349H308.086V342.568C308.086 339.448 307.414 337.048 303.766 337.048C302.014 337.048 300.838 338.008 300.358 338.92H300.31V337.336H296.854V349ZM320.979 337.336H317.811V333.88H314.211V337.336H311.907V340.216H314.211V345.76C314.211 348.304 316.059 349.288 318.459 349.288C319.299 349.288 320.187 349.216 320.979 348.928V345.928C320.667 346.216 319.899 346.264 319.515 346.264C317.955 346.264 317.811 345.352 317.811 344.104V340.216H320.979V337.336ZM342.654 337.336H339.486V333.88H335.886V337.336H333.582V340.216H335.886V345.76C335.886 348.304 337.734 349.288 340.134 349.288C340.974 349.288 341.862 349.216 342.654 348.928V345.928C342.342 346.216 341.574 346.264 341.19 346.264C339.63 346.264 339.486 345.352 339.486 344.104V340.216H342.654V337.336ZM346.452 343.168C346.452 346.888 349.332 349.288 352.932 349.288C356.532 349.288 359.412 346.888 359.412 343.168C359.412 339.448 356.532 337.048 352.932 337.048C349.332 337.048 346.452 339.448 346.452 343.168ZM350.052 343.168C350.052 341.416 351.132 340.216 352.932 340.216C354.732 340.216 355.812 341.416 355.812 343.168C355.812 344.92 354.732 346.12 352.932 346.12C351.132 346.12 350.052 344.92 350.052 343.168ZM373.482 349H377.082V330.856H373.482V349ZM390.588 345.136C389.988 345.952 389.196 346.552 388.02 346.552C386.628 346.552 385.596 345.664 385.308 344.296H393.66V343.168C393.66 339.448 391.548 337.048 388.188 337.048C384.588 337.048 381.708 339.448 381.708 343.168C381.708 346.888 384.588 349.288 388.188 349.288C390.06 349.288 391.956 348.448 393.108 346.984L390.588 345.136ZM385.308 341.848C385.404 340.72 386.268 339.64 387.852 339.64C389.148 339.64 390.084 340.648 390.06 341.848H385.308ZM405.569 349H408.881V343.072C408.881 339.184 407.753 337.048 403.553 337.048C401.657 337.048 399.737 337.672 398.417 338.92L400.337 340.888C401.105 340.024 402.089 339.496 403.265 339.496C404.513 339.496 405.569 340.312 405.569 341.584C402.569 341.584 397.673 341.656 397.673 345.688C397.673 348.04 399.641 349.288 401.825 349.288C403.289 349.288 404.729 348.784 405.521 347.536H405.569V349ZM405.569 343.888V344.656C405.569 346.096 404.249 346.84 402.833 346.84C402.041 346.84 401.129 346.432 401.129 345.568C401.129 343.984 403.577 343.888 404.681 343.888H405.569ZM413.54 349H417.14V344.128C417.14 341.8 417.476 340.216 420.212 340.216C420.74 340.216 421.244 340.312 421.748 340.456V337.168C421.412 337.072 420.956 337.048 420.548 337.048C418.964 337.048 417.956 337.792 417.188 339.208H417.14V337.336H413.54V349ZM426.135 349H429.735V343.192C429.735 341.68 430.023 340.216 431.895 340.216C433.743 340.216 433.767 341.944 433.767 343.288V349H437.367V342.568C437.367 339.448 436.695 337.048 433.047 337.048C431.295 337.048 430.119 338.008 429.639 338.92H429.591V337.336H426.135V349ZM451.818 349H455.418V343.192C455.418 341.68 455.706 340.216 457.578 340.216C459.234 340.216 459.186 341.968 459.186 342.832V349H462.786V342.832C462.786 341.392 463.314 340.216 464.97 340.216C466.146 340.216 466.554 341.128 466.554 342.208V349H470.154V342.112C470.154 339.28 469.194 337.048 466.026 337.048C464.298 337.048 463.17 337.648 462.33 339.136C461.706 337.72 460.362 337.048 458.73 337.048C456.978 337.048 455.802 338.008 455.322 338.92H455.274V337.336H451.818V349ZM474.669 343.168C474.669 346.888 477.549 349.288 481.149 349.288C484.749 349.288 487.629 346.888 487.629 343.168C487.629 339.448 484.749 337.048 481.149 337.048C477.549 337.048 474.669 339.448 474.669 343.168ZM478.269 343.168C478.269 341.416 479.349 340.216 481.149 340.216C482.949 340.216 484.029 341.416 484.029 343.168C484.029 344.92 482.949 346.12 481.149 346.12C479.349 346.12 478.269 344.92 478.269 343.168ZM492.149 349H495.749V344.128C495.749 341.8 496.085 340.216 498.821 340.216C499.349 340.216 499.853 340.312 500.357 340.456V337.168C500.021 337.072 499.565 337.048 499.157 337.048C497.573 337.048 496.565 337.792 495.797 339.208H495.749V337.336H492.149V349ZM512.421 345.136C511.821 345.952 511.029 346.552 509.853 346.552C508.461 346.552 507.429 345.664 507.141 344.296H515.493V343.168C515.493 339.448 513.381 337.048 510.021 337.048C506.421 337.048 503.541 339.448 503.541 343.168C503.541 346.888 506.421 349.288 510.021 349.288C511.893 349.288 513.789 348.448 514.941 346.984L512.421 345.136ZM507.141 341.848C507.237 340.72 508.101 339.64 509.685 339.64C510.981 339.64 511.917 340.648 511.893 341.848H507.141ZM536.904 349H540.216V343.072C540.216 339.184 539.088 337.048 534.888 337.048C532.992 337.048 531.072 337.672 529.752 338.92L531.672 340.888C532.44 340.024 533.424 339.496 534.6 339.496C535.848 339.496 536.904 340.312 536.904 341.584C533.904 341.584 529.008 341.656 529.008 345.688C529.008 348.04 530.976 349.288 533.16 349.288C534.624 349.288 536.064 348.784 536.856 347.536H536.904V349ZM536.904 343.888V344.656C536.904 346.096 535.584 346.84 534.168 346.84C533.376 346.84 532.464 346.432 532.464 345.568C532.464 343.984 534.912 343.888 536.016 343.888H536.904ZM545.21 349H548.522V347.464H548.57C549.122 348.304 550.514 349.288 552.146 349.288C555.602 349.288 557.882 346.792 557.882 343.264C557.882 340.024 555.866 337.048 552.554 337.048C551.066 337.048 549.674 337.456 548.858 338.584H548.81V330.856H545.21V349ZM548.522 343.168C548.522 341.416 549.602 340.216 551.402 340.216C553.202 340.216 554.282 341.416 554.282 343.168C554.282 344.92 553.202 346.12 551.402 346.12C549.602 346.12 548.522 344.92 548.522 343.168ZM561.96 343.168C561.96 346.888 564.84 349.288 568.44 349.288C572.04 349.288 574.92 346.888 574.92 343.168C574.92 339.448 572.04 337.048 568.44 337.048C564.84 337.048 561.96 339.448 561.96 343.168ZM565.56 343.168C565.56 341.416 566.64 340.216 568.44 340.216C570.24 340.216 571.32 341.416 571.32 343.168C571.32 344.92 570.24 346.12 568.44 346.12C566.64 346.12 565.56 344.92 565.56 343.168ZM590.672 337.336H587.072V343.144C587.072 344.656 586.784 346.12 584.912 346.12C583.064 346.12 583.04 344.392 583.04 343.048V337.336H579.44V343.768C579.44 346.888 580.112 349.288 583.76 349.288C585.512 349.288 586.688 348.328 587.168 347.416H587.216V349H590.672V337.336ZM603.565 337.336H600.397V333.88H596.797V337.336H594.493V340.216H596.797V345.76C596.797 348.304 598.645 349.288 601.045 349.288C601.885 349.288 602.773 349.216 603.565 348.928V345.928C603.253 346.216 602.485 346.264 602.101 346.264C600.541 346.264 600.397 345.352 600.397 344.104V340.216H603.565V337.336ZM624.616 349H627.928V343.072C627.928 339.184 626.8 337.048 622.6 337.048C620.704 337.048 618.784 337.672 617.464 338.92L619.384 340.888C620.152 340.024 621.136 339.496 622.312 339.496C623.56 339.496 624.616 340.312 624.616 341.584C621.616 341.584 616.72 341.656 616.72 345.688C616.72 348.04 618.688 349.288 620.872 349.288C622.336 349.288 623.776 348.784 624.568 347.536H624.616V349ZM624.616 343.888V344.656C624.616 346.096 623.296 346.84 621.88 346.84C621.088 346.84 620.176 346.432 620.176 345.568C620.176 343.984 622.624 343.888 623.728 343.888H624.616ZM632.635 349H636.235V330.856H632.635V349ZM653.461 337.336H650.149V338.872H650.101C649.549 338.032 648.157 337.048 646.117 337.048C642.805 337.048 640.789 340.024 640.789 343.12C640.789 346.648 643.069 349.144 646.525 349.144C647.605 349.144 648.997 348.736 649.813 347.608H649.861V348.736C649.861 350.392 648.829 351.592 646.645 351.592C645.181 351.592 643.957 351.016 642.853 350.08L640.861 353.056C642.541 354.4 644.653 354.76 646.717 354.76C651.229 354.76 653.461 352.408 653.461 348.016V337.336ZM644.389 343.096C644.389 341.584 645.637 340.216 647.269 340.216C648.901 340.216 650.149 341.584 650.149 343.096C650.149 344.608 648.901 345.976 647.269 345.976C645.637 345.976 644.389 344.608 644.389 343.096ZM658.306 343.168C658.306 346.888 661.186 349.288 664.786 349.288C668.386 349.288 671.266 346.888 671.266 343.168C671.266 339.448 668.386 337.048 664.786 337.048C661.186 337.048 658.306 339.448 658.306 343.168ZM661.906 343.168C661.906 341.416 662.986 340.216 664.786 340.216C666.586 340.216 667.666 341.416 667.666 343.168C667.666 344.92 666.586 346.12 664.786 346.12C662.986 346.12 661.906 344.92 661.906 343.168ZM693.232 337.336H690.064V333.88H686.464V337.336H684.16V340.216H686.464V345.76C686.464 348.304 688.312 349.288 690.712 349.288C691.552 349.288 692.44 349.216 693.232 348.928V345.928C692.92 346.216 692.152 346.264 691.768 346.264C690.208 346.264 690.064 345.352 690.064 344.104V340.216H693.232V337.336ZM697.462 349H701.062V344.128C701.062 341.8 701.398 340.216 704.134 340.216C704.662 340.216 705.166 340.312 705.67 340.456V337.168C705.334 337.072 704.878 337.048 704.47 337.048C702.886 337.048 701.878 337.792 701.11 339.208H701.062V337.336H697.462V349ZM716.955 349H720.267V343.072C720.267 339.184 719.139 337.048 714.939 337.048C713.043 337.048 711.123 337.672 709.803 338.92L711.723 340.888C712.491 340.024 713.475 339.496 714.651 339.496C715.899 339.496 716.955 340.312 716.955 341.584C713.955 341.584 709.059 341.656 709.059 345.688C709.059 348.04 711.027 349.288 713.211 349.288C714.675 349.288 716.115 348.784 716.907 347.536H716.955V349ZM716.955 343.888V344.656C716.955 346.096 715.635 346.84 714.219 346.84C713.427 346.84 712.515 346.432 712.515 345.568C712.515 343.984 714.963 343.888 716.067 343.888H716.955ZM737.166 330.856H733.566V338.584H733.518C732.702 337.456 731.31 337.048 729.822 337.048C726.51 337.048 724.494 340.024 724.494 343.264C724.494 346.792 726.774 349.288 730.23 349.288C731.862 349.288 733.254 348.304 733.806 347.464H733.854V349H737.166V330.856ZM733.854 343.168C733.854 344.92 732.774 346.12 730.974 346.12C729.174 346.12 728.094 344.92 728.094 343.168C728.094 341.416 729.174 340.216 730.974 340.216C732.774 340.216 733.854 341.416 733.854 343.168ZM742.491 349H746.091V337.336H742.491V349ZM742.203 333.664C742.203 334.816 743.139 335.752 744.291 335.752C745.443 335.752 746.379 334.816 746.379 333.664C746.379 332.512 745.443 331.576 744.291 331.576C743.139 331.576 742.203 332.512 742.203 333.664ZM751.077 349H754.677V343.192C754.677 341.68 754.965 340.216 756.837 340.216C758.685 340.216 758.709 341.944 758.709 343.288V349H762.309V342.568C762.309 339.448 761.637 337.048 757.989 337.048C756.237 337.048 755.061 338.008 754.581 338.92H754.533V337.336H751.077V349ZM779.499 337.336H776.187V338.872H776.139C775.587 338.032 774.195 337.048 772.155 337.048C768.843 337.048 766.827 340.024 766.827 343.12C766.827 346.648 769.107 349.144 772.563 349.144C773.643 349.144 775.035 348.736 775.851 347.608H775.899V348.736C775.899 350.392 774.867 351.592 772.683 351.592C771.219 351.592 769.995 351.016 768.891 350.08L766.899 353.056C768.579 354.4 770.691 354.76 772.755 354.76C777.267 354.76 779.499 352.408 779.499 348.016V337.336ZM770.427 343.096C770.427 341.584 771.675 340.216 773.307 340.216C774.939 340.216 776.187 341.584 776.187 343.096C776.187 344.608 774.939 345.976 773.307 345.976C771.675 345.976 770.427 344.608 770.427 343.096ZM256.408 380.24H252.232L250.576 382.496L248.392 380.168C250.096 379.28 251.536 377.768 251.536 375.752C251.536 372.896 249.208 371.576 246.592 371.576C243.88 371.576 241.288 372.824 241.288 375.896C241.288 377.576 242.056 378.512 243.16 379.712C241.144 380.384 239.56 382.16 239.56 384.344C239.56 387.752 242.512 389.432 245.584 389.432C247.6 389.432 249.184 388.832 250.576 387.392L251.992 389H256.624L252.832 384.992L256.408 380.24ZM246.544 374.456C247.456 374.456 248.224 375.008 248.224 375.992C248.224 376.952 247.048 377.744 246.304 378.176C245.728 377.648 244.888 376.88 244.888 376.04C244.888 375.08 245.608 374.456 246.544 374.456ZM248.392 385.016C247.6 385.712 246.832 386.264 245.728 386.264C244.552 386.264 243.448 385.424 243.448 384.176C243.448 382.904 244.456 382.328 245.392 381.752L248.392 385.016ZM269.984 389H273.584V377.336H269.984V389ZM269.696 373.664C269.696 374.816 270.632 375.752 271.784 375.752C272.936 375.752 273.872 374.816 273.872 373.664C273.872 372.512 272.936 371.576 271.784 371.576C270.632 371.576 269.696 372.512 269.696 373.664ZM286.514 377.336H283.346V373.88H279.746V377.336H277.442V380.216H279.746V385.76C279.746 388.304 281.594 389.288 283.994 389.288C284.834 389.288 285.722 389.216 286.514 388.928V385.928C286.202 386.216 285.434 386.264 285.05 386.264C283.49 386.264 283.346 385.352 283.346 384.104V380.216H286.514V377.336ZM299.552 378.584C298.472 377.432 296.768 377.048 295.232 377.048C292.784 377.048 290.336 378.248 290.336 380.984C290.336 385.424 296.408 383.84 296.408 385.712C296.408 386.336 295.592 386.552 294.776 386.552C293.696 386.552 292.904 386.096 292.232 385.28L290.048 387.704C291.2 388.88 293 389.288 294.632 389.288C297.128 389.288 300.008 388.424 300.008 385.448C300.008 381.008 293.936 382.472 293.936 380.744C293.936 380.048 294.656 379.784 295.256 379.784C296.12 379.784 296.816 380.12 297.344 380.768L299.552 378.584ZM321.075 389H324.387V383.072C324.387 379.184 323.259 377.048 319.059 377.048C317.163 377.048 315.243 377.672 313.923 378.92L315.843 380.888C316.611 380.024 317.595 379.496 318.771 379.496C320.019 379.496 321.075 380.312 321.075 381.584C318.075 381.584 313.179 381.656 313.179 385.688C313.179 388.04 315.147 389.288 317.331 389.288C318.795 389.288 320.235 388.784 321.027 387.536H321.075V389ZM321.075 383.888V384.656C321.075 386.096 319.755 386.84 318.339 386.84C317.547 386.84 316.635 386.432 316.635 385.568C316.635 383.984 319.083 383.888 320.187 383.888H321.075ZM329.381 394.472H332.981V387.752H333.029C333.845 388.88 335.237 389.288 336.725 389.288C340.037 389.288 342.053 386.312 342.053 383.072C342.053 379.544 339.773 377.048 336.317 377.048C334.685 377.048 333.293 378.032 332.741 378.872H332.693V377.336H329.381V394.472ZM332.693 383.168C332.693 381.416 333.773 380.216 335.573 380.216C337.373 380.216 338.453 381.416 338.453 383.168C338.453 384.92 337.373 386.12 335.573 386.12C333.773 386.12 332.693 384.92 332.693 383.168ZM346.899 394.472H350.499V387.752H350.547C351.363 388.88 352.755 389.288 354.243 389.288C357.555 389.288 359.571 386.312 359.571 383.072C359.571 379.544 357.291 377.048 353.835 377.048C352.203 377.048 350.811 378.032 350.259 378.872H350.211V377.336H346.899V394.472ZM350.211 383.168C350.211 381.416 351.291 380.216 353.091 380.216C354.891 380.216 355.971 381.416 355.971 383.168C355.971 384.92 354.891 386.12 353.091 386.12C351.291 386.12 350.211 384.92 350.211 383.168ZM364.128 389H367.728V370.856H364.128V389ZM372.762 389H376.362V377.336H372.762V389ZM372.474 373.664C372.474 374.816 373.41 375.752 374.562 375.752C375.714 375.752 376.65 374.816 376.65 373.664C376.65 372.512 375.714 371.576 374.562 371.576C373.41 371.576 372.474 372.512 372.474 373.664ZM391.621 378.608C390.493 377.456 388.837 377.048 387.469 377.048C383.869 377.048 380.989 379.448 380.989 383.168C380.989 386.888 383.869 389.288 387.469 389.288C388.837 389.288 390.493 388.88 391.621 387.728L389.245 385.232C388.837 385.712 388.261 386.12 387.469 386.12C385.669 386.12 384.589 384.92 384.589 383.168C384.589 381.416 385.669 380.216 387.469 380.216C388.213 380.216 388.885 380.6 389.245 381.104L391.621 378.608ZM402.647 389H405.959V383.072C405.959 379.184 404.831 377.048 400.631 377.048C398.735 377.048 396.815 377.672 395.495 378.92L397.415 380.888C398.183 380.024 399.167 379.496 400.343 379.496C401.591 379.496 402.647 380.312 402.647 381.584C399.647 381.584 394.751 381.656 394.751 385.688C394.751 388.04 396.719 389.288 398.903 389.288C400.367 389.288 401.807 388.784 402.599 387.536H402.647V389ZM402.647 383.888V384.656C402.647 386.096 401.327 386.84 399.911 386.84C399.119 386.84 398.207 386.432 398.207 385.568C398.207 383.984 400.655 383.888 401.759 383.888H402.647ZM418.561 377.336H415.393V373.88H411.793V377.336H409.489V380.216H411.793V385.76C411.793 388.304 413.641 389.288 416.041 389.288C416.881 389.288 417.769 389.216 418.561 388.928V385.928C418.249 386.216 417.481 386.264 417.097 386.264C415.537 386.264 415.393 385.352 415.393 384.104V380.216H418.561V377.336ZM422.839 389H426.439V377.336H422.839V389ZM422.551 373.664C422.551 374.816 423.487 375.752 424.639 375.752C425.791 375.752 426.727 374.816 426.727 373.664C426.727 372.512 425.791 371.576 424.639 371.576C423.487 371.576 422.551 372.512 422.551 373.664ZM430.993 383.168C430.993 386.888 433.873 389.288 437.473 389.288C441.073 389.288 443.953 386.888 443.953 383.168C443.953 379.448 441.073 377.048 437.473 377.048C433.873 377.048 430.993 379.448 430.993 383.168ZM434.593 383.168C434.593 381.416 435.673 380.216 437.473 380.216C439.273 380.216 440.353 381.416 440.353 383.168C440.353 384.92 439.273 386.12 437.473 386.12C435.673 386.12 434.593 384.92 434.593 383.168ZM448.474 389H452.074V383.192C452.074 381.68 452.362 380.216 454.234 380.216C456.082 380.216 456.106 381.944 456.106 383.288V389H459.706V382.568C459.706 379.448 459.034 377.048 455.386 377.048C453.634 377.048 452.458 378.008 451.978 378.92H451.93V377.336H448.474V389ZM482.1 377.336H478.932V373.88H475.332V377.336H473.028V380.216H475.332V385.76C475.332 388.304 477.18 389.288 479.58 389.288C480.42 389.288 481.308 389.216 482.1 388.928V385.928C481.788 386.216 481.02 386.264 480.636 386.264C479.076 386.264 478.932 385.352 478.932 384.104V380.216H482.1V377.336ZM485.898 383.168C485.898 386.888 488.778 389.288 492.378 389.288C495.978 389.288 498.858 386.888 498.858 383.168C498.858 379.448 495.978 377.048 492.378 377.048C488.778 377.048 485.898 379.448 485.898 383.168ZM489.498 383.168C489.498 381.416 490.578 380.216 492.378 380.216C494.178 380.216 495.258 381.416 495.258 383.168C495.258 384.92 494.178 386.12 492.378 386.12C490.578 386.12 489.498 384.92 489.498 383.168ZM512.88 389H516.48V383.192C516.48 381.68 516.768 380.216 518.64 380.216C520.296 380.216 520.248 381.968 520.248 382.832V389H523.848V382.832C523.848 381.392 524.376 380.216 526.032 380.216C527.208 380.216 527.616 381.128 527.616 382.208V389H531.216V382.112C531.216 379.28 530.256 377.048 527.088 377.048C525.36 377.048 524.232 377.648 523.392 379.136C522.768 377.72 521.424 377.048 519.792 377.048C518.04 377.048 516.864 378.008 516.384 378.92H516.336V377.336H512.88V389ZM543.483 389H546.795V383.072C546.795 379.184 545.667 377.048 541.467 377.048C539.571 377.048 537.651 377.672 536.331 378.92L538.251 380.888C539.019 380.024 540.003 379.496 541.179 379.496C542.427 379.496 543.483 380.312 543.483 381.584C540.483 381.584 535.587 381.656 535.587 385.688C535.587 388.04 537.555 389.288 539.739 389.288C541.203 389.288 542.643 388.784 543.435 387.536H543.483V389ZM543.483 383.888V384.656C543.483 386.096 542.163 386.84 540.747 386.84C539.955 386.84 539.043 386.432 539.043 385.568C539.043 383.984 541.491 383.888 542.595 383.888H543.483ZM551.453 389H555.053V383.096H555.101L559.037 389H563.573L558.821 382.592L563.453 377.336H559.037L555.053 381.944V370.856H551.453V389ZM575.709 385.136C575.109 385.952 574.317 386.552 573.141 386.552C571.749 386.552 570.717 385.664 570.429 384.296H578.781V383.168C578.781 379.448 576.669 377.048 573.309 377.048C569.709 377.048 566.829 379.448 566.829 383.168C566.829 386.888 569.709 389.288 573.309 389.288C575.181 389.288 577.077 388.448 578.229 386.984L575.709 385.136ZM570.429 381.848C570.525 380.72 571.389 379.64 572.973 379.64C574.269 379.64 575.205 380.648 575.181 381.848H570.429ZM593.208 389H596.52V387.464H596.568C597.12 388.304 598.512 389.288 600.144 389.288C603.6 389.288 605.88 386.792 605.88 383.264C605.88 380.024 603.864 377.048 600.552 377.048C599.064 377.048 597.672 377.456 596.856 378.584H596.808V370.856H593.208V389ZM596.52 383.168C596.52 381.416 597.6 380.216 599.4 380.216C601.2 380.216 602.28 381.416 602.28 383.168C602.28 384.92 601.2 386.12 599.4 386.12C597.6 386.12 596.52 384.92 596.52 383.168ZM618.909 385.136C618.309 385.952 617.517 386.552 616.341 386.552C614.949 386.552 613.917 385.664 613.629 384.296H621.981V383.168C621.981 379.448 619.869 377.048 616.509 377.048C612.909 377.048 610.029 379.448 610.029 383.168C610.029 386.888 612.909 389.288 616.509 389.288C618.381 389.288 620.277 388.448 621.429 386.984L618.909 385.136ZM613.629 381.848C613.725 380.72 614.589 379.64 616.173 379.64C617.469 379.64 618.405 380.648 618.381 381.848H613.629ZM634.514 377.336H631.346V373.88H627.746V377.336H625.442V380.216H627.746V385.76C627.746 388.304 629.594 389.288 631.994 389.288C632.834 389.288 633.722 389.216 634.514 388.928V385.928C634.202 386.216 633.434 386.264 633.05 386.264C631.49 386.264 631.346 385.352 631.346 384.104V380.216H634.514V377.336ZM646.688 377.336H643.52V373.88H639.92V377.336H637.616V380.216H639.92V385.76C639.92 388.304 641.768 389.288 644.168 389.288C645.008 389.288 645.896 389.216 646.688 388.928V385.928C646.376 386.216 645.608 386.264 645.224 386.264C643.664 386.264 643.52 385.352 643.52 384.104V380.216H646.688V377.336ZM659.437 385.136C658.837 385.952 658.045 386.552 656.869 386.552C655.477 386.552 654.445 385.664 654.157 384.296H662.509V383.168C662.509 379.448 660.397 377.048 657.037 377.048C653.437 377.048 650.557 379.448 650.557 383.168C650.557 386.888 653.437 389.288 657.037 389.288C658.909 389.288 660.805 388.448 661.957 386.984L659.437 385.136ZM654.157 381.848C654.253 380.72 655.117 379.64 656.701 379.64C657.997 379.64 658.933 380.648 658.909 381.848H654.157ZM667.099 389H670.699V384.128C670.699 381.8 671.035 380.216 673.771 380.216C674.299 380.216 674.803 380.312 675.307 380.456V377.168C674.971 377.072 674.515 377.048 674.107 377.048C672.523 377.048 671.515 377.792 670.747 379.208H670.699V377.336H667.099V389ZM696.718 377.336H693.55V373.88H689.95V377.336H687.646V380.216H689.95V385.76C689.95 388.304 691.798 389.288 694.198 389.288C695.038 389.288 695.926 389.216 696.718 388.928V385.928C696.406 386.216 695.638 386.264 695.254 386.264C693.694 386.264 693.55 385.352 693.55 384.104V380.216H696.718V377.336ZM700.947 389H704.547V384.128C704.547 381.8 704.883 380.216 707.619 380.216C708.147 380.216 708.651 380.312 709.155 380.456V377.168C708.819 377.072 708.363 377.048 707.955 377.048C706.371 377.048 705.363 377.792 704.595 379.208H704.547V377.336H700.947V389ZM720.44 389H723.752V383.072C723.752 379.184 722.624 377.048 718.424 377.048C716.528 377.048 714.608 377.672 713.288 378.92L715.208 380.888C715.976 380.024 716.96 379.496 718.136 379.496C719.384 379.496 720.44 380.312 720.44 381.584C717.44 381.584 712.544 381.656 712.544 385.688C712.544 388.04 714.512 389.288 716.696 389.288C718.16 389.288 719.6 388.784 720.392 387.536H720.44V389ZM720.44 383.888V384.656C720.44 386.096 719.12 386.84 717.704 386.84C716.912 386.84 716 386.432 716 385.568C716 383.984 718.448 383.888 719.552 383.888H720.44ZM740.651 370.856H737.051V378.584H737.003C736.187 377.456 734.795 377.048 733.307 377.048C729.995 377.048 727.979 380.024 727.979 383.264C727.979 386.792 730.259 389.288 733.715 389.288C735.347 389.288 736.739 388.304 737.291 387.464H737.339V389H740.651V370.856ZM737.339 383.168C737.339 384.92 736.259 386.12 734.459 386.12C732.659 386.12 731.579 384.92 731.579 383.168C731.579 381.416 732.659 380.216 734.459 380.216C736.259 380.216 737.339 381.416 737.339 383.168ZM754.448 385.136C753.848 385.952 753.056 386.552 751.88 386.552C750.488 386.552 749.456 385.664 749.168 384.296H757.52V383.168C757.52 379.448 755.408 377.048 752.048 377.048C748.448 377.048 745.568 379.448 745.568 383.168C745.568 386.888 748.448 389.288 752.048 389.288C753.92 389.288 755.816 388.448 756.968 386.984L754.448 385.136ZM749.168 381.848C749.264 380.72 750.128 379.64 751.712 379.64C753.008 379.64 753.944 380.648 753.92 381.848H749.168ZM770.918 378.584C769.838 377.432 768.134 377.048 766.598 377.048C764.15 377.048 761.702 378.248 761.702 380.984C761.702 385.424 767.774 383.84 767.774 385.712C767.774 386.336 766.958 386.552 766.142 386.552C765.062 386.552 764.27 386.096 763.598 385.28L761.414 387.704C762.566 388.88 764.366 389.288 765.998 389.288C768.494 389.288 771.374 388.424 771.374 385.448C771.374 381.008 765.302 382.472 765.302 380.744C765.302 380.048 766.022 379.784 766.622 379.784C767.486 379.784 768.182 380.12 768.71 380.768L770.918 378.584ZM775.691 386.936C775.691 388.16 776.675 389.144 777.899 389.144C779.123 389.144 780.107 388.16 780.107 386.936C780.107 385.712 779.123 384.728 777.899 384.728C776.675 384.728 775.691 385.712 775.691 386.936Z" fill="white"/>
<path d="M239.377 577H243.121V563.32H247.969V560.008H234.529V563.32H239.377V577ZM251.814 558.856V577H255.414V571.192C255.414 569.68 255.702 568.216 257.574 568.216C259.422 568.216 259.446 569.944 259.446 571.288V577H263.046V570.568C263.046 567.448 262.374 565.048 258.726 565.048C256.974 565.048 255.798 566.008 255.462 566.92H255.414V558.856H251.814ZM276.515 573.136C275.915 573.952 275.123 574.552 273.947 574.552C272.555 574.552 271.523 573.664 271.235 572.296H279.587V571.168C279.587 567.448 277.475 565.048 274.115 565.048C270.515 565.048 267.635 567.448 267.635 571.168C267.635 574.888 270.515 577.288 274.115 577.288C275.987 577.288 277.883 576.448 279.035 574.984L276.515 573.136ZM271.235 569.848C271.331 568.72 272.195 567.64 273.779 567.64C275.075 567.64 276.011 568.648 275.987 569.848H271.235ZM300.998 577H304.31V571.072C304.31 567.184 303.182 565.048 298.982 565.048C297.086 565.048 295.166 565.672 293.846 566.92L295.766 568.888C296.534 568.024 297.518 567.496 298.694 567.496C299.942 567.496 300.998 568.312 300.998 569.584C297.998 569.584 293.102 569.656 293.102 573.688C293.102 576.04 295.07 577.288 297.254 577.288C298.718 577.288 300.158 576.784 300.95 575.536H300.998V577ZM300.998 571.888V572.656C300.998 574.096 299.678 574.84 298.262 574.84C297.47 574.84 296.558 574.432 296.558 573.568C296.558 571.984 299.006 571.888 300.11 571.888H300.998ZM309.305 582.472H312.905V575.752H312.953C313.769 576.88 315.161 577.288 316.649 577.288C319.961 577.288 321.977 574.312 321.977 571.072C321.977 567.544 319.697 565.048 316.241 565.048C314.609 565.048 313.217 566.032 312.665 566.872H312.617V565.336H309.305V582.472ZM312.617 571.168C312.617 569.416 313.697 568.216 315.497 568.216C317.297 568.216 318.377 569.416 318.377 571.168C318.377 572.92 317.297 574.12 315.497 574.12C313.697 574.12 312.617 572.92 312.617 571.168ZM326.822 582.472H330.422V575.752H330.47C331.286 576.88 332.678 577.288 334.166 577.288C337.478 577.288 339.494 574.312 339.494 571.072C339.494 567.544 337.214 565.048 333.758 565.048C332.126 565.048 330.734 566.032 330.182 566.872H330.134V565.336H326.822V582.472ZM330.134 571.168C330.134 569.416 331.214 568.216 333.014 568.216C334.814 568.216 335.894 569.416 335.894 571.168C335.894 572.92 334.814 574.12 333.014 574.12C331.214 574.12 330.134 572.92 330.134 571.168ZM356.385 577H360.009L362.169 569.248H362.217L364.641 577H368.193L372.345 565.336H368.697L366.513 572.656H366.465L364.305 565.336H360.369L358.377 572.656H358.329L355.953 565.336H352.113L356.385 577ZM375.945 577H379.545V565.336H375.945V577ZM375.657 561.664C375.657 562.816 376.593 563.752 377.745 563.752C378.897 563.752 379.833 562.816 379.833 561.664C379.833 560.512 378.897 559.576 377.745 559.576C376.593 559.576 375.657 560.512 375.657 561.664ZM384.579 577H388.179V558.856H384.579V577ZM393.214 577H396.814V558.856H393.214V577ZM411.302 558.856V577H414.902V571.192C414.902 569.68 415.19 568.216 417.062 568.216C418.91 568.216 418.934 569.944 418.934 571.288V577H422.534V570.568C422.534 567.448 421.862 565.048 418.214 565.048C416.462 565.048 415.286 566.008 414.95 566.92H414.902V558.856H411.302ZM436.003 573.136C435.403 573.952 434.611 574.552 433.435 574.552C432.043 574.552 431.011 573.664 430.723 572.296H439.075V571.168C439.075 567.448 436.963 565.048 433.603 565.048C430.003 565.048 427.123 567.448 427.123 571.168C427.123 574.888 430.003 577.288 433.603 577.288C435.475 577.288 437.371 576.448 438.523 574.984L436.003 573.136ZM430.723 569.848C430.819 568.72 431.683 567.64 433.267 567.64C434.563 567.64 435.499 568.648 435.475 569.848H430.723ZM443.712 577H447.312V558.856H443.712V577ZM452.635 582.472H456.235V575.752H456.283C457.099 576.88 458.491 577.288 459.979 577.288C463.291 577.288 465.307 574.312 465.307 571.072C465.307 567.544 463.027 565.048 459.571 565.048C457.939 565.048 456.547 566.032 455.995 566.872H455.947V565.336H452.635V582.472ZM455.947 571.168C455.947 569.416 457.027 568.216 458.827 568.216C460.627 568.216 461.707 569.416 461.707 571.168C461.707 572.92 460.627 574.12 458.827 574.12C457.027 574.12 455.947 572.92 455.947 571.168ZM479.653 582.472H483.253V575.752H483.301C484.117 576.88 485.509 577.288 486.997 577.288C490.309 577.288 492.325 574.312 492.325 571.072C492.325 567.544 490.045 565.048 486.589 565.048C484.957 565.048 483.565 566.032 483.013 566.872H482.965V565.336H479.653V582.472ZM482.965 571.168C482.965 569.416 484.045 568.216 485.845 568.216C487.645 568.216 488.725 569.416 488.725 571.168C488.725 572.92 487.645 574.12 485.845 574.12C484.045 574.12 482.965 572.92 482.965 571.168ZM505.355 573.136C504.755 573.952 503.963 574.552 502.787 574.552C501.395 574.552 500.363 573.664 500.075 572.296H508.427V571.168C508.427 567.448 506.315 565.048 502.955 565.048C499.355 565.048 496.475 567.448 496.475 571.168C496.475 574.888 499.355 577.288 502.955 577.288C504.827 577.288 506.723 576.448 507.875 574.984L505.355 573.136ZM500.075 569.848C500.171 568.72 501.035 567.64 502.618 567.64C503.915 567.64 504.851 568.648 504.827 569.848H500.075ZM512.584 571.168C512.584 574.888 515.464 577.288 519.064 577.288C522.664 577.288 525.544 574.888 525.544 571.168C525.544 567.448 522.664 565.048 519.064 565.048C515.464 565.048 512.584 567.448 512.584 571.168ZM516.184 571.168C516.184 569.416 517.264 568.216 519.064 568.216C520.864 568.216 521.944 569.416 521.944 571.168C521.944 572.92 520.864 574.12 519.064 574.12C517.264 574.12 516.184 572.92 516.184 571.168ZM530.4 582.472H534V575.752H534.048C534.864 576.88 536.256 577.288 537.744 577.288C541.056 577.288 543.072 574.312 543.072 571.072C543.072 567.544 540.792 565.048 537.336 565.048C535.704 565.048 534.312 566.032 533.76 566.872H533.712V565.336H530.4V582.472ZM533.712 571.168C533.712 569.416 534.792 568.216 536.592 568.216C538.392 568.216 539.472 569.416 539.472 571.168C539.472 572.92 538.392 574.12 536.592 574.12C534.792 574.12 533.712 572.92 533.712 571.168ZM547.629 577H551.229V558.856H547.629V577ZM564.736 573.136C564.136 573.952 563.344 574.552 562.168 574.552C560.776 574.552 559.744 573.664 559.456 572.296H567.808V571.168C567.808 567.448 565.696 565.048 562.336 565.048C558.736 565.048 555.856 567.448 555.856 571.168C555.856 574.888 558.736 577.288 562.336 577.288C564.208 577.288 566.104 576.448 567.256 574.984L564.736 573.136ZM559.456 569.848C559.552 568.72 560.416 567.64 562 567.64C563.296 567.64 564.232 568.648 564.208 569.848H559.456ZM590.827 577H594.427V565.336H590.827V577ZM590.539 561.664C590.539 562.816 591.475 563.752 592.627 563.752C593.779 563.752 594.715 562.816 594.715 561.664C594.715 560.512 593.779 559.576 592.627 559.576C591.475 559.576 590.539 560.512 590.539 561.664ZM583.147 577H586.747V568.216H589.411V565.336H586.747V563.488C586.747 561.952 587.323 561.592 588.475 561.592C588.907 561.592 589.243 561.688 589.651 561.832L589.819 558.784C589.147 558.616 588.427 558.568 587.707 558.568C583.795 558.568 583.147 560.728 583.147 563.272V565.336H580.771V568.216H583.147V577ZM599.416 577H603.016V571.192C603.016 569.68 603.304 568.216 605.176 568.216C607.024 568.216 607.048 569.944 607.048 571.288V577H610.648V570.568C610.648 567.448 609.976 565.048 606.328 565.048C604.576 565.048 603.4 566.008 602.92 566.92H602.872V565.336H599.416V577ZM627.837 558.856H624.237V566.584H624.189C623.373 565.456 621.981 565.048 620.493 565.048C617.181 565.048 615.165 568.024 615.165 571.264C615.165 574.792 617.445 577.288 620.901 577.288C622.533 577.288 623.925 576.304 624.477 575.464H624.525V577H627.837V558.856ZM624.525 571.168C624.525 572.92 623.445 574.12 621.645 574.12C619.845 574.12 618.765 572.92 618.765 571.168C618.765 569.416 619.845 568.216 621.645 568.216C623.445 568.216 624.525 569.416 624.525 571.168ZM651.136 573.136C650.536 573.952 649.744 574.552 648.568 574.552C647.176 574.552 646.144 573.664 645.856 572.296H654.208V571.168C654.208 567.448 652.096 565.048 648.736 565.048C645.136 565.048 642.256 567.448 642.256 571.168C642.256 574.888 645.136 577.288 648.736 577.288C650.608 577.288 652.504 576.448 653.656 574.984L651.136 573.136ZM645.856 569.848C645.952 568.72 646.816 567.64 648.4 567.64C649.696 567.64 650.632 568.648 650.608 569.848H645.856ZM662.397 577H666.213L670.821 565.336H667.197L664.461 573.256H664.413L661.461 565.336H657.573L662.397 577ZM683.053 573.136C682.453 573.952 681.661 574.552 680.485 574.552C679.093 574.552 678.061 573.664 677.773 572.296H686.125V571.168C686.125 567.448 684.013 565.048 680.653 565.048C677.053 565.048 674.173 567.448 674.173 571.168C674.173 574.888 677.053 577.288 680.653 577.288C682.525 577.288 684.421 576.448 685.573 574.984L683.053 573.136ZM677.773 569.848C677.869 568.72 678.733 567.64 680.317 567.64C681.613 567.64 682.549 568.648 682.525 569.848H677.773ZM690.714 577H694.314V572.128C694.314 569.8 694.65 568.216 697.386 568.216C697.914 568.216 698.418 568.312 698.922 568.456V565.168C698.586 565.072 698.13 565.048 697.722 565.048C696.138 565.048 695.13 565.792 694.362 567.208H694.314V565.336H690.714V577ZM714.888 565.336H711.192L708.624 573.04H708.576L705.576 565.336H701.688L706.8 577.096L706.536 577.768C706.032 579.04 705.768 579.736 704.136 579.736C703.536 579.736 703.008 579.616 702.456 579.376L701.976 582.328C702.84 582.616 703.752 582.76 704.664 582.76C708.096 582.76 708.648 581.368 709.608 578.896L714.888 565.336ZM726.568 565.336H723.4V561.88H719.8V565.336H717.496V568.216H719.8V573.76C719.8 576.304 721.648 577.288 724.048 577.288C724.888 577.288 725.776 577.216 726.568 576.928V573.928C726.256 574.216 725.488 574.264 725.104 574.264C723.544 574.264 723.4 573.352 723.4 572.104V568.216H726.568V565.336ZM730.797 558.856V577H734.397V571.192C734.397 569.68 734.685 568.216 736.557 568.216C738.405 568.216 738.429 569.944 738.429 571.288V577H742.029V570.568C742.029 567.448 741.357 565.048 737.709 565.048C735.957 565.048 734.781 566.008 734.445 566.92H734.397V558.856H730.797ZM747.026 577H750.626V565.336H747.026V577ZM746.738 561.664C746.738 562.816 747.674 563.752 748.826 563.752C749.978 563.752 750.914 562.816 750.914 561.664C750.914 560.512 749.978 559.576 748.826 559.576C747.674 559.576 746.738 560.512 746.738 561.664ZM755.613 577H759.213V571.192C759.213 569.68 759.501 568.216 761.373 568.216C763.221 568.216 763.245 569.944 763.245 571.288V577H766.845V570.568C766.845 567.448 766.173 565.048 762.525 565.048C760.773 565.048 759.597 566.008 759.117 566.92H759.069V565.336H755.613V577ZM784.034 565.336H780.722V566.872H780.674C780.122 566.032 778.73 565.048 776.69 565.048C773.378 565.048 771.362 568.024 771.362 571.12C771.362 574.648 773.642 577.144 777.098 577.144C778.178 577.144 779.57 576.736 780.386 575.608H780.434V576.736C780.434 578.392 779.402 579.592 777.218 579.592C775.754 579.592 774.53 579.016 773.426 578.08L771.434 581.056C773.114 582.4 775.226 582.76 777.29 582.76C781.802 582.76 784.034 580.408 784.034 576.016V565.336ZM774.962 571.096C774.962 569.584 776.21 568.216 777.842 568.216C779.474 568.216 780.722 569.584 780.722 571.096C780.722 572.608 779.474 573.976 777.842 573.976C776.21 573.976 774.962 572.608 774.962 571.096ZM263.822 605.336H260.222V611.144C260.222 612.656 259.934 614.12 258.062 614.12C256.214 614.12 256.19 612.392 256.19 611.048V605.336H252.59V611.768C252.59 614.888 253.262 617.288 256.91 617.288C258.662 617.288 259.838 616.328 260.318 615.416H260.366V617H263.822V605.336ZM268.771 617H272.371V611.192C272.371 609.68 272.659 608.216 274.531 608.216C276.379 608.216 276.403 609.944 276.403 611.288V617H280.003V610.568C280.003 607.448 279.331 605.048 275.683 605.048C273.931 605.048 272.755 606.008 272.275 606.92H272.227V605.336H268.771V617ZM297.192 598.856H293.592V606.584H293.544C292.728 605.456 291.336 605.048 289.848 605.048C286.536 605.048 284.52 608.024 284.52 611.264C284.52 614.792 286.8 617.288 290.256 617.288C291.888 617.288 293.28 616.304 293.832 615.464H293.88V617H297.192V598.856ZM293.88 611.168C293.88 612.92 292.8 614.12 291 614.12C289.2 614.12 288.12 612.92 288.12 611.168C288.12 609.416 289.2 608.216 291 608.216C292.8 608.216 293.88 609.416 293.88 611.168ZM310.99 613.136C310.39 613.952 309.598 614.552 308.422 614.552C307.03 614.552 305.998 613.664 305.71 612.296H314.062V611.168C314.062 607.448 311.95 605.048 308.59 605.048C304.99 605.048 302.11 607.448 302.11 611.168C302.11 614.888 304.99 617.288 308.59 617.288C310.462 617.288 312.358 616.448 313.51 614.984L310.99 613.136ZM305.71 609.848C305.806 608.72 306.67 607.64 308.254 607.64C309.55 607.64 310.486 608.648 310.462 609.848H305.71ZM318.651 617H322.251V612.128C322.251 609.8 322.587 608.216 325.323 608.216C325.851 608.216 326.355 608.312 326.859 608.456V605.168C326.523 605.072 326.067 605.048 325.659 605.048C324.075 605.048 323.067 605.792 322.299 607.208H322.251V605.336H318.651V617ZM339.894 611.168C339.894 614.888 342.774 617.288 346.374 617.288C349.974 617.288 352.854 614.888 352.854 611.168C352.854 607.448 349.974 605.048 346.374 605.048C342.774 605.048 339.894 607.448 339.894 611.168ZM343.494 611.168C343.494 609.416 344.574 608.216 346.374 608.216C348.174 608.216 349.254 609.416 349.254 611.168C349.254 612.92 348.174 614.12 346.374 614.12C344.574 614.12 343.494 612.92 343.494 611.168ZM357.374 617H360.974V611.192C360.974 609.68 361.262 608.216 363.134 608.216C364.982 608.216 365.006 609.944 365.006 611.288V617H368.606V610.568C368.606 607.448 367.934 605.048 364.286 605.048C362.534 605.048 361.358 606.008 360.878 606.92H360.83V605.336H357.374V617ZM382.076 613.136C381.476 613.952 380.684 614.552 379.508 614.552C378.116 614.552 377.084 613.664 376.796 612.296H385.148V611.168C385.148 607.448 383.036 605.048 379.676 605.048C376.076 605.048 373.196 607.448 373.196 611.168C373.196 614.888 376.076 617.288 379.676 617.288C381.548 617.288 383.444 616.448 384.596 614.984L382.076 613.136ZM376.796 609.848C376.892 608.72 377.756 607.64 379.34 607.64C380.636 607.64 381.572 608.648 381.548 609.848H376.796ZM399.238 617H402.838V612.128C402.838 609.8 403.174 608.216 405.91 608.216C406.438 608.216 406.942 608.312 407.446 608.456V605.168C407.11 605.072 406.654 605.048 406.246 605.048C404.662 605.048 403.654 605.792 402.886 607.208H402.838V605.336H399.238V617ZM410.558 611.168C410.558 614.888 413.438 617.288 417.038 617.288C420.638 617.288 423.518 614.888 423.518 611.168C423.518 607.448 420.638 605.048 417.038 605.048C413.438 605.048 410.558 607.448 410.558 611.168ZM414.158 611.168C414.158 609.416 415.238 608.216 417.038 608.216C418.838 608.216 419.918 609.416 419.918 611.168C419.918 612.92 418.838 614.12 417.038 614.12C415.238 614.12 414.158 612.92 414.158 611.168ZM427.606 611.168C427.606 614.888 430.486 617.288 434.086 617.288C437.686 617.288 440.566 614.888 440.566 611.168C440.566 607.448 437.686 605.048 434.086 605.048C430.486 605.048 427.606 607.448 427.606 611.168ZM431.206 611.168C431.206 609.416 432.286 608.216 434.086 608.216C435.886 608.216 436.966 609.416 436.966 611.168C436.966 612.92 435.886 614.12 434.086 614.12C432.286 614.12 431.206 612.92 431.206 611.168ZM446.335 617H449.935V608.216H452.599V605.336H449.935V603.488C449.935 601.952 450.511 601.592 451.663 601.592C452.095 601.592 452.431 601.688 452.839 601.832L453.007 598.784C452.335 598.616 451.615 598.568 450.895 598.568C446.983 598.568 446.335 600.728 446.335 603.272V605.336H443.959V608.216H446.335V617ZM456.442 614.936C456.442 616.16 457.426 617.144 458.65 617.144C459.874 617.144 460.858 616.16 460.858 614.936C460.858 613.712 459.874 612.728 458.65 612.728C457.426 612.728 456.442 613.712 456.442 614.936ZM475.781 617H479.525V600.008H475.781V617ZM492.818 605.336H489.65V601.88H486.05V605.336H483.746V608.216H486.05V613.76C486.05 616.304 487.898 617.288 490.298 617.288C491.138 617.288 492.026 617.216 492.818 616.928V613.928C492.506 614.216 491.738 614.264 491.354 614.264C489.794 614.264 489.65 613.352 489.65 612.104V608.216H492.818V605.336ZM509.429 617H513.053L515.213 609.248H515.261L517.685 617H521.237L525.389 605.336H521.741L519.557 612.656H519.509L517.349 605.336H513.413L511.421 612.656H511.373L508.997 605.336H505.157L509.429 617ZM528.99 617H532.59V605.336H528.99V617ZM528.702 601.664C528.702 602.816 529.638 603.752 530.79 603.752C531.942 603.752 532.878 602.816 532.878 601.664C532.878 600.512 531.942 599.576 530.79 599.576C529.638 599.576 528.702 600.512 528.702 601.664ZM537.624 617H541.224V598.856H537.624V617ZM546.258 617H549.858V598.856H546.258V617ZM564.346 598.856V617H567.946V611.192C567.946 609.68 568.234 608.216 570.106 608.216C571.954 608.216 571.978 609.944 571.978 611.288V617H575.578V610.568C575.578 607.448 574.906 605.048 571.258 605.048C569.506 605.048 568.33 606.008 567.994 606.92H567.946V598.856H564.346ZM589.047 613.136C588.447 613.952 587.655 614.552 586.479 614.552C585.087 614.552 584.055 613.664 583.767 612.296H592.119V611.168C592.119 607.448 590.007 605.048 586.647 605.048C583.047 605.048 580.167 607.448 580.167 611.168C580.167 614.888 583.047 617.288 586.647 617.288C588.519 617.288 590.415 616.448 591.567 614.984L589.047 613.136ZM583.767 609.848C583.863 608.72 584.727 607.64 586.311 607.64C587.607 607.64 588.543 608.648 588.519 609.848H583.767ZM596.757 617H600.357V598.856H596.757V617ZM605.679 622.472H609.279V615.752H609.327C610.143 616.88 611.535 617.288 613.023 617.288C616.335 617.288 618.351 614.312 618.351 611.072C618.351 607.544 616.071 605.048 612.615 605.048C610.983 605.048 609.591 606.032 609.039 606.872H608.991V605.336H605.679V622.472ZM608.991 611.168C608.991 609.416 610.071 608.216 611.871 608.216C613.671 608.216 614.751 609.416 614.751 611.168C614.751 612.92 613.671 614.12 611.871 614.12C610.071 614.12 608.991 612.92 608.991 611.168ZM641.17 606.584C640.09 605.432 638.386 605.048 636.85 605.048C634.402 605.048 631.954 606.248 631.954 608.984C631.954 613.424 638.026 611.84 638.026 613.712C638.026 614.336 637.21 614.552 636.394 614.552C635.314 614.552 634.522 614.096 633.85 613.28L631.666 615.704C632.818 616.88 634.618 617.288 636.25 617.288C638.746 617.288 641.626 616.424 641.626 613.448C641.626 609.008 635.554 610.472 635.554 608.744C635.554 608.048 636.274 607.784 636.874 607.784C637.738 607.784 638.434 608.12 638.962 608.768L641.17 606.584ZM653.191 617H656.503V611.072C656.503 607.184 655.375 605.048 651.175 605.048C649.279 605.048 647.359 605.672 646.039 606.92L647.959 608.888C648.727 608.024 649.711 607.496 650.887 607.496C652.135 607.496 653.191 608.312 653.191 609.584C650.191 609.584 645.295 609.656 645.295 613.688C645.295 616.04 647.263 617.288 649.447 617.288C650.911 617.288 652.351 616.784 653.143 615.536H653.191V617ZM653.191 611.888V612.656C653.191 614.096 651.871 614.84 650.455 614.84C649.663 614.84 648.751 614.432 648.751 613.568C648.751 611.984 651.199 611.888 652.303 611.888H653.191ZM664.762 617H668.578L673.186 605.336H669.562L666.826 613.256H666.778L663.826 605.336H659.938L664.762 617ZM685.418 613.136C684.818 613.952 684.026 614.552 682.85 614.552C681.458 614.552 680.426 613.664 680.138 612.296H688.49V611.168C688.49 607.448 686.378 605.048 683.018 605.048C679.418 605.048 676.538 607.448 676.538 611.168C676.538 614.888 679.418 617.288 683.018 617.288C684.89 617.288 686.786 616.448 687.938 614.984L685.418 613.136ZM680.138 609.848C680.234 608.72 681.098 607.64 682.682 607.64C683.978 607.64 684.914 608.648 684.89 609.848H680.138ZM710.525 605.336H707.357V601.88H703.757V605.336H701.453V608.216H703.757V613.76C703.757 616.304 705.605 617.288 708.005 617.288C708.845 617.288 709.733 617.216 710.525 616.928V613.928C710.213 614.216 709.445 614.264 709.061 614.264C707.501 614.264 707.357 613.352 707.357 612.104V608.216H710.525V605.336ZM714.802 617H718.402V605.336H714.802V617ZM714.514 601.664C714.514 602.816 715.45 603.752 716.602 603.752C717.754 603.752 718.69 602.816 718.69 601.664C718.69 600.512 717.754 599.576 716.602 599.576C715.45 599.576 714.514 600.512 714.514 601.664ZM723.388 617H726.988V611.192C726.988 609.68 727.276 608.216 729.148 608.216C730.804 608.216 730.756 609.968 730.756 610.832V617H734.356V610.832C734.356 609.392 734.884 608.216 736.54 608.216C737.716 608.216 738.124 609.128 738.124 610.208V617H741.724V610.112C741.724 607.28 740.764 605.048 737.596 605.048C735.868 605.048 734.74 605.648 733.9 607.136C733.276 605.72 731.932 605.048 730.3 605.048C728.548 605.048 727.372 606.008 726.892 606.92H726.844V605.336H723.388V617ZM755.191 613.136C754.591 613.952 753.799 614.552 752.623 614.552C751.231 614.552 750.199 613.664 749.911 612.296H758.263V611.168C758.263 607.448 756.151 605.048 752.791 605.048C749.191 605.048 746.311 607.448 746.311 611.168C746.311 614.888 749.191 617.288 752.791 617.288C754.663 617.288 756.559 616.448 757.711 614.984L755.191 613.136ZM749.911 609.848C750.007 608.72 750.871 607.64 752.455 607.64C753.751 607.64 754.687 608.648 754.663 609.848H749.911ZM762.924 614.936C762.924 616.16 763.908 617.144 765.132 617.144C766.356 617.144 767.34 616.16 767.34 614.936C767.34 613.712 766.356 612.728 765.132 612.728C763.908 612.728 762.924 613.712 762.924 614.936Z" fill="white"/>
<path d="M256.5 804H260.244V787.008H256.5V804ZM276.343 804H279.943V795.216H282.607V792.336H279.943V790.488C279.943 788.952 280.519 788.592 281.671 788.592C282.103 788.592 282.439 788.688 282.847 788.832L283.015 785.784C282.343 785.616 281.623 785.568 280.903 785.568C276.991 785.568 276.343 787.728 276.343 790.272V792.336H273.967V795.216H276.343V804ZM294.897 800.136C294.297 800.952 293.505 801.552 292.329 801.552C290.937 801.552 289.905 800.664 289.617 799.296H297.969V798.168C297.969 794.448 295.857 792.048 292.497 792.048C288.897 792.048 286.017 794.448 286.017 798.168C286.017 801.888 288.897 804.288 292.497 804.288C294.369 804.288 296.265 803.448 297.417 801.984L294.897 800.136ZM289.617 796.848C289.713 795.72 290.577 794.64 292.161 794.64C293.457 794.64 294.393 795.648 294.369 796.848H289.617ZM311.079 800.136C310.479 800.952 309.687 801.552 308.511 801.552C307.119 801.552 306.087 800.664 305.799 799.296H314.151V798.168C314.151 794.448 312.039 792.048 308.679 792.048C305.079 792.048 302.199 794.448 302.199 798.168C302.199 801.888 305.079 804.288 308.679 804.288C310.551 804.288 312.447 803.448 313.599 801.984L311.079 800.136ZM305.799 796.848C305.895 795.72 306.759 794.64 308.343 794.64C309.639 794.64 310.575 795.648 310.551 796.848H305.799ZM318.788 804H322.388V785.856H318.788V804ZM336.876 804H340.476V798.192C340.476 796.68 340.764 795.216 342.636 795.216C344.292 795.216 344.244 796.968 344.244 797.832V804H347.844V797.832C347.844 796.392 348.372 795.216 350.028 795.216C351.204 795.216 351.612 796.128 351.612 797.208V804H355.212V797.112C355.212 794.28 354.252 792.048 351.084 792.048C349.356 792.048 348.228 792.648 347.388 794.136C346.764 792.72 345.42 792.048 343.788 792.048C342.036 792.048 340.86 793.008 340.38 793.92H340.332V792.336H336.876V804ZM359.727 798.168C359.727 801.888 362.607 804.288 366.207 804.288C369.807 804.288 372.687 801.888 372.687 798.168C372.687 794.448 369.807 792.048 366.207 792.048C362.607 792.048 359.727 794.448 359.727 798.168ZM363.327 798.168C363.327 796.416 364.407 795.216 366.207 795.216C368.007 795.216 369.087 796.416 369.087 798.168C369.087 799.92 368.007 801.12 366.207 801.12C364.407 801.12 363.327 799.92 363.327 798.168ZM385.151 792.336H381.983V788.88H378.383V792.336H376.079V795.216H378.383V800.76C378.383 803.304 380.231 804.288 382.631 804.288C383.471 804.288 384.359 804.216 385.151 803.928V800.928C384.839 801.216 384.071 801.264 383.687 801.264C382.127 801.264 381.983 800.352 381.983 799.104V795.216H385.151V792.336ZM389.429 804H393.029V792.336H389.429V804ZM389.141 788.664C389.141 789.816 390.077 790.752 391.229 790.752C392.381 790.752 393.317 789.816 393.317 788.664C393.317 787.512 392.381 786.576 391.229 786.576C390.077 786.576 389.141 787.512 389.141 788.664ZM401.615 804H405.431L410.039 792.336H406.415L403.679 800.256H403.631L400.679 792.336H396.791L401.615 804ZM421.071 804H424.383V798.072C424.383 794.184 423.255 792.048 419.055 792.048C417.159 792.048 415.239 792.672 413.919 793.92L415.839 795.888C416.607 795.024 417.591 794.496 418.767 794.496C420.015 794.496 421.071 795.312 421.071 796.584C418.071 796.584 413.175 796.656 413.175 800.688C413.175 803.04 415.143 804.288 417.327 804.288C418.791 804.288 420.231 803.784 421.023 802.536H421.071V804ZM421.071 798.888V799.656C421.071 801.096 419.751 801.84 418.335 801.84C417.543 801.84 416.631 801.432 416.631 800.568C416.631 798.984 419.079 798.888 420.183 798.888H421.071ZM436.986 792.336H433.818V788.88H430.218V792.336H427.914V795.216H430.218V800.76C430.218 803.304 432.066 804.288 434.466 804.288C435.306 804.288 436.194 804.216 436.986 803.928V800.928C436.674 801.216 435.906 801.264 435.522 801.264C433.962 801.264 433.818 800.352 433.818 799.104V795.216H436.986V792.336ZM449.735 800.136C449.135 800.952 448.343 801.552 447.167 801.552C445.775 801.552 444.743 800.664 444.455 799.296H452.807V798.168C452.807 794.448 450.695 792.048 447.335 792.048C443.735 792.048 440.855 794.448 440.855 798.168C440.855 801.888 443.735 804.288 447.335 804.288C449.207 804.288 451.103 803.448 452.255 801.984L449.735 800.136ZM444.455 796.848C444.551 795.72 445.415 794.64 446.999 794.64C448.295 794.64 449.231 795.648 449.207 796.848H444.455ZM469.636 785.856H466.036V793.584H465.988C465.172 792.456 463.78 792.048 462.292 792.048C458.98 792.048 456.964 795.024 456.964 798.264C456.964 801.792 459.244 804.288 462.7 804.288C464.332 804.288 465.724 803.304 466.276 802.464H466.324V804H469.636V785.856ZM466.324 798.168C466.324 799.92 465.244 801.12 463.444 801.12C461.644 801.12 460.564 799.92 460.564 798.168C460.564 796.416 461.644 795.216 463.444 795.216C465.244 795.216 466.324 796.416 466.324 798.168ZM487.295 804H490.919L493.079 796.248H493.127L495.551 804H499.103L503.255 792.336H499.607L497.423 799.656H497.375L495.215 792.336H491.279L489.287 799.656H489.239L486.863 792.336H483.023L487.295 804ZM506.807 785.856V804H510.407V798.192C510.407 796.68 510.695 795.216 512.567 795.216C514.415 795.216 514.439 796.944 514.439 798.288V804H518.039V797.568C518.039 794.448 517.367 792.048 513.719 792.048C511.967 792.048 510.791 793.008 510.455 793.92H510.407V785.856H506.807ZM531.508 800.136C530.908 800.952 530.116 801.552 528.94 801.552C527.548 801.552 526.516 800.664 526.228 799.296H534.58V798.168C534.58 794.448 532.468 792.048 529.108 792.048C525.508 792.048 522.628 794.448 522.628 798.168C522.628 801.888 525.508 804.288 529.108 804.288C530.98 804.288 532.876 803.448 534.028 801.984L531.508 800.136ZM526.228 796.848C526.324 795.72 527.188 794.64 528.772 794.64C530.068 794.64 531.004 795.648 530.98 796.848H526.228ZM539.17 804H542.77V798.192C542.77 796.68 543.058 795.216 544.93 795.216C546.778 795.216 546.802 796.944 546.802 798.288V804H550.402V797.568C550.402 794.448 549.73 792.048 546.082 792.048C544.33 792.048 543.154 793.008 542.674 793.92H542.626V792.336H539.17V804ZM573.372 800.136C572.772 800.952 571.98 801.552 570.804 801.552C569.412 801.552 568.38 800.664 568.092 799.296H576.444V798.168C576.444 794.448 574.332 792.048 570.972 792.048C567.372 792.048 564.492 794.448 564.492 798.168C564.492 801.888 567.372 804.288 570.972 804.288C572.844 804.288 574.74 803.448 575.892 801.984L573.372 800.136ZM568.092 796.848C568.188 795.72 569.052 794.64 570.636 794.64C571.932 794.64 572.868 795.648 572.844 796.848H568.092ZM588.354 804H591.666V798.072C591.666 794.184 590.538 792.048 586.338 792.048C584.442 792.048 582.522 792.672 581.202 793.92L583.122 795.888C583.89 795.024 584.874 794.496 586.05 794.496C587.298 794.496 588.354 795.312 588.354 796.584C585.354 796.584 580.458 796.656 580.458 800.688C580.458 803.04 582.426 804.288 584.61 804.288C586.074 804.288 587.514 803.784 588.306 802.536H588.354V804ZM588.354 798.888V799.656C588.354 801.096 587.034 801.84 585.618 801.84C584.826 801.84 583.914 801.432 583.914 800.568C583.914 798.984 586.362 798.888 587.466 798.888H588.354ZM596.324 804H599.924V799.128C599.924 796.8 600.26 795.216 602.996 795.216C603.524 795.216 604.028 795.312 604.532 795.456V792.168C604.196 792.072 603.74 792.048 603.332 792.048C601.748 792.048 600.74 792.792 599.972 794.208H599.924V792.336H596.324V804ZM608.92 804H612.52V798.192C612.52 796.68 612.808 795.216 614.68 795.216C616.528 795.216 616.552 796.944 616.552 798.288V804H620.152V797.568C620.152 794.448 619.48 792.048 615.832 792.048C614.08 792.048 612.904 793.008 612.424 793.92H612.376V792.336H608.92V804ZM625.149 804H628.749V792.336H625.149V804ZM624.861 788.664C624.861 789.816 625.797 790.752 626.949 790.752C628.101 790.752 629.037 789.816 629.037 788.664C629.037 787.512 628.101 786.576 626.949 786.576C625.797 786.576 624.861 787.512 624.861 788.664ZM633.735 804H637.335V798.192C637.335 796.68 637.623 795.216 639.495 795.216C641.343 795.216 641.367 796.944 641.367 798.288V804H644.967V797.568C644.967 794.448 644.295 792.048 640.647 792.048C638.895 792.048 637.719 793.008 637.239 793.92H637.191V792.336H633.735V804ZM662.157 792.336H658.845V793.872H658.797C658.245 793.032 656.853 792.048 654.813 792.048C651.501 792.048 649.485 795.024 649.485 798.12C649.485 801.648 651.765 804.144 655.221 804.144C656.301 804.144 657.693 803.736 658.509 802.608H658.557V803.736C658.557 805.392 657.525 806.592 655.341 806.592C653.877 806.592 652.653 806.016 651.549 805.08L649.557 808.056C651.237 809.4 653.349 809.76 655.413 809.76C659.925 809.76 662.157 807.408 662.157 803.016V792.336ZM653.085 798.096C653.085 796.584 654.333 795.216 655.965 795.216C657.597 795.216 658.845 796.584 658.845 798.096C658.845 799.608 657.597 800.976 655.965 800.976C654.333 800.976 653.085 799.608 653.085 798.096ZM677.271 809.472H680.871V802.752H680.919C681.735 803.88 683.127 804.288 684.615 804.288C687.927 804.288 689.943 801.312 689.943 798.072C689.943 794.544 687.663 792.048 684.207 792.048C682.575 792.048 681.183 793.032 680.631 793.872H680.583V792.336H677.271V809.472ZM680.583 798.168C680.583 796.416 681.663 795.216 683.463 795.216C685.263 795.216 686.343 796.416 686.343 798.168C686.343 799.92 685.263 801.12 683.463 801.12C681.663 801.12 680.583 799.92 680.583 798.168ZM694.452 804H698.052V799.128C698.052 796.8 698.388 795.216 701.124 795.216C701.652 795.216 702.156 795.312 702.66 795.456V792.168C702.324 792.072 701.868 792.048 701.46 792.048C699.876 792.048 698.868 792.792 698.1 794.208H698.052V792.336H694.452V804ZM706.674 804H710.274V792.336H706.674V804ZM706.386 788.664C706.386 789.816 707.322 790.752 708.474 790.752C709.626 790.752 710.562 789.816 710.562 788.664C710.562 787.512 709.626 786.576 708.474 786.576C707.322 786.576 706.386 787.512 706.386 788.664ZM714.804 804H725.172V801.12H718.692L725.028 795.792V792.336H714.948V795.216H720.852L714.804 800.4V804ZM738.18 800.136C737.58 800.952 736.788 801.552 735.612 801.552C734.22 801.552 733.188 800.664 732.9 799.296H741.252V798.168C741.252 794.448 739.14 792.048 735.78 792.048C732.18 792.048 729.3 794.448 729.3 798.168C729.3 801.888 732.18 804.288 735.78 804.288C737.652 804.288 739.548 803.448 740.7 801.984L738.18 800.136ZM732.9 796.848C732.996 795.72 733.86 794.64 735.444 794.64C736.74 794.64 737.676 795.648 737.652 796.848H732.9ZM754.65 793.584C753.57 792.432 751.866 792.048 750.33 792.048C747.882 792.048 745.434 793.248 745.434 795.984C745.434 800.424 751.506 798.84 751.506 800.712C751.506 801.336 750.69 801.552 749.874 801.552C748.794 801.552 748.002 801.096 747.33 800.28L745.146 802.704C746.298 803.88 748.098 804.288 749.73 804.288C752.226 804.288 755.106 803.424 755.106 800.448C755.106 796.008 749.034 797.472 749.034 795.744C749.034 795.048 749.754 794.784 750.354 794.784C751.218 794.784 751.914 795.12 752.442 795.768L754.65 793.584ZM759.423 801.936C759.423 803.16 760.407 804.144 761.631 804.144C762.855 804.144 763.839 803.16 763.839 801.936C763.839 800.712 762.855 799.728 761.631 799.728C760.407 799.728 759.423 800.712 759.423 801.936ZM275.196 844H279.324L280.74 840.4H287.34L288.804 844H293.028L285.636 827.008H282.54L275.196 844ZM286.068 837.232H281.916L283.98 831.952L286.068 837.232ZM305.489 833.584C304.409 832.432 302.705 832.048 301.169 832.048C298.721 832.048 296.273 833.248 296.273 835.984C296.273 840.424 302.345 838.84 302.345 840.712C302.345 841.336 301.529 841.552 300.713 841.552C299.633 841.552 298.841 841.096 298.169 840.28L295.985 842.704C297.137 843.88 298.937 844.288 300.569 844.288C303.065 844.288 305.945 843.424 305.945 840.448C305.945 836.008 299.873 837.472 299.873 835.744C299.873 835.048 300.593 834.784 301.193 834.784C302.057 834.784 302.753 835.12 303.281 835.768L305.489 833.584ZM318.998 833.584C317.918 832.432 316.214 832.048 314.678 832.048C312.23 832.048 309.782 833.248 309.782 835.984C309.782 840.424 315.854 838.84 315.854 840.712C315.854 841.336 315.038 841.552 314.222 841.552C313.142 841.552 312.35 841.096 311.678 840.28L309.494 842.704C310.646 843.88 312.446 844.288 314.078 844.288C316.574 844.288 319.454 843.424 319.454 840.448C319.454 836.008 313.382 837.472 313.382 835.744C313.382 835.048 314.102 834.784 314.702 834.784C315.566 834.784 316.262 835.12 316.79 835.768L318.998 833.584ZM323.747 844H327.347V832.336H323.747V844ZM323.459 828.664C323.459 829.816 324.395 830.752 325.547 830.752C326.699 830.752 327.635 829.816 327.635 828.664C327.635 827.512 326.699 826.576 325.547 826.576C324.395 826.576 323.459 827.512 323.459 828.664ZM341.142 833.584C340.062 832.432 338.358 832.048 336.822 832.048C334.374 832.048 331.926 833.248 331.926 835.984C331.926 840.424 337.998 838.84 337.998 840.712C337.998 841.336 337.182 841.552 336.366 841.552C335.286 841.552 334.494 841.096 333.822 840.28L331.638 842.704C332.79 843.88 334.59 844.288 336.222 844.288C338.718 844.288 341.598 843.424 341.598 840.448C341.598 836.008 335.526 837.472 335.526 835.744C335.526 835.048 336.246 834.784 336.846 834.784C337.71 834.784 338.406 835.12 338.934 835.768L341.142 833.584ZM353.787 832.336H350.619V828.88H347.019V832.336H344.715V835.216H347.019V840.76C347.019 843.304 348.867 844.288 351.267 844.288C352.107 844.288 352.995 844.216 353.787 843.928V840.928C353.475 841.216 352.707 841.264 352.323 841.264C350.763 841.264 350.619 840.352 350.619 839.104V835.216H353.787V832.336ZM366.537 840.136C365.937 840.952 365.145 841.552 363.969 841.552C362.577 841.552 361.545 840.664 361.257 839.296H369.609V838.168C369.609 834.448 367.497 832.048 364.137 832.048C360.537 832.048 357.657 834.448 357.657 838.168C357.657 841.888 360.537 844.288 364.137 844.288C366.009 844.288 367.905 843.448 369.057 841.984L366.537 840.136ZM361.257 836.848C361.353 835.72 362.217 834.64 363.801 834.64C365.097 834.64 366.033 835.648 366.009 836.848H361.257ZM386.438 825.856H382.838V833.584H382.79C381.974 832.456 380.582 832.048 379.094 832.048C375.782 832.048 373.766 835.024 373.766 838.264C373.766 841.792 376.046 844.288 379.502 844.288C381.134 844.288 382.526 843.304 383.078 842.464H383.126V844H386.438V825.856ZM383.126 838.168C383.126 839.92 382.046 841.12 380.246 841.12C378.446 841.12 377.366 839.92 377.366 838.168C377.366 836.416 378.446 835.216 380.246 835.216C382.046 835.216 383.126 836.416 383.126 838.168ZM401.265 844H404.865V825.856H401.265V844ZM418.371 840.136C417.771 840.952 416.979 841.552 415.803 841.552C414.411 841.552 413.379 840.664 413.091 839.296H421.443V838.168C421.443 834.448 419.331 832.048 415.971 832.048C412.371 832.048 409.491 834.448 409.491 838.168C409.491 841.888 412.371 844.288 415.971 844.288C417.843 844.288 419.739 843.448 420.891 841.984L418.371 840.136ZM413.091 836.848C413.187 835.72 414.051 834.64 415.635 834.64C416.931 834.64 417.867 835.648 417.843 836.848H413.091ZM433.352 844H436.664V838.072C436.664 834.184 435.536 832.048 431.336 832.048C429.44 832.048 427.52 832.672 426.2 833.92L428.12 835.888C428.888 835.024 429.872 834.496 431.048 834.496C432.296 834.496 433.352 835.312 433.352 836.584C430.352 836.584 425.456 836.656 425.456 840.688C425.456 843.04 427.424 844.288 429.608 844.288C431.072 844.288 432.512 843.784 433.304 842.536H433.352V844ZM433.352 838.888V839.656C433.352 841.096 432.032 841.84 430.616 841.84C429.824 841.84 428.912 841.432 428.912 840.568C428.912 838.984 431.36 838.888 432.464 838.888H433.352ZM441.323 844H444.923V839.128C444.923 836.8 445.259 835.216 447.995 835.216C448.523 835.216 449.027 835.312 449.531 835.456V832.168C449.195 832.072 448.739 832.048 448.331 832.048C446.747 832.048 445.739 832.792 444.971 834.208H444.923V832.336H441.323V844ZM453.918 844H457.518V838.192C457.518 836.68 457.806 835.216 459.678 835.216C461.526 835.216 461.55 836.944 461.55 838.288V844H465.15V837.568C465.15 834.448 464.478 832.048 460.83 832.048C459.078 832.048 457.902 833.008 457.422 833.92H457.374V832.336H453.918V844ZM470.147 844H473.747V832.336H470.147V844ZM469.859 828.664C469.859 829.816 470.795 830.752 471.947 830.752C473.099 830.752 474.035 829.816 474.035 828.664C474.035 827.512 473.099 826.576 471.947 826.576C470.795 826.576 469.859 827.512 469.859 828.664ZM478.734 844H482.334V838.192C482.334 836.68 482.622 835.216 484.494 835.216C486.342 835.216 486.366 836.944 486.366 838.288V844H489.966V837.568C489.966 834.448 489.294 832.048 485.646 832.048C483.894 832.048 482.718 833.008 482.238 833.92H482.19V832.336H478.734V844ZM507.155 832.336H503.843V833.872H503.795C503.243 833.032 501.851 832.048 499.811 832.048C496.499 832.048 494.483 835.024 494.483 838.12C494.483 841.648 496.763 844.144 500.219 844.144C501.299 844.144 502.691 843.736 503.507 842.608H503.555V843.736C503.555 845.392 502.523 846.592 500.339 846.592C498.875 846.592 497.651 846.016 496.547 845.08L494.555 848.056C496.235 849.4 498.347 849.76 500.411 849.76C504.923 849.76 507.155 847.408 507.155 843.016V832.336ZM498.083 838.096C498.083 836.584 499.331 835.216 500.963 835.216C502.595 835.216 503.843 836.584 503.843 838.096C503.843 839.608 502.595 840.976 500.963 840.976C499.331 840.976 498.083 839.608 498.083 838.096ZM521.982 844H525.582V832.336H521.982V844ZM521.694 828.664C521.694 829.816 522.63 830.752 523.782 830.752C524.934 830.752 525.87 829.816 525.87 828.664C525.87 827.512 524.934 826.576 523.782 826.576C522.63 826.576 521.694 827.512 521.694 828.664ZM539.376 833.584C538.296 832.432 536.592 832.048 535.056 832.048C532.608 832.048 530.16 833.248 530.16 835.984C530.16 840.424 536.232 838.84 536.232 840.712C536.232 841.336 535.416 841.552 534.6 841.552C533.52 841.552 532.728 841.096 532.056 840.28L529.872 842.704C531.024 843.88 532.824 844.288 534.456 844.288C536.952 844.288 539.832 843.424 539.832 840.448C539.832 836.008 533.76 837.472 533.76 835.744C533.76 835.048 534.48 834.784 535.08 834.784C535.944 834.784 536.64 835.12 537.168 835.768L539.376 833.584ZM553.915 844H557.227V842.464H557.275C557.827 843.304 559.219 844.288 560.851 844.288C564.307 844.288 566.587 841.792 566.587 838.264C566.587 835.024 564.571 832.048 561.259 832.048C559.771 832.048 558.379 832.456 557.563 833.584H557.515V825.856H553.915V844ZM557.227 838.168C557.227 836.416 558.307 835.216 560.107 835.216C561.907 835.216 562.987 836.416 562.987 838.168C562.987 839.92 561.907 841.12 560.107 841.12C558.307 841.12 557.227 839.92 557.227 838.168ZM579.616 840.136C579.016 840.952 578.224 841.552 577.048 841.552C575.656 841.552 574.624 840.664 574.336 839.296H582.688V838.168C582.688 834.448 580.576 832.048 577.216 832.048C573.616 832.048 570.736 834.448 570.736 838.168C570.736 841.888 573.616 844.288 577.216 844.288C579.088 844.288 580.984 843.448 582.136 841.984L579.616 840.136ZM574.336 836.848C574.432 835.72 575.296 834.64 576.88 834.64C578.176 834.64 579.112 835.648 579.088 836.848H574.336ZM595.221 832.336H592.053V828.88H588.453V832.336H586.149V835.216H588.453V840.76C588.453 843.304 590.301 844.288 592.701 844.288C593.541 844.288 594.429 844.216 595.221 843.928V840.928C594.909 841.216 594.141 841.264 593.757 841.264C592.197 841.264 592.053 840.352 592.053 839.104V835.216H595.221V832.336ZM607.395 832.336H604.227V828.88H600.627V832.336H598.323V835.216H600.627V840.76C600.627 843.304 602.475 844.288 604.875 844.288C605.715 844.288 606.603 844.216 607.395 843.928V840.928C607.083 841.216 606.315 841.264 605.931 841.264C604.371 841.264 604.227 840.352 604.227 839.104V835.216H607.395V832.336ZM620.144 840.136C619.544 840.952 618.752 841.552 617.576 841.552C616.184 841.552 615.152 840.664 614.864 839.296H623.216V838.168C623.216 834.448 621.104 832.048 617.744 832.048C614.144 832.048 611.264 834.448 611.264 838.168C611.264 841.888 614.144 844.288 617.744 844.288C619.616 844.288 621.512 843.448 622.664 841.984L620.144 840.136ZM614.864 836.848C614.96 835.72 615.824 834.64 617.408 834.64C618.704 834.64 619.64 835.648 619.616 836.848H614.864ZM627.806 844H631.406V839.128C631.406 836.8 631.742 835.216 634.478 835.216C635.006 835.216 635.51 835.312 636.014 835.456V832.168C635.678 832.072 635.222 832.048 634.814 832.048C633.23 832.048 632.222 832.792 631.454 834.208H631.406V832.336H627.806V844ZM650.729 844H654.329V835.216H656.993V832.336H654.329V830.488C654.329 828.952 654.905 828.592 656.057 828.592C656.489 828.592 656.825 828.688 657.233 828.832L657.401 825.784C656.729 825.616 656.009 825.568 655.289 825.568C651.377 825.568 650.729 827.728 650.729 830.272V832.336H648.353V835.216H650.729V844ZM660.331 838.168C660.331 841.888 663.211 844.288 666.811 844.288C670.411 844.288 673.291 841.888 673.291 838.168C673.291 834.448 670.411 832.048 666.811 832.048C663.211 832.048 660.331 834.448 660.331 838.168ZM663.931 838.168C663.931 836.416 665.011 835.216 666.811 835.216C668.611 835.216 669.691 836.416 669.691 838.168C669.691 839.92 668.611 841.12 666.811 841.12C665.011 841.12 663.931 839.92 663.931 838.168ZM677.812 844H681.412V839.128C681.412 836.8 681.748 835.216 684.484 835.216C685.012 835.216 685.516 835.312 686.02 835.456V832.168C685.684 832.072 685.228 832.048 684.82 832.048C683.236 832.048 682.228 832.792 681.46 834.208H681.412V832.336H677.812V844ZM699.487 844H703.087V838.192C703.087 836.68 703.375 835.216 705.247 835.216C706.903 835.216 706.855 836.968 706.855 837.832V844H710.455V837.832C710.455 836.392 710.983 835.216 712.639 835.216C713.815 835.216 714.223 836.128 714.223 837.208V844H717.823V837.112C717.823 834.28 716.863 832.048 713.695 832.048C711.967 832.048 710.839 832.648 709.999 834.136C709.375 832.72 708.031 832.048 706.399 832.048C704.647 832.048 703.471 833.008 702.991 833.92H702.943V832.336H699.487V844ZM731.29 840.136C730.69 840.952 729.898 841.552 728.722 841.552C727.33 841.552 726.298 840.664 726.01 839.296H734.362V838.168C734.362 834.448 732.25 832.048 728.89 832.048C725.29 832.048 722.41 834.448 722.41 838.168C722.41 841.888 725.29 844.288 728.89 844.288C730.762 844.288 732.658 843.448 733.81 841.984L731.29 840.136ZM726.01 836.848C726.106 835.72 726.97 834.64 728.554 834.64C729.85 834.64 730.786 835.648 730.762 836.848H726.01ZM739.023 841.936C739.023 843.16 740.007 844.144 741.231 844.144C742.455 844.144 743.439 843.16 743.439 841.936C743.439 840.712 742.455 839.728 741.231 839.728C740.007 839.728 739.023 840.712 739.023 841.936Z" fill="white"/>
<path d="M49.728 45H53.472V31.968H53.52L57.816 45H60.672L65.136 31.968H65.184V45H68.928V28.008H63.288L59.352 39.096H59.304L55.392 28.008H49.728V45ZM73.9041 39.168C73.9041 42.888 76.7841 45.288 80.3841 45.288C83.9841 45.288 86.8641 42.888 86.8641 39.168C86.8641 35.448 83.9841 33.048 80.3841 33.048C76.7841 33.048 73.9041 35.448 73.9041 39.168ZM77.5041 39.168C77.5041 37.416 78.5841 36.216 80.3841 36.216C82.1841 36.216 83.2641 37.416 83.2641 39.168C83.2641 40.92 82.1841 42.12 80.3841 42.12C78.5841 42.12 77.5041 40.92 77.5041 39.168ZM94.9845 45H98.8005L103.408 33.336H99.7845L97.0485 41.256H97.0005L94.0485 33.336H90.1605L94.9845 45ZM115.64 41.136C115.04 41.952 114.248 42.552 113.072 42.552C111.68 42.552 110.648 41.664 110.36 40.296H118.712V39.168C118.712 35.448 116.6 33.048 113.24 33.048C109.64 33.048 106.76 35.448 106.76 39.168C106.76 42.888 109.64 45.288 113.24 45.288C115.112 45.288 117.008 44.448 118.16 42.984L115.64 41.136ZM110.36 37.848C110.456 36.72 111.32 35.64 112.904 35.64C114.2 35.64 115.136 36.648 115.112 37.848H110.36ZM123.302 45H126.902V40.128C126.902 37.8 127.238 36.216 129.974 36.216C130.502 36.216 131.006 36.312 131.51 36.456V33.168C131.174 33.072 130.718 33.048 130.31 33.048C128.726 33.048 127.718 33.792 126.95 35.208H126.902V33.336H123.302V45Z" fill="#595D71"/>
<path d="M672.306 105.194C674.695 93.6784 683.473 90.7523 693.207 95.1618" stroke="#001454" stroke-width="8" stroke-linecap="round"/>
<path d="M751.152 73.1018C742.284 65.3836 733.536 68.3694 728.469 77.7712" stroke="#001454" stroke-width="8" stroke-linecap="round"/>
<ellipse cx="681.197" cy="115.666" rx="9.82346" ry="3.76218" transform="rotate(-25.5241 681.197 115.666)" fill="#FFDAD4"/>
<ellipse cx="751.841" cy="86.4048" rx="9.82346" ry="3.76218" transform="rotate(-25.5241 751.841 86.4048)" fill="#FFDAD4"/>
<path d="M694.926 150.051C710.84 170.114 745.536 169.278 758.883 140.854" stroke="#001454" stroke-width="8" stroke-linecap="round"/>
<path d="M710.422 113.054C721.595 113.237 726.523 111.064 732.995 103.022" stroke="#001454" stroke-width="8" stroke-linecap="round"/>
<path d="M584.026 54.9376L584.07 54.5846L584.026 54.1401C583.842 52.2656 584.623 49.3887 586.991 45.8069C589.296 42.3204 592.831 38.5926 597.322 35.1641C606.328 28.288 618.665 23 631.462 23C644.901 23 658.08 25.3425 667.781 28.8066C672.651 30.5453 676.444 32.4959 678.938 34.4251C680.989 36.012 681.712 37.2186 681.931 37.9437C681.112 38.0116 680.039 37.9939 678.468 37.9572L678.367 37.9549C676.813 37.9185 674.928 37.8744 672.855 37.9643C664.098 38.3442 652.442 41.1193 640.702 55.0872C631.21 63.4967 616.582 65.2157 603.868 63.2998C597.539 62.3461 592.047 60.5371 588.334 58.5094C586.464 57.488 585.234 56.5136 584.551 55.7283C584.171 55.2919 584.057 55.0338 584.026 54.9376ZM584.018 54.9114C584.015 54.8999 584.015 54.8942 584.015 54.8942C584.015 54.8942 584.017 54.9 584.018 54.9114Z" stroke="#001454" stroke-width="8"/>
<path d="M664.367 62.6961C677.398 40.5409 704.778 33.2125 724.98 40.5411" stroke="#001454" stroke-width="8" stroke-linecap="round"/>
<path d="M49.8 89H56.328C59.664 89 64.656 86.768 64.656 80.504C64.656 74.24 59.664 72.008 56.328 72.008H49.8V89ZM51.816 73.88H55.656C59.544 73.88 62.496 75.848 62.496 80.504C62.496 85.16 59.544 87.128 55.656 87.128H51.816V73.88ZM70.1331 89H72.0051V77.768H70.1331V89ZM69.7011 73.376C69.7011 74.168 70.2771 74.744 71.0691 74.744C71.8611 74.744 72.4371 74.168 72.4371 73.376C72.4371 72.632 71.8371 72.008 71.0691 72.008C70.3011 72.008 69.7011 72.632 69.7011 73.376ZM76.8827 87.2C77.9867 88.784 79.3547 89.288 81.2507 89.288C83.4827 89.288 85.7387 88.304 85.7387 85.76C85.7387 83.504 84.0587 82.784 82.0667 82.4C80.5787 82.112 79.2347 81.704 79.2347 80.768C79.2347 79.712 80.4107 79.208 81.4427 79.208C82.5467 79.208 83.3387 79.76 83.8187 80.552L85.3787 79.52C84.6107 78.08 83.1467 77.48 81.5627 77.48C79.4747 77.48 77.3627 78.608 77.3627 80.792C77.3627 83.12 79.1867 83.576 81.3227 84.056C82.5227 84.32 83.7227 84.632 83.7227 85.832C83.7227 87.056 82.4267 87.56 81.2507 87.56C79.9307 87.56 79.1147 86.96 78.3707 86.048L76.8827 87.2ZM90.7494 89H92.6214V83.528C92.6214 80.96 93.6774 79.208 96.1014 79.208C97.8534 79.208 98.6694 80.384 98.6694 82.256V89H100.541V82.064C100.541 79.352 99.2214 77.48 96.2694 77.48C94.5174 77.48 93.1734 78.44 92.6694 79.328H92.6214V70.856H90.7494V89ZM107.517 80.432C108.405 79.616 109.653 79.208 110.853 79.208C112.605 79.208 113.637 80.048 113.637 81.68V82.016H112.917C110.157 82.016 105.837 82.232 105.837 85.952C105.837 88.136 107.733 89.288 110.013 89.288C111.717 89.288 112.965 88.472 113.709 87.32H113.757C113.757 87.8 113.757 88.496 113.877 89H115.677C115.581 88.424 115.509 87.704 115.509 87.056V82.232C115.509 79.064 114.117 77.48 110.805 77.48C109.173 77.48 107.493 78.032 106.341 79.208L107.517 80.432ZM113.637 83.6V84.32C113.589 86.144 112.485 87.704 110.325 87.704C108.909 87.704 107.853 87.176 107.853 85.76C107.853 84.248 109.389 83.6 111.765 83.6H113.637ZM124.619 86.552H122.435L120.803 92.312H122.651L124.619 86.552ZM147.77 72.008H145.298L138.554 82.88V85.112H145.754V89H147.77V85.112H150.218V83.24H147.77V72.008ZM145.754 83.24H140.282L145.706 74.36H145.754V83.24ZM154.65 89H165.594V87.128H156.93V87.08L162.162 82.16C163.866 80.552 165.474 79.04 165.474 76.328C165.474 73.304 163.098 71.72 160.29 71.72C157.554 71.72 155.418 73.184 154.962 75.968L157.146 76.16C157.458 74.528 158.658 73.448 160.362 73.448C162.066 73.448 163.458 74.552 163.458 76.328C163.458 77.984 162.666 78.896 161.058 80.456L154.65 86.696V89ZM174.25 86.552H172.066L170.434 92.312H172.282L174.25 86.552ZM187.489 89H189.769L191.521 84.824H200.017L201.745 89H204.097L196.873 72.008H194.977L187.489 89ZM199.249 82.952H192.313L195.841 74.6H195.889L199.249 82.952ZM208.42 89H210.292V83.528C210.292 80.96 211.348 79.208 213.772 79.208C215.524 79.208 216.34 80.384 216.34 82.256V89H218.212V82.064C218.212 79.352 216.892 77.48 213.94 77.48C212.092 77.48 210.7 78.512 210.196 79.616H210.148C210.148 78.992 210.1 78.368 210.1 77.768H208.324C208.324 78.512 208.42 79.4 208.42 80.432V89ZM225.188 80.432C226.076 79.616 227.324 79.208 228.524 79.208C230.276 79.208 231.308 80.048 231.308 81.68V82.016H230.588C227.828 82.016 223.508 82.232 223.508 85.952C223.508 88.136 225.404 89.288 227.684 89.288C229.388 89.288 230.636 88.472 231.38 87.32H231.428C231.428 87.8 231.428 88.496 231.548 89H233.348C233.252 88.424 233.18 87.704 233.18 87.056V82.232C233.18 79.064 231.788 77.48 228.476 77.48C226.844 77.48 225.164 78.032 224.012 79.208L225.188 80.432ZM231.308 83.6V84.32C231.26 86.144 230.156 87.704 227.996 87.704C226.58 87.704 225.524 87.176 225.524 85.76C225.524 84.248 227.06 83.6 229.436 83.6H231.308ZM239.169 89H241.041V70.856H239.169V89ZM256.719 77.768H254.679L251.343 86.576H251.295L247.815 77.768H245.631L250.287 89.072L249.519 91.184C249.111 92.288 248.655 93.032 247.431 93.032C246.903 93.032 246.495 92.984 246.111 92.84L245.871 94.472C246.375 94.712 247.023 94.76 247.551 94.76C249.807 94.76 250.551 93.464 251.295 91.568L256.719 77.768ZM259.897 87.2C261.001 88.784 262.369 89.288 264.265 89.288C266.497 89.288 268.753 88.304 268.753 85.76C268.753 83.504 267.073 82.784 265.081 82.4C263.593 82.112 262.249 81.704 262.249 80.768C262.249 79.712 263.425 79.208 264.457 79.208C265.561 79.208 266.353 79.76 266.833 80.552L268.393 79.52C267.625 78.08 266.161 77.48 264.577 77.48C262.489 77.48 260.377 78.608 260.377 80.792C260.377 83.12 262.201 83.576 264.337 84.056C265.537 84.32 266.737 84.632 266.737 85.832C266.737 87.056 265.441 87.56 264.265 87.56C262.945 87.56 262.129 86.96 261.385 86.048L259.897 87.2ZM279.908 77.768H276.596V74.576H274.724V77.768H272.276V79.352H274.724V85.52C274.724 87.848 275.156 89.288 277.82 89.288C278.516 89.288 279.356 89.168 280.004 88.88L279.932 87.176C279.428 87.44 278.828 87.56 278.276 87.56C276.62 87.56 276.596 86.408 276.596 84.968V79.352H279.908V77.768ZM50.112 129H61.224V127.128H52.128V121.08H60.216V119.208H52.128V113.88H60.792V112.008H50.112V129ZM64.6986 129H67.0266L70.5306 124.152L74.0826 129H76.5546L71.9226 122.952L75.7866 117.768H73.5066L70.6986 121.8L67.7226 117.768H65.2746L69.3066 122.952L64.6986 129ZM80.7066 134.472H82.5786V127.008H82.6266C83.3226 128.28 84.9306 129.288 86.9466 129.288C90.0906 129.288 92.5626 126.744 92.5626 123.384C92.5626 119.976 90.1866 117.48 86.6586 117.48C85.0266 117.48 83.6586 118.2 82.6266 119.4H82.5786V117.768H80.7066V134.472ZM82.5786 123.384C82.5786 121.032 84.1386 119.208 86.5626 119.208C88.9866 119.208 90.5466 121.032 90.5466 123.384C90.5466 125.736 88.9866 127.56 86.5626 127.56C84.1386 127.56 82.5786 125.736 82.5786 123.384ZM106.49 125.856C105.602 126.984 104.522 127.56 102.914 127.56C100.874 127.56 99.3864 125.904 99.2424 123.96H108.314V123.36C108.314 119.64 106.154 117.48 102.986 117.48C99.6744 117.48 97.2264 119.904 97.2264 123.384C97.2264 126.648 99.3864 129.288 102.914 129.288C105.002 129.288 106.586 128.664 107.906 126.96L106.49 125.856ZM99.2424 122.376C99.4824 120.48 100.85 119.208 102.914 119.208C104.978 119.208 106.226 120.48 106.298 122.376H99.2424ZM113.61 129H115.482V123.528C115.482 120.96 116.49 119.352 118.77 119.352C119.106 119.352 119.466 119.4 119.778 119.496L119.898 117.6C119.634 117.504 119.37 117.48 119.13 117.48C117.282 117.48 115.89 118.512 115.386 119.616H115.338C115.338 118.992 115.29 118.368 115.29 117.768H113.514C113.514 118.512 113.61 119.4 113.61 120.432V129ZM124.616 129H126.488V117.768H124.616V129ZM124.184 113.376C124.184 114.168 124.76 114.744 125.552 114.744C126.344 114.744 126.92 114.168 126.92 113.376C126.92 112.632 126.32 112.008 125.552 112.008C124.784 112.008 124.184 112.632 124.184 113.376ZM132.614 129H134.486V123.528C134.486 120.96 135.542 119.208 137.966 119.208C139.502 119.208 140.126 120.168 140.126 122.64V129H141.998V122.52C141.998 120.504 143.318 119.208 144.902 119.208C147.086 119.208 147.638 120.72 147.638 122.28V129H149.51V122.184C149.51 119.28 148.454 117.48 145.238 117.48C143.534 117.48 142.502 118.296 141.686 119.616C141.326 118.848 140.558 117.48 138.134 117.48C136.286 117.48 134.894 118.512 134.39 119.616H134.342C134.342 118.992 134.294 118.368 134.294 117.768H132.518C132.518 118.512 132.614 119.4 132.614 120.432V129ZM164.067 125.856C163.179 126.984 162.099 127.56 160.491 127.56C158.451 127.56 156.963 125.904 156.819 123.96H165.891V123.36C165.891 119.64 163.731 117.48 160.563 117.48C157.251 117.48 154.803 119.904 154.803 123.384C154.803 126.648 156.963 129.288 160.491 129.288C162.579 129.288 164.163 128.664 165.483 126.96L164.067 125.856ZM156.819 122.376C157.059 120.48 158.427 119.208 160.491 119.208C162.555 119.208 163.803 120.48 163.875 122.376H156.819ZM171.187 129H173.059V123.528C173.059 120.96 174.115 119.208 176.539 119.208C178.291 119.208 179.107 120.384 179.107 122.256V129H180.979V122.064C180.979 119.352 179.659 117.48 176.707 117.48C174.859 117.48 173.467 118.512 172.963 119.616H172.915C172.915 118.992 172.867 118.368 172.867 117.768H171.091C171.091 118.512 171.187 119.4 171.187 120.432V129ZM193.067 117.768H189.755V114.576H187.883V117.768H185.435V119.352H187.883V125.52C187.883 127.848 188.315 129.288 190.979 129.288C191.675 129.288 192.515 129.168 193.163 128.88L193.091 127.176C192.587 127.44 191.987 127.56 191.435 127.56C189.779 127.56 189.755 126.408 189.755 124.968V119.352H193.067V117.768ZM198.792 120.432C199.68 119.616 200.928 119.208 202.128 119.208C203.88 119.208 204.912 120.048 204.912 121.68V122.016H204.192C201.432 122.016 197.112 122.232 197.112 125.952C197.112 128.136 199.008 129.288 201.288 129.288C202.992 129.288 204.24 128.472 204.984 127.32H205.032C205.032 127.8 205.032 128.496 205.152 129H206.952C206.856 128.424 206.784 127.704 206.784 127.056V122.232C206.784 119.064 205.392 117.48 202.08 117.48C200.448 117.48 198.768 118.032 197.616 119.208L198.792 120.432ZM204.912 123.6V124.32C204.864 126.144 203.76 127.704 201.6 127.704C200.184 127.704 199.128 127.176 199.128 125.76C199.128 124.248 200.664 123.6 203.04 123.6H204.912ZM212.774 129H214.646V110.856H212.774V129ZM241.587 112.008H228.339V113.88H233.955V129H235.971V113.88H241.587V112.008ZM243.829 129H245.701V123.528C245.701 120.96 246.709 119.352 248.989 119.352C249.325 119.352 249.685 119.4 249.997 119.496L250.117 117.6C249.853 117.504 249.589 117.48 249.349 117.48C247.501 117.48 246.109 118.512 245.605 119.616H245.557C245.557 118.992 245.509 118.368 245.509 117.768H243.733C243.733 118.512 243.829 119.4 243.829 120.432V129ZM255.699 120.432C256.587 119.616 257.835 119.208 259.035 119.208C260.787 119.208 261.819 120.048 261.819 121.68V122.016H261.099C258.339 122.016 254.019 122.232 254.019 125.952C254.019 128.136 255.915 129.288 258.195 129.288C259.899 129.288 261.147 128.472 261.891 127.32H261.939C261.939 127.8 261.939 128.496 262.059 129H263.859C263.763 128.424 263.691 127.704 263.691 127.056V122.232C263.691 119.064 262.299 117.48 258.987 117.48C257.355 117.48 255.675 118.032 254.523 119.208L255.699 120.432ZM261.819 123.6V124.32C261.771 126.144 260.667 127.704 258.507 127.704C257.091 127.704 256.035 127.176 256.035 125.76C256.035 124.248 257.571 123.6 259.947 123.6H261.819ZM278.848 129H280.72V110.856H278.848V119.4H278.8C277.768 118.2 276.4 117.48 274.768 117.48C271.24 117.48 268.864 119.976 268.864 123.384C268.864 126.744 271.336 129.288 274.48 129.288C276.496 129.288 278.104 128.28 278.8 127.008H278.848V129ZM278.848 123.384C278.848 125.736 277.288 127.56 274.864 127.56C272.44 127.56 270.88 125.736 270.88 123.384C270.88 121.032 272.44 119.208 274.864 119.208C277.288 119.208 278.848 121.032 278.848 123.384ZM295.2 125.856C294.312 126.984 293.232 127.56 291.624 127.56C289.584 127.56 288.096 125.904 287.952 123.96H297.024V123.36C297.024 119.64 294.864 117.48 291.696 117.48C288.384 117.48 285.936 119.904 285.936 123.384C285.936 126.648 288.096 129.288 291.624 129.288C293.712 129.288 295.296 128.664 296.616 126.96L295.2 125.856ZM287.952 122.376C288.192 120.48 289.56 119.208 291.624 119.208C293.688 119.208 294.936 120.48 295.008 122.376H287.952ZM302.32 129H304.192V123.528C304.192 120.96 305.2 119.352 307.48 119.352C307.816 119.352 308.176 119.4 308.488 119.496L308.608 117.6C308.344 117.504 308.08 117.48 307.84 117.48C305.992 117.48 304.6 118.512 304.096 119.616H304.048C304.048 118.992 304 118.368 304 117.768H302.224C302.224 118.512 302.32 119.4 302.32 120.432V129ZM49.2 169H60.144V167.128H51.48V167.08L56.712 162.16C58.416 160.552 60.024 159.04 60.024 156.328C60.024 153.304 57.648 151.72 54.84 151.72C52.104 151.72 49.968 153.184 49.512 155.968L51.696 156.16C52.008 154.528 53.208 153.448 54.912 153.448C56.616 153.448 58.008 154.552 58.008 156.328C58.008 157.984 57.216 158.896 55.608 160.456L49.2 166.696V169ZM78.9356 169H80.9516V161.68L87.2876 152.008H84.8636L79.9436 159.688L75.1676 152.008H72.5996L78.9356 161.68V169ZM97.1858 165.856C96.2978 166.984 95.2178 167.56 93.6098 167.56C91.5698 167.56 90.0818 165.904 89.9378 163.96H99.0098V163.36C99.0098 159.64 96.8498 157.48 93.6818 157.48C90.3698 157.48 87.9218 159.904 87.9218 163.384C87.9218 166.648 90.0818 169.288 93.6098 169.288C95.6978 169.288 97.2818 168.664 98.6018 166.96L97.1858 165.856ZM89.9378 162.376C90.1778 160.48 91.5458 159.208 93.6098 159.208C95.6738 159.208 96.9218 160.48 96.9938 162.376H89.9378ZM105.338 160.432C106.226 159.616 107.474 159.208 108.674 159.208C110.426 159.208 111.458 160.048 111.458 161.68V162.016H110.738C107.978 162.016 103.658 162.232 103.658 165.952C103.658 168.136 105.554 169.288 107.834 169.288C109.538 169.288 110.786 168.472 111.53 167.32H111.578C111.578 167.8 111.578 168.496 111.698 169H113.498C113.402 168.424 113.33 167.704 113.33 167.056V162.232C113.33 159.064 111.938 157.48 108.626 157.48C106.994 157.48 105.314 158.032 104.162 159.208L105.338 160.432ZM111.458 163.6V164.32C111.41 166.144 110.306 167.704 108.146 167.704C106.73 167.704 105.674 167.176 105.674 165.76C105.674 164.248 107.21 163.6 109.586 163.6H111.458ZM119.151 169H121.023V163.528C121.023 160.96 122.031 159.352 124.311 159.352C124.647 159.352 125.007 159.4 125.319 159.496L125.439 157.6C125.175 157.504 124.911 157.48 124.671 157.48C122.823 157.48 121.431 158.512 120.927 159.616H120.879C120.879 158.992 120.831 158.368 120.831 157.768H119.055C119.055 158.512 119.151 159.4 119.151 160.432V169ZM128.741 167.2C129.845 168.784 131.213 169.288 133.109 169.288C135.341 169.288 137.597 168.304 137.597 165.76C137.597 163.504 135.917 162.784 133.925 162.4C132.437 162.112 131.093 161.704 131.093 160.768C131.093 159.712 132.269 159.208 133.301 159.208C134.405 159.208 135.197 159.76 135.677 160.552L137.237 159.52C136.469 158.08 135.005 157.48 133.421 157.48C131.333 157.48 129.221 158.608 129.221 160.792C129.221 163.12 131.045 163.576 133.181 164.056C134.381 164.32 135.581 164.632 135.581 165.832C135.581 167.056 134.285 167.56 133.109 167.56C131.789 167.56 130.973 166.96 130.229 166.048L128.741 167.2ZM152.023 169H163.135V167.128H154.039V161.08H162.127V159.208H154.039V153.88H162.703V152.008H152.023V169ZM166.609 169H168.937L172.441 164.152L175.993 169H178.465L173.833 162.952L177.697 157.768H175.417L172.609 161.8L169.633 157.768H167.185L171.217 162.952L166.609 169ZM182.618 174.472H184.49V167.008H184.538C185.234 168.28 186.842 169.288 188.858 169.288C192.002 169.288 194.474 166.744 194.474 163.384C194.474 159.976 192.098 157.48 188.57 157.48C186.938 157.48 185.57 158.2 184.538 159.4H184.49V157.768H182.618V174.472ZM184.49 163.384C184.49 161.032 186.05 159.208 188.474 159.208C190.898 159.208 192.458 161.032 192.458 163.384C192.458 165.736 190.898 167.56 188.474 167.56C186.05 167.56 184.49 165.736 184.49 163.384ZM208.401 165.856C207.513 166.984 206.433 167.56 204.825 167.56C202.785 167.56 201.297 165.904 201.153 163.96H210.225V163.36C210.225 159.64 208.065 157.48 204.897 157.48C201.585 157.48 199.137 159.904 199.137 163.384C199.137 166.648 201.297 169.288 204.825 169.288C206.913 169.288 208.497 168.664 209.817 166.96L208.401 165.856ZM201.153 162.376C201.393 160.48 202.761 159.208 204.825 159.208C206.889 159.208 208.137 160.48 208.209 162.376H201.153ZM215.521 169H217.393V163.528C217.393 160.96 218.401 159.352 220.681 159.352C221.017 159.352 221.377 159.4 221.689 159.496L221.809 157.6C221.545 157.504 221.281 157.48 221.041 157.48C219.193 157.48 217.801 158.512 217.297 159.616H217.249C217.249 158.992 217.201 158.368 217.201 157.768H215.425C215.425 158.512 215.521 159.4 215.521 160.432V169ZM226.527 169H228.399V157.768H226.527V169ZM226.095 153.376C226.095 154.168 226.671 154.744 227.463 154.744C228.255 154.744 228.831 154.168 228.831 153.376C228.831 152.632 228.231 152.008 227.463 152.008C226.695 152.008 226.095 152.632 226.095 153.376ZM243.14 165.856C242.252 166.984 241.172 167.56 239.564 167.56C237.524 167.56 236.036 165.904 235.892 163.96H244.964V163.36C244.964 159.64 242.804 157.48 239.636 157.48C236.324 157.48 233.876 159.904 233.876 163.384C233.876 166.648 236.036 169.288 239.564 169.288C241.652 169.288 243.236 168.664 244.556 166.96L243.14 165.856ZM235.892 162.376C236.132 160.48 237.5 159.208 239.564 159.208C241.628 159.208 242.876 160.48 242.948 162.376H235.892ZM250.26 169H252.132V163.528C252.132 160.96 253.188 159.208 255.612 159.208C257.364 159.208 258.18 160.384 258.18 162.256V169H260.052V162.064C260.052 159.352 258.732 157.48 255.78 157.48C253.932 157.48 252.54 158.512 252.036 159.616H251.988C251.988 158.992 251.94 158.368 251.94 157.768H250.164C250.164 158.512 250.26 159.4 250.26 160.432V169ZM275.476 159.256C274.348 158.032 272.812 157.48 271.156 157.48C267.7 157.48 265.348 159.976 265.348 163.384C265.348 166.84 267.676 169.288 271.156 169.288C272.788 169.288 274.324 168.736 275.404 167.488L274.012 166.168C273.316 167.128 272.38 167.56 271.156 167.56C268.876 167.56 267.364 165.688 267.364 163.384C267.364 161.08 268.636 159.208 271.156 159.208C272.284 159.208 273.196 159.616 273.988 160.576L275.476 159.256ZM288.59 165.856C287.702 166.984 286.622 167.56 285.014 167.56C282.974 167.56 281.486 165.904 281.342 163.96H290.414V163.36C290.414 159.64 288.254 157.48 285.086 157.48C281.774 157.48 279.326 159.904 279.326 163.384C279.326 166.648 281.486 169.288 285.014 169.288C287.102 169.288 288.686 168.664 290.006 166.96L288.59 165.856ZM281.342 162.376C281.582 160.48 282.95 159.208 285.014 159.208C287.078 159.208 288.326 160.48 288.398 162.376H281.342Z" fill="#595D71"/>
</svg>
