<svg width="1024" height="896" viewBox="0 0 1024 896" fill="none" xmlns="http://www.w3.org/2000/svg">
<rect width="1024" height="896" fill="white"/>
<rect x="143" y="303" width="800" height="120" rx="40" fill="#6689FF"/>
<rect x="143" y="531" width="800" height="120" rx="40" fill="#21CE99"/>
<rect x="143" y="756" width="800" height="120" rx="40" fill="#F45430"/>
<path d="M87.288 89H89.232L95.88 72.008H93.744L88.344 85.976H88.296L83.064 72.008H80.784L87.288 89ZM100.016 89H101.888V77.768H100.016V89ZM99.5839 73.376C99.5839 74.168 100.16 74.744 100.952 74.744C101.744 74.744 102.32 74.168 102.32 73.376C102.32 72.632 101.72 72.008 100.952 72.008C100.184 72.008 99.5839 72.632 99.5839 73.376ZM108.013 89H109.885V83.528C109.885 80.96 110.893 79.352 113.173 79.352C113.509 79.352 113.869 79.4 114.181 79.496L114.301 77.6C114.037 77.504 113.773 77.48 113.533 77.48C111.685 77.48 110.293 78.512 109.789 79.616H109.741C109.741 78.992 109.693 78.368 109.693 77.768H107.917C107.917 78.512 108.013 79.4 108.013 80.432V89ZM119.883 80.432C120.771 79.616 122.019 79.208 123.219 79.208C124.971 79.208 126.003 80.048 126.003 81.68V82.016H125.283C122.523 82.016 118.203 82.232 118.203 85.952C118.203 88.136 120.099 89.288 122.379 89.288C124.083 89.288 125.331 88.472 126.075 87.32H126.123C126.123 87.8 126.123 88.496 126.243 89H128.043C127.947 88.424 127.875 87.704 127.875 87.056V82.232C127.875 79.064 126.483 77.48 123.171 77.48C121.539 77.48 119.859 78.032 118.707 79.208L119.883 80.432ZM126.003 83.6V84.32C125.955 86.144 124.851 87.704 122.691 87.704C121.275 87.704 120.219 87.176 120.219 85.76C120.219 84.248 121.755 83.6 124.131 83.6H126.003ZM133.864 89H135.736V70.856H133.864V89ZM142.03 89H143.902V77.768H142.03V89ZM141.598 73.376C141.598 74.168 142.174 74.744 142.966 74.744C143.758 74.744 144.334 74.168 144.334 73.376C144.334 72.632 143.734 72.008 142.966 72.008C142.198 72.008 141.598 72.632 141.598 73.376ZM153.316 86.552H151.132L149.5 92.312H151.348L153.316 86.552ZM167.611 89H178.555V87.128H169.891V87.08L175.123 82.16C176.827 80.552 178.435 79.04 178.435 76.328C178.435 73.304 176.059 71.72 173.251 71.72C170.515 71.72 168.379 73.184 167.923 75.968L170.107 76.16C170.419 74.528 171.619 73.448 173.323 73.448C175.027 73.448 176.419 74.552 176.419 76.328C176.419 77.984 175.627 78.896 174.019 80.456L167.611 86.696V89ZM187.043 80.936H187.667C189.755 80.936 191.963 81.728 191.963 84.224C191.963 86.192 190.427 87.56 188.507 87.56C186.635 87.56 185.651 86.864 185.075 85.04L183.035 85.712C183.899 88.232 185.939 89.288 188.507 89.288C191.531 89.288 194.123 87.608 194.123 84.368C194.123 82.232 192.803 80.456 190.643 80.096V80.048C192.347 79.52 193.547 77.936 193.547 76.16C193.547 73.232 191.195 71.72 188.483 71.72C186.323 71.72 184.379 72.68 183.563 74.6L185.507 75.344C186.107 74.096 187.211 73.448 188.627 73.448C190.331 73.448 191.531 74.528 191.531 76.256C191.531 78.824 189.347 79.208 187.667 79.208H187.043V80.936ZM202.947 86.552H200.763L199.131 92.312H200.979L202.947 86.552ZM227.874 73.568C226.626 72.104 225.018 71.576 223.122 71.576C220.146 71.576 217.338 73.208 217.338 76.472C217.338 79.304 219.162 80.36 221.562 81.152C224.586 82.16 226.002 82.52 226.002 84.608C226.002 86.552 224.034 87.56 222.306 87.56C220.842 87.56 219.402 86.912 218.682 85.664L216.954 87.08C218.106 88.784 220.218 89.432 222.186 89.432C225.258 89.432 228.162 87.848 228.162 84.464C228.162 81.128 225.714 80.264 223.074 79.424C220.362 78.56 219.498 77.864 219.498 76.304C219.498 74.288 221.346 73.448 223.122 73.448C224.346 73.448 225.546 73.928 226.218 75.008L227.874 73.568ZM232.906 83.384C232.906 86.888 235.45 89.288 238.906 89.288C242.362 89.288 244.906 86.888 244.906 83.384C244.906 79.88 242.362 77.48 238.906 77.48C235.45 77.48 232.906 79.88 232.906 83.384ZM234.922 83.384C234.922 81.032 236.482 79.208 238.906 79.208C241.33 79.208 242.89 81.032 242.89 83.384C242.89 85.736 241.33 87.56 238.906 87.56C236.482 87.56 234.922 85.736 234.922 83.384ZM251.164 89H253.036V79.352H255.772V77.768H253.036V75.656C253.036 73.712 253.108 72.296 255.052 72.296C255.484 72.296 255.916 72.392 256.324 72.536L256.588 70.856C256.228 70.664 255.628 70.568 255.148 70.568C252.124 70.568 251.164 72.512 251.164 75.248V77.768H248.716V79.352H251.164V89ZM266.318 77.768H263.006V74.576H261.134V77.768H258.686V79.352H261.134V85.52C261.134 87.848 261.566 89.288 264.23 89.288C264.926 89.288 265.766 89.168 266.414 88.88L266.342 87.176C265.838 87.44 265.238 87.56 264.686 87.56C263.03 87.56 263.006 86.408 263.006 84.968V79.352H266.318V77.768ZM286.684 77.768H284.668L282.124 86.408H282.076L279.124 77.768H277.156L274.252 86.408H274.204L271.636 77.768H269.572L273.22 89H275.14L277.972 80.36H278.02L281.212 89H283.06L286.684 77.768ZM292.233 80.432C293.121 79.616 294.369 79.208 295.569 79.208C297.321 79.208 298.353 80.048 298.353 81.68V82.016H297.633C294.873 82.016 290.553 82.232 290.553 85.952C290.553 88.136 292.449 89.288 294.729 89.288C296.433 89.288 297.681 88.472 298.425 87.32H298.473C298.473 87.8 298.473 88.496 298.593 89H300.393C300.297 88.424 300.225 87.704 300.225 87.056V82.232C300.225 79.064 298.833 77.48 295.521 77.48C293.889 77.48 292.209 78.032 291.057 79.208L292.233 80.432ZM298.353 83.6V84.32C298.305 86.144 297.201 87.704 295.041 87.704C293.625 87.704 292.569 87.176 292.569 85.76C292.569 84.248 294.105 83.6 296.481 83.6H298.353ZM306.046 89H307.918V83.528C307.918 80.96 308.926 79.352 311.206 79.352C311.542 79.352 311.902 79.4 312.214 79.496L312.334 77.6C312.07 77.504 311.806 77.48 311.566 77.48C309.718 77.48 308.326 78.512 307.822 79.616H307.774C307.774 78.992 307.726 78.368 307.726 77.768H305.95C305.95 78.512 306.046 79.4 306.046 80.432V89ZM325.078 85.856C324.19 86.984 323.11 87.56 321.502 87.56C319.462 87.56 317.974 85.904 317.83 83.96H326.902V83.36C326.902 79.64 324.742 77.48 321.574 77.48C318.262 77.48 315.814 79.904 315.814 83.384C315.814 86.648 317.974 89.288 321.502 89.288C323.59 89.288 325.174 88.664 326.494 86.96L325.078 85.856ZM317.83 82.376C318.07 80.48 319.438 79.208 321.502 79.208C323.566 79.208 324.814 80.48 324.886 82.376H317.83ZM341.302 89H347.83C351.166 89 356.158 86.768 356.158 80.504C356.158 74.24 351.166 72.008 347.83 72.008H341.302V89ZM343.318 73.88H347.158C351.046 73.88 353.998 75.848 353.998 80.504C353.998 85.16 351.046 87.128 347.158 87.128H343.318V73.88ZM370.083 85.856C369.195 86.984 368.115 87.56 366.507 87.56C364.467 87.56 362.979 85.904 362.835 83.96H371.907V83.36C371.907 79.64 369.747 77.48 366.579 77.48C363.267 77.48 360.819 79.904 360.819 83.384C360.819 86.648 362.979 89.288 366.507 89.288C368.595 89.288 370.179 88.664 371.499 86.96L370.083 85.856ZM362.835 82.376C363.075 80.48 364.443 79.208 366.507 79.208C368.571 79.208 369.819 80.48 369.891 82.376H362.835ZM386.755 77.768H384.739L381.403 86.576H381.355L377.851 77.768H375.667L380.251 89H382.315L386.755 77.768ZM399.797 85.856C398.909 86.984 397.829 87.56 396.221 87.56C394.181 87.56 392.693 85.904 392.549 83.96H401.621V83.36C401.621 79.64 399.461 77.48 396.293 77.48C392.981 77.48 390.533 79.904 390.533 83.384C390.533 86.648 392.693 89.288 396.221 89.288C398.309 89.288 399.893 88.664 401.213 86.96L399.797 85.856ZM392.549 82.376C392.789 80.48 394.157 79.208 396.221 79.208C398.285 79.208 399.533 80.48 399.605 82.376H392.549ZM407.085 89H408.957V70.856H407.085V89ZM414.434 83.384C414.434 86.888 416.978 89.288 420.434 89.288C423.89 89.288 426.434 86.888 426.434 83.384C426.434 79.88 423.89 77.48 420.434 77.48C416.978 77.48 414.434 79.88 414.434 83.384ZM416.45 83.384C416.45 81.032 418.01 79.208 420.434 79.208C422.858 79.208 424.418 81.032 424.418 83.384C424.418 85.736 422.858 87.56 420.434 87.56C418.01 87.56 416.45 85.736 416.45 83.384ZM431.636 94.472H433.508V87.008H433.556C434.252 88.28 435.86 89.288 437.876 89.288C441.02 89.288 443.492 86.744 443.492 83.384C443.492 79.976 441.116 77.48 437.588 77.48C435.956 77.48 434.588 78.2 433.556 79.4H433.508V77.768H431.636V94.472ZM433.508 83.384C433.508 81.032 435.068 79.208 437.492 79.208C439.916 79.208 441.476 81.032 441.476 83.384C441.476 85.736 439.916 87.56 437.492 87.56C435.068 87.56 433.508 85.736 433.508 83.384ZM457.42 85.856C456.532 86.984 455.452 87.56 453.844 87.56C451.804 87.56 450.316 85.904 450.172 83.96H459.244V83.36C459.244 79.64 457.084 77.48 453.916 77.48C450.604 77.48 448.156 79.904 448.156 83.384C448.156 86.648 450.316 89.288 453.844 89.288C455.932 89.288 457.516 88.664 458.836 86.96L457.42 85.856ZM450.172 82.376C450.412 80.48 451.78 79.208 453.844 79.208C455.908 79.208 457.156 80.48 457.228 82.376H450.172ZM464.54 89H466.412V83.528C466.412 80.96 467.42 79.352 469.7 79.352C470.036 79.352 470.396 79.4 470.708 79.496L470.828 77.6C470.564 77.504 470.3 77.48 470.06 77.48C468.212 77.48 466.82 78.512 466.316 79.616H466.268C466.268 78.992 466.22 78.368 466.22 77.768H464.444C464.444 78.512 464.54 79.4 464.54 80.432V89ZM92.832 113.568C91.584 112.104 89.976 111.576 88.08 111.576C85.104 111.576 82.296 113.208 82.296 116.472C82.296 119.304 84.12 120.36 86.52 121.152C89.544 122.16 90.96 122.52 90.96 124.608C90.96 126.552 88.992 127.56 87.264 127.56C85.8 127.56 84.36 126.912 83.64 125.664L81.912 127.08C83.064 128.784 85.176 129.432 87.144 129.432C90.216 129.432 93.12 127.848 93.12 124.464C93.12 121.128 90.672 120.264 88.032 119.424C85.32 118.56 84.456 117.864 84.456 116.304C84.456 114.288 86.304 113.448 88.08 113.448C89.304 113.448 90.504 113.928 91.176 115.008L92.832 113.568ZM114.184 117.768H112.168L109.624 126.408H109.576L106.624 117.768H104.656L101.752 126.408H101.704L99.1359 117.768H97.0719L100.72 129H102.64L105.472 120.36H105.52L108.712 129H110.56L114.184 117.768ZM118.869 129H120.741V117.768H118.869V129ZM118.437 113.376C118.437 114.168 119.013 114.744 119.805 114.744C120.597 114.744 121.173 114.168 121.173 113.376C121.173 112.632 120.573 112.008 119.805 112.008C119.037 112.008 118.437 112.632 118.437 113.376ZM126.867 129H128.739V123.528C128.739 120.96 129.795 119.208 132.219 119.208C133.971 119.208 134.787 120.384 134.787 122.256V129H136.659V122.064C136.659 119.352 135.339 117.48 132.387 117.48C130.539 117.48 129.147 118.512 128.643 119.616H128.595C128.595 118.992 128.547 118.368 128.547 117.768H126.771C126.771 118.512 126.867 119.4 126.867 120.432V129ZM153.811 117.768H151.939V119.688H151.891C151.147 118.2 149.443 117.48 147.931 117.48C144.355 117.48 141.955 119.712 141.955 123.384C141.955 126.696 144.403 129.144 147.931 129.144C149.419 129.144 151.003 128.496 151.891 127.056H151.939V128.496C151.939 130.872 151.051 133.032 147.691 133.032C145.963 133.032 144.691 132.36 143.515 131.088L142.171 132.624C143.755 134.184 145.507 134.76 147.691 134.76C151.627 134.76 153.811 132.552 153.811 128.496V117.768ZM143.971 123.384C143.971 121.032 145.579 119.208 147.931 119.208C150.307 119.208 151.939 120.912 151.939 123.336C151.939 125.496 150.499 127.416 147.931 127.416C145.747 127.416 143.971 125.664 143.971 123.384ZM168.706 122.52H174.178V127.992H175.762V122.52H181.234V120.936H175.762V115.464H174.178V120.936H168.706V122.52ZM196.554 129H206.346V127.128H198.57V112.008H196.554V129ZM209.97 123.384C209.97 126.888 212.514 129.288 215.97 129.288C219.426 129.288 221.97 126.888 221.97 123.384C221.97 119.88 219.426 117.48 215.97 117.48C212.514 117.48 209.97 119.88 209.97 123.384ZM211.986 123.384C211.986 121.032 213.546 119.208 215.97 119.208C218.394 119.208 219.954 121.032 219.954 123.384C219.954 125.736 218.394 127.56 215.97 127.56C213.546 127.56 211.986 125.736 211.986 123.384ZM227.268 129H229.14V123.528C229.14 120.96 230.196 119.208 232.62 119.208C234.372 119.208 235.188 120.384 235.188 122.256V129H237.06V122.064C237.06 119.352 235.74 117.48 232.788 117.48C230.94 117.48 229.548 118.512 229.044 119.616H228.996C228.996 118.992 228.948 118.368 228.948 117.768H227.172C227.172 118.512 227.268 119.4 227.268 120.432V129ZM254.212 117.768H252.34V119.688H252.292C251.548 118.2 249.844 117.48 248.332 117.48C244.756 117.48 242.356 119.712 242.356 123.384C242.356 126.696 244.804 129.144 248.332 129.144C249.82 129.144 251.404 128.496 252.292 127.056H252.34V128.496C252.34 130.872 251.452 133.032 248.092 133.032C246.364 133.032 245.092 132.36 243.916 131.088L242.572 132.624C244.156 134.184 245.908 134.76 248.092 134.76C252.028 134.76 254.212 132.552 254.212 128.496V117.768ZM244.372 123.384C244.372 121.032 245.98 119.208 248.332 119.208C250.708 119.208 252.34 120.912 252.34 123.336C252.34 125.496 250.9 127.416 248.332 127.416C246.148 127.416 244.372 125.664 244.372 123.384ZM259.356 124.104H265.236V122.376H259.356V124.104ZM282.204 112.008H268.956V113.88H274.572V129H276.588V113.88H282.204V112.008ZM292.594 125.856C291.706 126.984 290.626 127.56 289.018 127.56C286.978 127.56 285.49 125.904 285.346 123.96H294.418V123.36C294.418 119.64 292.258 117.48 289.09 117.48C285.778 117.48 283.33 119.904 283.33 123.384C283.33 126.648 285.49 129.288 289.018 129.288C291.106 129.288 292.69 128.664 294.01 126.96L292.594 125.856ZM285.346 122.376C285.586 120.48 286.954 119.208 289.018 119.208C291.082 119.208 292.33 120.48 292.402 122.376H285.346ZM299.714 129H301.586V123.528C301.586 120.96 302.594 119.352 304.874 119.352C305.21 119.352 305.57 119.4 305.882 119.496L306.002 117.6C305.738 117.504 305.474 117.48 305.234 117.48C303.386 117.48 301.994 118.512 301.49 119.616H301.442C301.442 118.992 301.394 118.368 301.394 117.768H299.618C299.618 118.512 299.714 119.4 299.714 120.432V129ZM310.551 129H312.423V123.528C312.423 120.96 313.479 119.208 315.903 119.208C317.439 119.208 318.063 120.168 318.063 122.64V129H319.935V122.52C319.935 120.504 321.255 119.208 322.839 119.208C325.023 119.208 325.575 120.72 325.575 122.28V129H327.447V122.184C327.447 119.28 326.391 117.48 323.175 117.48C321.471 117.48 320.439 118.296 319.623 119.616C319.263 118.848 318.495 117.48 316.071 117.48C314.223 117.48 312.831 118.512 312.327 119.616H312.279C312.279 118.992 312.231 118.368 312.231 117.768H310.455C310.455 118.512 310.551 119.4 310.551 120.432V129ZM354.204 112.008H340.956V113.88H346.572V129H348.588V113.88H354.204V112.008ZM356.446 129H358.318V123.528C358.318 120.96 359.326 119.352 361.606 119.352C361.942 119.352 362.302 119.4 362.614 119.496L362.734 117.6C362.47 117.504 362.206 117.48 361.966 117.48C360.118 117.48 358.726 118.512 358.222 119.616H358.174C358.174 118.992 358.126 118.368 358.126 117.768H356.35C356.35 118.512 356.446 119.4 356.446 120.432V129ZM368.316 120.432C369.204 119.616 370.452 119.208 371.652 119.208C373.404 119.208 374.436 120.048 374.436 121.68V122.016H373.716C370.956 122.016 366.636 122.232 366.636 125.952C366.636 128.136 368.532 129.288 370.812 129.288C372.516 129.288 373.764 128.472 374.508 127.32H374.556C374.556 127.8 374.556 128.496 374.676 129H376.476C376.38 128.424 376.308 127.704 376.308 127.056V122.232C376.308 119.064 374.916 117.48 371.604 117.48C369.972 117.48 368.292 118.032 367.14 119.208L368.316 120.432ZM374.436 123.6V124.32C374.388 126.144 373.284 127.704 371.124 127.704C369.708 127.704 368.652 127.176 368.652 125.76C368.652 124.248 370.188 123.6 372.564 123.6H374.436ZM391.465 129H393.337V110.856H391.465V119.4H391.417C390.385 118.2 389.017 117.48 387.385 117.48C383.857 117.48 381.481 119.976 381.481 123.384C381.481 126.744 383.953 129.288 387.097 129.288C389.113 129.288 390.721 128.28 391.417 127.008H391.465V129ZM391.465 123.384C391.465 125.736 389.905 127.56 387.481 127.56C385.057 127.56 383.497 125.736 383.497 123.384C383.497 121.032 385.057 119.208 387.481 119.208C389.905 119.208 391.465 121.032 391.465 123.384ZM407.817 125.856C406.929 126.984 405.849 127.56 404.241 127.56C402.201 127.56 400.713 125.904 400.569 123.96H409.641V123.36C409.641 119.64 407.481 117.48 404.313 117.48C401.001 117.48 398.553 119.904 398.553 123.384C398.553 126.648 400.713 129.288 404.241 129.288C406.329 129.288 407.913 128.664 409.233 126.96L407.817 125.856ZM400.569 122.376C400.809 120.48 402.177 119.208 404.241 119.208C406.305 119.208 407.553 120.48 407.625 122.376H400.569ZM414.937 129H416.809V123.528C416.809 120.96 417.817 119.352 420.097 119.352C420.433 119.352 420.793 119.4 421.105 119.496L421.225 117.6C420.961 117.504 420.697 117.48 420.457 117.48C418.609 117.48 417.217 118.512 416.713 119.616H416.665C416.665 118.992 416.617 118.368 416.617 117.768H414.841C414.841 118.512 414.937 119.4 414.937 120.432V129ZM89.64 152.008H87.888L83.328 155.704L84.528 157.168L87.576 154.6H87.624V169H89.64V152.008ZM100.072 166.264C99.2799 166.264 98.6319 166.912 98.6319 167.704C98.6319 168.496 99.3279 169.144 100.072 169.144C100.816 169.144 101.512 168.496 101.512 167.704C101.512 166.912 100.864 166.264 100.072 166.264ZM117.192 152.008H108.288L108.12 160.84C109.128 160.24 110.424 159.784 111.576 159.784C113.952 159.784 115.776 161.152 115.776 163.648C115.776 166 114.168 167.56 112.128 167.56C110.688 167.56 109.536 166.696 108.96 165.424L106.944 166.192C107.856 168.064 109.392 169.288 111.96 169.288C115.272 169.288 117.792 167.032 117.792 163.648C117.792 160.456 115.632 158.056 112.368 158.056C111.672 158.056 110.832 158.152 110.184 158.464L110.256 153.88H117.192V152.008ZM136.751 169H138.767V161.68L145.103 152.008H142.679L137.759 159.688L132.983 152.008H130.415L136.751 161.68V169ZM155.001 165.856C154.113 166.984 153.033 167.56 151.425 167.56C149.385 167.56 147.897 165.904 147.753 163.96H156.825V163.36C156.825 159.64 154.665 157.48 151.497 157.48C148.185 157.48 145.737 159.904 145.737 163.384C145.737 166.648 147.897 169.288 151.425 169.288C153.513 169.288 155.097 168.664 156.417 166.96L155.001 165.856ZM147.753 162.376C147.993 160.48 149.361 159.208 151.425 159.208C153.489 159.208 154.737 160.48 154.809 162.376H147.753ZM163.153 160.432C164.041 159.616 165.289 159.208 166.489 159.208C168.241 159.208 169.273 160.048 169.273 161.68V162.016H168.553C165.793 162.016 161.473 162.232 161.473 165.952C161.473 168.136 163.369 169.288 165.649 169.288C167.353 169.288 168.601 168.472 169.345 167.32H169.393C169.393 167.8 169.393 168.496 169.513 169H171.313C171.217 168.424 171.145 167.704 171.145 167.056V162.232C171.145 159.064 169.753 157.48 166.441 157.48C164.809 157.48 163.129 158.032 161.977 159.208L163.153 160.432ZM169.273 163.6V164.32C169.225 166.144 168.121 167.704 165.961 167.704C164.545 167.704 163.489 167.176 163.489 165.76C163.489 164.248 165.025 163.6 167.401 163.6H169.273ZM176.967 169H178.839V163.528C178.839 160.96 179.847 159.352 182.127 159.352C182.463 159.352 182.823 159.4 183.135 159.496L183.255 157.6C182.991 157.504 182.727 157.48 182.487 157.48C180.639 157.48 179.247 158.512 178.743 159.616H178.695C178.695 158.992 178.647 158.368 178.647 157.768H176.871C176.871 158.512 176.967 159.4 176.967 160.432V169ZM186.556 167.2C187.66 168.784 189.028 169.288 190.924 169.288C193.156 169.288 195.412 168.304 195.412 165.76C195.412 163.504 193.732 162.784 191.74 162.4C190.252 162.112 188.908 161.704 188.908 160.768C188.908 159.712 190.084 159.208 191.116 159.208C192.22 159.208 193.012 159.76 193.492 160.552L195.052 159.52C194.284 158.08 192.82 157.48 191.236 157.48C189.148 157.48 187.036 158.608 187.036 160.792C187.036 163.12 188.86 163.576 190.996 164.056C192.196 164.32 193.396 164.632 193.396 165.832C193.396 167.056 192.1 167.56 190.924 167.56C189.604 167.56 188.788 166.96 188.044 166.048L186.556 167.2ZM209.839 169H220.951V167.128H211.855V161.08H219.943V159.208H211.855V153.88H220.519V152.008H209.839V169ZM224.425 169H226.753L230.257 164.152L233.809 169H236.281L231.649 162.952L235.513 157.768H233.233L230.425 161.8L227.449 157.768H225.001L229.033 162.952L224.425 169ZM240.433 174.472H242.305V167.008H242.353C243.049 168.28 244.657 169.288 246.673 169.288C249.817 169.288 252.289 166.744 252.289 163.384C252.289 159.976 249.913 157.48 246.385 157.48C244.753 157.48 243.385 158.2 242.353 159.4H242.305V157.768H240.433V174.472ZM242.305 163.384C242.305 161.032 243.865 159.208 246.289 159.208C248.713 159.208 250.273 161.032 250.273 163.384C250.273 165.736 248.713 167.56 246.289 167.56C243.865 167.56 242.305 165.736 242.305 163.384ZM266.217 165.856C265.329 166.984 264.249 167.56 262.641 167.56C260.601 167.56 259.113 165.904 258.969 163.96H268.041V163.36C268.041 159.64 265.881 157.48 262.713 157.48C259.401 157.48 256.953 159.904 256.953 163.384C256.953 166.648 259.113 169.288 262.641 169.288C264.729 169.288 266.313 168.664 267.633 166.96L266.217 165.856ZM258.969 162.376C259.209 160.48 260.577 159.208 262.641 159.208C264.705 159.208 265.953 160.48 266.025 162.376H258.969ZM273.337 169H275.209V163.528C275.209 160.96 276.217 159.352 278.497 159.352C278.833 159.352 279.193 159.4 279.505 159.496L279.625 157.6C279.361 157.504 279.097 157.48 278.857 157.48C277.009 157.48 275.617 158.512 275.113 159.616H275.065C275.065 158.992 275.017 158.368 275.017 157.768H273.241C273.241 158.512 273.337 159.4 273.337 160.432V169ZM284.342 169H286.214V157.768H284.342V169ZM283.91 153.376C283.91 154.168 284.486 154.744 285.278 154.744C286.07 154.744 286.646 154.168 286.646 153.376C286.646 152.632 286.046 152.008 285.278 152.008C284.51 152.008 283.91 152.632 283.91 153.376ZM300.956 165.856C300.068 166.984 298.988 167.56 297.38 167.56C295.34 167.56 293.852 165.904 293.708 163.96H302.78V163.36C302.78 159.64 300.62 157.48 297.452 157.48C294.14 157.48 291.692 159.904 291.692 163.384C291.692 166.648 293.852 169.288 297.38 169.288C299.468 169.288 301.052 168.664 302.372 166.96L300.956 165.856ZM293.708 162.376C293.948 160.48 295.316 159.208 297.38 159.208C299.444 159.208 300.692 160.48 300.764 162.376H293.708ZM308.076 169H309.948V163.528C309.948 160.96 311.004 159.208 313.428 159.208C315.18 159.208 315.996 160.384 315.996 162.256V169H317.868V162.064C317.868 159.352 316.548 157.48 313.596 157.48C311.748 157.48 310.356 158.512 309.852 159.616H309.804C309.804 158.992 309.756 158.368 309.756 157.768H307.98C307.98 158.512 308.076 159.4 308.076 160.432V169ZM333.292 159.256C332.164 158.032 330.628 157.48 328.972 157.48C325.516 157.48 323.164 159.976 323.164 163.384C323.164 166.84 325.492 169.288 328.972 169.288C330.604 169.288 332.14 168.736 333.22 167.488L331.828 166.168C331.132 167.128 330.196 167.56 328.972 167.56C326.692 167.56 325.18 165.688 325.18 163.384C325.18 161.08 326.452 159.208 328.972 159.208C330.1 159.208 331.012 159.616 331.804 160.576L333.292 159.256ZM346.406 165.856C345.518 166.984 344.438 167.56 342.83 167.56C340.79 167.56 339.302 165.904 339.158 163.96H348.23V163.36C348.23 159.64 346.07 157.48 342.902 157.48C339.59 157.48 337.142 159.904 337.142 163.384C337.142 166.648 339.302 169.288 342.83 169.288C344.918 169.288 346.502 168.664 347.822 166.96L346.406 165.856ZM339.158 162.376C339.398 160.48 340.766 159.208 342.83 159.208C344.894 159.208 346.142 160.48 346.214 162.376H339.158Z" fill="#595D71"/>
<path d="M505.932 287H512.052C517.116 287 521.604 284.048 521.604 278.552C521.604 272.336 517.02 270.008 511.548 270.008H505.932V287ZM509.676 273.464H511.884C515.052 273.464 517.716 275.024 517.716 278.36C517.716 282.224 515.1 283.544 511.62 283.544H509.676V273.464ZM525.655 281.168C525.655 284.888 528.535 287.288 532.135 287.288C535.735 287.288 538.615 284.888 538.615 281.168C538.615 277.448 535.735 275.048 532.135 275.048C528.535 275.048 525.655 277.448 525.655 281.168ZM529.255 281.168C529.255 279.416 530.335 278.216 532.135 278.216C533.935 278.216 535.015 279.416 535.015 281.168C535.015 282.92 533.935 284.12 532.135 284.12C530.335 284.12 529.255 282.92 529.255 281.168ZM543.183 287H546.783V275.336H543.183V287ZM542.895 271.664C542.895 272.816 543.831 273.752 544.983 273.752C546.135 273.752 547.071 272.816 547.071 271.664C547.071 270.512 546.135 269.576 544.983 269.576C543.831 269.576 542.895 270.512 542.895 271.664ZM551.77 287H555.37V281.192C555.37 279.68 555.658 278.216 557.53 278.216C559.378 278.216 559.402 279.944 559.402 281.288V287H563.002V280.568C563.002 277.448 562.33 275.048 558.682 275.048C556.93 275.048 555.754 276.008 555.274 276.92H555.226V275.336H551.77V287ZM580.191 275.336H576.879V276.872H576.831C576.279 276.032 574.887 275.048 572.847 275.048C569.535 275.048 567.519 278.024 567.519 281.12C567.519 284.648 569.799 287.144 573.255 287.144C574.335 287.144 575.727 286.736 576.543 285.608H576.591V286.736C576.591 288.392 575.559 289.592 573.375 289.592C571.911 289.592 570.687 289.016 569.583 288.08L567.591 291.056C569.271 292.4 571.383 292.76 573.447 292.76C577.959 292.76 580.191 290.408 580.191 286.016V275.336ZM571.119 281.096C571.119 279.584 572.367 278.216 573.999 278.216C575.631 278.216 576.879 279.584 576.879 281.096C576.879 282.608 575.631 283.976 573.999 283.976C572.367 283.976 571.119 282.608 571.119 281.096Z" fill="#004DEC"/>
<path d="M493.093 515H496.837V501.32H501.685V498.008H488.245V501.32H493.093V515ZM505.53 496.856V515H509.13V509.192C509.13 507.68 509.418 506.216 511.29 506.216C513.138 506.216 513.162 507.944 513.162 509.288V515H516.762V508.568C516.762 505.448 516.09 503.048 512.442 503.048C510.69 503.048 509.514 504.008 509.178 504.92H509.13V496.856H505.53ZM521.759 515H525.359V503.336H521.759V515ZM521.471 499.664C521.471 500.816 522.407 501.752 523.559 501.752C524.711 501.752 525.647 500.816 525.647 499.664C525.647 498.512 524.711 497.576 523.559 497.576C522.407 497.576 521.471 498.512 521.471 499.664ZM530.345 515H533.945V509.192C533.945 507.68 534.233 506.216 536.105 506.216C537.953 506.216 537.977 507.944 537.977 509.288V515H541.577V508.568C541.577 505.448 540.905 503.048 537.257 503.048C535.505 503.048 534.329 504.008 533.849 504.92H533.801V503.336H530.345V515ZM546.527 515H550.127V509.096H550.175L554.111 515H558.647L553.895 508.592L558.527 503.336H554.111L550.127 507.944V496.856H546.527V515ZM562.311 515H565.911V503.336H562.311V515ZM562.023 499.664C562.023 500.816 562.959 501.752 564.111 501.752C565.263 501.752 566.199 500.816 566.199 499.664C566.199 498.512 565.263 497.576 564.111 497.576C562.959 497.576 562.023 498.512 562.023 499.664ZM570.897 515H574.497V509.192C574.497 507.68 574.785 506.216 576.657 506.216C578.505 506.216 578.529 507.944 578.529 509.288V515H582.129V508.568C582.129 505.448 581.457 503.048 577.809 503.048C576.057 503.048 574.881 504.008 574.401 504.92H574.353V503.336H570.897V515ZM599.318 503.336H596.006V504.872H595.958C595.406 504.032 594.014 503.048 591.974 503.048C588.662 503.048 586.646 506.024 586.646 509.12C586.646 512.648 588.926 515.144 592.382 515.144C593.462 515.144 594.854 514.736 595.67 513.608H595.718V514.736C595.718 516.392 594.686 517.592 592.502 517.592C591.038 517.592 589.814 517.016 588.71 516.08L586.718 519.056C588.398 520.4 590.51 520.76 592.574 520.76C597.086 520.76 599.318 518.408 599.318 514.016V503.336ZM590.246 509.096C590.246 507.584 591.494 506.216 593.126 506.216C594.758 506.216 596.006 507.584 596.006 509.096C596.006 510.608 594.758 511.976 593.126 511.976C591.494 511.976 590.246 510.608 590.246 509.096Z" fill="#21CE99"/>
<path d="M499.094 741H502.838V734.376H509.918V730.92H502.838V727.464H510.494V724.008H499.094V741ZM523.64 737.136C523.04 737.952 522.248 738.552 521.072 738.552C519.68 738.552 518.648 737.664 518.36 736.296H526.712V735.168C526.712 731.448 524.6 729.048 521.24 729.048C517.64 729.048 514.76 731.448 514.76 735.168C514.76 738.888 517.64 741.288 521.24 741.288C523.112 741.288 525.008 740.448 526.16 738.984L523.64 737.136ZM518.36 733.848C518.456 732.72 519.32 731.64 520.904 731.64C522.2 731.64 523.136 732.648 523.112 733.848H518.36ZM539.822 737.136C539.222 737.952 538.43 738.552 537.254 738.552C535.862 738.552 534.83 737.664 534.542 736.296H542.894V735.168C542.894 731.448 540.782 729.048 537.422 729.048C533.822 729.048 530.942 731.448 530.942 735.168C530.942 738.888 533.822 741.288 537.422 741.288C539.294 741.288 541.19 740.448 542.342 738.984L539.822 737.136ZM534.542 733.848C534.638 732.72 535.502 731.64 537.086 731.64C538.382 731.64 539.318 732.648 539.294 733.848H534.542ZM547.531 741H551.131V722.856H547.531V741ZM556.165 741H559.765V729.336H556.165V741ZM555.877 725.664C555.877 726.816 556.813 727.752 557.965 727.752C559.117 727.752 560.053 726.816 560.053 725.664C560.053 724.512 559.117 723.576 557.965 723.576C556.813 723.576 555.877 724.512 555.877 725.664ZM564.752 741H568.352V735.192C568.352 733.68 568.64 732.216 570.512 732.216C572.36 732.216 572.384 733.944 572.384 735.288V741H575.984V734.568C575.984 731.448 575.312 729.048 571.664 729.048C569.912 729.048 568.736 730.008 568.256 730.92H568.208V729.336H564.752V741ZM593.173 729.336H589.861V730.872H589.813C589.261 730.032 587.869 729.048 585.829 729.048C582.517 729.048 580.501 732.024 580.501 735.12C580.501 738.648 582.781 741.144 586.237 741.144C587.317 741.144 588.709 740.736 589.525 739.608H589.573V740.736C589.573 742.392 588.541 743.592 586.357 743.592C584.893 743.592 583.669 743.016 582.565 742.08L580.573 745.056C582.253 746.4 584.365 746.76 586.429 746.76C590.941 746.76 593.173 744.408 593.173 740.016V729.336ZM584.101 735.096C584.101 733.584 585.349 732.216 586.981 732.216C588.613 732.216 589.861 733.584 589.861 735.096C589.861 736.608 588.613 737.976 586.981 737.976C585.349 737.976 584.101 736.608 584.101 735.096Z" fill="#F45430"/>
<path d="M307.35 350H311.094V333.008H307.35V350ZM328.825 350H332.449L334.609 342.248H334.657L337.081 350H340.633L344.785 338.336H341.137L338.953 345.656H338.905L336.745 338.336H332.809L330.817 345.656H330.769L328.393 338.336H324.553L328.825 350ZM355.657 350H358.969V344.072C358.969 340.184 357.841 338.048 353.641 338.048C351.745 338.048 349.825 338.672 348.505 339.92L350.425 341.888C351.193 341.024 352.177 340.496 353.353 340.496C354.601 340.496 355.657 341.312 355.657 342.584C352.657 342.584 347.761 342.656 347.761 346.688C347.761 349.04 349.729 350.288 351.913 350.288C353.377 350.288 354.817 349.784 355.609 348.536H355.657V350ZM355.657 344.888V345.656C355.657 347.096 354.337 347.84 352.921 347.84C352.129 347.84 351.217 347.432 351.217 346.568C351.217 344.984 353.665 344.888 354.769 344.888H355.657ZM363.627 350H367.227V344.192C367.227 342.68 367.515 341.216 369.387 341.216C371.235 341.216 371.259 342.944 371.259 344.288V350H374.859V343.568C374.859 340.448 374.187 338.048 370.539 338.048C368.787 338.048 367.611 339.008 367.131 339.92H367.083V338.336H363.627V350ZM387.753 338.336H384.585V334.88H380.985V338.336H378.681V341.216H380.985V346.76C380.985 349.304 382.833 350.288 385.233 350.288C386.073 350.288 386.961 350.216 387.753 349.928V346.928C387.441 347.216 386.673 347.264 386.289 347.264C384.729 347.264 384.585 346.352 384.585 345.104V341.216H387.753V338.336ZM409.428 338.336H406.26V334.88H402.66V338.336H400.356V341.216H402.66V346.76C402.66 349.304 404.508 350.288 406.908 350.288C407.748 350.288 408.636 350.216 409.428 349.928V346.928C409.116 347.216 408.348 347.264 407.964 347.264C406.404 347.264 406.26 346.352 406.26 345.104V341.216H409.428V338.336ZM413.225 344.168C413.225 347.888 416.105 350.288 419.705 350.288C423.305 350.288 426.185 347.888 426.185 344.168C426.185 340.448 423.305 338.048 419.705 338.048C416.105 338.048 413.225 340.448 413.225 344.168ZM416.825 344.168C416.825 342.416 417.905 341.216 419.705 341.216C421.505 341.216 422.585 342.416 422.585 344.168C422.585 345.92 421.505 347.12 419.705 347.12C417.905 347.12 416.825 345.92 416.825 344.168ZM440.207 350H443.807V344.096H443.855L447.791 350H452.327L447.575 343.592L452.207 338.336H447.791L443.807 342.944V331.856H440.207V350ZM455.943 350H459.543V344.192C459.543 342.68 459.831 341.216 461.703 341.216C463.551 341.216 463.575 342.944 463.575 344.288V350H467.175V343.568C467.175 340.448 466.503 338.048 462.855 338.048C461.103 338.048 459.927 339.008 459.447 339.92H459.399V338.336H455.943V350ZM471.692 344.168C471.692 347.888 474.572 350.288 478.172 350.288C481.772 350.288 484.652 347.888 484.652 344.168C484.652 340.448 481.772 338.048 478.172 338.048C474.572 338.048 471.692 340.448 471.692 344.168ZM475.292 344.168C475.292 342.416 476.372 341.216 478.172 341.216C479.972 341.216 481.052 342.416 481.052 344.168C481.052 345.92 479.972 347.12 478.172 347.12C476.372 347.12 475.292 345.92 475.292 344.168ZM492.053 350H495.677L497.837 342.248H497.885L500.309 350H503.861L508.013 338.336H504.365L502.181 345.656H502.133L499.973 338.336H496.037L494.045 345.656H493.997L491.621 338.336H487.781L492.053 350ZM523.947 350H527.571L529.731 342.248H529.779L532.203 350H535.755L539.907 338.336H536.259L534.075 345.656H534.027L531.867 338.336H527.931L525.939 345.656H525.891L523.515 338.336H519.675L523.947 350ZM543.459 331.856V350H547.059V344.192C547.059 342.68 547.347 341.216 549.219 341.216C551.067 341.216 551.091 342.944 551.091 344.288V350H554.691V343.568C554.691 340.448 554.019 338.048 550.371 338.048C548.619 338.048 547.443 339.008 547.107 339.92H547.059V331.856H543.459ZM571.64 338.336H567.944L565.376 346.04H565.328L562.328 338.336H558.44L563.552 350.096L563.288 350.768C562.784 352.04 562.52 352.736 560.888 352.736C560.288 352.736 559.76 352.616 559.208 352.376L558.728 355.328C559.592 355.616 560.504 355.76 561.416 355.76C564.848 355.76 565.4 354.368 566.36 351.896L571.64 338.336ZM592.197 350H595.509V344.072C595.509 340.184 594.381 338.048 590.181 338.048C588.285 338.048 586.365 338.672 585.045 339.92L586.965 341.888C587.733 341.024 588.717 340.496 589.893 340.496C591.141 340.496 592.197 341.312 592.197 342.584C589.197 342.584 584.301 342.656 584.301 346.688C584.301 349.04 586.269 350.288 588.453 350.288C589.917 350.288 591.357 349.784 592.149 348.536H592.197V350ZM592.197 344.888V345.656C592.197 347.096 590.877 347.84 589.461 347.84C588.669 347.84 587.757 347.432 587.757 346.568C587.757 344.984 590.205 344.888 591.309 344.888H592.197ZM600.216 350H603.816V331.856H600.216V350ZM621.042 338.336H617.73V339.872H617.682C617.13 339.032 615.738 338.048 613.698 338.048C610.386 338.048 608.37 341.024 608.37 344.12C608.37 347.648 610.65 350.144 614.106 350.144C615.186 350.144 616.578 349.736 617.394 348.608H617.442V349.736C617.442 351.392 616.41 352.592 614.226 352.592C612.762 352.592 611.538 352.016 610.434 351.08L608.442 354.056C610.122 355.4 612.234 355.76 614.298 355.76C618.81 355.76 621.042 353.408 621.042 349.016V338.336ZM611.97 344.096C611.97 342.584 613.218 341.216 614.85 341.216C616.482 341.216 617.73 342.584 617.73 344.096C617.73 345.608 616.482 346.976 614.85 346.976C613.218 346.976 611.97 345.608 611.97 344.096ZM625.888 344.168C625.888 347.888 628.768 350.288 632.368 350.288C635.968 350.288 638.848 347.888 638.848 344.168C638.848 340.448 635.968 338.048 632.368 338.048C628.768 338.048 625.888 340.448 625.888 344.168ZM629.488 344.168C629.488 342.416 630.568 341.216 632.368 341.216C634.168 341.216 635.248 342.416 635.248 344.168C635.248 345.92 634.168 347.12 632.368 347.12C630.568 347.12 629.488 345.92 629.488 344.168ZM660.814 338.336H657.646V334.88H654.046V338.336H651.742V341.216H654.046V346.76C654.046 349.304 655.894 350.288 658.294 350.288C659.134 350.288 660.022 350.216 660.814 349.928V346.928C660.502 347.216 659.734 347.264 659.35 347.264C657.79 347.264 657.646 346.352 657.646 345.104V341.216H660.814V338.336ZM665.043 350H668.643V345.128C668.643 342.8 668.979 341.216 671.715 341.216C672.243 341.216 672.747 341.312 673.251 341.456V338.168C672.915 338.072 672.459 338.048 672.051 338.048C670.467 338.048 669.459 338.792 668.691 340.208H668.643V338.336H665.043V350ZM684.537 350H687.849V344.072C687.849 340.184 686.721 338.048 682.521 338.048C680.625 338.048 678.705 338.672 677.385 339.92L679.305 341.888C680.073 341.024 681.057 340.496 682.233 340.496C683.481 340.496 684.537 341.312 684.537 342.584C681.537 342.584 676.641 342.656 676.641 346.688C676.641 349.04 678.609 350.288 680.793 350.288C682.257 350.288 683.697 349.784 684.489 348.536H684.537V350ZM684.537 344.888V345.656C684.537 347.096 683.217 347.84 681.801 347.84C681.009 347.84 680.097 347.432 680.097 346.568C680.097 344.984 682.545 344.888 683.649 344.888H684.537ZM704.747 331.856H701.147V339.584H701.099C700.283 338.456 698.891 338.048 697.403 338.048C694.091 338.048 692.075 341.024 692.075 344.264C692.075 347.792 694.355 350.288 697.811 350.288C699.443 350.288 700.835 349.304 701.387 348.464H701.435V350H704.747V331.856ZM701.435 344.168C701.435 345.92 700.355 347.12 698.555 347.12C696.755 347.12 695.675 345.92 695.675 344.168C695.675 342.416 696.755 341.216 698.555 341.216C700.355 341.216 701.435 342.416 701.435 344.168ZM710.072 350H713.672V338.336H710.072V350ZM709.784 334.664C709.784 335.816 710.72 336.752 711.872 336.752C713.024 336.752 713.96 335.816 713.96 334.664C713.96 333.512 713.024 332.576 711.872 332.576C710.72 332.576 709.784 333.512 709.784 334.664ZM718.659 350H722.259V344.192C722.259 342.68 722.547 341.216 724.419 341.216C726.267 341.216 726.291 342.944 726.291 344.288V350H729.891V343.568C729.891 340.448 729.219 338.048 725.571 338.048C723.819 338.048 722.643 339.008 722.163 339.92H722.115V338.336H718.659V350ZM747.08 338.336H743.768V339.872H743.72C743.168 339.032 741.776 338.048 739.736 338.048C736.424 338.048 734.408 341.024 734.408 344.12C734.408 347.648 736.688 350.144 740.144 350.144C741.224 350.144 742.616 349.736 743.432 348.608H743.48V349.736C743.48 351.392 742.448 352.592 740.264 352.592C738.8 352.592 737.576 352.016 736.472 351.08L734.48 354.056C736.16 355.4 738.272 355.76 740.336 355.76C744.848 355.76 747.08 353.408 747.08 349.016V338.336ZM738.008 344.096C738.008 342.584 739.256 341.216 740.888 341.216C742.52 341.216 743.768 342.584 743.768 344.096C743.768 345.608 742.52 346.976 740.888 346.976C739.256 346.976 738.008 345.608 738.008 344.096ZM761.907 350H765.507V338.336H761.907V350ZM761.619 334.664C761.619 335.816 762.555 336.752 763.707 336.752C764.859 336.752 765.795 335.816 765.795 334.664C765.795 333.512 764.859 332.576 763.707 332.576C762.555 332.576 761.619 333.512 761.619 334.664ZM779.301 339.584C778.221 338.432 776.517 338.048 774.981 338.048C772.533 338.048 770.085 339.248 770.085 341.984C770.085 346.424 776.157 344.84 776.157 346.712C776.157 347.336 775.341 347.552 774.525 347.552C773.445 347.552 772.653 347.096 771.981 346.28L769.797 348.704C770.949 349.88 772.749 350.288 774.381 350.288C776.877 350.288 779.757 349.424 779.757 346.448C779.757 342.008 773.685 343.472 773.685 341.744C773.685 341.048 774.405 340.784 775.005 340.784C775.869 340.784 776.565 341.12 777.093 341.768L779.301 339.584ZM260.921 390H264.521V378.336H260.921V390ZM260.633 374.664C260.633 375.816 261.569 376.752 262.721 376.752C263.873 376.752 264.809 375.816 264.809 374.664C264.809 373.512 263.873 372.576 262.721 372.576C261.569 372.576 260.633 373.512 260.633 374.664ZM269.507 390H273.107V384.192C273.107 382.68 273.395 381.216 275.267 381.216C276.923 381.216 276.875 382.968 276.875 383.832V390H280.475V383.832C280.475 382.392 281.003 381.216 282.659 381.216C283.835 381.216 284.243 382.128 284.243 383.208V390H287.843V383.112C287.843 380.28 286.883 378.048 283.715 378.048C281.987 378.048 280.859 378.648 280.019 380.136C279.395 378.72 278.051 378.048 276.419 378.048C274.667 378.048 273.491 379.008 273.011 379.92H272.963V378.336H269.507V390ZM293.126 395.472H296.726V388.752H296.774C297.59 389.88 298.982 390.288 300.47 390.288C303.782 390.288 305.798 387.312 305.798 384.072C305.798 380.544 303.518 378.048 300.062 378.048C298.43 378.048 297.038 379.032 296.486 379.872H296.438V378.336H293.126V395.472ZM296.438 384.168C296.438 382.416 297.518 381.216 299.318 381.216C301.118 381.216 302.198 382.416 302.198 384.168C302.198 385.92 301.118 387.12 299.318 387.12C297.518 387.12 296.438 385.92 296.438 384.168ZM309.875 384.168C309.875 387.888 312.755 390.288 316.355 390.288C319.955 390.288 322.835 387.888 322.835 384.168C322.835 380.448 319.955 378.048 316.355 378.048C312.755 378.048 309.875 380.448 309.875 384.168ZM313.475 384.168C313.475 382.416 314.555 381.216 316.355 381.216C318.155 381.216 319.235 382.416 319.235 384.168C319.235 385.92 318.155 387.12 316.355 387.12C314.555 387.12 313.475 385.92 313.475 384.168ZM327.356 390H330.956V385.128C330.956 382.8 331.292 381.216 334.028 381.216C334.556 381.216 335.06 381.312 335.564 381.456V378.168C335.228 378.072 334.772 378.048 334.364 378.048C332.78 378.048 331.772 378.792 331.004 380.208H330.956V378.336H327.356V390ZM347.473 378.336H344.305V374.88H340.705V378.336H338.401V381.216H340.705V386.76C340.705 389.304 342.553 390.288 344.953 390.288C345.793 390.288 346.681 390.216 347.473 389.928V386.928C347.161 387.216 346.393 387.264 346.009 387.264C344.449 387.264 344.305 386.352 344.305 385.104V381.216H347.473V378.336ZM359.022 390H362.334V384.072C362.334 380.184 361.206 378.048 357.006 378.048C355.11 378.048 353.19 378.672 351.87 379.92L353.79 381.888C354.558 381.024 355.542 380.496 356.718 380.496C357.966 380.496 359.022 381.312 359.022 382.584C356.022 382.584 351.126 382.656 351.126 386.688C351.126 389.04 353.094 390.288 355.278 390.288C356.742 390.288 358.182 389.784 358.974 388.536H359.022V390ZM359.022 384.888V385.656C359.022 387.096 357.702 387.84 356.286 387.84C355.494 387.84 354.582 387.432 354.582 386.568C354.582 384.984 357.03 384.888 358.134 384.888H359.022ZM366.993 390H370.593V384.192C370.593 382.68 370.881 381.216 372.753 381.216C374.601 381.216 374.625 382.944 374.625 384.288V390H378.225V383.568C378.225 380.448 377.553 378.048 373.905 378.048C372.153 378.048 370.977 379.008 370.497 379.92H370.449V378.336H366.993V390ZM391.118 378.336H387.95V374.88H384.35V378.336H382.046V381.216H384.35V386.76C384.35 389.304 386.198 390.288 388.598 390.288C389.438 390.288 390.326 390.216 391.118 389.928V386.928C390.806 387.216 390.038 387.264 389.654 387.264C388.094 387.264 387.95 386.352 387.95 385.104V381.216H391.118V378.336ZM405.185 390H408.497V388.464H408.545C409.097 389.304 410.489 390.288 412.121 390.288C415.577 390.288 417.857 387.792 417.857 384.264C417.857 381.024 415.841 378.048 412.529 378.048C411.041 378.048 409.649 378.456 408.833 379.584H408.785V371.856H405.185V390ZM408.497 384.168C408.497 382.416 409.577 381.216 411.377 381.216C413.177 381.216 414.257 382.416 414.257 384.168C414.257 385.92 413.177 387.12 411.377 387.12C409.577 387.12 408.497 385.92 408.497 384.168ZM433.599 378.336H429.999V384.144C429.999 385.656 429.711 387.12 427.839 387.12C425.991 387.12 425.967 385.392 425.967 384.048V378.336H422.367V384.768C422.367 387.888 423.039 390.288 426.687 390.288C428.439 390.288 429.615 389.328 430.095 388.416H430.143V390H433.599V378.336ZM446.492 378.336H443.324V374.88H439.724V378.336H437.42V381.216H439.724V386.76C439.724 389.304 441.572 390.288 443.972 390.288C444.812 390.288 445.7 390.216 446.492 389.928V386.928C446.18 387.216 445.412 387.264 445.028 387.264C443.468 387.264 443.324 386.352 443.324 385.104V381.216H446.492V378.336ZM470.495 379.608C469.367 378.456 467.711 378.048 466.343 378.048C462.743 378.048 459.863 380.448 459.863 384.168C459.863 387.888 462.743 390.288 466.343 390.288C467.711 390.288 469.367 389.88 470.495 388.728L468.119 386.232C467.711 386.712 467.135 387.12 466.343 387.12C464.543 387.12 463.463 385.92 463.463 384.168C463.463 382.416 464.543 381.216 466.343 381.216C467.087 381.216 467.759 381.6 468.119 382.104L470.495 379.608ZM481.521 390H484.833V384.072C484.833 380.184 483.705 378.048 479.505 378.048C477.609 378.048 475.689 378.672 474.369 379.92L476.289 381.888C477.057 381.024 478.041 380.496 479.217 380.496C480.465 380.496 481.521 381.312 481.521 382.584C478.521 382.584 473.625 382.656 473.625 386.688C473.625 389.04 475.593 390.288 477.777 390.288C479.241 390.288 480.681 389.784 481.473 388.536H481.521V390ZM481.521 384.888V385.656C481.521 387.096 480.201 387.84 478.785 387.84C477.993 387.84 477.081 387.432 477.081 386.568C477.081 384.984 479.529 384.888 480.633 384.888H481.521ZM489.492 390H493.092V384.192C493.092 382.68 493.38 381.216 495.252 381.216C497.1 381.216 497.124 382.944 497.124 384.288V390H500.724V383.568C500.724 380.448 500.052 378.048 496.404 378.048C494.652 378.048 493.476 379.008 492.996 379.92H492.948V378.336H489.492V390ZM510.569 373.008H507.113L505.337 379.776H508.409L510.569 373.008ZM522.696 378.336H519.528V374.88H515.928V378.336H513.624V381.216H515.928V386.76C515.928 389.304 517.776 390.288 520.176 390.288C521.016 390.288 521.904 390.216 522.696 389.928V386.928C522.384 387.216 521.616 387.264 521.232 387.264C519.672 387.264 519.528 386.352 519.528 385.104V381.216H522.696V378.336ZM545.235 379.584C544.155 378.432 542.451 378.048 540.915 378.048C538.467 378.048 536.019 379.248 536.019 381.984C536.019 386.424 542.091 384.84 542.091 386.712C542.091 387.336 541.275 387.552 540.459 387.552C539.379 387.552 538.587 387.096 537.915 386.28L535.731 388.704C536.883 389.88 538.683 390.288 540.315 390.288C542.811 390.288 545.691 389.424 545.691 386.448C545.691 382.008 539.619 383.472 539.619 381.744C539.619 381.048 540.339 380.784 540.939 380.784C541.803 380.784 542.499 381.12 543.027 381.768L545.235 379.584ZM558.457 386.136C557.857 386.952 557.065 387.552 555.889 387.552C554.497 387.552 553.465 386.664 553.177 385.296H561.529V384.168C561.529 380.448 559.417 378.048 556.057 378.048C552.457 378.048 549.577 380.448 549.577 384.168C549.577 387.888 552.457 390.288 556.057 390.288C557.929 390.288 559.825 389.448 560.977 387.984L558.457 386.136ZM553.177 382.848C553.273 381.72 554.137 380.64 555.721 380.64C557.017 380.64 557.953 381.648 557.929 382.848H553.177ZM574.638 386.136C574.038 386.952 573.246 387.552 572.07 387.552C570.678 387.552 569.646 386.664 569.358 385.296H577.71V384.168C577.71 380.448 575.598 378.048 572.238 378.048C568.638 378.048 565.758 380.448 565.758 384.168C565.758 387.888 568.638 390.288 572.238 390.288C574.11 390.288 576.006 389.448 577.158 387.984L574.638 386.136ZM569.358 382.848C569.454 381.72 570.318 380.64 571.902 380.64C573.198 380.64 574.134 381.648 574.11 382.848H569.358ZM582.299 390H585.899V384.192C585.899 382.68 586.187 381.216 588.059 381.216C589.715 381.216 589.667 382.968 589.667 383.832V390H593.267V383.832C593.267 382.392 593.795 381.216 595.451 381.216C596.627 381.216 597.035 382.128 597.035 383.208V390H600.635V383.112C600.635 380.28 599.675 378.048 596.507 378.048C594.779 378.048 593.651 378.648 592.811 380.136C592.187 378.72 590.843 378.048 589.211 378.048C587.459 378.048 586.283 379.008 585.803 379.92H585.755V378.336H582.299V390ZM623.028 378.336H619.86V374.88H616.26V378.336H613.956V381.216H616.26V386.76C616.26 389.304 618.108 390.288 620.508 390.288C621.348 390.288 622.236 390.216 623.028 389.928V386.928C622.716 387.216 621.948 387.264 621.564 387.264C620.004 387.264 619.86 386.352 619.86 385.104V381.216H623.028V378.336ZM626.825 384.168C626.825 387.888 629.705 390.288 633.305 390.288C636.905 390.288 639.785 387.888 639.785 384.168C639.785 380.448 636.905 378.048 633.305 378.048C629.705 378.048 626.825 380.448 626.825 384.168ZM630.425 384.168C630.425 382.416 631.505 381.216 633.305 381.216C635.105 381.216 636.185 382.416 636.185 384.168C636.185 385.92 635.105 387.12 633.305 387.12C631.505 387.12 630.425 385.92 630.425 384.168ZM662.735 390H666.335V378.336H662.735V390ZM662.447 374.664C662.447 375.816 663.383 376.752 664.535 376.752C665.687 376.752 666.623 375.816 666.623 374.664C666.623 373.512 665.687 372.576 664.535 372.576C663.383 372.576 662.447 373.512 662.447 374.664ZM655.055 390H658.655V381.216H661.319V378.336H658.655V376.488C658.655 374.952 659.231 374.592 660.383 374.592C660.815 374.592 661.151 374.688 661.559 374.832L661.727 371.784C661.055 371.616 660.335 371.568 659.615 371.568C655.703 371.568 655.055 373.728 655.055 376.272V378.336H652.679V381.216H655.055V390ZM683.564 378.336H680.252V379.872H680.204C679.652 379.032 678.26 378.048 676.22 378.048C672.908 378.048 670.892 381.024 670.892 384.12C670.892 387.648 673.172 390.144 676.628 390.144C677.708 390.144 679.1 389.736 679.916 388.608H679.964V389.736C679.964 391.392 678.932 392.592 676.748 392.592C675.284 392.592 674.06 392.016 672.956 391.08L670.964 394.056C672.644 395.4 674.756 395.76 676.82 395.76C681.332 395.76 683.564 393.408 683.564 389.016V378.336ZM674.492 384.096C674.492 382.584 675.74 381.216 677.372 381.216C679.004 381.216 680.252 382.584 680.252 384.096C680.252 385.608 679.004 386.976 677.372 386.976C675.74 386.976 674.492 385.608 674.492 384.096ZM700.074 378.336H696.474V384.144C696.474 385.656 696.186 387.12 694.314 387.12C692.466 387.12 692.442 385.392 692.442 384.048V378.336H688.842V384.768C688.842 387.888 689.514 390.288 693.162 390.288C694.914 390.288 696.09 389.328 696.57 388.416H696.618V390H700.074V378.336ZM705.023 390H708.623V385.128C708.623 382.8 708.959 381.216 711.695 381.216C712.223 381.216 712.727 381.312 713.231 381.456V378.168C712.895 378.072 712.439 378.048 712.031 378.048C710.447 378.048 709.439 378.792 708.671 380.208H708.623V378.336H705.023V390ZM725.294 386.136C724.694 386.952 723.902 387.552 722.726 387.552C721.334 387.552 720.302 386.664 720.014 385.296H728.366V384.168C728.366 380.448 726.254 378.048 722.894 378.048C719.294 378.048 716.414 380.448 716.414 384.168C716.414 387.888 719.294 390.288 722.894 390.288C724.766 390.288 726.662 389.448 727.814 387.984L725.294 386.136ZM720.014 382.848C720.11 381.72 720.974 380.64 722.558 380.64C723.854 380.64 724.79 381.648 724.766 382.848H720.014ZM742.505 390H746.105V378.336H742.505V390ZM742.217 374.664C742.217 375.816 743.153 376.752 744.305 376.752C745.457 376.752 746.393 375.816 746.393 374.664C746.393 373.512 745.457 372.576 744.305 372.576C743.153 372.576 742.217 373.512 742.217 374.664ZM759.036 378.336H755.868V374.88H752.268V378.336H749.964V381.216H752.268V386.76C752.268 389.304 754.116 390.288 756.516 390.288C757.356 390.288 758.244 390.216 759.036 389.928V386.928C758.724 387.216 757.956 387.264 757.572 387.264C756.012 387.264 755.868 386.352 755.868 385.104V381.216H759.036V378.336ZM772.335 384.168C772.335 387.888 775.215 390.288 778.815 390.288C782.415 390.288 785.295 387.888 785.295 384.168C785.295 380.448 782.415 378.048 778.815 378.048C775.215 378.048 772.335 380.448 772.335 384.168ZM775.935 384.168C775.935 382.416 777.015 381.216 778.815 381.216C780.615 381.216 781.695 382.416 781.695 384.168C781.695 385.92 780.615 387.12 778.815 387.12C777.015 387.12 775.935 385.92 775.935 384.168ZM801.047 378.336H797.447V384.144C797.447 385.656 797.159 387.12 795.287 387.12C793.439 387.12 793.415 385.392 793.415 384.048V378.336H789.815V384.768C789.815 387.888 790.487 390.288 794.135 390.288C795.887 390.288 797.063 389.328 797.543 388.416H797.591V390H801.047V378.336ZM813.94 378.336H810.772V374.88H807.172V378.336H804.868V381.216H807.172V386.76C807.172 389.304 809.02 390.288 811.42 390.288C812.26 390.288 813.148 390.216 813.94 389.928V386.928C813.628 387.216 812.86 387.264 812.476 387.264C810.916 387.264 810.772 386.352 810.772 385.104V381.216H813.94V378.336ZM818.242 387.936C818.242 389.16 819.226 390.144 820.45 390.144C821.674 390.144 822.658 389.16 822.658 387.936C822.658 386.712 821.674 385.728 820.45 385.728C819.226 385.728 818.242 386.712 818.242 387.936Z" fill="white"/>
<path d="M289.015 578H292.759V564.32H297.607V561.008H284.167V564.32H289.015V578ZM301.452 559.856V578H305.052V572.192C305.052 570.68 305.34 569.216 307.212 569.216C309.06 569.216 309.084 570.944 309.084 572.288V578H312.684V571.568C312.684 568.448 312.012 566.048 308.364 566.048C306.612 566.048 305.436 567.008 305.1 567.92H305.052V559.856H301.452ZM326.154 574.136C325.554 574.952 324.762 575.552 323.586 575.552C322.194 575.552 321.162 574.664 320.874 573.296H329.226V572.168C329.226 568.448 327.114 566.048 323.754 566.048C320.154 566.048 317.274 568.448 317.274 572.168C317.274 575.888 320.154 578.288 323.754 578.288C325.626 578.288 327.522 577.448 328.674 575.984L326.154 574.136ZM320.874 570.848C320.97 569.72 321.834 568.64 323.418 568.64C324.714 568.64 325.65 569.648 325.626 570.848H320.874ZM350.637 578H353.949V572.072C353.949 568.184 352.821 566.048 348.621 566.048C346.725 566.048 344.805 566.672 343.485 567.92L345.405 569.888C346.173 569.024 347.157 568.496 348.333 568.496C349.581 568.496 350.637 569.312 350.637 570.584C347.637 570.584 342.741 570.656 342.741 574.688C342.741 577.04 344.709 578.288 346.893 578.288C348.357 578.288 349.797 577.784 350.589 576.536H350.637V578ZM350.637 572.888V573.656C350.637 575.096 349.317 575.84 347.901 575.84C347.109 575.84 346.197 575.432 346.197 574.568C346.197 572.984 348.645 572.888 349.749 572.888H350.637ZM358.943 583.472H362.543V576.752H362.591C363.407 577.88 364.799 578.288 366.287 578.288C369.599 578.288 371.615 575.312 371.615 572.072C371.615 568.544 369.335 566.048 365.879 566.048C364.247 566.048 362.855 567.032 362.303 567.872H362.255V566.336H358.943V583.472ZM362.255 572.168C362.255 570.416 363.335 569.216 365.135 569.216C366.935 569.216 368.015 570.416 368.015 572.168C368.015 573.92 366.935 575.12 365.135 575.12C363.335 575.12 362.255 573.92 362.255 572.168ZM376.46 583.472H380.06V576.752H380.108C380.924 577.88 382.316 578.288 383.804 578.288C387.116 578.288 389.132 575.312 389.132 572.072C389.132 568.544 386.852 566.048 383.396 566.048C381.764 566.048 380.372 567.032 379.82 567.872H379.772V566.336H376.46V583.472ZM379.772 572.168C379.772 570.416 380.852 569.216 382.652 569.216C384.452 569.216 385.532 570.416 385.532 572.168C385.532 573.92 384.452 575.12 382.652 575.12C380.852 575.12 379.772 573.92 379.772 572.168ZM406.023 578H409.647L411.807 570.248H411.855L414.279 578H417.831L421.983 566.336H418.335L416.151 573.656H416.103L413.943 566.336H410.007L408.015 573.656H407.967L405.591 566.336H401.751L406.023 578ZM425.583 578H429.183V566.336H425.583V578ZM425.295 562.664C425.295 563.816 426.231 564.752 427.383 564.752C428.535 564.752 429.471 563.816 429.471 562.664C429.471 561.512 428.535 560.576 427.383 560.576C426.231 560.576 425.295 561.512 425.295 562.664ZM434.218 578H437.818V559.856H434.218V578ZM442.852 578H446.452V559.856H442.852V578ZM460.94 559.856V578H464.54V572.192C464.54 570.68 464.828 569.216 466.7 569.216C468.548 569.216 468.572 570.944 468.572 572.288V578H472.172V571.568C472.172 568.448 471.5 566.048 467.852 566.048C466.1 566.048 464.924 567.008 464.588 567.92H464.54V559.856H460.94ZM485.641 574.136C485.041 574.952 484.249 575.552 483.073 575.552C481.681 575.552 480.649 574.664 480.361 573.296H488.713V572.168C488.713 568.448 486.601 566.048 483.241 566.048C479.641 566.048 476.761 568.448 476.761 572.168C476.761 575.888 479.641 578.288 483.241 578.288C485.113 578.288 487.009 577.448 488.161 575.984L485.641 574.136ZM480.361 570.848C480.457 569.72 481.321 568.64 482.905 568.64C484.201 568.64 485.137 569.648 485.113 570.848H480.361ZM493.35 578H496.95V559.856H493.35V578ZM502.273 583.472H505.873V576.752H505.921C506.737 577.88 508.129 578.288 509.617 578.288C512.929 578.288 514.945 575.312 514.945 572.072C514.945 568.544 512.665 566.048 509.209 566.048C507.577 566.048 506.185 567.032 505.633 567.872H505.585V566.336H502.273V583.472ZM505.585 572.168C505.585 570.416 506.665 569.216 508.465 569.216C510.265 569.216 511.345 570.416 511.345 572.168C511.345 573.92 510.265 575.12 508.465 575.12C506.665 575.12 505.585 573.92 505.585 572.168ZM528.956 578H532.556V572.192C532.556 570.68 532.844 569.216 534.716 569.216C536.372 569.216 536.324 570.968 536.324 571.832V578H539.924V571.832C539.924 570.392 540.452 569.216 542.108 569.216C543.284 569.216 543.692 570.128 543.692 571.208V578H547.292V571.112C547.292 568.28 546.332 566.048 543.164 566.048C541.436 566.048 540.308 566.648 539.468 568.136C538.844 566.72 537.5 566.048 535.868 566.048C534.116 566.048 532.94 567.008 532.46 567.92H532.412V566.336H528.956V578ZM560.758 574.136C560.158 574.952 559.366 575.552 558.19 575.552C556.798 575.552 555.766 574.664 555.478 573.296H563.83V572.168C563.83 568.448 561.718 566.048 558.358 566.048C554.758 566.048 551.878 568.448 551.878 572.168C551.878 575.888 554.758 578.288 558.358 578.288C560.23 578.288 562.126 577.448 563.278 575.984L560.758 574.136ZM555.478 570.848C555.574 569.72 556.438 568.64 558.022 568.64C559.318 568.64 560.254 569.648 560.23 570.848H555.478ZM585.865 566.336H582.697V562.88H579.097V566.336H576.793V569.216H579.097V574.76C579.097 577.304 580.945 578.288 583.345 578.288C584.185 578.288 585.073 578.216 585.865 577.928V574.928C585.553 575.216 584.785 575.264 584.401 575.264C582.841 575.264 582.697 574.352 582.697 573.104V569.216H585.865V566.336ZM590.095 559.856V578H593.695V572.192C593.695 570.68 593.983 569.216 595.855 569.216C597.703 569.216 597.727 570.944 597.727 572.288V578H601.327V571.568C601.327 568.448 600.655 566.048 597.007 566.048C595.255 566.048 594.079 567.008 593.743 567.92H593.695V559.856H590.095ZM606.276 578H609.876V573.128C609.876 570.8 610.212 569.216 612.948 569.216C613.476 569.216 613.98 569.312 614.484 569.456V566.168C614.148 566.072 613.692 566.048 613.284 566.048C611.7 566.048 610.692 566.792 609.924 568.208H609.876V566.336H606.276V578ZM617.595 572.168C617.595 575.888 620.475 578.288 624.075 578.288C627.675 578.288 630.555 575.888 630.555 572.168C630.555 568.448 627.675 566.048 624.075 566.048C620.475 566.048 617.595 568.448 617.595 572.168ZM621.195 572.168C621.195 570.416 622.275 569.216 624.075 569.216C625.875 569.216 626.955 570.416 626.955 572.168C626.955 573.92 625.875 575.12 624.075 575.12C622.275 575.12 621.195 573.92 621.195 572.168ZM646.308 566.336H642.708V572.144C642.708 573.656 642.42 575.12 640.548 575.12C638.7 575.12 638.676 573.392 638.676 572.048V566.336H635.076V572.768C635.076 575.888 635.748 578.288 639.396 578.288C641.148 578.288 642.324 577.328 642.804 576.416H642.852V578H646.308V566.336ZM663.497 566.336H660.185V567.872H660.137C659.585 567.032 658.193 566.048 656.153 566.048C652.841 566.048 650.825 569.024 650.825 572.12C650.825 575.648 653.105 578.144 656.561 578.144C657.641 578.144 659.033 577.736 659.849 576.608H659.897V577.736C659.897 579.392 658.865 580.592 656.681 580.592C655.217 580.592 653.993 580.016 652.889 579.08L650.897 582.056C652.577 583.4 654.689 583.76 656.753 583.76C661.265 583.76 663.497 581.408 663.497 577.016V566.336ZM654.425 572.096C654.425 570.584 655.673 569.216 657.305 569.216C658.937 569.216 660.185 570.584 660.185 572.096C660.185 573.608 658.937 574.976 657.305 574.976C655.673 574.976 654.425 573.608 654.425 572.096ZM668.774 559.856V578H672.374V572.192C672.374 570.68 672.662 569.216 674.534 569.216C676.382 569.216 676.406 570.944 676.406 572.288V578H680.006V571.568C680.006 568.448 679.334 566.048 675.686 566.048C673.934 566.048 672.758 567.008 672.422 567.92H672.374V559.856H668.774ZM694.505 578H698.105V559.856H694.505V578ZM711.612 574.136C711.012 574.952 710.22 575.552 709.044 575.552C707.652 575.552 706.62 574.664 706.332 573.296H714.684V572.168C714.684 568.448 712.572 566.048 709.212 566.048C705.612 566.048 702.732 568.448 702.732 572.168C702.732 575.888 705.612 578.288 709.212 578.288C711.084 578.288 712.98 577.448 714.132 575.984L711.612 574.136ZM706.332 570.848C706.428 569.72 707.292 568.64 708.876 568.64C710.172 568.64 711.108 569.648 711.084 570.848H706.332ZM726.593 578H729.905V572.072C729.905 568.184 728.777 566.048 724.577 566.048C722.681 566.048 720.761 566.672 719.441 567.92L721.361 569.888C722.129 569.024 723.113 568.496 724.289 568.496C725.537 568.496 726.593 569.312 726.593 570.584C723.593 570.584 718.697 570.656 718.697 574.688C718.697 577.04 720.665 578.288 722.849 578.288C724.313 578.288 725.753 577.784 726.545 576.536H726.593V578ZM726.593 572.888V573.656C726.593 575.096 725.273 575.84 723.857 575.84C723.065 575.84 722.153 575.432 722.153 574.568C722.153 572.984 724.601 572.888 725.705 572.888H726.593ZM734.563 578H738.163V573.128C738.163 570.8 738.499 569.216 741.235 569.216C741.763 569.216 742.267 569.312 742.771 569.456V566.168C742.435 566.072 741.979 566.048 741.571 566.048C739.987 566.048 738.979 566.792 738.211 568.208H738.163V566.336H734.563V578ZM747.159 578H750.759V572.192C750.759 570.68 751.047 569.216 752.919 569.216C754.767 569.216 754.791 570.944 754.791 572.288V578H758.391V571.568C758.391 568.448 757.719 566.048 754.071 566.048C752.319 566.048 751.143 567.008 750.663 567.92H750.615V566.336H747.159V578ZM763.388 578H766.988V566.336H763.388V578ZM763.1 562.664C763.1 563.816 764.036 564.752 765.188 564.752C766.34 564.752 767.276 563.816 767.276 562.664C767.276 561.512 766.34 560.576 765.188 560.576C764.036 560.576 763.1 561.512 763.1 562.664ZM771.974 578H775.574V572.192C775.574 570.68 775.862 569.216 777.734 569.216C779.582 569.216 779.606 570.944 779.606 572.288V578H783.206V571.568C783.206 568.448 782.534 566.048 778.886 566.048C777.134 566.048 775.958 567.008 775.478 567.92H775.43V566.336H771.974V578ZM800.396 566.336H797.084V567.872H797.036C796.484 567.032 795.092 566.048 793.052 566.048C789.74 566.048 787.724 569.024 787.724 572.12C787.724 575.648 790.004 578.144 793.46 578.144C794.54 578.144 795.932 577.736 796.748 576.608H796.796V577.736C796.796 579.392 795.764 580.592 793.58 580.592C792.116 580.592 790.892 580.016 789.788 579.08L787.796 582.056C789.476 583.4 791.588 583.76 793.652 583.76C798.164 583.76 800.396 581.408 800.396 577.016V566.336ZM791.324 572.096C791.324 570.584 792.572 569.216 794.204 569.216C795.836 569.216 797.084 570.584 797.084 572.096C797.084 573.608 795.836 574.976 794.204 574.976C792.572 574.976 791.324 573.608 791.324 572.096ZM323.721 623.472H327.321V616.752H327.369C328.185 617.88 329.577 618.288 331.065 618.288C334.377 618.288 336.393 615.312 336.393 612.072C336.393 608.544 334.113 606.048 330.657 606.048C329.025 606.048 327.633 607.032 327.081 607.872H327.033V606.336H323.721V623.472ZM327.033 612.168C327.033 610.416 328.113 609.216 329.913 609.216C331.713 609.216 332.793 610.416 332.793 612.168C332.793 613.92 331.713 615.12 329.913 615.12C328.113 615.12 327.033 613.92 327.033 612.168ZM340.902 618H344.502V613.128C344.502 610.8 344.838 609.216 347.574 609.216C348.102 609.216 348.606 609.312 349.11 609.456V606.168C348.774 606.072 348.318 606.048 347.91 606.048C346.326 606.048 345.318 606.792 344.55 608.208H344.502V606.336H340.902V618ZM352.222 612.168C352.222 615.888 355.102 618.288 358.702 618.288C362.302 618.288 365.182 615.888 365.182 612.168C365.182 608.448 362.302 606.048 358.702 606.048C355.102 606.048 352.222 608.448 352.222 612.168ZM355.822 612.168C355.822 610.416 356.902 609.216 358.702 609.216C360.502 609.216 361.582 610.416 361.582 612.168C361.582 613.92 360.502 615.12 358.702 615.12C356.902 615.12 355.822 613.92 355.822 612.168ZM379.974 607.608C378.846 606.456 377.19 606.048 375.822 606.048C372.222 606.048 369.342 608.448 369.342 612.168C369.342 615.888 372.222 618.288 375.822 618.288C377.19 618.288 378.846 617.88 379.974 616.728L377.598 614.232C377.19 614.712 376.614 615.12 375.822 615.12C374.022 615.12 372.942 613.92 372.942 612.168C372.942 610.416 374.022 609.216 375.822 609.216C376.566 609.216 377.238 609.6 377.598 610.104L379.974 607.608ZM392.201 614.136C391.601 614.952 390.809 615.552 389.633 615.552C388.241 615.552 387.209 614.664 386.921 613.296H395.273V612.168C395.273 608.448 393.161 606.048 389.801 606.048C386.201 606.048 383.321 608.448 383.321 612.168C383.321 615.888 386.201 618.288 389.801 618.288C391.673 618.288 393.569 617.448 394.721 615.984L392.201 614.136ZM386.921 610.848C387.017 609.72 387.881 608.64 389.465 608.64C390.761 608.64 391.697 609.648 391.673 610.848H386.921ZM408.67 607.584C407.59 606.432 405.886 606.048 404.35 606.048C401.902 606.048 399.454 607.248 399.454 609.984C399.454 614.424 405.526 612.84 405.526 614.712C405.526 615.336 404.71 615.552 403.894 615.552C402.814 615.552 402.022 615.096 401.35 614.28L399.166 616.704C400.318 617.88 402.118 618.288 403.75 618.288C406.246 618.288 409.126 617.424 409.126 614.448C409.126 610.008 403.054 611.472 403.054 609.744C403.054 609.048 403.774 608.784 404.374 608.784C405.238 608.784 405.934 609.12 406.462 609.768L408.67 607.584ZM422.179 607.584C421.099 606.432 419.395 606.048 417.859 606.048C415.411 606.048 412.963 607.248 412.963 609.984C412.963 614.424 419.035 612.84 419.035 614.712C419.035 615.336 418.219 615.552 417.403 615.552C416.323 615.552 415.531 615.096 414.859 614.28L412.675 616.704C413.827 617.88 415.627 618.288 417.259 618.288C419.755 618.288 422.635 617.424 422.635 614.448C422.635 610.008 416.563 611.472 416.563 609.744C416.563 609.048 417.283 608.784 417.883 608.784C418.747 608.784 419.443 609.12 419.971 609.768L422.179 607.584ZM443.702 618H447.014V612.072C447.014 608.184 445.886 606.048 441.686 606.048C439.79 606.048 437.87 606.672 436.55 607.92L438.47 609.888C439.238 609.024 440.222 608.496 441.398 608.496C442.646 608.496 443.702 609.312 443.702 610.584C440.702 610.584 435.806 610.656 435.806 614.688C435.806 617.04 437.774 618.288 439.958 618.288C441.422 618.288 442.862 617.784 443.654 616.536H443.702V618ZM443.702 612.888V613.656C443.702 615.096 442.382 615.84 440.966 615.84C440.174 615.84 439.262 615.432 439.262 614.568C439.262 612.984 441.71 612.888 442.814 612.888H443.702ZM451.673 618H455.273V612.192C455.273 610.68 455.561 609.216 457.433 609.216C459.281 609.216 459.305 610.944 459.305 612.288V618H462.905V611.568C462.905 608.448 462.233 606.048 458.585 606.048C456.833 606.048 455.657 607.008 455.177 607.92H455.129V606.336H451.673V618ZM480.094 599.856H476.494V607.584H476.446C475.63 606.456 474.238 606.048 472.75 606.048C469.438 606.048 467.422 609.024 467.422 612.264C467.422 615.792 469.702 618.288 473.158 618.288C474.79 618.288 476.182 617.304 476.734 616.464H476.782V618H480.094V599.856ZM476.782 612.168C476.782 613.92 475.702 615.12 473.902 615.12C472.102 615.12 471.022 613.92 471.022 612.168C471.022 610.416 472.102 609.216 473.902 609.216C475.702 609.216 476.782 610.416 476.782 612.168ZM494.873 618H498.473V612.192C498.473 610.68 498.761 609.216 500.633 609.216C502.289 609.216 502.241 610.968 502.241 611.832V618H505.841V611.832C505.841 610.392 506.369 609.216 508.025 609.216C509.201 609.216 509.609 610.128 509.609 611.208V618H513.209V611.112C513.209 608.28 512.249 606.048 509.081 606.048C507.353 606.048 506.225 606.648 505.385 608.136C504.761 606.72 503.417 606.048 501.785 606.048C500.033 606.048 498.857 607.008 498.377 607.92H498.329V606.336H494.873V618ZM517.724 612.168C517.724 615.888 520.604 618.288 524.204 618.288C527.804 618.288 530.684 615.888 530.684 612.168C530.684 608.448 527.804 606.048 524.204 606.048C520.604 606.048 517.724 608.448 517.724 612.168ZM521.324 612.168C521.324 610.416 522.404 609.216 524.204 609.216C526.004 609.216 527.084 610.416 527.084 612.168C527.084 613.92 526.004 615.12 524.204 615.12C522.404 615.12 521.324 613.92 521.324 612.168ZM543.148 606.336H539.98V602.88H536.38V606.336H534.076V609.216H536.38V614.76C536.38 617.304 538.228 618.288 540.628 618.288C541.468 618.288 542.356 618.216 543.148 617.928V614.928C542.836 615.216 542.068 615.264 541.684 615.264C540.124 615.264 539.98 614.352 539.98 613.104V609.216H543.148V606.336ZM547.425 618H551.025V606.336H547.425V618ZM547.137 602.664C547.137 603.816 548.073 604.752 549.225 604.752C550.377 604.752 551.313 603.816 551.313 602.664C551.313 601.512 550.377 600.576 549.225 600.576C548.073 600.576 547.137 601.512 547.137 602.664ZM559.612 618H563.428L568.036 606.336H564.412L561.676 614.256H561.628L558.676 606.336H554.788L559.612 618ZM579.068 618H582.38V612.072C582.38 608.184 581.252 606.048 577.052 606.048C575.156 606.048 573.236 606.672 571.916 607.92L573.836 609.888C574.604 609.024 575.588 608.496 576.764 608.496C578.012 608.496 579.068 609.312 579.068 610.584C576.068 610.584 571.172 610.656 571.172 614.688C571.172 617.04 573.14 618.288 575.324 618.288C576.788 618.288 578.228 617.784 579.02 616.536H579.068V618ZM579.068 612.888V613.656C579.068 615.096 577.748 615.84 576.332 615.84C575.54 615.84 574.628 615.432 574.628 614.568C574.628 612.984 577.076 612.888 578.18 612.888H579.068ZM594.982 606.336H591.814V602.88H588.214V606.336H585.91V609.216H588.214V614.76C588.214 617.304 590.062 618.288 592.462 618.288C593.302 618.288 594.19 618.216 594.982 617.928V614.928C594.67 615.216 593.902 615.264 593.518 615.264C591.958 615.264 591.814 614.352 591.814 613.104V609.216H594.982V606.336ZM607.732 614.136C607.132 614.952 606.34 615.552 605.164 615.552C603.772 615.552 602.74 614.664 602.452 613.296H610.804V612.168C610.804 608.448 608.692 606.048 605.332 606.048C601.732 606.048 598.852 608.448 598.852 612.168C598.852 615.888 601.732 618.288 605.332 618.288C607.204 618.288 609.1 617.448 610.252 615.984L607.732 614.136ZM602.452 610.848C602.548 609.72 603.412 608.64 604.996 608.64C606.292 608.64 607.228 609.648 607.204 610.848H602.452ZM624.895 618H628.495V612.192C628.495 610.68 628.783 609.216 630.655 609.216C632.311 609.216 632.263 610.968 632.263 611.832V618H635.863V611.832C635.863 610.392 636.391 609.216 638.047 609.216C639.223 609.216 639.631 610.128 639.631 611.208V618H643.231V611.112C643.231 608.28 642.271 606.048 639.103 606.048C637.375 606.048 636.247 606.648 635.407 608.136C634.783 606.72 633.439 606.048 631.807 606.048C630.055 606.048 628.879 607.008 628.399 607.92H628.351V606.336H624.895V618ZM656.697 614.136C656.097 614.952 655.305 615.552 654.129 615.552C652.737 615.552 651.705 614.664 651.417 613.296H659.769V612.168C659.769 608.448 657.657 606.048 654.297 606.048C650.697 606.048 647.817 608.448 647.817 612.168C647.817 615.888 650.697 618.288 654.297 618.288C656.169 618.288 658.065 617.448 659.217 615.984L656.697 614.136ZM651.417 610.848C651.513 609.72 652.377 608.64 653.961 608.64C655.257 608.64 656.193 609.648 656.169 610.848H651.417ZM674.196 618H677.508V616.464H677.556C678.108 617.304 679.5 618.288 681.132 618.288C684.588 618.288 686.868 615.792 686.868 612.264C686.868 609.024 684.852 606.048 681.54 606.048C680.052 606.048 678.66 606.456 677.844 607.584H677.796V599.856H674.196V618ZM677.508 612.168C677.508 610.416 678.588 609.216 680.388 609.216C682.188 609.216 683.268 610.416 683.268 612.168C683.268 613.92 682.188 615.12 680.388 615.12C678.588 615.12 677.508 613.92 677.508 612.168ZM699.897 614.136C699.297 614.952 698.505 615.552 697.329 615.552C695.937 615.552 694.905 614.664 694.617 613.296H702.969V612.168C702.969 608.448 700.857 606.048 697.497 606.048C693.897 606.048 691.017 608.448 691.017 612.168C691.017 615.888 693.897 618.288 697.497 618.288C699.369 618.288 701.265 617.448 702.417 615.984L699.897 614.136ZM694.617 610.848C694.713 609.72 695.577 608.64 697.161 608.64C698.457 608.64 699.393 609.648 699.369 610.848H694.617ZM715.503 606.336H712.335V602.88H708.735V606.336H706.431V609.216H708.735V614.76C708.735 617.304 710.583 618.288 712.983 618.288C713.823 618.288 714.711 618.216 715.503 617.928V614.928C715.191 615.216 714.423 615.264 714.039 615.264C712.479 615.264 712.335 614.352 712.335 613.104V609.216H715.503V606.336ZM727.676 606.336H724.508V602.88H720.908V606.336H718.604V609.216H720.908V614.76C720.908 617.304 722.756 618.288 725.156 618.288C725.996 618.288 726.884 618.216 727.676 617.928V614.928C727.364 615.216 726.596 615.264 726.212 615.264C724.652 615.264 724.508 614.352 724.508 613.104V609.216H727.676V606.336ZM740.426 614.136C739.826 614.952 739.034 615.552 737.858 615.552C736.466 615.552 735.434 614.664 735.146 613.296H743.498V612.168C743.498 608.448 741.386 606.048 738.026 606.048C734.426 606.048 731.546 608.448 731.546 612.168C731.546 615.888 734.426 618.288 738.026 618.288C739.898 618.288 741.794 617.448 742.946 615.984L740.426 614.136ZM735.146 610.848C735.242 609.72 736.106 608.64 737.69 608.64C738.986 608.64 739.922 609.648 739.898 610.848H735.146ZM748.087 618H751.687V613.128C751.687 610.8 752.023 609.216 754.759 609.216C755.287 609.216 755.791 609.312 756.295 609.456V606.168C755.959 606.072 755.503 606.048 755.095 606.048C753.511 606.048 752.503 606.792 751.735 608.208H751.687V606.336H748.087V618ZM758.129 615.936C758.129 617.16 759.113 618.144 760.337 618.144C761.561 618.144 762.545 617.16 762.545 615.936C762.545 614.712 761.561 613.728 760.337 613.728C759.113 613.728 758.129 614.712 758.129 615.936Z" fill="white"/>
<path d="M260.489 817H264.233V800.008H260.489V817ZM280.332 817H283.932V808.216H286.596V805.336H283.932V803.488C283.932 801.952 284.508 801.592 285.66 801.592C286.092 801.592 286.428 801.688 286.836 801.832L287.004 798.784C286.332 798.616 285.612 798.568 284.892 798.568C280.98 798.568 280.332 800.728 280.332 803.272V805.336H277.956V808.216H280.332V817ZM298.887 813.136C298.287 813.952 297.495 814.552 296.319 814.552C294.927 814.552 293.895 813.664 293.607 812.296H301.959V811.168C301.959 807.448 299.847 805.048 296.487 805.048C292.887 805.048 290.007 807.448 290.007 811.168C290.007 814.888 292.887 817.288 296.487 817.288C298.359 817.288 300.255 816.448 301.407 814.984L298.887 813.136ZM293.607 809.848C293.703 808.72 294.567 807.64 296.151 807.64C297.447 807.64 298.383 808.648 298.359 809.848H293.607ZM315.068 813.136C314.468 813.952 313.676 814.552 312.5 814.552C311.108 814.552 310.076 813.664 309.788 812.296H318.14V811.168C318.14 807.448 316.028 805.048 312.668 805.048C309.068 805.048 306.188 807.448 306.188 811.168C306.188 814.888 309.068 817.288 312.668 817.288C314.54 817.288 316.436 816.448 317.588 814.984L315.068 813.136ZM309.788 809.848C309.884 808.72 310.748 807.64 312.332 807.64C313.628 807.64 314.564 808.648 314.54 809.848H309.788ZM322.777 817H326.377V798.856H322.777V817ZM353.105 798.856H349.505V806.584H349.457C348.641 805.456 347.249 805.048 345.761 805.048C342.449 805.048 340.433 808.024 340.433 811.264C340.433 814.792 342.713 817.288 346.169 817.288C347.801 817.288 349.193 816.304 349.745 815.464H349.793V817H353.105V798.856ZM349.793 811.168C349.793 812.92 348.713 814.12 346.913 814.12C345.113 814.12 344.033 812.92 344.033 811.168C344.033 809.416 345.113 808.216 346.913 808.216C348.713 808.216 349.793 809.416 349.793 811.168ZM366.902 813.136C366.302 813.952 365.51 814.552 364.334 814.552C362.942 814.552 361.91 813.664 361.622 812.296H369.974V811.168C369.974 807.448 367.862 805.048 364.502 805.048C360.902 805.048 358.022 807.448 358.022 811.168C358.022 814.888 360.902 817.288 364.502 817.288C366.374 817.288 368.27 816.448 369.422 814.984L366.902 813.136ZM361.622 809.848C361.718 808.72 362.582 807.64 364.166 807.64C365.462 807.64 366.398 808.648 366.374 809.848H361.622ZM374.563 817H378.163V811.192C378.163 809.68 378.451 808.216 380.323 808.216C381.979 808.216 381.931 809.968 381.931 810.832V817H385.531V810.832C385.531 809.392 386.059 808.216 387.715 808.216C388.891 808.216 389.299 809.128 389.299 810.208V817H392.899V810.112C392.899 807.28 391.939 805.048 388.771 805.048C387.043 805.048 385.915 805.648 385.075 807.136C384.451 805.72 383.107 805.048 381.475 805.048C379.723 805.048 378.547 806.008 378.067 806.92H378.019V805.336H374.563V817ZM397.414 811.168C397.414 814.888 400.294 817.288 403.894 817.288C407.494 817.288 410.374 814.888 410.374 811.168C410.374 807.448 407.494 805.048 403.894 805.048C400.294 805.048 397.414 807.448 397.414 811.168ZM401.014 811.168C401.014 809.416 402.094 808.216 403.894 808.216C405.694 808.216 406.774 809.416 406.774 811.168C406.774 812.92 405.694 814.12 403.894 814.12C402.094 814.12 401.014 812.92 401.014 811.168ZM422.839 805.336H419.671V801.88H416.071V805.336H413.767V808.216H416.071V813.76C416.071 816.304 417.919 817.288 420.319 817.288C421.159 817.288 422.047 817.216 422.839 816.928V813.928C422.527 814.216 421.759 814.264 421.375 814.264C419.815 814.264 419.671 813.352 419.671 812.104V808.216H422.839V805.336ZM427.116 817H430.716V805.336H427.116V817ZM426.828 801.664C426.828 802.816 427.764 803.752 428.916 803.752C430.068 803.752 431.004 802.816 431.004 801.664C431.004 800.512 430.068 799.576 428.916 799.576C427.764 799.576 426.828 800.512 426.828 801.664ZM439.302 817H443.118L447.726 805.336H444.102L441.366 813.256H441.318L438.366 805.336H434.478L439.302 817ZM458.758 817H462.07V811.072C462.07 807.184 460.942 805.048 456.742 805.048C454.846 805.048 452.926 805.672 451.606 806.92L453.526 808.888C454.294 808.024 455.278 807.496 456.454 807.496C457.702 807.496 458.758 808.312 458.758 809.584C455.758 809.584 450.862 809.656 450.862 813.688C450.862 816.04 452.83 817.288 455.014 817.288C456.478 817.288 457.918 816.784 458.71 815.536H458.758V817ZM458.758 811.888V812.656C458.758 814.096 457.438 814.84 456.022 814.84C455.23 814.84 454.318 814.432 454.318 813.568C454.318 811.984 456.766 811.888 457.87 811.888H458.758ZM474.673 805.336H471.505V801.88H467.905V805.336H465.601V808.216H467.905V813.76C467.905 816.304 469.753 817.288 472.153 817.288C472.993 817.288 473.881 817.216 474.673 816.928V813.928C474.361 814.216 473.593 814.264 473.209 814.264C471.649 814.264 471.505 813.352 471.505 812.104V808.216H474.673V805.336ZM487.422 813.136C486.822 813.952 486.03 814.552 484.854 814.552C483.462 814.552 482.43 813.664 482.142 812.296H490.494V811.168C490.494 807.448 488.382 805.048 485.022 805.048C481.422 805.048 478.542 807.448 478.542 811.168C478.542 814.888 481.422 817.288 485.022 817.288C486.894 817.288 488.79 816.448 489.942 814.984L487.422 813.136ZM482.142 809.848C482.238 808.72 483.102 807.64 484.686 807.64C485.982 807.64 486.918 808.648 486.894 809.848H482.142ZM507.324 798.856H503.724V806.584H503.676C502.86 805.456 501.468 805.048 499.98 805.048C496.668 805.048 494.652 808.024 494.652 811.264C494.652 814.792 496.932 817.288 500.388 817.288C502.02 817.288 503.412 816.304 503.964 815.464H504.012V817H507.324V798.856ZM504.012 811.168C504.012 812.92 502.932 814.12 501.132 814.12C499.332 814.12 498.252 812.92 498.252 811.168C498.252 809.416 499.332 808.216 501.132 808.216C502.932 808.216 504.012 809.416 504.012 811.168ZM512.673 814.936C512.673 816.16 513.657 817.144 514.881 817.144C516.105 817.144 517.089 816.16 517.089 814.936C517.089 813.712 516.105 812.728 514.881 812.728C513.657 812.728 512.673 813.712 512.673 814.936ZM535.324 817H538.54L542.284 805.24H542.332L546.076 817H549.412L554.38 800.008H550.588L547.732 811.192H547.684L544.156 800.008H540.676L537.124 810.904H537.076L534.364 800.008H530.284L535.324 817ZM558.004 798.856V817H561.604V811.192C561.604 809.68 561.892 808.216 563.764 808.216C565.612 808.216 565.636 809.944 565.636 811.288V817H569.236V810.568C569.236 807.448 568.564 805.048 564.916 805.048C563.164 805.048 561.988 806.008 561.652 806.92H561.604V798.856H558.004ZM586.185 805.336H582.489L579.921 813.04H579.873L576.873 805.336H572.985L578.097 817.096L577.833 817.768C577.329 819.04 577.065 819.736 575.433 819.736C574.833 819.736 574.305 819.616 573.753 819.376L573.273 822.328C574.137 822.616 575.049 822.76 575.961 822.76C579.393 822.76 579.945 821.368 580.905 818.896L586.185 805.336ZM608.231 806.584C607.151 805.432 605.447 805.048 603.911 805.048C601.463 805.048 599.015 806.248 599.015 808.984C599.015 813.424 605.087 811.84 605.087 813.712C605.087 814.336 604.271 814.552 603.455 814.552C602.375 814.552 601.583 814.096 600.911 813.28L598.727 815.704C599.879 816.88 601.679 817.288 603.311 817.288C605.807 817.288 608.687 816.424 608.687 813.448C608.687 809.008 602.615 810.472 602.615 808.744C602.615 808.048 603.335 807.784 603.935 807.784C604.799 807.784 605.495 808.12 606.023 808.768L608.231 806.584ZM612.932 798.856V817H616.532V811.192C616.532 809.68 616.82 808.216 618.692 808.216C620.54 808.216 620.564 809.944 620.564 811.288V817H624.164V810.568C624.164 807.448 623.492 805.048 619.844 805.048C618.092 805.048 616.916 806.008 616.58 806.92H616.532V798.856H612.932ZM628.681 811.168C628.681 814.888 631.561 817.288 635.161 817.288C638.761 817.288 641.641 814.888 641.641 811.168C641.641 807.448 638.761 805.048 635.161 805.048C631.561 805.048 628.681 807.448 628.681 811.168ZM632.281 811.168C632.281 809.416 633.361 808.216 635.161 808.216C636.961 808.216 638.041 809.416 638.041 811.168C638.041 812.92 636.961 814.12 635.161 814.12C633.361 814.12 632.281 812.92 632.281 811.168ZM657.394 805.336H653.794V811.144C653.794 812.656 653.506 814.12 651.634 814.12C649.786 814.12 649.762 812.392 649.762 811.048V805.336H646.162V811.768C646.162 814.888 646.834 817.288 650.482 817.288C652.234 817.288 653.41 816.328 653.89 815.416H653.938V817H657.394V805.336ZM662.391 817H665.991V798.856H662.391V817ZM683.217 798.856H679.617V806.584H679.569C678.753 805.456 677.361 805.048 675.873 805.048C672.561 805.048 670.545 808.024 670.545 811.264C670.545 814.792 672.825 817.288 676.281 817.288C677.913 817.288 679.305 816.304 679.857 815.464H679.905V817H683.217V798.856ZM679.905 811.168C679.905 812.92 678.825 814.12 677.025 814.12C675.225 814.12 674.145 812.92 674.145 811.168C674.145 809.416 675.225 808.216 677.025 808.216C678.825 808.216 679.905 809.416 679.905 811.168ZM698.404 817H702.148V800.008H698.404V817ZM725.519 813.136C724.919 813.952 724.127 814.552 722.951 814.552C721.559 814.552 720.527 813.664 720.239 812.296H728.591V811.168C728.591 807.448 726.479 805.048 723.119 805.048C719.519 805.048 716.639 807.448 716.639 811.168C716.639 814.888 719.519 817.288 723.119 817.288C724.991 817.288 726.887 816.448 728.039 814.984L725.519 813.136ZM720.239 809.848C720.335 808.72 721.199 807.64 722.783 807.64C724.079 807.64 725.015 808.648 724.991 809.848H720.239ZM736.781 817H740.597L745.205 805.336H741.581L738.845 813.256H738.797L735.845 805.336H731.957L736.781 817ZM757.437 813.136C756.837 813.952 756.045 814.552 754.869 814.552C753.477 814.552 752.445 813.664 752.157 812.296H760.509V811.168C760.509 807.448 758.397 805.048 755.037 805.048C751.437 805.048 748.557 807.448 748.557 811.168C748.557 814.888 751.437 817.288 755.037 817.288C756.909 817.288 758.805 816.448 759.957 814.984L757.437 813.136ZM752.157 809.848C752.253 808.72 753.117 807.64 754.701 807.64C755.997 807.64 756.933 808.648 756.909 809.848H752.157ZM765.098 817H768.698V811.192C768.698 809.68 768.986 808.216 770.858 808.216C772.706 808.216 772.73 809.944 772.73 811.288V817H776.33V810.568C776.33 807.448 775.658 805.048 772.01 805.048C770.258 805.048 769.082 806.008 768.602 806.92H768.554V805.336H765.098V817ZM798.725 805.336H795.557V801.88H791.957V805.336H789.653V808.216H791.957V813.76C791.957 816.304 793.805 817.288 796.205 817.288C797.045 817.288 797.933 817.216 798.725 816.928V813.928C798.413 814.216 797.645 814.264 797.261 814.264C795.701 814.264 795.557 813.352 795.557 812.104V808.216H798.725V805.336ZM802.954 817H806.554V812.128C806.554 809.8 806.89 808.216 809.626 808.216C810.154 808.216 810.658 808.312 811.162 808.456V805.168C810.826 805.072 810.37 805.048 809.962 805.048C808.378 805.048 807.37 805.792 806.602 807.208H806.554V805.336H802.954V817ZM827.127 805.336H823.431L820.863 813.04H820.815L817.815 805.336H813.927L819.039 817.096L818.775 817.768C818.271 819.04 818.007 819.736 816.375 819.736C815.775 819.736 815.247 819.616 814.695 819.376L814.215 822.328C815.079 822.616 815.991 822.76 816.903 822.76C820.335 822.76 820.887 821.368 821.847 818.896L827.127 805.336ZM455.892 845.336H452.292V851.144C452.292 852.656 452.004 854.12 450.132 854.12C448.284 854.12 448.26 852.392 448.26 851.048V845.336H444.66V851.768C444.66 854.888 445.332 857.288 448.98 857.288C450.732 857.288 451.908 856.328 452.388 855.416H452.436V857H455.892V845.336ZM469.65 846.584C468.57 845.432 466.866 845.048 465.33 845.048C462.882 845.048 460.434 846.248 460.434 848.984C460.434 853.424 466.506 851.84 466.506 853.712C466.506 854.336 465.69 854.552 464.874 854.552C463.794 854.552 463.002 854.096 462.33 853.28L460.146 855.704C461.298 856.88 463.098 857.288 464.73 857.288C467.226 857.288 470.106 856.424 470.106 853.448C470.106 849.008 464.034 850.472 464.034 848.744C464.034 848.048 464.754 847.784 465.354 847.784C466.218 847.784 466.914 848.12 467.442 848.768L469.65 846.584ZM474.399 857H477.999V845.336H474.399V857ZM474.111 841.664C474.111 842.816 475.047 843.752 476.199 843.752C477.351 843.752 478.287 842.816 478.287 841.664C478.287 840.512 477.351 839.576 476.199 839.576C475.047 839.576 474.111 840.512 474.111 841.664ZM482.985 857H486.585V851.192C486.585 849.68 486.873 848.216 488.745 848.216C490.593 848.216 490.617 849.944 490.617 851.288V857H494.217V850.568C494.217 847.448 493.545 845.048 489.897 845.048C488.145 845.048 486.969 846.008 486.489 846.92H486.441V845.336H482.985V857ZM511.407 845.336H508.095V846.872H508.047C507.495 846.032 506.103 845.048 504.063 845.048C500.751 845.048 498.735 848.024 498.735 851.12C498.735 854.648 501.015 857.144 504.471 857.144C505.551 857.144 506.943 856.736 507.759 855.608H507.807V856.736C507.807 858.392 506.775 859.592 504.591 859.592C503.127 859.592 501.903 859.016 500.799 858.08L498.807 861.056C500.487 862.4 502.599 862.76 504.663 862.76C509.175 862.76 511.407 860.408 511.407 856.016V845.336ZM502.335 851.096C502.335 849.584 503.583 848.216 505.215 848.216C506.847 848.216 508.095 849.584 508.095 851.096C508.095 852.608 506.847 853.976 505.215 853.976C503.583 853.976 502.335 852.608 502.335 851.096ZM534.129 845.336H530.961V841.88H527.361V845.336H525.057V848.216H527.361V853.76C527.361 856.304 529.209 857.288 531.609 857.288C532.449 857.288 533.337 857.216 534.129 856.928V853.928C533.817 854.216 533.049 854.264 532.665 854.264C531.105 854.264 530.961 853.352 530.961 852.104V848.216H534.129V845.336ZM538.359 838.856V857H541.959V851.192C541.959 849.68 542.247 848.216 544.119 848.216C545.967 848.216 545.991 849.944 545.991 851.288V857H549.591V850.568C549.591 847.448 548.919 845.048 545.271 845.048C543.519 845.048 542.343 846.008 542.007 846.92H541.959V838.856H538.359ZM563.06 853.136C562.46 853.952 561.668 854.552 560.492 854.552C559.1 854.552 558.068 853.664 557.78 852.296H566.132V851.168C566.132 847.448 564.02 845.048 560.66 845.048C557.06 845.048 554.18 847.448 554.18 851.168C554.18 854.888 557.06 857.288 560.66 857.288C562.532 857.288 564.428 856.448 565.58 854.984L563.06 853.136ZM557.78 849.848C557.876 848.72 558.74 847.64 560.324 847.64C561.62 847.64 562.556 848.648 562.532 849.848H557.78ZM587.543 857H590.855V851.072C590.855 847.184 589.727 845.048 585.527 845.048C583.631 845.048 581.711 845.672 580.391 846.92L582.311 848.888C583.079 848.024 584.063 847.496 585.239 847.496C586.487 847.496 587.543 848.312 587.543 849.584C584.543 849.584 579.647 849.656 579.647 853.688C579.647 856.04 581.615 857.288 583.799 857.288C585.263 857.288 586.703 856.784 587.495 855.536H587.543V857ZM587.543 851.888V852.656C587.543 854.096 586.223 854.84 584.807 854.84C584.015 854.84 583.103 854.432 583.103 853.568C583.103 851.984 585.551 851.888 586.655 851.888H587.543ZM595.849 862.472H599.449V855.752H599.497C600.313 856.88 601.705 857.288 603.193 857.288C606.505 857.288 608.521 854.312 608.521 851.072C608.521 847.544 606.241 845.048 602.785 845.048C601.153 845.048 599.761 846.032 599.209 846.872H599.161V845.336H595.849V862.472ZM599.161 851.168C599.161 849.416 600.241 848.216 602.041 848.216C603.841 848.216 604.921 849.416 604.921 851.168C604.921 852.92 603.841 854.12 602.041 854.12C600.241 854.12 599.161 852.92 599.161 851.168ZM613.367 862.472H616.967V855.752H617.015C617.831 856.88 619.223 857.288 620.711 857.288C624.023 857.288 626.039 854.312 626.039 851.072C626.039 847.544 623.759 845.048 620.303 845.048C618.671 845.048 617.279 846.032 616.727 846.872H616.679V845.336H613.367V862.472ZM616.679 851.168C616.679 849.416 617.759 848.216 619.559 848.216C621.359 848.216 622.439 849.416 622.439 851.168C622.439 852.92 621.359 854.12 619.559 854.12C617.759 854.12 616.679 852.92 616.679 851.168ZM634.46 851.384H638.06V850.688C638.06 850.16 638.252 849.608 638.996 849.032C641.276 847.232 641.972 846.128 641.972 844.304C641.972 841.208 639.5 839.576 636.572 839.576C633.236 839.576 630.908 841.4 630.572 844.784L634.268 845.024C634.364 843.848 635.156 842.888 636.644 842.888C637.628 842.888 638.372 843.512 638.372 844.568C638.372 845.672 637.076 846.464 635.3 848.168C634.7 848.744 634.46 849.368 634.46 850.328V851.384ZM634.052 854.936C634.052 856.16 635.036 857.144 636.26 857.144C637.484 857.144 638.468 856.16 638.468 854.936C638.468 853.712 637.484 852.728 636.26 852.728C635.036 852.728 634.052 853.712 634.052 854.936Z" fill="white"/>
<path d="M82.8788 45H86.6228V32.904H86.6708L94.0868 45H98.9828V28.008H95.2388V39.816H95.1908L87.9668 28.008H82.8788V45ZM112.913 41.136C112.313 41.952 111.521 42.552 110.345 42.552C108.953 42.552 107.921 41.664 107.633 40.296H115.985V39.168C115.985 35.448 113.873 33.048 110.513 33.048C106.913 33.048 104.033 35.448 104.033 39.168C104.033 42.888 106.913 45.288 110.513 45.288C112.385 45.288 114.281 44.448 115.433 42.984L112.913 41.136ZM107.633 37.848C107.729 36.72 108.593 35.64 110.177 35.64C111.473 35.64 112.409 36.648 112.385 37.848H107.633ZM123.454 45H127.078L129.238 37.248H129.286L131.71 45H135.262L139.414 33.336H135.766L133.582 40.656H133.534L131.374 33.336H127.438L125.446 40.656H125.398L123.022 33.336H119.182L123.454 45ZM167.252 28.008H163.508V38.304C163.508 40.392 162.068 41.976 160.1 41.976C158.108 41.976 156.668 40.392 156.668 38.304V28.008H152.924V38.448C152.924 42.456 155.372 45.432 160.1 45.432C164.804 45.432 167.252 42.456 167.252 38.448V28.008ZM181.465 34.584C180.385 33.432 178.681 33.048 177.145 33.048C174.697 33.048 172.249 34.248 172.249 36.984C172.249 41.424 178.321 39.84 178.321 41.712C178.321 42.336 177.505 42.552 176.689 42.552C175.609 42.552 174.817 42.096 174.145 41.28L171.961 43.704C173.113 44.88 174.913 45.288 176.545 45.288C179.041 45.288 181.921 44.424 181.921 41.448C181.921 37.008 175.849 38.472 175.849 36.744C175.849 36.048 176.569 35.784 177.169 35.784C178.033 35.784 178.729 36.12 179.257 36.768L181.465 34.584ZM194.687 41.136C194.087 41.952 193.295 42.552 192.119 42.552C190.727 42.552 189.695 41.664 189.407 40.296H197.759V39.168C197.759 35.448 195.647 33.048 192.287 33.048C188.687 33.048 185.807 35.448 185.807 39.168C185.807 42.888 188.687 45.288 192.287 45.288C194.159 45.288 196.055 44.448 197.207 42.984L194.687 41.136ZM189.407 37.848C189.503 36.72 190.367 35.64 191.951 35.64C193.247 35.64 194.183 36.648 194.159 37.848H189.407ZM202.348 45H205.948V40.128C205.948 37.8 206.284 36.216 209.02 36.216C209.548 36.216 210.052 36.312 210.556 36.456V33.168C210.22 33.072 209.764 33.048 209.356 33.048C207.772 33.048 206.764 33.792 205.996 35.208H205.948V33.336H202.348V45Z" fill="#595D71"/>
<path d="M732.167 117.912C738.307 121.801 754.535 127.561 765.929 117.688" stroke="#001454" stroke-width="8" stroke-linecap="round"/>
<path d="M728.621 88.113C732.738 85.4554 737.02 86.0335 739.873 89.2538" stroke="#001454" stroke-width="8" stroke-linecap="round"/>
<path d="M760.173 89.9309C764.29 87.2733 768.572 87.8513 771.425 91.0717" stroke="#001454" stroke-width="8" stroke-linecap="round"/>
<path d="M640 147.796C640 147.796 682.808 148.777 684.803 130.047C686.458 114.521 658.706 115.551 658.523 99.9379C658.286 79.7022 733.248 69.9867 701.743 71.413C670.238 72.8393 662.164 58.1015 667.864 49.7025C673.563 41.3035 681.321 35.2816 708.709 26.5657C736.098 17.8497 758.895 18.0306 777.418 20.3853C795.941 22.74 828.428 33.7034 817.472 49.7025C812.157 57.4642 802.445 53.6841 795.941 60.4785C776.617 80.6657 865.225 85.4822 849.136 108.337C839.314 122.289 812.033 105.037 807.498 121.49C802.743 138.748 840.587 153.184 840.587 153.184" stroke="#001454" stroke-width="8"/>
</svg>
