<svg width="1024" height="896" viewBox="0 0 1024 896" fill="none" xmlns="http://www.w3.org/2000/svg">
<rect width="1024" height="896" fill="white"/>
<rect x="110" y="303" width="800" height="120" rx="40" fill="#6689FF"/>
<rect x="110" y="531" width="800" height="120" rx="40" fill="#21CE99"/>
<rect x="110" y="756" width="800" height="120" rx="40" fill="#F45430"/>
<path d="M50.112 89H52.128V81.368H54.72L59.328 89H61.8L56.976 81.176C59.616 80.768 61.224 79.16 61.224 76.688C61.224 72.488 57.744 72.008 54.456 72.008H50.112V89ZM52.128 73.88H54.96C56.928 73.88 59.064 74.24 59.064 76.688C59.064 79.496 56.16 79.496 53.928 79.496H52.128V73.88ZM67.8799 80.432C68.7679 79.616 70.0159 79.208 71.2159 79.208C72.9679 79.208 73.9999 80.048 73.9999 81.68V82.016H73.2799C70.5199 82.016 66.1999 82.232 66.1999 85.952C66.1999 88.136 68.0959 89.288 70.3759 89.288C72.0799 89.288 73.3279 88.472 74.0719 87.32H74.1199C74.1199 87.8 74.1199 88.496 74.2399 89H76.0399C75.9439 88.424 75.8719 87.704 75.8719 87.056V82.232C75.8719 79.064 74.4799 77.48 71.1679 77.48C69.5359 77.48 67.8559 78.032 66.7039 79.208L67.8799 80.432ZM73.9999 83.6V84.32C73.9519 86.144 72.8479 87.704 70.6879 87.704C69.2719 87.704 68.2159 87.176 68.2159 85.76C68.2159 84.248 69.7519 83.6 72.1279 83.6H73.9999ZM81.6932 89H83.5652V83.528C83.5652 80.96 84.6212 79.208 87.0452 79.208C88.7972 79.208 89.6132 80.384 89.6132 82.256V89H91.4852V82.064C91.4852 79.352 90.1652 77.48 87.2132 77.48C85.3652 77.48 83.9732 78.512 83.4692 79.616H83.4212C83.4212 78.992 83.3732 78.368 83.3732 77.768H81.5972C81.5972 78.512 81.6932 79.4 81.6932 80.432V89ZM106.981 77.768H104.965L101.629 86.576H101.581L98.0771 77.768H95.8931L100.477 89H102.541L106.981 77.768ZM120.023 85.856C119.135 86.984 118.055 87.56 116.447 87.56C114.407 87.56 112.919 85.904 112.775 83.96H121.847V83.36C121.847 79.64 119.687 77.48 116.519 77.48C113.207 77.48 110.759 79.904 110.759 83.384C110.759 86.648 112.919 89.288 116.447 89.288C118.535 89.288 120.119 88.664 121.439 86.96L120.023 85.856ZM112.775 82.376C113.015 80.48 114.383 79.208 116.447 79.208C118.511 79.208 119.759 80.48 119.831 82.376H112.775ZM135.759 85.856C134.871 86.984 133.791 87.56 132.183 87.56C130.143 87.56 128.655 85.904 128.511 83.96H137.583V83.36C137.583 79.64 135.423 77.48 132.255 77.48C128.943 77.48 126.495 79.904 126.495 83.384C126.495 86.648 128.655 89.288 132.183 89.288C134.271 89.288 135.855 88.664 137.175 86.96L135.759 85.856ZM128.511 82.376C128.751 80.48 130.119 79.208 132.183 79.208C134.247 79.208 135.495 80.48 135.567 82.376H128.511ZM142.879 89H144.751V83.528C144.751 80.96 145.759 79.352 148.039 79.352C148.375 79.352 148.735 79.4 149.047 79.496L149.167 77.6C148.903 77.504 148.639 77.48 148.399 77.48C146.551 77.48 145.159 78.512 144.655 79.616H144.607C144.607 78.992 144.559 78.368 144.559 77.768H142.783C142.783 78.512 142.879 79.4 142.879 80.432V89ZM154.802 86.552H152.618L150.986 92.312H152.834L154.802 86.552ZM169.097 89H180.041V87.128H171.377V87.08L176.609 82.16C178.313 80.552 179.921 79.04 179.921 76.328C179.921 73.304 177.545 71.72 174.737 71.72C172.001 71.72 169.865 73.184 169.409 75.968L171.593 76.16C171.905 74.528 173.105 73.448 174.809 73.448C176.513 73.448 177.905 74.552 177.905 76.328C177.905 77.984 177.113 78.896 175.505 80.456L169.097 86.696V89ZM185.457 76.16C185.457 77.768 186.513 79.448 188.241 79.904V79.952C186.201 80.384 184.881 82.184 184.881 84.32C184.881 87.416 187.281 89.288 190.305 89.288C193.329 89.288 195.729 87.416 195.729 84.32C195.729 82.184 194.409 80.384 192.369 79.952V79.904C194.097 79.448 195.153 77.768 195.153 76.16C195.153 73.496 193.041 71.72 190.305 71.72C187.569 71.72 185.457 73.496 185.457 76.16ZM187.473 76.256C187.473 74.648 188.625 73.448 190.305 73.448C191.985 73.448 193.137 74.648 193.137 76.256C193.137 77.864 191.985 79.064 190.305 79.064C188.625 79.064 187.473 77.864 187.473 76.256ZM186.897 84.176C186.897 82.184 188.409 80.792 190.305 80.792C192.201 80.792 193.713 82.184 193.713 84.176C193.713 86.168 192.201 87.56 190.305 87.56C188.409 87.56 186.897 86.168 186.897 84.176ZM204.433 86.552H202.249L200.617 92.312H202.465L204.433 86.552ZM219.64 89H221.656V81.368H229.576V79.496H221.656V73.88H230.176V72.008H219.64V89ZM244.832 77.768H242.96V83.24C242.96 85.808 241.904 87.56 239.48 87.56C237.728 87.56 236.912 86.384 236.912 84.512V77.768H235.04V84.704C235.04 87.416 236.36 89.288 239.312 89.288C241.16 89.288 242.552 88.256 243.056 87.152H243.104C243.104 87.776 243.152 88.4 243.152 89H244.928C244.928 88.256 244.832 87.368 244.832 86.336V77.768ZM250.944 89H252.816V70.856H250.944V89ZM259.11 89H260.982V70.856H259.11V89ZM266.387 84.104H272.267V82.376H266.387V84.104ZM283.643 77.768H280.331V74.576H278.459V77.768H276.011V79.352H278.459V85.52C278.459 87.848 278.891 89.288 281.555 89.288C282.251 89.288 283.091 89.168 283.739 88.88L283.667 87.176C283.163 87.44 282.563 87.56 282.011 87.56C280.355 87.56 280.331 86.408 280.331 84.968V79.352H283.643V77.768ZM288.505 89H290.377V77.768H288.505V89ZM288.073 73.376C288.073 74.168 288.649 74.744 289.441 74.744C290.233 74.744 290.809 74.168 290.809 73.376C290.809 72.632 290.209 72.008 289.441 72.008C288.673 72.008 288.073 72.632 288.073 73.376ZM296.503 89H298.375V83.528C298.375 80.96 299.431 79.208 301.855 79.208C303.391 79.208 304.015 80.168 304.015 82.64V89H305.887V82.52C305.887 80.504 307.207 79.208 308.791 79.208C310.975 79.208 311.527 80.72 311.527 82.28V89H313.399V82.184C313.399 79.28 312.343 77.48 309.127 77.48C307.423 77.48 306.391 78.296 305.575 79.616C305.215 78.848 304.447 77.48 302.023 77.48C300.175 77.48 298.783 78.512 298.279 79.616H298.231C298.231 78.992 298.183 78.368 298.183 77.768H296.407C296.407 78.512 296.503 79.4 296.503 80.432V89ZM327.956 85.856C327.068 86.984 325.988 87.56 324.38 87.56C322.34 87.56 320.852 85.904 320.708 83.96H329.78V83.36C329.78 79.64 327.62 77.48 324.452 77.48C321.14 77.48 318.692 79.904 318.692 83.384C318.692 86.648 320.852 89.288 324.38 89.288C326.468 89.288 328.052 88.664 329.372 86.96L327.956 85.856ZM320.708 82.376C320.948 80.48 322.316 79.208 324.38 79.208C326.444 79.208 327.692 80.48 327.764 82.376H320.708ZM355.892 72.008H342.644V73.88H348.26V89H350.276V73.88H355.892V72.008ZM358.134 89H360.006V83.528C360.006 80.96 361.014 79.352 363.294 79.352C363.63 79.352 363.99 79.4 364.302 79.496L364.422 77.6C364.158 77.504 363.894 77.48 363.654 77.48C361.806 77.48 360.414 78.512 359.91 79.616H359.862C359.862 78.992 359.814 78.368 359.814 77.768H358.038C358.038 78.512 358.134 79.4 358.134 80.432V89ZM370.003 80.432C370.891 79.616 372.139 79.208 373.339 79.208C375.091 79.208 376.123 80.048 376.123 81.68V82.016H375.403C372.643 82.016 368.323 82.232 368.323 85.952C368.323 88.136 370.219 89.288 372.499 89.288C374.203 89.288 375.451 88.472 376.195 87.32H376.243C376.243 87.8 376.243 88.496 376.363 89H378.163C378.067 88.424 377.995 87.704 377.995 87.056V82.232C377.995 79.064 376.603 77.48 373.291 77.48C371.659 77.48 369.979 78.032 368.827 79.208L370.003 80.432ZM376.123 83.6V84.32C376.075 86.144 374.971 87.704 372.811 87.704C371.395 87.704 370.339 87.176 370.339 85.76C370.339 84.248 371.875 83.6 374.251 83.6H376.123ZM393.153 89H395.025V70.856H393.153V79.4H393.105C392.073 78.2 390.705 77.48 389.073 77.48C385.545 77.48 383.169 79.976 383.169 83.384C383.169 86.744 385.641 89.288 388.785 89.288C390.801 89.288 392.409 88.28 393.105 87.008H393.153V89ZM393.153 83.384C393.153 85.736 391.593 87.56 389.169 87.56C386.745 87.56 385.185 85.736 385.185 83.384C385.185 81.032 386.745 79.208 389.169 79.208C391.593 79.208 393.153 81.032 393.153 83.384ZM409.504 85.856C408.616 86.984 407.536 87.56 405.928 87.56C403.888 87.56 402.4 85.904 402.256 83.96H411.328V83.36C411.328 79.64 409.168 77.48 406 77.48C402.688 77.48 400.24 79.904 400.24 83.384C400.24 86.648 402.4 89.288 405.928 89.288C408.016 89.288 409.6 88.664 410.92 86.96L409.504 85.856ZM402.256 82.376C402.496 80.48 403.864 79.208 405.928 79.208C407.992 79.208 409.24 80.48 409.312 82.376H402.256ZM416.624 89H418.496V83.528C418.496 80.96 419.504 79.352 421.784 79.352C422.12 79.352 422.48 79.4 422.792 79.496L422.912 77.6C422.648 77.504 422.384 77.48 422.144 77.48C420.296 77.48 418.904 78.512 418.4 79.616H418.352C418.352 78.992 418.304 78.368 418.304 77.768H416.528C416.528 78.512 416.624 79.4 416.624 80.432V89ZM49.8 129H56.328C59.664 129 64.656 126.768 64.656 120.504C64.656 114.24 59.664 112.008 56.328 112.008H49.8V129ZM51.816 113.88H55.656C59.544 113.88 62.496 115.848 62.496 120.504C62.496 125.16 59.544 127.128 55.656 127.128H51.816V113.88ZM70.9971 120.432C71.8851 119.616 73.1331 119.208 74.3331 119.208C76.0851 119.208 77.1171 120.048 77.1171 121.68V122.016H76.3971C73.6371 122.016 69.3171 122.232 69.3171 125.952C69.3171 128.136 71.2131 129.288 73.4931 129.288C75.1971 129.288 76.4451 128.472 77.1891 127.32H77.2371C77.2371 127.8 77.2371 128.496 77.3571 129H79.1571C79.0611 128.424 78.9891 127.704 78.9891 127.056V122.232C78.9891 119.064 77.5971 117.48 74.2851 117.48C72.6531 117.48 70.9731 118.032 69.8211 119.208L70.9971 120.432ZM77.1171 123.6V124.32C77.0691 126.144 75.9651 127.704 73.8051 127.704C72.3891 127.704 71.3331 127.176 71.3331 125.76C71.3331 124.248 72.8691 123.6 75.2451 123.6H77.1171ZM94.3624 117.768H92.3224L88.9864 126.576H88.9384L85.4584 117.768H83.2744L87.9304 129.072L87.1624 131.184C86.7544 132.288 86.2984 133.032 85.0744 133.032C84.5464 133.032 84.1384 132.984 83.7544 132.84L83.5144 134.472C84.0184 134.712 84.6664 134.76 85.1944 134.76C87.4504 134.76 88.1944 133.464 88.9384 131.568L94.3624 117.768ZM119.604 112.008H106.356V113.88H111.972V129H113.988V113.88H119.604V112.008ZM121.846 129H123.718V123.528C123.718 120.96 124.726 119.352 127.006 119.352C127.342 119.352 127.702 119.4 128.014 119.496L128.134 117.6C127.87 117.504 127.606 117.48 127.366 117.48C125.518 117.48 124.126 118.512 123.622 119.616H123.574C123.574 118.992 123.526 118.368 123.526 117.768H121.75C121.75 118.512 121.846 119.4 121.846 120.432V129ZM133.716 120.432C134.604 119.616 135.852 119.208 137.052 119.208C138.804 119.208 139.836 120.048 139.836 121.68V122.016H139.116C136.356 122.016 132.036 122.232 132.036 125.952C132.036 128.136 133.932 129.288 136.212 129.288C137.916 129.288 139.164 128.472 139.908 127.32H139.956C139.956 127.8 139.956 128.496 140.076 129H141.876C141.78 128.424 141.708 127.704 141.708 127.056V122.232C141.708 119.064 140.316 117.48 137.004 117.48C135.372 117.48 133.692 118.032 132.54 119.208L133.716 120.432ZM139.836 123.6V124.32C139.788 126.144 138.684 127.704 136.524 127.704C135.108 127.704 134.052 127.176 134.052 125.76C134.052 124.248 135.588 123.6 137.964 123.6H139.836ZM156.865 129H158.737V110.856H156.865V119.4H156.817C155.785 118.2 154.417 117.48 152.785 117.48C149.257 117.48 146.881 119.976 146.881 123.384C146.881 126.744 149.353 129.288 152.497 129.288C154.513 129.288 156.121 128.28 156.817 127.008H156.865V129ZM156.865 123.384C156.865 125.736 155.305 127.56 152.881 127.56C150.457 127.56 148.897 125.736 148.897 123.384C148.897 121.032 150.457 119.208 152.881 119.208C155.305 119.208 156.865 121.032 156.865 123.384ZM164.769 129H166.641V117.768H164.769V129ZM164.337 113.376C164.337 114.168 164.913 114.744 165.705 114.744C166.497 114.744 167.073 114.168 167.073 113.376C167.073 112.632 166.473 112.008 165.705 112.008C164.937 112.008 164.337 112.632 164.337 113.376ZM172.767 129H174.639V123.528C174.639 120.96 175.695 119.208 178.119 119.208C179.871 119.208 180.687 120.384 180.687 122.256V129H182.559V122.064C182.559 119.352 181.239 117.48 178.287 117.48C176.439 117.48 175.047 118.512 174.543 119.616H174.495C174.495 118.992 174.447 118.368 174.447 117.768H172.671C172.671 118.512 172.767 119.4 172.767 120.432V129ZM199.711 117.768H197.839V119.688H197.791C197.047 118.2 195.343 117.48 193.831 117.48C190.255 117.48 187.855 119.712 187.855 123.384C187.855 126.696 190.303 129.144 193.831 129.144C195.319 129.144 196.903 128.496 197.791 127.056H197.839V128.496C197.839 130.872 196.951 133.032 193.591 133.032C191.863 133.032 190.591 132.36 189.415 131.088L188.071 132.624C189.655 134.184 191.407 134.76 193.591 134.76C197.527 134.76 199.711 132.552 199.711 128.496V117.768ZM189.871 123.384C189.871 121.032 191.479 119.208 193.831 119.208C196.207 119.208 197.839 120.912 197.839 123.336C197.839 125.496 196.399 127.416 193.831 127.416C191.647 127.416 189.871 125.664 189.871 123.384ZM59.376 152.008H50.472L50.304 160.84C51.312 160.24 52.608 159.784 53.76 159.784C56.136 159.784 57.96 161.152 57.96 163.648C57.96 166 56.352 167.56 54.312 167.56C52.872 167.56 51.72 166.696 51.144 165.424L49.128 166.192C50.04 168.064 51.576 169.288 54.144 169.288C57.456 169.288 59.976 167.032 59.976 163.648C59.976 160.456 57.816 158.056 54.552 158.056C53.856 158.056 53.016 158.152 52.368 158.464L52.44 153.88H59.376V152.008ZM78.9356 169H80.9516V161.68L87.2876 152.008H84.8636L79.9436 159.688L75.1676 152.008H72.5996L78.9356 161.68V169ZM97.1858 165.856C96.2978 166.984 95.2178 167.56 93.6098 167.56C91.5698 167.56 90.0818 165.904 89.9378 163.96H99.0098V163.36C99.0098 159.64 96.8498 157.48 93.6818 157.48C90.3698 157.48 87.9218 159.904 87.9218 163.384C87.9218 166.648 90.0818 169.288 93.6098 169.288C95.6978 169.288 97.2818 168.664 98.6018 166.96L97.1858 165.856ZM89.9378 162.376C90.1778 160.48 91.5458 159.208 93.6098 159.208C95.6738 159.208 96.9218 160.48 96.9938 162.376H89.9378ZM105.338 160.432C106.226 159.616 107.474 159.208 108.674 159.208C110.426 159.208 111.458 160.048 111.458 161.68V162.016H110.738C107.978 162.016 103.658 162.232 103.658 165.952C103.658 168.136 105.554 169.288 107.834 169.288C109.538 169.288 110.786 168.472 111.53 167.32H111.578C111.578 167.8 111.578 168.496 111.698 169H113.498C113.402 168.424 113.33 167.704 113.33 167.056V162.232C113.33 159.064 111.938 157.48 108.626 157.48C106.994 157.48 105.314 158.032 104.162 159.208L105.338 160.432ZM111.458 163.6V164.32C111.41 166.144 110.306 167.704 108.146 167.704C106.73 167.704 105.674 167.176 105.674 165.76C105.674 164.248 107.21 163.6 109.586 163.6H111.458ZM119.151 169H121.023V163.528C121.023 160.96 122.031 159.352 124.311 159.352C124.647 159.352 125.007 159.4 125.319 159.496L125.439 157.6C125.175 157.504 124.911 157.48 124.671 157.48C122.823 157.48 121.431 158.512 120.927 159.616H120.879C120.879 158.992 120.831 158.368 120.831 157.768H119.055C119.055 158.512 119.151 159.4 119.151 160.432V169ZM128.741 167.2C129.845 168.784 131.213 169.288 133.109 169.288C135.341 169.288 137.597 168.304 137.597 165.76C137.597 163.504 135.917 162.784 133.925 162.4C132.437 162.112 131.093 161.704 131.093 160.768C131.093 159.712 132.269 159.208 133.301 159.208C134.405 159.208 135.197 159.76 135.677 160.552L137.237 159.52C136.469 158.08 135.005 157.48 133.421 157.48C131.333 157.48 129.221 158.608 129.221 160.792C129.221 163.12 131.045 163.576 133.181 164.056C134.381 164.32 135.581 164.632 135.581 165.832C135.581 167.056 134.285 167.56 133.109 167.56C131.789 167.56 130.973 166.96 130.229 166.048L128.741 167.2ZM152.023 169H163.135V167.128H154.039V161.08H162.127V159.208H154.039V153.88H162.703V152.008H152.023V169ZM166.609 169H168.937L172.441 164.152L175.993 169H178.465L173.833 162.952L177.697 157.768H175.417L172.609 161.8L169.633 157.768H167.185L171.217 162.952L166.609 169ZM182.618 174.472H184.49V167.008H184.538C185.234 168.28 186.842 169.288 188.858 169.288C192.002 169.288 194.474 166.744 194.474 163.384C194.474 159.976 192.098 157.48 188.57 157.48C186.938 157.48 185.57 158.2 184.538 159.4H184.49V157.768H182.618V174.472ZM184.49 163.384C184.49 161.032 186.05 159.208 188.474 159.208C190.898 159.208 192.458 161.032 192.458 163.384C192.458 165.736 190.898 167.56 188.474 167.56C186.05 167.56 184.49 165.736 184.49 163.384ZM208.401 165.856C207.513 166.984 206.433 167.56 204.825 167.56C202.785 167.56 201.297 165.904 201.153 163.96H210.225V163.36C210.225 159.64 208.065 157.48 204.897 157.48C201.585 157.48 199.137 159.904 199.137 163.384C199.137 166.648 201.297 169.288 204.825 169.288C206.913 169.288 208.497 168.664 209.817 166.96L208.401 165.856ZM201.153 162.376C201.393 160.48 202.761 159.208 204.825 159.208C206.889 159.208 208.137 160.48 208.209 162.376H201.153ZM215.521 169H217.393V163.528C217.393 160.96 218.401 159.352 220.681 159.352C221.017 159.352 221.377 159.4 221.689 159.496L221.809 157.6C221.545 157.504 221.281 157.48 221.041 157.48C219.193 157.48 217.801 158.512 217.297 159.616H217.249C217.249 158.992 217.201 158.368 217.201 157.768H215.425C215.425 158.512 215.521 159.4 215.521 160.432V169ZM226.527 169H228.399V157.768H226.527V169ZM226.095 153.376C226.095 154.168 226.671 154.744 227.463 154.744C228.255 154.744 228.831 154.168 228.831 153.376C228.831 152.632 228.231 152.008 227.463 152.008C226.695 152.008 226.095 152.632 226.095 153.376ZM243.14 165.856C242.252 166.984 241.172 167.56 239.564 167.56C237.524 167.56 236.036 165.904 235.892 163.96H244.964V163.36C244.964 159.64 242.804 157.48 239.636 157.48C236.324 157.48 233.876 159.904 233.876 163.384C233.876 166.648 236.036 169.288 239.564 169.288C241.652 169.288 243.236 168.664 244.556 166.96L243.14 165.856ZM235.892 162.376C236.132 160.48 237.5 159.208 239.564 159.208C241.628 159.208 242.876 160.48 242.948 162.376H235.892ZM250.26 169H252.132V163.528C252.132 160.96 253.188 159.208 255.612 159.208C257.364 159.208 258.18 160.384 258.18 162.256V169H260.052V162.064C260.052 159.352 258.732 157.48 255.78 157.48C253.932 157.48 252.54 158.512 252.036 159.616H251.988C251.988 158.992 251.94 158.368 251.94 157.768H250.164C250.164 158.512 250.26 159.4 250.26 160.432V169ZM275.476 159.256C274.348 158.032 272.812 157.48 271.156 157.48C267.7 157.48 265.348 159.976 265.348 163.384C265.348 166.84 267.676 169.288 271.156 169.288C272.788 169.288 274.324 168.736 275.404 167.488L274.012 166.168C273.316 167.128 272.38 167.56 271.156 167.56C268.876 167.56 267.364 165.688 267.364 163.384C267.364 161.08 268.636 159.208 271.156 159.208C272.284 159.208 273.196 159.616 273.988 160.576L275.476 159.256ZM288.59 165.856C287.702 166.984 286.622 167.56 285.014 167.56C282.974 167.56 281.486 165.904 281.342 163.96H290.414V163.36C290.414 159.64 288.254 157.48 285.086 157.48C281.774 157.48 279.326 159.904 279.326 163.384C279.326 166.648 281.486 169.288 285.014 169.288C287.102 169.288 288.686 168.664 290.006 166.96L288.59 165.856ZM281.342 162.376C281.582 160.48 282.95 159.208 285.014 159.208C287.078 159.208 288.326 160.48 288.398 162.376H281.342Z" fill="#595D71"/>
<path d="M472.932 287H479.052C484.116 287 488.604 284.048 488.604 278.552C488.604 272.336 484.02 270.008 478.548 270.008H472.932V287ZM476.676 273.464H478.884C482.052 273.464 484.716 275.024 484.716 278.36C484.716 282.224 482.1 283.544 478.62 283.544H476.676V273.464ZM492.655 281.168C492.655 284.888 495.535 287.288 499.135 287.288C502.735 287.288 505.615 284.888 505.615 281.168C505.615 277.448 502.735 275.048 499.135 275.048C495.535 275.048 492.655 277.448 492.655 281.168ZM496.255 281.168C496.255 279.416 497.335 278.216 499.135 278.216C500.935 278.216 502.015 279.416 502.015 281.168C502.015 282.92 500.935 284.12 499.135 284.12C497.335 284.12 496.255 282.92 496.255 281.168ZM510.183 287H513.783V275.336H510.183V287ZM509.895 271.664C509.895 272.816 510.831 273.752 511.983 273.752C513.135 273.752 514.071 272.816 514.071 271.664C514.071 270.512 513.135 269.576 511.983 269.576C510.831 269.576 509.895 270.512 509.895 271.664ZM518.77 287H522.37V281.192C522.37 279.68 522.658 278.216 524.53 278.216C526.378 278.216 526.402 279.944 526.402 281.288V287H530.002V280.568C530.002 277.448 529.33 275.048 525.682 275.048C523.93 275.048 522.754 276.008 522.274 276.92H522.226V275.336H518.77V287ZM547.191 275.336H543.879V276.872H543.831C543.279 276.032 541.887 275.048 539.847 275.048C536.535 275.048 534.519 278.024 534.519 281.12C534.519 284.648 536.799 287.144 540.255 287.144C541.335 287.144 542.727 286.736 543.543 285.608H543.591V286.736C543.591 288.392 542.559 289.592 540.375 289.592C538.911 289.592 537.687 289.016 536.583 288.08L534.591 291.056C536.271 292.4 538.383 292.76 540.447 292.76C544.959 292.76 547.191 290.408 547.191 286.016V275.336ZM538.119 281.096C538.119 279.584 539.367 278.216 540.999 278.216C542.631 278.216 543.879 279.584 543.879 281.096C543.879 282.608 542.631 283.976 540.999 283.976C539.367 283.976 538.119 282.608 538.119 281.096Z" fill="#004DEC"/>
<path d="M460.093 515H463.837V501.32H468.685V498.008H455.245V501.32H460.093V515ZM472.53 496.856V515H476.13V509.192C476.13 507.68 476.418 506.216 478.29 506.216C480.138 506.216 480.162 507.944 480.162 509.288V515H483.762V508.568C483.762 505.448 483.09 503.048 479.442 503.048C477.69 503.048 476.514 504.008 476.178 504.92H476.13V496.856H472.53ZM488.759 515H492.359V503.336H488.759V515ZM488.471 499.664C488.471 500.816 489.407 501.752 490.559 501.752C491.711 501.752 492.647 500.816 492.647 499.664C492.647 498.512 491.711 497.576 490.559 497.576C489.407 497.576 488.471 498.512 488.471 499.664ZM497.345 515H500.945V509.192C500.945 507.68 501.233 506.216 503.105 506.216C504.953 506.216 504.977 507.944 504.977 509.288V515H508.577V508.568C508.577 505.448 507.905 503.048 504.257 503.048C502.505 503.048 501.329 504.008 500.849 504.92H500.801V503.336H497.345V515ZM513.527 515H517.127V509.096H517.175L521.111 515H525.647L520.895 508.592L525.527 503.336H521.111L517.127 507.944V496.856H513.527V515ZM529.311 515H532.911V503.336H529.311V515ZM529.023 499.664C529.023 500.816 529.959 501.752 531.111 501.752C532.263 501.752 533.199 500.816 533.199 499.664C533.199 498.512 532.263 497.576 531.111 497.576C529.959 497.576 529.023 498.512 529.023 499.664ZM537.897 515H541.497V509.192C541.497 507.68 541.785 506.216 543.657 506.216C545.505 506.216 545.529 507.944 545.529 509.288V515H549.129V508.568C549.129 505.448 548.457 503.048 544.809 503.048C543.057 503.048 541.881 504.008 541.401 504.92H541.353V503.336H537.897V515ZM566.318 503.336H563.006V504.872H562.958C562.406 504.032 561.014 503.048 558.974 503.048C555.662 503.048 553.646 506.024 553.646 509.12C553.646 512.648 555.926 515.144 559.382 515.144C560.462 515.144 561.854 514.736 562.67 513.608H562.718V514.736C562.718 516.392 561.686 517.592 559.502 517.592C558.038 517.592 556.814 517.016 555.71 516.08L553.718 519.056C555.398 520.4 557.51 520.76 559.574 520.76C564.086 520.76 566.318 518.408 566.318 514.016V503.336ZM557.246 509.096C557.246 507.584 558.494 506.216 560.126 506.216C561.758 506.216 563.006 507.584 563.006 509.096C563.006 510.608 561.758 511.976 560.126 511.976C558.494 511.976 557.246 510.608 557.246 509.096Z" fill="#21CE99"/>
<path d="M466.094 741H469.838V734.376H476.918V730.92H469.838V727.464H477.494V724.008H466.094V741ZM490.64 737.136C490.04 737.952 489.248 738.552 488.072 738.552C486.68 738.552 485.648 737.664 485.36 736.296H493.712V735.168C493.712 731.448 491.6 729.048 488.24 729.048C484.64 729.048 481.76 731.448 481.76 735.168C481.76 738.888 484.64 741.288 488.24 741.288C490.112 741.288 492.008 740.448 493.16 738.984L490.64 737.136ZM485.36 733.848C485.456 732.72 486.32 731.64 487.904 731.64C489.2 731.64 490.136 732.648 490.112 733.848H485.36ZM506.822 737.136C506.222 737.952 505.43 738.552 504.254 738.552C502.862 738.552 501.83 737.664 501.542 736.296H509.894V735.168C509.894 731.448 507.782 729.048 504.422 729.048C500.822 729.048 497.942 731.448 497.942 735.168C497.942 738.888 500.822 741.288 504.422 741.288C506.294 741.288 508.19 740.448 509.342 738.984L506.822 737.136ZM501.542 733.848C501.638 732.72 502.502 731.64 504.086 731.64C505.382 731.64 506.318 732.648 506.294 733.848H501.542ZM514.531 741H518.131V722.856H514.531V741ZM523.165 741H526.765V729.336H523.165V741ZM522.877 725.664C522.877 726.816 523.813 727.752 524.965 727.752C526.117 727.752 527.053 726.816 527.053 725.664C527.053 724.512 526.117 723.576 524.965 723.576C523.813 723.576 522.877 724.512 522.877 725.664ZM531.752 741H535.352V735.192C535.352 733.68 535.64 732.216 537.512 732.216C539.36 732.216 539.384 733.944 539.384 735.288V741H542.984V734.568C542.984 731.448 542.312 729.048 538.664 729.048C536.912 729.048 535.736 730.008 535.256 730.92H535.208V729.336H531.752V741ZM560.173 729.336H556.861V730.872H556.813C556.261 730.032 554.869 729.048 552.829 729.048C549.517 729.048 547.501 732.024 547.501 735.12C547.501 738.648 549.781 741.144 553.237 741.144C554.317 741.144 555.709 740.736 556.525 739.608H556.573V740.736C556.573 742.392 555.541 743.592 553.357 743.592C551.893 743.592 550.669 743.016 549.565 742.08L547.573 745.056C549.253 746.4 551.365 746.76 553.429 746.76C557.941 746.76 560.173 744.408 560.173 740.016V729.336ZM551.101 735.096C551.101 733.584 552.349 732.216 553.981 732.216C555.613 732.216 556.861 733.584 556.861 735.096C556.861 736.608 555.613 737.976 553.981 737.976C552.349 737.976 551.101 736.608 551.101 735.096Z" fill="#F45430"/>
<path d="M253.085 349H256.829V332.008H253.085V349ZM271.68 330.856V349H275.28V343.192C275.28 341.68 275.568 340.216 277.44 340.216C279.288 340.216 279.312 341.944 279.312 343.288V349H282.912V342.568C282.912 339.448 282.24 337.048 278.592 337.048C276.84 337.048 275.664 338.008 275.328 338.92H275.28V330.856H271.68ZM295.181 349H298.493V343.072C298.493 339.184 297.365 337.048 293.165 337.048C291.269 337.048 289.349 337.672 288.029 338.92L289.949 340.888C290.717 340.024 291.701 339.496 292.877 339.496C294.125 339.496 295.181 340.312 295.181 341.584C292.181 341.584 287.285 341.656 287.285 345.688C287.285 348.04 289.253 349.288 291.437 349.288C292.901 349.288 294.341 348.784 295.133 347.536H295.181V349ZM295.181 343.888V344.656C295.181 346.096 293.861 346.84 292.445 346.84C291.653 346.84 290.741 346.432 290.741 345.568C290.741 343.984 293.189 343.888 294.293 343.888H295.181ZM306.752 349H310.568L315.176 337.336H311.552L308.816 345.256H308.768L305.816 337.336H301.928L306.752 349ZM327.408 345.136C326.808 345.952 326.016 346.552 324.84 346.552C323.448 346.552 322.416 345.664 322.128 344.296H330.48V343.168C330.48 339.448 328.368 337.048 325.008 337.048C321.408 337.048 318.528 339.448 318.528 343.168C318.528 346.888 321.408 349.288 325.008 349.288C326.88 349.288 328.776 348.448 329.928 346.984L327.408 345.136ZM322.128 341.848C322.224 340.72 323.088 339.64 324.672 339.64C325.968 339.64 326.904 340.648 326.88 341.848H322.128ZM344.57 349H348.17V344.128C348.17 341.8 348.506 340.216 351.242 340.216C351.77 340.216 352.274 340.312 352.778 340.456V337.168C352.442 337.072 351.986 337.048 351.578 337.048C349.994 337.048 348.986 337.792 348.218 339.208H348.17V337.336H344.57V349ZM364.842 345.136C364.242 345.952 363.45 346.552 362.274 346.552C360.882 346.552 359.85 345.664 359.562 344.296H367.914V343.168C367.914 339.448 365.802 337.048 362.442 337.048C358.842 337.048 355.962 339.448 355.962 343.168C355.962 346.888 358.842 349.288 362.442 349.288C364.314 349.288 366.21 348.448 367.362 346.984L364.842 345.136ZM359.562 341.848C359.658 340.72 360.522 339.64 362.106 339.64C363.402 339.64 364.338 340.648 364.314 341.848H359.562ZM379.823 349H383.135V343.072C383.135 339.184 382.007 337.048 377.807 337.048C375.911 337.048 373.991 337.672 372.671 338.92L374.591 340.888C375.359 340.024 376.343 339.496 377.519 339.496C378.767 339.496 379.823 340.312 379.823 341.584C376.823 341.584 371.927 341.656 371.927 345.688C371.927 348.04 373.895 349.288 376.079 349.288C377.543 349.288 378.983 348.784 379.775 347.536H379.823V349ZM379.823 343.888V344.656C379.823 346.096 378.503 346.84 377.087 346.84C376.295 346.84 375.383 346.432 375.383 345.568C375.383 343.984 377.831 343.888 378.935 343.888H379.823ZM400.034 330.856H396.434V338.584H396.386C395.57 337.456 394.178 337.048 392.69 337.048C389.378 337.048 387.362 340.024 387.362 343.264C387.362 346.792 389.642 349.288 393.098 349.288C394.73 349.288 396.122 348.304 396.674 347.464H396.722V349H400.034V330.856ZM396.722 343.168C396.722 344.92 395.642 346.12 393.842 346.12C392.042 346.12 390.962 344.92 390.962 343.168C390.962 341.416 392.042 340.216 393.842 340.216C395.642 340.216 396.722 341.416 396.722 343.168ZM422.133 349H425.445V343.072C425.445 339.184 424.317 337.048 420.117 337.048C418.221 337.048 416.301 337.672 414.981 338.92L416.901 340.888C417.669 340.024 418.653 339.496 419.829 339.496C421.077 339.496 422.133 340.312 422.133 341.584C419.133 341.584 414.237 341.656 414.237 345.688C414.237 348.04 416.205 349.288 418.389 349.288C419.853 349.288 421.293 348.784 422.085 347.536H422.133V349ZM422.133 343.888V344.656C422.133 346.096 420.813 346.84 419.397 346.84C418.605 346.84 417.693 346.432 417.693 345.568C417.693 343.984 420.141 343.888 421.245 343.888H422.133ZM439.653 349H443.253V330.856H439.653V349ZM447.807 343.168C447.807 346.888 450.687 349.288 454.287 349.288C457.887 349.288 460.767 346.888 460.767 343.168C460.767 339.448 457.887 337.048 454.287 337.048C450.687 337.048 447.807 339.448 447.807 343.168ZM451.407 343.168C451.407 341.416 452.487 340.216 454.287 340.216C456.087 340.216 457.167 341.416 457.167 343.168C457.167 344.92 456.087 346.12 454.287 346.12C452.487 346.12 451.407 344.92 451.407 343.168ZM473.232 337.336H470.064V333.88H466.464V337.336H464.16V340.216H466.464V345.76C466.464 348.304 468.312 349.288 470.712 349.288C471.552 349.288 472.44 349.216 473.232 348.928V345.928C472.92 346.216 472.152 346.264 471.768 346.264C470.208 346.264 470.064 345.352 470.064 344.104V340.216H473.232V337.336ZM494.283 349H497.595V343.072C497.595 339.184 496.467 337.048 492.267 337.048C490.371 337.048 488.451 337.672 487.131 338.92L489.051 340.888C489.819 340.024 490.803 339.496 491.979 339.496C493.227 339.496 494.283 340.312 494.283 341.584C491.283 341.584 486.387 341.656 486.387 345.688C486.387 348.04 488.355 349.288 490.539 349.288C492.003 349.288 493.443 348.784 494.235 347.536H494.283V349ZM494.283 343.888V344.656C494.283 346.096 492.963 346.84 491.547 346.84C490.755 346.84 489.843 346.432 489.843 345.568C489.843 343.984 492.291 343.888 493.395 343.888H494.283ZM502.589 349H505.901V347.464H505.949C506.501 348.304 507.893 349.288 509.525 349.288C512.981 349.288 515.261 346.792 515.261 343.264C515.261 340.024 513.245 337.048 509.933 337.048C508.445 337.048 507.053 337.456 506.237 338.584H506.189V330.856H502.589V349ZM505.901 343.168C505.901 341.416 506.981 340.216 508.781 340.216C510.581 340.216 511.661 341.416 511.661 343.168C511.661 344.92 510.581 346.12 508.781 346.12C506.981 346.12 505.901 344.92 505.901 343.168ZM519.338 343.168C519.338 346.888 522.218 349.288 525.818 349.288C529.418 349.288 532.298 346.888 532.298 343.168C532.298 339.448 529.418 337.048 525.818 337.048C522.218 337.048 519.338 339.448 519.338 343.168ZM522.938 343.168C522.938 341.416 524.018 340.216 525.818 340.216C527.618 340.216 528.698 341.416 528.698 343.168C528.698 344.92 527.618 346.12 525.818 346.12C524.018 346.12 522.938 344.92 522.938 343.168ZM548.051 337.336H544.451V343.144C544.451 344.656 544.163 346.12 542.291 346.12C540.443 346.12 540.419 344.392 540.419 343.048V337.336H536.819V343.768C536.819 346.888 537.491 349.288 541.139 349.288C542.891 349.288 544.067 348.328 544.547 347.416H544.595V349H548.051V337.336ZM560.944 337.336H557.776V333.88H554.176V337.336H551.872V340.216H554.176V345.76C554.176 348.304 556.024 349.288 558.424 349.288C559.264 349.288 560.152 349.216 560.944 348.928V345.928C560.632 346.216 559.864 346.264 559.48 346.264C557.92 346.264 557.776 345.352 557.776 344.104V340.216H560.944V337.336ZM581.995 349H585.307V343.072C585.307 339.184 584.179 337.048 579.979 337.048C578.083 337.048 576.163 337.672 574.843 338.92L576.763 340.888C577.531 340.024 578.515 339.496 579.691 339.496C580.939 339.496 581.995 340.312 581.995 341.584C578.995 341.584 574.099 341.656 574.099 345.688C574.099 348.04 576.067 349.288 578.251 349.288C579.715 349.288 581.155 348.784 581.947 347.536H581.995V349ZM581.995 343.888V344.656C581.995 346.096 580.675 346.84 579.259 346.84C578.467 346.84 577.555 346.432 577.555 345.568C577.555 343.984 580.003 343.888 581.107 343.888H581.995ZM590.014 349H593.614V330.856H590.014V349ZM610.84 337.336H607.528V338.872H607.48C606.928 338.032 605.536 337.048 603.496 337.048C600.184 337.048 598.168 340.024 598.168 343.12C598.168 346.648 600.448 349.144 603.904 349.144C604.984 349.144 606.376 348.736 607.192 347.608H607.24V348.736C607.24 350.392 606.208 351.592 604.024 351.592C602.56 351.592 601.336 351.016 600.232 350.08L598.24 353.056C599.92 354.4 602.032 354.76 604.096 354.76C608.608 354.76 610.84 352.408 610.84 348.016V337.336ZM601.768 343.096C601.768 341.584 603.016 340.216 604.648 340.216C606.28 340.216 607.528 341.584 607.528 343.096C607.528 344.608 606.28 345.976 604.648 345.976C603.016 345.976 601.768 344.608 601.768 343.096ZM615.685 343.168C615.685 346.888 618.565 349.288 622.165 349.288C625.765 349.288 628.645 346.888 628.645 343.168C628.645 339.448 625.765 337.048 622.165 337.048C618.565 337.048 615.685 339.448 615.685 343.168ZM619.285 343.168C619.285 341.416 620.365 340.216 622.165 340.216C623.965 340.216 625.045 341.416 625.045 343.168C625.045 344.92 623.965 346.12 622.165 346.12C620.365 346.12 619.285 344.92 619.285 343.168ZM650.611 337.336H647.443V333.88H643.843V337.336H641.539V340.216H643.843V345.76C643.843 348.304 645.691 349.288 648.091 349.288C648.931 349.288 649.819 349.216 650.611 348.928V345.928C650.299 346.216 649.531 346.264 649.147 346.264C647.587 346.264 647.443 345.352 647.443 344.104V340.216H650.611V337.336ZM654.841 349H658.441V344.128C658.441 341.8 658.777 340.216 661.513 340.216C662.041 340.216 662.545 340.312 663.049 340.456V337.168C662.713 337.072 662.257 337.048 661.849 337.048C660.265 337.048 659.257 337.792 658.489 339.208H658.441V337.336H654.841V349ZM674.334 349H677.646V343.072C677.646 339.184 676.518 337.048 672.318 337.048C670.422 337.048 668.502 337.672 667.182 338.92L669.102 340.888C669.87 340.024 670.854 339.496 672.03 339.496C673.278 339.496 674.334 340.312 674.334 341.584C671.334 341.584 666.438 341.656 666.438 345.688C666.438 348.04 668.406 349.288 670.59 349.288C672.054 349.288 673.494 348.784 674.286 347.536H674.334V349ZM674.334 343.888V344.656C674.334 346.096 673.014 346.84 671.598 346.84C670.806 346.84 669.894 346.432 669.894 345.568C669.894 343.984 672.342 343.888 673.446 343.888H674.334ZM694.545 330.856H690.945V338.584H690.897C690.081 337.456 688.689 337.048 687.201 337.048C683.889 337.048 681.873 340.024 681.873 343.264C681.873 346.792 684.153 349.288 687.609 349.288C689.241 349.288 690.633 348.304 691.185 347.464H691.233V349H694.545V330.856ZM691.233 343.168C691.233 344.92 690.153 346.12 688.353 346.12C686.553 346.12 685.473 344.92 685.473 343.168C685.473 341.416 686.553 340.216 688.353 340.216C690.153 340.216 691.233 341.416 691.233 343.168ZM699.87 349H703.47V337.336H699.87V349ZM699.582 333.664C699.582 334.816 700.518 335.752 701.67 335.752C702.822 335.752 703.758 334.816 703.758 333.664C703.758 332.512 702.822 331.576 701.67 331.576C700.518 331.576 699.582 332.512 699.582 333.664ZM708.456 349H712.056V343.192C712.056 341.68 712.344 340.216 714.216 340.216C716.064 340.216 716.088 341.944 716.088 343.288V349H719.688V342.568C719.688 339.448 719.016 337.048 715.368 337.048C713.616 337.048 712.44 338.008 711.96 338.92H711.912V337.336H708.456V349ZM736.878 337.336H733.566V338.872H733.518C732.966 338.032 731.574 337.048 729.534 337.048C726.222 337.048 724.206 340.024 724.206 343.12C724.206 346.648 726.486 349.144 729.942 349.144C731.022 349.144 732.414 348.736 733.23 347.608H733.278V348.736C733.278 350.392 732.246 351.592 730.062 351.592C728.598 351.592 727.374 351.016 726.27 350.08L724.278 353.056C725.958 354.4 728.07 354.76 730.134 354.76C734.646 354.76 736.878 352.408 736.878 348.016V337.336ZM727.806 343.096C727.806 341.584 729.054 340.216 730.686 340.216C732.318 340.216 733.566 341.584 733.566 343.096C733.566 344.608 732.318 345.976 730.686 345.976C729.054 345.976 727.806 344.608 727.806 343.096ZM768.24 340.24H764.064L762.408 342.496L760.224 340.168C761.928 339.28 763.368 337.768 763.368 335.752C763.368 332.896 761.04 331.576 758.424 331.576C755.712 331.576 753.12 332.824 753.12 335.896C753.12 337.576 753.888 338.512 754.992 339.712C752.976 340.384 751.392 342.16 751.392 344.344C751.392 347.752 754.344 349.432 757.416 349.432C759.432 349.432 761.016 348.832 762.408 347.392L763.824 349H768.456L764.664 344.992L768.24 340.24ZM758.376 334.456C759.288 334.456 760.056 335.008 760.056 335.992C760.056 336.952 758.88 337.744 758.136 338.176C757.56 337.648 756.72 336.88 756.72 336.04C756.72 335.08 757.44 334.456 758.376 334.456ZM760.224 345.016C759.432 345.712 758.664 346.264 757.56 346.264C756.384 346.264 755.28 345.424 755.28 344.176C755.28 342.904 756.288 342.328 757.224 341.752L760.224 345.016ZM233.907 389H237.531L239.691 381.248H239.739L242.163 389H245.715L249.867 377.336H246.219L244.035 384.656H243.987L241.827 377.336H237.891L235.899 384.656H235.851L233.475 377.336H229.635L233.907 389ZM260.74 389H264.052V383.072C264.052 379.184 262.924 377.048 258.724 377.048C256.828 377.048 254.908 377.672 253.588 378.92L255.508 380.888C256.276 380.024 257.26 379.496 258.436 379.496C259.684 379.496 260.74 380.312 260.74 381.584C257.74 381.584 252.844 381.656 252.844 385.688C252.844 388.04 254.812 389.288 256.996 389.288C258.46 389.288 259.9 388.784 260.692 387.536H260.74V389ZM260.74 383.888V384.656C260.74 386.096 259.42 386.84 258.004 386.84C257.212 386.84 256.3 386.432 256.3 385.568C256.3 383.984 258.748 383.888 259.852 383.888H260.74ZM268.71 389H272.31V383.192C272.31 381.68 272.598 380.216 274.47 380.216C276.318 380.216 276.342 381.944 276.342 383.288V389H279.942V382.568C279.942 379.448 279.27 377.048 275.622 377.048C273.87 377.048 272.694 378.008 272.214 378.92H272.166V377.336H268.71V389ZM292.836 377.336H289.668V373.88H286.068V377.336H283.764V380.216H286.068V385.76C286.068 388.304 287.916 389.288 290.316 389.288C291.156 389.288 292.044 389.216 292.836 388.928V385.928C292.524 386.216 291.756 386.264 291.372 386.264C289.812 386.264 289.668 385.352 289.668 384.104V380.216H292.836V377.336ZM313.887 389H317.199V383.072C317.199 379.184 316.071 377.048 311.871 377.048C309.975 377.048 308.055 377.672 306.735 378.92L308.655 380.888C309.423 380.024 310.407 379.496 311.583 379.496C312.831 379.496 313.887 380.312 313.887 381.584C310.887 381.584 305.991 381.656 305.991 385.688C305.991 388.04 307.959 389.288 310.143 389.288C311.607 389.288 313.047 388.784 313.839 387.536H313.887V389ZM313.887 383.888V384.656C313.887 386.096 312.567 386.84 311.151 386.84C310.359 386.84 309.447 386.432 309.447 385.568C309.447 383.984 311.895 383.888 312.999 383.888H313.887ZM331.359 389H334.959V384.128C334.959 381.8 335.295 380.216 338.031 380.216C338.559 380.216 339.063 380.312 339.567 380.456V377.168C339.231 377.072 338.775 377.048 338.367 377.048C336.783 377.048 335.775 377.792 335.007 379.208H334.959V377.336H331.359V389ZM351.63 385.136C351.03 385.952 350.238 386.552 349.062 386.552C347.67 386.552 346.638 385.664 346.35 384.296H354.702V383.168C354.702 379.448 352.59 377.048 349.23 377.048C345.63 377.048 342.75 379.448 342.75 383.168C342.75 386.888 345.63 389.288 349.23 389.288C351.102 389.288 352.998 388.448 354.15 386.984L351.63 385.136ZM346.35 381.848C346.446 380.72 347.31 379.64 348.894 379.64C350.19 379.64 351.126 380.648 351.102 381.848H346.35ZM360.54 389H364.14V380.216H366.804V377.336H364.14V375.488C364.14 373.952 364.716 373.592 365.868 373.592C366.3 373.592 366.636 373.688 367.044 373.832L367.212 370.784C366.54 370.616 365.82 370.568 365.1 370.568C361.188 370.568 360.54 372.728 360.54 375.272V377.336H358.164V380.216H360.54V389ZM370.574 389H374.174V384.128C374.174 381.8 374.51 380.216 377.246 380.216C377.774 380.216 378.278 380.312 378.782 380.456V377.168C378.446 377.072 377.99 377.048 377.582 377.048C375.998 377.048 374.99 377.792 374.222 379.208H374.174V377.336H370.574V389ZM390.846 385.136C390.246 385.952 389.454 386.552 388.278 386.552C386.886 386.552 385.854 385.664 385.566 384.296H393.918V383.168C393.918 379.448 391.806 377.048 388.446 377.048C384.846 377.048 381.966 379.448 381.966 383.168C381.966 386.888 384.846 389.288 388.446 389.288C390.318 389.288 392.214 388.448 393.366 386.984L390.846 385.136ZM385.566 381.848C385.662 380.72 386.526 379.64 388.11 379.64C389.406 379.64 390.342 380.648 390.318 381.848H385.566ZM407.315 378.584C406.235 377.432 404.531 377.048 402.995 377.048C400.547 377.048 398.099 378.248 398.099 380.984C398.099 385.424 404.171 383.84 404.171 385.712C404.171 386.336 403.355 386.552 402.539 386.552C401.459 386.552 400.667 386.096 399.995 385.28L397.811 387.704C398.963 388.88 400.763 389.288 402.395 389.288C404.891 389.288 407.771 388.424 407.771 385.448C407.771 381.008 401.699 382.472 401.699 380.744C401.699 380.048 402.419 379.784 403.019 379.784C403.883 379.784 404.579 380.12 405.107 380.768L407.315 378.584ZM412.017 370.856V389H415.617V383.192C415.617 381.68 415.905 380.216 417.777 380.216C419.625 380.216 419.649 381.944 419.649 383.288V389H423.249V382.568C423.249 379.448 422.577 377.048 418.929 377.048C417.177 377.048 416.001 378.008 415.665 378.92H415.617V370.856H412.017ZM436.718 385.136C436.118 385.952 435.326 386.552 434.15 386.552C432.758 386.552 431.726 385.664 431.438 384.296H439.79V383.168C439.79 379.448 437.678 377.048 434.318 377.048C430.718 377.048 427.838 379.448 427.838 383.168C427.838 386.888 430.718 389.288 434.318 389.288C436.19 389.288 438.086 388.448 439.238 386.984L436.718 385.136ZM431.438 381.848C431.534 380.72 432.398 379.64 433.982 379.64C435.278 379.64 436.214 380.648 436.19 381.848H431.438ZM444.379 389H447.979V384.128C447.979 381.8 448.315 380.216 451.051 380.216C451.579 380.216 452.083 380.312 452.587 380.456V377.168C452.251 377.072 451.795 377.048 451.387 377.048C449.803 377.048 448.795 377.792 448.027 379.208H447.979V377.336H444.379V389ZM482.638 380.24H478.462L476.806 382.496L474.622 380.168C476.326 379.28 477.766 377.768 477.766 375.752C477.766 372.896 475.438 371.576 472.822 371.576C470.11 371.576 467.518 372.824 467.518 375.896C467.518 377.576 468.286 378.512 469.39 379.712C467.374 380.384 465.79 382.16 465.79 384.344C465.79 387.752 468.742 389.432 471.814 389.432C473.83 389.432 475.414 388.832 476.806 387.392L478.222 389H482.854L479.062 384.992L482.638 380.24ZM472.774 374.456C473.686 374.456 474.454 375.008 474.454 375.992C474.454 376.952 473.278 377.744 472.534 378.176C471.958 377.648 471.118 376.88 471.118 376.04C471.118 375.08 471.838 374.456 472.774 374.456ZM474.622 385.016C473.83 385.712 473.062 386.264 471.958 386.264C470.782 386.264 469.678 385.424 469.678 384.176C469.678 382.904 470.686 382.328 471.622 381.752L474.622 385.016ZM504.975 378.584C503.895 377.432 502.191 377.048 500.655 377.048C498.207 377.048 495.759 378.248 495.759 380.984C495.759 385.424 501.831 383.84 501.831 385.712C501.831 386.336 501.015 386.552 500.199 386.552C499.119 386.552 498.327 386.096 497.655 385.28L495.471 387.704C496.623 388.88 498.423 389.288 500.055 389.288C502.551 389.288 505.431 388.424 505.431 385.448C505.431 381.008 499.359 382.472 499.359 380.744C499.359 380.048 500.079 379.784 500.679 379.784C501.543 379.784 502.239 380.12 502.767 380.768L504.975 378.584ZM509.244 383.168C509.244 386.888 512.124 389.288 515.724 389.288C519.324 389.288 522.204 386.888 522.204 383.168C522.204 379.448 519.324 377.048 515.724 377.048C512.124 377.048 509.244 379.448 509.244 383.168ZM512.844 383.168C512.844 381.416 513.924 380.216 515.724 380.216C517.524 380.216 518.604 381.416 518.604 383.168C518.604 384.92 517.524 386.12 515.724 386.12C513.924 386.12 512.844 384.92 512.844 383.168ZM526.724 389H530.324V383.192C530.324 381.68 530.612 380.216 532.484 380.216C534.14 380.216 534.092 381.968 534.092 382.832V389H537.692V382.832C537.692 381.392 538.22 380.216 539.876 380.216C541.052 380.216 541.46 381.128 541.46 382.208V389H545.06V382.112C545.06 379.28 544.1 377.048 540.932 377.048C539.204 377.048 538.076 377.648 537.236 379.136C536.612 377.72 535.268 377.048 533.636 377.048C531.884 377.048 530.708 378.008 530.228 378.92H530.18V377.336H526.724V389ZM558.527 385.136C557.927 385.952 557.135 386.552 555.959 386.552C554.567 386.552 553.535 385.664 553.247 384.296H561.599V383.168C561.599 379.448 559.487 377.048 556.127 377.048C552.527 377.048 549.647 379.448 549.647 383.168C549.647 386.888 552.527 389.288 556.127 389.288C557.999 389.288 559.895 388.448 561.047 386.984L558.527 385.136ZM553.247 381.848C553.343 380.72 554.207 379.64 555.791 379.64C557.087 379.64 558.023 380.648 557.999 381.848H553.247ZM587.93 377.336H584.618V378.872H584.57C584.018 378.032 582.626 377.048 580.586 377.048C577.274 377.048 575.258 380.024 575.258 383.12C575.258 386.648 577.538 389.144 580.994 389.144C582.074 389.144 583.466 388.736 584.282 387.608H584.33V388.736C584.33 390.392 583.298 391.592 581.114 391.592C579.65 391.592 578.426 391.016 577.322 390.08L575.33 393.056C577.01 394.4 579.122 394.76 581.186 394.76C585.698 394.76 587.93 392.408 587.93 388.016V377.336ZM578.858 383.096C578.858 381.584 580.106 380.216 581.738 380.216C583.37 380.216 584.618 381.584 584.618 383.096C584.618 384.608 583.37 385.976 581.738 385.976C580.106 385.976 578.858 384.608 578.858 383.096ZM592.775 383.168C592.775 386.888 595.655 389.288 599.255 389.288C602.855 389.288 605.735 386.888 605.735 383.168C605.735 379.448 602.855 377.048 599.255 377.048C595.655 377.048 592.775 379.448 592.775 383.168ZM596.375 383.168C596.375 381.416 597.455 380.216 599.255 380.216C601.055 380.216 602.135 381.416 602.135 383.168C602.135 384.92 601.055 386.12 599.255 386.12C597.455 386.12 596.375 384.92 596.375 383.168ZM609.824 383.168C609.824 386.888 612.704 389.288 616.304 389.288C619.904 389.288 622.784 386.888 622.784 383.168C622.784 379.448 619.904 377.048 616.304 377.048C612.704 377.048 609.824 379.448 609.824 383.168ZM613.424 383.168C613.424 381.416 614.504 380.216 616.304 380.216C618.104 380.216 619.184 381.416 619.184 383.168C619.184 384.92 618.104 386.12 616.304 386.12C614.504 386.12 613.424 384.92 613.424 383.168ZM639.544 370.856H635.944V378.584H635.896C635.08 377.456 633.688 377.048 632.2 377.048C628.888 377.048 626.872 380.024 626.872 383.264C626.872 386.792 629.152 389.288 632.608 389.288C634.24 389.288 635.632 388.304 636.184 387.464H636.232V389H639.544V370.856ZM636.232 383.168C636.232 384.92 635.152 386.12 633.352 386.12C631.552 386.12 630.472 384.92 630.472 383.168C630.472 381.416 631.552 380.216 633.352 380.216C635.152 380.216 636.232 381.416 636.232 383.168ZM654.323 389H657.923V384.128C657.923 381.8 658.259 380.216 660.995 380.216C661.523 380.216 662.027 380.312 662.531 380.456V377.168C662.195 377.072 661.739 377.048 661.331 377.048C659.747 377.048 658.739 377.792 657.971 379.208H657.923V377.336H654.323V389ZM674.594 385.136C673.994 385.952 673.202 386.552 672.026 386.552C670.634 386.552 669.602 385.664 669.314 384.296H677.666V383.168C677.666 379.448 675.554 377.048 672.194 377.048C668.594 377.048 665.714 379.448 665.714 383.168C665.714 386.888 668.594 389.288 672.194 389.288C674.066 389.288 675.962 388.448 677.114 386.984L674.594 385.136ZM669.314 381.848C669.41 380.72 670.274 379.64 671.858 379.64C673.154 379.64 674.09 380.648 674.066 381.848H669.314ZM691.064 378.584C689.984 377.432 688.28 377.048 686.744 377.048C684.296 377.048 681.848 378.248 681.848 380.984C681.848 385.424 687.92 383.84 687.92 385.712C687.92 386.336 687.104 386.552 686.288 386.552C685.208 386.552 684.416 386.096 683.744 385.28L681.56 387.704C682.712 388.88 684.512 389.288 686.144 389.288C688.64 389.288 691.52 388.424 691.52 385.448C691.52 381.008 685.448 382.472 685.448 380.744C685.448 380.048 686.168 379.784 686.768 379.784C687.632 379.784 688.328 380.12 688.856 380.768L691.064 378.584ZM695.333 383.168C695.333 386.888 698.213 389.288 701.813 389.288C705.413 389.288 708.293 386.888 708.293 383.168C708.293 379.448 705.413 377.048 701.813 377.048C698.213 377.048 695.333 379.448 695.333 383.168ZM698.933 383.168C698.933 381.416 700.013 380.216 701.813 380.216C703.613 380.216 704.693 381.416 704.693 383.168C704.693 384.92 703.613 386.12 701.813 386.12C700.013 386.12 698.933 384.92 698.933 383.168ZM724.045 377.336H720.445V383.144C720.445 384.656 720.157 386.12 718.285 386.12C716.437 386.12 716.413 384.392 716.413 383.048V377.336H712.813V383.768C712.813 386.888 713.485 389.288 717.133 389.288C718.885 389.288 720.061 388.328 720.541 387.416H720.589V389H724.045V377.336ZM728.995 389H732.595V384.128C732.595 381.8 732.931 380.216 735.667 380.216C736.195 380.216 736.699 380.312 737.203 380.456V377.168C736.867 377.072 736.411 377.048 736.003 377.048C734.419 377.048 733.411 377.792 732.643 379.208H732.595V377.336H728.995V389ZM751.018 378.608C749.89 377.456 748.234 377.048 746.866 377.048C743.266 377.048 740.386 379.448 740.386 383.168C740.386 386.888 743.266 389.288 746.866 389.288C748.234 389.288 749.89 388.88 751.018 387.728L748.642 385.232C748.234 385.712 747.658 386.12 746.866 386.12C745.066 386.12 743.986 384.92 743.986 383.168C743.986 381.416 745.066 380.216 746.866 380.216C747.61 380.216 748.282 380.6 748.642 381.104L751.018 378.608ZM763.244 385.136C762.644 385.952 761.852 386.552 760.676 386.552C759.284 386.552 758.252 385.664 757.964 384.296H766.316V383.168C766.316 379.448 764.204 377.048 760.844 377.048C757.244 377.048 754.364 379.448 754.364 383.168C754.364 386.888 757.244 389.288 760.844 389.288C762.716 389.288 764.612 388.448 765.764 386.984L763.244 385.136ZM757.964 381.848C758.06 380.72 758.924 379.64 760.508 379.64C761.804 379.64 762.74 380.648 762.716 381.848H757.964ZM779.714 378.584C778.634 377.432 776.93 377.048 775.394 377.048C772.946 377.048 770.498 378.248 770.498 380.984C770.498 385.424 776.57 383.84 776.57 385.712C776.57 386.336 775.754 386.552 774.938 386.552C773.858 386.552 773.066 386.096 772.394 385.28L770.21 387.704C771.362 388.88 773.162 389.288 774.794 389.288C777.29 389.288 780.17 388.424 780.17 385.448C780.17 381.008 774.098 382.472 774.098 380.744C774.098 380.048 774.818 379.784 775.418 379.784C776.282 379.784 776.978 380.12 777.506 380.768L779.714 378.584ZM784.487 386.936C784.487 388.16 785.471 389.144 786.695 389.144C787.919 389.144 788.903 388.16 788.903 386.936C788.903 385.712 787.919 384.728 786.695 384.728C785.471 384.728 784.487 385.712 784.487 386.936Z" fill="white"/>
<path d="M271.662 577H275.406V563.32H280.254V560.008H266.814V563.32H271.662V577ZM284.099 558.856V577H287.699V571.192C287.699 569.68 287.987 568.216 289.859 568.216C291.707 568.216 291.731 569.944 291.731 571.288V577H295.331V570.568C295.331 567.448 294.659 565.048 291.011 565.048C289.259 565.048 288.083 566.008 287.747 566.92H287.699V558.856H284.099ZM308.801 573.136C308.201 573.952 307.409 574.552 306.233 574.552C304.841 574.552 303.809 573.664 303.521 572.296H311.873V571.168C311.873 567.448 309.761 565.048 306.401 565.048C302.801 565.048 299.921 567.448 299.921 571.168C299.921 574.888 302.801 577.288 306.401 577.288C308.273 577.288 310.169 576.448 311.321 574.984L308.801 573.136ZM303.521 569.848C303.617 568.72 304.481 567.64 306.065 567.64C307.361 567.64 308.297 568.648 308.273 569.848H303.521ZM333.283 577H336.595V571.072C336.595 567.184 335.467 565.048 331.267 565.048C329.371 565.048 327.451 565.672 326.131 566.92L328.051 568.888C328.819 568.024 329.803 567.496 330.979 567.496C332.227 567.496 333.283 568.312 333.283 569.584C330.283 569.584 325.387 569.656 325.387 573.688C325.387 576.04 327.355 577.288 329.539 577.288C331.003 577.288 332.443 576.784 333.235 575.536H333.283V577ZM333.283 571.888V572.656C333.283 574.096 331.963 574.84 330.547 574.84C329.755 574.84 328.843 574.432 328.843 573.568C328.843 571.984 331.291 571.888 332.395 571.888H333.283ZM341.59 582.472H345.19V575.752H345.238C346.054 576.88 347.446 577.288 348.934 577.288C352.246 577.288 354.262 574.312 354.262 571.072C354.262 567.544 351.982 565.048 348.526 565.048C346.894 565.048 345.502 566.032 344.95 566.872H344.902V565.336H341.59V582.472ZM344.902 571.168C344.902 569.416 345.982 568.216 347.782 568.216C349.582 568.216 350.662 569.416 350.662 571.168C350.662 572.92 349.582 574.12 347.782 574.12C345.982 574.12 344.902 572.92 344.902 571.168ZM359.107 582.472H362.707V575.752H362.755C363.571 576.88 364.963 577.288 366.451 577.288C369.763 577.288 371.779 574.312 371.779 571.072C371.779 567.544 369.499 565.048 366.043 565.048C364.411 565.048 363.019 566.032 362.467 566.872H362.419V565.336H359.107V582.472ZM362.419 571.168C362.419 569.416 363.499 568.216 365.299 568.216C367.099 568.216 368.179 569.416 368.179 571.168C368.179 572.92 367.099 574.12 365.299 574.12C363.499 574.12 362.419 572.92 362.419 571.168ZM385.79 577H389.39V571.192C389.39 569.68 389.678 568.216 391.55 568.216C393.398 568.216 393.422 569.944 393.422 571.288V577H397.022V570.568C397.022 567.448 396.35 565.048 392.702 565.048C390.95 565.048 389.774 566.008 389.294 566.92H389.246V565.336H385.79V577ZM410.491 573.136C409.891 573.952 409.099 574.552 407.923 574.552C406.531 574.552 405.499 573.664 405.211 572.296H413.563V571.168C413.563 567.448 411.451 565.048 408.091 565.048C404.491 565.048 401.611 567.448 401.611 571.168C401.611 574.888 404.491 577.288 408.091 577.288C409.963 577.288 411.859 576.448 413.011 574.984L410.491 573.136ZM405.211 569.848C405.307 568.72 406.171 567.64 407.755 567.64C409.051 567.64 409.987 568.648 409.963 569.848H405.211ZM426.672 573.136C426.072 573.952 425.28 574.552 424.104 574.552C422.712 574.552 421.68 573.664 421.392 572.296H429.744V571.168C429.744 567.448 427.632 565.048 424.272 565.048C420.672 565.048 417.792 567.448 417.792 571.168C417.792 574.888 420.672 577.288 424.272 577.288C426.144 577.288 428.04 576.448 429.192 574.984L426.672 573.136ZM421.392 569.848C421.488 568.72 422.352 567.64 423.936 567.64C425.232 567.64 426.168 568.648 426.144 569.848H421.392ZM446.574 558.856H442.974V566.584H442.926C442.11 565.456 440.718 565.048 439.23 565.048C435.918 565.048 433.902 568.024 433.902 571.264C433.902 574.792 436.182 577.288 439.638 577.288C441.27 577.288 442.662 576.304 443.214 575.464H443.262V577H446.574V558.856ZM443.262 571.168C443.262 572.92 442.182 574.12 440.382 574.12C438.582 574.12 437.502 572.92 437.502 571.168C437.502 569.416 438.582 568.216 440.382 568.216C442.182 568.216 443.262 569.416 443.262 571.168ZM460.659 566.584C459.579 565.432 457.875 565.048 456.339 565.048C453.891 565.048 451.443 566.248 451.443 568.984C451.443 573.424 457.515 571.84 457.515 573.712C457.515 574.336 456.699 574.552 455.883 574.552C454.803 574.552 454.011 574.096 453.339 573.28L451.155 575.704C452.307 576.88 454.107 577.288 455.739 577.288C458.235 577.288 461.115 576.424 461.115 573.448C461.115 569.008 455.043 570.472 455.043 568.744C455.043 568.048 455.763 567.784 456.363 567.784C457.227 567.784 457.923 568.12 458.451 568.768L460.659 566.584ZM482.806 565.336H479.638V561.88H476.038V565.336H473.734V568.216H476.038V573.76C476.038 576.304 477.886 577.288 480.286 577.288C481.126 577.288 482.014 577.216 482.806 576.928V573.928C482.494 574.216 481.726 574.264 481.342 574.264C479.782 574.264 479.638 573.352 479.638 572.104V568.216H482.806V565.336ZM486.603 571.168C486.603 574.888 489.483 577.288 493.083 577.288C496.683 577.288 499.563 574.888 499.563 571.168C499.563 567.448 496.683 565.048 493.083 565.048C489.483 565.048 486.603 567.448 486.603 571.168ZM490.203 571.168C490.203 569.416 491.283 568.216 493.083 568.216C494.883 568.216 495.963 569.416 495.963 571.168C495.963 572.92 494.883 574.12 493.083 574.12C491.283 574.12 490.203 572.92 490.203 571.168ZM523.857 566.608C522.729 565.456 521.073 565.048 519.705 565.048C516.105 565.048 513.225 567.448 513.225 571.168C513.225 574.888 516.105 577.288 519.705 577.288C521.073 577.288 522.729 576.88 523.857 575.728L521.481 573.232C521.073 573.712 520.497 574.12 519.705 574.12C517.905 574.12 516.825 572.92 516.825 571.168C516.825 569.416 517.905 568.216 519.705 568.216C520.449 568.216 521.121 568.6 521.481 569.104L523.857 566.608ZM534.883 577H538.195V571.072C538.195 567.184 537.067 565.048 532.867 565.048C530.971 565.048 529.051 565.672 527.731 566.92L529.651 568.888C530.419 568.024 531.403 567.496 532.579 567.496C533.827 567.496 534.883 568.312 534.883 569.584C531.883 569.584 526.987 569.656 526.987 573.688C526.987 576.04 528.955 577.288 531.139 577.288C532.603 577.288 534.043 576.784 534.835 575.536H534.883V577ZM534.883 571.888V572.656C534.883 574.096 533.563 574.84 532.147 574.84C531.355 574.84 530.443 574.432 530.443 573.568C530.443 571.984 532.891 571.888 533.995 571.888H534.883ZM550.798 565.336H547.63V561.88H544.03V565.336H541.726V568.216H544.03V573.76C544.03 576.304 545.878 577.288 548.278 577.288C549.118 577.288 550.006 577.216 550.798 576.928V573.928C550.486 574.216 549.718 574.264 549.334 574.264C547.774 574.264 547.63 573.352 547.63 572.104V568.216H550.798V565.336ZM563.547 573.136C562.947 573.952 562.155 574.552 560.979 574.552C559.587 574.552 558.555 573.664 558.267 572.296H566.619V571.168C566.619 567.448 564.507 565.048 561.147 565.048C557.547 565.048 554.667 567.448 554.667 571.168C554.667 574.888 557.547 577.288 561.147 577.288C563.019 577.288 564.915 576.448 566.067 574.984L563.547 573.136ZM558.267 569.848C558.363 568.72 559.227 567.64 560.811 567.64C562.107 567.64 563.043 568.648 563.019 569.848H558.267ZM571.209 577H574.809V572.128C574.809 569.8 575.145 568.216 577.881 568.216C578.409 568.216 578.913 568.312 579.417 568.456V565.168C579.081 565.072 578.625 565.048 578.217 565.048C576.633 565.048 575.625 565.792 574.857 567.208H574.809V565.336H571.209V577ZM600.828 565.336H597.66V561.88H594.06V565.336H591.756V568.216H594.06V573.76C594.06 576.304 595.908 577.288 598.308 577.288C599.148 577.288 600.036 577.216 600.828 576.928V573.928C600.516 574.216 599.748 574.264 599.364 574.264C597.804 574.264 597.66 573.352 597.66 572.104V568.216H600.828V565.336ZM604.625 571.168C604.625 574.888 607.505 577.288 611.105 577.288C614.705 577.288 617.585 574.888 617.585 571.168C617.585 567.448 614.705 565.048 611.105 565.048C607.505 565.048 604.625 567.448 604.625 571.168ZM608.225 571.168C608.225 569.416 609.305 568.216 611.105 568.216C612.905 568.216 613.985 569.416 613.985 571.168C613.985 572.92 612.905 574.12 611.105 574.12C609.305 574.12 608.225 572.92 608.225 571.168ZM640.415 566.584C639.335 565.432 637.631 565.048 636.095 565.048C633.647 565.048 631.199 566.248 631.199 568.984C631.199 573.424 637.271 571.84 637.271 573.712C637.271 574.336 636.455 574.552 635.639 574.552C634.559 574.552 633.767 574.096 633.095 573.28L630.911 575.704C632.063 576.88 633.863 577.288 635.495 577.288C637.991 577.288 640.871 576.424 640.871 573.448C640.871 569.008 634.799 570.472 634.799 568.744C634.799 568.048 635.519 567.784 636.119 567.784C636.983 567.784 637.679 568.12 638.207 568.768L640.415 566.584ZM653.637 573.136C653.037 573.952 652.245 574.552 651.069 574.552C649.677 574.552 648.645 573.664 648.357 572.296H656.709V571.168C656.709 567.448 654.597 565.048 651.237 565.048C647.637 565.048 644.757 567.448 644.757 571.168C644.757 574.888 647.637 577.288 651.237 577.288C653.109 577.288 655.005 576.448 656.157 574.984L653.637 573.136ZM648.357 569.848C648.453 568.72 649.317 567.64 650.901 567.64C652.197 567.64 653.133 568.648 653.109 569.848H648.357ZM668.618 577H671.93V571.072C671.93 567.184 670.802 565.048 666.602 565.048C664.706 565.048 662.786 565.672 661.466 566.92L663.386 568.888C664.154 568.024 665.138 567.496 666.314 567.496C667.562 567.496 668.618 568.312 668.618 569.584C665.618 569.584 660.722 569.656 660.722 573.688C660.722 576.04 662.69 577.288 664.874 577.288C666.338 577.288 667.778 576.784 668.57 575.536H668.618V577ZM668.618 571.888V572.656C668.618 574.096 667.298 574.84 665.882 574.84C665.09 574.84 664.178 574.432 664.178 573.568C664.178 571.984 666.626 571.888 667.73 571.888H668.618ZM685.396 566.584C684.316 565.432 682.612 565.048 681.076 565.048C678.628 565.048 676.18 566.248 676.18 568.984C676.18 573.424 682.252 571.84 682.252 573.712C682.252 574.336 681.436 574.552 680.62 574.552C679.54 574.552 678.748 574.096 678.076 573.28L675.892 575.704C677.044 576.88 678.844 577.288 680.476 577.288C682.972 577.288 685.852 576.424 685.852 573.448C685.852 569.008 679.78 570.472 679.78 568.744C679.78 568.048 680.5 567.784 681.1 567.784C681.964 567.784 682.66 568.12 683.188 568.768L685.396 566.584ZM689.666 571.168C689.666 574.888 692.546 577.288 696.146 577.288C699.746 577.288 702.626 574.888 702.626 571.168C702.626 567.448 699.746 565.048 696.146 565.048C692.546 565.048 689.666 567.448 689.666 571.168ZM693.266 571.168C693.266 569.416 694.346 568.216 696.146 568.216C697.946 568.216 699.026 569.416 699.026 571.168C699.026 572.92 697.946 574.12 696.146 574.12C694.346 574.12 693.266 572.92 693.266 571.168ZM707.146 577H710.746V571.192C710.746 569.68 711.034 568.216 712.906 568.216C714.754 568.216 714.778 569.944 714.778 571.288V577H718.378V570.568C718.378 567.448 717.706 565.048 714.058 565.048C712.306 565.048 711.13 566.008 710.65 566.92H710.602V565.336H707.146V577ZM731.847 573.136C731.247 573.952 730.455 574.552 729.279 574.552C727.887 574.552 726.855 573.664 726.567 572.296H734.919V571.168C734.919 567.448 732.807 565.048 729.447 565.048C725.847 565.048 722.967 567.448 722.967 571.168C722.967 574.888 725.847 577.288 729.447 577.288C731.319 577.288 733.215 576.448 734.367 574.984L731.847 573.136ZM726.567 569.848C726.663 568.72 727.527 567.64 729.111 567.64C730.407 567.64 731.343 568.648 731.319 569.848H726.567ZM751.749 558.856H748.149V566.584H748.101C747.285 565.456 745.893 565.048 744.405 565.048C741.093 565.048 739.077 568.024 739.077 571.264C739.077 574.792 741.357 577.288 744.813 577.288C746.445 577.288 747.837 576.304 748.389 575.464H748.437V577H751.749V558.856ZM748.437 571.168C748.437 572.92 747.357 574.12 745.557 574.12C743.757 574.12 742.677 572.92 742.677 571.168C742.677 569.416 743.757 568.216 745.557 568.216C747.357 568.216 748.437 569.416 748.437 571.168ZM305.518 605.336H302.35V601.88H298.75V605.336H296.446V608.216H298.75V613.76C298.75 616.304 300.598 617.288 302.998 617.288C303.838 617.288 304.726 617.216 305.518 616.928V613.928C305.206 614.216 304.438 614.264 304.054 614.264C302.494 614.264 302.35 613.352 302.35 612.104V608.216H305.518V605.336ZM309.747 617H313.347V612.128C313.347 609.8 313.683 608.216 316.419 608.216C316.947 608.216 317.451 608.312 317.955 608.456V605.168C317.619 605.072 317.163 605.048 316.755 605.048C315.171 605.048 314.163 605.792 313.395 607.208H313.347V605.336H309.747V617ZM329.24 617H332.552V611.072C332.552 607.184 331.424 605.048 327.224 605.048C325.328 605.048 323.408 605.672 322.088 606.92L324.008 608.888C324.776 608.024 325.76 607.496 326.936 607.496C328.184 607.496 329.24 608.312 329.24 609.584C326.24 609.584 321.344 609.656 321.344 613.688C321.344 616.04 323.312 617.288 325.496 617.288C326.96 617.288 328.4 616.784 329.192 615.536H329.24V617ZM329.24 611.888V612.656C329.24 614.096 327.92 614.84 326.504 614.84C325.712 614.84 324.8 614.432 324.8 613.568C324.8 611.984 327.248 611.888 328.352 611.888H329.24ZM349.451 598.856H345.851V606.584H345.803C344.987 605.456 343.595 605.048 342.107 605.048C338.795 605.048 336.779 608.024 336.779 611.264C336.779 614.792 339.059 617.288 342.515 617.288C344.147 617.288 345.539 616.304 346.091 615.464H346.139V617H349.451V598.856ZM346.139 611.168C346.139 612.92 345.059 614.12 343.259 614.12C341.459 614.12 340.379 612.92 340.379 611.168C340.379 609.416 341.459 608.216 343.259 608.216C345.059 608.216 346.139 609.416 346.139 611.168ZM363.248 613.136C362.648 613.952 361.856 614.552 360.68 614.552C359.288 614.552 358.256 613.664 357.968 612.296H366.32V611.168C366.32 607.448 364.208 605.048 360.848 605.048C357.248 605.048 354.368 607.448 354.368 611.168C354.368 614.888 357.248 617.288 360.848 617.288C362.72 617.288 364.616 616.448 365.768 614.984L363.248 613.136ZM357.968 609.848C358.064 608.72 358.928 607.64 360.512 607.64C361.808 607.64 362.744 608.648 362.72 609.848H357.968ZM370.909 617H374.509V612.128C374.509 609.8 374.845 608.216 377.581 608.216C378.109 608.216 378.613 608.312 379.117 608.456V605.168C378.781 605.072 378.325 605.048 377.917 605.048C376.333 605.048 375.325 605.792 374.557 607.208H374.509V605.336H370.909V617ZM391.891 606.584C390.811 605.432 389.107 605.048 387.571 605.048C385.123 605.048 382.675 606.248 382.675 608.984C382.675 613.424 388.747 611.84 388.747 613.712C388.747 614.336 387.931 614.552 387.115 614.552C386.035 614.552 385.243 614.096 384.571 613.28L382.387 615.704C383.539 616.88 385.339 617.288 386.971 617.288C389.467 617.288 392.347 616.424 392.347 613.448C392.347 609.008 386.275 610.472 386.275 608.744C386.275 608.048 386.995 607.784 387.595 607.784C388.459 607.784 389.155 608.12 389.683 608.768L391.891 606.584ZM413.414 617H416.726V611.072C416.726 607.184 415.598 605.048 411.398 605.048C409.502 605.048 407.582 605.672 406.262 606.92L408.182 608.888C408.95 608.024 409.934 607.496 411.11 607.496C412.358 607.496 413.414 608.312 413.414 609.584C410.414 609.584 405.518 609.656 405.518 613.688C405.518 616.04 407.486 617.288 409.67 617.288C411.134 617.288 412.574 616.784 413.366 615.536H413.414V617ZM413.414 611.888V612.656C413.414 614.096 412.094 614.84 410.678 614.84C409.886 614.84 408.974 614.432 408.974 613.568C408.974 611.984 411.422 611.888 412.526 611.888H413.414ZM421.384 617H424.984V611.192C424.984 609.68 425.272 608.216 427.144 608.216C428.992 608.216 429.016 609.944 429.016 611.288V617H432.616V610.568C432.616 607.448 431.944 605.048 428.296 605.048C426.544 605.048 425.368 606.008 424.888 606.92H424.84V605.336H421.384V617ZM449.806 598.856H446.206V606.584H446.158C445.342 605.456 443.95 605.048 442.462 605.048C439.15 605.048 437.134 608.024 437.134 611.264C437.134 614.792 439.414 617.288 442.87 617.288C444.502 617.288 445.894 616.304 446.446 615.464H446.494V617H449.806V598.856ZM446.494 611.168C446.494 612.92 445.414 614.12 443.614 614.12C441.814 614.12 440.734 612.92 440.734 611.168C440.734 609.416 441.814 608.216 443.614 608.216C445.414 608.216 446.494 609.416 446.494 611.168ZM472.529 605.336H469.361V601.88H465.761V605.336H463.457V608.216H465.761V613.76C465.761 616.304 467.609 617.288 470.009 617.288C470.849 617.288 471.737 617.216 472.529 616.928V613.928C472.217 614.216 471.449 614.264 471.065 614.264C469.505 614.264 469.361 613.352 469.361 612.104V608.216H472.529V605.336ZM476.758 617H480.358V612.128C480.358 609.8 480.694 608.216 483.43 608.216C483.958 608.216 484.462 608.312 484.966 608.456V605.168C484.63 605.072 484.174 605.048 483.766 605.048C482.182 605.048 481.174 605.792 480.406 607.208H480.358V605.336H476.758V617ZM496.251 617H499.563V611.072C499.563 607.184 498.435 605.048 494.235 605.048C492.339 605.048 490.419 605.672 489.099 606.92L491.019 608.888C491.787 608.024 492.771 607.496 493.947 607.496C495.195 607.496 496.251 608.312 496.251 609.584C493.251 609.584 488.355 609.656 488.355 613.688C488.355 616.04 490.323 617.288 492.507 617.288C493.971 617.288 495.411 616.784 496.203 615.536H496.251V617ZM496.251 611.888V612.656C496.251 614.096 494.931 614.84 493.515 614.84C492.723 614.84 491.811 614.432 491.811 613.568C491.811 611.984 494.259 611.888 495.363 611.888H496.251ZM516.462 598.856H512.862V606.584H512.814C511.998 605.456 510.606 605.048 509.118 605.048C505.806 605.048 503.79 608.024 503.79 611.264C503.79 614.792 506.07 617.288 509.526 617.288C511.158 617.288 512.55 616.304 513.102 615.464H513.15V617H516.462V598.856ZM513.15 611.168C513.15 612.92 512.07 614.12 510.27 614.12C508.47 614.12 507.39 612.92 507.39 611.168C507.39 609.416 508.47 608.216 510.27 608.216C512.07 608.216 513.15 609.416 513.15 611.168ZM521.787 617H525.387V605.336H521.787V617ZM521.499 601.664C521.499 602.816 522.435 603.752 523.587 603.752C524.739 603.752 525.675 602.816 525.675 601.664C525.675 600.512 524.739 599.576 523.587 599.576C522.435 599.576 521.499 600.512 521.499 601.664ZM530.374 617H533.974V611.192C533.974 609.68 534.262 608.216 536.134 608.216C537.982 608.216 538.006 609.944 538.006 611.288V617H541.606V610.568C541.606 607.448 540.934 605.048 537.286 605.048C535.534 605.048 534.358 606.008 533.878 606.92H533.83V605.336H530.374V617ZM558.795 605.336H555.483V606.872H555.435C554.883 606.032 553.491 605.048 551.451 605.048C548.139 605.048 546.123 608.024 546.123 611.12C546.123 614.648 548.403 617.144 551.859 617.144C552.939 617.144 554.331 616.736 555.147 615.608H555.195V616.736C555.195 618.392 554.163 619.592 551.979 619.592C550.515 619.592 549.291 619.016 548.187 618.08L546.195 621.056C547.875 622.4 549.987 622.76 552.051 622.76C556.563 622.76 558.795 620.408 558.795 616.016V605.336ZM549.723 611.096C549.723 609.584 550.971 608.216 552.603 608.216C554.235 608.216 555.483 609.584 555.483 611.096C555.483 612.608 554.235 613.976 552.603 613.976C550.971 613.976 549.723 612.608 549.723 611.096ZM583.846 606.608C582.718 605.456 581.062 605.048 579.694 605.048C576.094 605.048 573.214 607.448 573.214 611.168C573.214 614.888 576.094 617.288 579.694 617.288C581.062 617.288 582.718 616.88 583.846 615.728L581.47 613.232C581.062 613.712 580.486 614.12 579.694 614.12C577.894 614.12 576.814 612.92 576.814 611.168C576.814 609.416 577.894 608.216 579.694 608.216C580.438 608.216 581.11 608.6 581.47 609.104L583.846 606.608ZM587.12 611.168C587.12 614.888 590 617.288 593.6 617.288C597.2 617.288 600.08 614.888 600.08 611.168C600.08 607.448 597.2 605.048 593.6 605.048C590 605.048 587.12 607.448 587.12 611.168ZM590.72 611.168C590.72 609.416 591.8 608.216 593.6 608.216C595.4 608.216 596.48 609.416 596.48 611.168C596.48 612.92 595.4 614.12 593.6 614.12C591.8 614.12 590.72 612.92 590.72 611.168ZM604.6 617H608.2V611.192C608.2 609.68 608.488 608.216 610.36 608.216C612.016 608.216 611.968 609.968 611.968 610.832V617H615.568V610.832C615.568 609.392 616.096 608.216 617.752 608.216C618.928 608.216 619.336 609.128 619.336 610.208V617H622.936V610.112C622.936 607.28 621.976 605.048 618.808 605.048C617.08 605.048 615.952 605.648 615.112 607.136C614.488 605.72 613.144 605.048 611.512 605.048C609.76 605.048 608.584 606.008 608.104 606.92H608.056V605.336H604.6V617ZM627.883 617H631.483V611.192C631.483 609.68 631.771 608.216 633.643 608.216C635.299 608.216 635.251 609.968 635.251 610.832V617H638.851V610.832C638.851 609.392 639.379 608.216 641.035 608.216C642.211 608.216 642.619 609.128 642.619 610.208V617H646.219V610.112C646.219 607.28 645.259 605.048 642.091 605.048C640.363 605.048 639.235 605.648 638.395 607.136C637.771 605.72 636.427 605.048 634.795 605.048C633.043 605.048 631.867 606.008 631.387 606.92H631.339V605.336H627.883V617ZM662.398 605.336H658.798V611.144C658.798 612.656 658.51 614.12 656.638 614.12C654.79 614.12 654.766 612.392 654.766 611.048V605.336H651.166V611.768C651.166 614.888 651.838 617.288 655.486 617.288C657.238 617.288 658.414 616.328 658.894 615.416H658.942V617H662.398V605.336ZM667.347 617H670.947V611.192C670.947 609.68 671.235 608.216 673.107 608.216C674.955 608.216 674.979 609.944 674.979 611.288V617H678.579V610.568C678.579 607.448 677.907 605.048 674.259 605.048C672.507 605.048 671.331 606.008 670.851 606.92H670.803V605.336H667.347V617ZM683.576 617H687.176V605.336H683.576V617ZM683.288 601.664C683.288 602.816 684.224 603.752 685.376 603.752C686.528 603.752 687.464 602.816 687.464 601.664C687.464 600.512 686.528 599.576 685.376 599.576C684.224 599.576 683.288 600.512 683.288 601.664ZM700.107 605.336H696.939V601.88H693.339V605.336H691.035V608.216H693.339V613.76C693.339 616.304 695.187 617.288 697.587 617.288C698.427 617.288 699.315 617.216 700.107 616.928V613.928C699.795 614.216 699.027 614.264 698.643 614.264C697.083 614.264 696.939 613.352 696.939 612.104V608.216H700.107V605.336ZM716.336 605.336H712.64L710.072 613.04H710.024L707.024 605.336H703.136L708.248 617.096L707.984 617.768C707.48 619.04 707.216 619.736 705.584 619.736C704.984 619.736 704.456 619.616 703.904 619.376L703.424 622.328C704.288 622.616 705.2 622.76 706.112 622.76C709.544 622.76 710.096 621.368 711.056 618.896L716.336 605.336ZM717.941 614.936C717.941 616.16 718.925 617.144 720.149 617.144C721.373 617.144 722.357 616.16 722.357 614.936C722.357 613.712 721.373 612.728 720.149 612.728C718.925 612.728 717.941 613.712 717.941 614.936Z" fill="white"/>
<path d="M256.054 804H259.798V787.008H256.054V804ZM275.897 804H279.497V795.216H282.161V792.336H279.497V790.488C279.497 788.952 280.073 788.592 281.225 788.592C281.657 788.592 281.993 788.688 282.401 788.832L282.569 785.784C281.897 785.616 281.177 785.568 280.457 785.568C276.545 785.568 275.897 787.728 275.897 790.272V792.336H273.521V795.216H275.897V804ZM294.452 800.136C293.852 800.952 293.06 801.552 291.884 801.552C290.492 801.552 289.46 800.664 289.172 799.296H297.524V798.168C297.524 794.448 295.412 792.048 292.052 792.048C288.452 792.048 285.572 794.448 285.572 798.168C285.572 801.888 288.452 804.288 292.052 804.288C293.924 804.288 295.82 803.448 296.972 801.984L294.452 800.136ZM289.172 796.848C289.268 795.72 290.132 794.64 291.716 794.64C293.012 794.64 293.948 795.648 293.924 796.848H289.172ZM310.633 800.136C310.033 800.952 309.241 801.552 308.065 801.552C306.673 801.552 305.641 800.664 305.353 799.296H313.705V798.168C313.705 794.448 311.593 792.048 308.233 792.048C304.633 792.048 301.753 794.448 301.753 798.168C301.753 801.888 304.633 804.288 308.233 804.288C310.105 804.288 312.001 803.448 313.153 801.984L310.633 800.136ZM305.353 796.848C305.449 795.72 306.313 794.64 307.897 794.64C309.193 794.64 310.129 795.648 310.105 796.848H305.353ZM318.343 804H321.943V785.856H318.343V804ZM346.703 793.608C345.575 792.456 343.919 792.048 342.551 792.048C338.951 792.048 336.071 794.448 336.071 798.168C336.071 801.888 338.951 804.288 342.551 804.288C343.919 804.288 345.575 803.88 346.703 802.728L344.327 800.232C343.919 800.712 343.343 801.12 342.551 801.12C340.751 801.12 339.671 799.92 339.671 798.168C339.671 796.416 340.751 795.216 342.551 795.216C343.295 795.216 343.967 795.6 344.327 796.104L346.703 793.608ZM349.977 798.168C349.977 801.888 352.857 804.288 356.457 804.288C360.057 804.288 362.937 801.888 362.937 798.168C362.937 794.448 360.057 792.048 356.457 792.048C352.857 792.048 349.977 794.448 349.977 798.168ZM353.577 798.168C353.577 796.416 354.657 795.216 356.457 795.216C358.257 795.216 359.337 796.416 359.337 798.168C359.337 799.92 358.257 801.12 356.457 801.12C354.657 801.12 353.577 799.92 353.577 798.168ZM367.457 804H371.057V798.192C371.057 796.68 371.345 795.216 373.217 795.216C375.065 795.216 375.089 796.944 375.089 798.288V804H378.689V797.568C378.689 794.448 378.017 792.048 374.369 792.048C372.617 792.048 371.441 793.008 370.961 793.92H370.913V792.336H367.457V804ZM392.566 804H396.166V792.336H392.566V804ZM392.278 788.664C392.278 789.816 393.214 790.752 394.366 790.752C395.518 790.752 396.454 789.816 396.454 788.664C396.454 787.512 395.518 786.576 394.366 786.576C393.214 786.576 392.278 787.512 392.278 788.664ZM384.886 804H388.486V795.216H391.15V792.336H388.486V790.488C388.486 788.952 389.062 788.592 390.214 788.592C390.646 788.592 390.982 788.688 391.39 788.832L391.558 785.784C390.886 785.616 390.166 785.568 389.446 785.568C385.534 785.568 384.886 787.728 384.886 790.272V792.336H382.51V795.216H384.886V804ZM413.396 785.856H409.796V793.584H409.748C408.932 792.456 407.54 792.048 406.052 792.048C402.74 792.048 400.724 795.024 400.724 798.264C400.724 801.792 403.004 804.288 406.46 804.288C408.092 804.288 409.484 803.304 410.036 802.464H410.084V804H413.396V785.856ZM410.084 798.168C410.084 799.92 409.004 801.12 407.204 801.12C405.404 801.12 404.324 799.92 404.324 798.168C404.324 796.416 405.404 795.216 407.204 795.216C409.004 795.216 410.084 796.416 410.084 798.168ZM427.193 800.136C426.593 800.952 425.801 801.552 424.625 801.552C423.233 801.552 422.201 800.664 421.913 799.296H430.265V798.168C430.265 794.448 428.153 792.048 424.793 792.048C421.193 792.048 418.313 794.448 418.313 798.168C418.313 801.888 421.193 804.288 424.793 804.288C426.665 804.288 428.561 803.448 429.713 801.984L427.193 800.136ZM421.913 796.848C422.009 795.72 422.873 794.64 424.457 794.64C425.753 794.64 426.689 795.648 426.665 796.848H421.913ZM434.854 804H438.454V798.192C438.454 796.68 438.742 795.216 440.614 795.216C442.462 795.216 442.486 796.944 442.486 798.288V804H446.086V797.568C446.086 794.448 445.414 792.048 441.766 792.048C440.014 792.048 438.838 793.008 438.358 793.92H438.31V792.336H434.854V804ZM458.979 792.336H455.811V788.88H452.211V792.336H449.907V795.216H452.211V800.76C452.211 803.304 454.059 804.288 456.459 804.288C457.299 804.288 458.187 804.216 458.979 803.928V800.928C458.667 801.216 457.899 801.264 457.515 801.264C455.955 801.264 455.811 800.352 455.811 799.104V795.216H458.979V792.336ZM475.59 804H479.214L481.374 796.248H481.422L483.846 804H487.398L491.55 792.336H487.902L485.718 799.656H485.67L483.51 792.336H479.574L477.582 799.656H477.534L475.158 792.336H471.318L475.59 804ZM495.102 785.856V804H498.702V798.192C498.702 796.68 498.99 795.216 500.862 795.216C502.71 795.216 502.734 796.944 502.734 798.288V804H506.334V797.568C506.334 794.448 505.662 792.048 502.014 792.048C500.262 792.048 499.086 793.008 498.75 793.92H498.702V785.856H495.102ZM519.804 800.136C519.204 800.952 518.412 801.552 517.236 801.552C515.844 801.552 514.812 800.664 514.524 799.296H522.876V798.168C522.876 794.448 520.764 792.048 517.404 792.048C513.804 792.048 510.924 794.448 510.924 798.168C510.924 801.888 513.804 804.288 517.404 804.288C519.276 804.288 521.172 803.448 522.324 801.984L519.804 800.136ZM514.524 796.848C514.62 795.72 515.484 794.64 517.068 794.64C518.364 794.64 519.3 795.648 519.276 796.848H514.524ZM527.465 804H531.065V798.192C531.065 796.68 531.353 795.216 533.225 795.216C535.073 795.216 535.097 796.944 535.097 798.288V804H538.697V797.568C538.697 794.448 538.025 792.048 534.377 792.048C532.625 792.048 531.449 793.008 530.969 793.92H530.921V792.336H527.465V804ZM553.556 804H557.3V787.008H553.556V804ZM572.151 785.856V804H575.751V798.192C575.751 796.68 576.039 795.216 577.911 795.216C579.759 795.216 579.783 796.944 579.783 798.288V804H583.383V797.568C583.383 794.448 582.711 792.048 579.063 792.048C577.311 792.048 576.135 793.008 575.799 793.92H575.751V785.856H572.151ZM595.652 804H598.964V798.072C598.964 794.184 597.836 792.048 593.636 792.048C591.74 792.048 589.82 792.672 588.5 793.92L590.42 795.888C591.188 795.024 592.172 794.496 593.348 794.496C594.596 794.496 595.652 795.312 595.652 796.584C592.652 796.584 587.756 796.656 587.756 800.688C587.756 803.04 589.724 804.288 591.908 804.288C593.372 804.288 594.812 803.784 595.604 802.536H595.652V804ZM595.652 798.888V799.656C595.652 801.096 594.332 801.84 592.916 801.84C592.124 801.84 591.212 801.432 591.212 800.568C591.212 798.984 593.66 798.888 594.764 798.888H595.652ZM607.223 804H611.039L615.647 792.336H612.023L609.287 800.256H609.239L606.287 792.336H602.399L607.223 804ZM627.879 800.136C627.279 800.952 626.487 801.552 625.311 801.552C623.919 801.552 622.887 800.664 622.599 799.296H630.951V798.168C630.951 794.448 628.839 792.048 625.479 792.048C621.879 792.048 618.999 794.448 618.999 798.168C618.999 801.888 621.879 804.288 625.479 804.288C627.351 804.288 629.247 803.448 630.399 801.984L627.879 800.136ZM622.599 796.848C622.695 795.72 623.559 794.64 625.143 794.64C626.439 794.64 627.375 795.648 627.351 796.848H622.599ZM644.61 798.168C644.61 801.888 647.49 804.288 651.09 804.288C654.69 804.288 657.57 801.888 657.57 798.168C657.57 794.448 654.69 792.048 651.09 792.048C647.49 792.048 644.61 794.448 644.61 798.168ZM648.21 798.168C648.21 796.416 649.29 795.216 651.09 795.216C652.89 795.216 653.97 796.416 653.97 798.168C653.97 799.92 652.89 801.12 651.09 801.12C649.29 801.12 648.21 799.92 648.21 798.168ZM662.09 804H665.69V798.192C665.69 796.68 665.978 795.216 667.85 795.216C669.698 795.216 669.722 796.944 669.722 798.288V804H673.322V797.568C673.322 794.448 672.65 792.048 669.002 792.048C667.25 792.048 666.074 793.008 665.594 793.92H665.546V792.336H662.09V804ZM686.791 800.136C686.191 800.952 685.399 801.552 684.223 801.552C682.831 801.552 681.799 800.664 681.511 799.296H689.863V798.168C689.863 794.448 687.751 792.048 684.391 792.048C680.791 792.048 677.911 794.448 677.911 798.168C677.911 801.888 680.791 804.288 684.391 804.288C686.263 804.288 688.159 803.448 689.311 801.984L686.791 800.136ZM681.511 796.848C681.607 795.72 682.471 794.64 684.055 794.64C685.351 794.64 686.287 795.648 686.263 796.848H681.511ZM712.762 793.584C711.682 792.432 709.978 792.048 708.442 792.048C705.994 792.048 703.546 793.248 703.546 795.984C703.546 800.424 709.618 798.84 709.618 800.712C709.618 801.336 708.802 801.552 707.986 801.552C706.906 801.552 706.114 801.096 705.442 800.28L703.258 802.704C704.41 803.88 706.21 804.288 707.842 804.288C710.338 804.288 713.218 803.424 713.218 800.448C713.218 796.008 707.146 797.472 707.146 795.744C707.146 795.048 707.866 794.784 708.466 794.784C709.33 794.784 710.026 795.12 710.554 795.768L712.762 793.584ZM717.031 798.168C717.031 801.888 719.911 804.288 723.511 804.288C727.111 804.288 729.991 801.888 729.991 798.168C729.991 794.448 727.111 792.048 723.511 792.048C719.911 792.048 717.031 794.448 717.031 798.168ZM720.631 798.168C720.631 796.416 721.711 795.216 723.511 795.216C725.311 795.216 726.391 796.416 726.391 798.168C726.391 799.92 725.311 801.12 723.511 801.12C721.711 801.12 720.631 799.92 720.631 798.168ZM734.56 804H738.16V785.856H734.56V804ZM743.194 804H746.794V792.336H743.194V804ZM742.906 788.664C742.906 789.816 743.842 790.752 744.994 790.752C746.146 790.752 747.082 789.816 747.082 788.664C747.082 787.512 746.146 786.576 744.994 786.576C743.842 786.576 742.906 787.512 742.906 788.664ZM764.021 785.856H760.421V793.584H760.373C759.557 792.456 758.165 792.048 756.677 792.048C753.365 792.048 751.349 795.024 751.349 798.264C751.349 801.792 753.629 804.288 757.085 804.288C758.717 804.288 760.109 803.304 760.661 802.464H760.709V804H764.021V785.856ZM760.709 798.168C760.709 799.92 759.629 801.12 757.829 801.12C756.029 801.12 754.949 799.92 754.949 798.168C754.949 796.416 756.029 795.216 757.829 795.216C759.629 795.216 760.709 796.416 760.709 798.168ZM330.133 833.584C329.053 832.432 327.349 832.048 325.813 832.048C323.365 832.048 320.917 833.248 320.917 835.984C320.917 840.424 326.989 838.84 326.989 840.712C326.989 841.336 326.173 841.552 325.357 841.552C324.277 841.552 323.485 841.096 322.813 840.28L320.629 842.704C321.781 843.88 323.581 844.288 325.213 844.288C327.709 844.288 330.589 843.424 330.589 840.448C330.589 836.008 324.517 837.472 324.517 835.744C324.517 835.048 325.237 834.784 325.837 834.784C326.701 834.784 327.397 835.12 327.925 835.768L330.133 833.584ZM334.403 838.168C334.403 841.888 337.283 844.288 340.883 844.288C344.483 844.288 347.363 841.888 347.363 838.168C347.363 834.448 344.483 832.048 340.883 832.048C337.283 832.048 334.403 834.448 334.403 838.168ZM338.003 838.168C338.003 836.416 339.083 835.216 340.883 835.216C342.683 835.216 343.763 836.416 343.763 838.168C343.763 839.92 342.683 841.12 340.883 841.12C339.083 841.12 338.003 839.92 338.003 838.168ZM363.115 832.336H359.515V838.144C359.515 839.656 359.227 841.12 357.355 841.12C355.507 841.12 355.483 839.392 355.483 838.048V832.336H351.883V838.768C351.883 841.888 352.555 844.288 356.203 844.288C357.955 844.288 359.131 843.328 359.611 842.416H359.659V844H363.115V832.336ZM368.064 844H371.664V839.128C371.664 836.8 372 835.216 374.736 835.216C375.264 835.216 375.768 835.312 376.272 835.456V832.168C375.936 832.072 375.48 832.048 375.072 832.048C373.488 832.048 372.48 832.792 371.712 834.208H371.664V832.336H368.064V844ZM390.088 833.608C388.96 832.456 387.304 832.048 385.936 832.048C382.336 832.048 379.456 834.448 379.456 838.168C379.456 841.888 382.336 844.288 385.936 844.288C387.304 844.288 388.96 843.88 390.088 842.728L387.712 840.232C387.304 840.712 386.728 841.12 385.936 841.12C384.136 841.12 383.056 839.92 383.056 838.168C383.056 836.416 384.136 835.216 385.936 835.216C386.68 835.216 387.352 835.6 387.712 836.104L390.088 833.608ZM402.314 840.136C401.714 840.952 400.922 841.552 399.746 841.552C398.354 841.552 397.322 840.664 397.034 839.296H405.386V838.168C405.386 834.448 403.274 832.048 399.914 832.048C396.314 832.048 393.434 834.448 393.434 838.168C393.434 841.888 396.314 844.288 399.914 844.288C401.786 844.288 403.682 843.448 404.834 841.984L402.314 840.136ZM397.034 836.848C397.13 835.72 397.994 834.64 399.578 834.64C400.874 834.64 401.81 835.648 401.786 836.848H397.034ZM427.421 832.336H424.253V828.88H420.653V832.336H418.349V835.216H420.653V840.76C420.653 843.304 422.501 844.288 424.901 844.288C425.741 844.288 426.629 844.216 427.421 843.928V840.928C427.109 841.216 426.341 841.264 425.957 841.264C424.397 841.264 424.253 840.352 424.253 839.104V835.216H427.421V832.336ZM431.218 838.168C431.218 841.888 434.098 844.288 437.698 844.288C441.298 844.288 444.178 841.888 444.178 838.168C444.178 834.448 441.298 832.048 437.698 832.048C434.098 832.048 431.218 834.448 431.218 838.168ZM434.818 838.168C434.818 836.416 435.898 835.216 437.698 835.216C439.498 835.216 440.578 836.416 440.578 838.168C440.578 839.92 439.498 841.12 437.698 841.12C435.898 841.12 434.818 839.92 434.818 838.168ZM458.2 844H461.8V838.096H461.848L465.784 844H470.32L465.568 837.592L470.2 832.336H465.784L461.8 836.944V825.856H458.2V844ZM482.456 840.136C481.856 840.952 481.064 841.552 479.888 841.552C478.496 841.552 477.464 840.664 477.176 839.296H485.528V838.168C485.528 834.448 483.416 832.048 480.056 832.048C476.456 832.048 473.576 834.448 473.576 838.168C473.576 841.888 476.456 844.288 480.056 844.288C481.928 844.288 483.824 843.448 484.976 841.984L482.456 840.136ZM477.176 836.848C477.272 835.72 478.136 834.64 479.72 834.64C481.016 834.64 481.952 835.648 481.928 836.848H477.176ZM498.637 840.136C498.037 840.952 497.245 841.552 496.069 841.552C494.677 841.552 493.645 840.664 493.357 839.296H501.709V838.168C501.709 834.448 499.597 832.048 496.237 832.048C492.637 832.048 489.757 834.448 489.757 838.168C489.757 841.888 492.637 844.288 496.237 844.288C498.109 844.288 500.005 843.448 501.157 841.984L498.637 840.136ZM493.357 836.848C493.453 835.72 494.317 834.64 495.901 834.64C497.197 834.64 498.133 835.648 498.109 836.848H493.357ZM506.635 849.472H510.235V842.752H510.283C511.099 843.88 512.491 844.288 513.979 844.288C517.291 844.288 519.307 841.312 519.307 838.072C519.307 834.544 517.027 832.048 513.571 832.048C511.939 832.048 510.547 833.032 509.995 833.872H509.947V832.336H506.635V849.472ZM509.947 838.168C509.947 836.416 511.027 835.216 512.827 835.216C514.627 835.216 515.707 836.416 515.707 838.168C515.707 839.92 514.627 841.12 512.827 841.12C511.027 841.12 509.947 839.92 509.947 838.168ZM533.317 844H536.917V839.128C536.917 836.8 537.253 835.216 539.989 835.216C540.517 835.216 541.021 835.312 541.525 835.456V832.168C541.189 832.072 540.733 832.048 540.325 832.048C538.741 832.048 537.733 832.792 536.965 834.208H536.917V832.336H533.317V844ZM553.589 840.136C552.989 840.952 552.197 841.552 551.021 841.552C549.629 841.552 548.597 840.664 548.309 839.296H556.661V838.168C556.661 834.448 554.549 832.048 551.189 832.048C547.589 832.048 544.709 834.448 544.709 838.168C544.709 841.888 547.589 844.288 551.189 844.288C553.061 844.288 554.957 843.448 556.109 841.984L553.589 840.136ZM548.309 836.848C548.405 835.72 549.269 834.64 550.853 834.64C552.149 834.64 553.085 835.648 553.061 836.848H548.309ZM562.498 844H566.098V835.216H568.762V832.336H566.098V830.488C566.098 828.952 566.674 828.592 567.826 828.592C568.258 828.592 568.594 828.688 569.002 828.832L569.17 825.784C568.498 825.616 567.778 825.568 567.058 825.568C563.146 825.568 562.498 827.728 562.498 830.272V832.336H560.122V835.216H562.498V844ZM581.053 840.136C580.453 840.952 579.661 841.552 578.485 841.552C577.093 841.552 576.061 840.664 575.773 839.296H584.125V838.168C584.125 834.448 582.013 832.048 578.653 832.048C575.053 832.048 572.173 834.448 572.173 838.168C572.173 841.888 575.053 844.288 578.653 844.288C580.525 844.288 582.421 843.448 583.573 841.984L581.053 840.136ZM575.773 836.848C575.869 835.72 576.733 834.64 578.317 834.64C579.613 834.64 580.549 835.648 580.525 836.848H575.773ZM588.714 844H592.314V839.128C592.314 836.8 592.65 835.216 595.386 835.216C595.914 835.216 596.418 835.312 596.922 835.456V832.168C596.586 832.072 596.13 832.048 595.722 832.048C594.138 832.048 593.13 832.792 592.362 834.208H592.314V832.336H588.714V844ZM600.888 844H604.488V839.128C604.488 836.8 604.824 835.216 607.56 835.216C608.088 835.216 608.592 835.312 609.096 835.456V832.168C608.76 832.072 608.304 832.048 607.896 832.048C606.312 832.048 605.304 832.792 604.536 834.208H604.488V832.336H600.888V844ZM613.109 844H616.709V832.336H613.109V844ZM612.821 828.664C612.821 829.816 613.757 830.752 614.909 830.752C616.061 830.752 616.997 829.816 616.997 828.664C616.997 827.512 616.061 826.576 614.909 826.576C613.757 826.576 612.821 827.512 612.821 828.664ZM621.695 844H625.295V838.192C625.295 836.68 625.583 835.216 627.455 835.216C629.303 835.216 629.327 836.944 629.327 838.288V844H632.927V837.568C632.927 834.448 632.255 832.048 628.607 832.048C626.855 832.048 625.679 833.008 625.199 833.92H625.151V832.336H621.695V844ZM650.117 832.336H646.805V833.872H646.757C646.205 833.032 644.813 832.048 642.773 832.048C639.461 832.048 637.445 835.024 637.445 838.12C637.445 841.648 639.725 844.144 643.181 844.144C644.261 844.144 645.653 843.736 646.469 842.608H646.517V843.736C646.517 845.392 645.485 846.592 643.301 846.592C641.837 846.592 640.613 846.016 639.509 845.08L637.517 848.056C639.197 849.4 641.309 849.76 643.373 849.76C647.885 849.76 650.117 847.408 650.117 843.016V832.336ZM641.045 838.096C641.045 836.584 642.293 835.216 643.925 835.216C645.557 835.216 646.805 836.584 646.805 838.096C646.805 839.608 645.557 840.976 643.925 840.976C642.293 840.976 641.045 839.608 641.045 838.096ZM672.839 832.336H669.671V828.88H666.071V832.336H663.767V835.216H666.071V840.76C666.071 843.304 667.919 844.288 670.319 844.288C671.159 844.288 672.047 844.216 672.839 843.928V840.928C672.527 841.216 671.759 841.264 671.375 841.264C669.815 841.264 669.671 840.352 669.671 839.104V835.216H672.839V832.336ZM676.637 838.168C676.637 841.888 679.517 844.288 683.117 844.288C686.717 844.288 689.597 841.888 689.597 838.168C689.597 834.448 686.717 832.048 683.117 832.048C679.517 832.048 676.637 834.448 676.637 838.168ZM680.237 838.168C680.237 836.416 681.317 835.216 683.117 835.216C684.917 835.216 685.997 836.416 685.997 838.168C685.997 839.92 684.917 841.12 683.117 841.12C681.317 841.12 680.237 839.92 680.237 838.168ZM694.189 841.936C694.189 843.16 695.173 844.144 696.397 844.144C697.621 844.144 698.605 843.16 698.605 841.936C698.605 840.712 697.621 839.728 696.397 839.728C695.173 839.728 694.189 840.712 694.189 841.936Z" fill="white"/>
<path d="M49.728 45H53.472V38.376H56.208C59.784 38.376 62.496 37.152 62.496 33.168C62.496 29.136 59.568 28.008 56.04 28.008H49.728V45ZM53.472 31.176H55.392C56.832 31.176 58.608 31.416 58.608 33.168C58.608 34.752 57.288 35.208 55.968 35.208H53.472V31.176ZM66.3572 39.168C66.3572 42.888 69.2372 45.288 72.8372 45.288C76.4372 45.288 79.3172 42.888 79.3172 39.168C79.3172 35.448 76.4372 33.048 72.8372 33.048C69.2372 33.048 66.3572 35.448 66.3572 39.168ZM69.9572 39.168C69.9572 37.416 71.0372 36.216 72.8372 36.216C74.6372 36.216 75.7172 37.416 75.7172 39.168C75.7172 40.92 74.6372 42.12 72.8372 42.12C71.0372 42.12 69.9572 40.92 69.9572 39.168ZM86.7176 45H90.3416L92.5016 37.248H92.5496L94.9736 45H98.5256L102.678 33.336H99.0296L96.8456 40.656H96.7976L94.6376 33.336H90.7016L88.7096 40.656H88.6616L86.2856 33.336H82.4456L86.7176 45ZM114.75 41.136C114.15 41.952 113.358 42.552 112.182 42.552C110.79 42.552 109.758 41.664 109.47 40.296H117.822V39.168C117.822 35.448 115.71 33.048 112.35 33.048C108.75 33.048 105.87 35.448 105.87 39.168C105.87 42.888 108.75 45.288 112.35 45.288C114.222 45.288 116.118 44.448 117.27 42.984L114.75 41.136ZM109.47 37.848C109.566 36.72 110.43 35.64 112.014 35.64C113.31 35.64 114.246 36.648 114.222 37.848H109.47ZM122.411 45H126.011V40.128C126.011 37.8 126.347 36.216 129.083 36.216C129.611 36.216 130.115 36.312 130.619 36.456V33.168C130.283 33.072 129.827 33.048 129.419 33.048C127.835 33.048 126.827 33.792 126.059 35.208H126.011V33.336H122.411V45ZM158.87 28.008H155.126V38.304C155.126 40.392 153.686 41.976 151.718 41.976C149.726 41.976 148.286 40.392 148.286 38.304V28.008H144.542V38.448C144.542 42.456 146.99 45.432 151.718 45.432C156.422 45.432 158.87 42.456 158.87 38.448V28.008ZM173.083 34.584C172.003 33.432 170.299 33.048 168.763 33.048C166.315 33.048 163.867 34.248 163.867 36.984C163.867 41.424 169.939 39.84 169.939 41.712C169.939 42.336 169.123 42.552 168.307 42.552C167.227 42.552 166.435 42.096 165.763 41.28L163.579 43.704C164.731 44.88 166.531 45.288 168.163 45.288C170.659 45.288 173.539 44.424 173.539 41.448C173.539 37.008 167.467 38.472 167.467 36.744C167.467 36.048 168.187 35.784 168.787 35.784C169.651 35.784 170.347 36.12 170.875 36.768L173.083 34.584ZM186.304 41.136C185.704 41.952 184.912 42.552 183.736 42.552C182.344 42.552 181.312 41.664 181.024 40.296H189.376V39.168C189.376 35.448 187.264 33.048 183.904 33.048C180.304 33.048 177.424 35.448 177.424 39.168C177.424 42.888 180.304 45.288 183.904 45.288C185.776 45.288 187.672 44.448 188.824 42.984L186.304 41.136ZM181.024 37.848C181.12 36.72 181.984 35.64 183.568 35.64C184.864 35.64 185.8 36.648 185.776 37.848H181.024ZM193.966 45H197.566V40.128C197.566 37.8 197.902 36.216 200.638 36.216C201.166 36.216 201.67 36.312 202.174 36.456V33.168C201.838 33.072 201.382 33.048 200.974 33.048C199.39 33.048 198.382 33.792 197.614 35.208H197.566V33.336H193.966V45Z" fill="#595D71"/>
<ellipse cx="669.147" cy="118.053" rx="5.01623" ry="9.19643" transform="rotate(3.07044 669.147 118.053)" fill="#001454"/>
<ellipse cx="720.981" cy="117.636" rx="5.01623" ry="9.19643" transform="rotate(3.07044 720.981 117.636)" fill="#001454"/>
<path d="M683.709 143.723C690.606 146.014 707.745 147.686 716.419 135.355" stroke="#001454" stroke-width="8" stroke-linecap="round"/>
<path d="M663.909 72.1048C661.428 71.5726 659.116 71.0418 657.04 70.5213C671.27 66.6656 678.329 57.214 682.503 51.0228C682.843 50.5198 683.149 50.0593 683.432 49.6356C683.855 48.9999 684.223 48.4473 684.562 47.9594C684.904 48.6389 685.305 49.5151 685.77 50.6337C687.998 55.9994 690.426 60.1975 693.158 62.9106C695.994 65.7273 699.647 67.3387 703.658 66.0731C707.201 64.9551 709.941 61.8709 712.107 58.3074C714.013 55.1708 715.782 51.1504 717.422 46.3862C717.609 46.9763 717.805 47.5834 718.011 48.1995C721.478 58.605 728.494 74.8088 746.397 81.8185C746.899 82.0149 747.376 82.2054 747.83 82.3902C737.07 82.3822 720.316 80.6915 710.533 79.6683C700.75 78.6452 679.408 75.4291 663.909 72.1048ZM685.979 46.1808C685.979 46.1811 685.974 46.1854 685.963 46.193C685.974 46.1843 685.979 46.1805 685.979 46.1808ZM755.779 81.745C755.788 81.7401 755.797 81.7359 755.803 81.7325C755.804 81.7329 755.805 81.7333 755.806 81.7337C755.803 81.7351 755.799 81.7365 755.796 81.7381C755.791 81.7401 755.786 81.7424 755.779 81.745Z" stroke="#001454" stroke-width="8"/>
</svg>
