<svg width="16" height="122" viewBox="0 0 16 122" fill="none" xmlns="http://www.w3.org/2000/svg">
<path d="M9 1C9 0.447715 8.55228 2.41411e-08 8 0C7.44772 -2.41411e-08 7 0.447715 7 1L9 1ZM7.29289 121.707C7.68341 122.098 8.31658 122.098 8.7071 121.707L15.0711 115.343C15.4616 114.953 15.4616 114.319 15.0711 113.929C14.6805 113.538 14.0474 113.538 13.6568 113.929L7.99999 119.586L2.34314 113.929C1.95262 113.538 1.31945 113.538 0.928927 113.929C0.538403 114.319 0.538403 114.953 0.928927 115.343L7.29289 121.707ZM7 1L6.99999 121L8.99999 121L9 1L7 1Z" fill="#FBF9F0"/>
</svg>
