<svg width="624" height="496" viewBox="0 0 624 496" fill="none" xmlns="http://www.w3.org/2000/svg">
<rect x="312" y="53" width="120" height="120" fill="#3A032D"/>
<rect x="144" y="53" width="120" height="120" fill="#FFC800"/>
<path d="M158.52 210.536L157.776 214.376H161.064V215.984H157.464L156.48 221H154.776L155.76 215.984H152.328L151.392 221H149.712L150.624 215.984H147.6V214.376H150.936L151.704 210.536H148.488V208.952H151.992L152.952 203.864H154.68L153.72 208.952H157.176L158.136 203.864H159.792L158.832 208.952H161.88V210.536H158.52ZM152.64 214.376H156.072L156.816 210.536H153.384L152.64 214.376ZM167.196 221H169.188V212.912H174.972V210.944H169.188V205.904H177.324V203.936H167.196V221ZM182.486 221H184.478V212.912H190.262V210.944H184.478V205.904H192.614V203.936H182.486V221ZM201.544 221.192H204.184L206.68 220.208L207.76 219.368L208.696 218.264L207.28 216.92L206.464 217.856L205.72 218.456L203.896 219.224H201.88L200.152 218.408L199.024 217.256L198.208 215.672L197.848 214.064V210.848L198.208 209.24L199.024 207.632L200.176 206.48L201.88 205.712H203.896L205.696 206.48L206.44 207.08L207.28 208.016L208.696 206.672L207.76 205.568L206.68 204.728L204.184 203.744H201.544L199.024 204.848L197.368 206.456L196.312 208.592L195.856 210.704V214.232L196.312 216.296L197.368 218.432L198.976 220.064L201.544 221.192ZM218.167 221.192H220.399L222.631 220.52L224.335 218.864L224.839 217.112V214.88L224.263 213.104L222.751 211.688L223.807 210.776L224.455 209.12V207.392L223.855 205.616L222.391 204.392L220.207 203.744H218.359L216.175 204.392L214.711 205.616L214.111 207.392V209.12L214.759 210.776L215.815 211.688L214.303 213.104L213.727 214.88V217.112L214.231 218.864L215.935 220.52L218.167 221.192ZM218.191 210.8L217.159 210.44L216.415 209.696L216.103 208.76V207.704L216.439 206.744L217.183 206.096L218.575 205.712H219.991L221.383 206.096L222.127 206.744L222.463 207.704V208.76L222.151 209.696L221.407 210.44L220.375 210.8H218.191ZM218.431 219.224L216.991 218.768L215.983 217.808L215.719 216.776V215.168L216.031 214.136L217.015 213.128L218.119 212.72H220.447L221.551 213.128L222.535 214.136L222.847 215.168V216.776L222.583 217.808L221.575 218.768L220.135 219.224H218.431ZM235.256 221.192H237.536L239.72 220.16L241.4 218.456L242.264 216.392L242.672 214.208V210.728L242.264 208.544L241.4 206.48L239.72 204.776L237.536 203.744H235.256L233.072 204.776L231.392 206.48L230.528 208.544L230.12 210.728V214.208L230.528 216.392L231.392 218.456L233.072 220.16L235.256 221.192ZM235.64 219.224L234.248 218.552L233.048 217.28L232.472 215.888L232.112 214.04V210.872L232.448 209.12L233.024 207.632L234.224 206.408L235.664 205.712H237.128L238.568 206.408L239.768 207.632L240.344 209.12L240.68 210.872V214.04L240.32 215.888L239.744 217.28L238.544 218.552L237.152 219.224H235.64ZM253.078 221.192H255.358L257.542 220.16L259.222 218.456L260.086 216.392L260.494 214.208V210.728L260.086 208.544L259.222 206.48L257.542 204.776L255.358 203.744H253.078L250.894 204.776L249.214 206.48L248.35 208.544L247.942 210.728V214.208L248.35 216.392L249.214 218.456L250.894 220.16L253.078 221.192ZM253.462 219.224L252.07 218.552L250.87 217.28L250.294 215.888L249.934 214.04V210.872L250.27 209.12L250.846 207.632L252.046 206.408L253.486 205.712H254.95L256.39 206.408L257.59 207.632L258.166 209.12L258.502 210.872V214.04L258.142 215.888L257.566 217.28L256.366 218.552L254.974 219.224H253.462Z" fill="#FFC800"/>
<path d="M326.52 210.536L325.776 214.376H329.064V215.984H325.464L324.48 221H322.776L323.76 215.984H320.328L319.392 221H317.712L318.624 215.984H315.6V214.376H318.936L319.704 210.536H316.488V208.952H319.992L320.952 203.864H322.68L321.72 208.952H325.176L326.136 203.864H327.792L326.832 208.952H329.88V210.536H326.52ZM320.64 214.376H324.072L324.816 210.536H321.384L320.64 214.376ZM337.236 221.192H339.78L342.324 220.064L343.884 218.408L344.58 216.536V214.784L343.884 212.936L342.204 211.256L339.9 210.392L343.452 205.496V203.936H334.788V205.904H340.812L337.476 210.488V212.072H339.012L341.1 212.912L342.156 214.016L342.588 215.072V216.272L342.132 217.4L341.172 218.408L339.372 219.224H337.596L335.964 218.552L335.052 217.64L333.636 219.056L334.812 220.184L337.236 221.192ZM360.684 221H362.796L356.58 203.936H354.996L348.78 221H350.892L352.668 215.888H358.908L360.684 221ZM353.364 213.92L355.788 206.936L358.212 213.92H353.364ZM372.253 221.192H374.533L376.717 220.16L378.397 218.456L379.261 216.392L379.669 214.208V210.728L379.261 208.544L378.397 206.48L376.717 204.776L374.533 203.744H372.253L370.069 204.776L368.389 206.48L367.525 208.544L367.117 210.728V214.208L367.525 216.392L368.389 218.456L370.069 220.16L372.253 221.192ZM372.637 219.224L371.245 218.552L370.045 217.28L369.469 215.888L369.109 214.04V210.872L369.445 209.12L370.021 207.632L371.221 206.408L372.661 205.712H374.125L375.565 206.408L376.765 207.632L377.341 209.12L377.677 210.872V214.04L377.317 215.888L376.741 217.28L375.541 218.552L374.149 219.224H372.637ZM387.35 221.192H389.894L392.438 220.064L393.998 218.408L394.694 216.536V214.784L393.998 212.936L392.318 211.256L390.014 210.392L393.566 205.496V203.936H384.902V205.904H390.926L387.59 210.488V212.072H389.126L391.214 212.912L392.27 214.016L392.702 215.072V216.272L392.246 217.4L391.286 218.408L389.486 219.224H387.71L386.078 218.552L385.166 217.64L383.75 219.056L384.926 220.184L387.35 221.192ZM399.302 221H409.694V219.032H402.014L408.446 211.928L409.502 209.768V207.464L407.918 204.968L405.422 203.744H402.83L400.31 204.872L399.254 205.976L400.67 207.392L401.51 206.528L403.214 205.712H404.942L406.55 206.48L407.51 208.04V209.36L406.766 210.848L399.302 219.224V221ZM415.211 221H421.475L424.163 219.944L425.819 218.264L426.875 216.152L427.403 214.04V210.896L426.875 208.784L425.819 206.672L424.163 204.992L421.475 203.936H415.211V221ZM417.203 219.032V205.904H421.115L423.035 206.696L424.163 207.848L424.979 209.408L425.411 211.136V213.8L424.955 215.528L424.163 217.088L423.059 218.216L421.091 219.032H417.203Z" fill="#3A032D"/>
<path d="M182.52 474.536L181.776 478.376H185.064V479.984H181.464L180.48 485H178.776L179.76 479.984H176.328L175.392 485H173.712L174.624 479.984H171.6V478.376H174.936L175.704 474.536H172.488V472.952H175.992L176.952 467.864H178.68L177.72 472.952H181.176L182.136 467.864H183.792L182.832 472.952H185.88V474.536H182.52ZM176.64 478.376H180.072L180.816 474.536H177.384L176.64 478.376ZM194.196 485.192H196.572L199.068 484.064L200.7 481.928L201.276 479.888V472.568L200.772 470.768L199.524 468.968L197.052 467.744H194.244L191.796 468.968L190.596 470.672L190.116 472.424V474.344L190.572 476L191.748 477.728L194.244 478.976H196.524L198.516 478.136L199.284 477.464V479.552L198.876 481.064L197.748 482.504L196.14 483.224H194.628L192.948 482.408L192.156 481.64L190.74 483.056L191.796 484.064L194.196 485.192ZM194.676 477.008L193.116 476.192L192.42 475.184L192.108 474.128V472.688L192.492 471.416L193.14 470.48L194.676 469.712H196.596L198.132 470.48L198.948 471.632L199.284 472.856V474.752L198.948 475.424L197.844 476.336L196.236 477.008H194.676ZM207.517 485H218.221V483.032H209.509V476.912H215.533V474.944H209.509V469.904H218.221V467.936H207.517V485ZM227.463 485.192H229.695L231.927 484.52L233.631 482.864L234.135 481.112V478.88L233.559 477.104L232.047 475.688L233.103 474.776L233.751 473.12V471.392L233.151 469.616L231.687 468.392L229.503 467.744H227.655L225.471 468.392L224.007 469.616L223.407 471.392V473.12L224.055 474.776L225.111 475.688L223.599 477.104L223.023 478.88V481.112L223.527 482.864L225.231 484.52L227.463 485.192ZM227.487 474.8L226.455 474.44L225.711 473.696L225.399 472.76V471.704L225.735 470.744L226.479 470.096L227.871 469.712H229.287L230.679 470.096L231.423 470.744L231.759 471.704V472.76L231.447 473.696L230.703 474.44L229.671 474.8H227.487ZM227.727 483.224L226.287 482.768L225.279 481.808L225.015 480.776V479.168L225.327 478.136L226.311 477.128L227.415 476.72H229.743L230.847 477.128L231.831 478.136L232.143 479.168V480.776L231.879 481.808L230.871 482.768L229.431 483.224H227.727ZM242.295 485.192H244.839L247.383 484.064L248.943 482.408L249.639 480.536V478.784L248.943 476.936L247.263 475.256L244.959 474.392L248.511 469.496V467.936H239.847V469.904H245.871L242.535 474.488V476.072H244.071L246.159 476.912L247.215 478.016L247.647 479.072V480.272L247.191 481.4L246.231 482.408L244.431 483.224H242.655L241.023 482.552L240.111 481.64L238.695 483.056L239.871 484.184L242.295 485.192ZM257.913 485.192H260.289L262.785 484.064L264.417 481.928L264.993 479.888V472.568L264.489 470.768L263.241 468.968L260.769 467.744H257.961L255.513 468.968L254.313 470.672L253.833 472.424V474.344L254.289 476L255.465 477.728L257.961 478.976H260.241L262.233 478.136L263.001 477.464V479.552L262.593 481.064L261.465 482.504L259.857 483.224H258.345L256.665 482.408L255.873 481.64L254.457 483.056L255.513 484.064L257.913 485.192ZM258.393 477.008L256.833 476.192L256.137 475.184L255.825 474.128V472.688L256.209 471.416L256.857 470.48L258.393 469.712H260.313L261.849 470.48L262.665 471.632L263.001 472.856V474.752L262.665 475.424L261.561 476.336L259.953 477.008H258.393ZM269.843 485H280.235V483.032H272.555L278.987 475.928L280.043 473.768V471.464L278.459 468.968L275.963 467.744H273.371L270.851 468.872L269.795 469.976L271.211 471.392L272.051 470.528L273.755 469.712H275.483L277.091 470.48L278.051 472.04V473.36L277.307 474.848L269.843 483.224V485Z" fill="#9E8392"/>
<path d="M350.52 474.536L349.776 478.376H353.064V479.984H349.464L348.48 485H346.776L347.76 479.984H344.328L343.392 485H341.712L342.624 479.984H339.6V478.376H342.936L343.704 474.536H340.488V472.952H343.992L344.952 467.864H346.68L345.72 472.952H349.176L350.136 467.864H351.792L350.832 472.952H353.88V474.536H350.52ZM344.64 478.376H348.072L348.816 474.536H345.384L344.64 478.376ZM359.196 485H361.188V476.912H366.972V474.944H361.188V469.904H369.324V467.936H359.196V485ZM374.486 485H385.19V483.032H376.478V476.912H382.502V474.944H376.478V469.904H385.19V467.936H374.486V485ZM393.352 485.192H395.896L398.44 484.064L400 482.408L400.696 480.536V478.544L400 476.696L398.32 475.016L396.112 474.152H393.208L392.44 474.488L393.16 469.904H399.496V467.936H391.432L390.4 475.448L392.032 476.624L393.52 476.12H395.704L397.168 476.672L398.272 477.8L398.704 478.856V480.248L398.248 481.376L397.288 482.408L395.488 483.224H393.712L392.08 482.552L391.168 481.64L389.752 483.056L390.928 484.184L393.352 485.192ZM408.877 485.192H411.421L413.965 484.064L415.525 482.408L416.221 480.536V478.544L415.525 476.696L413.845 475.016L411.637 474.152H408.733L407.965 474.488L408.685 469.904H415.021V467.936H406.957L405.925 475.448L407.557 476.624L409.045 476.12H411.229L412.693 476.672L413.797 477.8L414.229 478.856V480.248L413.773 481.376L412.813 482.408L411.013 483.224H409.237L407.605 482.552L406.693 481.64L405.277 483.056L406.453 484.184L408.877 485.192ZM423.922 485.192H426.466L429.01 484.064L430.57 482.408L431.266 480.536V478.784L430.57 476.936L428.89 475.256L426.586 474.392L430.138 469.496V467.936H421.474V469.904H427.498L424.162 474.488V476.072H425.698L427.786 476.912L428.842 478.016L429.274 479.072V480.272L428.818 481.4L427.858 482.408L426.058 483.224H424.282L422.65 482.552L421.738 481.64L420.322 483.056L421.498 484.184L423.922 485.192ZM436.666 485H438.898L445.834 469.376V467.936H435.706V469.904H443.506L436.666 485Z" fill="#FE5537"/>
<path d="M191.184 29H193.776V22.184H199.056L201.336 21.056L202.56 19.256L203.208 16.856L202.488 14.336L200.664 12.512L198.432 11.936H191.184V29ZM193.776 19.616V14.504H198.048L199.296 14.888L200.16 15.728L200.496 16.928L200.136 18.176L199.56 19.016L198.336 19.616H193.776ZM207.775 29H210.343V21.2L210.823 20.168L211.663 19.232L212.767 18.704H213.583L214.807 19.04L215.431 16.568L213.967 16.16H212.311L210.631 16.976L210.343 17.264V16.352H207.775V29ZM219.581 14.384H222.941V10.904H219.581V14.384ZM219.989 29H222.557V16.352H219.989V29ZM229.438 29H232.006V20.504L232.582 19.688L234.07 18.704H235.366L236.566 19.088L237.022 19.736V29H239.59V20.504L240.166 19.688L241.654 18.704H242.95L244.15 19.088L244.606 19.736V29H247.174V18.8L245.662 16.76L243.43 16.16H241.246L239.614 17.096L238.798 17.768L238.078 16.76L235.846 16.16H233.662L232.006 17.12V16.352H229.438V29ZM261.917 29.312L263.981 27.824L262.973 26.36V19.52L262.301 17.84L260.405 16.568L258.797 16.16H256.565L254.957 16.64L253.877 17.336L252.917 18.224L254.693 20.072L255.365 19.424L256.013 18.992L256.805 18.704H258.341L259.397 18.968L260.213 19.52L260.405 20V21.032L260.309 20.96L258.725 20.432H257.141L254.789 21.032L252.989 22.856L252.629 24.512V25.976L254.021 27.992L255.197 28.688L256.829 29.192H258.365L260.573 28.064L260.861 27.752L261.917 29.312ZM257.165 26.648L256.229 26.336L255.797 26.096L255.197 25.232V24.752L255.365 24.128L256.133 23.336L257.429 22.976H258.365L259.469 23.312L260.021 23.576L260.405 23.984V24.656L260.213 25.184L259.397 26.048L257.837 26.648H257.165ZM269.032 29H271.6V21.2L272.08 20.168L272.92 19.232L274.024 18.704H274.84L276.064 19.04L276.688 16.568L275.224 16.16H273.568L271.888 16.976L271.6 17.264V16.352H269.032V29ZM282.071 32.912H284.855L292.319 16.352H289.463L286.103 23.984L282.743 16.352H279.839L284.711 27.08L282.071 32.912ZM311.631 29.192H314.295L316.839 28.184L317.919 27.344L319.071 26L317.199 24.224L316.215 25.376L315.591 25.88L313.911 26.6H312.135L310.599 25.88L309.567 24.872L308.871 23.48L308.511 21.92V18.992L308.871 17.432L309.543 16.088L310.623 15.032L312.135 14.336H313.911L315.543 15.056L316.191 15.56L317.199 16.712L319.071 14.936L317.919 13.592L316.839 12.752L314.295 11.744H311.631L309.111 12.848L307.383 14.528L306.375 16.616L305.919 18.704V22.232L306.375 24.272L307.407 26.408L309.039 28.064L311.631 29.192ZM327.751 29.192H330.295L332.743 28.016L334.015 26.168L334.447 24.104V21.272L334.015 19.208L332.743 17.36L330.295 16.16H327.751L325.327 17.36L324.055 19.208L323.599 21.272V24.104L324.055 26.168L325.327 28.016L327.751 29.192ZM328.231 26.672L327.007 26.048L326.455 25.256L326.167 23.768V21.56L326.455 20.144L327.055 19.304L328.183 18.704H329.839L331.015 19.304L331.591 20.168L331.903 21.56V23.768L331.591 25.232L331.063 26.048L329.815 26.672H328.231ZM339.981 29H342.549V10.904H339.981V29ZM352.238 29.192H354.782L357.23 28.016L358.502 26.168L358.934 24.104V21.272L358.502 19.208L357.23 17.36L354.782 16.16H352.238L349.814 17.36L348.542 19.208L348.086 21.272V24.104L348.542 26.168L349.814 28.016L352.238 29.192ZM352.718 26.672L351.494 26.048L350.942 25.256L350.654 23.768V21.56L350.942 20.144L351.542 19.304L352.67 18.704H354.326L355.502 19.304L356.078 20.168L356.39 21.56V23.768L356.078 25.232L355.55 26.048L354.302 26.672H352.718ZM364.277 29H366.845V21.2L367.325 20.168L368.165 19.232L369.269 18.704H370.085L371.309 19.04L371.933 16.568L370.469 16.16H368.813L367.133 16.976L366.845 17.264V16.352H364.277V29ZM379.035 29.192H381.147L382.827 28.712L384.051 27.824L384.987 26.408V24.248L384.003 22.664L382.587 21.728L379.083 21.032L378.579 20.768L378.243 20.336V19.52L378.459 19.136L378.699 18.92L379.563 18.68H380.979L382.131 19.04L383.427 19.928L384.843 17.816L383.139 16.664L381.243 16.16H379.131L377.691 16.568L376.515 17.456L375.699 18.872V21.128L376.755 22.568L378.363 23.432L381.603 24.104L382.131 24.464L382.443 24.968V25.664L382.131 26.096L381.651 26.432L380.859 26.672H379.467L378.075 26.288L377.547 25.88L376.923 25.16L375.123 26.888L375.891 27.752L377.043 28.688L379.035 29.192Z" fill="#3A032D"/>
<path d="M180.092 293.192H182.876L185.54 292.208L186.74 290.816L187.364 289.496V287.096L186.596 285.2L184.652 283.856L179.804 282.512L178.724 281.744L178.532 281.384L178.34 280.472L178.604 279.512L179.372 278.72L180.548 278.336H182.324L184.268 278.84L185.876 279.776L187.268 277.592L185.42 276.44L182.708 275.744H180.164L177.908 276.488L176.324 278.144L175.652 280.256L175.988 282.32L176.804 283.616L178.724 284.96L183.38 286.256L184.316 286.76L184.772 287.672V288.872L184.484 289.448L184.052 289.976L182.468 290.6H180.572L178.676 290.048L177.764 289.448L177.116 288.632L175.244 290.432L175.988 291.368L177.428 292.376L180.092 293.192ZM196.786 293.192H198.802L200.914 292.664L202.762 291.44L201.418 289.376L199.954 290.264L198.514 290.648H197.29L196.042 290.048L195.034 288.632L194.794 288.056H203.554V285.176L202.978 283.52L201.394 281.36L198.946 280.16H196.786L194.338 281.36L192.73 283.52L192.226 285.32V288.08L192.73 289.832L194.338 291.992L196.786 293.192ZM194.818 285.512L194.986 284.72L196.018 283.328L197.194 282.704H198.49L199.714 283.376L200.698 284.744L200.962 285.512H194.818ZM212.967 293.192H214.983L216.975 292.544L218.703 290.816L216.927 289.04L215.511 290.36L214.671 290.648H213.471L212.247 290.048L211.215 288.632L210.975 287.768V285.632L211.191 284.72L212.223 283.328L213.375 282.704H214.743L215.559 282.992L216.879 284.312L218.727 282.584L216.975 280.808L214.983 280.16H212.967L210.543 281.36L208.935 283.52L208.407 285.32V288.08L208.935 289.832L210.543 291.992L212.967 293.192ZM226.702 293.192H229.246L231.694 292.016L232.966 290.168L233.398 288.104V285.272L232.966 283.208L231.694 281.36L229.246 280.16H226.702L224.278 281.36L223.006 283.208L222.55 285.272V288.104L223.006 290.168L224.278 292.016L226.702 293.192ZM227.182 290.672L225.958 290.048L225.406 289.256L225.118 287.768V285.56L225.406 284.144L226.006 283.304L227.134 282.704H228.79L229.966 283.304L230.542 284.168L230.854 285.56V287.768L230.542 289.232L230.014 290.048L228.766 290.672H227.182ZM239.197 293H241.765V284.504L242.341 283.688L243.829 282.704H245.101L246.301 283.088L246.757 283.736V293H249.325V282.8L247.813 280.76L245.581 280.16H243.421L241.765 281.12V280.352H239.197V293ZM259.355 293.192H261.611L263.075 292.304V293H265.619V274.904H263.051V280.832L262.859 280.688L261.419 280.16H259.307L256.859 281.36L255.251 283.52L254.723 285.32V288.08L255.251 289.832L256.859 292.016L259.355 293.192ZM259.835 290.648L258.515 290.024L257.531 288.632L257.291 287.792V285.632L257.531 284.72L258.539 283.352L259.739 282.68H261.107L261.899 282.968L262.667 283.448L263.051 283.928V288.872L262.451 289.736L261.131 290.648H259.835ZM280.709 293.312L282.773 291.824L281.765 290.36V283.52L281.093 281.84L279.197 280.568L277.589 280.16H275.357L273.749 280.64L272.669 281.336L271.709 282.224L273.485 284.072L274.157 283.424L274.805 282.992L275.597 282.704H277.133L278.189 282.968L279.005 283.52L279.197 284V285.032L279.101 284.96L277.517 284.432H275.933L273.581 285.032L271.781 286.856L271.421 288.512V289.976L272.813 291.992L273.989 292.688L275.621 293.192H277.157L279.365 292.064L279.653 291.752L280.709 293.312ZM275.957 290.648L275.021 290.336L274.589 290.096L273.989 289.232V288.752L274.157 288.128L274.925 287.336L276.221 286.976H277.157L278.261 287.312L278.813 287.576L279.197 287.984V288.656L279.005 289.184L278.189 290.048L276.629 290.648H275.957ZM287.824 293H290.392V285.2L290.872 284.168L291.712 283.232L292.816 282.704H293.632L294.856 283.04L295.48 280.568L294.016 280.16H292.36L290.68 280.976L290.392 281.264V280.352H287.824V293ZM300.863 296.912H303.647L311.111 280.352H308.255L304.895 287.984L301.535 280.352H298.631L303.503 291.08L300.863 296.912ZM330.423 293.192H333.087L335.631 292.184L336.711 291.344L337.863 290L335.991 288.224L335.007 289.376L334.383 289.88L332.703 290.6H330.927L329.391 289.88L328.359 288.872L327.663 287.48L327.303 285.92V282.992L327.663 281.432L328.335 280.088L329.415 279.032L330.927 278.336H332.703L334.335 279.056L334.983 279.56L335.991 280.712L337.863 278.936L336.711 277.592L335.631 276.752L333.087 275.744H330.423L327.903 276.848L326.175 278.528L325.167 280.616L324.711 282.704V286.232L325.167 288.272L326.199 290.408L327.831 292.064L330.423 293.192ZM346.543 293.192H349.087L351.535 292.016L352.807 290.168L353.239 288.104V285.272L352.807 283.208L351.535 281.36L349.087 280.16H346.543L344.119 281.36L342.847 283.208L342.391 285.272V288.104L342.847 290.168L344.119 292.016L346.543 293.192ZM347.023 290.672L345.799 290.048L345.247 289.256L344.959 287.768V285.56L345.247 284.144L345.847 283.304L346.975 282.704H348.631L349.807 283.304L350.383 284.168L350.695 285.56V287.768L350.383 289.232L349.855 290.048L348.607 290.672H347.023ZM358.774 293H361.342V274.904H358.774V293ZM371.03 293.192H373.574L376.022 292.016L377.294 290.168L377.726 288.104V285.272L377.294 283.208L376.022 281.36L373.574 280.16H371.03L368.606 281.36L367.334 283.208L366.878 285.272V288.104L367.334 290.168L368.606 292.016L371.03 293.192ZM371.51 290.672L370.286 290.048L369.734 289.256L369.446 287.768V285.56L369.734 284.144L370.334 283.304L371.462 282.704H373.118L374.294 283.304L374.87 284.168L375.182 285.56V287.768L374.87 289.232L374.342 290.048L373.094 290.672H371.51ZM383.069 293H385.637V285.2L386.117 284.168L386.957 283.232L388.061 282.704H388.877L390.101 283.04L390.725 280.568L389.261 280.16H387.605L385.925 280.976L385.637 281.264V280.352H383.069V293ZM397.827 293.192H399.939L401.619 292.712L402.843 291.824L403.779 290.408V288.248L402.795 286.664L401.379 285.728L397.875 285.032L397.371 284.768L397.035 284.336V283.52L397.251 283.136L397.491 282.92L398.355 282.68H399.771L400.923 283.04L402.219 283.928L403.635 281.816L401.931 280.664L400.035 280.16H397.923L396.483 280.568L395.307 281.456L394.491 282.872V285.128L395.547 286.568L397.155 287.432L400.395 288.104L400.923 288.464L401.235 288.968V289.664L400.923 290.096L400.443 290.432L399.651 290.672H398.259L396.867 290.288L396.339 289.88L395.715 289.16L393.915 290.888L394.683 291.752L395.835 292.688L397.827 293.192Z" fill="#3A032D"/>
<rect x="504" y="317" width="120" height="168" fill="#FFC800"/>
<rect y="317" width="120" height="168" fill="#FFC800"/>
<rect x="168" y="317" width="120" height="120" fill="#9E8392"/>
<rect x="336" y="317" width="120" height="120" fill="#FE5537"/>
<rect x="528" y="341" width="72" height="96" fill="#ECE9E0"/>
<rect x="24" y="341" width="72" height="96" fill="#FBF9F0"/>
<path d="M518.52 474.536L517.776 478.376H521.064V479.984H517.464L516.48 485H514.776L515.76 479.984H512.328L511.392 485H509.712L510.624 479.984H507.6V478.376H510.936L511.704 474.536H508.488V472.952H511.992L512.952 467.864H514.68L513.72 472.952H517.176L518.136 467.864H519.792L518.832 472.952H521.88V474.536H518.52ZM512.64 478.376H516.072L516.816 474.536H513.384L512.64 478.376ZM527.196 485H537.9V483.032H529.188V476.912H535.212V474.944H529.188V469.904H537.9V467.936H527.196V485ZM548.269 485.192H550.909L553.405 484.208L554.485 483.368L555.421 482.264L554.005 480.92L553.189 481.856L552.445 482.456L550.621 483.224H548.605L546.877 482.408L545.749 481.256L544.933 479.672L544.573 478.064V474.848L544.933 473.24L545.749 471.632L546.901 470.48L548.605 469.712H550.621L552.421 470.48L553.165 471.08L554.005 472.016L555.421 470.672L554.485 469.568L553.405 468.728L550.909 467.744H548.269L545.749 468.848L544.093 470.456L543.037 472.592L542.581 474.704V478.232L543.037 480.296L544.093 482.432L545.701 484.064L548.269 485.192ZM561.293 485H571.997V483.032H563.285V476.912H569.309V474.944H563.285V469.904H571.997V467.936H561.293V485ZM580.638 485.192H583.014L585.51 484.064L587.142 481.928L587.718 479.888V472.568L587.214 470.768L585.966 468.968L583.494 467.744H580.686L578.238 468.968L577.038 470.672L576.558 472.424V474.344L577.014 476L578.19 477.728L580.686 478.976H582.966L584.958 478.136L585.726 477.464V479.552L585.318 481.064L584.19 482.504L582.582 483.224H581.07L579.39 482.408L578.598 481.64L577.182 483.056L578.238 484.064L580.638 485.192ZM581.118 477.008L579.558 476.192L578.862 475.184L578.55 474.128V472.688L578.934 471.416L579.582 470.48L581.118 469.712H583.038L584.574 470.48L585.39 471.632L585.726 472.856V474.752L585.39 475.424L584.286 476.336L582.678 477.008H581.118ZM593.96 485H604.664V483.032H595.952V476.912H601.976V474.944H595.952V469.904H604.664V467.936H593.96V485ZM614.601 485.192H616.881L619.065 484.16L620.745 482.456L621.609 480.392L622.017 478.208V474.728L621.609 472.544L620.745 470.48L619.065 468.776L616.881 467.744H614.601L612.417 468.776L610.737 470.48L609.873 472.544L609.465 474.728V478.208L609.873 480.392L610.737 482.456L612.417 484.16L614.601 485.192ZM614.985 483.224L613.593 482.552L612.393 481.28L611.817 479.888L611.457 478.04V474.872L611.793 473.12L612.369 471.632L613.569 470.408L615.009 469.712H616.473L617.913 470.408L619.113 471.632L619.689 473.12L620.025 474.872V478.04L619.665 479.888L619.089 481.28L617.889 482.552L616.497 483.224H614.985Z" fill="#ECE9E0"/>
<path d="M14.52 474.536L13.776 478.376H17.064V479.984H13.464L12.48 485H10.776L11.76 479.984H8.328L7.392 485H5.712L6.624 479.984H3.6V478.376H6.936L7.704 474.536H4.488V472.952H7.992L8.952 467.864H10.68L9.72 472.952H13.176L14.136 467.864H15.792L14.832 472.952H17.88V474.536H14.52ZM8.64 478.376H12.072L12.816 474.536H9.384L8.64 478.376ZM23.1956 485H25.1876V476.912H30.9716V474.944H25.1876V469.904H33.3236V467.936H23.1956V485ZM38.4862 485H46.4302L48.4222 484.064L49.6703 482.552L50.2223 480.224L49.6943 477.896L48.6623 476.408L47.9422 475.952L48.6623 475.568L49.4302 474.464L49.9103 472.568L49.4062 470.264L47.8222 468.536L45.6142 467.936H38.4862V485ZM40.4782 474.944V469.904H45.4222L46.7422 470.288L47.5823 471.224L47.8702 472.568L47.5823 473.648L47.2462 474.128L46.0462 474.944H40.4782ZM40.4782 483.032V476.912H45.9502L47.2222 477.68L47.8222 478.688L48.1822 480.224L47.8222 481.664L47.1022 482.504L45.9262 483.032H40.4782ZM56.2144 485H58.2064V476.912H63.9904V474.944H58.2064V469.904H66.3424V467.936H56.2144V485ZM74.505 485.192H76.881L79.377 484.064L81.009 481.928L81.585 479.888V472.568L81.081 470.768L79.833 468.968L77.361 467.744H74.553L72.105 468.968L70.905 470.672L70.425 472.424V474.344L70.881 476L72.057 477.728L74.553 478.976H76.833L78.825 478.136L79.593 477.464V479.552L79.185 481.064L78.057 482.504L76.449 483.224H74.937L73.257 482.408L72.465 481.64L71.049 483.056L72.105 484.064L74.505 485.192ZM74.985 477.008L73.425 476.192L72.729 475.184L72.417 474.128V472.688L72.801 471.416L73.449 470.48L74.985 469.712H76.905L78.441 470.48L79.257 471.632L79.593 472.856V474.752L79.257 475.424L78.153 476.336L76.545 477.008H74.985ZM87.8269 485H89.8189V476.912H95.6029V474.944H89.8189V469.904H97.9549V467.936H87.8269V485ZM107.414 485.192H109.694L111.878 484.16L113.558 482.456L114.422 480.392L114.83 478.208V474.728L114.422 472.544L113.558 470.48L111.878 468.776L109.694 467.744H107.414L105.23 468.776L103.55 470.48L102.686 472.544L102.278 474.728V478.208L102.686 480.392L103.55 482.456L105.23 484.16L107.414 485.192ZM107.798 483.224L106.406 482.552L105.206 481.28L104.63 479.888L104.27 478.04V474.872L104.606 473.12L105.182 471.632L106.382 470.408L107.822 469.712H109.286L110.726 470.408L111.926 471.632L112.502 473.12L112.838 474.872V478.04L112.478 479.888L111.902 481.28L110.702 482.552L109.31 483.224H107.798Z" fill="#FBF9F0"/>
<path d="M22.5232 385H26.4952L27.4912 384.532L28.1152 383.776L28.3912 382.612L28.1272 381.448L27.6112 380.704L27.2512 380.476L27.6112 380.284L27.9952 379.732L28.2352 378.784L27.9832 377.632L27.1912 376.768L26.0872 376.468H22.5232V385ZM23.5192 379.972V377.452H25.9912L26.6512 377.644L27.0712 378.112L27.2152 378.784L27.0712 379.324L26.9032 379.564L26.3032 379.972H23.5192ZM23.5192 384.016V380.956H26.2552L26.8912 381.34L27.1912 381.844L27.3712 382.612L27.1912 383.332L26.8312 383.752L26.2432 384.016H23.5192ZM32.9713 385.096H33.7153L34.8193 384.544L35.0953 384.232L35.6713 385.096L36.4753 384.52L36.0073 383.848V380.212L35.6833 379.396L34.7953 378.796L33.9313 378.58H32.8153L32.0473 378.808L31.4713 379.18L31.1353 379.492L31.8193 380.2L32.0473 379.972L32.4193 379.732L32.9353 379.564H33.7873L34.3753 379.708L34.8793 380.032L35.0113 380.392V381.304L34.7233 381.1L33.9193 380.836H33.1513L31.9633 381.136L31.0753 382.024L30.9073 382.84V383.536L31.5793 384.508L32.1553 384.844L32.9713 385.096ZM33.1153 384.112L32.5513 383.944L32.2753 383.776L31.9033 383.248V382.924L31.9993 382.504L32.4673 382.036L33.2593 381.82H33.7993L34.3873 381.988L34.7593 382.18L35.0113 382.444V382.888L34.8913 383.26L34.3993 383.776L33.4993 384.112H33.1153ZM41.0432 385.096H42.0632L42.9992 384.796L43.7792 384.028L43.0832 383.344L42.4592 383.932L41.9432 384.112H41.2352L40.5032 383.752L39.9272 382.972L39.7712 382.42V381.268L39.9152 380.704L40.4792 379.936L41.1992 379.564H41.9432L42.4832 379.732L43.0832 380.332L43.7912 379.672L42.9992 378.88L42.0632 378.58H41.0432L39.8432 379.156L39.0272 380.26L38.7752 381.136V382.564L39.0272 383.416L39.8432 384.52L41.0432 385.096ZM46.5476 385H47.5436V382.66L48.3356 381.892L50.5196 385H51.7316L49.0196 381.208L51.6116 378.676H50.2196L47.5436 381.352V375.952H46.5476V385ZM55.9463 387.016H57.0023L57.8903 386.716L58.8023 386.104L59.1023 385.228V378.676H58.1063V379.06L57.7703 378.844L57.0503 378.58H55.9823L54.7823 379.156L53.9663 380.26L53.7143 381.136V382.276L53.9663 383.128L54.8063 384.232L56.0303 384.712H57.1103L57.8543 384.256L58.1063 384.016V385.12L57.9623 385.48L57.4463 385.828L56.8943 386.032H56.0423L55.4663 385.876L55.1663 385.672L54.8663 385.372L54.1703 386.08L54.5063 386.404L55.0943 386.788L55.9463 387.016ZM56.1863 383.728L55.4063 383.416L54.8543 382.66L54.7103 382.144V381.268L54.8543 380.704L55.4303 379.936L56.1383 379.552H56.9063L57.3983 379.708L57.8543 380.008L58.1063 380.32V382.612L57.7583 383.176L56.9783 383.728H56.1863ZM62.3993 385H63.3953V381.004L63.6593 380.428L64.1513 379.876L64.8113 379.564H65.3273L65.8073 379.696L66.0473 378.748L65.4473 378.58H64.6673L63.8513 378.964L63.3953 379.408V378.676H62.3993V385ZM69.9085 385.096H71.1805L72.3925 384.52L72.9925 383.632L73.2325 382.552V381.136L72.9925 380.056L72.3925 379.168L71.1805 378.58H69.9085L68.6965 379.168L68.0965 380.056L67.8565 381.136V382.552L68.0965 383.632L68.6965 384.52L69.9085 385.096ZM70.0765 384.124L69.3685 383.776L69.0085 383.236L68.8525 382.432V381.232L69.0085 380.452L69.3565 379.924L70.0765 379.564H71.0125L71.7085 379.924L72.0805 380.452L72.2365 381.232V382.432L72.0805 383.236L71.7205 383.776L71.0125 384.124H70.0765ZM77.9199 385.096H78.8919L79.6839 384.64L79.9959 384.364V385H80.9799V378.676H79.9839V383.044L79.6119 383.56L78.7599 384.124H78.0759L77.3919 383.944L77.0439 383.44V378.676H76.0479V383.8L76.8279 384.808L77.9199 385.096ZM84.3405 385H85.3365V380.632L85.6965 380.116L86.5605 379.564H87.3285L88.0365 379.768L88.3365 380.236V385H89.3325V379.852L88.6005 378.868L87.5325 378.58H86.4285L85.6365 379.036L85.3365 379.3V378.676H84.3405V385ZM94.4678 385.096H95.5478L96.2918 384.64L96.5558 384.364V385H97.5398V375.952H96.5438V379.06L96.2078 378.844L95.4878 378.58H94.4198L93.2198 379.156L92.4038 380.26L92.1518 381.136V382.564L92.4038 383.416L93.2198 384.52L94.4678 385.096ZM94.6238 384.112L93.8678 383.752L93.2918 382.972L93.1478 382.432V381.268L93.2918 380.704L93.8678 379.936L94.5758 379.552H95.3438L95.8358 379.708L96.2918 380.008L96.5438 380.32V383.044L96.1958 383.56L95.4158 384.112H94.6238Z" fill="#3A032D"/>
<path d="M511.547 385H515.519L516.515 384.532L517.139 383.776L517.415 382.612L517.151 381.448L516.635 380.704L516.275 380.476L516.635 380.284L517.019 379.732L517.259 378.784L517.007 377.632L516.215 376.768L515.111 376.468H511.547V385ZM512.543 379.972V377.452H515.015L515.675 377.644L516.095 378.112L516.239 378.784L516.095 379.324L515.927 379.564L515.327 379.972H512.543ZM512.543 384.016V380.956H515.279L515.915 381.34L516.215 381.844L516.395 382.612L516.215 383.332L515.855 383.752L515.267 384.016H512.543ZM521.995 385.096H522.739L523.843 384.544L524.119 384.232L524.695 385.096L525.499 384.52L525.031 383.848V380.212L524.707 379.396L523.819 378.796L522.955 378.58H521.839L521.071 378.808L520.495 379.18L520.159 379.492L520.843 380.2L521.071 379.972L521.443 379.732L521.959 379.564H522.811L523.399 379.708L523.903 380.032L524.035 380.392V381.304L523.747 381.1L522.943 380.836H522.175L520.987 381.136L520.099 382.024L519.931 382.84V383.536L520.603 384.508L521.179 384.844L521.995 385.096ZM522.139 384.112L521.575 383.944L521.299 383.776L520.927 383.248V382.924L521.023 382.504L521.491 382.036L522.283 381.82H522.823L523.411 381.988L523.783 382.18L524.035 382.444V382.888L523.915 383.26L523.423 383.776L522.523 384.112H522.139ZM530.067 385.096H531.087L532.023 384.796L532.803 384.028L532.107 383.344L531.483 383.932L530.967 384.112H530.259L529.527 383.752L528.951 382.972L528.795 382.42V381.268L528.939 380.704L529.503 379.936L530.223 379.564H530.967L531.507 379.732L532.107 380.332L532.815 379.672L532.023 378.88L531.087 378.58H530.067L528.867 379.156L528.051 380.26L527.799 381.136V382.564L528.051 383.416L528.867 384.52L530.067 385.096ZM535.571 385H536.567V382.66L537.359 381.892L539.543 385H540.755L538.043 381.208L540.635 378.676H539.243L536.567 381.352V375.952H535.571V385ZM544.97 387.016H546.026L546.914 386.716L547.826 386.104L548.126 385.228V378.676H547.13V379.06L546.794 378.844L546.074 378.58H545.006L543.806 379.156L542.99 380.26L542.738 381.136V382.276L542.99 383.128L543.83 384.232L545.054 384.712H546.134L546.878 384.256L547.13 384.016V385.12L546.986 385.48L546.47 385.828L545.918 386.032H545.066L544.49 385.876L544.19 385.672L543.89 385.372L543.194 386.08L543.53 386.404L544.118 386.788L544.97 387.016ZM545.21 383.728L544.43 383.416L543.878 382.66L543.734 382.144V381.268L543.878 380.704L544.454 379.936L545.162 379.552H545.93L546.422 379.708L546.878 380.008L547.13 380.32V382.612L546.782 383.176L546.002 383.728H545.21ZM551.423 385H552.419V381.004L552.683 380.428L553.175 379.876L553.835 379.564H554.351L554.831 379.696L555.071 378.748L554.471 378.58H553.691L552.875 378.964L552.419 379.408V378.676H551.423V385ZM558.932 385.096H560.204L561.416 384.52L562.016 383.632L562.256 382.552V381.136L562.016 380.056L561.416 379.168L560.204 378.58H558.932L557.72 379.168L557.12 380.056L556.88 381.136V382.552L557.12 383.632L557.72 384.52L558.932 385.096ZM559.1 384.124L558.392 383.776L558.032 383.236L557.876 382.432V381.232L558.032 380.452L558.38 379.924L559.1 379.564H560.036L560.732 379.924L561.104 380.452L561.26 381.232V382.432L561.104 383.236L560.744 383.776L560.036 384.124H559.1ZM566.944 385.096H567.916L568.708 384.64L569.02 384.364V385H570.004V378.676H569.008V383.044L568.636 383.56L567.784 384.124H567.1L566.416 383.944L566.068 383.44V378.676H565.072V383.8L565.852 384.808L566.944 385.096ZM573.364 385H574.36V380.632L574.72 380.116L575.584 379.564H576.352L577.06 379.768L577.36 380.236V385H578.356V379.852L577.624 378.868L576.556 378.58H575.452L574.66 379.036L574.36 379.3V378.676H573.364V385ZM583.492 385.096H584.572L585.316 384.64L585.58 384.364V385H586.564V375.952H585.568V379.06L585.232 378.844L584.512 378.58H583.444L582.244 379.156L581.428 380.26L581.176 381.136V382.564L581.428 383.416L582.244 384.52L583.492 385.096ZM583.648 384.112L582.892 383.752L582.316 382.972L582.172 382.432V381.268L582.316 380.704L582.892 379.936L583.6 379.552H584.368L584.86 379.708L585.316 380.008L585.568 380.32V383.044L585.22 383.56L584.44 384.112H583.648ZM594.72 385H598.692L599.688 384.532L600.312 383.776L600.588 382.612L600.324 381.448L599.808 380.704L599.448 380.476L599.808 380.284L600.192 379.732L600.432 378.784L600.18 377.632L599.388 376.768L598.284 376.468H594.72V385ZM595.716 379.972V377.452H598.188L598.848 377.644L599.268 378.112L599.412 378.784L599.268 379.324L599.1 379.564L598.5 379.972H595.716ZM595.716 384.016V380.956H598.452L599.088 381.34L599.388 381.844L599.568 382.612L599.388 383.332L599.028 383.752L598.44 384.016H595.716ZM605.156 385.096H606.428L607.64 384.52L608.24 383.632L608.48 382.552V381.136L608.24 380.056L607.64 379.168L606.428 378.58H605.156L603.944 379.168L603.344 380.056L603.104 381.136V382.552L603.344 383.632L603.944 384.52L605.156 385.096ZM605.324 384.124L604.616 383.776L604.256 383.236L604.1 382.432V381.232L604.256 380.452L604.604 379.924L605.324 379.564H606.26L606.956 379.924L607.328 380.452L607.484 381.232V382.432L607.328 383.236L606.968 383.776L606.26 384.124H605.324ZM610.272 385H611.532L613.284 382.624L615.036 385H616.296L613.896 381.832L616.272 378.676H615.024L613.284 381.028L611.544 378.676H610.296L612.672 381.832L610.272 385Z" fill="#3A032D"/>
</svg>
