<svg width="1608" height="168" viewBox="0 0 1608 168" fill="none" xmlns="http://www.w3.org/2000/svg">
<rect x="23" y="24" width="1585" height="144" fill="#FFC800"/>
<rect width="1585.35" height="144" fill="#3A032D"/>
<path d="M68.0579 79.056C68.0579 77.84 68.1699 76.8 68.3939 75.936C68.6499 75.04 69.0659 74.192 69.6419 73.392C70.2499 72.592 71.0659 71.76 72.0899 70.896C73.3379 69.84 74.2979 68.96 74.9699 68.256C75.6739 67.552 76.1699 66.864 76.4579 66.192C76.7459 65.52 76.8899 64.704 76.8899 63.744C76.8899 62.208 76.3939 61.024 75.4019 60.192C74.4099 59.36 72.9699 58.944 71.0819 58.944C69.5139 58.944 68.1219 59.152 66.9059 59.568C65.6899 59.952 64.5219 60.416 63.4019 60.96L61.9139 57.6C63.1939 56.928 64.6019 56.368 66.1379 55.92C67.7059 55.472 69.4499 55.248 71.3699 55.248C74.4099 55.248 76.7619 56 78.4259 57.504C80.0899 59.008 80.9219 61.056 80.9219 63.648C80.9219 65.088 80.6819 66.32 80.2019 67.344C79.7539 68.336 79.0979 69.264 78.2339 70.128C77.4019 70.96 76.4099 71.856 75.2579 72.816C74.2019 73.712 73.3859 74.496 72.8099 75.168C72.2659 75.84 71.8979 76.512 71.7059 77.184C71.5139 77.824 71.4179 78.608 71.4179 79.536V80.352H68.0579V79.056ZM66.9539 87.408C66.9539 86.224 67.2259 85.392 67.7699 84.912C68.3459 84.432 69.0659 84.192 69.9299 84.192C70.7299 84.192 71.4179 84.432 71.9939 84.912C72.5699 85.392 72.8579 86.224 72.8579 87.408C72.8579 88.56 72.5699 89.392 71.9939 89.904C71.4179 90.416 70.7299 90.672 69.9299 90.672C69.0659 90.672 68.3459 90.416 67.7699 89.904C67.2259 89.392 66.9539 88.56 66.9539 87.408Z" fill="white"/>
<path d="M114.183 68C114.183 94.5097 93.9037 116 68.8876 116C43.8714 116 23.5918 94.5097 23.5918 68C23.5918 42.6274 42.169 21.8528 65.696 20.1173C66.6728 20.0453 66.9826 21.34 66.1905 21.9163C14.6615 59.4065 114.183 41.9239 114.183 68Z" fill="#FFC800"/>
<ellipse cx="54.7336" cy="77" rx="3.77465" ry="4" fill="#3A032D"/>
<ellipse cx="84.9309" cy="77" rx="3.77465" ry="4" fill="#3A032D"/>
<path d="M150.104 96H160.4V55.176H172.856V45.6H137.72V55.176H150.104V96ZM177.739 96H187.531V75.768C187.531 71.232 189.619 68.568 193.003 68.568C195.955 68.568 197.395 70.368 197.395 73.824V96H207.115V71.16C207.115 63.528 203.731 59.496 197.179 59.496C191.635 59.496 188.683 62.808 186.307 69.504H184.867L187.531 60.576V45.6H177.739V96ZM228.686 97.008C237.11 97.008 242.078 92.184 242.798 84.768H233.078C232.502 87.72 230.846 89.304 228.326 89.304C226.31 89.304 225.014 88.584 224.078 87.216C223.214 85.92 222.71 84.048 222.494 80.952H242.726V77.568C242.726 65.472 237.902 59.496 228.326 59.496C223.286 59.496 218.966 61.296 216.23 65.328C214.142 68.352 212.99 72.672 212.99 78.36C212.99 83.976 213.998 88.224 216.158 91.32C218.822 95.136 222.998 97.008 228.686 97.008ZM222.566 74.4C222.71 72.096 223.142 70.44 224.006 69.216C225.014 67.776 226.454 67.056 228.254 67.056C231.71 67.056 233.294 69.144 233.438 74.4H222.566ZM264.868 96H275.164V75.84H291.004V66.408H275.164V55.176H291.94V45.6H264.868V96ZM306.975 97.008C312.375 97.008 315.183 93.768 317.415 87.072H318.927L316.191 96H325.983V60.576H316.191V80.736C316.191 85.272 314.319 88.008 311.151 88.008C308.415 88.008 307.119 86.208 307.119 82.752V60.576H297.327V85.416C297.327 92.976 300.639 97.008 306.975 97.008ZM349.443 97.008C357.291 97.008 362.115 92.328 362.115 84.696V77.496H352.467V84.768C352.467 87.432 351.459 88.728 349.515 88.728C347.787 88.728 346.635 87.504 346.635 85.056V68.712H362.115V60.576H346.635V50.136L336.843 54.744V60.576H331.011V68.712H336.843V85.056C336.843 92.904 341.091 97.008 349.443 97.008ZM377.498 97.008C382.898 97.008 385.706 93.768 387.938 87.072H389.45L386.714 96H396.506V60.576H386.714V80.736C386.714 85.272 384.842 88.008 381.674 88.008C378.938 88.008 377.642 86.208 377.642 82.752V60.576H367.85V85.416C367.85 92.976 371.162 97.008 377.498 97.008ZM404.918 96H414.71V75.552C414.71 71.376 416.222 68.928 418.742 68.928C420.902 68.928 421.838 70.152 421.838 73.248V79.656H431.702V69.864C431.702 62.952 428.822 59.496 423.566 59.496C418.382 59.496 415.502 62.592 413.054 70.584H411.542L414.638 60.576H404.918V96ZM451.225 97.008C459.649 97.008 464.617 92.184 465.337 84.768H455.617C455.041 87.72 453.385 89.304 450.865 89.304C448.849 89.304 447.553 88.584 446.617 87.216C445.753 85.92 445.249 84.048 445.033 80.952H465.265V77.568C465.265 65.472 460.441 59.496 450.865 59.496C445.825 59.496 441.505 61.296 438.769 65.328C436.681 68.352 435.529 72.672 435.529 78.36C435.529 83.976 436.537 88.224 438.697 91.32C441.361 95.136 445.537 97.008 451.225 97.008ZM445.105 74.4C445.249 72.096 445.681 70.44 446.545 69.216C447.553 67.776 448.993 67.056 450.793 67.056C454.249 67.056 455.833 69.144 455.977 74.4H445.105ZM501.015 97.008C506.703 97.008 511.167 94.992 513.975 90.96C516.063 87.864 517.071 83.688 517.071 78.288C517.071 72.888 516.063 68.712 513.975 65.616C511.167 61.584 506.703 59.496 501.015 59.496C495.255 59.496 490.863 61.584 488.055 65.616C485.967 68.712 484.959 72.888 484.959 78.288C484.959 83.688 485.967 87.864 488.055 90.96C490.863 94.992 495.255 97.008 501.015 97.008ZM494.895 78.288C494.895 74.472 495.471 71.88 496.551 70.296C497.559 68.712 499.071 67.92 501.015 67.92C502.959 67.92 504.471 68.712 505.479 70.296C506.559 71.88 507.135 74.472 507.135 78.288C507.135 82.104 506.559 84.696 505.479 86.28C504.471 87.792 502.959 88.656 501.015 88.656C499.071 88.656 497.559 87.792 496.551 86.28C495.471 84.696 494.895 82.104 494.895 78.288ZM525.491 56.4V60.576H519.659V68.712H525.491V96H535.211V68.712H546.875V60.576H535.211V56.04C535.211 53.664 536.507 52.224 538.595 52.224C540.611 52.224 541.763 53.448 541.763 55.824V56.76H551.051V55.752C551.051 48.552 546.443 44.52 538.595 44.52C530.531 44.52 525.491 49.128 525.491 56.4ZM566.297 96H575.873V52.512H577.313L577.745 64.536L584.153 96H596.537L602.873 64.536L603.377 52.512H604.817V96H614.393V45.6H598.049L591.281 80.376L591.065 89.088H589.625L589.337 80.376L582.641 45.6H566.297V96ZM636.991 97.008C645.415 97.008 650.383 92.184 651.103 84.768H641.383C640.807 87.72 639.151 89.304 636.631 89.304C634.615 89.304 633.319 88.584 632.383 87.216C631.519 85.92 631.015 84.048 630.799 80.952H651.031V77.568C651.031 65.472 646.207 59.496 636.631 59.496C631.591 59.496 627.271 61.296 624.535 65.328C622.447 68.352 621.295 72.672 621.295 78.36C621.295 83.976 622.303 88.224 624.463 91.32C627.127 95.136 631.303 97.008 636.991 97.008ZM630.871 74.4C631.015 72.096 631.447 70.44 632.311 69.216C633.319 67.776 634.759 67.056 636.559 67.056C640.015 67.056 641.599 69.144 641.743 74.4H630.871ZM668.425 97.008C673.681 97.008 676.849 93.696 678.865 87.072H680.377L677.713 96H687.433V45.6H677.713V60.576L680.377 69.504H678.865C676.849 62.88 673.681 59.496 668.425 59.496C664.465 59.496 661.225 61.224 659.065 64.32C656.905 67.488 655.753 72.168 655.753 78.288C655.753 84.408 656.905 89.088 659.065 92.184C661.225 95.352 664.465 97.008 668.425 97.008ZM665.761 78.288C665.761 74.688 666.409 72.168 667.489 70.512C668.497 69.072 670.009 68.28 671.809 68.28C673.609 68.28 675.049 69.072 676.129 70.512C677.209 72.096 677.857 74.688 677.857 78.288C677.857 81.888 677.209 84.408 676.129 85.992C675.049 87.504 673.609 88.224 671.809 88.224C670.009 88.224 668.497 87.504 667.489 85.992C666.409 84.408 665.761 81.888 665.761 78.288ZM695.871 96H705.663V60.576H695.871V96ZM695.655 56.04H705.879V46.32H695.655V56.04ZM722.29 97.008C728.05 97.008 731.218 93.624 733.018 87H734.53L731.722 96H740.866V72.24C740.866 63.888 736.042 59.496 726.826 59.496C712.21 59.496 712.066 70.944 712.066 72.312V73.176H721.93V72.312C721.93 71.736 722.002 67.56 726.538 67.56C729.49 67.56 731.074 69.144 731.074 72.312V75.048L724.594 75.84C720.562 76.344 717.538 77.64 715.594 79.584C713.65 81.456 712.786 83.976 712.786 87.072C712.786 90.24 713.722 92.76 715.45 94.416C717.106 96.072 719.482 97.008 722.29 97.008ZM722.722 86.064C722.722 84.696 723.082 83.688 723.874 82.896C724.594 82.176 725.602 81.672 727.042 81.528L731.074 80.952V82.752C731.074 84.624 730.138 89.592 725.89 89.592C724.954 89.592 724.162 89.304 723.586 88.728C723.01 88.152 722.722 87.216 722.722 86.064ZM782.294 97.224C794.03 97.224 800.438 90.384 800.87 77.568H790.214C789.782 84.336 787.046 87.648 782.294 87.648C778.406 87.648 775.526 85.344 774.086 81.456C773.15 78.936 772.862 75.264 772.862 70.8C772.862 66.48 773.15 62.736 774.014 60.288C775.526 56.328 778.478 53.952 782.654 53.952C787.622 53.952 790.502 57.264 790.862 63.96V64.032H801.59C801.158 51.144 794.462 44.376 782.798 44.376C773.366 44.376 766.886 48.984 764.078 56.904C762.71 60.72 762.134 65.472 762.134 70.8C762.134 76.128 762.71 80.88 764.078 84.696C766.886 92.616 773.366 97.224 782.294 97.224ZM821.921 97.008C827.609 97.008 832.073 94.992 834.881 90.96C836.969 87.864 837.977 83.688 837.977 78.288C837.977 72.888 836.969 68.712 834.881 65.616C832.073 61.584 827.609 59.496 821.921 59.496C816.161 59.496 811.769 61.584 808.961 65.616C806.873 68.712 805.865 72.888 805.865 78.288C805.865 83.688 806.873 87.864 808.961 90.96C811.769 94.992 816.161 97.008 821.921 97.008ZM815.801 78.288C815.801 74.472 816.377 71.88 817.457 70.296C818.465 68.712 819.977 67.92 821.921 67.92C823.865 67.92 825.377 68.712 826.385 70.296C827.465 71.88 828.041 74.472 828.041 78.288C828.041 82.104 827.465 84.696 826.385 86.28C825.377 87.792 823.865 88.656 821.921 88.656C819.977 88.656 818.465 87.792 817.457 86.28C816.377 84.696 815.801 82.104 815.801 78.288ZM844.371 96H854.163V75.768C854.163 71.232 856.251 68.568 859.635 68.568C862.587 68.568 864.027 70.368 864.027 73.824V96H873.747V71.16C873.747 63.528 870.363 59.496 863.739 59.496C858.195 59.496 855.315 62.808 852.939 69.504H851.499L854.163 60.576H844.371V96ZM892.871 97.008C897.551 97.008 901.079 95.784 903.383 93.48C905.183 91.608 906.191 89.16 906.191 85.92C906.191 80.304 903.455 77.136 897.335 75.264L893.231 73.968C890.495 73.032 889.487 72.024 889.487 70.152C889.487 69.216 889.775 68.496 890.279 67.992C890.999 67.272 891.935 66.984 893.231 66.984C895.895 66.984 897.335 68.352 897.335 71.016V71.88H906.551V70.944C906.551 63.672 901.871 59.568 893.447 59.568C888.767 59.568 885.167 60.792 882.863 63.096C880.991 64.968 880.055 67.416 880.055 70.512C880.055 75.984 882.647 79.152 888.047 80.808L892.871 82.32C895.679 83.256 896.687 84.264 896.687 86.28C896.687 87.288 896.399 88.08 895.823 88.584C895.175 89.232 894.239 89.52 892.871 89.52C890.279 89.52 888.839 88.224 888.839 85.704V84.624H879.623V85.704C879.623 92.976 884.303 97.008 892.871 97.008ZM921.928 97.008C927.328 97.008 930.136 93.768 932.368 87.072H933.88L931.144 96H940.936V60.576H931.144V80.736C931.144 85.272 929.272 88.008 926.104 88.008C923.368 88.008 922.072 86.208 922.072 82.752V60.576H912.28V85.416C912.28 92.976 915.592 97.008 921.928 97.008ZM949.348 96H959.14V75.048C959.14 71.016 960.868 68.568 963.82 68.568C966.052 68.568 967.42 70.152 967.42 73.32V96H977.212V75.048C977.212 71.016 978.94 68.568 981.892 68.568C984.268 68.568 985.42 70.152 985.42 73.32V96H995.212V71.52C995.212 63.816 991.9 59.496 985.996 59.496C981.316 59.496 977.356 62.304 975.988 69.504H974.476C974.764 63.24 972.46 59.496 967.564 59.496C962.884 59.496 960.076 62.808 958.06 69.504H956.548L959.14 60.576H949.348V96ZM1003 108.96H1012.79V96L1010.12 87.072H1011.56C1013.65 93.696 1016.82 97.008 1022.08 97.008C1026.04 97.008 1029.28 95.352 1031.44 92.184C1033.6 89.088 1034.68 84.408 1034.68 78.288C1034.68 72.168 1033.6 67.488 1031.44 64.32C1029.28 61.224 1026.04 59.496 1022.08 59.496C1016.82 59.496 1013.65 62.88 1011.56 69.504H1010.12L1012.79 60.576H1003V108.96ZM1012.64 78.288C1012.64 74.688 1013.22 72.096 1014.37 70.512C1015.45 69.072 1016.89 68.28 1018.69 68.28C1020.49 68.28 1022 69.072 1023.01 70.512C1024.09 72.168 1024.74 74.688 1024.74 78.288C1024.74 81.888 1024.09 84.408 1023.01 85.992C1022 87.504 1020.49 88.224 1018.69 88.224C1016.89 88.224 1015.45 87.504 1014.37 85.992C1013.22 84.408 1012.64 81.888 1012.64 78.288ZM1056.01 97.008C1063.86 97.008 1068.69 92.328 1068.69 84.696V77.496H1059.04V84.768C1059.04 87.432 1058.03 88.728 1056.09 88.728C1054.36 88.728 1053.21 87.504 1053.21 85.056V68.712H1068.69V60.576H1053.21V50.136L1043.41 54.744V60.576H1037.58V68.712H1043.41V85.056C1043.41 92.904 1047.66 97.008 1056.01 97.008ZM1075 96H1084.79V60.576H1075V96ZM1074.78 56.04H1085V46.32H1074.78V56.04ZM1107.32 97.008C1113.01 97.008 1117.47 94.992 1120.28 90.96C1122.37 87.864 1123.38 83.688 1123.38 78.288C1123.38 72.888 1122.37 68.712 1120.28 65.616C1117.47 61.584 1113.01 59.496 1107.32 59.496C1101.56 59.496 1097.17 61.584 1094.36 65.616C1092.27 68.712 1091.26 72.888 1091.26 78.288C1091.26 83.688 1092.27 87.864 1094.36 90.96C1097.17 94.992 1101.56 97.008 1107.32 97.008ZM1101.2 78.288C1101.2 74.472 1101.78 71.88 1102.86 70.296C1103.86 68.712 1105.38 67.92 1107.32 67.92C1109.26 67.92 1110.78 68.712 1111.78 70.296C1112.86 71.88 1113.44 74.472 1113.44 78.288C1113.44 82.104 1112.86 84.696 1111.78 86.28C1110.78 87.792 1109.26 88.656 1107.32 88.656C1105.38 88.656 1103.86 87.792 1102.86 86.28C1101.78 84.696 1101.2 82.104 1101.2 78.288ZM1129.77 96H1139.56V75.768C1139.56 71.232 1141.65 68.568 1145.03 68.568C1147.99 68.568 1149.43 70.368 1149.43 73.824V96H1159.15V71.16C1159.15 63.528 1155.76 59.496 1149.14 59.496C1143.59 59.496 1140.71 62.808 1138.34 69.504H1136.9L1139.56 60.576H1129.77V96ZM1166.89 90.96C1166.89 88.752 1167.49 87.216 1168.69 86.352C1169.89 85.44 1171.36 84.984 1173.09 84.984C1174.77 84.984 1176.21 85.44 1177.41 86.352C1178.61 87.216 1179.21 88.752 1179.21 90.96C1179.21 93.072 1178.61 94.608 1177.41 95.568C1176.21 96.48 1174.77 96.936 1173.09 96.936C1171.36 96.936 1169.89 96.48 1168.69 95.568C1167.49 94.608 1166.89 93.072 1166.89 90.96ZM1166.89 61.944C1166.89 59.736 1167.49 58.2 1168.69 57.336C1169.89 56.424 1171.36 55.968 1173.09 55.968C1174.77 55.968 1176.21 56.424 1177.41 57.336C1178.61 58.2 1179.21 59.736 1179.21 61.944C1179.21 64.056 1178.61 65.592 1177.41 66.552C1176.21 67.464 1174.77 67.92 1173.09 67.92C1171.36 67.92 1169.89 67.464 1168.69 66.552C1167.49 65.592 1166.89 64.056 1166.89 61.944Z" fill="#FBF9F0"/>
<path d="M1203.19 96H1213.48V75.264H1215.57L1224.5 96H1236.38L1227.09 75.048L1224 74.184V73.032C1228.39 72.312 1232.06 70.368 1233.86 67.2C1235.01 65.184 1235.66 62.808 1235.66 60.072C1235.66 57.048 1235.01 54.384 1233.72 52.224C1231.27 47.904 1226.44 45.6 1220.04 45.6H1203.19V96ZM1213.48 67.128V54.96H1218.88C1221.4 54.96 1223.42 55.896 1224.43 57.696C1224.93 58.632 1225.22 59.712 1225.22 61.008C1225.22 62.304 1224.93 63.456 1224.36 64.392C1223.35 66.192 1221.33 67.128 1218.88 67.128H1213.48ZM1254.62 97.008C1263.04 97.008 1268.01 92.184 1268.73 84.768H1259.01C1258.43 87.72 1256.78 89.304 1254.26 89.304C1252.24 89.304 1250.94 88.584 1250.01 87.216C1249.14 85.92 1248.64 84.048 1248.42 80.952H1268.66V77.568C1268.66 65.472 1263.83 59.496 1254.26 59.496C1249.22 59.496 1244.9 61.296 1242.16 65.328C1240.07 68.352 1238.92 72.672 1238.92 78.36C1238.92 83.976 1239.93 88.224 1242.09 91.32C1244.75 95.136 1248.93 97.008 1254.62 97.008ZM1248.5 74.4C1248.64 72.096 1249.07 70.44 1249.94 69.216C1250.94 67.776 1252.38 67.056 1254.18 67.056C1257.64 67.056 1259.22 69.144 1259.37 74.4H1248.5ZM1275.11 96H1284.9V60.576H1275.11V96ZM1274.89 56.04H1285.11V46.32H1274.89V56.04ZM1293.32 96H1303.11V75.048C1303.11 71.016 1304.84 68.568 1307.79 68.568C1310.02 68.568 1311.39 70.152 1311.39 73.32V96H1321.18V75.048C1321.18 71.016 1322.91 68.568 1325.86 68.568C1328.24 68.568 1329.39 70.152 1329.39 73.32V96H1339.18V71.52C1339.18 63.816 1335.87 59.496 1329.96 59.496C1325.28 59.496 1321.32 62.304 1319.96 69.504H1318.44C1318.73 63.24 1316.43 59.496 1311.53 59.496C1306.85 59.496 1304.04 62.808 1302.03 69.504H1300.52L1303.11 60.576H1293.32V96ZM1355.17 97.008C1360.93 97.008 1364.1 93.624 1365.9 87H1367.41L1364.61 96H1373.75V72.24C1373.75 63.888 1368.93 59.496 1359.71 59.496C1345.09 59.496 1344.95 70.944 1344.95 72.312V73.176H1354.81V72.312C1354.81 71.736 1354.89 67.56 1359.42 67.56C1362.37 67.56 1363.96 69.144 1363.96 72.312V75.048L1357.48 75.84C1353.45 76.344 1350.42 77.64 1348.48 79.584C1346.53 81.456 1345.67 83.976 1345.67 87.072C1345.67 90.24 1346.61 92.76 1348.33 94.416C1349.99 96.072 1352.37 97.008 1355.17 97.008ZM1355.61 86.064C1355.61 84.696 1355.97 83.688 1356.76 82.896C1357.48 82.176 1358.49 81.672 1359.93 81.528L1363.96 80.952V82.752C1363.96 84.624 1363.02 89.592 1358.77 89.592C1357.84 89.592 1357.05 89.304 1356.47 88.728C1355.89 88.152 1355.61 87.216 1355.61 86.064ZM1394.95 109.968C1405.32 109.968 1410.36 104.208 1410.36 92.04V60.576H1400.85L1403.81 69.504H1402.29C1400.13 62.304 1396.89 59.496 1392.14 59.496C1388.25 59.496 1385.09 61.152 1383 64.176C1380.98 67.056 1379.97 71.16 1379.97 76.56C1379.97 81.96 1380.98 86.136 1383 88.944C1385.09 91.968 1388.25 93.624 1392.14 93.624C1396.89 93.624 1400.13 90.888 1402.29 83.616H1403.81L1400.57 92.688V95.136C1400.57 99.744 1398.62 101.976 1394.95 101.976C1391.49 101.976 1389.77 100.32 1389.62 97.44V96.72H1380.05V97.44C1380.19 105.432 1385.3 109.968 1394.95 109.968ZM1389.84 76.56C1389.84 73.536 1390.34 71.232 1391.42 69.72C1392.29 68.424 1393.65 67.704 1395.38 67.704C1397.04 67.704 1398.33 68.424 1399.27 69.72C1400.35 71.232 1400.78 73.536 1400.78 76.56C1400.78 79.584 1400.35 81.888 1399.27 83.4C1398.33 84.696 1397.04 85.416 1395.38 85.416C1393.65 85.416 1392.29 84.696 1391.42 83.4C1390.34 81.888 1389.84 79.584 1389.84 76.56ZM1418.61 96H1428.41V60.576H1418.61V96ZM1418.4 56.04H1428.62V46.32H1418.4V56.04ZM1436.82 96H1446.62V75.768C1446.62 71.232 1448.7 68.568 1452.09 68.568C1455.04 68.568 1456.48 70.368 1456.48 73.824V96H1466.2V71.16C1466.2 63.528 1462.82 59.496 1456.19 59.496C1450.65 59.496 1447.77 62.808 1445.39 69.504H1443.95L1446.62 60.576H1436.82V96ZM1487.77 97.008C1496.2 97.008 1501.16 92.184 1501.88 84.768H1492.16C1491.59 87.72 1489.93 89.304 1487.41 89.304C1485.4 89.304 1484.1 88.584 1483.16 87.216C1482.3 85.92 1481.8 84.048 1481.58 80.952H1501.81V77.568C1501.81 65.472 1496.99 59.496 1487.41 59.496C1482.37 59.496 1478.05 61.296 1475.32 65.328C1473.23 68.352 1472.08 72.672 1472.08 78.36C1472.08 83.976 1473.08 88.224 1475.24 91.32C1477.91 95.136 1482.08 97.008 1487.77 97.008ZM1481.65 74.4C1481.8 72.096 1482.23 70.44 1483.09 69.216C1484.1 67.776 1485.54 67.056 1487.34 67.056C1490.8 67.056 1492.38 69.144 1492.52 74.4H1481.65ZM1519.21 97.008C1524.46 97.008 1527.63 93.696 1529.65 87.072H1531.16L1528.49 96H1538.21V45.6H1528.49V60.576L1531.16 69.504H1529.65C1527.63 62.88 1524.46 59.496 1519.21 59.496C1515.25 59.496 1512.01 61.224 1509.85 64.32C1507.69 67.488 1506.53 72.168 1506.53 78.288C1506.53 84.408 1507.69 89.088 1509.85 92.184C1512.01 95.352 1515.25 97.008 1519.21 97.008ZM1516.54 78.288C1516.54 74.688 1517.19 72.168 1518.27 70.512C1519.28 69.072 1520.79 68.28 1522.59 68.28C1524.39 68.28 1525.83 69.072 1526.91 70.512C1527.99 72.096 1528.64 74.688 1528.64 78.288C1528.64 81.888 1527.99 84.408 1526.91 85.992C1525.83 87.504 1524.39 88.224 1522.59 88.224C1520.79 88.224 1519.28 87.504 1518.27 85.992C1517.19 84.408 1516.54 81.888 1516.54 78.288Z" fill="#FFC800"/>
</svg>
