<svg width="756" height="573" viewBox="0 0 756 573" fill="none" xmlns="http://www.w3.org/2000/svg">
<line x1="92" y1="265" x2="666" y2="265" stroke="#DBE1FF" stroke-width="2" stroke-linecap="round"/>
<line x1="92" y1="393" x2="666" y2="393" stroke="#DBE1FF" stroke-width="2" stroke-linecap="round"/>
<line x1="92" y1="521" x2="666" y2="521" stroke="#DBE1FF" stroke-width="2" stroke-linecap="round"/>
<line x1="92" y1="329" x2="666" y2="329" stroke="#DBE1FF" stroke-width="2" stroke-linecap="round"/>
<line x1="92" y1="457" x2="666" y2="457" stroke="#DBE1FF" stroke-width="2" stroke-linecap="round"/>
<line x1="92" y1="297" x2="666" y2="297" stroke="#DBE1FF" stroke-width="2" stroke-linecap="round"/>
<line x1="92" y1="425" x2="666" y2="425" stroke="#DBE1FF" stroke-width="2" stroke-linecap="round"/>
<line x1="92" y1="553" x2="666" y2="553" stroke="#DBE1FF" stroke-width="2" stroke-linecap="round"/>
<line x1="92" y1="361" x2="666" y2="361" stroke="#DBE1FF" stroke-width="2" stroke-linecap="round"/>
<line x1="92" y1="489" x2="666" y2="489" stroke="#DBE1FF" stroke-width="2" stroke-linecap="round"/>
<line x1="92" y1="281" x2="666" y2="281" stroke="#DBE1FF" stroke-width="2" stroke-linecap="round"/>
<line x1="92" y1="409" x2="666" y2="409" stroke="#DBE1FF" stroke-width="2" stroke-linecap="round"/>
<line x1="92" y1="537" x2="666" y2="537" stroke="#DBE1FF" stroke-width="2" stroke-linecap="round"/>
<line x1="92" y1="345" x2="666" y2="345" stroke="#DBE1FF" stroke-width="2" stroke-linecap="round"/>
<line x1="92" y1="473" x2="666" y2="473" stroke="#DBE1FF" stroke-width="2" stroke-linecap="round"/>
<line x1="92" y1="313" x2="666" y2="313" stroke="#DBE1FF" stroke-width="2" stroke-linecap="round"/>
<line x1="92" y1="441" x2="666" y2="441" stroke="#DBE1FF" stroke-width="2" stroke-linecap="round"/>
<line x1="92" y1="377" x2="666" y2="377" stroke="#DBE1FF" stroke-width="2" stroke-linecap="round"/>
<line x1="92" y1="505" x2="666" y2="505" stroke="#DBE1FF" stroke-width="2" stroke-linecap="round"/>
<path d="M135.817 9.008H134.065L129.505 12.704L130.705 14.168L133.753 11.6H133.801V26H135.817V9.008ZM152.368 9.008H150.016L145.504 16.184C144.592 17.648 143.896 18.992 143.896 20.96C143.896 24.272 146.368 26.288 149.584 26.288C152.8 26.288 155.272 24.272 155.272 20.96C155.272 17.792 153.088 15.632 150.136 15.632C149.44 15.632 148.48 15.776 147.856 16.136L147.808 16.088L152.368 9.008ZM149.584 17.36C151.624 17.36 153.256 18.752 153.256 20.96C153.256 23.168 151.624 24.56 149.584 24.56C147.544 24.56 145.912 23.168 145.912 20.96C145.912 18.752 147.544 17.36 149.584 17.36ZM160.328 31.472H162.2V24.008H162.248C162.944 25.28 164.552 26.288 166.568 26.288C169.712 26.288 172.184 23.744 172.184 20.384C172.184 16.976 169.808 14.48 166.28 14.48C164.648 14.48 163.28 15.2 162.248 16.4H162.2V14.768H160.328V31.472ZM162.2 20.384C162.2 18.032 163.76 16.208 166.184 16.208C168.608 16.208 170.168 18.032 170.168 20.384C170.168 22.736 168.608 24.56 166.184 24.56C163.76 24.56 162.2 22.736 162.2 20.384ZM183.64 14.768H180.328V11.576H178.456V14.768H176.008V16.352H178.456V22.52C178.456 24.848 178.888 26.288 181.552 26.288C182.248 26.288 183.088 26.168 183.736 25.88L183.664 24.176C183.16 24.44 182.56 24.56 182.008 24.56C180.352 24.56 180.328 23.408 180.328 21.968V16.352H183.64V14.768ZM206.965 14.768H204.949L201.613 23.576H201.565L198.061 14.768H195.877L200.461 26H202.525L206.965 14.768ZM220.008 22.856C219.12 23.984 218.04 24.56 216.432 24.56C214.392 24.56 212.904 22.904 212.76 20.96H221.832V20.36C221.832 16.64 219.672 14.48 216.504 14.48C213.192 14.48 210.744 16.904 210.744 20.384C210.744 23.648 212.904 26.288 216.432 26.288C218.52 26.288 220.104 25.664 221.424 23.96L220.008 22.856ZM212.76 19.376C213 17.48 214.368 16.208 216.432 16.208C218.496 16.208 219.744 17.48 219.816 19.376H212.76ZM227.128 26H229V20.528C229 17.96 230.008 16.352 232.288 16.352C232.624 16.352 232.984 16.4 233.296 16.496L233.416 14.6C233.152 14.504 232.888 14.48 232.648 14.48C230.8 14.48 229.408 15.512 228.904 16.616H228.856C228.856 15.992 228.808 15.368 228.808 14.768H227.032C227.032 15.512 227.128 16.4 227.128 17.432V26ZM244.109 14.768H240.797V11.576H238.925V14.768H236.477V16.352H238.925V22.52C238.925 24.848 239.357 26.288 242.021 26.288C242.717 26.288 243.557 26.168 244.205 25.88L244.133 24.176C243.629 24.44 243.029 24.56 242.477 24.56C240.821 24.56 240.797 23.408 240.797 21.968V16.352H244.109V14.768ZM248.971 26H250.843V14.768H248.971V26ZM248.539 10.376C248.539 11.168 249.115 11.744 249.907 11.744C250.699 11.744 251.275 11.168 251.275 10.376C251.275 9.632 250.675 9.008 249.907 9.008C249.139 9.008 248.539 9.632 248.539 10.376ZM266.448 16.256C265.32 15.032 263.784 14.48 262.128 14.48C258.672 14.48 256.32 16.976 256.32 20.384C256.32 23.84 258.648 26.288 262.128 26.288C263.76 26.288 265.296 25.736 266.376 24.488L264.984 23.168C264.288 24.128 263.352 24.56 262.128 24.56C259.848 24.56 258.336 22.688 258.336 20.384C258.336 18.08 259.608 16.208 262.128 16.208C263.256 16.208 264.168 16.616 264.96 17.576L266.448 16.256ZM271.978 17.432C272.866 16.616 274.114 16.208 275.314 16.208C277.066 16.208 278.098 17.048 278.098 18.68V19.016H277.378C274.618 19.016 270.298 19.232 270.298 22.952C270.298 25.136 272.194 26.288 274.474 26.288C276.178 26.288 277.426 25.472 278.17 24.32H278.218C278.218 24.8 278.218 25.496 278.338 26H280.138C280.042 25.424 279.97 24.704 279.97 24.056V19.232C279.97 16.064 278.578 14.48 275.266 14.48C273.634 14.48 271.954 15.032 270.802 16.208L271.978 17.432ZM278.098 20.6V21.32C278.05 23.144 276.946 24.704 274.786 24.704C273.37 24.704 272.314 24.176 272.314 22.76C272.314 21.248 273.85 20.6 276.226 20.6H278.098ZM285.96 26H287.832V7.856H285.96V26ZM303.037 26H304.909V20.528C304.909 17.96 305.917 16.352 308.197 16.352C308.533 16.352 308.893 16.4 309.205 16.496L309.325 14.6C309.061 14.504 308.797 14.48 308.557 14.48C306.709 14.48 305.317 15.512 304.813 16.616H304.765C304.765 15.992 304.717 15.368 304.717 14.768H302.941C302.941 15.512 303.037 16.4 303.037 17.432V26ZM313.874 26H315.746V20.528C315.746 17.96 316.802 16.208 319.226 16.208C320.978 16.208 321.794 17.384 321.794 19.256V26H323.666V19.064C323.666 16.352 322.346 14.48 319.394 14.48C317.642 14.48 316.298 15.44 315.794 16.328H315.746V7.856H313.874V26ZM339.162 14.768H337.122L333.786 23.576H333.738L330.258 14.768H328.074L332.73 26.072L331.962 28.184C331.554 29.288 331.098 30.032 329.874 30.032C329.346 30.032 328.938 29.984 328.554 29.84L328.314 31.472C328.818 31.712 329.466 31.76 329.994 31.76C332.25 31.76 332.994 30.464 333.738 28.568L339.162 14.768ZM349.733 14.768H346.421V11.576H344.549V14.768H342.101V16.352H344.549V22.52C344.549 24.848 344.98 26.288 347.645 26.288C348.341 26.288 349.181 26.168 349.829 25.88L349.757 24.176C349.253 24.44 348.653 24.56 348.101 24.56C346.445 24.56 346.421 23.408 346.421 21.968V16.352H349.733V14.768ZM354.426 26H356.298V20.528C356.298 17.96 357.354 16.208 359.778 16.208C361.53 16.208 362.346 17.384 362.346 19.256V26H364.218V19.064C364.218 16.352 362.898 14.48 359.946 14.48C358.194 14.48 356.85 15.44 356.346 16.328H356.298V7.856H354.426V26ZM370.162 26H372.034V20.528C372.034 17.96 373.09 16.208 375.514 16.208C377.05 16.208 377.674 17.168 377.674 19.64V26H379.546V19.52C379.546 17.504 380.866 16.208 382.45 16.208C384.634 16.208 385.186 17.72 385.186 19.28V26H387.058V19.184C387.058 16.28 386.002 14.48 382.786 14.48C381.082 14.48 380.05 15.296 379.234 16.616C378.874 15.848 378.106 14.48 375.682 14.48C373.834 14.48 372.442 15.512 371.938 16.616H371.89C371.89 15.992 371.842 15.368 371.842 14.768H370.066C370.066 15.512 370.162 16.4 370.162 17.432V26Z" fill="#595D71"/>
<path d="M131.696 298.352C130.256 297.08 128.408 296.576 126.488 296.576C123.152 296.576 120.008 298.472 120.008 302.096C120.008 307.76 127.976 306.08 127.976 309.2C127.976 310.4 126.608 310.976 125.384 310.976C124.136 310.976 122.888 310.376 122.12 309.368L119.456 312.296C121.064 313.784 122.984 314.432 125.168 314.432C128.672 314.432 131.72 312.632 131.72 308.84C131.72 302.888 123.896 304.88 123.896 301.784C123.896 300.512 125.36 300.032 126.416 300.032C127.328 300.032 128.528 300.392 129.128 301.16L131.696 298.352ZM144.973 310.136C144.373 310.952 143.581 311.552 142.405 311.552C141.013 311.552 139.981 310.664 139.693 309.296H148.045V308.168C148.045 304.448 145.933 302.048 142.573 302.048C138.973 302.048 136.093 304.448 136.093 308.168C136.093 311.888 138.973 314.288 142.573 314.288C144.445 314.288 146.341 313.448 147.493 311.984L144.973 310.136ZM139.693 306.848C139.789 305.72 140.653 304.64 142.237 304.64C143.533 304.64 144.469 305.648 144.445 306.848H139.693ZM152.97 319.472H156.57V312.752H156.618C157.434 313.88 158.826 314.288 160.314 314.288C163.627 314.288 165.642 311.312 165.642 308.072C165.642 304.544 163.362 302.048 159.906 302.048C158.274 302.048 156.882 303.032 156.33 303.872H156.282V302.336H152.97V319.472ZM156.282 308.168C156.282 306.416 157.362 305.216 159.162 305.216C160.962 305.216 162.042 306.416 162.042 308.168C162.042 309.92 160.962 311.12 159.162 311.12C157.362 311.12 156.282 309.92 156.282 308.168ZM178.096 302.336H174.928V298.88H171.328V302.336H169.024V305.216H171.328V310.76C171.328 313.304 173.176 314.288 175.576 314.288C176.416 314.288 177.304 314.216 178.096 313.928V310.928C177.784 311.216 177.016 311.264 176.632 311.264C175.072 311.264 174.928 310.352 174.928 309.104V305.216H178.096V302.336ZM190.845 310.136C190.245 310.952 189.453 311.552 188.277 311.552C186.885 311.552 185.853 310.664 185.565 309.296H193.917V308.168C193.917 304.448 191.805 302.048 188.445 302.048C184.845 302.048 181.965 304.448 181.965 308.168C181.965 311.888 184.845 314.288 188.445 314.288C190.317 314.288 192.213 313.448 193.365 311.984L190.845 310.136ZM185.565 306.848C185.661 305.72 186.525 304.64 188.109 304.64C189.405 304.64 190.341 305.648 190.317 306.848H185.565ZM198.506 314H202.106V308.192C202.106 306.68 202.394 305.216 204.266 305.216C205.922 305.216 205.874 306.968 205.874 307.832V314H209.474V307.832C209.474 306.392 210.002 305.216 211.658 305.216C212.834 305.216 213.242 306.128 213.242 307.208V314H216.842V307.112C216.842 304.28 215.882 302.048 212.714 302.048C210.986 302.048 209.858 302.648 209.018 304.136C208.394 302.72 207.05 302.048 205.418 302.048C203.666 302.048 202.49 303.008 202.01 303.92H201.962V302.336H198.506V314ZM222.125 314H225.437V312.464H225.485C226.037 313.304 227.429 314.288 229.061 314.288C232.517 314.288 234.797 311.792 234.797 308.264C234.797 305.024 232.781 302.048 229.469 302.048C227.981 302.048 226.589 302.456 225.773 303.584H225.725V295.856H222.125V314ZM225.437 308.168C225.437 306.416 226.517 305.216 228.317 305.216C230.117 305.216 231.197 306.416 231.197 308.168C231.197 309.92 230.117 311.12 228.317 311.12C226.517 311.12 225.437 309.92 225.437 308.168ZM247.826 310.136C247.226 310.952 246.434 311.552 245.258 311.552C243.866 311.552 242.834 310.664 242.546 309.296H250.898V308.168C250.898 304.448 248.786 302.048 245.426 302.048C241.826 302.048 238.946 304.448 238.946 308.168C238.946 311.888 241.826 314.288 245.426 314.288C247.298 314.288 249.194 313.448 250.346 311.984L247.826 310.136ZM242.546 306.848C242.642 305.72 243.506 304.64 245.09 304.64C246.386 304.64 247.322 305.648 247.298 306.848H242.546ZM255.488 314H259.088V309.128C259.088 306.8 259.424 305.216 262.16 305.216C262.688 305.216 263.192 305.312 263.696 305.456V302.168C263.36 302.072 262.904 302.048 262.496 302.048C260.912 302.048 259.904 302.792 259.136 304.208H259.088V302.336H255.488V314ZM277.067 314H288.923V310.832H281.387L286.547 306.392C287.843 305.264 288.779 304.016 288.779 301.832C288.779 298.424 286.379 296.72 283.283 296.72C279.947 296.72 277.499 298.424 277.283 301.928L280.883 302.192C280.979 300.968 281.771 300.032 283.091 300.032C284.195 300.032 285.179 300.728 285.179 301.88C285.179 302.912 284.339 303.632 283.667 304.256L277.067 310.184V314ZM303.366 297.008H298.974L295.254 302.816C294.174 304.52 293.214 306.008 293.214 308.456C293.214 311.96 295.998 314.288 299.55 314.288C303.102 314.288 305.886 311.96 305.886 308.456C305.886 305.36 303.75 302.912 300.558 302.912C300.15 302.912 299.766 302.984 299.382 303.08L303.366 297.008ZM302.286 308.312C302.286 309.848 301.158 310.976 299.55 310.976C297.942 310.976 296.814 309.848 296.814 308.312C296.814 306.776 297.942 305.648 299.55 305.648C301.158 305.648 302.286 306.776 302.286 308.312ZM309.505 316.88H312.577L314.737 310.112H311.281L309.505 316.88ZM319.774 314H331.63V310.832H324.094L329.254 306.392C330.55 305.264 331.486 304.016 331.486 301.832C331.486 298.424 329.086 296.72 325.99 296.72C322.654 296.72 320.206 298.424 319.99 301.928L323.59 302.192C323.686 300.968 324.478 300.032 325.798 300.032C326.902 300.032 327.886 300.728 327.886 301.88C327.886 302.912 327.046 303.632 326.374 304.256L319.774 310.184V314ZM335.994 305.504C335.994 309.536 337.266 314.288 342.306 314.288C347.346 314.288 348.618 309.536 348.618 305.504C348.618 301.472 347.346 296.72 342.306 296.72C337.266 296.72 335.994 301.472 335.994 305.504ZM339.594 305.504C339.594 303.728 339.714 300.032 342.306 300.032C344.898 300.032 345.018 303.728 345.018 305.504C345.018 307.28 344.898 310.976 342.306 310.976C339.714 310.976 339.594 307.28 339.594 305.504ZM352.981 314H364.837V310.832H357.301L362.461 306.392C363.757 305.264 364.693 304.016 364.693 301.832C364.693 298.424 362.293 296.72 359.197 296.72C355.861 296.72 353.413 298.424 353.197 301.928L356.797 302.192C356.893 300.968 357.685 300.032 359.005 300.032C360.109 300.032 361.093 300.728 361.093 301.88C361.093 302.912 360.253 303.632 359.581 304.256L352.981 310.184V314ZM369.584 314H381.44V310.832H373.904L379.064 306.392C380.36 305.264 381.296 304.016 381.296 301.832C381.296 298.424 378.896 296.72 375.8 296.72C372.464 296.72 370.016 298.424 369.8 301.928L373.4 302.192C373.496 300.968 374.288 300.032 375.608 300.032C376.712 300.032 377.696 300.728 377.696 301.88C377.696 302.912 376.856 303.632 376.184 304.256L369.584 310.184V314Z" fill="#595D71"/>
<path d="M140.512 353.008H127.264V354.88H132.88V370H134.896V354.88H140.512V353.008ZM149.469 370H151.413L158.061 353.008H155.925L150.525 366.976H150.477L145.245 353.008H142.965L149.469 370ZM185.893 360.496H179.965V362.368H183.877V367.576C182.629 368.2 181.021 368.56 179.653 368.56C175.477 368.56 172.621 365.56 172.621 361.504C172.621 357.376 175.573 354.448 179.461 354.448C181.189 354.448 182.941 355.144 184.093 356.392L185.605 354.808C183.997 353.176 181.837 352.576 179.605 352.576C174.517 352.576 170.461 356.152 170.461 361.504C170.461 366.832 174.253 370.432 179.533 370.432C181.741 370.432 183.949 369.928 185.893 368.848V360.496ZM201.98 358.768H200.108V364.24C200.108 366.808 199.052 368.56 196.628 368.56C194.876 368.56 194.06 367.384 194.06 365.512V358.768H192.188V365.704C192.188 368.416 193.508 370.288 196.46 370.288C198.308 370.288 199.7 369.256 200.204 368.152H200.252C200.252 368.776 200.3 369.4 200.3 370H202.076C202.076 369.256 201.98 368.368 201.98 367.336V358.768ZM208.092 370H209.964V358.768H208.092V370ZM207.66 354.376C207.66 355.168 208.236 355.744 209.028 355.744C209.82 355.744 210.396 355.168 210.396 354.376C210.396 353.632 209.796 353.008 209.028 353.008C208.26 353.008 207.66 353.632 207.66 354.376ZM225.426 370H227.298V351.856H225.426V360.4H225.378C224.346 359.2 222.978 358.48 221.346 358.48C217.818 358.48 215.442 360.976 215.442 364.384C215.442 367.744 217.914 370.288 221.058 370.288C223.074 370.288 224.682 369.28 225.378 368.008H225.426V370ZM225.426 364.384C225.426 366.736 223.866 368.56 221.442 368.56C219.018 368.56 217.458 366.736 217.458 364.384C217.458 362.032 219.018 360.208 221.442 360.208C223.866 360.208 225.426 362.032 225.426 364.384ZM241.778 366.856C240.89 367.984 239.81 368.56 238.202 368.56C236.162 368.56 234.674 366.904 234.53 364.96H243.602V364.36C243.602 360.64 241.442 358.48 238.274 358.48C234.962 358.48 232.514 360.904 232.514 364.384C232.514 367.648 234.674 370.288 238.202 370.288C240.29 370.288 241.874 369.664 243.194 367.96L241.778 366.856ZM234.53 363.376C234.77 361.48 236.138 360.208 238.202 360.208C240.266 360.208 241.514 361.48 241.586 363.376H234.53ZM256.346 370H258.626L260.378 365.824H268.874L270.602 370H272.954L265.73 353.008H263.834L256.346 370ZM268.106 363.952H261.17L264.698 355.6H264.746L268.106 363.952ZM277.18 375.472H279.052V368.008H279.1C279.796 369.28 281.404 370.288 283.42 370.288C286.564 370.288 289.036 367.744 289.036 364.384C289.036 360.976 286.66 358.48 283.132 358.48C281.5 358.48 280.132 359.2 279.1 360.4H279.052V358.768H277.18V375.472ZM279.052 364.384C279.052 362.032 280.612 360.208 283.036 360.208C285.46 360.208 287.02 362.032 287.02 364.384C287.02 366.736 285.46 368.56 283.036 368.56C280.612 368.56 279.052 366.736 279.052 364.384ZM294.252 375.472H296.124V368.008H296.172C296.868 369.28 298.476 370.288 300.492 370.288C303.636 370.288 306.108 367.744 306.108 364.384C306.108 360.976 303.732 358.48 300.204 358.48C298.572 358.48 297.204 359.2 296.172 360.4H296.124V358.768H294.252V375.472ZM296.124 364.384C296.124 362.032 297.684 360.208 300.108 360.208C302.532 360.208 304.092 362.032 304.092 364.384C304.092 366.736 302.532 368.56 300.108 368.56C297.684 368.56 296.124 366.736 296.124 364.384ZM320.523 370H327.051C330.387 370 335.379 367.768 335.379 361.504C335.379 355.24 330.387 353.008 327.051 353.008H320.523V370ZM322.539 354.88H326.379C330.267 354.88 333.219 356.848 333.219 361.504C333.219 366.16 330.267 368.128 326.379 368.128H322.539V354.88ZM349.305 366.856C348.417 367.984 347.337 368.56 345.729 368.56C343.689 368.56 342.201 366.904 342.057 364.96H351.129V364.36C351.129 360.64 348.969 358.48 345.801 358.48C342.489 358.48 340.041 360.904 340.041 364.384C340.041 367.648 342.201 370.288 345.729 370.288C347.817 370.288 349.401 369.664 350.721 367.96L349.305 366.856ZM342.057 363.376C342.297 361.48 343.665 360.208 345.729 360.208C347.793 360.208 349.041 361.48 349.113 363.376H342.057ZM355.176 368.2C356.28 369.784 357.648 370.288 359.544 370.288C361.776 370.288 364.032 369.304 364.032 366.76C364.032 364.504 362.352 363.784 360.36 363.4C358.872 363.112 357.528 362.704 357.528 361.768C357.528 360.712 358.704 360.208 359.736 360.208C360.84 360.208 361.632 360.76 362.112 361.552L363.672 360.52C362.904 359.08 361.44 358.48 359.856 358.48C357.768 358.48 355.656 359.608 355.656 361.792C355.656 364.12 357.48 364.576 359.616 365.056C360.816 365.32 362.016 365.632 362.016 366.832C362.016 368.056 360.72 368.56 359.544 368.56C358.224 368.56 357.408 367.96 356.664 367.048L355.176 368.2ZM369.211 370H371.083V358.768H369.211V370ZM368.779 354.376C368.779 355.168 369.355 355.744 370.147 355.744C370.939 355.744 371.515 355.168 371.515 354.376C371.515 353.632 370.915 353.008 370.147 353.008C369.379 353.008 368.779 353.632 368.779 354.376ZM388.417 358.768H386.545V360.688H386.497C385.753 359.2 384.049 358.48 382.537 358.48C378.961 358.48 376.561 360.712 376.561 364.384C376.561 367.696 379.009 370.144 382.537 370.144C384.025 370.144 385.609 369.496 386.497 368.056H386.545V369.496C386.545 371.872 385.657 374.032 382.297 374.032C380.569 374.032 379.297 373.36 378.121 372.088L376.777 373.624C378.361 375.184 380.113 375.76 382.297 375.76C386.233 375.76 388.417 373.552 388.417 369.496V358.768ZM378.577 364.384C378.577 362.032 380.185 360.208 382.537 360.208C384.913 360.208 386.545 361.912 386.545 364.336C386.545 366.496 385.105 368.416 382.537 368.416C380.353 368.416 378.577 366.664 378.577 364.384ZM394.281 370H396.153V364.528C396.153 361.96 397.209 360.208 399.633 360.208C401.385 360.208 402.201 361.384 402.201 363.256V370H404.073V363.064C404.073 360.352 402.753 358.48 399.801 358.48C397.953 358.48 396.561 359.512 396.057 360.616H396.009C396.009 359.992 395.961 359.368 395.961 358.768H394.185C394.185 359.512 394.281 360.4 394.281 361.432V370ZM429.152 354.568C427.904 353.104 426.296 352.576 424.4 352.576C421.424 352.576 418.616 354.208 418.616 357.472C418.616 360.304 420.44 361.36 422.84 362.152C425.864 363.16 427.28 363.52 427.28 365.608C427.28 367.552 425.312 368.56 423.584 368.56C422.12 368.56 420.68 367.912 419.96 366.664L418.232 368.08C419.384 369.784 421.496 370.432 423.464 370.432C426.536 370.432 429.44 368.848 429.44 365.464C429.44 362.128 426.992 361.264 424.352 360.424C421.64 359.56 420.776 358.864 420.776 357.304C420.776 355.288 422.624 354.448 424.4 354.448C425.624 354.448 426.824 354.928 427.496 356.008L429.152 354.568ZM444.384 358.768H442.344L439.008 367.576H438.96L435.48 358.768H433.296L437.952 370.072L437.184 372.184C436.776 373.288 436.32 374.032 435.096 374.032C434.568 374.032 434.16 373.984 433.776 373.84L433.536 375.472C434.04 375.712 434.688 375.76 435.216 375.76C437.472 375.76 438.216 374.464 438.96 372.568L444.384 358.768ZM447.562 368.2C448.666 369.784 450.034 370.288 451.93 370.288C454.162 370.288 456.418 369.304 456.418 366.76C456.418 364.504 454.738 363.784 452.746 363.4C451.258 363.112 449.914 362.704 449.914 361.768C449.914 360.712 451.09 360.208 452.122 360.208C453.226 360.208 454.018 360.76 454.498 361.552L456.058 360.52C455.29 359.08 453.826 358.48 452.242 358.48C450.154 358.48 448.042 359.608 448.042 361.792C448.042 364.12 449.866 364.576 452.002 365.056C453.202 365.32 454.402 365.632 454.402 366.832C454.402 368.056 453.106 368.56 451.93 368.56C450.61 368.56 449.794 367.96 449.05 367.048L447.562 368.2ZM467.573 358.768H464.261V355.576H462.389V358.768H459.941V360.352H462.389V366.52C462.389 368.848 462.821 370.288 465.485 370.288C466.181 370.288 467.021 370.168 467.669 369.88L467.597 368.176C467.093 368.44 466.493 368.56 465.941 368.56C464.285 368.56 464.261 367.408 464.261 365.968V360.352H467.573V358.768ZM480.883 366.856C479.995 367.984 478.915 368.56 477.307 368.56C475.267 368.56 473.779 366.904 473.635 364.96H482.707V364.36C482.707 360.64 480.547 358.48 477.379 358.48C474.067 358.48 471.619 360.904 471.619 364.384C471.619 367.648 473.779 370.288 477.307 370.288C479.395 370.288 480.979 369.664 482.299 367.96L480.883 366.856ZM473.635 363.376C473.875 361.48 475.243 360.208 477.307 360.208C479.371 360.208 480.619 361.48 480.691 363.376H473.635ZM488.003 370H489.875V364.528C489.875 361.96 490.931 360.208 493.355 360.208C494.891 360.208 495.515 361.168 495.515 363.64V370H497.387V363.52C497.387 361.504 498.707 360.208 500.291 360.208C502.475 360.208 503.027 361.72 503.027 363.28V370H504.899V363.184C504.899 360.28 503.843 358.48 500.627 358.48C498.923 358.48 497.891 359.296 497.075 360.616C496.715 359.848 495.947 358.48 493.523 358.48C491.675 358.48 490.283 359.512 489.779 360.616H489.731C489.731 359.992 489.683 359.368 489.683 358.768H487.907C487.907 359.512 488.003 360.4 488.003 361.432V370ZM535.592 358.768H533.576L531.032 367.408H530.984L528.032 358.768H526.064L523.16 367.408H523.112L520.544 358.768H518.48L522.128 370H524.048L526.88 361.36H526.928L530.12 370H531.968L535.592 358.768ZM541.141 361.432C542.029 360.616 543.277 360.208 544.477 360.208C546.229 360.208 547.261 361.048 547.261 362.68V363.016H546.541C543.781 363.016 539.461 363.232 539.461 366.952C539.461 369.136 541.357 370.288 543.637 370.288C545.341 370.288 546.589 369.472 547.333 368.32H547.381C547.381 368.8 547.381 369.496 547.501 370H549.301C549.205 369.424 549.133 368.704 549.133 368.056V363.232C549.133 360.064 547.741 358.48 544.429 358.48C542.797 358.48 541.117 359.032 539.965 360.208L541.141 361.432ZM547.261 364.6V365.32C547.213 367.144 546.109 368.704 543.949 368.704C542.533 368.704 541.477 368.176 541.477 366.76C541.477 365.248 543.013 364.6 545.389 364.6H547.261ZM553.706 368.2C554.81 369.784 556.178 370.288 558.074 370.288C560.306 370.288 562.562 369.304 562.562 366.76C562.562 364.504 560.882 363.784 558.89 363.4C557.402 363.112 556.058 362.704 556.058 361.768C556.058 360.712 557.234 360.208 558.266 360.208C559.37 360.208 560.162 360.76 560.642 361.552L562.202 360.52C561.434 359.08 559.97 358.48 558.386 358.48C556.298 358.48 554.186 359.608 554.186 361.792C554.186 364.12 556.01 364.576 558.146 365.056C559.346 365.32 560.546 365.632 560.546 366.832C560.546 368.056 559.25 368.56 558.074 368.56C556.754 368.56 555.938 367.96 555.194 367.048L553.706 368.2ZM576.557 370H578.429V368.008H578.477C579.173 369.28 580.781 370.288 582.797 370.288C585.941 370.288 588.413 367.744 588.413 364.384C588.413 360.976 586.037 358.48 582.509 358.48C580.877 358.48 579.509 359.2 578.477 360.4H578.429V351.856H576.557V370ZM578.429 364.384C578.429 362.032 579.989 360.208 582.413 360.208C584.837 360.208 586.397 362.032 586.397 364.384C586.397 366.736 584.837 368.56 582.413 368.56C579.989 368.56 578.429 366.736 578.429 364.384ZM603.516 358.768H601.644V364.24C601.644 366.808 600.588 368.56 598.164 368.56C596.412 368.56 595.596 367.384 595.596 365.512V358.768H593.724V365.704C593.724 368.416 595.044 370.288 597.996 370.288C599.844 370.288 601.236 369.256 601.74 368.152H601.788C601.788 368.776 601.836 369.4 601.836 370H603.612C603.612 369.256 603.516 368.368 603.516 367.336V358.768ZM609.628 370H611.5V358.768H609.628V370ZM609.196 354.376C609.196 355.168 609.772 355.744 610.564 355.744C611.356 355.744 611.932 355.168 611.932 354.376C611.932 353.632 611.332 353.008 610.564 353.008C609.796 353.008 609.196 353.632 609.196 354.376ZM617.794 370H619.666V351.856H617.794V370ZM631.936 358.768H628.624V355.576H626.752V358.768H624.304V360.352H626.752V366.52C626.752 368.848 627.184 370.288 629.848 370.288C630.544 370.288 631.384 370.168 632.032 369.88L631.96 368.176C631.456 368.44 630.856 368.56 630.304 368.56C628.648 368.56 628.624 367.408 628.624 365.968V360.352H631.936V358.768ZM651.853 358.768H648.541V355.576H646.669V358.768H644.221V360.352H646.669V366.52C646.669 368.848 647.101 370.288 649.765 370.288C650.461 370.288 651.301 370.168 651.949 369.88L651.877 368.176C651.373 368.44 650.773 368.56 650.221 368.56C648.565 368.56 648.541 367.408 648.541 365.968V360.352H651.853V358.768ZM655.898 364.384C655.898 367.888 658.442 370.288 661.898 370.288C665.354 370.288 667.898 367.888 667.898 364.384C667.898 360.88 665.354 358.48 661.898 358.48C658.442 358.48 655.898 360.88 655.898 364.384ZM657.914 364.384C657.914 362.032 659.474 360.208 661.898 360.208C664.322 360.208 665.882 362.032 665.882 364.384C665.882 366.736 664.322 368.56 661.898 368.56C659.474 368.56 657.914 366.736 657.914 364.384ZM129.808 401.432C130.696 400.616 131.944 400.208 133.144 400.208C134.896 400.208 135.928 401.048 135.928 402.68V403.016H135.208C132.448 403.016 128.128 403.232 128.128 406.952C128.128 409.136 130.024 410.288 132.304 410.288C134.008 410.288 135.256 409.472 136 408.32H136.048C136.048 408.8 136.048 409.496 136.168 410H137.968C137.872 409.424 137.8 408.704 137.8 408.056V403.232C137.8 400.064 136.408 398.48 133.096 398.48C131.464 398.48 129.784 399.032 128.632 400.208L129.808 401.432ZM135.928 404.6V405.32C135.88 407.144 134.776 408.704 132.616 408.704C131.2 408.704 130.144 408.176 130.144 406.76C130.144 405.248 131.68 404.6 134.056 404.6H135.928ZM153.101 400.256C151.973 399.032 150.437 398.48 148.781 398.48C145.325 398.48 142.973 400.976 142.973 404.384C142.973 407.84 145.301 410.288 148.781 410.288C150.413 410.288 151.949 409.736 153.029 408.488L151.637 407.168C150.941 408.128 150.005 408.56 148.781 408.56C146.501 408.56 144.989 406.688 144.989 404.384C144.989 402.08 146.261 400.208 148.781 400.208C149.909 400.208 150.821 400.616 151.613 401.576L153.101 400.256ZM167.079 400.256C165.951 399.032 164.415 398.48 162.759 398.48C159.303 398.48 156.951 400.976 156.951 404.384C156.951 407.84 159.279 410.288 162.759 410.288C164.391 410.288 165.927 409.736 167.007 408.488L165.615 407.168C164.919 408.128 163.983 408.56 162.759 408.56C160.479 408.56 158.967 406.688 158.967 404.384C158.967 402.08 160.239 400.208 162.759 400.208C163.887 400.208 164.799 400.616 165.591 401.576L167.079 400.256ZM170.93 404.384C170.93 407.888 173.474 410.288 176.93 410.288C180.386 410.288 182.93 407.888 182.93 404.384C182.93 400.88 180.386 398.48 176.93 398.48C173.474 398.48 170.93 400.88 170.93 404.384ZM172.946 404.384C172.946 402.032 174.506 400.208 176.93 400.208C179.354 400.208 180.914 402.032 180.914 404.384C180.914 406.736 179.354 408.56 176.93 408.56C174.506 408.56 172.946 406.736 172.946 404.384ZM188.228 410H190.1V404.528C190.1 401.96 191.156 400.208 193.58 400.208C195.116 400.208 195.74 401.168 195.74 403.64V410H197.612V403.52C197.612 401.504 198.932 400.208 200.516 400.208C202.7 400.208 203.252 401.72 203.252 403.28V410H205.124V403.184C205.124 400.28 204.068 398.48 200.852 398.48C199.148 398.48 198.116 399.296 197.3 400.616C196.94 399.848 196.172 398.48 193.748 398.48C191.9 398.48 190.508 399.512 190.004 400.616H189.956C189.956 399.992 189.908 399.368 189.908 398.768H188.132C188.132 399.512 188.228 400.4 188.228 401.432V410ZM211.065 410H212.937V404.528C212.937 401.96 213.993 400.208 216.417 400.208C217.953 400.208 218.577 401.168 218.577 403.64V410H220.449V403.52C220.449 401.504 221.769 400.208 223.353 400.208C225.537 400.208 226.089 401.72 226.089 403.28V410H227.961V403.184C227.961 400.28 226.905 398.48 223.689 398.48C221.985 398.48 220.953 399.296 220.137 400.616C219.777 399.848 219.009 398.48 216.585 398.48C214.737 398.48 213.345 399.512 212.841 400.616H212.793C212.793 399.992 212.745 399.368 212.745 398.768H210.969C210.969 399.512 211.065 400.4 211.065 401.432V410ZM233.255 404.384C233.255 407.888 235.799 410.288 239.255 410.288C242.711 410.288 245.255 407.888 245.255 404.384C245.255 400.88 242.711 398.48 239.255 398.48C235.799 398.48 233.255 400.88 233.255 404.384ZM235.271 404.384C235.271 402.032 236.831 400.208 239.255 400.208C241.679 400.208 243.239 402.032 243.239 404.384C243.239 406.736 241.679 408.56 239.255 408.56C236.831 408.56 235.271 406.736 235.271 404.384ZM259.889 410H261.761V391.856H259.889V400.4H259.841C258.809 399.2 257.441 398.48 255.809 398.48C252.281 398.48 249.905 400.976 249.905 404.384C249.905 407.744 252.377 410.288 255.521 410.288C257.537 410.288 259.145 409.28 259.841 408.008H259.889V410ZM259.889 404.384C259.889 406.736 258.329 408.56 255.905 408.56C253.481 408.56 251.921 406.736 251.921 404.384C251.921 402.032 253.481 400.208 255.905 400.208C258.329 400.208 259.889 402.032 259.889 404.384ZM268.656 401.432C269.544 400.616 270.792 400.208 271.992 400.208C273.744 400.208 274.776 401.048 274.776 402.68V403.016H274.056C271.296 403.016 266.976 403.232 266.976 406.952C266.976 409.136 268.872 410.288 271.152 410.288C272.856 410.288 274.104 409.472 274.848 408.32H274.896C274.896 408.8 274.896 409.496 275.016 410H276.816C276.72 409.424 276.648 408.704 276.648 408.056V403.232C276.648 400.064 275.256 398.48 271.944 398.48C270.312 398.48 268.632 399.032 267.48 400.208L268.656 401.432ZM274.776 404.6V405.32C274.728 407.144 273.624 408.704 271.464 408.704C270.048 408.704 268.992 408.176 268.992 406.76C268.992 405.248 270.528 404.6 272.904 404.6H274.776ZM288.614 398.768H285.302V395.576H283.43V398.768H280.982V400.352H283.43V406.52C283.43 408.848 283.862 410.288 286.526 410.288C287.222 410.288 288.062 410.168 288.71 409.88L288.638 408.176C288.134 408.44 287.534 408.56 286.982 408.56C285.326 408.56 285.302 407.408 285.302 405.968V400.352H288.614V398.768ZM301.923 406.856C301.035 407.984 299.955 408.56 298.347 408.56C296.307 408.56 294.819 406.904 294.675 404.96H303.747V404.36C303.747 400.64 301.587 398.48 298.419 398.48C295.107 398.48 292.659 400.904 292.659 404.384C292.659 407.648 294.819 410.288 298.347 410.288C300.435 410.288 302.019 409.664 303.339 407.96L301.923 406.856ZM294.675 403.376C294.915 401.48 296.283 400.208 298.347 400.208C300.411 400.208 301.659 401.48 301.731 403.376H294.675ZM316.875 408.2C317.979 409.784 319.347 410.288 321.243 410.288C323.475 410.288 325.731 409.304 325.731 406.76C325.731 404.504 324.051 403.784 322.059 403.4C320.571 403.112 319.227 402.704 319.227 401.768C319.227 400.712 320.403 400.208 321.435 400.208C322.539 400.208 323.331 400.76 323.811 401.552L325.371 400.52C324.603 399.08 323.139 398.48 321.555 398.48C319.467 398.48 317.355 399.608 317.355 401.792C317.355 404.12 319.179 404.576 321.315 405.056C322.515 405.32 323.715 405.632 323.715 406.832C323.715 408.056 322.419 408.56 321.243 408.56C319.923 408.56 319.107 407.96 318.363 407.048L316.875 408.2ZM340.222 400.256C339.094 399.032 337.558 398.48 335.902 398.48C332.446 398.48 330.094 400.976 330.094 404.384C330.094 407.84 332.422 410.288 335.902 410.288C337.534 410.288 339.07 409.736 340.15 408.488L338.758 407.168C338.062 408.128 337.126 408.56 335.902 408.56C333.622 408.56 332.11 406.688 332.11 404.384C332.11 402.08 333.382 400.208 335.902 400.208C337.03 400.208 337.942 400.616 338.734 401.576L340.222 400.256ZM345.752 401.432C346.64 400.616 347.888 400.208 349.088 400.208C350.84 400.208 351.872 401.048 351.872 402.68V403.016H351.152C348.392 403.016 344.072 403.232 344.072 406.952C344.072 409.136 345.968 410.288 348.248 410.288C349.952 410.288 351.2 409.472 351.944 408.32H351.992C351.992 408.8 351.992 409.496 352.112 410H353.912C353.816 409.424 353.744 408.704 353.744 408.056V403.232C353.744 400.064 352.352 398.48 349.04 398.48C347.408 398.48 345.728 399.032 344.576 400.208L345.752 401.432ZM351.872 404.6V405.32C351.824 407.144 350.72 408.704 348.56 408.704C347.144 408.704 346.088 408.176 346.088 406.76C346.088 405.248 347.624 404.6 350 404.6H351.872ZM359.733 410H361.605V391.856H359.733V410ZM367.899 410H369.771V398.768H367.899V410ZM367.467 394.376C367.467 395.168 368.043 395.744 368.835 395.744C369.627 395.744 370.203 395.168 370.203 394.376C370.203 393.632 369.603 393.008 368.835 393.008C368.067 393.008 367.467 393.632 367.467 394.376ZM375.8 410H377.672V408.008H377.72C378.416 409.28 380.024 410.288 382.04 410.288C385.184 410.288 387.656 407.744 387.656 404.384C387.656 400.976 385.28 398.48 381.752 398.48C380.12 398.48 378.752 399.2 377.72 400.4H377.672V391.856H375.8V410ZM377.672 404.384C377.672 402.032 379.232 400.208 381.656 400.208C384.08 400.208 385.64 402.032 385.64 404.384C385.64 406.736 384.08 408.56 381.656 408.56C379.232 408.56 377.672 406.736 377.672 404.384ZM393.136 410H395.008V398.768H393.136V410ZM392.704 394.376C392.704 395.168 393.28 395.744 394.072 395.744C394.864 395.744 395.44 395.168 395.44 394.376C395.44 393.632 394.84 393.008 394.072 393.008C393.304 393.008 392.704 393.632 392.704 394.376ZM401.302 410H403.174V391.856H401.302V410ZM409.467 410H411.339V398.768H409.467V410ZM409.035 394.376C409.035 395.168 409.611 395.744 410.403 395.744C411.195 395.744 411.771 395.168 411.771 394.376C411.771 393.632 411.171 393.008 410.403 393.008C409.635 393.008 409.035 393.632 409.035 394.376ZM423.609 398.768H420.297V395.576H418.425V398.768H415.977V400.352H418.425V406.52C418.425 408.848 418.857 410.288 421.521 410.288C422.217 410.288 423.057 410.168 423.705 409.88L423.633 408.176C423.129 408.44 422.529 408.56 421.977 408.56C420.321 408.56 420.297 407.408 420.297 405.968V400.352H423.609V398.768ZM437.855 398.768H435.815L432.479 407.576H432.431L428.951 398.768H426.767L431.423 410.072L430.655 412.184C430.247 413.288 429.791 414.032 428.567 414.032C428.039 414.032 427.631 413.984 427.247 413.84L427.007 415.472C427.511 415.712 428.159 415.76 428.687 415.76C430.943 415.76 431.687 414.464 432.431 412.568L437.855 398.768ZM443.787 407.552H441.603L439.971 413.312H441.819L443.787 407.552ZM457.411 408.2C458.515 409.784 459.883 410.288 461.779 410.288C464.011 410.288 466.267 409.304 466.267 406.76C466.267 404.504 464.587 403.784 462.595 403.4C461.107 403.112 459.763 402.704 459.763 401.768C459.763 400.712 460.939 400.208 461.971 400.208C463.075 400.208 463.867 400.76 464.347 401.552L465.907 400.52C465.139 399.08 463.675 398.48 462.091 398.48C460.003 398.48 457.891 399.608 457.891 401.792C457.891 404.12 459.715 404.576 461.851 405.056C463.051 405.32 464.251 405.632 464.251 406.832C464.251 408.056 462.955 408.56 461.779 408.56C460.459 408.56 459.643 407.96 458.899 407.048L457.411 408.2ZM470.63 404.384C470.63 407.888 473.174 410.288 476.63 410.288C480.086 410.288 482.63 407.888 482.63 404.384C482.63 400.88 480.086 398.48 476.63 398.48C473.174 398.48 470.63 400.88 470.63 404.384ZM472.646 404.384C472.646 402.032 474.206 400.208 476.63 400.208C479.054 400.208 480.614 402.032 480.614 404.384C480.614 406.736 479.054 408.56 476.63 408.56C474.206 408.56 472.646 406.736 472.646 404.384ZM506.487 400.256C505.359 399.032 503.823 398.48 502.167 398.48C498.711 398.48 496.359 400.976 496.359 404.384C496.359 407.84 498.687 410.288 502.167 410.288C503.799 410.288 505.335 409.736 506.415 408.488L505.023 407.168C504.327 408.128 503.391 408.56 502.167 408.56C499.887 408.56 498.375 406.688 498.375 404.384C498.375 402.08 499.647 400.208 502.167 400.208C503.295 400.208 504.207 400.616 504.999 401.576L506.487 400.256ZM510.337 404.384C510.337 407.888 512.881 410.288 516.337 410.288C519.793 410.288 522.337 407.888 522.337 404.384C522.337 400.88 519.793 398.48 516.337 398.48C512.881 398.48 510.337 400.88 510.337 404.384ZM512.353 404.384C512.353 402.032 513.913 400.208 516.337 400.208C518.761 400.208 520.321 402.032 520.321 404.384C520.321 406.736 518.761 408.56 516.337 408.56C513.913 408.56 512.353 406.736 512.353 404.384ZM527.635 410H529.507V404.528C529.507 401.96 530.563 400.208 532.987 400.208C534.523 400.208 535.147 401.168 535.147 403.64V410H537.019V403.52C537.019 401.504 538.339 400.208 539.923 400.208C542.107 400.208 542.659 401.72 542.659 403.28V410H544.531V403.184C544.531 400.28 543.475 398.48 540.259 398.48C538.555 398.48 537.523 399.296 536.707 400.616C536.347 399.848 535.579 398.48 533.155 398.48C531.307 398.48 529.915 399.512 529.411 400.616H529.363C529.363 399.992 529.315 399.368 529.315 398.768H527.539C527.539 399.512 527.635 400.4 527.635 401.432V410ZM550.377 415.472H552.249V408.008H552.297C552.993 409.28 554.601 410.288 556.617 410.288C559.761 410.288 562.233 407.744 562.233 404.384C562.233 400.976 559.857 398.48 556.329 398.48C554.697 398.48 553.329 399.2 552.297 400.4H552.249V398.768H550.377V415.472ZM552.249 404.384C552.249 402.032 553.809 400.208 556.233 400.208C558.657 400.208 560.217 402.032 560.217 404.384C560.217 406.736 558.657 408.56 556.233 408.56C553.809 408.56 552.249 406.736 552.249 404.384ZM566.897 404.384C566.897 407.888 569.441 410.288 572.897 410.288C576.353 410.288 578.897 407.888 578.897 404.384C578.897 400.88 576.353 398.48 572.897 398.48C569.441 398.48 566.897 400.88 566.897 404.384ZM568.913 404.384C568.913 402.032 570.473 400.208 572.897 400.208C575.321 400.208 576.881 402.032 576.881 404.384C576.881 406.736 575.321 408.56 572.897 408.56C570.473 408.56 568.913 406.736 568.913 404.384ZM584.195 410H586.067V404.528C586.067 401.96 587.123 400.208 589.547 400.208C591.299 400.208 592.115 401.384 592.115 403.256V410H593.987V403.064C593.987 400.352 592.667 398.48 589.715 398.48C587.867 398.48 586.475 399.512 585.971 400.616H585.923C585.923 399.992 585.875 399.368 585.875 398.768H584.099C584.099 399.512 584.195 400.4 584.195 401.432V410ZM608.547 406.856C607.659 407.984 606.579 408.56 604.971 408.56C602.931 408.56 601.443 406.904 601.299 404.96H610.371V404.36C610.371 400.64 608.211 398.48 605.043 398.48C601.731 398.48 599.283 400.904 599.283 404.384C599.283 407.648 601.443 410.288 604.971 410.288C607.059 410.288 608.643 409.664 609.963 407.96L608.547 406.856ZM601.299 403.376C601.539 401.48 602.907 400.208 604.971 400.208C607.035 400.208 608.283 401.48 608.355 403.376H601.299ZM615.667 410H617.539V404.528C617.539 401.96 618.595 400.208 621.019 400.208C622.771 400.208 623.587 401.384 623.587 403.256V410H625.459V403.064C625.459 400.352 624.139 398.48 621.187 398.48C619.339 398.48 617.947 399.512 617.443 400.616H617.395C617.395 399.992 617.347 399.368 617.347 398.768H615.571C615.571 399.512 615.667 400.4 615.667 401.432V410ZM637.547 398.768H634.235V395.576H632.363V398.768H629.915V400.352H632.363V406.52C632.363 408.848 632.795 410.288 635.459 410.288C636.155 410.288 636.995 410.168 637.643 409.88L637.571 408.176C637.067 408.44 636.467 408.56 635.915 408.56C634.259 408.56 634.235 407.408 634.235 405.968V400.352H637.547V398.768ZM640.992 408.2C642.096 409.784 643.464 410.288 645.36 410.288C647.592 410.288 649.848 409.304 649.848 406.76C649.848 404.504 648.168 403.784 646.176 403.4C644.688 403.112 643.344 402.704 643.344 401.768C643.344 400.712 644.52 400.208 645.552 400.208C646.656 400.208 647.448 400.76 647.928 401.552L649.488 400.52C648.72 399.08 647.256 398.48 645.672 398.48C643.584 398.48 641.472 399.608 641.472 401.792C641.472 404.12 643.296 404.576 645.432 405.056C646.632 405.32 647.832 405.632 647.832 406.832C647.832 408.056 646.536 408.56 645.36 408.56C644.04 408.56 643.224 407.96 642.48 407.048L640.992 408.2ZM138.256 440.256C137.128 439.032 135.592 438.48 133.936 438.48C130.48 438.48 128.128 440.976 128.128 444.384C128.128 447.84 130.456 450.288 133.936 450.288C135.568 450.288 137.104 449.736 138.184 448.488L136.792 447.168C136.096 448.128 135.16 448.56 133.936 448.56C131.656 448.56 130.144 446.688 130.144 444.384C130.144 442.08 131.416 440.208 133.936 440.208C135.064 440.208 135.976 440.616 136.768 441.576L138.256 440.256ZM143.786 441.432C144.674 440.616 145.922 440.208 147.122 440.208C148.874 440.208 149.906 441.048 149.906 442.68V443.016H149.186C146.426 443.016 142.106 443.232 142.106 446.952C142.106 449.136 144.002 450.288 146.282 450.288C147.986 450.288 149.234 449.472 149.978 448.32H150.026C150.026 448.8 150.026 449.496 150.146 450H151.946C151.85 449.424 151.778 448.704 151.778 448.056V443.232C151.778 440.064 150.386 438.48 147.074 438.48C145.442 438.48 143.762 439.032 142.61 440.208L143.786 441.432ZM149.906 444.6V445.32C149.858 447.144 148.754 448.704 146.594 448.704C145.178 448.704 144.122 448.176 144.122 446.76C144.122 445.248 145.658 444.6 148.034 444.6H149.906ZM157.599 450H159.471V444.528C159.471 441.96 160.527 440.208 162.951 440.208C164.703 440.208 165.519 441.384 165.519 443.256V450H167.391V443.064C167.391 440.352 166.071 438.48 163.119 438.48C161.271 438.48 159.879 439.512 159.375 440.616H159.327C159.327 439.992 159.279 439.368 159.279 438.768H157.503C157.503 439.512 157.599 440.4 157.599 441.432V450ZM198.087 438.768H196.071L193.527 447.408H193.479L190.527 438.768H188.559L185.655 447.408H185.607L183.039 438.768H180.975L184.623 450H186.543L189.375 441.36H189.423L192.615 450H194.463L198.087 438.768ZM201.956 444.384C201.956 447.888 204.5 450.288 207.956 450.288C211.412 450.288 213.956 447.888 213.956 444.384C213.956 440.88 211.412 438.48 207.956 438.48C204.5 438.48 201.956 440.88 201.956 444.384ZM203.972 444.384C203.972 442.032 205.532 440.208 207.956 440.208C210.38 440.208 211.94 442.032 211.94 444.384C211.94 446.736 210.38 448.56 207.956 448.56C205.532 448.56 203.972 446.736 203.972 444.384ZM219.254 450H221.126V444.528C221.126 441.96 222.134 440.352 224.414 440.352C224.75 440.352 225.11 440.4 225.422 440.496L225.542 438.6C225.278 438.504 225.014 438.48 224.774 438.48C222.926 438.48 221.534 439.512 221.03 440.616H220.982C220.982 439.992 220.934 439.368 220.934 438.768H219.158C219.158 439.512 219.254 440.4 219.254 441.432V450ZM230.092 450H231.964V444.096L237.532 450H240.292L234.316 443.88L239.74 438.768H237.076L231.964 443.712V431.856H230.092V450ZM269.243 438.768H267.227L264.683 447.408H264.635L261.683 438.768H259.715L256.811 447.408H256.763L254.195 438.768H252.131L255.779 450H257.699L260.531 441.36H260.579L263.771 450H265.619L269.243 438.768ZM282.376 446.856C281.488 447.984 280.408 448.56 278.8 448.56C276.76 448.56 275.272 446.904 275.128 444.96H284.2V444.36C284.2 440.64 282.04 438.48 278.872 438.48C275.56 438.48 273.112 440.904 273.112 444.384C273.112 447.648 275.272 450.288 278.8 450.288C280.888 450.288 282.472 449.664 283.792 447.96L282.376 446.856ZM275.128 443.376C275.368 441.48 276.736 440.208 278.8 440.208C280.864 440.208 282.112 441.48 282.184 443.376H275.128ZM289.664 450H291.536V431.856H289.664V450ZM297.83 450H299.702V431.856H297.83V450ZM315.939 441.432C316.827 440.616 318.075 440.208 319.275 440.208C321.027 440.208 322.059 441.048 322.059 442.68V443.016H321.339C318.579 443.016 314.259 443.232 314.259 446.952C314.259 449.136 316.155 450.288 318.435 450.288C320.139 450.288 321.387 449.472 322.131 448.32H322.179C322.179 448.8 322.179 449.496 322.299 450H324.099C324.003 449.424 323.931 448.704 323.931 448.056V443.232C323.931 440.064 322.539 438.48 319.227 438.48C317.595 438.48 315.915 439.032 314.763 440.208L315.939 441.432ZM322.059 444.6V445.32C322.011 447.144 320.907 448.704 318.747 448.704C317.331 448.704 316.275 448.176 316.275 446.76C316.275 445.248 317.811 444.6 320.187 444.6H322.059ZM329.921 450H331.793V431.856H329.921V450ZM337.27 444.384C337.27 447.888 339.814 450.288 343.27 450.288C346.726 450.288 349.27 447.888 349.27 444.384C349.27 440.88 346.726 438.48 343.27 438.48C339.814 438.48 337.27 440.88 337.27 444.384ZM339.286 444.384C339.286 442.032 340.846 440.208 343.27 440.208C345.694 440.208 347.254 442.032 347.254 444.384C347.254 446.736 345.694 448.56 343.27 448.56C340.846 448.56 339.286 446.736 339.286 444.384ZM354.568 450H356.44V444.528C356.44 441.96 357.496 440.208 359.92 440.208C361.672 440.208 362.488 441.384 362.488 443.256V450H364.36V443.064C364.36 440.352 363.04 438.48 360.088 438.48C358.24 438.48 356.848 439.512 356.344 440.616H356.296C356.296 439.992 356.248 439.368 356.248 438.768H354.472C354.472 439.512 354.568 440.4 354.568 441.432V450ZM381.512 438.768H379.64V440.688H379.592C378.848 439.2 377.144 438.48 375.632 438.48C372.056 438.48 369.656 440.712 369.656 444.384C369.656 447.696 372.104 450.144 375.632 450.144C377.12 450.144 378.704 449.496 379.592 448.056H379.64V449.496C379.64 451.872 378.752 454.032 375.392 454.032C373.664 454.032 372.392 453.36 371.216 452.088L369.872 453.624C371.456 455.184 373.208 455.76 375.392 455.76C379.328 455.76 381.512 453.552 381.512 449.496V438.768ZM371.672 444.384C371.672 442.032 373.28 440.208 375.632 440.208C378.008 440.208 379.64 441.912 379.64 444.336C379.64 446.496 378.2 448.416 375.632 448.416C373.448 448.416 371.672 446.664 371.672 444.384ZM386.128 448.2C387.232 449.784 388.6 450.288 390.496 450.288C392.728 450.288 394.984 449.304 394.984 446.76C394.984 444.504 393.304 443.784 391.312 443.4C389.824 443.112 388.48 442.704 388.48 441.768C388.48 440.712 389.656 440.208 390.688 440.208C391.792 440.208 392.584 440.76 393.064 441.552L394.624 440.52C393.856 439.08 392.392 438.48 390.808 438.48C388.72 438.48 386.608 439.608 386.608 441.792C386.608 444.12 388.432 444.576 390.568 445.056C391.768 445.32 392.968 445.632 392.968 446.832C392.968 448.056 391.672 448.56 390.496 448.56C389.176 448.56 388.36 447.96 387.616 447.048L386.128 448.2ZM400.163 450H402.035V438.768H400.163V450ZM399.731 434.376C399.731 435.168 400.307 435.744 401.099 435.744C401.891 435.744 402.467 435.168 402.467 434.376C402.467 433.632 401.867 433.008 401.099 433.008C400.331 433.008 399.731 433.632 399.731 434.376ZM417.496 450H419.368V431.856H417.496V440.4H417.448C416.416 439.2 415.048 438.48 413.416 438.48C409.888 438.48 407.512 440.976 407.512 444.384C407.512 447.744 409.984 450.288 413.128 450.288C415.144 450.288 416.752 449.28 417.448 448.008H417.496V450ZM417.496 444.384C417.496 446.736 415.936 448.56 413.512 448.56C411.088 448.56 409.528 446.736 409.528 444.384C409.528 442.032 411.088 440.208 413.512 440.208C415.936 440.208 417.496 442.032 417.496 444.384ZM433.848 446.856C432.96 447.984 431.88 448.56 430.272 448.56C428.232 448.56 426.744 446.904 426.6 444.96H435.672V444.36C435.672 440.64 433.512 438.48 430.344 438.48C427.032 438.48 424.584 440.904 424.584 444.384C424.584 447.648 426.744 450.288 430.272 450.288C432.36 450.288 433.944 449.664 435.264 447.96L433.848 446.856ZM426.6 443.376C426.84 441.48 428.208 440.208 430.272 440.208C432.336 440.208 433.584 441.48 433.656 443.376H426.6ZM458.664 446.856C457.776 447.984 456.696 448.56 455.088 448.56C453.048 448.56 451.56 446.904 451.416 444.96H460.488V444.36C460.488 440.64 458.328 438.48 455.16 438.48C451.848 438.48 449.4 440.904 449.4 444.384C449.4 447.648 451.56 450.288 455.088 450.288C457.176 450.288 458.76 449.664 460.08 447.96L458.664 446.856ZM451.416 443.376C451.656 441.48 453.024 440.208 455.088 440.208C457.152 440.208 458.4 441.48 458.472 443.376H451.416ZM466.816 441.432C467.704 440.616 468.952 440.208 470.152 440.208C471.904 440.208 472.936 441.048 472.936 442.68V443.016H472.216C469.456 443.016 465.136 443.232 465.136 446.952C465.136 449.136 467.032 450.288 469.312 450.288C471.016 450.288 472.264 449.472 473.008 448.32H473.056C473.056 448.8 473.056 449.496 473.176 450H474.976C474.88 449.424 474.808 448.704 474.808 448.056V443.232C474.808 440.064 473.416 438.48 470.104 438.48C468.472 438.48 466.792 439.032 465.64 440.208L466.816 441.432ZM472.936 444.6V445.32C472.888 447.144 471.784 448.704 469.624 448.704C468.208 448.704 467.152 448.176 467.152 446.76C467.152 445.248 468.688 444.6 471.064 444.6H472.936ZM490.109 440.256C488.981 439.032 487.445 438.48 485.789 438.48C482.333 438.48 479.981 440.976 479.981 444.384C479.981 447.84 482.309 450.288 485.789 450.288C487.421 450.288 488.957 449.736 490.037 448.488L488.645 447.168C487.949 448.128 487.013 448.56 485.789 448.56C483.509 448.56 481.997 446.688 481.997 444.384C481.997 442.08 483.269 440.208 485.789 440.208C486.917 440.208 487.829 440.616 488.621 441.576L490.109 440.256ZM494.607 450H496.479V444.528C496.479 441.96 497.535 440.208 499.959 440.208C501.711 440.208 502.527 441.384 502.527 443.256V450H504.399V443.064C504.399 440.352 503.079 438.48 500.127 438.48C498.375 438.48 497.031 439.44 496.527 440.328H496.479V431.856H494.607V450ZM518.775 444.384C518.775 447.888 521.319 450.288 524.775 450.288C528.231 450.288 530.775 447.888 530.775 444.384C530.775 440.88 528.231 438.48 524.775 438.48C521.319 438.48 518.775 440.88 518.775 444.384ZM520.791 444.384C520.791 442.032 522.351 440.208 524.775 440.208C527.199 440.208 528.759 442.032 528.759 444.384C528.759 446.736 527.199 448.56 524.775 448.56C522.351 448.56 520.791 446.736 520.791 444.384ZM542.217 438.768H538.905V435.576H537.033V438.768H534.585V440.352H537.033V446.52C537.033 448.848 537.465 450.288 540.129 450.288C540.825 450.288 541.665 450.168 542.313 449.88L542.241 448.176C541.737 448.44 541.137 448.56 540.585 448.56C538.929 448.56 538.905 447.408 538.905 445.968V440.352H542.217V438.768ZM546.91 450H548.782V444.528C548.782 441.96 549.838 440.208 552.262 440.208C554.014 440.208 554.83 441.384 554.83 443.256V450H556.702V443.064C556.702 440.352 555.382 438.48 552.43 438.48C550.678 438.48 549.334 439.44 548.83 440.328H548.782V431.856H546.91V450ZM571.262 446.856C570.374 447.984 569.294 448.56 567.686 448.56C565.646 448.56 564.158 446.904 564.014 444.96H573.086V444.36C573.086 440.64 570.926 438.48 567.758 438.48C564.446 438.48 561.998 440.904 561.998 444.384C561.998 447.648 564.158 450.288 567.686 450.288C569.774 450.288 571.358 449.664 572.678 447.96L571.262 446.856ZM564.014 443.376C564.254 441.48 565.622 440.208 567.686 440.208C569.75 440.208 570.998 441.48 571.07 443.376H564.014ZM578.382 450H580.254V444.528C580.254 441.96 581.262 440.352 583.542 440.352C583.878 440.352 584.238 440.4 584.55 440.496L584.67 438.6C584.406 438.504 584.142 438.48 583.902 438.48C582.054 438.48 580.662 439.512 580.158 440.616H580.11C580.11 439.992 580.062 439.368 580.062 438.768H578.286C578.286 439.512 578.382 440.4 578.382 441.432V450ZM590.305 447.552H588.121L586.489 453.312H588.337L590.305 447.552ZM606.208 441.432C607.096 440.616 608.344 440.208 609.544 440.208C611.296 440.208 612.328 441.048 612.328 442.68V443.016H611.608C608.848 443.016 604.528 443.232 604.528 446.952C604.528 449.136 606.424 450.288 608.704 450.288C610.408 450.288 611.656 449.472 612.4 448.32H612.448C612.448 448.8 612.448 449.496 612.568 450H614.368C614.272 449.424 614.2 448.704 614.2 448.056V443.232C614.2 440.064 612.808 438.48 609.496 438.48C607.864 438.48 606.184 439.032 605.032 440.208L606.208 441.432ZM612.328 444.6V445.32C612.28 447.144 611.176 448.704 609.016 448.704C607.6 448.704 606.544 448.176 606.544 446.76C606.544 445.248 608.08 444.6 610.456 444.6H612.328ZM626.165 438.768H622.853V435.576H620.981V438.768H618.533V440.352H620.981V446.52C620.981 448.848 621.413 450.288 624.077 450.288C624.773 450.288 625.613 450.168 626.261 449.88L626.189 448.176C625.685 448.44 625.085 448.56 624.533 448.56C622.877 448.56 622.853 447.408 622.853 445.968V440.352H626.165V438.768ZM646.083 438.768H642.771V435.576H640.899V438.768H638.451V440.352H640.899V446.52C640.899 448.848 641.331 450.288 643.995 450.288C644.691 450.288 645.531 450.168 646.179 449.88L646.107 448.176C645.603 448.44 645.003 448.56 644.451 448.56C642.795 448.56 642.771 447.408 642.771 445.968V440.352H646.083V438.768ZM650.776 450H652.648V444.528C652.648 441.96 653.704 440.208 656.128 440.208C657.88 440.208 658.696 441.384 658.696 443.256V450H660.568V443.064C660.568 440.352 659.248 438.48 656.296 438.48C654.544 438.48 653.2 439.44 652.696 440.328H652.648V431.856H650.776V450ZM675.128 446.856C674.24 447.984 673.16 448.56 671.552 448.56C669.512 448.56 668.024 446.904 667.88 444.96H676.952V444.36C676.952 440.64 674.792 438.48 671.624 438.48C668.312 438.48 665.864 440.904 665.864 444.384C665.864 447.648 668.024 450.288 671.552 450.288C673.64 450.288 675.224 449.664 676.544 447.96L675.128 446.856ZM667.88 443.376C668.12 441.48 669.488 440.208 671.552 440.208C673.616 440.208 674.864 441.48 674.936 443.376H667.88ZM127.528 488.2C128.632 489.784 130 490.288 131.896 490.288C134.128 490.288 136.384 489.304 136.384 486.76C136.384 484.504 134.704 483.784 132.712 483.4C131.224 483.112 129.88 482.704 129.88 481.768C129.88 480.712 131.056 480.208 132.088 480.208C133.192 480.208 133.984 480.76 134.464 481.552L136.024 480.52C135.256 479.08 133.792 478.48 132.208 478.48C130.12 478.48 128.008 479.608 128.008 481.792C128.008 484.12 129.832 484.576 131.968 485.056C133.168 485.32 134.368 485.632 134.368 486.832C134.368 488.056 133.072 488.56 131.896 488.56C130.576 488.56 129.76 487.96 129.016 487.048L127.528 488.2ZM142.427 481.432C143.315 480.616 144.563 480.208 145.763 480.208C147.515 480.208 148.547 481.048 148.547 482.68V483.016H147.827C145.067 483.016 140.747 483.232 140.747 486.952C140.747 489.136 142.643 490.288 144.923 490.288C146.627 490.288 147.875 489.472 148.619 488.32H148.667C148.667 488.8 148.667 489.496 148.787 490H150.587C150.491 489.424 150.419 488.704 150.419 488.056V483.232C150.419 480.064 149.027 478.48 145.715 478.48C144.083 478.48 142.403 479.032 141.251 480.208L142.427 481.432ZM148.547 484.6V485.32C148.499 487.144 147.395 488.704 145.235 488.704C143.819 488.704 142.763 488.176 142.763 486.76C142.763 485.248 144.299 484.6 146.675 484.6H148.547ZM156.24 490H158.112V484.528C158.112 481.96 159.168 480.208 161.592 480.208C163.128 480.208 163.752 481.168 163.752 483.64V490H165.624V483.52C165.624 481.504 166.944 480.208 168.528 480.208C170.712 480.208 171.264 481.72 171.264 483.28V490H173.136V483.184C173.136 480.28 172.08 478.48 168.864 478.48C167.16 478.48 166.128 479.296 165.312 480.616C164.952 479.848 164.184 478.48 161.76 478.48C159.912 478.48 158.52 479.512 158.016 480.616H157.968C157.968 479.992 157.92 479.368 157.92 478.768H156.144C156.144 479.512 156.24 480.4 156.24 481.432V490ZM187.694 486.856C186.806 487.984 185.726 488.56 184.118 488.56C182.078 488.56 180.59 486.904 180.446 484.96H189.518V484.36C189.518 480.64 187.358 478.48 184.19 478.48C180.878 478.48 178.43 480.904 178.43 484.384C178.43 487.648 180.59 490.288 184.118 490.288C186.206 490.288 187.79 489.664 189.11 487.96L187.694 486.856ZM180.446 483.376C180.686 481.48 182.054 480.208 184.118 480.208C186.182 480.208 187.43 481.48 187.502 483.376H180.446ZM210.037 478.768H206.725V475.576H204.853V478.768H202.405V480.352H204.853V486.52C204.853 488.848 205.285 490.288 207.949 490.288C208.645 490.288 209.485 490.168 210.133 489.88L210.061 488.176C209.557 488.44 208.957 488.56 208.405 488.56C206.749 488.56 206.725 487.408 206.725 485.968V480.352H210.037V478.768ZM214.899 490H216.771V478.768H214.899V490ZM214.467 474.376C214.467 475.168 215.043 475.744 215.835 475.744C216.627 475.744 217.203 475.168 217.203 474.376C217.203 473.632 216.603 473.008 215.835 473.008C215.067 473.008 214.467 473.632 214.467 474.376ZM222.896 490H224.768V484.528C224.768 481.96 225.824 480.208 228.248 480.208C229.784 480.208 230.408 481.168 230.408 483.64V490H232.28V483.52C232.28 481.504 233.6 480.208 235.184 480.208C237.368 480.208 237.92 481.72 237.92 483.28V490H239.792V483.184C239.792 480.28 238.736 478.48 235.52 478.48C233.816 478.48 232.784 479.296 231.968 480.616C231.608 479.848 230.84 478.48 228.416 478.48C226.568 478.48 225.176 479.512 224.672 480.616H224.624C224.624 479.992 224.576 479.368 224.576 478.768H222.8C222.8 479.512 222.896 480.4 222.896 481.432V490ZM254.35 486.856C253.462 487.984 252.382 488.56 250.774 488.56C248.734 488.56 247.246 486.904 247.102 484.96H256.174V484.36C256.174 480.64 254.014 478.48 250.846 478.48C247.534 478.48 245.086 480.904 245.086 484.384C245.086 487.648 247.246 490.288 250.774 490.288C252.862 490.288 254.446 489.664 255.766 487.96L254.35 486.856ZM247.102 483.376C247.342 481.48 248.71 480.208 250.774 480.208C252.838 480.208 254.086 481.48 254.158 483.376H247.102ZM264.758 487.552H262.574L260.942 493.312H262.79L264.758 487.552ZM279.629 490H281.501V484.528C281.501 481.96 282.509 480.352 284.789 480.352C285.125 480.352 285.485 480.4 285.797 480.496L285.917 478.6C285.653 478.504 285.389 478.48 285.149 478.48C283.301 478.48 281.909 479.512 281.405 480.616H281.357C281.357 479.992 281.309 479.368 281.309 478.768H279.533C279.533 479.512 279.629 480.4 279.629 481.432V490ZM298.661 486.856C297.773 487.984 296.693 488.56 295.085 488.56C293.045 488.56 291.557 486.904 291.413 484.96H300.485V484.36C300.485 480.64 298.325 478.48 295.157 478.48C291.845 478.48 289.397 480.904 289.397 484.384C289.397 487.648 291.557 490.288 295.085 490.288C297.173 490.288 298.757 489.664 300.077 487.96L298.661 486.856ZM291.413 483.376C291.653 481.48 293.021 480.208 295.085 480.208C297.149 480.208 298.397 481.48 298.469 483.376H291.413ZM305.781 490H307.653V484.528C307.653 481.96 308.709 480.208 311.133 480.208C312.885 480.208 313.701 481.384 313.701 483.256V490H315.573V483.064C315.573 480.352 314.253 478.48 311.301 478.48C309.453 478.48 308.061 479.512 307.557 480.616H307.509C307.509 479.992 307.461 479.368 307.461 478.768H305.685C305.685 479.512 305.781 480.4 305.781 481.432V490ZM330.853 490H332.725V471.856H330.853V480.4H330.805C329.773 479.2 328.405 478.48 326.773 478.48C323.245 478.48 320.869 480.976 320.869 484.384C320.869 487.744 323.341 490.288 326.485 490.288C328.501 490.288 330.109 489.28 330.805 488.008H330.853V490ZM330.853 484.384C330.853 486.736 329.293 488.56 326.869 488.56C324.445 488.56 322.885 486.736 322.885 484.384C322.885 482.032 324.445 480.208 326.869 480.208C329.293 480.208 330.853 482.032 330.853 484.384ZM347.205 486.856C346.317 487.984 345.237 488.56 343.629 488.56C341.589 488.56 340.101 486.904 339.957 484.96H349.029V484.36C349.029 480.64 346.869 478.48 343.701 478.48C340.389 478.48 337.941 480.904 337.941 484.384C337.941 487.648 340.101 490.288 343.629 490.288C345.717 490.288 347.301 489.664 348.621 487.96L347.205 486.856ZM339.957 483.376C340.197 481.48 341.565 480.208 343.629 480.208C345.693 480.208 346.941 481.48 347.013 483.376H339.957ZM354.324 490H356.196V484.528C356.196 481.96 357.204 480.352 359.484 480.352C359.82 480.352 360.18 480.4 360.492 480.496L360.612 478.6C360.348 478.504 360.084 478.48 359.844 478.48C357.996 478.48 356.604 479.512 356.1 480.616H356.052C356.052 479.992 356.004 479.368 356.004 478.768H354.228C354.228 479.512 354.324 480.4 354.324 481.432V490ZM389.914 478.768H387.898L385.354 487.408H385.306L382.354 478.768H380.386L377.482 487.408H377.434L374.866 478.768H372.802L376.45 490H378.37L381.202 481.36H381.25L384.442 490H386.29L389.914 478.768ZM403.047 486.856C402.159 487.984 401.079 488.56 399.471 488.56C397.431 488.56 395.943 486.904 395.799 484.96H404.871V484.36C404.871 480.64 402.711 478.48 399.543 478.48C396.231 478.48 393.783 480.904 393.783 484.384C393.783 487.648 395.943 490.288 399.471 490.288C401.559 490.288 403.143 489.664 404.463 487.96L403.047 486.856ZM395.799 483.376C396.039 481.48 397.407 480.208 399.471 480.208C401.535 480.208 402.783 481.48 402.855 483.376H395.799ZM410.335 490H412.207V471.856H410.335V490ZM418.5 490H420.372V471.856H418.5V490ZM434.93 484.384C434.93 487.888 437.474 490.288 440.93 490.288C444.386 490.288 446.93 487.888 446.93 484.384C446.93 480.88 444.386 478.48 440.93 478.48C437.474 478.48 434.93 480.88 434.93 484.384ZM436.946 484.384C436.946 482.032 438.506 480.208 440.93 480.208C443.354 480.208 444.914 482.032 444.914 484.384C444.914 486.736 443.354 488.56 440.93 488.56C438.506 488.56 436.946 486.736 436.946 484.384ZM452.228 490H454.1V484.528C454.1 481.96 455.156 480.208 457.58 480.208C459.332 480.208 460.148 481.384 460.148 483.256V490H462.02V483.064C462.02 480.352 460.7 478.48 457.748 478.48C455.9 478.48 454.508 479.512 454.004 480.616H453.956C453.956 479.992 453.908 479.368 453.908 478.768H452.132C452.132 479.512 452.228 480.4 452.228 481.432V490ZM486.595 478.768H484.579L481.243 487.576H481.195L477.691 478.768H475.507L480.091 490H482.155L486.595 478.768ZM492.053 481.432C492.941 480.616 494.189 480.208 495.389 480.208C497.141 480.208 498.173 481.048 498.173 482.68V483.016H497.453C494.693 483.016 490.373 483.232 490.373 486.952C490.373 489.136 492.269 490.288 494.549 490.288C496.253 490.288 497.501 489.472 498.245 488.32H498.293C498.293 488.8 498.293 489.496 498.413 490H500.213C500.117 489.424 500.045 488.704 500.045 488.056V483.232C500.045 480.064 498.653 478.48 495.341 478.48C493.709 478.48 492.029 479.032 490.877 480.208L492.053 481.432ZM498.173 484.6V485.32C498.125 487.144 497.021 488.704 494.861 488.704C493.445 488.704 492.389 488.176 492.389 486.76C492.389 485.248 493.925 484.6 496.301 484.6H498.173ZM505.867 490H507.739V484.528C507.739 481.96 508.747 480.352 511.027 480.352C511.363 480.352 511.723 480.4 512.035 480.496L512.155 478.6C511.891 478.504 511.627 478.48 511.387 478.48C509.539 478.48 508.147 479.512 507.643 480.616H507.595C507.595 479.992 507.547 479.368 507.547 478.768H505.771C505.771 479.512 505.867 480.4 505.867 481.432V490ZM516.872 490H518.744V478.768H516.872V490ZM516.44 474.376C516.44 475.168 517.016 475.744 517.808 475.744C518.6 475.744 519.176 475.168 519.176 474.376C519.176 473.632 518.576 473.008 517.808 473.008C517.04 473.008 516.44 473.632 516.44 474.376ZM524.222 484.384C524.222 487.888 526.766 490.288 530.222 490.288C533.678 490.288 536.222 487.888 536.222 484.384C536.222 480.88 533.678 478.48 530.222 478.48C526.766 478.48 524.222 480.88 524.222 484.384ZM526.238 484.384C526.238 482.032 527.798 480.208 530.222 480.208C532.646 480.208 534.206 482.032 534.206 484.384C534.206 486.736 532.646 488.56 530.222 488.56C527.798 488.56 526.238 486.736 526.238 484.384ZM551.312 478.768H549.44V484.24C549.44 486.808 548.384 488.56 545.96 488.56C544.208 488.56 543.392 487.384 543.392 485.512V478.768H541.52V485.704C541.52 488.416 542.84 490.288 545.792 490.288C547.64 490.288 549.032 489.256 549.536 488.152H549.584C549.584 488.776 549.632 489.4 549.632 490H551.408C551.408 489.256 551.312 488.368 551.312 487.336V478.768ZM556.008 488.2C557.112 489.784 558.48 490.288 560.376 490.288C562.608 490.288 564.864 489.304 564.864 486.76C564.864 484.504 563.184 483.784 561.192 483.4C559.704 483.112 558.36 482.704 558.36 481.768C558.36 480.712 559.536 480.208 560.568 480.208C561.672 480.208 562.464 480.76 562.944 481.552L564.504 480.52C563.736 479.08 562.272 478.48 560.688 478.48C558.6 478.48 556.488 479.608 556.488 481.792C556.488 484.12 558.312 484.576 560.448 485.056C561.648 485.32 562.848 485.632 562.848 486.832C562.848 488.056 561.552 488.56 560.376 488.56C559.056 488.56 558.24 487.96 557.496 487.048L556.008 488.2ZM588.29 490H590.162V471.856H588.29V480.4H588.242C587.21 479.2 585.842 478.48 584.21 478.48C580.682 478.48 578.306 480.976 578.306 484.384C578.306 487.744 580.778 490.288 583.922 490.288C585.938 490.288 587.546 489.28 588.242 488.008H588.29V490ZM588.29 484.384C588.29 486.736 586.73 488.56 584.306 488.56C581.882 488.56 580.322 486.736 580.322 484.384C580.322 482.032 581.882 480.208 584.306 480.208C586.73 480.208 588.29 482.032 588.29 484.384ZM604.642 486.856C603.754 487.984 602.674 488.56 601.066 488.56C599.026 488.56 597.538 486.904 597.394 484.96H606.466V484.36C606.466 480.64 604.306 478.48 601.138 478.48C597.826 478.48 595.378 480.904 595.378 484.384C595.378 487.648 597.538 490.288 601.066 490.288C603.154 490.288 604.738 489.664 606.058 487.96L604.642 486.856ZM597.394 483.376C597.634 481.48 599.002 480.208 601.066 480.208C603.13 480.208 604.378 481.48 604.45 483.376H597.394ZM621.314 478.768H619.298L615.962 487.576H615.914L612.41 478.768H610.226L614.81 490H616.874L621.314 478.768ZM625.908 490H627.78V478.768H625.908V490ZM625.476 474.376C625.476 475.168 626.052 475.744 626.844 475.744C627.636 475.744 628.212 475.168 628.212 474.376C628.212 473.632 627.612 473.008 626.844 473.008C626.076 473.008 625.476 473.632 625.476 474.376ZM643.386 480.256C642.258 479.032 640.722 478.48 639.066 478.48C635.61 478.48 633.258 480.976 633.258 484.384C633.258 487.84 635.586 490.288 639.066 490.288C640.698 490.288 642.234 489.736 643.314 488.488L641.922 487.168C641.226 488.128 640.29 488.56 639.066 488.56C636.786 488.56 635.274 486.688 635.274 484.384C635.274 482.08 636.546 480.208 639.066 480.208C640.194 480.208 641.106 480.616 641.898 481.576L643.386 480.256ZM656.5 486.856C655.612 487.984 654.532 488.56 652.924 488.56C650.884 488.56 649.396 486.904 649.252 484.96H658.324V484.36C658.324 480.64 656.164 478.48 652.996 478.48C649.684 478.48 647.236 480.904 647.236 484.384C647.236 487.648 649.396 490.288 652.924 490.288C655.012 490.288 656.596 489.664 657.916 487.96L656.5 486.856ZM649.252 483.376C649.492 481.48 650.86 480.208 652.924 480.208C654.988 480.208 656.236 481.48 656.308 483.376H649.252ZM128.776 530H130.648V524.528C130.648 521.96 131.656 520.352 133.936 520.352C134.272 520.352 134.632 520.4 134.944 520.496L135.064 518.6C134.8 518.504 134.536 518.48 134.296 518.48C132.448 518.48 131.056 519.512 130.552 520.616H130.504C130.504 519.992 130.456 519.368 130.456 518.768H128.68C128.68 519.512 128.776 520.4 128.776 521.432V530ZM147.808 526.856C146.92 527.984 145.84 528.56 144.232 528.56C142.192 528.56 140.704 526.904 140.56 524.96H149.632V524.36C149.632 520.64 147.472 518.48 144.304 518.48C140.992 518.48 138.544 520.904 138.544 524.384C138.544 527.648 140.704 530.288 144.232 530.288C146.32 530.288 147.904 529.664 149.224 527.96L147.808 526.856ZM140.56 523.376C140.8 521.48 142.168 520.208 144.232 520.208C146.296 520.208 147.544 521.48 147.616 523.376H140.56ZM153.68 528.2C154.784 529.784 156.152 530.288 158.048 530.288C160.28 530.288 162.536 529.304 162.536 526.76C162.536 524.504 160.856 523.784 158.864 523.4C157.376 523.112 156.032 522.704 156.032 521.768C156.032 520.712 157.208 520.208 158.24 520.208C159.344 520.208 160.136 520.76 160.616 521.552L162.176 520.52C161.408 519.08 159.944 518.48 158.36 518.48C156.272 518.48 154.16 519.608 154.16 521.792C154.16 524.12 155.984 524.576 158.12 525.056C159.32 525.32 160.52 525.632 160.52 526.832C160.52 528.056 159.224 528.56 158.048 528.56C156.728 528.56 155.912 527.96 155.168 527.048L153.68 528.2ZM166.898 524.384C166.898 527.888 169.442 530.288 172.898 530.288C176.354 530.288 178.898 527.888 178.898 524.384C178.898 520.88 176.354 518.48 172.898 518.48C169.442 518.48 166.898 520.88 166.898 524.384ZM168.914 524.384C168.914 522.032 170.474 520.208 172.898 520.208C175.322 520.208 176.882 522.032 176.882 524.384C176.882 526.736 175.322 528.56 172.898 528.56C170.474 528.56 168.914 526.736 168.914 524.384ZM184.364 530H186.236V511.856H184.364V530ZM202.154 518.768H200.282V524.24C200.282 526.808 199.226 528.56 196.802 528.56C195.05 528.56 194.234 527.384 194.234 525.512V518.768H192.362V525.704C192.362 528.416 193.682 530.288 196.634 530.288C198.482 530.288 199.874 529.256 200.378 528.152H200.426C200.426 528.776 200.474 529.4 200.474 530H202.25C202.25 529.256 202.154 528.368 202.154 527.336V518.768ZM214.242 518.768H210.93V515.576H209.058V518.768H206.61V520.352H209.058V526.52C209.058 528.848 209.49 530.288 212.154 530.288C212.85 530.288 213.69 530.168 214.338 529.88L214.266 528.176C213.762 528.44 213.162 528.56 212.61 528.56C210.954 528.56 210.93 527.408 210.93 525.968V520.352H214.242V518.768ZM219.103 530H220.975V518.768H219.103V530ZM218.671 514.376C218.671 515.168 219.247 515.744 220.039 515.744C220.831 515.744 221.407 515.168 221.407 514.376C221.407 513.632 220.807 513.008 220.039 513.008C219.271 513.008 218.671 513.632 218.671 514.376ZM226.453 524.384C226.453 527.888 228.997 530.288 232.453 530.288C235.909 530.288 238.453 527.888 238.453 524.384C238.453 520.88 235.909 518.48 232.453 518.48C228.997 518.48 226.453 520.88 226.453 524.384ZM228.469 524.384C228.469 522.032 230.029 520.208 232.453 520.208C234.877 520.208 236.437 522.032 236.437 524.384C236.437 526.736 234.877 528.56 232.453 528.56C230.029 528.56 228.469 526.736 228.469 524.384ZM243.751 530H245.623V524.528C245.623 521.96 246.679 520.208 249.103 520.208C250.855 520.208 251.671 521.384 251.671 523.256V530H253.543V523.064C253.543 520.352 252.223 518.48 249.271 518.48C247.423 518.48 246.031 519.512 245.527 520.616H245.479C245.479 519.992 245.431 519.368 245.431 518.768H243.655C243.655 519.512 243.751 520.4 243.751 521.432V530ZM258.239 528.2C259.343 529.784 260.711 530.288 262.607 530.288C264.839 530.288 267.095 529.304 267.095 526.76C267.095 524.504 265.415 523.784 263.423 523.4C261.935 523.112 260.591 522.704 260.591 521.768C260.591 520.712 261.767 520.208 262.799 520.208C263.903 520.208 264.695 520.76 265.175 521.552L266.735 520.52C265.967 519.08 264.503 518.48 262.919 518.48C260.831 518.48 258.719 519.608 258.719 521.792C258.719 524.12 260.543 524.576 262.679 525.056C263.879 525.32 265.079 525.632 265.079 526.832C265.079 528.056 263.783 528.56 262.607 528.56C261.287 528.56 260.471 527.96 259.727 527.048L258.239 528.2ZM273.666 527.264C272.874 527.264 272.226 527.912 272.226 528.704C272.226 529.496 272.922 530.144 273.666 530.144C274.41 530.144 275.106 529.496 275.106 528.704C275.106 527.912 274.458 527.264 273.666 527.264Z" fill="#595D71"/>
<path d="M130.744 138H152.104V131.088H138.232V104.016H130.744V138ZM177.165 130.272C175.965 131.904 174.381 133.104 172.029 133.104C169.245 133.104 167.181 131.328 166.605 128.592H183.309V126.336C183.309 118.896 179.085 114.096 172.365 114.096C165.165 114.096 159.405 118.896 159.405 126.336C159.405 133.776 165.165 138.576 172.365 138.576C176.109 138.576 179.901 136.896 182.205 133.968L177.165 130.272ZM166.605 123.696C166.797 121.44 168.525 119.28 171.693 119.28C174.285 119.28 176.157 121.296 176.109 123.696H166.605ZM207.128 138H213.752V126.144C213.752 118.368 211.496 114.096 203.096 114.096C199.304 114.096 195.464 115.344 192.824 117.84L196.664 121.776C198.2 120.048 200.168 118.992 202.52 118.992C205.016 118.992 207.128 120.624 207.128 123.168C201.128 123.168 191.336 123.312 191.336 131.376C191.336 136.08 195.272 138.576 199.64 138.576C202.568 138.576 205.448 137.568 207.032 135.072H207.128V138ZM207.128 127.776V129.312C207.128 132.192 204.488 133.68 201.656 133.68C200.072 133.68 198.248 132.864 198.248 131.136C198.248 127.968 203.144 127.776 205.352 127.776H207.128ZM223.069 138H230.269V128.256C230.269 123.6 230.941 120.432 236.413 120.432C237.469 120.432 238.477 120.624 239.485 120.912V114.336C238.813 114.144 237.901 114.096 237.085 114.096C233.917 114.096 231.901 115.584 230.365 118.416H230.269V114.672H223.069V138ZM248.26 138H255.46V126.384C255.46 123.36 256.036 120.432 259.78 120.432C263.476 120.432 263.524 123.888 263.524 126.576V138H270.724V125.136C270.724 118.896 269.38 114.096 262.084 114.096C258.58 114.096 256.228 116.016 255.268 117.84H255.172V114.672H248.26V138ZM307.113 138H314.601V110.64H324.297V104.016H297.417V110.64H307.113V138ZM343.684 130.272C342.484 131.904 340.9 133.104 338.548 133.104C335.764 133.104 333.7 131.328 333.124 128.592H349.828V126.336C349.828 118.896 345.604 114.096 338.884 114.096C331.684 114.096 325.924 118.896 325.924 126.336C325.924 133.776 331.684 138.576 338.884 138.576C342.628 138.576 346.42 136.896 348.724 133.968L343.684 130.272ZM333.124 123.696C333.316 121.44 335.044 119.28 338.212 119.28C340.804 119.28 342.676 121.296 342.628 123.696H333.124ZM379.55 117.216C377.294 114.912 373.982 114.096 371.246 114.096C364.046 114.096 358.286 118.896 358.286 126.336C358.286 133.776 364.046 138.576 371.246 138.576C373.982 138.576 377.294 137.76 379.55 135.456L374.798 130.464C373.982 131.424 372.83 132.24 371.246 132.24C367.646 132.24 365.486 129.84 365.486 126.336C365.486 122.832 367.646 120.432 371.246 120.432C372.734 120.432 374.078 121.2 374.798 122.208L379.55 117.216ZM386.963 101.712V138H394.163V126.384C394.163 123.36 394.739 120.432 398.483 120.432C402.179 120.432 402.227 123.888 402.227 126.576V138H409.427V125.136C409.427 118.896 408.083 114.096 400.787 114.096C397.283 114.096 394.931 116.016 394.259 117.84H394.163V101.712H386.963ZM419.325 138H426.525V126.384C426.525 123.36 427.101 120.432 430.845 120.432C434.541 120.432 434.589 123.888 434.589 126.576V138H441.789V125.136C441.789 118.896 440.445 114.096 433.149 114.096C429.645 114.096 427.293 116.016 426.333 117.84H426.237V114.672H419.325V138ZM451.784 138H458.984V114.672H451.784V138ZM451.208 107.328C451.208 109.632 453.08 111.504 455.384 111.504C457.688 111.504 459.56 109.632 459.56 107.328C459.56 105.024 457.688 103.152 455.384 103.152C453.08 103.152 451.208 105.024 451.208 107.328ZM489.501 117.216C487.245 114.912 483.933 114.096 481.197 114.096C473.997 114.096 468.237 118.896 468.237 126.336C468.237 133.776 473.997 138.576 481.197 138.576C483.933 138.576 487.245 137.76 489.501 135.456L484.749 130.464C483.933 131.424 482.781 132.24 481.197 132.24C477.597 132.24 475.437 129.84 475.437 126.336C475.437 122.832 477.597 120.432 481.197 120.432C482.685 120.432 484.029 121.2 484.749 122.208L489.501 117.216ZM511.553 138H518.177V126.144C518.177 118.368 515.921 114.096 507.521 114.096C503.729 114.096 499.889 115.344 497.249 117.84L501.089 121.776C502.625 120.048 504.593 118.992 506.945 118.992C509.441 118.992 511.553 120.624 511.553 123.168C505.553 123.168 495.761 123.312 495.761 131.376C495.761 136.08 499.697 138.576 504.065 138.576C506.993 138.576 509.873 137.568 511.457 135.072H511.553V138ZM511.553 127.776V129.312C511.553 132.192 508.913 133.68 506.081 133.68C504.497 133.68 502.673 132.864 502.673 131.136C502.673 127.968 507.569 127.776 509.777 127.776H511.553ZM527.59 138H534.79V101.712H527.59V138ZM126.952 218H135.208L138.04 210.8H151.24L154.168 218H162.616L147.832 184.016H141.64L126.952 218ZM148.696 204.464H140.392L144.52 193.904L148.696 204.464ZM169.922 218H177.122V206.384C177.122 203.36 177.698 200.432 181.442 200.432C185.138 200.432 185.186 203.888 185.186 206.576V218H192.386V205.136C192.386 198.896 191.042 194.096 183.746 194.096C180.242 194.096 177.89 196.016 176.93 197.84H176.834V194.672H169.922V218ZM216.925 218H223.549V206.144C223.549 198.368 221.293 194.096 212.893 194.096C209.101 194.096 205.261 195.344 202.621 197.84L206.461 201.776C207.997 200.048 209.965 198.992 212.317 198.992C214.813 198.992 216.925 200.624 216.925 203.168C210.925 203.168 201.133 203.312 201.133 211.376C201.133 216.08 205.069 218.576 209.437 218.576C212.365 218.576 215.245 217.568 216.829 215.072H216.925V218ZM216.925 207.776V209.312C216.925 212.192 214.285 213.68 211.453 213.68C209.869 213.68 208.045 212.864 208.045 211.136C208.045 207.968 212.941 207.776 215.149 207.776H216.925ZM232.962 218H240.162V181.712H232.962V218ZM274.135 194.672H266.743L261.607 210.08H261.511L255.511 194.672H247.735L257.959 218.192L257.431 219.536C256.423 222.08 255.895 223.472 252.631 223.472C251.431 223.472 250.375 223.232 249.271 222.752L248.311 228.656C250.039 229.232 251.863 229.52 253.687 229.52C260.551 229.52 261.655 226.736 263.575 221.792L274.135 194.672ZM299.223 197.168C297.063 194.864 293.655 194.096 290.583 194.096C285.687 194.096 280.791 196.496 280.791 201.968C280.791 210.848 292.935 207.68 292.935 211.424C292.935 212.672 291.303 213.104 289.671 213.104C287.511 213.104 285.927 212.192 284.583 210.56L280.215 215.408C282.519 217.76 286.118 218.576 289.383 218.576C294.375 218.576 300.135 216.848 300.135 210.896C300.135 202.016 287.991 204.944 287.991 201.488C287.991 200.096 289.431 199.568 290.631 199.568C292.359 199.568 293.751 200.24 294.807 201.536L299.223 197.168ZM308.721 218H315.921V194.672H308.721V218ZM308.145 187.328C308.145 189.632 310.017 191.504 312.321 191.504C314.625 191.504 316.497 189.632 316.497 187.328C316.497 185.024 314.625 183.152 312.321 183.152C310.017 183.152 308.145 185.024 308.145 187.328ZM343.51 197.168C341.35 194.864 337.942 194.096 334.87 194.096C329.974 194.096 325.078 196.496 325.078 201.968C325.078 210.848 337.222 207.68 337.222 211.424C337.222 212.672 335.59 213.104 333.958 213.104C331.798 213.104 330.214 212.192 328.87 210.56L324.502 215.408C326.806 217.76 330.406 218.576 333.67 218.576C338.662 218.576 344.422 216.848 344.422 210.896C344.422 202.016 332.278 204.944 332.278 201.488C332.278 200.096 333.718 199.568 334.918 199.568C336.646 199.568 338.038 200.24 339.094 201.536L343.51 197.168Z" fill="#595D71"/>
<line x1="92" y1="90" x2="92" y2="234" stroke="#004DEC" stroke-width="2"/>
<line x1="92" y1="539" x2="92" y2="570" stroke="#004DEC" stroke-width="2"/>
<line x1="92" y1="315" x2="92" y2="346" stroke="#004DEC" stroke-width="2"/>
<line x1="679" y1="235" x2="679" y2="298" stroke="#004DEC" stroke-width="2"/>
<line x1="87" y1="90" x2="97" y2="90" stroke="#004DEC" stroke-width="2"/>
<line x1="87" y1="315" x2="97" y2="315" stroke="#004DEC" stroke-width="2"/>
<line x1="87" y1="539" x2="97" y2="539" stroke="#004DEC" stroke-width="2"/>
<line x1="674" y1="235" x2="684" y2="235" stroke="#004DEC" stroke-width="2"/>
<line x1="87" y1="345" x2="97" y2="345" stroke="#004DEC" stroke-width="2"/>
<line x1="87" y1="233" x2="97" y2="233" stroke="#004DEC" stroke-width="2"/>
<line x1="87" y1="569" x2="97" y2="569" stroke="#004DEC" stroke-width="2"/>
<line x1="674" y1="297" x2="684" y2="297" stroke="#004DEC" stroke-width="2"/>
<path d="M8.64 153.008H6.888L2.328 156.704L3.528 158.168L6.576 155.6H6.624V170H8.64V153.008ZM25.7919 153.008H23.3199L16.5759 163.88V166.112H23.7759V170H25.7919V166.112H28.2399V164.24H25.7919V153.008ZM23.7759 164.24H18.3039L23.7279 155.36H23.7759V164.24ZM41.5279 153.008H39.0559L32.3119 163.88V166.112H39.5119V170H41.5279V166.112H43.9759V164.24H41.5279V153.008ZM39.5119 164.24H34.0399L39.4639 155.36H39.5119V164.24ZM58.3198 170H60.1918V151.856H58.3198V160.4H58.2718C57.2398 159.2 55.8718 158.48 54.2398 158.48C50.7118 158.48 48.3358 160.976 48.3358 164.384C48.3358 167.744 50.8078 170.288 53.9518 170.288C55.9678 170.288 57.5758 169.28 58.2718 168.008H58.3198V170ZM58.3198 164.384C58.3198 166.736 56.7598 168.56 54.3358 168.56C51.9118 168.56 50.3518 166.736 50.3518 164.384C50.3518 162.032 51.9118 160.208 54.3358 160.208C56.7598 160.208 58.3198 162.032 58.3198 164.384ZM65.9597 175.472H67.8317V168.008H67.8797C68.5757 169.28 70.1837 170.288 72.1997 170.288C75.3437 170.288 77.8157 167.744 77.8157 164.384C77.8157 160.976 75.4397 158.48 71.9117 158.48C70.2797 158.48 68.9117 159.2 67.8797 160.4H67.8317V158.768H65.9597V175.472ZM67.8317 164.384C67.8317 162.032 69.3917 160.208 71.8157 160.208C74.2397 160.208 75.7997 162.032 75.7997 164.384C75.7997 166.736 74.2397 168.56 71.8157 168.56C69.3917 168.56 67.8317 166.736 67.8317 164.384Z" fill="#004DEC"/>
<path d="M20.6804 550.936H21.3044C23.3924 550.936 25.6004 551.728 25.6004 554.224C25.6004 556.192 24.0644 557.56 22.1444 557.56C20.2724 557.56 19.2884 556.864 18.7124 555.04L16.6724 555.712C17.5364 558.232 19.5764 559.288 22.1444 559.288C25.1684 559.288 27.7604 557.608 27.7604 554.368C27.7604 552.232 26.4404 550.456 24.2804 550.096V550.048C25.9844 549.52 27.1844 547.936 27.1844 546.16C27.1844 543.232 24.8324 541.72 22.1204 541.72C19.9604 541.72 18.0164 542.68 17.2004 544.6L19.1444 545.344C19.7444 544.096 20.8484 543.448 22.2644 543.448C23.9684 543.448 25.1684 544.528 25.1684 546.256C25.1684 548.824 22.9844 549.208 21.3044 549.208H20.6804V550.936ZM32.7203 559H43.6643V557.128H35.0003V557.08L40.2323 552.16C41.9363 550.552 43.5443 549.04 43.5443 546.328C43.5443 543.304 41.1683 541.72 38.3603 541.72C35.6243 541.72 33.4883 543.184 33.0323 545.968L35.2163 546.16C35.5283 544.528 36.7283 543.448 38.4323 543.448C40.1363 543.448 41.5283 544.552 41.5283 546.328C41.5283 547.984 40.7363 548.896 39.1283 550.456L32.7203 556.696V559ZM58.3682 559H60.2402V540.856H58.3682V549.4H58.3202C57.2882 548.2 55.9202 547.48 54.2882 547.48C50.7602 547.48 48.3842 549.976 48.3842 553.384C48.3842 556.744 50.8562 559.288 54.0002 559.288C56.0162 559.288 57.6242 558.28 58.3202 557.008H58.3682V559ZM58.3682 553.384C58.3682 555.736 56.8082 557.56 54.3842 557.56C51.9602 557.56 50.4002 555.736 50.4002 553.384C50.4002 551.032 51.9602 549.208 54.3842 549.208C56.8082 549.208 58.3682 551.032 58.3682 553.384ZM66.0081 564.472H67.8801V557.008H67.9281C68.6241 558.28 70.2321 559.288 72.2481 559.288C75.3921 559.288 77.8641 556.744 77.8641 553.384C77.8641 549.976 75.4881 547.48 71.9601 547.48C70.3281 547.48 68.9601 548.2 67.9281 549.4H67.8801V547.768H66.0081V564.472ZM67.8801 553.384C67.8801 551.032 69.4401 549.208 71.8641 549.208C74.2881 549.208 75.8481 551.032 75.8481 553.384C75.8481 555.736 74.2881 557.56 71.8641 557.56C69.4401 557.56 67.8801 555.736 67.8801 553.384Z" fill="#004DEC"/>
<path d="M20.6804 326.936H21.3044C23.3924 326.936 25.6004 327.728 25.6004 330.224C25.6004 332.192 24.0644 333.56 22.1444 333.56C20.2724 333.56 19.2884 332.864 18.7124 331.04L16.6724 331.712C17.5364 334.232 19.5764 335.288 22.1444 335.288C25.1684 335.288 27.7604 333.608 27.7604 330.368C27.7604 328.232 26.4404 326.456 24.2804 326.096V326.048C25.9844 325.52 27.1844 323.936 27.1844 322.16C27.1844 319.232 24.8324 317.72 22.1204 317.72C19.9604 317.72 18.0164 318.68 17.2004 320.6L19.1444 321.344C19.7444 320.096 20.8484 319.448 22.2644 319.448C23.9684 319.448 25.1684 320.528 25.1684 322.256C25.1684 324.824 22.9844 325.208 21.3044 325.208H20.6804V326.936ZM32.7203 335H43.6643V333.128H35.0003V333.08L40.2323 328.16C41.9363 326.552 43.5443 325.04 43.5443 322.328C43.5443 319.304 41.1683 317.72 38.3603 317.72C35.6243 317.72 33.4883 319.184 33.0323 321.968L35.2163 322.16C35.5283 320.528 36.7283 319.448 38.4323 319.448C40.1363 319.448 41.5283 320.552 41.5283 322.328C41.5283 323.984 40.7363 324.896 39.1283 326.456L32.7203 332.696V335ZM58.3682 335H60.2402V316.856H58.3682V325.4H58.3202C57.2882 324.2 55.9202 323.48 54.2882 323.48C50.7602 323.48 48.3842 325.976 48.3842 329.384C48.3842 332.744 50.8562 335.288 54.0002 335.288C56.0162 335.288 57.6242 334.28 58.3202 333.008H58.3682V335ZM58.3682 329.384C58.3682 331.736 56.8082 333.56 54.3842 333.56C51.9602 333.56 50.4002 331.736 50.4002 329.384C50.4002 327.032 51.9602 325.208 54.3842 325.208C56.8082 325.208 58.3682 327.032 58.3682 329.384ZM66.0081 340.472H67.8801V333.008H67.9281C68.6241 334.28 70.2321 335.288 72.2481 335.288C75.3921 335.288 77.8641 332.744 77.8641 329.384C77.8641 325.976 75.4881 323.48 71.9601 323.48C70.3281 323.48 68.9601 324.2 67.9281 325.4H67.8801V323.768H66.0081V340.472ZM67.8801 329.384C67.8801 327.032 69.4401 325.208 71.8641 325.208C74.2881 325.208 75.8481 327.032 75.8481 329.384C75.8481 331.736 74.2881 333.56 71.8641 333.56C69.4401 333.56 67.8801 331.736 67.8801 329.384Z" fill="#004DEC"/>
<path d="M701.456 257.008H699.104L694.592 264.184C693.68 265.648 692.984 266.992 692.984 268.96C692.984 272.272 695.456 274.288 698.672 274.288C701.888 274.288 704.36 272.272 704.36 268.96C704.36 265.792 702.176 263.632 699.224 263.632C698.528 263.632 697.568 263.776 696.944 264.136L696.896 264.088L701.456 257.008ZM698.672 265.36C700.712 265.36 702.344 266.752 702.344 268.96C702.344 271.168 700.712 272.56 698.672 272.56C696.632 272.56 695 271.168 695 268.96C695 266.752 696.632 265.36 698.672 265.36ZM717.792 257.008H715.32L708.576 267.88V270.112H715.776V274H717.792V270.112H720.24V268.24H717.792V257.008ZM715.776 268.24H710.304L715.728 259.36H715.776V268.24ZM734.584 274H736.456V255.856H734.584V264.4H734.536C733.504 263.2 732.136 262.48 730.504 262.48C726.976 262.48 724.6 264.976 724.6 268.384C724.6 271.744 727.072 274.288 730.216 274.288C732.232 274.288 733.84 273.28 734.536 272.008H734.584V274ZM734.584 268.384C734.584 270.736 733.024 272.56 730.6 272.56C728.176 272.56 726.616 270.736 726.616 268.384C726.616 266.032 728.176 264.208 730.6 264.208C733.024 264.208 734.584 266.032 734.584 268.384ZM742.224 279.472H744.096V272.008H744.144C744.84 273.28 746.448 274.288 748.464 274.288C751.608 274.288 754.08 271.744 754.08 268.384C754.08 264.976 751.704 262.48 748.176 262.48C746.544 262.48 745.176 263.2 744.144 264.4H744.096V262.768H742.224V279.472ZM744.096 268.384C744.096 266.032 745.656 264.208 748.08 264.208C750.504 264.208 752.064 266.032 752.064 268.384C752.064 270.736 750.504 272.56 748.08 272.56C745.656 272.56 744.096 270.736 744.096 268.384Z" fill="#004DEC"/>
</svg>
