<svg width="777" height="568" viewBox="0 0 777 568" fill="none" xmlns="http://www.w3.org/2000/svg">
<g clip-path="url(#clip0_85_381)">
<rect width="56.4071" height="33.9285" transform="matrix(0.814921 0.579572 -0.578581 0.815625 190.91 495)" fill="#FEFBFF"/>
<path d="M186.841 512.923L207.61 512.081L203.528 517.834L224.588 532.83L218.045 542.054L196.977 527.07L192.887 532.835L186.841 512.923Z" fill="#595D71"/>
</g>
<ellipse cx="395.99" cy="284" rx="283.635" ry="284" fill="#B5C4FF"/>
<path d="M669.009 209.102C618.135 458.667 528.154 530.669 264.743 533.955C263.702 533.968 263.208 535.257 264.151 535.7C290.28 548.007 458.111 619.442 591.738 493C725.447 366.48 679.047 229.799 670.785 208.778C670.429 207.873 669.203 208.15 669.009 209.102Z" fill="#595D71"/>
<path d="M502.853 15.5C522.383 73.7217 511.34 78 454.914 104.5C398.489 131 447.426 142.5 468.397 169C489.368 195.5 470.195 214 422.456 252.5C374.717 291 454.913 298.778 454.914 332.5C454.915 353.5 516.835 289.5 523.826 343.5C530.817 397.5 523.826 425 557.283 479" stroke="#595D71" stroke-width="4" stroke-linecap="round"/>
<path d="M414.088 118.666L424.374 46.5662C424.424 46.2147 424.298 45.8741 424.01 45.6659C420.008 42.7689 389.178 22.3772 337.567 40.9987C282.139 60.9975 320.945 66.2899 322.586 83.9987C325.925 120.015 404.348 119.669 413.165 119.516C413.651 119.508 414.019 119.147 414.088 118.666Z" stroke="#595D71" stroke-width="4" stroke-linecap="round"/>
<path d="M212.726 50.5C239.182 86.6368 274.357 72.2058 305.606 98.5C325.123 114.922 326.579 125 305.606 143.5C284.633 162 305.606 158 321.086 186.5C336.567 215 290.126 222.5 269.153 229.5C248.18 236.5 273.648 245 265.158 258.5C256.669 272 216.721 287.5 225.709 310C234.698 332.5 324.083 311 331.074 355.5C338.065 400 294.621 453 326.08 491C357.54 529 322.585 525.5 312.597 518C302.61 510.5 138.821 324 170.78 314C202.739 304 117.848 289.5 153.802 274C189.756 258.5 167.293 191.039 139.321 170.5" stroke="#595D71" stroke-width="4" stroke-linecap="round"/>
<path d="M660.15 479L651.374 436.04C651.259 435.476 650.692 435.126 650.136 435.274L571.633 456.268C571.139 456.4 570.824 456.883 570.903 457.388L580.253 517.5M660.15 479L635.681 490.791M660.15 479L675.13 483.074M580.253 517.5L611.213 502.581M580.253 517.5L599.977 525.5M611.213 502.581L649.457 517.5M611.213 502.581L635.681 490.791M649.457 517.5L620.116 533.277C619.854 533.418 619.542 533.435 619.266 533.323L599.977 525.5M649.457 517.5L673.133 504.769M635.681 490.791L673.133 504.769M673.133 504.769L698.389 491.188C699.185 490.76 699.05 489.579 698.178 489.342L675.13 483.074M599.977 525.5L675.13 483.074" stroke="#595D71" stroke-width="4" stroke-linecap="round"/>
<path d="M672.574 425.363C685.891 409.126 690.974 397.927 694.458 374.986C694.54 374.445 695.042 374.059 695.585 374.133L734.067 379.366C734.612 379.44 734.994 379.95 734.92 380.495C731.561 405.29 726.113 418.303 711.515 438.893C711.262 439.251 710.801 439.407 710.384 439.269L673.03 426.96C672.36 426.739 672.127 425.908 672.574 425.363Z" fill="black"/>
<path d="M663.586 413.363C676.903 397.126 681.986 385.927 685.469 362.986C685.551 362.445 686.054 362.059 686.596 362.133L725.078 367.366C725.624 367.44 726.006 367.95 725.932 368.495C722.573 393.29 717.124 406.303 702.527 426.893C702.273 427.251 701.812 427.407 701.396 427.269L664.041 414.96C663.372 414.739 663.138 413.908 663.586 413.363Z" fill="#F45430"/>
<rect width="29.8358" height="29.8496" rx="6" transform="matrix(0.824653 0.565638 -0.564648 0.825332 727.439 476)" fill="black"/>
<rect width="36.3415" height="36.3584" rx="6" transform="matrix(0.824653 0.565638 -0.564648 0.825332 96.3682 399.182)" fill="black"/>
<rect width="29.8358" height="29.8496" rx="6" transform="matrix(0.824653 0.565638 -0.564648 0.825332 725.442 466)" fill="#F45430"/>
<rect width="36.3415" height="36.3584" rx="6" transform="matrix(0.824653 0.565638 -0.564648 0.825332 93.9355 387)" fill="#F45430"/>
<path d="M582.75 40.5L595.539 38.2921C596.294 38.1617 596.909 38.8946 596.65 39.6159L593.314 48.8945C593.055 49.6134 593.666 50.3449 594.42 50.2192L631.962 43.9541C632.884 43.8002 633.494 44.8831 632.885 45.5922L617.626 63.3482C617.069 63.9967 617.529 65 618.384 65H638.88C639.754 65 640.207 66.0408 639.613 66.6806L622.061 85.5736C621.621 86.0465 621.738 86.8055 622.3 87.124L650.422 103.081C650.848 103.322 651.037 103.838 650.867 104.297L646.529 116.025C646.332 116.557 646.617 117.146 647.157 117.322L667.375 123.913C667.548 123.97 667.703 124.073 667.822 124.212L679.69 137.996C679.953 138.301 680.007 138.735 679.827 139.095L675.735 147.289C675.666 147.428 675.63 147.581 675.63 147.736V167.202C675.63 167.397 675.686 167.587 675.793 167.749L683.944 180.231C684.058 180.406 684.224 180.541 684.418 180.616L700.216 186.768C700.987 187.068 701.081 188.121 700.375 188.553L685.619 197.582C684.957 197.987 684.988 198.958 685.675 199.32L712.582 213.5" stroke="#F45430" stroke-width="4" stroke-linecap="round"/>
<path d="M734.554 162L771.205 164.621C772.308 164.7 772.486 166.246 771.43 166.574L731.395 179.001C730.348 179.325 730.511 180.854 731.602 180.952L757.893 183.309C758.738 183.385 759.111 184.412 758.511 185.012L745.809 197.73C745.396 198.144 745.425 198.824 745.872 199.201L762.804 213.478C763.366 213.952 763.241 214.85 762.571 215.153L748.536 221.5M665.643 70.5L680.981 72.9772C681.075 72.9923 681.171 72.994 681.265 72.9822L698.781 70.79C699.653 70.6807 700.232 71.67 699.709 72.3769L691.306 83.735C691.179 83.9071 691.11 84.1156 691.11 84.3297V105C691.11 105.552 691.558 106 692.11 106H708.927C709.68 106 710.163 106.8 709.812 107.466L701.941 122.399C701.574 123.095 702.117 123.922 702.901 123.863L740.546 121" stroke="#595D71" stroke-width="4" stroke-linecap="round"/>
<ellipse cx="715.079" cy="149.5" rx="5.49293" ry="5.5" fill="#21CE99"/>
<path d="M182.265 32L194.932 55.0179C195.299 55.6843 194.817 56.5 194.056 56.5H181.043C180.264 56.5 179.784 57.3514 180.188 58.0178L188.077 71.0522C188.528 71.797 187.878 72.7223 187.024 72.5503L114.083 57.8541C112.952 57.6264 112.398 59.1764 113.416 59.7175L169.598 89.5756C170.45 90.0282 170.23 91.3054 169.276 91.4477L149.999 94.3224C149.38 94.4147 148.997 95.0466 149.202 95.6382L152.807 106.068C153.042 106.746 152.507 107.443 151.791 107.392L106.798 104.174C105.906 104.11 105.385 105.16 105.975 105.832L115.103 116.217C115.263 116.399 115.351 116.634 115.351 116.877V130.764C115.351 130.919 115.387 131.072 115.457 131.211L122.139 144.593C122.268 144.852 122.279 145.153 122.169 145.42L115.461 161.734C115.389 161.908 115.368 162.098 115.4 162.283L118.213 178.712C118.291 179.173 118.04 179.627 117.608 179.805L102.16 186.174C101.705 186.362 101.454 186.853 101.569 187.332L104.366 199" stroke="#595D71" stroke-width="4" stroke-linecap="round"/>
<path d="M92.3811 256.5C90.5616 256.136 82.5266 261.552 77.7126 265.039C77.1088 265.477 77.1897 266.394 77.8563 266.728L90.4298 273.023C91.195 273.406 91.1569 274.511 90.3672 274.84L82.6687 278.052C81.8403 278.398 81.8514 279.575 82.6861 279.905L97.1641 285.627C97.9873 285.953 98.013 287.108 97.2051 287.47L59.5282 304.336C58.6655 304.722 58.7706 305.979 59.6855 306.216L70.2024 308.946C70.3389 308.982 70.4663 309.046 70.5763 309.134L80.3138 316.934C80.3688 316.978 80.4283 317.016 80.4913 317.047L94.8371 324.23C95.5232 324.573 95.5828 325.529 94.9446 325.955L86.1448 331.83C85.9784 331.941 85.8492 332.099 85.7737 332.284L80.5266 345.18C80.4423 345.387 80.2911 345.56 80.097 345.671L62.919 355.5" stroke="#595D71" stroke-width="4" stroke-linecap="round"/>
<path d="M66.9138 163.5H50.0193C49.0504 163.5 48.6478 164.74 49.4319 165.309L64.9307 176.56C65.6557 177.087 65.3759 178.228 64.4896 178.359L14.3373 185.782C13.2602 185.942 13.1775 187.464 14.231 187.739L32.1057 192.408C32.3334 192.467 32.5328 192.605 32.6689 192.797L43.3303 207.84C43.4054 207.945 43.5005 208.036 43.6101 208.105L62.3363 219.996C63.0114 220.425 62.9352 221.433 62.2035 221.755L51.5132 226.465C51.4603 226.488 51.4056 226.507 51.3495 226.521L20.3771 234.162C19.4005 234.402 19.3507 235.772 20.3071 236.083L34.7982 240.799C35.6244 241.068 35.7383 242.19 34.9828 242.619L3.28949 260.631C2.39685 261.138 2.75686 262.5 3.78358 262.5H58.4248" stroke="#21CE99" stroke-width="4" stroke-linecap="round"/>
<ellipse cx="96.8752" cy="219.5" rx="6.49164" ry="6.5" fill="#F45430"/>
<defs>
<clipPath id="clip0_85_381">
<rect width="56.4071" height="33.9285" fill="white" transform="matrix(0.814921 0.579572 -0.578581 0.815625 190.91 495)"/>
</clipPath>
</defs>
</svg>
