<svg width="1020" height="221" viewBox="0 0 1020 221" fill="none" xmlns="http://www.w3.org/2000/svg">
<rect width="120" height="120" rx="40" fill="#004DEC"/>
<rect x="900" width="120" height="120" rx="40" fill="#303033"/>
<rect x="540" width="120" height="120" rx="40" fill="#21CE99"/>
<rect x="360" width="120" height="120" rx="40" fill="#F45430"/>
<rect x="180" width="120" height="120" rx="40" fill="#595D71"/>
<rect x="720" width="120" height="120" rx="40" fill="#BA1B1B"/>
<path d="M26.4361 168.648H28.8361V164.168H28.8681C29.4121 164.92 30.3401 165.192 31.3321 165.192C33.5401 165.192 34.8841 163.208 34.8841 161.048C34.8841 158.696 33.3641 157.032 31.0601 157.032C29.9721 157.032 29.0441 157.688 28.6761 158.248H28.6441V157.224H26.4361V168.648ZM28.6441 161.112C28.6441 159.944 29.3641 159.144 30.5641 159.144C31.7641 159.144 32.4841 159.944 32.4841 161.112C32.4841 162.28 31.7641 163.08 30.5641 163.08C29.3641 163.08 28.6441 162.28 28.6441 161.112ZM37.8902 165H40.2902V161.752C40.2902 160.2 40.5142 159.144 42.3382 159.144C42.6902 159.144 43.0262 159.208 43.3622 159.304V157.112C43.1382 157.048 42.8342 157.032 42.5622 157.032C41.5062 157.032 40.8342 157.528 40.3222 158.472H40.2902V157.224H37.8902V165ZM46.0378 165H48.4378V157.224H46.0378V165ZM45.8458 154.776C45.8458 155.544 46.4698 156.168 47.2378 156.168C48.0058 156.168 48.6298 155.544 48.6298 154.776C48.6298 154.008 48.0058 153.384 47.2378 153.384C46.4698 153.384 45.8458 154.008 45.8458 154.776ZM51.7621 165H54.1621V161.128C54.1621 160.12 54.3541 159.144 55.6021 159.144C56.7061 159.144 56.6741 160.312 56.6741 160.888V165H59.0741V160.888C59.0741 159.928 59.4261 159.144 60.5301 159.144C61.3141 159.144 61.5861 159.752 61.5861 160.472V165H63.9861V160.408C63.9861 158.52 63.3461 157.032 61.2341 157.032C60.0821 157.032 59.3301 157.432 58.7701 158.424C58.3541 157.48 57.4581 157.032 56.3701 157.032C55.2021 157.032 54.4181 157.672 54.0981 158.28H54.0661V157.224H51.7621V165ZM72.1639 165H74.3719V161.048C74.3719 158.456 73.6199 157.032 70.8199 157.032C69.5559 157.032 68.2759 157.448 67.3959 158.28L68.6759 159.592C69.1879 159.016 69.8439 158.664 70.6279 158.664C71.4599 158.664 72.1639 159.208 72.1639 160.056C70.1639 160.056 66.8999 160.104 66.8999 162.792C66.8999 164.36 68.2119 165.192 69.6679 165.192C70.6439 165.192 71.6039 164.856 72.1319 164.024H72.1639V165ZM72.1639 161.592V162.104C72.1639 163.064 71.2839 163.56 70.3399 163.56C69.8119 163.56 69.2039 163.288 69.2039 162.712C69.2039 161.656 70.8359 161.592 71.5719 161.592H72.1639ZM77.4777 165H79.8777V161.752C79.8777 160.2 80.1017 159.144 81.9257 159.144C82.2777 159.144 82.6137 159.208 82.9497 159.304V157.112C82.7257 157.048 82.4217 157.032 82.1497 157.032C81.0937 157.032 80.4217 157.528 79.9097 158.472H79.8777V157.224H77.4777V165ZM93.5933 157.224H91.1293L89.4173 162.36H89.3853L87.3853 157.224H84.7933L88.2013 165.064L88.0253 165.512C87.6893 166.36 87.5133 166.824 86.4253 166.824C86.0253 166.824 85.6733 166.744 85.3053 166.584L84.9853 168.552C85.5613 168.744 86.1693 168.84 86.7773 168.84C89.0653 168.84 89.4333 167.912 90.0733 166.264L93.5933 157.224ZM20.7926 205H22.3446L22.7926 201.784H24.3766L23.9286 205H25.4806L25.9286 201.784H27.4646V200.344H26.1206L26.3926 198.328H27.9286V196.888H26.5846L27.0326 193.672H25.4806L25.0326 196.888H23.4486L23.8966 193.672H22.3446L21.8966 196.888H20.3606V198.328H21.7046L21.4326 200.344H19.8966V201.784H21.2406L20.7926 205ZM24.5686 200.344H22.9846L23.2566 198.328H24.8406L24.5686 200.344ZM30.7733 199.336C30.7733 202.024 31.6213 205.192 34.9813 205.192C38.3413 205.192 39.1893 202.024 39.1893 199.336C39.1893 196.648 38.3413 193.48 34.9813 193.48C31.6213 193.48 30.7733 196.648 30.7733 199.336ZM33.1733 199.336C33.1733 198.152 33.2533 195.688 34.9813 195.688C36.7093 195.688 36.7893 198.152 36.7893 199.336C36.7893 200.52 36.7093 202.984 34.9813 202.984C33.2533 202.984 33.1733 200.52 33.1733 199.336ZM41.8421 199.336C41.8421 202.024 42.6901 205.192 46.0501 205.192C49.4101 205.192 50.2581 202.024 50.2581 199.336C50.2581 196.648 49.4101 193.48 46.0501 193.48C42.6901 193.48 41.8421 196.648 41.8421 199.336ZM44.2421 199.336C44.2421 198.152 44.3221 195.688 46.0501 195.688C47.7781 195.688 47.8581 198.152 47.8581 199.336C47.8581 200.52 47.7781 202.984 46.0501 202.984C44.3221 202.984 44.2421 200.52 44.2421 199.336ZM57.7108 205H60.0148V202.728H61.4708V200.712H60.0148V193.672H57.3908L52.7668 200.712V202.728H57.7108V205ZM57.7108 200.712H55.1668L57.6788 196.808H57.7108V200.712ZM64.6036 205H68.6836C72.0596 205 75.0516 203.032 75.0516 199.368C75.0516 195.224 71.9956 193.672 68.3476 193.672H64.6036V205ZM67.0996 195.976H68.5716C70.6836 195.976 72.4596 197.016 72.4596 199.24C72.4596 201.816 70.7156 202.696 68.3956 202.696H67.0996V195.976ZM78.4402 205H86.4242V202.696H80.9362V200.392H85.8482V198.088H80.9362V195.976H86.1362V193.672H78.4402V205ZM99.3503 195.048C98.3903 193.816 96.7903 193.384 95.5263 193.384C91.9903 193.384 89.4143 195.704 89.4143 199.336C89.4143 202.968 91.9903 205.288 95.5263 205.288C97.0783 205.288 98.6783 204.664 99.6223 203.32L97.5423 201.768C97.0303 202.536 96.2143 202.984 95.2063 202.984C93.3983 202.984 92.0063 201.448 92.0063 199.336C92.0063 197.224 93.3983 195.688 95.2863 195.688C96.2143 195.688 96.9343 196.024 97.4303 196.616L99.3503 195.048Z" fill="#595D71"/>
<path d="M350.827 165H353.227V159.144H355.003V157.224H353.227V155.992C353.227 154.968 353.611 154.728 354.379 154.728C354.667 154.728 354.891 154.792 355.163 154.888L355.275 152.856C354.827 152.744 354.347 152.712 353.867 152.712C351.259 152.712 350.827 154.152 350.827 155.848V157.224H349.243V159.144H350.827V165ZM357.229 161.112C357.229 163.592 359.149 165.192 361.549 165.192C363.949 165.192 365.869 163.592 365.869 161.112C365.869 158.632 363.949 157.032 361.549 157.032C359.149 157.032 357.229 158.632 357.229 161.112ZM359.629 161.112C359.629 159.944 360.349 159.144 361.549 159.144C362.749 159.144 363.469 159.944 363.469 161.112C363.469 162.28 362.749 163.08 361.549 163.08C360.349 163.08 359.629 162.28 359.629 161.112ZM368.882 165H371.282V161.752C371.282 160.2 371.506 159.144 373.33 159.144C373.682 159.144 374.018 159.208 374.354 159.304V157.112C374.13 157.048 373.826 157.032 373.554 157.032C372.498 157.032 371.826 157.528 371.314 158.472H371.282V157.224H368.882V165ZM391.492 152.904H389.092V158.056H389.06C388.516 157.304 387.588 157.032 386.596 157.032C384.388 157.032 383.044 159.016 383.044 161.176C383.044 163.528 384.564 165.192 386.868 165.192C387.956 165.192 388.884 164.536 389.252 163.976H389.284V165H391.492V152.904ZM389.284 161.112C389.284 162.28 388.564 163.08 387.364 163.08C386.164 163.08 385.444 162.28 385.444 161.112C385.444 159.944 386.164 159.144 387.364 159.144C388.564 159.144 389.284 159.944 389.284 161.112ZM394.722 161.112C394.722 163.592 396.642 165.192 399.042 165.192C401.442 165.192 403.362 163.592 403.362 161.112C403.362 158.632 401.442 157.032 399.042 157.032C396.642 157.032 394.722 158.632 394.722 161.112ZM397.122 161.112C397.122 159.944 397.842 159.144 399.042 159.144C400.242 159.144 400.962 159.944 400.962 161.112C400.962 162.28 400.242 163.08 399.042 163.08C397.842 163.08 397.122 162.28 397.122 161.112ZM408.296 165H410.712L412.152 159.832H412.184L413.8 165H416.168L418.936 157.224H416.504L415.048 162.104H415.016L413.576 157.224H410.952L409.624 162.104H409.592L408.008 157.224H405.448L408.296 165ZM421.304 165H423.704V161.128C423.704 160.12 423.896 159.144 425.144 159.144C426.376 159.144 426.392 160.296 426.392 161.192V165H428.792V160.712C428.792 158.632 428.344 157.032 425.912 157.032C424.744 157.032 423.96 157.672 423.64 158.28H423.608V157.224H421.304V165ZM437.388 157.224H435.276V154.92H432.876V157.224H431.34V159.144H432.876V162.84C432.876 164.536 434.108 165.192 435.708 165.192C436.268 165.192 436.86 165.144 437.388 164.952V162.952C437.18 163.144 436.668 163.176 436.412 163.176C435.372 163.176 435.276 162.568 435.276 161.736V159.144H437.388V157.224ZM440.207 165H442.607V161.752C442.607 160.2 442.831 159.144 444.655 159.144C445.007 159.144 445.343 159.208 445.679 159.304V157.112C445.455 157.048 445.151 157.032 444.879 157.032C443.823 157.032 443.151 157.528 442.639 158.472H442.607V157.224H440.207V165ZM453.722 162.424C453.322 162.968 452.794 163.368 452.01 163.368C451.082 163.368 450.394 162.776 450.202 161.864H455.77V161.112C455.77 158.632 454.362 157.032 452.122 157.032C449.722 157.032 447.802 158.632 447.802 161.112C447.802 163.592 449.722 165.192 452.122 165.192C453.37 165.192 454.634 164.632 455.402 163.656L453.722 162.424ZM450.202 160.232C450.266 159.48 450.842 158.76 451.898 158.76C452.762 158.76 453.386 159.432 453.37 160.232H450.202ZM458.829 165H461.229V161.128C461.229 160.12 461.421 159.144 462.669 159.144C463.901 159.144 463.917 160.296 463.917 161.192V165H466.317V160.712C466.317 158.632 465.869 157.032 463.437 157.032C462.269 157.032 461.485 157.672 461.165 158.28H461.133V157.224H458.829V165ZM477.777 152.904H475.377V158.056H475.345C474.801 157.304 473.873 157.032 472.881 157.032C470.673 157.032 469.329 159.016 469.329 161.176C469.329 163.528 470.849 165.192 473.153 165.192C474.241 165.192 475.169 164.536 475.537 163.976H475.569V165H477.777V152.904ZM475.569 161.112C475.569 162.28 474.849 163.08 473.649 163.08C472.449 163.08 471.729 162.28 471.729 161.112C471.729 159.944 472.449 159.144 473.649 159.144C474.849 159.144 475.569 159.944 475.569 161.112ZM487.167 158.056C486.447 157.288 485.311 157.032 484.287 157.032C482.655 157.032 481.023 157.832 481.023 159.656C481.023 162.616 485.071 161.56 485.071 162.808C485.071 163.224 484.527 163.368 483.983 163.368C483.263 163.368 482.735 163.064 482.287 162.52L480.831 164.136C481.599 164.92 482.799 165.192 483.887 165.192C485.551 165.192 487.471 164.616 487.471 162.632C487.471 159.672 483.423 160.648 483.423 159.496C483.423 159.032 483.903 158.856 484.303 158.856C484.879 158.856 485.343 159.08 485.695 159.512L487.167 158.056ZM382.168 205H383.72L384.168 201.784H385.752L385.304 205H386.856L387.304 201.784H388.84V200.344H387.496L387.768 198.328H389.304V196.888H387.96L388.408 193.672H386.856L386.408 196.888H384.824L385.272 193.672H383.72L383.272 196.888H381.736V198.328H383.08L382.808 200.344H381.272V201.784H382.616L382.168 205ZM385.944 200.344H384.36L384.632 198.328H386.216L385.944 200.344ZM392.868 205H395.364V200.584H400.084V198.28H395.364V195.976H400.468V193.672H392.868V205ZM408.033 205H410.337V202.728H411.793V200.712H410.337V193.672H407.713L403.089 200.712V202.728H408.033V205ZM408.033 200.712H405.489L408.001 196.808H408.033V200.712ZM422.045 193.672H415.197L415.069 199.928C415.821 199.672 416.637 199.512 417.421 199.512C418.669 199.512 420.029 199.896 420.029 201.384C420.029 202.36 419.373 203.08 418.349 203.08C417.517 203.08 416.925 202.536 416.797 201.72L414.285 202.296C414.781 204.216 416.157 205.192 418.109 205.192C420.589 205.192 422.429 203.704 422.429 201.144C422.429 198.824 420.797 197.4 418.509 197.4C418.077 197.4 417.773 197.432 417.501 197.528L417.549 195.784H422.045V193.672ZM430.17 205H432.474V202.728H433.93V200.712H432.474V193.672H429.85L425.226 200.712V202.728H430.17V205ZM430.17 200.712H427.626L430.138 196.808H430.17V200.712ZM439.367 200.216H439.927C440.999 200.216 442.167 200.248 442.167 201.528C442.167 202.376 441.671 202.984 440.631 202.984C439.607 202.984 439.111 202.472 438.951 201.672L436.423 202.264C436.887 204.296 438.471 205.192 440.487 205.192C442.711 205.192 444.567 204.072 444.567 201.8C444.567 200.488 443.799 199.336 442.439 199.16V199.112C443.687 198.856 444.375 197.88 444.375 196.632C444.375 194.456 442.567 193.48 440.551 193.48C438.631 193.48 437.015 194.232 436.519 196.2L439.159 196.744C439.303 196.152 439.815 195.688 440.567 195.688C441.351 195.688 441.975 196.184 441.975 196.872C441.975 197.944 441.031 198.136 440.151 198.136H439.367V200.216ZM447.508 199.336C447.508 202.024 448.356 205.192 451.716 205.192C455.076 205.192 455.924 202.024 455.924 199.336C455.924 196.648 455.076 193.48 451.716 193.48C448.356 193.48 447.508 196.648 447.508 199.336ZM449.908 199.336C449.908 198.152 449.988 195.688 451.716 195.688C453.444 195.688 453.524 198.152 453.524 199.336C453.524 200.52 453.444 202.984 451.716 202.984C449.988 202.984 449.908 200.52 449.908 199.336Z" fill="#595D71"/>
<path d="M762.216 162.424C761.816 162.968 761.288 163.368 760.504 163.368C759.576 163.368 758.888 162.776 758.696 161.864H764.264V161.112C764.264 158.632 762.856 157.032 760.616 157.032C758.216 157.032 756.296 158.632 756.296 161.112C756.296 163.592 758.216 165.192 760.616 165.192C761.864 165.192 763.128 164.632 763.896 163.656L762.216 162.424ZM758.696 160.232C758.76 159.48 759.336 158.76 760.391 158.76C761.256 158.76 761.88 159.432 761.864 160.232H758.696ZM767.323 165H769.723V161.752C769.723 160.2 769.947 159.144 771.771 159.144C772.123 159.144 772.459 159.208 772.795 159.304V157.112C772.571 157.048 772.267 157.032 771.995 157.032C770.939 157.032 770.267 157.528 769.755 158.472H769.723V157.224H767.323V165ZM775.439 165H777.839V161.752C777.839 160.2 778.063 159.144 779.887 159.144C780.239 159.144 780.575 159.208 780.911 159.304V157.112C780.687 157.048 780.383 157.032 780.111 157.032C779.055 157.032 778.383 157.528 777.871 158.472H777.839V157.224H775.439V165ZM782.985 161.112C782.985 163.592 784.905 165.192 787.305 165.192C789.705 165.192 791.625 163.592 791.625 161.112C791.625 158.632 789.705 157.032 787.305 157.032C784.905 157.032 782.985 158.632 782.985 161.112ZM785.385 161.112C785.385 159.944 786.105 159.144 787.305 159.144C788.505 159.144 789.225 159.944 789.225 161.112C789.225 162.28 788.505 163.08 787.305 163.08C786.105 163.08 785.385 162.28 785.385 161.112ZM794.639 165H797.039V161.752C797.039 160.2 797.263 159.144 799.087 159.144C799.439 159.144 799.775 159.208 800.111 159.304V157.112C799.887 157.048 799.583 157.032 799.311 157.032C798.255 157.032 797.583 157.528 797.071 158.472H797.039V157.224H794.639V165ZM808.626 158.056C807.906 157.288 806.77 157.032 805.746 157.032C804.114 157.032 802.482 157.832 802.482 159.656C802.482 162.616 806.53 161.56 806.53 162.808C806.53 163.224 805.986 163.368 805.442 163.368C804.722 163.368 804.194 163.064 803.746 162.52L802.29 164.136C803.058 164.92 804.258 165.192 805.346 165.192C807.01 165.192 808.93 164.616 808.93 162.632C808.93 159.672 804.882 160.648 804.882 159.496C804.882 159.032 805.362 158.856 805.762 158.856C806.338 158.856 806.802 159.08 807.154 159.512L808.626 158.056ZM743.621 205H745.173L745.621 201.784H747.205L746.757 205H748.309L748.757 201.784H750.293V200.344H748.949L749.221 198.328H750.757V196.888H749.413L749.861 193.672H748.309L747.861 196.888H746.277L746.725 193.672H745.173L744.725 196.888H743.189V198.328H744.533L744.261 200.344H742.725V201.784H744.069L743.621 205ZM747.397 200.344H745.813L746.085 198.328H747.669L747.397 200.344ZM754.225 205H758.865C760.881 205 763.121 204.216 763.121 201.848C763.121 200.376 762.129 199.272 760.641 199.08V199.048C761.809 198.68 762.593 197.816 762.593 196.552C762.593 194.088 760.433 193.672 758.449 193.672H754.225V205ZM756.721 195.784H758.417C759.201 195.784 760.097 196.024 760.097 196.968C760.097 197.88 759.297 198.2 758.529 198.2H756.721V195.784ZM756.721 200.312H758.609C759.425 200.312 760.625 200.488 760.625 201.56C760.625 202.552 759.745 202.888 758.961 202.888H756.721V200.312ZM765.032 205H767.784L768.728 202.6H773.128L774.104 205H776.92L771.992 193.672H769.928L765.032 205ZM772.28 200.488H769.512L770.888 196.968L772.28 200.488ZM783.116 205H785.42V193.672H783.18L779.484 196.792L780.844 198.36L783.116 196.36V205ZM790.729 205H795.369C797.385 205 799.625 204.216 799.625 201.848C799.625 200.376 798.633 199.272 797.145 199.08V199.048C798.313 198.68 799.097 197.816 799.097 196.552C799.097 194.088 796.937 193.672 794.953 193.672H790.729V205ZM793.225 195.784H794.921C795.705 195.784 796.601 196.024 796.601 196.968C796.601 197.88 795.801 198.2 795.033 198.2H793.225V195.784ZM793.225 200.312H795.113C795.929 200.312 797.129 200.488 797.129 201.56C797.129 202.552 796.249 202.888 795.465 202.888H793.225V200.312ZM806.16 205H808.464V193.672H806.224L802.528 196.792L803.888 198.36L806.16 196.36V205ZM813.772 205H818.412C820.428 205 822.668 204.216 822.668 201.848C822.668 200.376 821.676 199.272 820.188 199.08V199.048C821.356 198.68 822.14 197.816 822.14 196.552C822.14 194.088 819.98 193.672 817.996 193.672H813.772V205ZM816.268 195.784H817.964C818.748 195.784 819.644 196.024 819.644 196.968C819.644 197.88 818.844 198.2 818.076 198.2H816.268V195.784ZM816.268 200.312H818.156C818.972 200.312 820.172 200.488 820.172 201.56C820.172 202.552 819.292 202.888 818.508 202.888H816.268V200.312Z" fill="#595D71"/>
<path d="M205.808 158.056C205.088 157.288 203.952 157.032 202.928 157.032C201.296 157.032 199.664 157.832 199.664 159.656C199.664 162.616 203.712 161.56 203.712 162.808C203.712 163.224 203.168 163.368 202.624 163.368C201.904 163.368 201.376 163.064 200.928 162.52L199.472 164.136C200.24 164.92 201.44 165.192 202.528 165.192C204.192 165.192 206.112 164.616 206.112 162.632C206.112 159.672 202.064 160.648 202.064 159.496C202.064 159.032 202.544 158.856 202.944 158.856C203.52 158.856 203.984 159.08 204.336 159.512L205.808 158.056ZM214.622 162.424C214.222 162.968 213.694 163.368 212.91 163.368C211.982 163.368 211.294 162.776 211.102 161.864H216.67V161.112C216.67 158.632 215.262 157.032 213.022 157.032C210.622 157.032 208.702 158.632 208.702 161.112C208.702 163.592 210.622 165.192 213.022 165.192C214.27 165.192 215.534 164.632 216.302 163.656L214.622 162.424ZM211.102 160.232C211.166 159.48 211.742 158.76 212.798 158.76C213.662 158.76 214.286 159.432 214.27 160.232H211.102ZM219.441 161.112C219.441 163.592 221.361 165.192 223.761 165.192C226.161 165.192 228.081 163.592 228.081 161.112C228.081 158.632 226.161 157.032 223.761 157.032C221.361 157.032 219.441 158.632 219.441 161.112ZM221.841 161.112C221.841 159.944 222.561 159.144 223.761 159.144C224.961 159.144 225.681 159.944 225.681 161.112C225.681 162.28 224.961 163.08 223.761 163.08C222.561 163.08 221.841 162.28 221.841 161.112ZM231.095 165H233.495V161.128C233.495 160.12 233.687 159.144 234.935 159.144C236.167 159.144 236.183 160.296 236.183 161.192V165H238.583V160.712C238.583 158.632 238.135 157.032 235.703 157.032C234.535 157.032 233.751 157.672 233.431 158.28H233.399V157.224H231.095V165ZM250.042 152.904H247.642V158.056H247.61C247.066 157.304 246.138 157.032 245.146 157.032C242.938 157.032 241.594 159.016 241.594 161.176C241.594 163.528 243.114 165.192 245.418 165.192C246.506 165.192 247.434 164.536 247.802 163.976H247.834V165H250.042V152.904ZM247.834 161.112C247.834 162.28 247.114 163.08 245.914 163.08C244.714 163.08 243.994 162.28 243.994 161.112C243.994 159.944 244.714 159.144 245.914 159.144C247.114 159.144 247.834 159.944 247.834 161.112ZM258.441 165H260.649V161.048C260.649 158.456 259.897 157.032 257.097 157.032C255.833 157.032 254.553 157.448 253.673 158.28L254.953 159.592C255.465 159.016 256.121 158.664 256.905 158.664C257.737 158.664 258.441 159.208 258.441 160.056C256.441 160.056 253.177 160.104 253.177 162.792C253.177 164.36 254.489 165.192 255.945 165.192C256.921 165.192 257.881 164.856 258.409 164.024H258.441V165ZM258.441 161.592V162.104C258.441 163.064 257.561 163.56 256.617 163.56C256.089 163.56 255.481 163.288 255.481 162.712C255.481 161.656 257.113 161.592 257.849 161.592H258.441ZM263.754 165H266.154V161.752C266.154 160.2 266.378 159.144 268.202 159.144C268.554 159.144 268.89 159.208 269.226 159.304V157.112C269.002 157.048 268.698 157.032 268.426 157.032C267.37 157.032 266.698 157.528 266.186 158.472H266.154V157.224H263.754V165ZM279.87 157.224H277.406L275.694 162.36H275.662L273.662 157.224H271.07L274.478 165.064L274.302 165.512C273.966 166.36 273.79 166.824 272.702 166.824C272.302 166.824 271.95 166.744 271.582 166.584L271.262 168.552C271.838 168.744 272.446 168.84 273.054 168.84C275.342 168.84 275.71 167.912 276.35 166.264L279.87 157.224ZM201.839 205H203.391L203.839 201.784H205.423L204.975 205H206.527L206.975 201.784H208.511V200.344H207.167L207.439 198.328H208.975V196.888H207.631L208.079 193.672H206.527L206.079 196.888H204.495L204.943 193.672H203.391L202.943 196.888H201.407V198.328H202.751L202.479 200.344H200.943V201.784H202.287L201.839 205ZM205.615 200.344H204.031L204.303 198.328H205.887L205.615 200.344ZM219.564 193.672H212.716L212.588 199.928C213.34 199.672 214.156 199.512 214.94 199.512C216.188 199.512 217.548 199.896 217.548 201.384C217.548 202.36 216.892 203.08 215.868 203.08C215.036 203.08 214.444 202.536 214.316 201.72L211.804 202.296C212.3 204.216 213.676 205.192 215.628 205.192C218.108 205.192 219.948 203.704 219.948 201.144C219.948 198.824 218.316 197.4 216.028 197.4C215.596 197.4 215.292 197.432 215.02 197.528L215.068 195.784H219.564V193.672ZM224.585 205H227.513L229.993 201.128C230.713 199.992 231.353 199 231.353 197.368C231.353 195.032 229.497 193.48 227.129 193.48C224.761 193.48 222.905 195.032 222.905 197.368C222.905 199.432 224.329 201.064 226.457 201.064C226.729 201.064 226.985 201.016 227.241 200.952L224.585 205ZM225.305 197.464C225.305 196.44 226.057 195.688 227.129 195.688C228.201 195.688 228.953 196.44 228.953 197.464C228.953 198.488 228.201 199.24 227.129 199.24C226.057 199.24 225.305 198.488 225.305 197.464ZM241.702 193.672H234.854L234.726 199.928C235.478 199.672 236.294 199.512 237.078 199.512C238.326 199.512 239.686 199.896 239.686 201.384C239.686 202.36 239.03 203.08 238.006 203.08C237.174 203.08 236.582 202.536 236.454 201.72L233.942 202.296C234.438 204.216 235.814 205.192 237.766 205.192C240.246 205.192 242.086 203.704 242.086 201.144C242.086 198.824 240.454 197.4 238.166 197.4C237.734 197.4 237.43 197.432 237.158 197.528L237.206 195.784H241.702V193.672ZM245.65 205H249.73C253.106 205 256.098 203.032 256.098 199.368C256.098 195.224 253.042 193.672 249.394 193.672H245.65V205ZM248.146 195.976H249.618C251.73 195.976 253.506 197.016 253.506 199.24C253.506 201.816 251.762 202.696 249.442 202.696H248.146V195.976ZM259.791 205H262.591L267.119 195.784V193.672H258.831V195.88H264.431L259.791 205ZM273.916 205H276.22V193.672H273.98L270.284 196.792L271.644 198.36L273.916 196.36V205Z" fill="#595D71"/>
<path d="M543.974 165H546.374V159.144H548.15V157.224H546.374V155.992C546.374 154.968 546.758 154.728 547.526 154.728C547.814 154.728 548.038 154.792 548.31 154.888L548.422 152.856C547.974 152.744 547.494 152.712 547.014 152.712C544.406 152.712 543.974 154.152 543.974 155.848V157.224H542.39V159.144H543.974V165ZM550.376 161.112C550.376 163.592 552.296 165.192 554.696 165.192C557.096 165.192 559.016 163.592 559.016 161.112C559.016 158.632 557.096 157.032 554.696 157.032C552.296 157.032 550.376 158.632 550.376 161.112ZM552.776 161.112C552.776 159.944 553.496 159.144 554.696 159.144C555.896 159.144 556.616 159.944 556.616 161.112C556.616 162.28 555.896 163.08 554.696 163.08C553.496 163.08 552.776 162.28 552.776 161.112ZM562.029 165H564.429V161.752C564.429 160.2 564.653 159.144 566.477 159.144C566.829 159.144 567.165 159.208 567.501 159.304V157.112C567.277 157.048 566.973 157.032 566.701 157.032C565.645 157.032 564.973 157.528 564.461 158.472H564.429V157.224H562.029V165ZM583.967 157.224H581.567V161.096C581.567 162.104 581.375 163.08 580.127 163.08C578.895 163.08 578.879 161.928 578.879 161.032V157.224H576.479V161.512C576.479 163.592 576.927 165.192 579.359 165.192C580.527 165.192 581.311 164.552 581.631 163.944H581.663V165H583.967V157.224ZM587.491 168.648H589.891V164.168H589.923C590.467 164.92 591.395 165.192 592.387 165.192C594.595 165.192 595.939 163.208 595.939 161.048C595.939 158.696 594.419 157.032 592.115 157.032C591.027 157.032 590.099 157.688 589.731 158.248H589.699V157.224H587.491V168.648ZM589.699 161.112C589.699 159.944 590.419 159.144 591.619 159.144C592.819 159.144 593.539 159.944 593.539 161.112C593.539 162.28 592.819 163.08 591.619 163.08C590.419 163.08 589.699 162.28 589.699 161.112ZM604.241 157.224H602.129V154.92H599.729V157.224H598.193V159.144H599.729V162.84C599.729 164.536 600.961 165.192 602.561 165.192C603.121 165.192 603.713 165.144 604.241 164.952V162.952C604.033 163.144 603.521 163.176 603.265 163.176C602.225 163.176 602.129 162.568 602.129 161.736V159.144H604.241V157.224ZM607.061 165H609.461V161.752C609.461 160.2 609.685 159.144 611.509 159.144C611.861 159.144 612.197 159.208 612.533 159.304V157.112C612.309 157.048 612.005 157.032 611.733 157.032C610.677 157.032 610.005 157.528 609.493 158.472H609.461V157.224H607.061V165ZM620.575 162.424C620.175 162.968 619.647 163.368 618.863 163.368C617.935 163.368 617.247 162.776 617.055 161.864H622.623V161.112C622.623 158.632 621.215 157.032 618.975 157.032C616.575 157.032 614.655 158.632 614.655 161.112C614.655 163.592 616.575 165.192 618.975 165.192C620.223 165.192 621.487 164.632 622.255 163.656L620.575 162.424ZM617.055 160.232C617.119 159.48 617.695 158.76 618.751 158.76C619.615 158.76 620.239 159.432 620.223 160.232H617.055ZM625.682 165H628.082V161.128C628.082 160.12 628.274 159.144 629.522 159.144C630.754 159.144 630.77 160.296 630.77 161.192V165H633.17V160.712C633.17 158.632 632.722 157.032 630.29 157.032C629.122 157.032 628.338 157.672 628.018 158.28H627.986V157.224H625.682V165ZM644.63 152.904H642.23V158.056H642.198C641.654 157.304 640.726 157.032 639.734 157.032C637.526 157.032 636.182 159.016 636.182 161.176C636.182 163.528 637.702 165.192 640.006 165.192C641.094 165.192 642.022 164.536 642.39 163.976H642.422V165H644.63V152.904ZM642.422 161.112C642.422 162.28 641.702 163.08 640.502 163.08C639.302 163.08 638.582 162.28 638.582 161.112C638.582 159.944 639.302 159.144 640.502 159.144C641.702 159.144 642.422 159.944 642.422 161.112ZM654.02 158.056C653.3 157.288 652.164 157.032 651.14 157.032C649.508 157.032 647.876 157.832 647.876 159.656C647.876 162.616 651.924 161.56 651.924 162.808C651.924 163.224 651.38 163.368 650.836 163.368C650.116 163.368 649.588 163.064 649.14 162.52L647.684 164.136C648.452 164.92 649.652 165.192 650.74 165.192C652.404 165.192 654.324 164.616 654.324 162.632C654.324 159.672 650.276 160.648 650.276 159.496C650.276 159.032 650.756 158.856 651.156 158.856C651.732 158.856 652.196 159.08 652.548 159.512L654.02 158.056ZM561.129 205H562.681L563.129 201.784H564.713L564.265 205H565.817L566.265 201.784H567.801V200.344H566.457L566.729 198.328H568.265V196.888H566.921L567.369 193.672H565.817L565.369 196.888H563.785L564.233 193.672H562.681L562.233 196.888H560.697V198.328H562.041L561.769 200.344H560.233V201.784H561.577L561.129 205ZM564.905 200.344H563.321L563.593 198.328H565.177L564.905 200.344ZM571.365 205H579.269V202.888H574.245L577.685 199.928C578.549 199.176 579.173 198.344 579.173 196.888C579.173 194.616 577.573 193.48 575.509 193.48C573.285 193.48 571.653 194.616 571.509 196.952L573.909 197.128C573.973 196.312 574.501 195.688 575.381 195.688C576.117 195.688 576.773 196.152 576.773 196.92C576.773 197.608 576.213 198.088 575.765 198.504L571.365 202.456V205ZM586.258 205H588.562V193.672H586.322L582.626 196.792L583.986 198.36L586.258 196.36V205ZM603.199 195.048C602.239 193.816 600.639 193.384 599.375 193.384C595.839 193.384 593.263 195.704 593.263 199.336C593.263 202.968 595.839 205.288 599.375 205.288C600.927 205.288 602.527 204.664 603.471 203.32L601.391 201.768C600.879 202.536 600.063 202.984 599.055 202.984C597.247 202.984 595.855 201.448 595.855 199.336C595.855 197.224 597.247 195.688 599.135 195.688C600.063 195.688 600.783 196.024 601.279 196.616L603.199 195.048ZM606.52 205H614.504V202.696H609.016V200.392H613.928V198.088H609.016V195.976H614.216V193.672H606.52V205ZM619.174 205H622.102L624.582 201.128C625.302 199.992 625.942 199 625.942 197.368C625.942 195.032 624.086 193.48 621.718 193.48C619.35 193.48 617.494 195.032 617.494 197.368C617.494 199.432 618.918 201.064 621.046 201.064C621.318 201.064 621.574 201.016 621.83 200.952L619.174 205ZM619.894 197.464C619.894 196.44 620.646 195.688 621.718 195.688C622.79 195.688 623.542 196.44 623.542 197.464C623.542 198.488 622.79 199.24 621.718 199.24C620.646 199.24 619.894 198.488 619.894 197.464ZM630.243 205H633.171L635.651 201.128C636.371 199.992 637.011 199 637.011 197.368C637.011 195.032 635.155 193.48 632.787 193.48C630.419 193.48 628.563 195.032 628.563 197.368C628.563 199.432 629.987 201.064 632.115 201.064C632.387 201.064 632.643 201.016 632.899 200.952L630.243 205ZM630.963 197.464C630.963 196.44 631.715 195.688 632.787 195.688C633.859 195.688 634.611 196.44 634.611 197.464C634.611 198.488 633.859 199.24 632.787 199.24C631.715 199.24 630.963 198.488 630.963 197.464Z" fill="#595D71"/>
<path d="M936.724 152.904H934.324V158.056H934.292C933.748 157.304 932.82 157.032 931.828 157.032C929.62 157.032 928.276 159.016 928.276 161.176C928.276 163.528 929.796 165.192 932.1 165.192C933.188 165.192 934.116 164.536 934.484 163.976H934.516V165H936.724V152.904ZM934.516 161.112C934.516 162.28 933.796 163.08 932.596 163.08C931.396 163.08 930.676 162.28 930.676 161.112C930.676 159.944 931.396 159.144 932.596 159.144C933.796 159.144 934.516 159.944 934.516 161.112ZM945.122 165H947.33V161.048C947.33 158.456 946.578 157.032 943.778 157.032C942.514 157.032 941.234 157.448 940.354 158.28L941.634 159.592C942.146 159.016 942.802 158.664 943.586 158.664C944.418 158.664 945.122 159.208 945.122 160.056C943.122 160.056 939.858 160.104 939.858 162.792C939.858 164.36 941.17 165.192 942.626 165.192C943.602 165.192 944.562 164.856 945.09 164.024H945.122V165ZM945.122 161.592V162.104C945.122 163.064 944.242 163.56 943.298 163.56C942.77 163.56 942.162 163.288 942.162 162.712C942.162 161.656 943.794 161.592 944.53 161.592H945.122ZM950.436 165H952.836V161.752C952.836 160.2 953.06 159.144 954.884 159.144C955.236 159.144 955.572 159.208 955.908 159.304V157.112C955.684 157.048 955.38 157.032 955.108 157.032C954.052 157.032 953.38 157.528 952.868 158.472H952.836V157.224H950.436V165ZM958.551 165H960.951V161.064H960.983L963.607 165H966.631L963.463 160.728L966.551 157.224H963.607L960.951 160.296V152.904H958.551V165ZM975.6 165H977.808V163.976H977.84C978.208 164.536 979.136 165.192 980.224 165.192C982.528 165.192 984.048 163.528 984.048 161.176C984.048 159.016 982.704 157.032 980.496 157.032C979.504 157.032 978.576 157.304 978.032 158.056H978V152.904H975.6V165ZM977.808 161.112C977.808 159.944 978.528 159.144 979.728 159.144C980.928 159.144 981.648 159.944 981.648 161.112C981.648 162.28 980.928 163.08 979.728 163.08C978.528 163.08 977.808 162.28 977.808 161.112ZM995.214 157.224H993.006V158.248H992.974C992.606 157.688 991.678 157.032 990.318 157.032C988.11 157.032 986.766 159.016 986.766 161.08C986.766 163.432 988.286 165.096 990.59 165.096C991.31 165.096 992.238 164.824 992.782 164.072H992.814V164.824C992.814 165.928 992.126 166.728 990.67 166.728C989.694 166.728 988.878 166.344 988.142 165.72L986.814 167.704C987.934 168.6 989.342 168.84 990.718 168.84C993.726 168.84 995.214 167.272 995.214 164.344V157.224ZM989.166 161.064C989.166 160.056 989.998 159.144 991.086 159.144C992.174 159.144 993.006 160.056 993.006 161.064C993.006 162.072 992.174 162.984 991.086 162.984C989.998 162.984 989.166 162.072 989.166 161.064ZM925.675 205H927.227L927.675 201.784H929.259L928.811 205H930.363L930.811 201.784H932.347V200.344H931.003L931.275 198.328H932.811V196.888H931.467L931.915 193.672H930.363L929.915 196.888H928.331L928.779 193.672H927.227L926.779 196.888H925.243V198.328H926.587L926.315 200.344H924.779V201.784H926.123L925.675 205ZM929.451 200.344H927.867L928.139 198.328H929.723L929.451 200.344ZM938.584 200.216H939.144C940.216 200.216 941.384 200.248 941.384 201.528C941.384 202.376 940.888 202.984 939.848 202.984C938.824 202.984 938.328 202.472 938.168 201.672L935.64 202.264C936.104 204.296 937.688 205.192 939.704 205.192C941.928 205.192 943.784 204.072 943.784 201.8C943.784 200.488 943.016 199.336 941.656 199.16V199.112C942.904 198.856 943.592 197.88 943.592 196.632C943.592 194.456 941.784 193.48 939.768 193.48C937.848 193.48 936.232 194.232 935.736 196.2L938.376 196.744C938.52 196.152 939.032 195.688 939.784 195.688C940.568 195.688 941.192 196.184 941.192 196.872C941.192 197.944 940.248 198.136 939.368 198.136H938.584V200.216ZM946.725 199.336C946.725 202.024 947.573 205.192 950.933 205.192C954.293 205.192 955.141 202.024 955.141 199.336C955.141 196.648 954.293 193.48 950.933 193.48C947.573 193.48 946.725 196.648 946.725 199.336ZM949.125 199.336C949.125 198.152 949.205 195.688 950.933 195.688C952.661 195.688 952.741 198.152 952.741 199.336C952.741 200.52 952.661 202.984 950.933 202.984C949.205 202.984 949.125 200.52 949.125 199.336ZM960.722 200.216H961.282C962.354 200.216 963.522 200.248 963.522 201.528C963.522 202.376 963.026 202.984 961.986 202.984C960.962 202.984 960.466 202.472 960.306 201.672L957.778 202.264C958.242 204.296 959.826 205.192 961.842 205.192C964.066 205.192 965.922 204.072 965.922 201.8C965.922 200.488 965.154 199.336 963.794 199.16V199.112C965.042 198.856 965.73 197.88 965.73 196.632C965.73 194.456 963.922 193.48 961.906 193.48C959.986 193.48 958.37 194.232 957.874 196.2L960.514 196.744C960.658 196.152 961.17 195.688 961.922 195.688C962.706 195.688 963.33 196.184 963.33 196.872C963.33 197.944 962.386 198.136 961.506 198.136H960.722V200.216ZM968.862 199.336C968.862 202.024 969.71 205.192 973.07 205.192C976.43 205.192 977.278 202.024 977.278 199.336C977.278 196.648 976.43 193.48 973.07 193.48C969.71 193.48 968.862 196.648 968.862 199.336ZM971.262 199.336C971.262 198.152 971.342 195.688 973.07 195.688C974.798 195.688 974.878 198.152 974.878 199.336C974.878 200.52 974.798 202.984 973.07 202.984C971.342 202.984 971.262 200.52 971.262 199.336ZM982.859 200.216H983.419C984.491 200.216 985.659 200.248 985.659 201.528C985.659 202.376 985.163 202.984 984.123 202.984C983.099 202.984 982.603 202.472 982.443 201.672L979.915 202.264C980.379 204.296 981.963 205.192 983.979 205.192C986.203 205.192 988.059 204.072 988.059 201.8C988.059 200.488 987.291 199.336 985.931 199.16V199.112C987.179 198.856 987.867 197.88 987.867 196.632C987.867 194.456 986.059 193.48 984.043 193.48C982.123 193.48 980.507 194.232 980.011 196.2L982.651 196.744C982.795 196.152 983.307 195.688 984.059 195.688C984.843 195.688 985.467 196.184 985.467 196.872C985.467 197.944 984.523 198.136 983.643 198.136H982.859V200.216ZM993.928 200.216H994.488C995.56 200.216 996.728 200.248 996.728 201.528C996.728 202.376 996.232 202.984 995.192 202.984C994.168 202.984 993.672 202.472 993.512 201.672L990.984 202.264C991.448 204.296 993.032 205.192 995.048 205.192C997.272 205.192 999.128 204.072 999.128 201.8C999.128 200.488 998.36 199.336 997 199.16V199.112C998.248 198.856 998.936 197.88 998.936 196.632C998.936 194.456 997.128 193.48 995.112 193.48C993.192 193.48 991.576 194.232 991.08 196.2L993.72 196.744C993.864 196.152 994.376 195.688 995.128 195.688C995.912 195.688 996.536 196.184 996.536 196.872C996.536 197.944 995.592 198.136 994.712 198.136H993.928V200.216Z" fill="#595D71"/>
</svg>
