<svg width="1027" height="166" viewBox="0 0 1027 166" fill="none" xmlns="http://www.w3.org/2000/svg">
<circle cx="964" cy="60" r="60" transform="rotate(180 964 60)" fill="#004DEC"/>
<circle cx="784" cy="60" r="60" transform="rotate(180 784 60)" fill="#356AFF"/>
<circle cx="603" cy="60" r="60" transform="rotate(180 603 60)" fill="#6689FF"/>
<circle cx="422" cy="60" r="60" transform="rotate(180 422 60)" fill="#8EA7FF"/>
<circle cx="241" cy="60" r="60" transform="rotate(180 241 60)" fill="#B5C4FF"/>
<circle cx="60" cy="60" r="60" transform="rotate(180 60 60)" fill="#DBE1FF"/>
<path d="M13.81 158H17.554V151.208H19.402L22.954 158H27.442L23.122 150.824C25.522 150.392 26.794 148.544 26.794 146.168C26.794 142.208 23.866 141.008 20.386 141.008H13.81V158ZM17.554 144.176H20.002C21.37 144.176 22.906 144.44 22.906 146.144C22.906 147.992 21.13 148.04 19.762 148.04H17.554V144.176ZM37.4365 154.136C36.8365 154.952 36.0445 155.552 34.8685 155.552C33.4765 155.552 32.4445 154.664 32.1565 153.296H40.5085V152.168C40.5085 148.448 38.3965 146.048 35.0365 146.048C31.4365 146.048 28.5565 148.448 28.5565 152.168C28.5565 155.888 31.4365 158.288 35.0365 158.288C36.9085 158.288 38.8045 157.448 39.9565 155.984L37.4365 154.136ZM32.1565 150.848C32.2525 149.72 33.1165 148.64 34.7005 148.64C35.9965 148.64 36.9325 149.648 36.9085 150.848H32.1565ZM51.5058 147.584C50.4258 146.432 48.7218 146.048 47.1858 146.048C44.7378 146.048 42.2898 147.248 42.2898 149.984C42.2898 154.424 48.3618 152.84 48.3618 154.712C48.3618 155.336 47.5458 155.552 46.7298 155.552C45.6498 155.552 44.8578 155.096 44.1858 154.28L42.0018 156.704C43.1538 157.88 44.9538 158.288 46.5858 158.288C49.0818 158.288 51.9618 157.424 51.9618 154.448C51.9618 150.008 45.8898 151.472 45.8898 149.744C45.8898 149.048 46.6098 148.784 47.2098 148.784C48.0738 148.784 48.7698 149.12 49.2978 149.768L51.5058 147.584ZM62.3272 154.136C61.7272 154.952 60.9352 155.552 59.7592 155.552C58.3672 155.552 57.3352 154.664 57.0472 153.296H65.3992V152.168C65.3992 148.448 63.2872 146.048 59.9272 146.048C56.3272 146.048 53.4472 148.448 53.4472 152.168C53.4472 155.888 56.3272 158.288 59.9272 158.288C61.7992 158.288 63.6952 157.448 64.8472 155.984L62.3272 154.136ZM57.0472 150.848C57.1432 149.72 58.0072 148.64 59.5912 148.64C60.8872 148.64 61.8232 149.648 61.7992 150.848H57.0472ZM74.9084 158H78.2204V152.072C78.2204 148.184 77.0924 146.048 72.8924 146.048C70.9964 146.048 69.0764 146.672 67.7564 147.92L69.6764 149.888C70.4444 149.024 71.4284 148.496 72.6044 148.496C73.8524 148.496 74.9084 149.312 74.9084 150.584C71.9084 150.584 67.0124 150.656 67.0124 154.688C67.0124 157.04 68.9804 158.288 71.1644 158.288C72.6284 158.288 74.0684 157.784 74.8604 156.536H74.9084V158ZM74.9084 152.888V153.656C74.9084 155.096 73.5884 155.84 72.1724 155.84C71.3804 155.84 70.4684 155.432 70.4684 154.568C70.4684 152.984 72.9164 152.888 74.0204 152.888H74.9084ZM80.479 158H84.079V153.128C84.079 150.8 84.415 149.216 87.151 149.216C87.679 149.216 88.183 149.312 88.687 149.456V146.168C88.351 146.072 87.895 146.048 87.487 146.048C85.903 146.048 84.895 146.792 84.127 148.208H84.079V146.336H80.479V158ZM100.103 147.608C98.9746 146.456 97.3186 146.048 95.9506 146.048C92.3506 146.048 89.4706 148.448 89.4706 152.168C89.4706 155.888 92.3506 158.288 95.9506 158.288C97.3186 158.288 98.9746 157.88 100.103 156.728L97.7266 154.232C97.3186 154.712 96.7426 155.12 95.9506 155.12C94.1506 155.12 93.0706 153.92 93.0706 152.168C93.0706 150.416 94.1506 149.216 95.9506 149.216C96.6946 149.216 97.3666 149.6 97.7266 150.104L100.103 147.608ZM101.409 139.856V158H105.009V152.192C105.009 150.68 105.297 149.216 107.169 149.216C109.017 149.216 109.041 150.944 109.041 152.288V158H112.641V151.568C112.641 148.448 111.969 146.048 108.321 146.048C106.569 146.048 105.393 147.008 105.057 147.92H105.009V139.856H101.409Z" fill="#595D71"/>
<path d="M368.083 158H380.059V154.544H371.827V151.088H379.195V147.632H371.827V144.464H379.627V141.008H368.083V158ZM382.6 158H386.2V152.192C386.2 150.68 386.488 149.216 388.36 149.216C390.016 149.216 389.968 150.968 389.968 151.832V158H393.568V151.832C393.568 150.392 394.096 149.216 395.752 149.216C396.928 149.216 397.336 150.128 397.336 151.208V158H400.936V151.112C400.936 148.28 399.976 146.048 396.808 146.048C395.08 146.048 393.952 146.648 393.112 148.136C392.488 146.72 391.144 146.048 389.512 146.048C387.76 146.048 386.584 147.008 386.104 147.92H386.056V146.336H382.6V158ZM403.819 163.472H407.419V156.752H407.467C408.283 157.88 409.675 158.288 411.163 158.288C414.475 158.288 416.491 155.312 416.491 152.072C416.491 148.544 414.211 146.048 410.755 146.048C409.123 146.048 407.731 147.032 407.179 147.872H407.131V146.336H403.819V163.472ZM407.131 152.168C407.131 150.416 408.211 149.216 410.011 149.216C411.811 149.216 412.891 150.416 412.891 152.168C412.891 153.92 411.811 155.12 410.011 155.12C408.211 155.12 407.131 153.92 407.131 152.168ZM425.92 158H429.232V152.072C429.232 148.184 428.104 146.048 423.904 146.048C422.008 146.048 420.088 146.672 418.768 147.92L420.688 149.888C421.456 149.024 422.44 148.496 423.616 148.496C424.864 148.496 425.92 149.312 425.92 150.584C422.92 150.584 418.024 150.656 418.024 154.688C418.024 157.04 419.992 158.288 422.176 158.288C423.64 158.288 425.08 157.784 425.872 156.536H425.92V158ZM425.92 152.888V153.656C425.92 155.096 424.6 155.84 423.184 155.84C422.392 155.84 421.48 155.432 421.48 154.568C421.48 152.984 423.928 152.888 425.032 152.888H425.92ZM439.435 146.336H436.267V142.88H432.667V146.336H430.363V149.216H432.667V154.76C432.667 157.304 434.515 158.288 436.915 158.288C437.755 158.288 438.643 158.216 439.435 157.928V154.928C439.123 155.216 438.355 155.264 437.971 155.264C436.411 155.264 436.267 154.352 436.267 153.104V149.216H439.435V146.336ZM441.264 139.856V158H444.864V152.192C444.864 150.68 445.152 149.216 447.024 149.216C448.872 149.216 448.896 150.944 448.896 152.288V158H452.496V151.568C452.496 148.448 451.824 146.048 448.176 146.048C446.424 146.048 445.248 147.008 444.912 147.92H444.864V139.856H441.264ZM455.093 158H458.693V146.336H455.093V158ZM454.805 142.664C454.805 143.816 455.741 144.752 456.893 144.752C458.045 144.752 458.981 143.816 458.981 142.664C458.981 141.512 458.045 140.576 456.893 140.576C455.741 140.576 454.805 141.512 454.805 142.664ZM460.824 158H471.192V155.12H464.712L471.048 149.792V146.336H460.968V149.216H466.872L460.824 154.4V158ZM481.8 154.136C481.2 154.952 480.408 155.552 479.232 155.552C477.84 155.552 476.808 154.664 476.52 153.296H484.872V152.168C484.872 148.448 482.76 146.048 479.4 146.048C475.8 146.048 472.92 148.448 472.92 152.168C472.92 155.888 475.8 158.288 479.4 158.288C481.272 158.288 483.168 157.448 484.32 155.984L481.8 154.136ZM476.52 150.848C476.616 149.72 477.48 148.64 479.064 148.64C480.36 148.64 481.296 149.648 481.272 150.848H476.52Z" fill="#595D71"/>
<path d="M748.111 158H754.231C759.295 158 763.783 155.048 763.783 149.552C763.783 143.336 759.199 141.008 753.727 141.008H748.111V158ZM751.855 144.464H754.063C757.231 144.464 759.895 146.024 759.895 149.36C759.895 153.224 757.279 154.544 753.799 154.544H751.855V144.464ZM774.386 154.136C773.786 154.952 772.994 155.552 771.818 155.552C770.426 155.552 769.394 154.664 769.106 153.296H777.458V152.168C777.458 148.448 775.346 146.048 771.986 146.048C768.386 146.048 765.506 148.448 765.506 152.168C765.506 155.888 768.386 158.288 771.986 158.288C773.858 158.288 775.754 157.448 776.906 155.984L774.386 154.136ZM769.106 150.848C769.202 149.72 770.066 148.64 771.65 148.64C772.946 148.64 773.882 149.648 773.858 150.848H769.106ZM788.455 147.584C787.375 146.432 785.671 146.048 784.135 146.048C781.687 146.048 779.239 147.248 779.239 149.984C779.239 154.424 785.311 152.84 785.311 154.712C785.311 155.336 784.495 155.552 783.679 155.552C782.599 155.552 781.807 155.096 781.135 154.28L778.951 156.704C780.103 157.88 781.903 158.288 783.535 158.288C786.031 158.288 788.911 157.424 788.911 154.448C788.911 150.008 782.839 151.472 782.839 149.744C782.839 149.048 783.559 148.784 784.159 148.784C785.023 148.784 785.719 149.12 786.247 149.768L788.455 147.584ZM790.804 158H794.404V146.336H790.804V158ZM790.516 142.664C790.516 143.816 791.452 144.752 792.604 144.752C793.756 144.752 794.692 143.816 794.692 142.664C794.692 141.512 793.756 140.576 792.604 140.576C791.452 140.576 790.516 141.512 790.516 142.664ZM809.231 146.336H805.919V147.872H805.871C805.319 147.032 803.927 146.048 801.887 146.048C798.575 146.048 796.559 149.024 796.559 152.12C796.559 155.648 798.839 158.144 802.295 158.144C803.375 158.144 804.767 157.736 805.583 156.608H805.631V157.736C805.631 159.392 804.599 160.592 802.415 160.592C800.951 160.592 799.727 160.016 798.623 159.08L796.631 162.056C798.311 163.4 800.423 163.76 802.487 163.76C806.999 163.76 809.231 161.408 809.231 157.016V146.336ZM800.159 152.096C800.159 150.584 801.407 149.216 803.039 149.216C804.671 149.216 805.919 150.584 805.919 152.096C805.919 153.608 804.671 154.976 803.039 154.976C801.407 154.976 800.159 153.608 800.159 152.096ZM812.108 158H815.708V152.192C815.708 150.68 815.996 149.216 817.868 149.216C819.716 149.216 819.74 150.944 819.74 152.288V158H823.34V151.568C823.34 148.448 822.668 146.048 819.02 146.048C817.268 146.048 816.092 147.008 815.612 147.92H815.564V146.336H812.108V158Z" fill="#595D71"/>
<path d="M207.892 158H214.012C219.076 158 223.564 155.048 223.564 149.552C223.564 143.336 218.98 141.008 213.508 141.008H207.892V158ZM211.636 144.464H213.844C217.012 144.464 219.676 146.024 219.676 149.36C219.676 153.224 217.06 154.544 213.58 154.544H211.636V144.464ZM234.167 154.136C233.567 154.952 232.775 155.552 231.599 155.552C230.207 155.552 229.175 154.664 228.887 153.296H237.239V152.168C237.239 148.448 235.127 146.048 231.767 146.048C228.167 146.048 225.287 148.448 225.287 152.168C225.287 155.888 228.167 158.288 231.767 158.288C233.639 158.288 235.535 157.448 236.687 155.984L234.167 154.136ZM228.887 150.848C228.983 149.72 229.847 148.64 231.431 148.64C232.727 148.64 233.663 149.648 233.639 150.848H228.887ZM248.356 158H251.956V146.336H248.356V158ZM248.068 142.664C248.068 143.816 249.004 144.752 250.156 144.752C251.308 144.752 252.244 143.816 252.244 142.664C252.244 141.512 251.308 140.576 250.156 140.576C249.004 140.576 248.068 141.512 248.068 142.664ZM240.676 158H244.276V149.216H246.94V146.336H244.276V144.488C244.276 142.952 244.852 142.592 246.004 142.592C246.436 142.592 246.772 142.688 247.18 142.832L247.348 139.784C246.676 139.616 245.956 139.568 245.236 139.568C241.324 139.568 240.676 141.728 240.676 144.272V146.336H238.3V149.216H240.676V158ZM254.545 158H258.145V152.192C258.145 150.68 258.433 149.216 260.305 149.216C262.153 149.216 262.177 150.944 262.177 152.288V158H265.777V151.568C265.777 148.448 265.105 146.048 261.457 146.048C259.705 146.048 258.529 147.008 258.049 147.92H258.001V146.336H254.545V158ZM276.847 154.136C276.247 154.952 275.455 155.552 274.279 155.552C272.887 155.552 271.855 154.664 271.567 153.296H279.919V152.168C279.919 148.448 277.807 146.048 274.447 146.048C270.847 146.048 267.967 148.448 267.967 152.168C267.967 155.888 270.847 158.288 274.447 158.288C276.319 158.288 278.215 157.448 279.367 155.984L276.847 154.136ZM271.567 150.848C271.663 149.72 272.527 148.64 274.111 148.64C275.407 148.64 276.343 149.648 276.319 150.848H271.567Z" fill="#595D71"/>
<path d="M570.957 158H574.701V141.008H570.957V158ZM589.891 139.856H586.291V147.584H586.243C585.427 146.456 584.035 146.048 582.547 146.048C579.235 146.048 577.219 149.024 577.219 152.264C577.219 155.792 579.499 158.288 582.955 158.288C584.587 158.288 585.979 157.304 586.531 156.464H586.579V158H589.891V139.856ZM586.579 152.168C586.579 153.92 585.499 155.12 583.699 155.12C581.899 155.12 580.819 153.92 580.819 152.168C580.819 150.416 581.899 149.216 583.699 149.216C585.499 149.216 586.579 150.416 586.579 152.168ZM601.288 154.136C600.688 154.952 599.896 155.552 598.72 155.552C597.328 155.552 596.296 154.664 596.008 153.296H604.36V152.168C604.36 148.448 602.248 146.048 598.888 146.048C595.288 146.048 592.408 148.448 592.408 152.168C592.408 155.888 595.288 158.288 598.888 158.288C600.76 158.288 602.656 157.448 603.808 155.984L601.288 154.136ZM596.008 150.848C596.104 149.72 596.968 148.64 598.552 148.64C599.848 148.64 600.784 149.648 600.76 150.848H596.008ZM613.869 158H617.181V152.072C617.181 148.184 616.053 146.048 611.853 146.048C609.957 146.048 608.037 146.672 606.717 147.92L608.637 149.888C609.405 149.024 610.389 148.496 611.565 148.496C612.813 148.496 613.869 149.312 613.869 150.584C610.869 150.584 605.973 150.656 605.973 154.688C605.973 157.04 607.941 158.288 610.125 158.288C611.589 158.288 613.029 157.784 613.821 156.536H613.869V158ZM613.869 152.888V153.656C613.869 155.096 612.549 155.84 611.133 155.84C610.341 155.84 609.429 155.432 609.429 154.568C609.429 152.984 611.877 152.888 612.981 152.888H613.869ZM627.384 146.336H624.216V142.88H620.616V146.336H618.312V149.216H620.616V154.76C620.616 157.304 622.464 158.288 624.864 158.288C625.704 158.288 626.592 158.216 627.384 157.928V154.928C627.072 155.216 626.304 155.264 625.92 155.264C624.36 155.264 624.216 154.352 624.216 153.104V149.216H627.384V146.336ZM637.733 154.136C637.133 154.952 636.341 155.552 635.165 155.552C633.773 155.552 632.741 154.664 632.453 153.296H640.805V152.168C640.805 148.448 638.693 146.048 635.333 146.048C631.733 146.048 628.853 148.448 628.853 152.168C628.853 155.888 631.733 158.288 635.333 158.288C637.205 158.288 639.101 157.448 640.253 155.984L637.733 154.136ZM632.453 150.848C632.549 149.72 633.413 148.64 634.997 148.64C636.293 148.64 637.229 149.648 637.205 150.848H632.453Z" fill="#595D71"/>
<path d="M912.955 158H916.699V151.376H919.435C923.011 151.376 925.723 150.152 925.723 146.168C925.723 142.136 922.795 141.008 919.267 141.008H912.955V158ZM916.699 144.176H918.619C920.059 144.176 921.835 144.416 921.835 146.168C921.835 147.752 920.515 148.208 919.195 148.208H916.699V144.176ZM927.616 158H931.216V153.128C931.216 150.8 931.552 149.216 934.288 149.216C934.816 149.216 935.32 149.312 935.824 149.456V146.168C935.488 146.072 935.032 146.048 934.624 146.048C933.04 146.048 932.032 146.792 931.264 148.208H931.216V146.336H927.616V158ZM936.535 152.168C936.535 155.888 939.415 158.288 943.015 158.288C946.615 158.288 949.495 155.888 949.495 152.168C949.495 148.448 946.615 146.048 943.015 146.048C939.415 146.048 936.535 148.448 936.535 152.168ZM940.135 152.168C940.135 150.416 941.215 149.216 943.015 149.216C944.815 149.216 945.895 150.416 945.895 152.168C945.895 153.92 944.815 155.12 943.015 155.12C941.215 155.12 940.135 153.92 940.135 152.168ZM959.56 146.336H956.392V142.88H952.792V146.336H950.488V149.216H952.792V154.76C952.792 157.304 954.64 158.288 957.04 158.288C957.88 158.288 958.768 158.216 959.56 157.928V154.928C959.248 155.216 958.48 155.264 958.096 155.264C956.536 155.264 956.392 154.352 956.392 153.104V149.216H959.56V146.336ZM960.957 152.168C960.957 155.888 963.837 158.288 967.437 158.288C971.037 158.288 973.917 155.888 973.917 152.168C973.917 148.448 971.037 146.048 967.437 146.048C963.837 146.048 960.957 148.448 960.957 152.168ZM964.557 152.168C964.557 150.416 965.637 149.216 967.437 149.216C969.237 149.216 970.317 150.416 970.317 152.168C970.317 153.92 969.237 155.12 967.437 155.12C965.637 155.12 964.557 153.92 964.557 152.168ZM983.982 146.336H980.814V142.88H977.214V146.336H974.91V149.216H977.214V154.76C977.214 157.304 979.062 158.288 981.462 158.288C982.302 158.288 983.19 158.216 983.982 157.928V154.928C983.67 155.216 982.902 155.264 982.518 155.264C980.958 155.264 980.814 154.352 980.814 153.104V149.216H983.982V146.336ZM997.811 146.336H994.115L991.547 154.04H991.499L988.499 146.336H984.611L989.723 158.096L989.459 158.768C988.955 160.04 988.691 160.736 987.059 160.736C986.459 160.736 985.931 160.616 985.379 160.376L984.899 163.328C985.763 163.616 986.675 163.76 987.587 163.76C991.019 163.76 991.571 162.368 992.531 159.896L997.811 146.336ZM999.483 163.472H1003.08V156.752H1003.13C1003.95 157.88 1005.34 158.288 1006.83 158.288C1010.14 158.288 1012.16 155.312 1012.16 152.072C1012.16 148.544 1009.88 146.048 1006.42 146.048C1004.79 146.048 1003.4 147.032 1002.84 147.872H1002.8V146.336H999.483V163.472ZM1002.8 152.168C1002.8 150.416 1003.88 149.216 1005.68 149.216C1007.48 149.216 1008.56 150.416 1008.56 152.168C1008.56 153.92 1007.48 155.12 1005.68 155.12C1003.88 155.12 1002.8 153.92 1002.8 152.168ZM1022.78 154.136C1022.18 154.952 1021.39 155.552 1020.22 155.552C1018.82 155.552 1017.79 154.664 1017.5 153.296H1025.86V152.168C1025.86 148.448 1023.74 146.048 1020.38 146.048C1016.78 146.048 1013.9 148.448 1013.9 152.168C1013.9 155.888 1016.78 158.288 1020.38 158.288C1022.26 158.288 1024.15 157.448 1025.3 155.984L1022.78 154.136ZM1017.5 150.848C1017.6 149.72 1018.46 148.64 1020.05 148.64C1021.34 148.64 1022.28 149.648 1022.26 150.848H1017.5Z" fill="#595D71"/>
</svg>
