<svg width="659" height="360" viewBox="0 0 659 360" fill="none" xmlns="http://www.w3.org/2000/svg">
<path d="M542.288 239.448H538.064V234.84H533.264V239.448H530.192V243.288H533.264V250.68C533.264 254.072 535.728 255.384 538.928 255.384C540.048 255.384 541.232 255.288 542.288 254.904V250.904C541.872 251.288 540.848 251.352 540.336 251.352C538.256 251.352 538.064 250.136 538.064 248.472V243.288H542.288V239.448ZM547.991 255H552.791V239.448H547.991V255ZM547.607 234.552C547.607 236.088 548.855 237.336 550.391 237.336C551.927 237.336 553.175 236.088 553.175 234.552C553.175 233.016 551.927 231.768 550.391 231.768C548.855 231.768 547.607 233.016 547.607 234.552ZM575.76 230.808H570.96V241.112H570.896C569.808 239.608 567.952 239.064 565.968 239.064C561.552 239.064 558.864 243.032 558.864 247.352C558.864 252.056 561.904 255.384 566.512 255.384C568.688 255.384 570.544 254.072 571.28 252.952H571.344V255H575.76V230.808ZM571.344 247.224C571.344 249.56 569.904 251.16 567.504 251.16C565.104 251.16 563.664 249.56 563.664 247.224C563.664 244.888 565.104 243.288 567.504 243.288C569.904 243.288 571.344 244.888 571.344 247.224ZM583.404 255H592.684C596.716 255 601.196 253.432 601.196 248.696C601.196 245.752 599.212 243.544 596.236 243.16V243.096C598.572 242.36 600.14 240.632 600.14 238.104C600.14 233.176 595.82 232.344 591.852 232.344H583.404V255ZM588.396 236.568H591.788C593.356 236.568 595.148 237.048 595.148 238.936C595.148 240.76 593.548 241.4 592.012 241.4H588.396V236.568ZM588.396 245.624H592.172C593.804 245.624 596.204 245.976 596.204 248.12C596.204 250.104 594.444 250.776 592.876 250.776H588.396V245.624ZM606.81 255H611.61V239.448H606.81V255ZM606.426 234.552C606.426 236.088 607.674 237.336 609.21 237.336C610.746 237.336 611.994 236.088 611.994 234.552C611.994 233.016 610.746 231.768 609.21 231.768C607.674 231.768 606.426 233.016 606.426 234.552ZM618.867 255H627.027C633.779 255 639.763 251.064 639.763 243.736C639.763 235.448 633.651 232.344 626.355 232.344H618.867V255ZM623.859 236.952H626.803C631.027 236.952 634.579 239.032 634.579 243.48C634.579 248.632 631.091 250.392 626.451 250.392H623.859V236.952ZM657.484 241.112C656.044 239.576 653.772 239.064 651.724 239.064C648.46 239.064 645.196 240.664 645.196 244.312C645.196 250.232 653.292 248.12 653.292 250.616C653.292 251.448 652.204 251.736 651.116 251.736C649.676 251.736 648.62 251.128 647.724 250.04L644.812 253.272C646.348 254.84 648.748 255.384 650.924 255.384C654.252 255.384 658.092 254.232 658.092 250.264C658.092 244.344 649.996 246.296 649.996 243.992C649.996 243.064 650.956 242.712 651.756 242.712C652.908 242.712 653.836 243.16 654.54 244.024L657.484 241.112Z" fill="#595D71"/>
<path d="M50.288 239.448H46.064V234.84H41.264V239.448H38.192V243.288H41.264V250.68C41.264 254.072 43.728 255.384 46.928 255.384C48.048 255.384 49.232 255.288 50.288 254.904V250.904C49.872 251.288 48.848 251.352 48.336 251.352C46.256 251.352 46.064 250.136 46.064 248.472V243.288H50.288V239.448Z" fill="#595D71"/>
<path d="M218.208 160.264H212.64V165.96H207.456V160.264H201.888V155.368H207.456V149.64H212.64V155.368H218.208V160.264Z" fill="#595D71"/>
<path d="M419.096 151.304V156.136H401.176V151.304H419.096ZM419.096 159.464V164.296H401.176V159.464H419.096Z" fill="#595D71"/>
<path d="M302.304 255H311.584C315.616 255 320.096 253.432 320.096 248.696C320.096 245.752 318.112 243.544 315.136 243.16V243.096C317.472 242.36 319.04 240.632 319.04 238.104C319.04 233.176 314.72 232.344 310.752 232.344H302.304V255ZM307.296 236.568H310.688C312.256 236.568 314.048 237.048 314.048 238.936C314.048 240.76 312.448 241.4 310.912 241.4H307.296V236.568ZM307.296 245.624H311.072C312.704 245.624 315.104 245.976 315.104 248.12C315.104 250.104 313.344 250.776 311.776 250.776H307.296V245.624Z" fill="#595D71"/>
<path d="M321 210.12V198.52C321 193.48 319.04 187.88 313.12 187.88C309.44 187.88 306.68 190.36 306.2 194.08H306.12C305.2 191.16 303.04 189.2 299.88 189.2C293.72 189.2 292.68 194.6 292.68 199.56V210.12H321ZM297.96 203.88V199.64C297.96 197.68 298.56 195.44 300.92 195.44C303.2 195.44 304 197.44 304 199.36V203.88H297.96ZM309.28 203.88V199.16C309.28 197.12 309.72 194.12 312.4 194.12C314.88 194.12 315.72 196.32 315.72 198.28V203.88H309.28Z" fill="#595D71"/>
<line x1="560" y1="126" x2="560" y2="192" stroke="#004DEC" stroke-width="6" stroke-linecap="round"/>
<line x1="12" y1="125" x2="12" y2="191" stroke="#004DEC" stroke-width="6" stroke-linecap="round"/>
<line x1="626" y1="193" x2="560" y2="193" stroke="#004DEC" stroke-width="6" stroke-linecap="round"/>
<line x1="78" y1="193" x2="12" y2="193" stroke="#004DEC" stroke-width="6" stroke-linecap="round"/>
<line x1="568" y1="167" x2="550" y2="167" stroke="#004DEC" stroke-width="6" stroke-linecap="round"/>
<line x1="21" y1="167" x2="3" y2="167" stroke="#004DEC" stroke-width="6" stroke-linecap="round"/>
<path d="M569 165.778L579.311 149.757C579.513 149.444 579.973 149.453 580.162 149.773L587.179 161.657C587.376 161.991 587.861 161.983 588.048 161.643L604.326 132C604.536 131.618 605.1 131.668 605.238 132.081L620 176" stroke="url(#paint0_linear_364_65)" stroke-width="6" stroke-linecap="round"/>
<path d="M285 36.7784L295.311 20.7566C295.513 20.4437 295.973 20.4525 296.162 20.773L303.179 32.6568C303.376 32.9905 303.861 32.983 304.048 32.6433L320.326 2.99956C320.536 2.61772 321.1 2.66801 321.238 3.08093L336 47" stroke="url(#paint1_linear_364_65)" stroke-width="4" stroke-linecap="round"/>
<path d="M285 157.778L295.311 141.757C295.513 141.444 295.973 141.453 296.162 141.773L303.179 153.657C303.376 153.991 303.861 153.983 304.048 153.643L320.326 124C320.536 123.618 321.1 123.668 321.238 124.081L336 168" stroke="#595D71" stroke-width="4" stroke-linecap="round"/>
<path d="M333 158H285" stroke="#595D71" stroke-width="4" stroke-linecap="round"/>
<path d="M285 99.7784L295.311 83.7566C295.513 83.4437 295.973 83.4525 296.162 83.773L303.179 95.6568C303.376 95.9905 303.861 95.983 304.048 95.6433L320.326 65.9996C320.536 65.6177 321.1 65.668 321.238 66.0809L336 110" stroke="url(#paint2_linear_364_65)" stroke-width="4" stroke-linecap="round"/>
<path d="M333 100H285" stroke="#595D71" stroke-width="4" stroke-linecap="round"/>
<path d="M33.338 292.448H29.114V287.84H24.314V292.448H21.242V296.288H24.314V303.68C24.314 307.072 26.778 308.384 29.978 308.384C31.098 308.384 32.282 308.288 33.338 307.904V303.904C32.922 304.288 31.898 304.352 31.386 304.352C29.306 304.352 29.114 303.136 29.114 301.472V296.288H33.338V292.448ZM39.0413 308H43.8413V292.448H39.0413V308ZM38.6573 287.552C38.6573 289.088 39.9053 290.336 41.4413 290.336C42.9773 290.336 44.2253 289.088 44.2253 287.552C44.2253 286.016 42.9773 284.768 41.4413 284.768C39.9053 284.768 38.6573 286.016 38.6573 287.552ZM66.8097 283.808H62.0097V294.112H61.9457C60.8577 292.608 59.0017 292.064 57.0177 292.064C52.6017 292.064 49.9137 296.032 49.9137 300.352C49.9137 305.056 52.9537 308.384 57.5617 308.384C59.7377 308.384 61.5937 307.072 62.3297 305.952H62.3937V308H66.8097V283.808ZM62.3937 300.224C62.3937 302.56 60.9537 304.16 58.5537 304.16C56.1537 304.16 54.7137 302.56 54.7137 300.224C54.7137 297.888 56.1537 296.288 58.5537 296.288C60.9537 296.288 62.3937 297.888 62.3937 300.224Z" fill="#595D71"/>
<path d="M138.5 308H142.916V305.952H142.98C143.716 307.072 145.572 308.384 147.748 308.384C152.356 308.384 155.396 305.056 155.396 300.352C155.396 296.032 152.708 292.064 148.292 292.064C146.308 292.064 144.452 292.608 143.364 294.112H143.3V283.808H138.5V308ZM142.916 300.224C142.916 297.888 144.356 296.288 146.756 296.288C149.156 296.288 150.596 297.888 150.596 300.224C150.596 302.56 149.156 304.16 146.756 304.16C144.356 304.16 142.916 302.56 142.916 300.224ZM161.472 308H166.272V292.448H161.472V308ZM161.088 287.552C161.088 289.088 162.336 290.336 163.872 290.336C165.408 290.336 166.656 289.088 166.656 287.552C166.656 286.016 165.408 284.768 163.872 284.768C162.336 284.768 161.088 286.016 161.088 287.552ZM189.241 283.808H184.441V294.112H184.377C183.289 292.608 181.433 292.064 179.449 292.064C175.033 292.064 172.345 296.032 172.345 300.352C172.345 305.056 175.385 308.384 179.993 308.384C182.169 308.384 184.025 307.072 184.761 305.952H184.825V308H189.241V283.808ZM184.825 300.224C184.825 302.56 183.385 304.16 180.985 304.16C178.585 304.16 177.145 302.56 177.145 300.224C177.145 297.888 178.585 296.288 180.985 296.288C183.385 296.288 184.825 297.888 184.825 300.224ZM208.021 294.112C206.581 292.576 204.309 292.064 202.261 292.064C198.997 292.064 195.733 293.664 195.733 297.312C195.733 303.232 203.829 301.12 203.829 303.616C203.829 304.448 202.741 304.736 201.653 304.736C200.213 304.736 199.157 304.128 198.261 303.04L195.349 306.272C196.885 307.84 199.285 308.384 201.461 308.384C204.789 308.384 208.629 307.232 208.629 303.264C208.629 297.344 200.533 299.296 200.533 296.992C200.533 296.064 201.493 295.712 202.293 295.712C203.445 295.712 204.373 296.16 205.077 297.024L208.021 294.112ZM214.386 305.248C214.386 306.88 215.698 308.192 217.33 308.192C218.962 308.192 220.274 306.88 220.274 305.248C220.274 303.616 218.962 302.304 217.33 302.304C215.698 302.304 214.386 303.616 214.386 305.248ZM214.386 295.008C214.386 296.64 215.698 297.952 217.33 297.952C218.962 297.952 220.274 296.64 220.274 295.008C220.274 293.376 218.962 292.064 217.33 292.064C215.698 292.064 214.386 293.376 214.386 295.008ZM250.219 292.448H245.995V287.84H241.195V292.448H238.123V296.288H241.195V303.68C241.195 307.072 243.659 308.384 246.859 308.384C247.979 308.384 249.163 308.288 250.219 307.904V303.904C249.803 304.288 248.779 304.352 248.267 304.352C246.187 304.352 245.995 303.136 245.995 301.472V296.288H250.219V292.448ZM255.858 308H260.658V301.504C260.658 298.4 261.106 296.288 264.754 296.288C265.458 296.288 266.13 296.416 266.802 296.608V292.224C266.354 292.096 265.746 292.064 265.202 292.064C263.09 292.064 261.746 293.056 260.722 294.944H260.658V292.448H255.858V308ZM281.85 308H286.266V300.096C286.266 294.912 284.762 292.064 279.162 292.064C276.634 292.064 274.074 292.896 272.314 294.56L274.874 297.184C275.898 296.032 277.21 295.328 278.778 295.328C280.442 295.328 281.85 296.416 281.85 298.112C277.85 298.112 271.322 298.208 271.322 303.584C271.322 306.72 273.946 308.384 276.858 308.384C278.81 308.384 280.73 307.712 281.786 306.048H281.85V308ZM281.85 301.184V302.208C281.85 304.128 280.09 305.12 278.202 305.12C277.146 305.12 275.93 304.576 275.93 303.424C275.93 301.312 279.194 301.184 280.666 301.184H281.85ZM292.477 308H297.277V300.256C297.277 298.24 297.661 296.288 300.157 296.288C302.621 296.288 302.653 298.592 302.653 300.384V308H307.453V299.424C307.453 295.264 306.557 292.064 301.693 292.064C299.357 292.064 297.789 293.344 297.149 294.56H297.085V292.448H292.477V308ZM315.716 308H320.516V296.288H324.068V292.448H320.516V289.984C320.516 287.936 321.284 287.456 322.82 287.456C323.396 287.456 323.844 287.584 324.388 287.776L324.612 283.712C323.716 283.488 322.756 283.424 321.796 283.424C316.58 283.424 315.716 286.304 315.716 289.696V292.448H312.548V296.288H315.716V308ZM328.52 300.224C328.52 305.184 332.36 308.384 337.16 308.384C341.96 308.384 345.8 305.184 345.8 300.224C345.8 295.264 341.96 292.064 337.16 292.064C332.36 292.064 328.52 295.264 328.52 300.224ZM333.32 300.224C333.32 297.888 334.76 296.288 337.16 296.288C339.56 296.288 341 297.888 341 300.224C341 302.56 339.56 304.16 337.16 304.16C334.76 304.16 333.32 302.56 333.32 300.224ZM351.827 308H356.627V301.504C356.627 298.4 357.075 296.288 360.723 296.288C361.427 296.288 362.099 296.416 362.771 296.608V292.224C362.323 292.096 361.715 292.064 361.171 292.064C359.059 292.064 357.715 293.056 356.691 294.944H356.627V292.448H351.827V308ZM368.059 308H372.859V300.256C372.859 298.24 373.243 296.288 375.739 296.288C377.947 296.288 377.883 298.624 377.883 299.776V308H382.683V299.776C382.683 297.856 383.387 296.288 385.595 296.288C387.163 296.288 387.707 297.504 387.707 298.944V308H392.507V298.816C392.507 295.04 391.227 292.064 387.003 292.064C384.699 292.064 383.195 292.864 382.075 294.848C381.243 292.96 379.451 292.064 377.275 292.064C374.939 292.064 373.371 293.344 372.731 294.56H372.667V292.448H368.059V308ZM408.862 308H413.278V300.096C413.278 294.912 411.774 292.064 406.174 292.064C403.646 292.064 401.086 292.896 399.326 294.56L401.886 297.184C402.91 296.032 404.222 295.328 405.79 295.328C407.454 295.328 408.862 296.416 408.862 298.112C404.862 298.112 398.334 298.208 398.334 303.584C398.334 306.72 400.958 308.384 403.87 308.384C405.822 308.384 407.742 307.712 408.798 306.048H408.862V308ZM408.862 301.184V302.208C408.862 304.128 407.102 305.12 405.214 305.12C404.158 305.12 402.942 304.576 402.942 303.424C402.942 301.312 406.206 301.184 407.678 301.184H408.862ZM430.082 292.448H425.858V287.84H421.058V292.448H417.986V296.288H421.058V303.68C421.058 307.072 423.522 308.384 426.722 308.384C427.842 308.384 429.026 308.288 430.082 307.904V303.904C429.666 304.288 428.642 304.352 428.13 304.352C426.05 304.352 425.858 303.136 425.858 301.472V296.288H430.082V292.448ZM435.785 308H440.585V292.448H435.785V308ZM435.401 287.552C435.401 289.088 436.649 290.336 438.185 290.336C439.721 290.336 440.969 289.088 440.969 287.552C440.969 286.016 439.721 284.768 438.185 284.768C436.649 284.768 435.401 286.016 435.401 287.552ZM446.657 300.224C446.657 305.184 450.497 308.384 455.297 308.384C460.097 308.384 463.937 305.184 463.937 300.224C463.937 295.264 460.097 292.064 455.297 292.064C450.497 292.064 446.657 295.264 446.657 300.224ZM451.457 300.224C451.457 297.888 452.897 296.288 455.297 296.288C457.697 296.288 459.137 297.888 459.137 300.224C459.137 302.56 457.697 304.16 455.297 304.16C452.897 304.16 451.457 302.56 451.457 300.224ZM469.965 308H474.765V300.256C474.765 298.24 475.149 296.288 477.645 296.288C480.109 296.288 480.141 298.592 480.141 300.384V308H484.941V299.424C484.941 295.264 484.045 292.064 479.181 292.064C476.845 292.064 475.277 293.344 474.637 294.56H474.573V292.448H469.965V308ZM152.601 340.224C152.601 345.184 156.441 348.384 161.241 348.384C166.041 348.384 169.881 345.184 169.881 340.224C169.881 335.264 166.041 332.064 161.241 332.064C156.441 332.064 152.601 335.264 152.601 340.224ZM157.401 340.224C157.401 337.888 158.841 336.288 161.241 336.288C163.641 336.288 165.081 337.888 165.081 340.224C165.081 342.56 163.641 344.16 161.241 344.16C158.841 344.16 157.401 342.56 157.401 340.224ZM177.572 348H182.372V336.288H185.924V332.448H182.372V329.984C182.372 327.936 183.14 327.456 184.676 327.456C185.252 327.456 185.7 327.584 186.244 327.776L186.468 323.712C185.572 323.488 184.612 323.424 183.652 323.424C178.436 323.424 177.572 326.304 177.572 329.696V332.448H174.404V336.288H177.572V348ZM203.173 334.368H207.781L210.149 325.344H206.053L203.173 334.368ZM216.898 348H226.178C230.21 348 234.69 346.432 234.69 341.696C234.69 338.752 232.706 336.544 229.73 336.16V336.096C232.066 335.36 233.634 333.632 233.634 331.104C233.634 326.176 229.314 325.344 225.346 325.344H216.898V348ZM221.89 329.568H225.282C226.85 329.568 228.642 330.048 228.642 331.936C228.642 333.76 227.042 334.4 225.506 334.4H221.89V329.568ZM221.89 338.624H225.666C227.298 338.624 229.698 338.976 229.698 341.12C229.698 343.104 227.938 343.776 226.37 343.776H221.89V338.624ZM246.768 325.344H242.16L239.792 334.368H243.888L246.768 325.344ZM265.641 348H270.441V332.448H265.641V348ZM265.257 327.552C265.257 329.088 266.505 330.336 268.041 330.336C269.577 330.336 270.825 329.088 270.825 327.552C270.825 326.016 269.577 324.768 268.041 324.768C266.505 324.768 265.257 326.016 265.257 327.552ZM277.09 348H281.89V340.256C281.89 338.24 282.274 336.288 284.77 336.288C287.234 336.288 287.266 338.592 287.266 340.384V348H292.066V339.424C292.066 335.264 291.17 332.064 286.306 332.064C283.97 332.064 282.402 333.344 281.762 334.56H281.698V332.448H277.09V348ZM309.257 332.448H305.033V327.84H300.233V332.448H297.161V336.288H300.233V343.68C300.233 347.072 302.697 348.384 305.897 348.384C307.017 348.384 308.201 348.288 309.257 347.904V343.904C308.841 344.288 307.817 344.352 307.305 344.352C305.225 344.352 305.033 343.136 305.033 341.472V336.288H309.257V332.448ZM314.32 340.224C314.32 345.184 318.16 348.384 322.96 348.384C327.76 348.384 331.6 345.184 331.6 340.224C331.6 335.264 327.76 332.064 322.96 332.064C318.16 332.064 314.32 335.264 314.32 340.224ZM319.12 340.224C319.12 337.888 320.56 336.288 322.96 336.288C325.36 336.288 326.8 337.888 326.8 340.224C326.8 342.56 325.36 344.16 322.96 344.16C320.56 344.16 319.12 342.56 319.12 340.224ZM360.056 348H364.472V340.096C364.472 334.912 362.968 332.064 357.368 332.064C354.84 332.064 352.28 332.896 350.52 334.56L353.08 337.184C354.104 336.032 355.416 335.328 356.984 335.328C358.648 335.328 360.056 336.416 360.056 338.112C356.056 338.112 349.528 338.208 349.528 343.584C349.528 346.72 352.152 348.384 355.064 348.384C357.016 348.384 358.936 347.712 359.992 346.048H360.056V348ZM360.056 341.184V342.208C360.056 344.128 358.296 345.12 356.408 345.12C355.352 345.12 354.136 344.576 354.136 343.424C354.136 341.312 357.4 341.184 358.872 341.184H360.056ZM397.048 334.144C395.544 332.608 393.336 332.064 391.512 332.064C386.712 332.064 382.872 335.264 382.872 340.224C382.872 345.184 386.712 348.384 391.512 348.384C393.336 348.384 395.544 347.84 397.048 346.304L393.88 342.976C393.336 343.616 392.568 344.16 391.512 344.16C389.112 344.16 387.672 342.56 387.672 340.224C387.672 337.888 389.112 336.288 391.512 336.288C392.504 336.288 393.4 336.8 393.88 337.472L397.048 334.144ZM401.99 323.808V348H406.79V340.256C406.79 338.24 407.174 336.288 409.67 336.288C412.134 336.288 412.166 338.592 412.166 340.384V348H416.966V339.424C416.966 335.264 416.07 332.064 411.206 332.064C408.87 332.064 407.302 333.344 406.854 334.56H406.79V323.808H401.99ZM433.325 348H437.741V340.096C437.741 334.912 436.237 332.064 430.637 332.064C428.109 332.064 425.549 332.896 423.789 334.56L426.349 337.184C427.373 336.032 428.685 335.328 430.253 335.328C431.917 335.328 433.325 336.416 433.325 338.112C429.325 338.112 422.797 338.208 422.797 343.584C422.797 346.72 425.421 348.384 428.333 348.384C430.285 348.384 432.205 347.712 433.261 346.048H433.325V348ZM433.325 341.184V342.208C433.325 344.128 431.565 345.12 429.677 345.12C428.621 345.12 427.405 344.576 427.405 343.424C427.405 341.312 430.669 341.184 432.141 341.184H433.325ZM443.952 348H448.752V341.504C448.752 338.4 449.2 336.288 452.848 336.288C453.552 336.288 454.224 336.416 454.896 336.608V332.224C454.448 332.096 453.84 332.064 453.296 332.064C451.184 332.064 449.84 333.056 448.816 334.944H448.752V332.448H443.952V348ZM470.775 332.448H466.551V327.84H461.751V332.448H458.679V336.288H461.751V343.68C461.751 347.072 464.215 348.384 467.415 348.384C468.535 348.384 469.719 348.288 470.775 347.904V343.904C470.359 344.288 469.335 344.352 468.823 344.352C466.743 344.352 466.551 343.136 466.551 341.472V336.288H470.775V332.448Z" fill="#595D71"/>
<defs>
<linearGradient id="paint0_linear_364_65" x1="569" y1="176" x2="620" y2="176" gradientUnits="userSpaceOnUse">
<stop stop-color="#004DEC"/>
<stop offset="0.850584" stop-color="#595D71"/>
</linearGradient>
<linearGradient id="paint1_linear_364_65" x1="285" y1="47" x2="336" y2="47" gradientUnits="userSpaceOnUse">
<stop stop-color="#004DEC"/>
<stop offset="0.850584" stop-color="#595D71"/>
</linearGradient>
<linearGradient id="paint2_linear_364_65" x1="285" y1="110" x2="336" y2="110" gradientUnits="userSpaceOnUse">
<stop stop-color="#004DEC"/>
<stop offset="0.850584" stop-color="#595D71"/>
</linearGradient>
</defs>
</svg>
