<svg width="1021" height="388" viewBox="0 0 1021 388" fill="none" xmlns="http://www.w3.org/2000/svg">
<line x1="779.54" y1="110.615" x2="779.54" y2="242.08" stroke="#004DEC" stroke-width="12" stroke-linecap="round"/>
<line x1="911.006" y1="244.119" x2="779.541" y2="244.119" stroke="#004DEC" stroke-width="12" stroke-linecap="round"/>
<line x1="795.437" y1="192.312" x2="759.615" y2="192.312" stroke="#004DEC" stroke-width="12" stroke-linecap="round"/>
<path d="M797.451 189.853L818.433 157.252C818.634 156.939 819.095 156.948 819.284 157.268L834.117 182.391C834.314 182.725 834.799 182.717 834.986 182.377L868.386 121.554C868.596 121.172 869.159 121.223 869.298 121.636L899.073 210.22" stroke="url(#paint0_linear_369_66)" stroke-width="12" stroke-linecap="round"/>
<line x1="774.041" y1="17.4395" x2="774.041" y2="387.058" stroke="black" stroke-linecap="round" stroke-dasharray="2 2"/>
<line x1="917.507" y1="17.4395" x2="917.507" y2="387.058" stroke="black" stroke-linecap="round" stroke-dasharray="2 2"/>
<line x1="873.643" y1="72.8996" x2="742.021" y2="275.89" stroke="black" stroke-linecap="round" stroke-dasharray="2 2"/>
<line x1="895.839" y1="71.4211" x2="776.216" y2="281.706" stroke="black" stroke-linecap="round" stroke-dasharray="2 2"/>
<line x1="758.283" y1="50.9998" x2="878.216" y2="261.109" stroke="black" stroke-linecap="round" stroke-dasharray="2 2"/>
<line x1="827.974" y1="1.31375" x2="905.377" y2="230.526" stroke="black" stroke-linecap="round" stroke-dasharray="2 2"/>
<line x1="1020.12" y1="250.578" x2="650.5" y2="250.578" stroke="black" stroke-linecap="round" stroke-dasharray="2 2"/>
<line x1="1020.12" y1="190.794" x2="650.501" y2="190.794" stroke="black" stroke-linecap="round" stroke-dasharray="2 2"/>
<line x1="1020.12" y1="105.112" x2="650.501" y2="105.112" stroke="black" stroke-linecap="round" stroke-dasharray="2 2"/>
<line x1="698" y1="107" x2="698" y2="248" stroke="#595D71" stroke-width="4" stroke-linecap="round"/>
<line x1="915.007" y1="264.027" x2="775.542" y2="264.027" stroke="#595D71" stroke-width="4" stroke-linecap="round"/>
<path d="M611.325 131H615.525L622.317 117.176V114.008H609.885V117.32H618.285L611.325 131ZM626.776 131H638.632V127.832H631.096L636.256 123.392C637.552 122.264 638.488 121.016 638.488 118.832C638.488 115.424 636.088 113.72 632.992 113.72C629.656 113.72 627.208 115.424 626.992 118.928L630.592 119.192C630.688 117.968 631.48 117.032 632.8 117.032C633.904 117.032 634.888 117.728 634.888 118.88C634.888 119.912 634.048 120.632 633.376 121.256L626.776 127.184V131ZM643.811 136.472H647.411V129.752H647.459C648.275 130.88 649.667 131.288 651.155 131.288C654.467 131.288 656.483 128.312 656.483 125.072C656.483 121.544 654.203 119.048 650.747 119.048C649.115 119.048 647.723 120.032 647.171 120.872H647.123V119.336H643.811V136.472ZM647.123 125.168C647.123 123.416 648.203 122.216 650.003 122.216C651.803 122.216 652.883 123.416 652.883 125.168C652.883 126.92 651.803 128.12 650.003 128.12C648.203 128.12 647.123 126.92 647.123 125.168ZM668.936 119.336H665.768V115.88H662.168V119.336H659.864V122.216H662.168V127.76C662.168 130.304 664.016 131.288 666.416 131.288C667.256 131.288 668.144 131.216 668.936 130.928V127.928C668.624 128.216 667.856 128.264 667.472 128.264C665.912 128.264 665.768 127.352 665.768 126.104V122.216H668.936V119.336ZM681.974 120.584C680.894 119.432 679.19 119.048 677.654 119.048C675.206 119.048 672.758 120.248 672.758 122.984C672.758 127.424 678.83 125.84 678.83 127.712C678.83 128.336 678.014 128.552 677.198 128.552C676.118 128.552 675.326 128.096 674.654 127.28L672.47 129.704C673.622 130.88 675.422 131.288 677.054 131.288C679.55 131.288 682.43 130.424 682.43 127.448C682.43 123.008 676.358 124.472 676.358 122.744C676.358 122.048 677.078 121.784 677.678 121.784C678.542 121.784 679.238 122.12 679.766 122.768L681.974 120.584Z" fill="#595D71"/>
<path d="M840.325 288H844.525L851.317 274.176V271.008H838.885V274.32H847.285L840.325 288ZM855.776 288H867.632V284.832H860.096L865.256 280.392C866.552 279.264 867.488 278.016 867.488 275.832C867.488 272.424 865.088 270.72 861.992 270.72C858.656 270.72 856.208 272.424 855.992 275.928L859.592 276.192C859.688 274.968 860.48 274.032 861.8 274.032C862.904 274.032 863.888 274.728 863.888 275.88C863.888 276.912 863.048 277.632 862.376 278.256L855.776 284.184V288ZM872.811 293.472H876.411V286.752H876.459C877.275 287.88 878.667 288.288 880.155 288.288C883.467 288.288 885.483 285.312 885.483 282.072C885.483 278.544 883.203 276.048 879.747 276.048C878.115 276.048 876.723 277.032 876.171 277.872H876.123V276.336H872.811V293.472ZM876.123 282.168C876.123 280.416 877.203 279.216 879.003 279.216C880.803 279.216 881.883 280.416 881.883 282.168C881.883 283.92 880.803 285.12 879.003 285.12C877.203 285.12 876.123 283.92 876.123 282.168ZM897.936 276.336H894.768V272.88H891.168V276.336H888.864V279.216H891.168V284.76C891.168 287.304 893.016 288.288 895.416 288.288C896.256 288.288 897.144 288.216 897.936 287.928V284.928C897.624 285.216 896.856 285.264 896.472 285.264C894.912 285.264 894.768 284.352 894.768 283.104V279.216H897.936V276.336ZM910.974 277.584C909.894 276.432 908.19 276.048 906.654 276.048C904.206 276.048 901.758 277.248 901.758 279.984C901.758 284.424 907.83 282.84 907.83 284.712C907.83 285.336 907.014 285.552 906.198 285.552C905.118 285.552 904.326 285.096 903.654 284.28L901.47 286.704C902.622 287.88 904.422 288.288 906.054 288.288C908.55 288.288 911.43 287.424 911.43 284.448C911.43 280.008 905.358 281.472 905.358 279.744C905.358 279.048 906.078 278.784 906.678 278.784C907.542 278.784 908.238 279.12 908.766 279.768L910.974 277.584Z" fill="#595D71"/>
<line x1="351" y1="220" x2="168.997" y2="220" stroke="#001454" stroke-width="8" stroke-linecap="round"/>
<path d="M128.72 129.12H118.16V117.6H106.16V129.12H98.48V138.72H106.16V157.2C106.16 165.68 112.32 168.96 120.32 168.96C123.12 168.96 126.08 168.72 128.72 167.76V157.76C127.68 158.72 125.12 158.88 123.84 158.88C118.64 158.88 118.16 155.84 118.16 151.68V138.72H128.72V129.12ZM142.978 168H154.978V129.12H142.978V168ZM142.018 116.88C142.018 120.72 145.138 123.84 148.978 123.84C152.818 123.84 155.938 120.72 155.938 116.88C155.938 113.04 152.818 109.92 148.978 109.92C145.138 109.92 142.018 113.04 142.018 116.88ZM212.399 107.52H200.399V133.28H200.239C197.519 129.52 192.879 128.16 187.919 128.16C176.879 128.16 170.159 138.08 170.159 148.88C170.159 160.64 177.759 168.96 189.279 168.96C194.719 168.96 199.359 165.68 201.199 162.88H201.359V168H212.399V107.52ZM201.359 148.56C201.359 154.4 197.759 158.4 191.759 158.4C185.759 158.4 182.159 154.4 182.159 148.56C182.159 142.72 185.759 138.72 191.759 138.72C197.759 138.72 201.359 142.72 201.359 148.56ZM231.51 168H254.71C264.79 168 275.99 164.08 275.99 152.24C275.99 144.88 271.03 139.36 263.59 138.4V138.24C269.43 136.4 273.35 132.08 273.35 125.76C273.35 113.44 262.55 111.36 252.63 111.36H231.51V168ZM243.99 121.92H252.47C256.39 121.92 260.87 123.12 260.87 127.84C260.87 132.4 256.87 134 253.03 134H243.99V121.92ZM243.99 144.56H253.43C257.51 144.56 263.51 145.44 263.51 150.8C263.51 155.76 259.11 157.44 255.19 157.44H243.99V144.56ZM291.225 168H303.705V111.36H291.225V168ZM323.057 168H343.457C360.337 168 375.297 158.16 375.297 139.84C375.297 119.12 360.017 111.36 341.777 111.36H323.057V168ZM335.537 122.88H342.897C353.457 122.88 362.337 128.08 362.337 139.2C362.337 152.08 353.617 156.48 342.017 156.48H335.537V122.88ZM419.6 133.28C416 129.44 410.32 128.16 405.2 128.16C397.04 128.16 388.88 132.16 388.88 141.28C388.88 156.08 409.12 150.8 409.12 157.04C409.12 159.12 406.4 159.84 403.68 159.84C400.08 159.84 397.44 158.32 395.2 155.6L387.92 163.68C391.76 167.6 397.76 168.96 403.2 168.96C411.52 168.96 421.12 166.08 421.12 156.16C421.12 141.36 400.88 146.24 400.88 140.48C400.88 138.16 403.28 137.28 405.28 137.28C408.16 137.28 410.48 138.4 412.24 140.56L419.6 133.28Z" fill="#004DEC"/>
<path d="M1.76 270H6.56V245.808H1.76V270ZM24.5685 264.848C23.7685 265.936 22.7125 266.736 21.1445 266.736C19.2885 266.736 17.9125 265.552 17.5285 263.728H28.6645V262.224C28.6645 257.264 25.8485 254.064 21.3685 254.064C16.5685 254.064 12.7285 257.264 12.7285 262.224C12.7285 267.184 16.5685 270.384 21.3685 270.384C23.8645 270.384 26.3925 269.264 27.9285 267.312L24.5685 264.848ZM17.5285 260.464C17.6565 258.96 18.8085 257.52 20.9205 257.52C22.6485 257.52 23.8965 258.864 23.8645 260.464H17.5285ZM44.5435 270H48.9595V262.096C48.9595 256.912 47.4555 254.064 41.8555 254.064C39.3275 254.064 36.7675 254.896 35.0075 256.56L37.5675 259.184C38.5915 258.032 39.9035 257.328 41.4715 257.328C43.1355 257.328 44.5435 258.416 44.5435 260.112C40.5435 260.112 34.0155 260.208 34.0155 265.584C34.0155 268.72 36.6395 270.384 39.5515 270.384C41.5035 270.384 43.4235 269.712 44.4795 268.048H44.5435V270ZM44.5435 263.184V264.208C44.5435 266.128 42.7835 267.12 40.8955 267.12C39.8395 267.12 38.6235 266.576 38.6235 265.424C38.6235 263.312 41.8875 263.184 43.3595 263.184H44.5435ZM55.171 270H59.971V263.504C59.971 260.4 60.419 258.288 64.067 258.288C64.771 258.288 65.443 258.416 66.115 258.608V254.224C65.667 254.096 65.059 254.064 64.515 254.064C62.403 254.064 61.059 255.056 60.035 256.944H59.971V254.448H55.171V270ZM71.9648 270H76.7648V262.256C76.7648 260.24 77.1488 258.288 79.6448 258.288C82.1088 258.288 82.1408 260.592 82.1408 262.384V270H86.9408V261.424C86.9408 257.264 86.0448 254.064 81.1808 254.064C78.8448 254.064 77.2768 255.344 76.6368 256.56H76.5728V254.448H71.9648V270ZM115.968 270H120.384V262.096C120.384 256.912 118.88 254.064 113.28 254.064C110.752 254.064 108.192 254.896 106.432 256.56L108.992 259.184C110.016 258.032 111.328 257.328 112.896 257.328C114.56 257.328 115.968 258.416 115.968 260.112C111.968 260.112 105.44 260.208 105.44 265.584C105.44 268.72 108.064 270.384 110.976 270.384C112.928 270.384 114.848 269.712 115.904 268.048H115.968V270ZM115.968 263.184V264.208C115.968 266.128 114.208 267.12 112.32 267.12C111.264 267.12 110.048 266.576 110.048 265.424C110.048 263.312 113.312 263.184 114.784 263.184H115.968ZM151.009 256.112C149.569 254.576 147.297 254.064 145.249 254.064C141.985 254.064 138.721 255.664 138.721 259.312C138.721 265.232 146.817 263.12 146.817 265.616C146.817 266.448 145.729 266.736 144.641 266.736C143.201 266.736 142.145 266.128 141.249 265.04L138.337 268.272C139.873 269.84 142.273 270.384 144.449 270.384C147.777 270.384 151.617 269.232 151.617 265.264C151.617 259.344 143.521 261.296 143.521 258.992C143.521 258.064 144.481 257.712 145.281 257.712C146.433 257.712 147.361 258.16 148.065 259.024L151.009 256.112ZM157.277 270H162.077V262.256C162.077 260.24 162.461 258.288 164.957 258.288C167.165 258.288 167.101 260.624 167.101 261.776V270H171.901V261.776C171.901 259.856 172.605 258.288 174.813 258.288C176.381 258.288 176.925 259.504 176.925 260.944V270H181.725V260.816C181.725 257.04 180.445 254.064 176.221 254.064C173.917 254.064 172.413 254.864 171.293 256.848C170.461 254.96 168.669 254.064 166.493 254.064C164.157 254.064 162.589 255.344 161.949 256.56H161.885V254.448H157.277V270ZM198.081 270H202.497V262.096C202.497 256.912 200.993 254.064 195.393 254.064C192.865 254.064 190.305 254.896 188.545 256.56L191.105 259.184C192.129 258.032 193.441 257.328 195.009 257.328C196.673 257.328 198.081 258.416 198.081 260.112C194.081 260.112 187.553 260.208 187.553 265.584C187.553 268.72 190.177 270.384 193.089 270.384C195.041 270.384 196.961 269.712 198.017 268.048H198.081V270ZM198.081 263.184V264.208C198.081 266.128 196.321 267.12 194.433 267.12C193.377 267.12 192.161 266.576 192.161 265.424C192.161 263.312 195.425 263.184 196.897 263.184H198.081ZM208.708 270H213.508V263.504C213.508 260.4 213.956 258.288 217.604 258.288C218.308 258.288 218.98 258.416 219.652 258.608V254.224C219.204 254.096 218.596 254.064 218.052 254.064C215.94 254.064 214.596 255.056 213.572 256.944H213.508V254.448H208.708V270ZM235.532 254.448H231.308V249.84H226.508V254.448H223.436V258.288H226.508V265.68C226.508 269.072 228.972 270.384 232.172 270.384C233.292 270.384 234.476 270.288 235.532 269.904V265.904C235.116 266.288 234.092 266.352 233.58 266.352C231.5 266.352 231.308 265.136 231.308 263.472V258.288H235.532V254.448ZM252.531 264.848C251.731 265.936 250.675 266.736 249.107 266.736C247.251 266.736 245.875 265.552 245.491 263.728H256.627V262.224C256.627 257.264 253.811 254.064 249.331 254.064C244.531 254.064 240.691 257.264 240.691 262.224C240.691 267.184 244.531 270.384 249.331 270.384C251.827 270.384 254.355 269.264 255.891 267.312L252.531 264.848ZM245.491 260.464C245.619 258.96 246.771 257.52 248.883 257.52C250.611 257.52 251.859 258.864 251.827 260.464H245.491ZM262.746 270H267.546V263.504C267.546 260.4 267.994 258.288 271.642 258.288C272.346 258.288 273.018 258.416 273.69 258.608V254.224C273.242 254.096 272.634 254.064 272.09 254.064C269.978 254.064 268.634 255.056 267.61 256.944H267.546V254.448H262.746V270ZM295.486 270H300.318L303.198 259.664H303.262L306.494 270H311.23L316.766 254.448H311.902L308.99 264.208H308.926L306.046 254.448H300.798L298.142 264.208H298.078L294.91 254.448H289.79L295.486 270ZM331.262 270H335.678V262.096C335.678 256.912 334.174 254.064 328.574 254.064C326.046 254.064 323.486 254.896 321.726 256.56L324.286 259.184C325.31 258.032 326.622 257.328 328.19 257.328C329.854 257.328 331.262 258.416 331.262 260.112C327.262 260.112 320.734 260.208 320.734 265.584C320.734 268.72 323.358 270.384 326.27 270.384C328.222 270.384 330.142 269.712 331.198 268.048H331.262V270ZM331.262 263.184V264.208C331.262 266.128 329.502 267.12 327.614 267.12C326.558 267.12 325.342 266.576 325.342 265.424C325.342 263.312 328.606 263.184 330.078 263.184H331.262ZM357.89 254.448H352.962L349.538 264.72H349.474L345.474 254.448H340.29L347.106 270.128L346.754 271.024C346.082 272.72 345.73 273.648 343.554 273.648C342.754 273.648 342.05 273.488 341.314 273.168L340.674 277.104C341.826 277.488 343.042 277.68 344.258 277.68C348.834 277.68 349.57 275.824 350.85 272.528L357.89 254.448ZM386.132 254.448H381.908V249.84H377.108V254.448H374.036V258.288H377.108V265.68C377.108 269.072 379.572 270.384 382.772 270.384C383.892 270.384 385.076 270.288 386.132 269.904V265.904C385.716 266.288 384.692 266.352 384.18 266.352C382.1 266.352 381.908 265.136 381.908 263.472V258.288H386.132V254.448ZM391.195 262.224C391.195 267.184 395.035 270.384 399.835 270.384C404.635 270.384 408.475 267.184 408.475 262.224C408.475 257.264 404.635 254.064 399.835 254.064C395.035 254.064 391.195 257.264 391.195 262.224ZM395.995 262.224C395.995 259.888 397.435 258.288 399.835 258.288C402.235 258.288 403.675 259.888 403.675 262.224C403.675 264.56 402.235 266.16 399.835 266.16C397.435 266.16 395.995 264.56 395.995 262.224ZM437.763 254.448H433.539V249.84H428.739V254.448H425.667V258.288H428.739V265.68C428.739 269.072 431.203 270.384 434.403 270.384C435.523 270.384 436.707 270.288 437.763 269.904V265.904C437.347 266.288 436.323 266.352 435.811 266.352C433.731 266.352 433.539 265.136 433.539 263.472V258.288H437.763V254.448ZM443.402 270H448.202V263.504C448.202 260.4 448.65 258.288 452.298 258.288C453.002 258.288 453.674 258.416 454.346 258.608V254.224C453.898 254.096 453.29 254.064 452.746 254.064C450.634 254.064 449.29 255.056 448.266 256.944H448.202V254.448H443.402V270ZM469.394 270H473.81V262.096C473.81 256.912 472.306 254.064 466.706 254.064C464.178 254.064 461.618 254.896 459.858 256.56L462.418 259.184C463.442 258.032 464.754 257.328 466.322 257.328C467.986 257.328 469.394 258.416 469.394 260.112C465.394 260.112 458.866 260.208 458.866 265.584C458.866 268.72 461.49 270.384 464.402 270.384C466.354 270.384 468.274 269.712 469.33 268.048H469.394V270ZM469.394 263.184V264.208C469.394 266.128 467.634 267.12 465.746 267.12C464.69 267.12 463.474 266.576 463.474 265.424C463.474 263.312 466.738 263.184 468.21 263.184H469.394ZM496.341 245.808H491.541V256.112H491.477C490.389 254.608 488.533 254.064 486.549 254.064C482.133 254.064 479.445 258.032 479.445 262.352C479.445 267.056 482.485 270.384 487.093 270.384C489.269 270.384 491.125 269.072 491.861 267.952H491.925V270H496.341V245.808ZM491.925 262.224C491.925 264.56 490.485 266.16 488.085 266.16C485.685 266.16 484.245 264.56 484.245 262.224C484.245 259.888 485.685 258.288 488.085 258.288C490.485 258.288 491.925 259.888 491.925 262.224ZM514.737 264.848C513.937 265.936 512.881 266.736 511.313 266.736C509.457 266.736 508.081 265.552 507.697 263.728H518.833V262.224C518.833 257.264 516.017 254.064 511.537 254.064C506.737 254.064 502.897 257.264 502.897 262.224C502.897 267.184 506.737 270.384 511.537 270.384C514.033 270.384 516.561 269.264 518.097 267.312L514.737 264.848ZM507.697 260.464C507.825 258.96 508.977 257.52 511.089 257.52C512.817 257.52 514.065 258.864 514.033 260.464H507.697Z" fill="#595D71"/>
<defs>
<linearGradient id="paint0_linear_369_66" x1="797.451" y1="210.22" x2="899.073" y2="210.22" gradientUnits="userSpaceOnUse">
<stop stop-color="#004DEC"/>
<stop offset="0.850584" stop-color="#595D71"/>
</linearGradient>
</defs>
</svg>
