<svg width="1908" height="894" viewBox="0 0 1908 894" fill="none" xmlns="http://www.w3.org/2000/svg">
<g opacity="0.24">
<path d="M577.561 589.98L550.552 667.194C550.526 667.268 550.59 667.341 550.666 667.325L831.508 610.027C831.547 610.019 831.587 610.034 831.609 610.067L923.838 739.745C923.894 739.824 924.019 739.784 924.019 739.687V616.729C924.019 616.713 924.015 616.696 924.008 616.682L839.088 459.085C839.063 459.038 839.004 459.019 838.956 459.043L577.61 589.924C577.587 589.936 577.569 589.956 577.561 589.98Z" fill="#FEFBFF"/>
<path d="M266.157 701.152L339.896 590.061L435.105 422L576.013 587.169C576.036 587.196 576.043 587.233 576.032 587.266L548.114 667.729C548.087 667.807 547.982 667.821 547.936 667.752L426.704 486.566L320.295 720.141L214.25 891.412C214.189 891.51 214.038 891.444 214.068 891.333L266.157 701.152Z" fill="#FEFBFF"/>
<path d="M266.157 701.152L118.703 609.067C118.686 609.056 118.666 609.051 118.646 609.052L2.09593 613.794C2.04233 613.796 2 613.84 2 613.894V682.022C2 682.091 2.06727 682.139 2.13211 682.117L60.8052 662.222M266.157 701.152L339.896 590.061M266.157 701.152L214.068 891.333C214.038 891.444 214.189 891.51 214.25 891.412L320.295 720.141M339.896 590.061L435.105 422M339.896 590.061L320.295 720.141M435.105 422L576.013 587.169C576.036 587.196 576.043 587.233 576.032 587.266L548.114 667.729C548.087 667.807 547.982 667.821 547.936 667.752L426.704 486.566M435.105 422L426.704 486.566M426.704 486.566L320.295 720.141" stroke="#595D71" stroke-width="4"/>
<path d="M924.894 741V619.573L1048.81 638.546L1087.24 366.953L1087.03 366.335C1087.02 366.302 1087.03 366.266 1087.05 366.24L1210 219.241L1536.11 128.171L1673.91 2.08162C1673.96 2.03926 1674.03 2.04951 1674.06 2.10293L1823.08 243.906H1905.9C1905.96 243.906 1906 243.951 1906 244.006V333.911C1906 333.972 1905.95 334.019 1905.88 334.01L1852.89 325.49L1823.08 243.906L1674.06 2.10293C1674.03 2.04951 1673.96 2.03926 1673.91 2.08162L1536.11 128.171L1558.44 203.961C1558.45 204.017 1558.42 204.074 1558.36 204.087L1219.32 283.75L1121.49 469.685L1070.24 709.694L924.894 741Z" fill="#FEFBFF"/>
<path d="M547.545 667.005L828.862 608.202C828.901 608.194 828.941 608.209 828.964 608.241L924.894 741M924.894 741V619.573M924.894 741L1070.24 709.694M924.894 619.573L836.536 459M924.894 619.573L1048.81 638.546M1048.81 638.546L1070.24 709.694M1048.81 638.546L1087.24 366.953M1070.24 709.694L1121.49 469.685M1121.49 469.685L1219.32 283.75M1121.49 469.685L1087.24 366.953M1219.32 283.75L1558.36 204.087C1558.42 204.074 1558.45 204.017 1558.44 203.961L1536.11 128.171M1219.32 283.75L1210 219.241M1536.11 128.171L1673.91 2.08162C1673.96 2.03926 1674.03 2.04951 1674.06 2.10293L1823.08 243.906M1536.11 128.171L1210 219.241M1823.08 243.906H1905.9C1905.96 243.906 1906 243.951 1906 244.006V333.911C1906 333.972 1905.95 334.019 1905.88 334.01L1852.89 325.49M1823.08 243.906L1852.89 325.49M1852.89 325.49L1738.29 125.325M1210 219.241L1087.05 366.24C1087.03 366.266 1087.02 366.302 1087.03 366.335L1087.24 366.953" stroke="#595D71" stroke-width="4"/>
<path d="M836.955 458.762L576.798 586.869C576.365 587.083 576.146 587.575 576.278 588.04L587.875 628.883C588.042 629.471 588.693 629.773 589.25 629.521L715.799 572.192C716.024 572.09 716.28 572.075 716.516 572.15L827.939 607.753C828.56 607.951 829.201 607.513 829.242 606.862L838.395 459.721C838.442 458.954 837.644 458.422 836.955 458.762Z" fill="#F45430" fill-opacity="0.5" stroke="#F45430" stroke-width="2"/>
<path d="M1739.78 124.498L1558.62 202.747C1558.51 202.792 1558.43 202.655 1558.51 202.58L1675.51 100.227C1675.53 100.208 1675.54 100.18 1675.54 100.151V3.4024C1675.54 3.29814 1675.68 3.26347 1675.73 3.3556L1739.83 124.36C1739.86 124.411 1739.83 124.475 1739.78 124.498Z" fill="#004DEC" fill-opacity="0.5" stroke="#004DEC" stroke-width="2"/>
<path d="M1380.86 120.309L1352.18 131.676V251.345C1352.18 251.46 1352.01 251.485 1351.98 251.375L1330.97 184.213C1330.97 184.203 1330.97 184.193 1330.97 184.183V63.8739V40.1538C1330.97 40.0815 1331.04 40.0331 1331.11 40.0624L1358.71 52.3193C1358.79 52.3551 1358.79 52.4699 1358.71 52.5033L1330.97 63.8739V184.183C1330.97 184.193 1330.97 184.203 1330.97 184.213L1351.98 251.375C1352.01 251.485 1352.18 251.46 1352.18 251.345V131.676V108.904C1352.18 108.833 1352.25 108.785 1352.31 108.811L1380.86 120.123C1380.95 120.157 1380.95 120.276 1380.86 120.309Z" fill="#004DEC" fill-opacity="0.5"/>
<path d="M1352.18 131.676L1380.86 120.309C1380.95 120.276 1380.95 120.157 1380.86 120.123L1352.31 108.811C1352.25 108.785 1352.18 108.833 1352.18 108.904V251.345C1352.18 251.46 1352.01 251.485 1351.98 251.375L1330.97 184.213C1330.97 184.203 1330.97 184.193 1330.97 184.183V63.8739M1330.97 63.8739V40.1538C1330.97 40.0815 1331.04 40.0331 1331.11 40.0624L1358.71 52.3193C1358.79 52.3551 1358.79 52.4699 1358.71 52.5033L1330.97 63.8739Z" stroke="#004DEC" stroke-width="2"/>
<ellipse cx="1112.75" cy="283.5" rx="63.8926" ry="65.5" fill="#004DEC"/>
<path d="M118.901 608.073L62.0225 661.302C61.9868 661.336 61.9805 661.39 62.0075 661.431L214.1 890.668C214.157 890.755 214.292 890.707 214.283 890.603L196.563 702.364C196.561 702.344 196.554 702.325 196.541 702.31L119.046 608.082C119.01 608.038 118.943 608.033 118.901 608.073Z" fill="#21CE99" fill-opacity="0.5" stroke="#21CE99" stroke-width="2"/>
</g>
</svg>
