<svg width="413" height="240" viewBox="0 0 413 240" fill="none" xmlns="http://www.w3.org/2000/svg">
<path opacity="0.72" d="M127.444 232.956C189.977 232.956 240.671 182.262 240.671 119.729C240.671 57.1954 189.977 6.50195 127.444 6.50195C64.9102 6.50195 14.2168 57.1954 14.2168 119.729C14.2168 182.262 64.9102 232.956 127.444 232.956Z" stroke="#F8B22C" stroke-width="4"/>
<path d="M82.0123 111.877C83.2283 111.877 84.3963 111.109 84.8763 110.293V111.733H86.2043V99.3652H84.8763V104.709C84.3963 103.893 83.5323 103.221 82.1403 103.221C79.8363 103.221 78.2363 105.029 78.2363 107.589V107.717C78.2363 110.325 79.8203 111.877 82.0123 111.877ZM82.1563 110.773C80.7483 110.773 79.6123 109.765 79.6123 107.653V107.525C79.6123 105.493 80.6043 104.325 82.2683 104.325C83.9003 104.325 84.9243 105.333 84.9243 107.477V107.605C84.9243 109.749 83.7083 110.773 82.1563 110.773ZM92.3156 111.877C94.2036 111.877 95.5956 110.997 95.8836 109.317H94.5556C94.3796 110.293 93.6276 110.773 92.3316 110.773C90.6196 110.773 89.7076 109.717 89.6436 107.813H95.9476V107.381C95.9476 104.389 94.1236 103.221 92.1876 103.221C89.8836 103.221 88.2676 104.981 88.2676 107.509V107.637C88.2676 110.213 89.9476 111.877 92.3156 111.877ZM89.6916 106.741C89.9156 105.253 90.8276 104.325 92.1876 104.325C93.5636 104.325 94.4596 105.013 94.5876 106.741H89.6916ZM100.655 111.877C102.687 111.877 103.727 110.853 103.727 109.333C103.727 107.557 102.511 107.173 100.783 106.853C99.2474 106.581 98.8314 106.277 98.8314 105.525C98.8314 104.805 99.4554 104.325 100.415 104.325C101.471 104.325 101.983 104.725 102.175 105.637H103.455C103.231 103.829 101.935 103.221 100.431 103.221C99.1194 103.221 97.5994 104.021 97.5994 105.573C97.5994 107.029 98.3354 107.637 100.511 108.037C101.807 108.277 102.463 108.565 102.463 109.445C102.463 110.341 101.903 110.773 100.639 110.773C99.2954 110.773 98.7674 110.149 98.6714 109.157H97.3754C97.4554 110.869 98.6554 111.877 100.655 111.877ZM105.783 111.733H107.111V103.365H105.783V111.733ZM106.423 101.621C106.903 101.621 107.303 101.221 107.303 100.741C107.303 100.261 106.903 99.8612 106.423 99.8612C105.943 99.8612 105.543 100.261 105.543 100.741C105.543 101.221 105.943 101.621 106.423 101.621ZM113.173 114.789C115.509 114.789 117.157 113.605 117.173 111.173V103.365H115.845V104.709C115.365 103.893 114.501 103.221 113.109 103.221C110.805 103.221 109.205 105.109 109.205 107.381V107.493C109.205 109.797 110.821 111.461 113.013 111.461C114.229 111.461 115.365 110.693 115.845 109.877V111.093C115.845 112.885 114.805 113.669 113.157 113.669C111.733 113.669 110.933 113.173 110.741 112.213H109.381C109.605 113.621 110.693 114.789 113.173 114.789ZM113.157 110.357C111.749 110.357 110.581 109.269 110.581 107.445V107.317C110.581 105.557 111.573 104.325 113.237 104.325C114.869 104.325 115.893 105.413 115.893 107.285V107.397C115.893 109.269 114.709 110.357 113.157 110.357ZM119.86 111.733H121.188V106.661C121.188 105.157 122.292 104.373 123.524 104.373C124.868 104.373 125.492 105.029 125.492 106.501V111.733H126.82V106.597C126.82 104.165 125.604 103.221 123.876 103.221C122.5 103.221 121.572 103.909 121.188 104.693V103.365H119.86V111.733Z" fill="white"/>
</svg>
