<svg width="200" height="200" viewBox="0 0 200 200" fill="none" xmlns="http://www.w3.org/2000/svg">
<g clip-path="url(#clip0_719_64)">
<line x1="116.5" y1="-2.18557e-08" x2="116.5" y2="200" stroke="#BDBDBD"/>
<line x1="132.5" y1="-2.18557e-08" x2="132.5" y2="200" stroke="#BDBDBD"/>
<line x1="68.5" y1="-2.18557e-08" x2="68.5" y2="200" stroke="#BDBDBD"/>
<line x1="84.5" y1="-2.18557e-08" x2="84.5" y2="200" stroke="#BDBDBD"/>
<line x1="100.5" y1="-2.18557e-08" x2="100.5" y2="200" stroke="#BDBDBD"/>
<line x1="52.5" y1="-2.18557e-08" x2="52.5" y2="200" stroke="#BDBDBD"/>
<line x1="20.5" y1="-2.18557e-08" x2="20.5" y2="200" stroke="#BDBDBD"/>
<line x1="36.5" y1="-2.18557e-08" x2="36.5" y2="200" stroke="#BDBDBD"/>
<line x1="148.5" y1="-2.18557e-08" x2="148.5" y2="200" stroke="#BDBDBD"/>
<line x1="180.5" y1="-2.18557e-08" x2="180.5" y2="200" stroke="#BDBDBD"/>
<line x1="164.5" y1="-2.18557e-08" x2="164.5" y2="200" stroke="#BDBDBD"/>
<line x1="-2.18557e-08" y1="83.5" x2="200" y2="83.5" stroke="#BDBDBD"/>
<line x1="-2.18557e-08" y1="67.5" x2="200" y2="67.5" stroke="#BDBDBD"/>
<line x1="-2.18557e-08" y1="131.5" x2="200" y2="131.5" stroke="#BDBDBD"/>
<line x1="-2.18557e-08" y1="115.5" x2="200" y2="115.5" stroke="#BDBDBD"/>
<line x1="-2.18557e-08" y1="99.5" x2="200" y2="99.5" stroke="#BDBDBD"/>
<line x1="-2.18557e-08" y1="147.5" x2="200" y2="147.5" stroke="#BDBDBD"/>
<line x1="-2.18557e-08" y1="179.5" x2="200" y2="179.5" stroke="#BDBDBD"/>
<line x1="-2.18557e-08" y1="163.5" x2="200" y2="163.5" stroke="#BDBDBD"/>
<line x1="-2.18557e-08" y1="51.5" x2="200" y2="51.5" stroke="#BDBDBD"/>
<line x1="-2.18557e-08" y1="19.5" x2="200" y2="19.5" stroke="#BDBDBD"/>
<line x1="-2.18557e-08" y1="35.5" x2="200" y2="35.5" stroke="#BDBDBD"/>
<path d="M59 52L59 100" stroke="#B71C1C" stroke-width="12"/>
<line x1="143" y1="100" x2="143" y2="148" stroke="#B71C1C" stroke-width="12"/>
<line x1="158" y1="116" x2="158" y2="148" stroke="#B71C1C" stroke-width="12"/>
<line x1="94" y1="52" x2="94" y2="148" stroke="#B71C1C" stroke-width="12"/>
<line x1="114" y1="52" x2="114" y2="148" stroke="#B71C1C" stroke-width="12"/>
<line x1="110" y1="58" x2="150" y2="58" stroke="#B71C1C" stroke-width="12"/>
<line x1="108" y1="142" x2="149" y2="142" stroke="#B71C1C" stroke-width="12"/>
<line x1="55" y1="94" x2="100" y2="94" stroke="#B71C1C" stroke-width="12"/>
<line x1="52" y1="142" x2="100" y2="142" stroke="#B71C1C" stroke-width="12"/>
</g>
<defs>
<clipPath id="clip0_719_64">
<rect width="200" height="200" fill="white"/>
</clipPath>
</defs>
</svg>
