<svg width="55" height="57" viewBox="0 0 55 57" fill="none" xmlns="http://www.w3.org/2000/svg">
<path d="M49.9388 4.97644C48.5815 3.39796 46.9699 2.146 45.1963 1.29211C43.4226 0.438232 41.5217 -0.000837061 39.6021 1.19802e-06C37.6824 0.000839457 35.7818 0.441568 34.0087 1.297C32.2356 2.15243 30.6249 3.4058 29.2685 4.98547L27.498 7.06949L25.7422 4.98998L25.7308 4.97671C24.3741 3.39896 22.7634 2.14743 20.9907 1.29355C19.2181 0.439684 17.3181 0.000202224 15.3994 0.000202224C13.4807 0.000202224 11.5808 0.439684 9.80815 1.29355C8.0355 2.14743 6.42482 3.39896 5.0681 4.97671L4.27935 5.89394C1.53933 9.08032 0 13.402 0 17.9082C0 22.4144 1.53933 26.736 4.27935 29.9224L25.0965 54.1303L27.4473 56.9946L27.5034 56.9292L27.5642 57L29.7668 54.2975L50.7276 29.922C53.4635 26.7331 55 22.4124 55 17.9078C55 13.4031 53.4635 9.08245 50.7276 5.89354L49.9388 4.97644ZM48.1442 26.9185L27.5034 50.9222L6.86201 26.9185C4.80701 24.5287 3.65252 21.2875 3.65252 17.9078C3.65252 14.5282 4.80701 11.287 6.86201 8.89718L7.65087 7.97995C9.70489 5.59136 12.4904 4.2489 15.3952 4.24763C18.3 4.24637 21.0864 5.58639 23.142 7.97318L27.4901 13.1218L31.8589 7.97995C32.8765 6.79664 34.0845 5.85799 35.414 5.21758C36.7435 4.57718 38.1684 4.24757 39.6074 4.24757C41.0465 4.24757 42.4714 4.57718 43.8009 5.21758C45.1304 5.85799 46.3384 6.79664 47.3559 7.97995L48.1447 8.89705C50.1966 11.2888 51.3489 14.5294 51.3488 17.9079C51.3487 21.2864 50.1963 24.5269 48.1442 26.9185V26.9185Z" fill="#EC1E4F"/>
</svg>
