<svg width="413" height="240" viewBox="0 0 413 240" fill="none" xmlns="http://www.w3.org/2000/svg">
<path opacity="0.72" d="M398.575 119.729C398.575 182.267 347.996 232.956 285.614 232.956C223.232 232.956 172.654 182.267 172.654 119.729C172.654 57.1911 223.232 6.50195 285.614 6.50195C347.996 6.50195 398.575 57.1911 398.575 119.729Z" stroke="#1DB3B2" stroke-width="4"/>
<path d="M281.434 111.733H282.762V106.661C282.762 105.157 283.866 104.373 285.098 104.373C286.442 104.373 287.066 105.029 287.066 106.501V111.733H288.394V106.597C288.394 104.165 287.178 103.221 285.45 103.221C284.074 103.221 283.146 103.909 282.762 104.693V99.3652H281.434V111.733ZM293.828 111.877C295.172 111.877 296.1 111.189 296.484 110.405V111.733H297.812V103.365H296.484V108.437C296.484 109.941 295.364 110.725 294.18 110.725C292.868 110.725 292.244 110.069 292.244 108.597V103.365H290.916V108.661C290.916 110.965 292.164 111.877 293.828 111.877ZM300.496 111.733H301.824V106.613C301.824 105.109 302.944 104.373 304.032 104.373C305.184 104.373 305.808 104.981 305.808 106.453V111.733H307.136V106.613C307.136 105.109 308.256 104.373 309.344 104.373C310.496 104.373 311.12 104.981 311.12 106.453V111.733H312.448V106.549C312.448 104.117 311.136 103.221 309.632 103.221C308.592 103.221 307.344 103.701 306.768 104.789C306.336 103.669 305.392 103.221 304.32 103.221C303.12 103.221 302.208 103.861 301.824 104.645V103.365H300.496V111.733ZM317.155 111.877C318.387 111.877 319.139 111.461 319.763 110.677V111.733H321.091V106.213C321.091 103.877 319.635 103.221 318.035 103.221C316.419 103.221 314.899 103.925 314.723 105.829H316.051C316.179 104.805 316.819 104.325 317.971 104.325C319.251 104.325 319.763 104.885 319.763 106.213V106.821H318.563C316.419 106.821 314.371 107.477 314.371 109.413C314.371 111.125 315.603 111.877 317.155 111.877ZM317.283 110.821C316.115 110.821 315.699 110.277 315.699 109.413C315.699 108.181 316.931 107.765 318.611 107.765H319.763V108.805C319.763 110.101 318.691 110.821 317.283 110.821ZM323.699 111.733H325.027V106.661C325.027 105.157 326.131 104.373 327.363 104.373C328.707 104.373 329.331 105.029 329.331 106.501V111.733H330.659V106.597C330.659 104.165 329.443 103.221 327.715 103.221C326.339 103.221 325.411 103.909 325.027 104.693V103.365H323.699V111.733ZM335.854 111.877C337.886 111.877 338.926 110.853 338.926 109.333C338.926 107.557 337.71 107.173 335.982 106.853C334.446 106.581 334.03 106.277 334.03 105.525C334.03 104.805 334.654 104.325 335.614 104.325C336.67 104.325 337.182 104.725 337.374 105.637H338.654C338.43 103.829 337.134 103.221 335.63 103.221C334.318 103.221 332.798 104.021 332.798 105.573C332.798 107.029 333.534 107.637 335.71 108.037C337.006 108.277 337.662 108.565 337.662 109.445C337.662 110.341 337.102 110.773 335.838 110.773C334.494 110.773 333.966 110.149 333.87 109.157H332.574C332.654 110.869 333.854 111.877 335.854 111.877Z" fill="white"/>
</svg>
