<svg width="412" height="240" viewBox="0 0 412 240" fill="none" xmlns="http://www.w3.org/2000/svg">
<path opacity="0.72" d="M206.286 228.708C268.819 228.708 319.513 178.014 319.513 115.481C319.513 52.9474 268.819 2.25391 206.286 2.25391C143.752 2.25391 93.0586 52.9474 93.0586 115.481C93.0586 178.014 143.752 228.708 206.286 228.708Z" stroke="#F47585" stroke-width="4"/>
<path d="M163.947 129.736H165.275V121.368H163.947V129.736ZM164.587 119.624C165.067 119.624 165.467 119.224 165.467 118.744C165.467 118.264 165.067 117.864 164.587 117.864C164.107 117.864 163.707 118.264 163.707 118.744C163.707 119.224 164.107 119.624 164.587 119.624ZM167.993 129.736H169.321V124.664C169.321 123.16 170.425 122.376 171.657 122.376C173.001 122.376 173.625 123.032 173.625 124.504V129.736H174.953V124.6C174.953 122.168 173.737 121.224 172.009 121.224C170.633 121.224 169.705 121.912 169.321 122.696V121.368H167.993V129.736ZM177.844 129.736H179.172V122.488H181.22V121.368H179.172V119.864C179.172 119.016 179.524 118.424 180.388 118.424C180.756 118.424 181.092 118.504 181.332 118.6V117.48C180.996 117.368 180.772 117.32 180.34 117.32C178.676 117.32 177.844 118.312 177.844 120.008V121.368H176.644V122.488H177.844V129.736ZM186.169 128.776C184.473 128.776 183.433 127.528 183.433 125.624V125.496C183.433 123.576 184.489 122.328 186.169 122.328C187.833 122.328 188.905 123.576 188.905 125.512V125.624C188.905 127.512 187.849 128.776 186.169 128.776ZM186.153 129.88C188.537 129.88 190.281 128.136 190.281 125.608V125.48C190.281 122.968 188.537 121.224 186.169 121.224C183.801 121.224 182.057 122.984 182.057 125.496V125.624C182.057 128.072 183.769 129.88 186.153 129.88ZM192.337 129.736H193.665V125.144C193.665 123.08 194.737 122.552 196.417 122.472V121.224C194.913 121.272 194.193 121.928 193.665 122.872V121.368H192.337V129.736ZM198.353 129.736H199.681V124.616C199.681 123.112 200.801 122.376 201.889 122.376C203.041 122.376 203.665 122.984 203.665 124.456V129.736H204.993V124.616C204.993 123.112 206.113 122.376 207.201 122.376C208.353 122.376 208.977 122.984 208.977 124.456V129.736H210.305V124.552C210.305 122.12 208.993 121.224 207.489 121.224C206.449 121.224 205.201 121.704 204.625 122.792C204.193 121.672 203.249 121.224 202.177 121.224C200.977 121.224 200.065 121.864 199.681 122.648V121.368H198.353V129.736ZM215.011 129.88C216.243 129.88 216.995 129.464 217.619 128.68V129.736H218.947V124.216C218.947 121.88 217.491 121.224 215.891 121.224C214.275 121.224 212.755 121.928 212.579 123.832H213.907C214.035 122.808 214.675 122.328 215.827 122.328C217.107 122.328 217.619 122.888 217.619 124.216V124.824H216.419C214.275 124.824 212.227 125.48 212.227 127.416C212.227 129.128 213.459 129.88 215.011 129.88ZM215.139 128.824C213.971 128.824 213.555 128.28 213.555 127.416C213.555 126.184 214.787 125.768 216.467 125.768H217.619V126.808C217.619 128.104 216.547 128.824 215.139 128.824ZM224.1 129.848C224.644 129.848 224.964 129.768 225.236 129.672V128.552C224.948 128.664 224.628 128.728 224.212 128.728C223.54 128.728 223.172 128.328 223.172 127.512V122.488H225.124V121.368H223.172V119.464H221.844V121.368H220.644V122.488H221.844V127.64C221.844 128.952 222.58 129.848 224.1 129.848ZM227.275 129.736H228.603V121.368H227.275V129.736ZM227.915 119.624C228.395 119.624 228.795 119.224 228.795 118.744C228.795 118.264 228.395 117.864 227.915 117.864C227.435 117.864 227.035 118.264 227.035 118.744C227.035 119.224 227.435 119.624 227.915 119.624ZM234.809 128.776C233.113 128.776 232.073 127.528 232.073 125.624V125.496C232.073 123.576 233.129 122.328 234.809 122.328C236.473 122.328 237.545 123.576 237.545 125.512V125.624C237.545 127.512 236.489 128.776 234.809 128.776ZM234.793 129.88C237.177 129.88 238.921 128.136 238.921 125.608V125.48C238.921 122.968 237.177 121.224 234.809 121.224C232.441 121.224 230.697 122.984 230.697 125.496V125.624C230.697 128.072 232.409 129.88 234.793 129.88ZM240.978 129.736H242.306V124.664C242.306 123.16 243.41 122.376 244.642 122.376C245.986 122.376 246.61 123.032 246.61 124.504V129.736H247.938V124.6C247.938 122.168 246.722 121.224 244.994 121.224C243.618 121.224 242.69 121.912 242.306 122.696V121.368H240.978V129.736Z" fill="white"/>
</svg>
