<svg width="16" height="18" viewBox="0 0 16 18" fill="none" xmlns="http://www.w3.org/2000/svg">
<path d="M15.3591 1.35783L15.3578 1.35906C15.2649 1.45227 15.1571 1.5 15 1.5H1C0.842849 1.5 0.734337 1.45223 0.640554 1.35845C0.547796 1.26569 0.5 1.15768 0.5 1C0.5 0.842647 0.547624 0.734075 0.640555 0.640554C0.734075 0.547624 0.842647 0.5 1 0.5H15C15.1577 0.5 15.2657 0.547796 15.3584 0.640553C15.4522 0.734337 15.5 0.842849 15.5 1C15.5 1.15713 15.4523 1.26495 15.3591 1.35783ZM7.64217 17.3591L7.64094 17.3578C7.54773 17.2649 7.5 17.1571 7.5 17V7.8V6.59289L6.64645 7.44645L4.72145 9.37145C4.63483 9.45806 4.53829 9.5 4.4 9.5C4.27461 9.5 4.1661 9.45899 4.05355 9.34645C3.97315 9.26604 3.925 9.16427 3.925 9C3.925 8.83573 3.97315 8.73396 4.05355 8.65355L7.65355 5.05355C7.70842 4.99869 7.75487 4.97244 7.79197 4.9593L7.79198 4.9593L7.79436 4.95844C7.85274 4.93743 7.92004 4.925 8 4.925C8.07996 4.925 8.14726 4.93743 8.20564 4.95845L8.20803 4.9593C8.24513 4.97244 8.29158 4.99869 8.34645 5.05355L11.9714 8.67855C12.0581 8.76517 12.1 8.86171 12.1 9C12.1 9.12539 12.059 9.2339 11.9464 9.34645C11.866 9.42685 11.7643 9.475 11.6 9.475C11.4357 9.475 11.334 9.42685 11.2536 9.34645L9.35355 7.44645L8.5 6.59289V7.8V17C8.5 17.1577 8.4522 17.2657 8.35945 17.3584C8.26566 17.4522 8.15715 17.5 8 17.5C7.84287 17.5 7.73505 17.4523 7.64217 17.3591Z" fill="white" stroke="white"/>
</svg>
