<svg width="1024" height="576" viewBox="0 0 1024 576" fill="none" xmlns="http://www.w3.org/2000/svg">
<g clip-path="url(#clip0_79_292)">
<path d="M155.68 115.21C153.568 115.21 152.032 114.058 151.384 112.234C151.12 111.538 151.024 110.818 151.024 110.002C151.024 109.186 151.12 108.442 151.384 107.77C152.032 105.946 153.568 104.77 155.68 104.77C157.816 104.77 159.328 105.946 160 107.77C160.24 108.442 160.36 109.186 160.36 110.002C160.36 110.818 160.24 111.538 160 112.234C159.328 114.106 157.792 115.21 155.68 115.21ZM146.92 110.002C146.92 111.25 147.112 112.402 147.472 113.434C148.552 116.482 151.096 118.426 154.528 118.762V119.074C154.528 121.498 155.776 122.482 158.152 122.482H161.704V119.386H157.336V118.714C160.528 118.234 162.856 116.29 163.888 113.434C164.272 112.402 164.464 111.25 164.464 110.002C164.464 108.754 164.272 107.602 163.888 106.57C162.712 103.234 159.712 101.17 155.68 101.17C151.672 101.17 148.672 103.234 147.472 106.57C147.112 107.602 146.92 108.754 146.92 110.002ZM165.938 118.402H170.33V114.346H165.938V118.402ZM180.383 118.402H186.695L188.495 106.09L188.519 104.122H188.999L189.047 106.09L190.847 118.402H197.159L200.015 101.602H195.911L193.991 114.106L193.943 116.122H193.463L193.415 114.106L191.591 101.602H185.951L184.127 114.106L184.079 116.122H183.599L183.551 114.106L181.607 101.602H177.503L180.383 118.402ZM202.299 118.402H206.019V112.186C206.019 110.53 206.859 109.546 208.203 109.546C209.403 109.546 209.979 110.266 209.979 111.586V118.402H213.699V110.794C213.699 107.746 212.307 106.138 209.595 106.138C207.627 106.138 206.283 107.338 205.611 109.642H205.131L206.019 106.498V101.602H202.299V118.402ZM216.667 118.402H220.387V106.498H216.667V118.402ZM216.571 105.034H220.507V101.914H216.571V105.034ZM228.74 118.762C232.028 118.762 234.308 117.01 234.452 113.818H230.756C230.588 114.922 229.892 115.522 228.764 115.522C228.02 115.522 227.42 115.21 227.012 114.634C226.652 114.106 226.46 113.386 226.46 112.498C226.46 111.562 226.676 110.866 227.036 110.314C227.468 109.714 228.092 109.378 228.884 109.378C230.036 109.378 230.78 109.978 230.972 111.106H234.644C234.524 107.938 232.196 106.138 228.884 106.138C226.676 106.138 224.9 106.954 223.844 108.466C223.124 109.498 222.716 110.866 222.716 112.498C222.716 114.106 223.1 115.426 223.82 116.458C224.852 117.97 226.58 118.762 228.74 118.762ZM236.893 118.402H240.613V112.186C240.613 110.53 241.453 109.546 242.797 109.546C243.997 109.546 244.573 110.266 244.573 111.586V118.402H248.293V110.794C248.293 107.746 246.901 106.138 244.189 106.138C242.221 106.138 240.877 107.338 240.205 109.642H239.725L240.613 106.498V101.602H236.893V118.402ZM262.567 118.762C264.847 118.762 266.719 117.826 267.823 116.218C268.519 115.186 268.903 113.914 268.903 112.45C268.903 110.986 268.519 109.714 267.823 108.682C266.719 107.074 264.847 106.138 262.567 106.138C260.287 106.138 258.439 107.074 257.335 108.682C256.639 109.714 256.255 110.986 256.255 112.45C256.255 113.914 256.639 115.186 257.335 116.218C258.439 117.826 260.287 118.762 262.567 118.762ZM259.999 112.45C259.999 111.634 260.215 110.938 260.551 110.434C261.007 109.762 261.727 109.378 262.567 109.378C263.431 109.378 264.127 109.762 264.583 110.434C264.943 110.938 265.135 111.634 265.135 112.45C265.135 113.266 264.943 113.962 264.583 114.466C264.127 115.138 263.431 115.522 262.567 115.522C261.727 115.522 261.007 115.138 260.551 114.466C260.215 113.962 259.999 113.266 259.999 112.45ZM271.975 105.658V106.498H269.815V109.498H271.975V118.402H275.695V109.498H279.895V106.498H275.695V105.394C275.695 104.53 276.151 104.002 276.919 104.002C277.591 104.002 278.023 104.41 278.023 105.25V105.322H281.623V105.25C281.623 102.586 279.895 101.218 276.871 101.218C273.799 101.218 271.975 102.898 271.975 105.658ZM292.733 118.762C295.685 118.762 297.581 116.986 297.581 114.13V112.306H293.837V114.034C293.837 115.138 293.525 115.57 292.781 115.57C292.181 115.57 291.773 115.138 291.773 114.202V109.498H297.581V106.498H291.773V103.066L288.053 104.722V106.498H285.893V109.498H288.053V114.274C288.053 117.178 289.637 118.762 292.733 118.762ZM300.034 118.402H303.754V112.186C303.754 110.53 304.594 109.546 305.938 109.546C307.138 109.546 307.714 110.266 307.714 111.586V118.402H311.434V110.794C311.434 107.746 310.042 106.138 307.33 106.138C305.362 106.138 304.018 107.338 303.346 109.642H302.866L303.754 106.498V101.602H300.034V118.402ZM319.681 118.762C322.681 118.762 324.889 117.13 325.297 114.706H321.577C321.289 115.522 320.545 115.93 319.609 115.93C318.673 115.93 318.049 115.618 317.641 115.042C317.353 114.634 317.185 114.082 317.089 113.41H325.273V112.45C325.273 108.466 323.209 106.138 319.513 106.138C317.473 106.138 315.721 106.954 314.665 108.466C313.945 109.498 313.513 110.866 313.513 112.498C313.513 114.106 313.897 115.426 314.617 116.458C315.649 117.97 317.377 118.762 319.681 118.762ZM317.137 111.13C317.209 110.626 317.377 110.194 317.617 109.858C318.049 109.21 318.721 108.898 319.513 108.898C320.905 108.898 321.673 109.666 321.721 111.13H317.137ZM334.108 105.658V106.498H331.948V109.498H334.108V118.402H337.828V109.498H342.028V106.498H337.828V105.394C337.828 104.53 338.284 104.002 339.052 104.002C339.724 104.002 340.156 104.41 340.156 105.25V105.322H343.756V105.25C343.756 102.586 342.028 101.218 339.004 101.218C335.932 101.218 334.108 102.898 334.108 105.658ZM348.934 118.762C351.214 118.762 353.086 117.826 354.19 116.218C354.886 115.186 355.27 113.914 355.27 112.45C355.27 110.986 354.886 109.714 354.19 108.682C353.086 107.074 351.214 106.138 348.934 106.138C346.654 106.138 344.806 107.074 343.702 108.682C343.006 109.714 342.622 110.986 342.622 112.45C342.622 113.914 343.006 115.186 343.702 116.218C344.806 117.826 346.654 118.762 348.934 118.762ZM346.366 112.45C346.366 111.634 346.582 110.938 346.918 110.434C347.374 109.762 348.094 109.378 348.934 109.378C349.798 109.378 350.494 109.762 350.95 110.434C351.31 110.938 351.502 111.634 351.502 112.45C351.502 113.266 351.31 113.962 350.95 114.466C350.494 115.138 349.798 115.522 348.934 115.522C348.094 115.522 347.374 115.138 346.918 114.466C346.582 113.962 346.366 113.266 346.366 112.45ZM357.596 118.402H361.316V101.602H357.596V118.402ZM364.534 118.402H368.254V101.602H364.534V118.402ZM376.895 118.762C379.175 118.762 381.047 117.826 382.151 116.218C382.847 115.186 383.231 113.914 383.231 112.45C383.231 110.986 382.847 109.714 382.151 108.682C381.047 107.074 379.175 106.138 376.895 106.138C374.615 106.138 372.767 107.074 371.663 108.682C370.967 109.714 370.583 110.986 370.583 112.45C370.583 113.914 370.967 115.186 371.663 116.218C372.767 117.826 374.615 118.762 376.895 118.762ZM374.327 112.45C374.327 111.634 374.543 110.938 374.879 110.434C375.335 109.762 376.055 109.378 376.895 109.378C377.759 109.378 378.455 109.762 378.911 110.434C379.271 110.938 379.463 111.634 379.463 112.45C379.463 113.266 379.271 113.962 378.911 114.466C378.455 115.138 377.759 115.522 376.895 115.522C376.055 115.522 375.335 115.138 374.879 114.466C374.543 113.962 374.327 113.266 374.327 112.45ZM386.81 118.402H392.498L393.746 109.93L393.794 108.61H394.274L394.298 109.93L395.57 118.402H401.234L403.658 106.498H399.986L398.45 115.018L398.426 116.314H397.946L397.922 115.018L396.65 106.498H391.418L390.122 115.018L390.098 116.314H389.618L389.594 115.018L388.082 106.498H384.41L386.81 118.402ZM405.924 118.402H409.644V106.498H405.924V118.402ZM405.828 105.034H409.764V101.914H405.828V105.034ZM412.862 118.402H416.582V112.186C416.582 110.53 417.422 109.546 418.766 109.546C419.966 109.546 420.542 110.266 420.542 111.586V118.402H424.262V110.794C424.262 107.746 422.846 106.138 420.134 106.138C418.166 106.138 416.846 107.338 416.174 109.642H415.694L416.582 106.498H412.862V118.402ZM432.365 123.058C436.421 123.058 438.437 120.922 438.437 116.578V106.498H434.765L435.773 109.666H435.293C434.693 107.29 433.229 106.138 431.381 106.138C429.773 106.138 428.429 106.858 427.565 108.082C426.893 109.066 426.509 110.362 426.509 111.898C426.509 113.41 426.893 114.706 427.565 115.69C428.429 116.914 429.773 117.634 431.381 117.634C433.229 117.634 434.693 116.482 435.293 114.106H435.773L434.717 117.322V117.754C434.717 119.362 433.829 120.202 432.365 120.202C430.901 120.202 430.229 119.554 430.109 118.522H426.509C426.629 121.378 428.573 123.058 432.365 123.058ZM430.205 111.898C430.205 111.154 430.349 110.578 430.709 110.074C431.117 109.474 431.765 109.162 432.533 109.162C433.325 109.162 433.949 109.474 434.357 110.074C434.717 110.578 434.861 111.154 434.861 111.898C434.861 112.618 434.717 113.194 434.357 113.698C433.949 114.298 433.325 114.61 432.533 114.61C431.765 114.61 431.117 114.298 430.709 113.698C430.349 113.194 430.205 112.618 430.205 111.898ZM451.8 118.762C453.864 118.762 455.208 117.49 455.904 115.258H456.384L455.472 118.402H459.216V101.602H455.472V106.498L456.384 109.642H455.904C455.208 107.41 453.864 106.138 451.8 106.138C450.144 106.138 448.776 106.882 447.888 108.154C447.144 109.234 446.736 110.698 446.736 112.45C446.736 114.202 447.144 115.666 447.888 116.746C448.776 118.042 450.144 118.762 451.8 118.762ZM450.504 112.45C450.504 111.586 450.72 110.866 451.08 110.338C451.512 109.714 452.184 109.378 453.024 109.378C453.84 109.378 454.512 109.714 454.944 110.338C455.304 110.866 455.52 111.586 455.52 112.45C455.52 113.338 455.304 114.058 454.944 114.562C454.512 115.186 453.84 115.522 453.024 115.522C452.184 115.522 451.512 115.186 451.08 114.562C450.72 114.058 450.504 113.338 450.504 112.45ZM467.833 118.762C470.113 118.762 471.985 117.826 473.089 116.218C473.785 115.186 474.169 113.914 474.169 112.45C474.169 110.986 473.785 109.714 473.089 108.682C471.985 107.074 470.113 106.138 467.833 106.138C465.553 106.138 463.705 107.074 462.601 108.682C461.905 109.714 461.521 110.986 461.521 112.45C461.521 113.914 461.905 115.186 462.601 116.218C463.705 117.826 465.553 118.762 467.833 118.762ZM465.265 112.45C465.265 111.634 465.481 110.938 465.817 110.434C466.273 109.762 466.993 109.378 467.833 109.378C468.697 109.378 469.393 109.762 469.849 110.434C470.209 110.938 470.401 111.634 470.401 112.45C470.401 113.266 470.209 113.962 469.849 114.466C469.393 115.138 468.697 115.522 467.833 115.522C466.993 115.522 466.273 115.138 465.817 114.466C465.481 113.962 465.265 113.266 465.265 112.45ZM485.548 123.058C488.044 123.058 489.628 121.834 490.444 119.026L494.02 106.498H490.012L487.876 115.186H487.444L484.996 106.498H480.988L484.396 117.298H487.348L486.94 118.978C486.724 119.866 486.196 120.226 485.5 120.226C484.828 120.226 484.444 119.89 484.444 119.362V119.194H480.82V119.434C480.82 121.786 482.668 123.058 485.548 123.058ZM501.044 118.762C503.324 118.762 505.196 117.826 506.3 116.218C506.996 115.186 507.38 113.914 507.38 112.45C507.38 110.986 506.996 109.714 506.3 108.682C505.196 107.074 503.324 106.138 501.044 106.138C498.764 106.138 496.916 107.074 495.812 108.682C495.116 109.714 494.732 110.986 494.732 112.45C494.732 113.914 495.116 115.186 495.812 116.218C496.916 117.826 498.764 118.762 501.044 118.762ZM498.476 112.45C498.476 111.634 498.692 110.938 499.028 110.434C499.484 109.762 500.204 109.378 501.044 109.378C501.908 109.378 502.604 109.762 503.06 110.434C503.42 110.938 503.612 111.634 503.612 112.45C503.612 113.266 503.42 113.962 503.06 114.466C502.604 115.138 501.908 115.522 501.044 115.522C500.204 115.522 499.484 115.138 499.028 114.466C498.692 113.962 498.476 113.266 498.476 112.45ZM513.474 118.762C515.394 118.762 516.666 117.586 517.314 115.258H517.818L516.906 118.402H520.626V106.498H516.906V112.714C516.906 114.37 516.114 115.354 514.866 115.354C513.738 115.354 513.186 114.658 513.186 113.314V106.498H509.466V114.106C509.466 117.154 510.81 118.762 513.474 118.762ZM533.489 118.762C535.409 118.762 536.681 117.586 537.329 115.258H537.833L536.921 118.402H540.641V106.498H536.921V112.714C536.921 114.37 536.129 115.354 534.881 115.354C533.753 115.354 533.201 114.658 533.201 113.314V106.498H529.481V114.106C529.481 117.154 530.825 118.762 533.489 118.762ZM548.126 118.762C549.974 118.762 551.342 118.258 552.206 117.394C552.83 116.77 553.166 115.978 553.166 114.946C553.166 112.906 552.086 111.802 549.566 111.226L548.006 110.89C547.07 110.674 546.71 110.362 546.71 109.834C546.71 109.57 546.806 109.354 546.95 109.186C547.214 108.946 547.598 108.826 548.174 108.826C549.23 108.826 549.854 109.33 549.854 110.266V110.386H553.31V110.266C553.31 107.698 551.486 106.162 548.294 106.162C546.446 106.162 545.054 106.642 544.166 107.506C543.542 108.13 543.23 108.946 543.23 109.906C543.23 111.874 544.31 113.05 546.398 113.506L548.414 113.962C549.302 114.13 549.638 114.49 549.638 115.042C549.638 115.33 549.542 115.546 549.374 115.714C549.134 115.954 548.726 116.074 548.174 116.074C547.118 116.074 546.518 115.594 546.518 114.682V114.562H543.062V114.682C543.062 117.274 544.91 118.762 548.126 118.762ZM561.087 118.762C564.087 118.762 566.295 117.13 566.703 114.706H562.983C562.695 115.522 561.951 115.93 561.015 115.93C560.079 115.93 559.455 115.618 559.047 115.042C558.759 114.634 558.591 114.082 558.495 113.41H566.679V112.45C566.679 108.466 564.615 106.138 560.919 106.138C558.879 106.138 557.127 106.954 556.071 108.466C555.351 109.498 554.919 110.866 554.919 112.498C554.919 114.106 555.303 115.426 556.023 116.458C557.055 117.97 558.783 118.762 561.087 118.762ZM558.543 111.13C558.615 110.626 558.783 110.194 559.023 109.858C559.455 109.21 560.127 108.898 560.919 108.898C562.311 108.898 563.079 109.666 563.127 111.13H558.543ZM580.194 118.762C583.146 118.762 585.042 116.986 585.042 114.13V112.306H581.298V114.034C581.298 115.138 580.986 115.57 580.242 115.57C579.642 115.57 579.234 115.138 579.234 114.202V109.498H585.042V106.498H579.234V103.066L575.514 104.722V106.498H573.354V109.498H575.514V114.274C575.514 117.178 577.098 118.762 580.194 118.762ZM587.495 118.402H591.215V112.186C591.215 110.53 592.055 109.546 593.399 109.546C594.599 109.546 595.175 110.266 595.175 111.586V118.402H598.895V110.794C598.895 107.746 597.503 106.138 594.791 106.138C592.823 106.138 591.479 107.338 590.807 109.642H590.327L591.215 106.498V101.602H587.495V118.402ZM607.142 118.762C610.142 118.762 612.35 117.13 612.758 114.706H609.038C608.75 115.522 608.006 115.93 607.07 115.93C606.134 115.93 605.51 115.618 605.102 115.042C604.814 114.634 604.646 114.082 604.55 113.41H612.734V112.45C612.734 108.466 610.67 106.138 606.974 106.138C604.934 106.138 603.182 106.954 602.126 108.466C601.406 109.498 600.974 110.866 600.974 112.498C600.974 114.106 601.358 115.426 602.078 116.458C603.11 117.97 604.838 118.762 607.142 118.762ZM604.598 111.13C604.67 110.626 604.838 110.194 605.078 109.858C605.51 109.21 606.182 108.898 606.974 108.898C608.366 108.898 609.134 109.666 609.182 111.13H604.598ZM620.963 118.402H624.683V111.922C624.683 110.41 625.331 109.546 626.507 109.546C627.395 109.546 627.971 110.194 627.971 111.442V118.402H631.691V111.922C631.691 110.434 632.387 109.546 633.539 109.546C634.499 109.546 634.979 110.194 634.979 111.442V118.402H638.699V110.65C638.699 107.722 637.427 106.138 635.075 106.138C633.275 106.138 631.763 107.146 631.187 109.642H630.707C630.707 107.338 629.435 106.138 627.803 106.138C626.003 106.138 624.851 107.362 624.275 109.642H623.795L624.683 106.498H620.963V118.402ZM647.106 118.762C649.386 118.762 651.258 117.826 652.362 116.218C653.058 115.186 653.442 113.914 653.442 112.45C653.442 110.986 653.058 109.714 652.362 108.682C651.258 107.074 649.386 106.138 647.106 106.138C644.826 106.138 642.978 107.074 641.874 108.682C641.178 109.714 640.794 110.986 640.794 112.45C640.794 113.914 641.178 115.186 641.874 116.218C642.978 117.826 644.826 118.762 647.106 118.762ZM644.538 112.45C644.538 111.634 644.754 110.938 645.09 110.434C645.546 109.762 646.266 109.378 647.106 109.378C647.97 109.378 648.666 109.762 649.122 110.434C649.482 110.938 649.674 111.634 649.674 112.45C649.674 113.266 649.482 113.962 649.122 114.466C648.666 115.138 647.97 115.522 647.106 115.522C646.266 115.522 645.546 115.138 645.09 114.466C644.754 113.962 644.538 113.266 644.538 112.45ZM660.04 118.762C661.888 118.762 663.256 118.258 664.12 117.394C664.744 116.77 665.08 115.978 665.08 114.946C665.08 112.906 664 111.802 661.48 111.226L659.92 110.89C658.984 110.674 658.624 110.362 658.624 109.834C658.624 109.57 658.72 109.354 658.864 109.186C659.128 108.946 659.512 108.826 660.088 108.826C661.144 108.826 661.768 109.33 661.768 110.266V110.386H665.224V110.266C665.224 107.698 663.4 106.162 660.208 106.162C658.36 106.162 656.968 106.642 656.08 107.506C655.456 108.13 655.144 108.946 655.144 109.906C655.144 111.874 656.224 113.05 658.312 113.506L660.328 113.962C661.216 114.13 661.552 114.49 661.552 115.042C661.552 115.33 661.456 115.546 661.288 115.714C661.048 115.954 660.64 116.074 660.088 116.074C659.032 116.074 658.432 115.594 658.432 114.682V114.562H654.976V114.682C654.976 117.274 656.824 118.762 660.04 118.762ZM673.241 118.762C676.193 118.762 678.089 116.986 678.089 114.13V112.306H674.345V114.034C674.345 115.138 674.033 115.57 673.289 115.57C672.689 115.57 672.281 115.138 672.281 114.202V109.498H678.089V106.498H672.281V103.066L668.561 104.722V106.498H666.401V109.498H668.561V114.274C668.561 117.178 670.145 118.762 673.241 118.762ZM691.71 118.762C694.662 118.762 696.558 116.986 696.558 114.13V112.306H692.814V114.034C692.814 115.138 692.502 115.57 691.758 115.57C691.158 115.57 690.75 115.138 690.75 114.202V109.498H696.558V106.498H690.75V103.066L687.03 104.722V106.498H684.87V109.498H687.03V114.274C687.03 117.178 688.614 118.762 691.71 118.762ZM704.434 118.762C706.714 118.762 708.586 117.826 709.69 116.218C710.386 115.186 710.77 113.914 710.77 112.45C710.77 110.986 710.386 109.714 709.69 108.682C708.586 107.074 706.714 106.138 704.434 106.138C702.154 106.138 700.306 107.074 699.202 108.682C698.506 109.714 698.122 110.986 698.122 112.45C698.122 113.914 698.506 115.186 699.202 116.218C700.306 117.826 702.154 118.762 704.434 118.762ZM701.866 112.45C701.866 111.634 702.082 110.938 702.418 110.434C702.874 109.762 703.594 109.378 704.434 109.378C705.298 109.378 705.994 109.762 706.45 110.434C706.81 110.938 707.002 111.634 707.002 112.45C707.002 113.266 706.81 113.962 706.45 114.466C705.994 115.138 705.298 115.522 704.434 115.522C703.594 115.522 702.874 115.138 702.418 114.466C702.082 113.962 701.866 113.266 701.866 112.45ZM720.255 118.402H725.943L727.191 109.93L727.239 108.61H727.719L727.743 109.93L729.015 118.402H734.679L737.103 106.498H733.431L731.895 115.018L731.871 116.314H731.391L731.367 115.018L730.095 106.498H724.863L723.567 115.018L723.543 116.314H723.063L723.039 115.018L721.527 106.498H717.855L720.255 118.402ZM742.326 118.762C744.486 118.762 745.734 117.658 746.382 115.258H746.862L745.998 118.402H749.646V110.746C749.646 107.722 747.726 106.138 744.174 106.138C738.51 106.138 738.462 110.314 738.462 110.722V110.794H742.23V110.722C742.23 110.554 742.254 109.066 744.054 109.066C745.254 109.066 745.902 109.666 745.902 110.746V111.394L742.902 111.658C741.438 111.778 740.334 112.234 739.614 112.954C739.014 113.554 738.702 114.37 738.702 115.378C738.702 116.362 739.038 117.154 739.638 117.754C740.262 118.402 741.222 118.762 742.326 118.762ZM742.542 115.066C742.542 114.73 742.662 114.442 742.854 114.25C743.142 113.962 743.55 113.794 744.126 113.722L745.902 113.506V113.578C745.902 114.37 745.398 116.17 743.718 116.17C743.334 116.17 743.022 116.05 742.83 115.858C742.638 115.666 742.542 115.402 742.542 115.066ZM757.944 118.762C760.896 118.762 762.792 116.986 762.792 114.13V112.306H759.048V114.034C759.048 115.138 758.736 115.57 757.992 115.57C757.392 115.57 756.984 115.138 756.984 114.202V109.498H762.792V106.498H756.984V103.066L753.264 104.722V106.498H751.104V109.498H753.264V114.274C753.264 117.178 754.848 118.762 757.944 118.762ZM770.381 118.762C773.669 118.762 775.949 117.01 776.093 113.818H772.397C772.229 114.922 771.533 115.522 770.405 115.522C769.661 115.522 769.061 115.21 768.653 114.634C768.293 114.106 768.101 113.386 768.101 112.498C768.101 111.562 768.317 110.866 768.677 110.314C769.109 109.714 769.733 109.378 770.525 109.378C771.677 109.378 772.421 109.978 772.613 111.106H776.285C776.165 107.938 773.837 106.138 770.525 106.138C768.317 106.138 766.541 106.954 765.485 108.466C764.765 109.498 764.357 110.866 764.357 112.498C764.357 114.106 764.741 115.426 765.461 116.458C766.493 117.97 768.221 118.762 770.381 118.762ZM778.534 118.402H782.254V112.186C782.254 110.53 783.094 109.546 784.438 109.546C785.638 109.546 786.214 110.266 786.214 111.586V118.402H789.934V110.794C789.934 107.746 788.542 106.138 785.83 106.138C783.862 106.138 782.518 107.338 781.846 109.642H781.366L782.254 106.498V101.602H778.534V118.402ZM798.784 118.402H802.504V111.922C802.504 110.41 803.152 109.546 804.328 109.546C805.216 109.546 805.792 110.194 805.792 111.442V118.402H809.512V111.922C809.512 110.434 810.208 109.546 811.36 109.546C812.32 109.546 812.8 110.194 812.8 111.442V118.402H816.52V110.65C816.52 107.722 815.248 106.138 812.896 106.138C811.096 106.138 809.584 107.146 809.008 109.642H808.528C808.528 107.338 807.256 106.138 805.624 106.138C803.824 106.138 802.672 107.362 802.096 109.642H801.616L802.504 106.498H798.784V118.402ZM824.783 118.762C827.783 118.762 829.991 117.13 830.399 114.706H826.679C826.391 115.522 825.647 115.93 824.711 115.93C823.775 115.93 823.151 115.618 822.743 115.042C822.455 114.634 822.287 114.082 822.191 113.41H830.375V112.45C830.375 108.466 828.311 106.138 824.615 106.138C822.575 106.138 820.823 106.954 819.767 108.466C819.047 109.498 818.615 110.866 818.615 112.498C818.615 114.106 818.999 115.426 819.719 116.458C820.751 117.97 822.479 118.762 824.783 118.762ZM822.239 111.13C822.311 110.626 822.479 110.194 822.719 109.858C823.151 109.21 823.823 108.898 824.615 108.898C826.007 108.898 826.775 109.666 826.823 111.13H822.239ZM837.065 118.762C839.129 118.762 840.473 117.49 841.169 115.258H841.649L840.737 118.402H844.481V101.602H840.737V106.498L841.649 109.642H841.169C840.473 107.41 839.129 106.138 837.065 106.138C835.409 106.138 834.041 106.882 833.153 108.154C832.409 109.234 832.001 110.698 832.001 112.45C832.001 114.202 832.409 115.666 833.153 116.746C834.041 118.042 835.409 118.762 837.065 118.762ZM835.769 112.45C835.769 111.586 835.985 110.866 836.345 110.338C836.777 109.714 837.449 109.378 838.289 109.378C839.105 109.378 839.777 109.714 840.209 110.338C840.569 110.866 840.785 111.586 840.785 112.45C840.785 113.338 840.569 114.058 840.209 114.562C839.777 115.186 839.105 115.522 838.289 115.522C837.449 115.522 836.777 115.186 836.345 114.562C835.985 114.058 835.769 113.338 835.769 112.45ZM847.674 118.402H851.394V106.498H847.674V118.402ZM847.578 105.034H851.514V101.914H847.578V105.034ZM857.732 118.762C859.892 118.762 861.14 117.658 861.788 115.258H862.268L861.404 118.402H865.052V110.746C865.052 107.722 863.132 106.138 859.58 106.138C853.916 106.138 853.868 110.314 853.868 110.722V110.794H857.636V110.722C857.636 110.554 857.66 109.066 859.46 109.066C860.66 109.066 861.308 109.666 861.308 110.746V111.394L858.308 111.658C856.844 111.778 855.74 112.234 855.02 112.954C854.42 113.554 854.108 114.37 854.108 115.378C854.108 116.362 854.444 117.154 855.044 117.754C855.668 118.402 856.628 118.762 857.732 118.762ZM857.948 115.066C857.948 114.73 858.068 114.442 858.26 114.25C858.548 113.962 858.956 113.794 859.532 113.722L861.308 113.506V113.578C861.308 114.37 860.804 116.17 859.124 116.17C858.74 116.17 858.428 116.05 858.236 115.858C858.044 115.666 857.948 115.402 857.948 115.066ZM869.65 111.85C869.65 111.322 869.722 110.85 869.866 110.434C870.01 110.018 870.242 109.626 870.562 109.258C870.898 108.89 871.338 108.514 871.882 108.13C872.362 107.778 872.746 107.466 873.034 107.194C873.338 106.922 873.554 106.65 873.682 106.378C873.826 106.106 873.898 105.802 873.898 105.466C873.898 104.954 873.706 104.57 873.322 104.314C872.954 104.042 872.434 103.906 871.762 103.906C871.09 103.906 870.426 104.01 869.77 104.218C869.114 104.426 868.442 104.706 867.754 105.058L866.482 102.49C867.266 102.058 868.114 101.706 869.026 101.434C869.938 101.162 870.938 101.026 872.026 101.026C873.69 101.026 874.978 101.426 875.89 102.226C876.818 103.026 877.282 104.042 877.282 105.274C877.282 105.93 877.178 106.498 876.97 106.978C876.762 107.458 876.45 107.906 876.034 108.322C875.618 108.722 875.098 109.154 874.474 109.618C874.01 109.954 873.65 110.242 873.394 110.482C873.138 110.722 872.962 110.954 872.866 111.178C872.786 111.402 872.746 111.682 872.746 112.018V112.714H869.65V111.85ZM869.266 116.722C869.266 115.986 869.466 115.474 869.866 115.186C870.266 114.882 870.754 114.73 871.33 114.73C871.89 114.73 872.37 114.882 872.77 115.186C873.17 115.474 873.37 115.986 873.37 116.722C873.37 117.426 873.17 117.938 872.77 118.258C872.37 118.562 871.89 118.714 871.33 118.714C870.754 118.714 870.266 118.562 869.866 118.258C869.466 117.938 869.266 117.426 869.266 116.722Z" fill="#FBF9F0"/>
<path d="M330.192 331.224V328.608L329.064 326.064L327.36 324.456L325.416 323.736H323.424L321.456 324.48L319.776 326.16L318.912 328.416V331.368L318.96 331.56L315.504 331.032V324.888H312.936V333.288L320.64 334.344L322.008 332.472L321.48 330.96V328.92L321.96 327.696L322.968 326.688L323.856 326.352H325.032L326.016 326.76L326.88 327.552L327.6 329.184V330.72L327 332.16L325.92 333.24L327.792 335.088L329.16 333.624L330.192 331.224ZM330.192 318.507V315.891L329.064 313.347L327.36 311.739L325.416 311.019H323.64L321.696 311.763L320.04 313.419L319.296 315.339L314.904 312.099H312.936V321.099H315.504V315.675L319.464 318.531H321.432V316.755L322.2 314.883L323.112 313.995L324.048 313.635H325.056L326.04 314.043L326.88 314.835L327.6 316.467V318.003L327 319.419L325.92 320.499L327.792 322.371L329.16 320.907L330.192 318.507Z" fill="#FFC800"/>
<path d="M434 354.584V351.992H429.752V349.52H427.184V351.992H416.936V354.32L427.856 361.976H429.752V354.584H434ZM427.184 358.544L421.76 354.584H427.184V358.544ZM434 347.365V344.437L418.76 337.669H416.936V348.085H419.504V340.789L434 347.365Z" fill="#FFC800"/>
<path d="M538 287.584V284.656L522.76 277.888H520.936V288.304H523.504V281.008L538 287.584ZM538.192 272.685V270.213L537.064 267.717L534.88 266.061L532.768 265.461H525.736L523.864 265.989L521.992 267.285L520.744 269.781V272.613L522.016 275.133L523.792 276.405L525.496 276.861H527.512L529.096 276.405L530.944 275.181L532.216 272.613V270.261L531.4 268.293L531.184 268.053H532.36L533.752 268.437C534.208 268.773 534.568 269.085 534.976 269.421L535.6 270.813V272.085L534.88 273.621L533.92 274.557L535.792 276.405L537.04 275.133L538.192 272.685ZM529.648 272.061L528.952 273.357L528.04 274.005L527.224 274.245H525.832L524.776 273.933L524.008 273.381L523.336 272.037V270.381L524.008 269.013C524.32 268.797 524.608 268.581 524.92 268.389L526.072 268.053H527.728L528.208 268.293L529.048 269.253L529.648 270.717V272.061Z" fill="#FFC800"/>
<path d="M642 352.584V349.992H637.752V347.52H635.184V349.992H624.936V352.32L635.856 359.976H637.752V352.584H642ZM635.184 356.544L629.76 352.584H635.184V356.544ZM642 346.157V335.501H639.432V342.413L633.12 336.725L630.96 335.669H628.56L626.016 337.277L624.744 339.869V342.509L625.872 345.029L627.264 346.349L629.112 344.501L628.056 343.493L627.336 341.957V340.493L628.008 339.077L629.328 338.285H630.408L631.704 338.933L639.84 346.157H642Z" fill="#FFC800"/>
<path d="M746 383.376V372.72H743.432V379.632L737.12 373.944L734.96 372.888H732.56L730.016 374.496L728.744 377.088V379.728L729.872 382.248L731.264 383.568L733.112 381.72L732.056 380.712L731.336 379.176V377.712L732.008 376.296L733.328 375.504H734.408L735.704 376.152L743.84 383.376H746ZM746.192 366.771V364.299L745.064 361.803L742.88 360.147L740.768 359.547H733.736L731.864 360.075L729.992 361.371L728.744 363.867V366.699L730.016 369.219L731.792 370.491L733.496 370.947H735.512L737.096 370.491L738.944 369.267L740.216 366.699V364.347L739.4 362.379L739.184 362.139H740.36L741.752 362.523C742.208 362.859 742.568 363.171 742.976 363.507L743.6 364.899V366.171L742.88 367.707L741.92 368.643L743.792 370.491L745.04 369.219L746.192 366.771ZM737.648 366.147L736.952 367.443L736.04 368.091L735.224 368.331H733.832L732.776 368.019L732.008 367.467L731.336 366.123V364.467L732.008 363.099C732.32 362.883 732.608 362.667 732.92 362.475L734.072 362.139H735.728L736.208 362.379L737.048 363.339L737.648 364.803V366.147Z" fill="#FFC800"/>
<rect x="315" y="360" width="12" height="120" fill="#FBF9F0"/>
<path d="M294.144 475.098V474.27L293.766 472.596L292.344 472.974L292.668 474.252V474.756L292.416 475.404L291.768 475.854H286.224V473.37H284.748V475.854H281.436V477.348H284.748V479.058H286.224V477.348H292.254L293.676 476.358L294.144 475.098ZM294 470.435V468.941H287.52L286.674 468.365L285.846 467.105V465.953L286.152 464.981L286.854 464.531H294V463.037H286.278L284.802 464.135L284.37 465.647V467.303L285.054 468.509L285.414 468.941H280.428V470.435H294ZM294.144 457.204V455.71L293.73 454.054L292.956 452.884L291.768 453.676L292.362 454.612L292.668 455.836V456.916L292.128 458.014L290.958 458.878L290.166 459.112H289.986V452.164H288.096L286.89 452.578L285.234 453.784L284.37 455.602V457.204L285.234 459.004L286.89 460.228L288.204 460.606H290.346L291.624 460.228L293.28 459.004L294.144 457.204ZM288.51 459.112H288.348L287.556 458.896L286.404 458.05L285.846 456.97V455.854L286.422 454.756L287.592 453.892L288.276 453.658H288.51V459.112ZM294.144 447.35V446.234L293.316 444.578L292.848 444.164L294.144 443.3L293.28 442.094L292.272 442.796H286.818L285.594 443.282L284.694 444.614L284.37 445.91V447.584L284.712 448.736L285.27 449.6L285.738 450.104L286.8 449.078L286.458 448.736L286.098 448.178L285.846 447.404V446.126L286.062 445.244L286.548 444.488L287.088 444.29H288.456L288.15 444.722L287.754 445.928V447.08L288.204 448.862L289.536 450.194L290.76 450.446H291.804L293.262 449.438L293.766 448.574L294.144 447.35ZM292.668 447.134L292.416 447.98L292.164 448.394L291.372 448.952H290.886L290.256 448.808L289.554 448.106L289.23 446.918V446.108L289.482 445.226L289.77 444.668L290.166 444.29H290.832L291.39 444.47L292.164 445.208L292.668 446.558V447.134ZM294.144 437.111V436.283L293.766 434.609L292.344 434.987L292.668 436.265V436.769L292.416 437.417L291.768 437.867H286.224V435.383H284.748V437.867H281.436V439.361H284.748V441.071H286.224V439.361H292.254L293.676 438.371L294.144 437.111ZM294 432.538V431.044H288.006L287.142 430.648L286.314 429.91L285.846 428.92V428.146L286.044 427.426L284.622 427.066L284.37 427.966V429.136L284.946 430.36L285.612 431.044H284.514V432.538H294ZM294.144 422.751V421.257L293.73 419.601L292.956 418.431L291.768 419.223L292.362 420.159L292.668 421.383V422.463L292.128 423.561L290.958 424.425L290.166 424.659H289.986V417.711H288.096L286.89 418.125L285.234 419.331L284.37 421.149V422.751L285.234 424.551L286.89 425.775L288.204 426.153H290.346L291.624 425.775L293.28 424.551L294.144 422.751ZM288.51 424.659H288.348L287.556 424.443L286.404 423.597L285.846 422.517V421.401L286.422 420.303L287.592 419.439L288.276 419.205H288.51V424.659ZM294.144 413.468V411.866L293.784 410.642L293.172 409.778L292.128 409.094H290.598L289.446 409.796L288.762 410.822L288.222 413.576L287.97 414.08L287.484 414.44H286.692L286.26 414.188L286.008 413.882L285.81 413.198V411.992L286.116 410.984L286.71 410.12L285.504 409.31L284.766 410.39L284.37 411.866V413.396L284.676 414.512L285.306 415.322L286.332 415.916H287.934L288.978 415.16L289.59 414.008L290.112 411.416L290.49 410.876L291.012 410.57H291.696L292.146 410.858L292.47 411.308L292.686 412.064V413.27L292.398 414.386L292.02 414.872L291.606 415.214L292.614 416.258L293.082 415.844L293.748 414.998L294.144 413.468Z" fill="#FBF9F0"/>
<rect x="419" y="384" width="12" height="96" fill="#FBF9F0"/>
<path d="M398.144 475.818V474.216L397.784 472.992L397.172 472.128L396.128 471.444H394.598L393.446 472.146L392.762 473.172L392.222 475.926L391.97 476.43L391.484 476.79H390.692L390.26 476.538L390.008 476.232L389.81 475.548V474.342L390.116 473.334L390.71 472.47L389.504 471.66L388.766 472.74L388.37 474.216V475.746L388.676 476.862L389.306 477.672L390.332 478.266H391.934L392.978 477.51L393.59 476.358L394.112 473.766L394.49 473.226L395.012 472.92H395.696L396.146 473.208L396.47 473.658L396.686 474.414V475.62L396.398 476.736L396.02 477.222L395.606 477.564L396.614 478.608L397.082 478.194L397.748 477.348L398.144 475.818ZM398.144 466.457V465.341L397.316 463.685L396.848 463.271L398.144 462.407L397.28 461.201L396.272 461.903H390.818L389.594 462.389L388.694 463.721L388.37 465.017V466.691L388.712 467.843L389.27 468.707L389.738 469.211L390.8 468.185L390.458 467.843L390.098 467.285L389.846 466.511V465.233L390.062 464.351L390.548 463.595L391.088 463.397H392.456L392.15 463.829L391.754 465.035V466.187L392.204 467.969L393.536 469.301L394.76 469.553H395.804L397.262 468.545L397.766 467.681L398.144 466.457ZM396.668 466.241L396.416 467.087L396.164 467.501L395.372 468.059H394.886L394.256 467.915L393.554 467.213L393.23 466.025V465.215L393.482 464.333L393.77 463.775L394.166 463.397H394.832L395.39 463.577L396.164 464.315L396.668 465.665V466.241ZM398.144 456.219V455.391L397.766 453.717L396.344 454.095L396.668 455.373V455.877L396.416 456.525L395.768 456.975H390.224V454.491H388.748V456.975H385.436V458.469H388.748V460.179H390.224V458.469H396.254L397.676 457.479L398.144 456.219ZM398.144 449.135V447.641L397.73 445.985L396.956 444.815L395.768 445.607L396.362 446.543L396.668 447.767V448.847L396.128 449.945L394.958 450.809L394.166 451.043H393.986V444.095H392.096L390.89 444.509L389.234 445.715L388.37 447.533V449.135L389.234 450.935L390.89 452.159L392.204 452.537H394.346L395.624 452.159L397.28 450.935L398.144 449.135ZM392.51 451.043H392.348L391.556 450.827L390.404 449.981L389.846 448.901V447.785L390.422 446.687L391.592 445.823L392.276 445.589H392.51V451.043ZM398 441.571V440.077H384.428V441.571H398ZM398 436.843V435.349H384.428V436.843H398ZM386.642 432.438V430.278H384.428V432.438H386.642ZM398 432.114V430.62H388.514V432.114H398ZM398.144 424.596V423.768L397.766 422.094L396.344 422.472L396.668 423.75V424.254L396.416 424.902L395.768 425.352H390.224V422.868H388.748V425.352H385.436V426.846H388.748V428.556H390.224V426.846H396.254L397.676 425.856L398.144 424.596ZM398.144 417.512V416.018L397.73 414.362L396.956 413.192L395.768 413.984L396.362 414.92L396.668 416.144V417.224L396.128 418.322L394.958 419.186L394.166 419.42H393.986V412.472H392.096L390.89 412.886L389.234 414.092L388.37 415.91V417.512L389.234 419.312L390.89 420.536L392.204 420.914H394.346L395.624 420.536L397.28 419.312L398.144 417.512ZM392.51 419.42H392.348L391.556 419.204L390.404 418.358L389.846 417.278V416.162L390.422 415.064L391.592 414.2L392.276 413.966H392.51V419.42ZM385.148 405.052L398 409.84V411.388L385.148 406.6V405.052ZM398.144 400.479V398.949L397.694 397.545L396.542 396.375L395.516 397.419L396.398 398.355L396.668 399.129V400.191L396.128 401.289L394.958 402.153L394.13 402.387H392.402L391.556 402.171L390.404 401.325L389.846 400.245V399.129L390.098 398.319L390.998 397.419L390.008 396.357L388.82 397.545L388.37 398.949V400.479L389.234 402.279L390.89 403.503L392.204 403.881H394.346L395.624 403.503L397.28 402.279L398.144 400.479ZM398.144 391.82V390.704L397.316 389.048L396.848 388.634L398.144 387.77L397.28 386.564L396.272 387.266H390.818L389.594 387.752L388.694 389.084L388.37 390.38V392.054L388.712 393.206L389.27 394.07L389.738 394.574L390.8 393.548L390.458 393.206L390.098 392.648L389.846 391.874V390.596L390.062 389.714L390.548 388.958L391.088 388.76H392.456L392.15 389.192L391.754 390.398V391.55L392.204 393.332L393.536 394.664L394.76 394.916H395.804L397.262 393.908L397.766 393.044L398.144 391.82ZM396.668 391.604L396.416 392.45L396.164 392.864L395.372 393.422H394.886L394.256 393.278L393.554 392.576L393.23 391.388V390.578L393.482 389.696L393.77 389.138L394.166 388.76H394.832L395.39 388.94L396.164 389.678L396.668 391.028V391.604ZM398.144 381.031V379.429L397.28 377.629L395.624 376.405L394.31 376.027H392.168L390.89 376.405L389.234 377.629L388.37 379.501V381.121L389.054 382.219L389.468 382.615H384.428V384.109H398V382.615H397.424L397.748 382.111L398.144 381.031ZM396.686 380.815L396.452 381.553L396.002 382.237L395.534 382.615H391.448L390.674 382.093L389.846 380.923V379.735L390.386 378.601L391.556 377.737L392.366 377.521H394.112L394.958 377.737L396.11 378.601L396.686 379.663V380.815ZM398 373.421V371.927H384.428V373.421H398ZM398.144 365.92V364.426L397.73 362.77L396.956 361.6L395.768 362.392L396.362 363.328L396.668 364.552V365.632L396.128 366.73L394.958 367.594L394.166 367.828H393.986V360.88H392.096L390.89 361.294L389.234 362.5L388.37 364.318V365.92L389.234 367.72L390.89 368.944L392.204 369.322H394.346L395.624 368.944L397.28 367.72L398.144 365.92ZM392.51 367.828H392.348L391.556 367.612L390.404 366.766L389.846 365.687V364.57L390.422 363.472L391.592 362.608L392.276 362.374H392.51V367.828ZM398 351.273V349.779H386.678V346.305H385.202V354.675H386.678V351.273H398ZM398 340.839V339.435L385.202 334.593V336.177L395.732 340.137L385.202 344.097V345.681L398 340.839Z" fill="#FBF9F0"/>
<rect x="523" y="312" width="12" height="168" fill="#FBF9F0"/>
<path d="M502.144 474.162V472.182L501.298 470.256L500.074 469.05L498.472 468.258L496.924 467.916H494.278L492.694 468.258L491.092 469.05L489.886 470.292L489.058 472.182V474.162L489.886 476.052L491.092 477.294L492.694 478.086L494.278 478.428H496.924L498.472 478.086L500.074 477.294L501.298 476.088L502.144 474.162ZM500.668 473.874L500.056 475.206L499.192 476.052L497.986 476.664L496.816 476.934H494.404L493.18 476.664L491.974 476.052L491.11 475.188L490.534 473.91V472.434L491.11 471.156L491.974 470.292L493.18 469.68L494.386 469.41H496.798L498.004 469.68L499.192 470.292L500.056 471.138L500.668 472.434V473.874ZM502 463.527V462.033H490.678V458.559H489.202V466.929H490.678V463.527H502ZM502 454.263V452.769H490.678V449.295H489.202V457.665H490.678V454.263H502ZM504.916 442.38V440.886H501.424L501.748 440.382L502.144 439.302V437.7L501.28 435.9L499.624 434.676L498.31 434.298H496.168L494.89 434.676L493.234 435.9L492.37 437.772V439.392L493.054 440.508L493.468 440.904H492.514V442.38H504.916ZM500.686 439.086L500.452 439.824L500.002 440.508L499.534 440.886H495.448L494.674 440.364L493.846 439.194V438.006L494.386 436.872L495.556 436.008L496.366 435.792H498.112L498.958 436.008L500.11 436.872L500.686 437.934V439.086ZM502 431.692V430.198H488.428V431.692H502ZM502.144 424.498V423.382L501.316 421.726L500.848 421.312L502.144 420.448L501.28 419.242L500.272 419.944H494.818L493.594 420.43L492.694 421.762L492.37 423.058V424.732L492.712 425.884L493.27 426.748L493.738 427.252L494.8 426.226L494.458 425.884L494.098 425.326L493.846 424.552V423.274L494.062 422.392L494.548 421.636L495.088 421.438H496.456L496.15 421.87L495.754 423.076V424.228L496.204 426.01L497.536 427.342L498.76 427.594H499.804L501.262 426.586L501.766 425.722L502.144 424.498ZM500.668 424.282L500.416 425.128L500.164 425.542L499.372 426.1H498.886L498.256 425.956L497.554 425.254L497.23 424.066V423.256L497.482 422.374L497.77 421.816L498.166 421.438H498.832L499.39 421.618L500.164 422.356L500.668 423.706V424.282ZM502.144 414.26V413.432L501.766 411.758L500.344 412.136L500.668 413.414V413.918L500.416 414.566L499.768 415.016H494.224V412.532H492.748V415.016H489.436V416.51H492.748V418.22H494.224V416.51H500.254L501.676 415.52L502.144 414.26ZM502 409.514V408.02H494.224V405.608H492.748V408.02H490.66L489.994 407.57L489.76 406.886V406.4L490.102 405.068L488.644 404.69L488.284 406.292V407.012L488.752 408.524L490.228 409.514H492.748V411.224H494.224V409.514H502ZM502.144 401.155V399.247L501.28 397.429L499.948 396.529L498.328 396.169H496.204L494.584 396.529L493.252 397.429L492.37 399.247V401.155L493.252 402.973L494.584 403.873L496.204 404.233H498.328L499.948 403.873L501.28 402.973L502.144 401.155ZM500.686 400.903L500.164 401.965L499.354 402.505L498.148 402.739H496.348L495.178 402.505L494.386 401.983L493.846 400.903V399.499L494.386 398.455L495.178 397.897L496.348 397.663H498.148L499.354 397.897L500.164 398.437L500.686 399.499V400.903ZM502 393.656V392.162H496.006L495.142 391.766L494.314 391.028L493.846 390.038V389.264L494.044 388.544L492.622 388.184L492.37 389.084V390.254L492.946 391.478L493.612 392.162H492.514V393.656H502ZM502 386.288V384.794H495.448L494.674 384.254L493.846 382.958V381.806L494.188 380.888L494.926 380.438H502V378.944H495.52L494.674 378.368L493.846 377.108V375.956L494.152 375.038L494.854 374.588H502V373.094H494.278L492.802 374.192L492.37 375.65V377.306L493.054 378.566L493.738 379.358L492.802 380.042L492.37 381.5V383.156L493.054 384.344L493.45 384.794H492.514V386.288H502ZM502.144 367.958V366.356L501.784 365.132L501.172 364.268L500.128 363.584H498.598L497.446 364.286L496.762 365.312L496.222 368.066L495.97 368.57L495.484 368.93H494.692L494.26 368.678L494.008 368.372L493.81 367.688V366.482L494.116 365.474L494.71 364.61L493.504 363.8L492.766 364.88L492.37 366.356V367.886L492.676 369.002L493.306 369.812L494.332 370.406H495.934L496.978 369.65L497.59 368.498L498.112 365.906L498.49 365.366L499.012 365.06H499.696L500.146 365.348L500.47 365.798L500.686 366.554V367.76L500.398 368.876L500.02 369.362L499.606 369.704L500.614 370.748L501.082 370.334L501.748 369.488L502.144 367.958Z" fill="#FBF9F0"/>
<rect x="627" y="388" width="12" height="96" fill="#FBF9F0"/>
<path d="M608.916 477.222V475.62L596.514 470.022V471.678L602.976 474.522L596.514 477.366V479.058L604.74 475.332L608.916 477.222ZM606.144 466.229V464.321L605.28 462.503L603.948 461.603L602.328 461.243H600.204L598.584 461.603L597.252 462.503L596.37 464.321V466.229L597.252 468.047L598.584 468.947L600.204 469.307H602.328L603.948 468.947L605.28 468.047L606.144 466.229ZM604.686 465.977L604.164 467.039L603.354 467.579L602.148 467.813H600.348L599.178 467.579L598.386 467.057L597.846 465.977V464.573L598.386 463.529L599.178 462.971L600.348 462.737H602.148L603.354 462.971L604.164 463.511L604.686 464.573V465.977ZM606.144 456.012V454.554L605.46 453.366L605.046 452.898H606V451.422H596.514V452.916H603.066L603.84 453.474L604.686 454.752V455.778L604.416 456.804L603.66 457.326H596.514V458.82H604.2L605.712 457.65L606.144 456.012ZM606.144 445.391V444.563L605.766 442.889L604.344 443.267L604.668 444.545V445.049L604.416 445.697L603.768 446.147H598.224V443.663H596.748V446.147H593.436V447.641H596.748V449.351H598.224V447.641H604.254L605.676 446.651L606.144 445.391ZM606.144 438.363V436.905L605.46 435.717L605.046 435.249H606V433.773H596.514V435.267H603.066L603.84 435.825L604.686 437.103V438.129L604.416 439.155L603.66 439.677H596.514V441.171H604.2L605.712 440.001L606.144 438.363ZM606.144 427.454V425.852L605.28 424.052L603.624 422.828L602.31 422.45H600.168L598.89 422.828L597.234 424.052L596.37 425.924V427.544L597.054 428.642L597.468 429.038H592.428V430.532H606V429.038H605.424L605.748 428.534L606.144 427.454ZM604.686 427.238L604.452 427.976L604.002 428.66L603.534 429.038H599.448L598.674 428.516L597.846 427.346V426.158L598.386 425.024L599.556 424.16L600.366 423.944H602.112L602.958 424.16L604.11 425.024L604.686 426.086V427.238ZM606.144 417.073V415.579L605.73 413.923L604.956 412.753L603.768 413.545L604.362 414.481L604.668 415.705V416.785L604.128 417.883L602.958 418.747L602.166 418.981H601.986V412.033H600.096L598.89 412.447L597.234 413.653L596.37 415.471V417.073L597.234 418.873L598.89 420.097L600.204 420.475H602.346L603.624 420.097L605.28 418.873L606.144 417.073ZM600.51 418.981H600.348L599.556 418.765L598.404 417.919L597.846 416.839V415.723L598.422 414.625L599.592 413.761L600.276 413.527H600.51V418.981ZM593.148 404.613L606 409.401V410.949L593.148 406.161V404.613ZM606.144 400.022V399.194L605.766 397.52L604.344 397.898L604.668 399.176V399.68L604.416 400.328L603.768 400.778H598.224V398.294H596.748V400.778H593.436V402.272H596.748V403.982H598.224V402.272H604.254L605.676 401.282L606.144 400.022ZM606 394.232V392.828L599.376 390.524L606 388.22V386.816L596.514 384.062V385.628L603.516 387.572L596.874 389.912V391.136L603.516 393.476L596.514 395.42V396.986L606 394.232ZM594.642 382.323V380.163H592.428V382.323H594.642ZM606 381.999V380.505H596.514V381.999H606ZM606.144 374.481V373.653L605.766 371.979L604.344 372.357L604.668 373.635V374.139L604.416 374.787L603.768 375.237H598.224V372.753H596.748V375.237H593.436V376.731H596.748V378.441H598.224V376.731H604.254L605.676 375.741L606.144 374.481ZM606.144 367.397V365.867L605.694 364.463L604.542 363.293L603.516 364.337L604.398 365.273L604.668 366.047V367.109L604.128 368.207L602.958 369.071L602.13 369.305H600.402L599.556 369.089L598.404 368.243L597.846 367.163V366.047L598.098 365.237L598.998 364.337L598.008 363.275L596.82 364.463L596.37 365.867V367.397L597.234 369.197L598.89 370.421L600.204 370.799H602.346L603.624 370.421L605.28 369.197L606.144 367.397ZM606 360.941V359.447H599.52L598.674 358.871L597.846 357.611V356.459L598.152 355.487L598.854 355.037H606V353.543H598.278L596.802 354.641L596.37 356.153V357.809L597.054 359.015L597.414 359.447H592.428V360.941H606Z" fill="#FBF9F0"/>
<rect x="731" y="408" width="12" height="72" fill="#FBF9F0"/>
<path d="M710 477.978V476.484H704.006L703.142 476.088L702.314 475.35L701.846 474.36V473.586L702.044 472.866L700.622 472.506L700.37 473.406V474.576L700.946 475.8L701.612 476.484H700.514V477.978H710ZM710.144 468.19V466.696L709.73 465.04L708.956 463.87L707.768 464.662L708.362 465.598L708.668 466.822V467.902L708.128 469L706.958 469.864L706.166 470.098H705.986V463.15H704.096L702.89 463.564L701.234 464.77L700.37 466.588V468.19L701.234 469.99L702.89 471.214L704.204 471.592H706.346L707.624 471.214L709.28 469.99L710.144 468.19ZM704.51 470.098H704.348L703.556 469.882L702.404 469.036L701.846 467.956V466.84L702.422 465.742L703.592 464.878L704.276 464.644H704.51V470.098ZM710 460.626V459.132H703.448L702.674 458.592L701.846 457.296V456.144L702.152 455.082L702.854 454.632H710V453.138H702.278L700.802 454.236L700.37 455.838V457.494L701.054 458.682L701.45 459.132H700.514V460.626H710ZM710.144 447.289V446.461L709.766 444.787L708.344 445.165L708.668 446.443V446.947L708.416 447.595L707.768 448.045H702.224V445.561H700.748V448.045H697.436V449.539H700.748V451.249H702.224V449.539H708.254L709.676 448.549L710.144 447.289ZM710.144 440.512V439.396L709.316 437.74L708.848 437.326L710.144 436.462L709.28 435.256L708.272 435.958H702.818L701.594 436.444L700.694 437.776L700.37 439.072V440.746L700.712 441.898L701.27 442.762L701.738 443.266L702.8 442.24L702.458 441.898L702.098 441.34L701.846 440.566V439.288L702.062 438.406L702.548 437.65L703.088 437.452H704.456L704.15 437.884L703.754 439.09V440.242L704.204 442.024L705.536 443.356L706.76 443.608H707.804L709.262 442.6L709.766 441.736L710.144 440.512ZM708.668 440.296L708.416 441.142L708.164 441.556L707.372 442.114H706.886L706.256 441.97L705.554 441.268L705.23 440.08V439.27L705.482 438.388L705.77 437.83L706.166 437.452H706.832L707.39 437.632L708.164 438.37L708.668 439.72V440.296ZM710 432.8V431.306H696.428V432.8H710ZM710.144 426.001V424.399L709.784 423.175L709.172 422.311L708.128 421.627H706.598L705.446 422.329L704.762 423.355L704.222 426.109L703.97 426.613L703.484 426.973H702.692L702.26 426.721L702.008 426.415L701.81 425.731V424.525L702.116 423.517L702.71 422.653L701.504 421.843L700.766 422.923L700.37 424.399V425.929L700.676 427.045L701.306 427.855L702.332 428.449H703.934L704.978 427.693L705.59 426.541L706.112 423.949L706.49 423.409L707.012 423.103H707.696L708.146 423.391L708.47 423.841L708.686 424.597V425.803L708.398 426.919L708.02 427.405L707.606 427.747L708.614 428.791L709.082 428.377L709.748 427.531L710.144 426.001Z" fill="#FBF9F0"/>
<path d="M455 476V504H668V476" stroke="#FFC800" stroke-width="2" stroke-linecap="round"/>
<path d="M319.983 70H329.751V68.032H321.975V52.936H319.983V70ZM335.864 70.192H337.856L340.064 69.64L341.624 68.608L340.568 67.024L339.32 67.816L337.688 68.224H336.248L334.784 67.504L333.632 65.944L333.32 64.888V64.648H342.584V62.128L342.032 60.52L340.424 58.312L338 57.16H335.864L333.464 58.312L331.832 60.52L331.328 62.272V65.128L331.832 66.832L333.464 69.04L335.864 70.192ZM333.32 62.68V62.464L333.608 61.408L334.736 59.872L336.176 59.128H337.664L339.128 59.896L340.28 61.456L340.592 62.368V62.68H333.32ZM349.435 70.192H350.539L352.771 69.688L352.267 67.792L350.563 68.224H349.891L349.027 67.888L348.427 67.024V59.632H351.739V57.664H348.427V53.248H346.435V57.664H344.155V59.632H346.435V67.672L347.755 69.568L349.435 70.192ZM357.404 53.128C357.26 53.688 357.076 54.296 356.852 54.952C356.628 55.608 356.38 56.264 356.108 56.92C355.852 57.56 355.596 58.168 355.34 58.744H353.78C353.892 58.296 354.004 57.816 354.116 57.304C354.244 56.792 354.356 56.28 354.452 55.768C354.564 55.24 354.66 54.728 354.74 54.232C354.836 53.736 354.916 53.28 354.98 52.864H357.236L357.404 53.128ZM362.608 70.192H364.743L366.376 69.712L367.528 68.896L368.44 67.504V65.464L367.504 63.928L366.136 63.016L362.464 62.296L361.792 61.96L361.312 61.312V60.256L361.648 59.68L362.056 59.344L362.968 59.08H364.576L365.92 59.488L367.072 60.28L368.152 58.672L366.712 57.688L364.743 57.16H362.704L361.215 57.568L360.136 58.408L359.344 59.776V61.912L360.352 63.304L361.888 64.12L365.344 64.816L366.064 65.32L366.472 66.016V66.928L366.088 67.528L365.488 67.96L364.48 68.248H362.872L361.384 67.864L360.736 67.36L360.28 66.808L358.888 68.152L359.44 68.776L360.568 69.664L362.608 70.192ZM378.879 70H380.871V51.904H378.879V70ZM388.447 70.192H390.991L393.415 69.04L394.615 67.264L395.095 65.104V62.272L394.615 60.112L393.415 58.336L390.991 57.16H388.447L386.023 58.336L384.823 60.112L384.343 62.272V65.104L384.823 67.264L386.023 69.04L388.447 70.192ZM388.783 68.248L387.367 67.552L386.647 66.472L386.335 64.864V62.464L386.647 60.904L387.343 59.848L388.783 59.128H390.655L392.047 59.848L392.791 60.904L393.103 62.464V64.864L392.791 66.472L392.071 67.552L390.655 68.248H388.783ZM401.83 70.192H404.374L406.798 69.04L407.998 67.264L408.478 65.104V62.272L407.998 60.112L406.798 58.336L404.374 57.16H401.83L399.406 58.336L398.206 60.112L397.726 62.272V65.104L398.206 67.264L399.406 69.04L401.83 70.192ZM402.166 68.248L400.75 67.552L400.03 66.472L399.718 64.864V62.464L400.03 60.904L400.726 59.848L402.166 59.128H404.038L405.43 59.848L406.174 60.904L406.486 62.464V64.864L406.174 66.472L405.454 67.552L404.038 68.248H402.166ZM411.949 70H413.941V65.32L415.525 63.784L419.893 70H422.317L416.893 62.416L422.077 57.352H419.293L413.941 62.704V51.904H411.949V70ZM435.323 70.192H436.811L439.019 69.088L439.571 68.464L440.723 70.192L442.331 69.04L441.395 67.696V60.424L440.747 58.792L438.971 57.592L437.243 57.16H435.011L433.475 57.616L432.323 58.36L431.651 58.984L433.019 60.4L433.475 59.944L434.219 59.464L435.251 59.128H436.955L438.131 59.416L439.139 60.064L439.403 60.784V62.608L438.827 62.2L437.219 61.672H435.683L433.307 62.272L431.531 64.048L431.195 65.68V67.072L432.539 69.016L433.691 69.688L435.323 70.192ZM435.611 68.224L434.483 67.888L433.931 67.552L433.187 66.496V65.848L433.379 65.008L434.315 64.072L435.899 63.64H436.979L438.155 63.976L438.899 64.36L439.403 64.888V65.776L439.163 66.52L438.179 67.552L436.379 68.224H435.611ZM448.974 70.192H450.078L452.31 69.688L451.806 67.792L450.102 68.224H449.43L448.566 67.888L447.966 67.024V59.632H451.278V57.664H447.966V53.248H445.974V57.664H443.694V59.632H445.974V67.672L447.294 69.568L448.974 70.192ZM465.323 70.192H466.811L469.019 69.088L469.571 68.464L470.723 70.192L472.331 69.04L471.395 67.696V60.424L470.747 58.792L468.971 57.592L467.243 57.16H465.011L463.475 57.616L462.323 58.36L461.651 58.984L463.019 60.4L463.475 59.944L464.219 59.464L465.251 59.128H466.955L468.131 59.416L469.139 60.064L469.403 60.784V62.608L468.827 62.2L467.219 61.672H465.683L463.307 62.272L461.531 64.048L461.195 65.68V67.072L462.539 69.016L463.691 69.688L465.323 70.192ZM465.611 68.224L464.483 67.888L463.931 67.552L463.187 66.496V65.848L463.379 65.008L464.315 64.072L465.899 63.64H466.979L468.155 63.976L468.899 64.36L469.403 64.888V65.776L469.163 66.52L468.179 67.552L466.379 68.224H465.611ZM475.605 70H477.597V51.904H475.605V70ZM481.91 70H483.902V51.904H481.91V70ZM498.778 70.192H499.882L502.114 69.688L501.61 67.792L499.906 68.224H499.234L498.37 67.888L497.77 67.024V59.632H501.082V57.664H497.77V53.248H495.778V57.664H493.498V59.632H495.778V67.672L497.098 69.568L498.778 70.192ZM504.996 70H506.988V61.36L507.756 60.232L509.436 59.128H510.972L512.268 59.536L512.868 60.472V70H514.86V59.704L513.396 57.736L511.38 57.16H509.172L507.564 58.072L506.988 58.552V51.904H504.996V70ZM522.637 70.192H524.629L526.837 69.64L528.397 68.608L527.341 67.024L526.093 67.816L524.461 68.224H523.021L521.557 67.504L520.405 65.944L520.093 64.888V64.648H529.357V62.128L528.805 60.52L527.197 58.312L524.773 57.16H522.637L520.237 58.312L518.605 60.52L518.101 62.272V65.128L518.605 66.832L520.237 69.04L522.637 70.192ZM520.093 62.68V62.464L520.381 61.408L521.509 59.872L522.949 59.128H524.437L525.901 59.896L527.053 61.456L527.365 62.368V62.68H520.093ZM540.286 70H542.278V59.632H545.494V57.664H542.278V54.88L542.878 53.992L543.79 53.68H544.438L546.214 54.136L546.718 52.192L544.582 51.712H543.622L541.606 52.336L540.286 54.304V57.664H538.006V59.632H540.286V70ZM548.814 54.856H551.694V51.904H548.814V54.856ZM549.246 70H551.238V57.352H549.246V70ZM555.551 70H557.543V61.264L558.263 60.232L559.991 59.128H561.527L562.943 59.536L563.543 60.472V70H565.535V59.704L564.071 57.736L561.935 57.16H559.727L558.143 58.072L557.543 58.6V57.352H555.551V70ZM573.405 70.192H575.565L577.053 69.28L577.581 68.728V70H579.549V51.904H577.557V58.12L576.885 57.688L575.445 57.16H573.309L570.909 58.312L569.277 60.52L568.773 62.272V65.128L569.277 66.832L570.909 69.04L573.405 70.192ZM573.717 68.224L572.205 67.504L571.053 65.944L570.765 64.864V62.536L571.053 61.408L572.205 59.872L573.621 59.104H575.157L576.141 59.416L577.053 60.016L577.557 60.64V66.088L576.861 67.12L575.301 68.224H573.717ZM583.431 54.856H586.311V51.904H583.431V54.856ZM583.863 70H585.855V57.352H583.863V70ZM590.168 70H592.16V61.264L592.88 60.232L594.608 59.128H596.144L597.56 59.536L598.16 60.472V70H600.152V59.704L598.688 57.736L596.552 57.16H594.344L592.76 58.072L592.16 58.6V57.352H590.168V70ZM607.854 74.032H609.966L611.742 73.432L613.566 72.208L614.166 70.456V57.352H612.174V58.12L611.502 57.688L610.062 57.16H607.926L605.526 58.312L603.894 60.52L603.39 62.272V64.552L603.894 66.256L605.574 68.464L608.022 69.424H610.182L611.67 68.512L612.174 68.032V70.24L611.886 70.96L610.854 71.656L609.75 72.064H608.046L606.894 71.752L606.294 71.344L605.694 70.744L604.302 72.16L604.974 72.808L606.15 73.576L607.854 74.032ZM608.334 67.456L606.774 66.832L605.67 65.32L605.382 64.288V62.536L605.67 61.408L606.822 59.872L608.238 59.104H609.774L610.758 59.416L611.67 60.016L612.174 60.64V65.224L611.478 66.352L609.918 67.456H608.334ZM621.24 70.192H623.376L625.008 69.712L626.16 68.896L627.072 67.504V65.464L626.136 63.928L624.768 63.016L621.096 62.296L620.424 61.96L619.944 61.312V60.256L620.28 59.68L620.688 59.344L621.6 59.08H623.208L624.552 59.488L625.704 60.28L626.784 58.672L625.344 57.688L623.376 57.16H621.336L619.848 57.568L618.768 58.408L617.976 59.776V61.912L618.984 63.304L620.52 64.12L623.976 64.816L624.696 65.32L625.104 66.016V66.928L624.72 67.528L624.12 67.96L623.112 68.248H621.504L620.016 67.864L619.368 67.36L618.912 66.808L617.52 68.152L618.072 68.776L619.2 69.664L621.24 70.192ZM641.616 70.192H643.752L646.152 69.04L647.784 66.832L648.288 65.08V62.224L647.784 60.52L646.152 58.312L643.656 57.16H641.496L640.032 58.072L639.504 58.624V51.904H637.512V70H639.504V69.232L640.176 69.664L641.616 70.192ZM641.904 68.248L640.92 67.936L640.008 67.336L639.504 66.712V61.264L640.2 60.232L641.76 59.128H643.344L644.856 59.848L646.008 61.408L646.296 62.488V64.816L646.008 65.944L644.856 67.48L643.44 68.248H641.904ZM655.458 70.192H657.45L659.658 69.64L661.218 68.608L660.162 67.024L658.914 67.816L657.282 68.224H655.842L654.378 67.504L653.226 65.944L652.914 64.888V64.648H662.178V62.128L661.626 60.52L660.018 58.312L657.594 57.16H655.458L653.058 58.312L651.426 60.52L650.922 62.272V65.128L651.426 66.832L653.058 69.04L655.458 70.192ZM652.914 62.68V62.464L653.202 61.408L654.33 59.872L655.77 59.128H657.258L658.722 59.896L659.874 61.456L660.186 62.368V62.68H652.914ZM665.543 70H667.535V51.904H665.543V70ZM675.112 70.192H677.656L680.08 69.04L681.28 67.264L681.76 65.104V62.272L681.28 60.112L680.08 58.336L677.656 57.16H675.112L672.688 58.336L671.488 60.112L671.008 62.272V65.104L671.488 67.264L672.688 69.04L675.112 70.192ZM675.448 68.248L674.032 67.552L673.312 66.472L673 64.864V62.464L673.312 60.904L674.008 59.848L675.448 59.128H677.32L678.712 59.848L679.456 60.904L679.768 62.464V64.864L679.456 66.472L678.736 67.552L677.32 68.248H675.448ZM686.874 70H688.746L691.818 61.168L694.89 70H696.762L700.434 57.352H698.346L695.754 66.688L692.634 57.832H691.002L687.882 66.688L685.29 57.352H683.202L686.874 70ZM701.514 70H704.37V67.048H701.514V70Z" fill="#FBF9F0"/>
<path d="M444.577 528H448.297V521.784C448.297 520.128 449.137 519.144 450.481 519.144C451.681 519.144 452.257 519.864 452.257 521.184V528H455.977V520.392C455.977 517.344 454.585 515.736 451.873 515.736C449.905 515.736 448.561 516.936 447.889 519.24H447.409L448.297 516.096V511.2H444.577V528ZM458.944 528H462.664V516.096H458.944V528ZM458.848 514.632H462.784V511.512H458.848V514.632ZM471.017 532.656C475.073 532.656 477.089 530.52 477.089 526.176V516.096H473.417L474.425 519.264H473.945C473.345 516.888 471.881 515.736 470.033 515.736C468.425 515.736 467.081 516.456 466.217 517.68C465.545 518.664 465.161 519.96 465.161 521.496C465.161 523.008 465.545 524.304 466.217 525.288C467.081 526.512 468.425 527.232 470.033 527.232C471.881 527.232 473.345 526.08 473.945 523.704H474.425L473.369 526.92V527.352C473.369 528.96 472.481 529.8 471.017 529.8C469.553 529.8 468.881 529.152 468.761 528.12H465.161C465.281 530.976 467.225 532.656 471.017 532.656ZM468.857 521.496C468.857 520.752 469.001 520.176 469.361 519.672C469.769 519.072 470.417 518.76 471.185 518.76C471.977 518.76 472.601 519.072 473.009 519.672C473.369 520.176 473.513 520.752 473.513 521.496C473.513 522.216 473.369 522.792 473.009 523.296C472.601 523.896 471.977 524.208 471.185 524.208C470.417 524.208 469.769 523.896 469.361 523.296C469.001 522.792 468.857 522.216 468.857 521.496ZM480.225 528H483.945V521.784C483.945 520.128 484.785 519.144 486.129 519.144C487.329 519.144 487.905 519.864 487.905 521.184V528H491.625V520.392C491.625 517.344 490.233 515.736 487.521 515.736C485.553 515.736 484.209 516.936 483.537 519.24H483.057L483.945 516.096V511.2H480.225V528ZM499.872 528.36C502.872 528.36 505.08 526.728 505.488 524.304H501.768C501.48 525.12 500.736 525.528 499.8 525.528C498.864 525.528 498.24 525.216 497.832 524.64C497.544 524.232 497.376 523.68 497.28 523.008H505.464V522.048C505.464 518.064 503.4 515.736 499.704 515.736C497.664 515.736 495.912 516.552 494.856 518.064C494.136 519.096 493.704 520.464 493.704 522.096C493.704 523.704 494.088 525.024 494.808 526.056C495.84 527.568 497.568 528.36 499.872 528.36ZM497.328 520.728C497.4 520.224 497.568 519.792 497.808 519.456C498.24 518.808 498.912 518.496 499.704 518.496C501.096 518.496 501.864 519.264 501.912 520.728H497.328ZM512.083 528.36C513.931 528.36 515.299 527.856 516.163 526.992C516.787 526.368 517.123 525.576 517.123 524.544C517.123 522.504 516.043 521.4 513.523 520.824L511.963 520.488C511.027 520.272 510.667 519.96 510.667 519.432C510.667 519.168 510.763 518.952 510.907 518.784C511.171 518.544 511.555 518.424 512.131 518.424C513.187 518.424 513.811 518.928 513.811 519.864V519.984H517.267V519.864C517.267 517.296 515.443 515.76 512.251 515.76C510.403 515.76 509.011 516.24 508.123 517.104C507.499 517.728 507.187 518.544 507.187 519.504C507.187 521.472 508.267 522.648 510.355 523.104L512.371 523.56C513.259 523.728 513.595 524.088 513.595 524.64C513.595 524.928 513.499 525.144 513.331 525.312C513.091 525.552 512.683 525.672 512.131 525.672C511.075 525.672 510.475 525.192 510.475 524.28V524.16H507.019V524.28C507.019 526.872 508.867 528.36 512.083 528.36ZM525.284 528.36C528.236 528.36 530.132 526.584 530.132 523.728V521.904H526.388V523.632C526.388 524.736 526.076 525.168 525.332 525.168C524.732 525.168 524.324 524.736 524.324 523.8V519.096H530.132V516.096H524.324V512.664L520.604 514.32V516.096H518.444V519.096H520.604V523.872C520.604 526.776 522.188 528.36 525.284 528.36ZM543.891 528.36C546.171 528.36 548.043 527.424 549.147 525.816C549.843 524.784 550.227 523.512 550.227 522.048C550.227 520.584 549.843 519.312 549.147 518.28C548.043 516.672 546.171 515.736 543.891 515.736C541.611 515.736 539.763 516.672 538.659 518.28C537.963 519.312 537.579 520.584 537.579 522.048C537.579 523.512 537.963 524.784 538.659 525.816C539.763 527.424 541.611 528.36 543.891 528.36ZM541.323 522.048C541.323 521.232 541.539 520.536 541.875 520.032C542.331 519.36 543.051 518.976 543.891 518.976C544.755 518.976 545.451 519.36 545.907 520.032C546.267 520.536 546.459 521.232 546.459 522.048C546.459 522.864 546.267 523.56 545.907 524.064C545.451 524.736 544.755 525.12 543.891 525.12C543.051 525.12 542.331 524.736 541.875 524.064C541.539 523.56 541.323 522.864 541.323 522.048ZM552.553 532.32H556.273V528L555.385 524.856H555.865C556.537 527.088 557.905 528.36 559.969 528.36C561.625 528.36 562.993 527.64 563.881 526.344C564.601 525.264 565.009 523.8 565.009 522.048C565.009 520.296 564.601 518.832 563.881 517.752C562.993 516.48 561.625 515.736 559.969 515.736C557.905 515.736 556.537 517.008 555.865 519.24H555.385L556.273 516.096H552.553V532.32ZM556.225 522.048C556.225 521.184 556.441 520.464 556.801 519.936C557.257 519.312 557.929 518.976 558.745 518.976C559.561 518.976 560.233 519.312 560.665 519.936C561.049 520.464 561.265 521.184 561.265 522.048C561.265 522.936 561.049 523.656 560.665 524.16C560.233 524.784 559.561 525.12 558.745 525.12C557.929 525.12 557.257 524.784 556.801 524.16C556.441 523.656 556.225 522.936 556.225 522.048ZM567.506 532.32H571.226V528L570.338 524.856H570.818C571.49 527.088 572.858 528.36 574.922 528.36C576.578 528.36 577.946 527.64 578.834 526.344C579.554 525.264 579.962 523.8 579.962 522.048C579.962 520.296 579.554 518.832 578.834 517.752C577.946 516.48 576.578 515.736 574.922 515.736C572.858 515.736 571.49 517.008 570.818 519.24H570.338L571.226 516.096H567.506V532.32ZM571.178 522.048C571.178 521.184 571.394 520.464 571.754 519.936C572.21 519.312 572.882 518.976 573.698 518.976C574.514 518.976 575.186 519.312 575.618 519.936C576.002 520.464 576.218 521.184 576.218 522.048C576.218 522.936 576.002 523.656 575.618 524.16C575.186 524.784 574.514 525.12 573.698 525.12C572.882 525.12 572.21 524.784 571.754 524.16C571.394 523.656 571.178 522.936 571.178 522.048ZM587.884 528.36C590.164 528.36 592.036 527.424 593.14 525.816C593.836 524.784 594.22 523.512 594.22 522.048C594.22 520.584 593.836 519.312 593.14 518.28C592.036 516.672 590.164 515.736 587.884 515.736C585.604 515.736 583.756 516.672 582.652 518.28C581.956 519.312 581.572 520.584 581.572 522.048C581.572 523.512 581.956 524.784 582.652 525.816C583.756 527.424 585.604 528.36 587.884 528.36ZM585.316 522.048C585.316 521.232 585.532 520.536 585.868 520.032C586.324 519.36 587.044 518.976 587.884 518.976C588.748 518.976 589.444 519.36 589.9 520.032C590.26 520.536 590.452 521.232 590.452 522.048C590.452 522.864 590.26 523.56 589.9 524.064C589.444 524.736 588.748 525.12 587.884 525.12C587.044 525.12 586.324 524.736 585.868 524.064C585.532 523.56 585.316 522.864 585.316 522.048ZM596.546 528H600.266V521.568C600.266 519.984 600.818 519.168 601.754 519.168C602.594 519.168 603.002 519.672 603.002 520.944V522.528H606.794V519.744C606.794 517.176 605.714 515.736 603.602 515.736C601.682 515.736 600.458 516.84 599.666 519.528H599.162L600.218 516.096H596.546V528ZM614.417 528.36C617.369 528.36 619.265 526.584 619.265 523.728V521.904H615.521V523.632C615.521 524.736 615.209 525.168 614.465 525.168C613.865 525.168 613.457 524.736 613.457 523.8V519.096H619.265V516.096H613.457V512.664L609.737 514.32V516.096H607.577V519.096H609.737V523.872C609.737 526.776 611.321 528.36 614.417 528.36ZM625.485 528.36C627.405 528.36 628.677 527.184 629.325 524.856H629.829L628.917 528H632.637V516.096H628.917V522.312C628.917 523.968 628.125 524.952 626.877 524.952C625.749 524.952 625.197 524.256 625.197 522.912V516.096H621.477V523.704C621.477 526.752 622.821 528.36 625.485 528.36ZM635.85 528H639.57V521.784C639.57 520.128 640.41 519.144 641.754 519.144C642.954 519.144 643.53 519.864 643.53 521.184V528H647.25V520.392C647.25 517.344 645.834 515.736 643.122 515.736C641.154 515.736 639.834 516.936 639.162 519.24H638.682L639.57 516.096H635.85V528ZM650.217 528H653.937V516.096H650.217V528ZM650.121 514.632H654.057V511.512H650.121V514.632ZM662.675 528.36C665.627 528.36 667.523 526.584 667.523 523.728V521.904H663.779V523.632C663.779 524.736 663.467 525.168 662.723 525.168C662.123 525.168 661.715 524.736 661.715 523.8V519.096H667.523V516.096H661.715V512.664L657.995 514.32V516.096H655.835V519.096H657.995V523.872C657.995 526.776 659.579 528.36 662.675 528.36ZM673.263 532.656C675.759 532.656 677.343 531.432 678.159 528.624L681.735 516.096H677.727L675.591 524.784H675.159L672.711 516.096H668.703L672.111 526.896H675.063L674.655 528.576C674.439 529.464 673.911 529.824 673.215 529.824C672.543 529.824 672.159 529.488 672.159 528.96V528.792H668.535V529.032C668.535 531.384 670.383 532.656 673.263 532.656Z" fill="#FFC800"/>
</g>
<defs>
<clipPath id="clip0_79_292">
<rect width="1024" height="576" fill="white"/>
</clipPath>
</defs>
</svg>
