<svg width="1024" height="576" viewBox="0 0 1024 576" fill="none" xmlns="http://www.w3.org/2000/svg">
<g clip-path="url(#clip0_79_316)">
<path d="M265.817 113.808C263.705 113.808 262.169 112.656 261.521 110.832C261.257 110.136 261.161 109.416 261.161 108.6C261.161 107.784 261.257 107.04 261.521 106.368C262.169 104.544 263.705 103.368 265.817 103.368C267.953 103.368 269.465 104.544 270.137 106.368C270.377 107.04 270.497 107.784 270.497 108.6C270.497 109.416 270.377 110.136 270.137 110.832C269.465 112.704 267.929 113.808 265.817 113.808ZM257.057 108.6C257.057 109.848 257.249 111 257.609 112.032C258.689 115.08 261.233 117.024 264.665 117.36V117.672C264.665 120.096 265.913 121.08 268.289 121.08H271.841V117.984H267.473V117.312C270.665 116.832 272.993 114.888 274.025 112.032C274.409 111 274.601 109.848 274.601 108.6C274.601 107.352 274.409 106.2 274.025 105.168C272.849 101.832 269.849 99.768 265.817 99.768C261.809 99.768 258.809 101.832 257.609 105.168C257.249 106.2 257.057 107.352 257.057 108.6ZM276.074 117H280.466V112.944H276.074V117ZM290.52 117H296.832L298.632 104.688L298.656 102.72H299.136L299.184 104.688L300.984 117H307.296L310.152 100.2H306.048L304.128 112.704L304.08 114.72H303.6L303.552 112.704L301.728 100.2H296.088L294.264 112.704L294.216 114.72H293.736L293.688 112.704L291.744 100.2H287.64L290.52 117ZM312.436 117H316.156V110.784C316.156 109.128 316.996 108.144 318.34 108.144C319.54 108.144 320.116 108.864 320.116 110.184V117H323.836V109.392C323.836 106.344 322.444 104.736 319.732 104.736C317.764 104.736 316.42 105.936 315.748 108.24H315.268L316.156 105.096V100.2H312.436V117ZM326.803 117H330.523V105.096H326.803V117ZM326.707 103.632H330.643V100.512H326.707V103.632ZM338.877 117.36C342.165 117.36 344.445 115.608 344.589 112.416H340.893C340.725 113.52 340.029 114.12 338.901 114.12C338.157 114.12 337.557 113.808 337.149 113.232C336.789 112.704 336.597 111.984 336.597 111.096C336.597 110.16 336.813 109.464 337.173 108.912C337.605 108.312 338.229 107.976 339.021 107.976C340.173 107.976 340.917 108.576 341.109 109.704H344.781C344.661 106.536 342.333 104.736 339.021 104.736C336.813 104.736 335.037 105.552 333.981 107.064C333.261 108.096 332.853 109.464 332.853 111.096C332.853 112.704 333.237 114.024 333.957 115.056C334.989 116.568 336.717 117.36 338.877 117.36ZM347.03 117H350.75V110.784C350.75 109.128 351.59 108.144 352.934 108.144C354.134 108.144 354.71 108.864 354.71 110.184V117H358.43V109.392C358.43 106.344 357.038 104.736 354.326 104.736C352.358 104.736 351.014 105.936 350.342 108.24H349.862L350.75 105.096V100.2H347.03V117ZM372.704 117.36C374.984 117.36 376.856 116.424 377.96 114.816C378.656 113.784 379.04 112.512 379.04 111.048C379.04 109.584 378.656 108.312 377.96 107.28C376.856 105.672 374.984 104.736 372.704 104.736C370.424 104.736 368.576 105.672 367.472 107.28C366.776 108.312 366.392 109.584 366.392 111.048C366.392 112.512 366.776 113.784 367.472 114.816C368.576 116.424 370.424 117.36 372.704 117.36ZM370.136 111.048C370.136 110.232 370.352 109.536 370.688 109.032C371.144 108.36 371.864 107.976 372.704 107.976C373.568 107.976 374.264 108.36 374.72 109.032C375.08 109.536 375.272 110.232 375.272 111.048C375.272 111.864 375.08 112.56 374.72 113.064C374.264 113.736 373.568 114.12 372.704 114.12C371.864 114.12 371.144 113.736 370.688 113.064C370.352 112.56 370.136 111.864 370.136 111.048ZM382.112 104.256V105.096H379.952V108.096H382.112V117H385.832V108.096H390.032V105.096H385.832V103.992C385.832 103.128 386.288 102.6 387.056 102.6C387.728 102.6 388.16 103.008 388.16 103.848V103.92H391.76V103.848C391.76 101.184 390.032 99.816 387.008 99.816C383.936 99.816 382.112 101.496 382.112 104.256ZM402.87 117.36C405.822 117.36 407.718 115.584 407.718 112.728V110.904H403.974V112.632C403.974 113.736 403.662 114.168 402.918 114.168C402.318 114.168 401.91 113.736 401.91 112.8V108.096H407.718V105.096H401.91V101.664L398.19 103.32V105.096H396.03V108.096H398.19V112.872C398.19 115.776 399.774 117.36 402.87 117.36ZM410.171 117H413.891V110.784C413.891 109.128 414.73 108.144 416.075 108.144C417.275 108.144 417.851 108.864 417.851 110.184V117H421.571V109.392C421.571 106.344 420.179 104.736 417.467 104.736C415.499 104.736 414.155 105.936 413.483 108.24H413.003L413.891 105.096V100.2H410.171V117ZM429.818 117.36C432.818 117.36 435.026 115.728 435.434 113.304H431.714C431.426 114.12 430.682 114.528 429.746 114.528C428.81 114.528 428.186 114.216 427.778 113.64C427.49 113.232 427.322 112.68 427.226 112.008H435.41V111.048C435.41 107.064 433.346 104.736 429.65 104.736C427.61 104.736 425.858 105.552 424.802 107.064C424.082 108.096 423.65 109.464 423.65 111.096C423.65 112.704 424.034 114.024 424.754 115.056C425.786 116.568 427.514 117.36 429.818 117.36ZM427.274 109.728C427.346 109.224 427.514 108.792 427.754 108.456C428.186 107.808 428.858 107.496 429.65 107.496C431.042 107.496 431.81 108.264 431.858 109.728H427.274ZM444.245 104.256V105.096H442.085V108.096H444.245V117H447.965V108.096H452.165V105.096H447.965V103.992C447.965 103.128 448.421 102.6 449.189 102.6C449.861 102.6 450.293 103.008 450.293 103.848V103.92H453.893V103.848C453.893 101.184 452.165 99.816 449.141 99.816C446.069 99.816 444.245 101.496 444.245 104.256ZM459.071 117.36C461.351 117.36 463.223 116.424 464.327 114.816C465.023 113.784 465.407 112.512 465.407 111.048C465.407 109.584 465.023 108.312 464.327 107.28C463.223 105.672 461.351 104.736 459.071 104.736C456.791 104.736 454.943 105.672 453.839 107.28C453.143 108.312 452.759 109.584 452.759 111.048C452.759 112.512 453.143 113.784 453.839 114.816C454.943 116.424 456.791 117.36 459.071 117.36ZM456.503 111.048C456.503 110.232 456.719 109.536 457.055 109.032C457.511 108.36 458.231 107.976 459.071 107.976C459.935 107.976 460.631 108.36 461.087 109.032C461.447 109.536 461.639 110.232 461.639 111.048C461.639 111.864 461.447 112.56 461.087 113.064C460.631 113.736 459.935 114.12 459.071 114.12C458.231 114.12 457.511 113.736 457.055 113.064C456.719 112.56 456.503 111.864 456.503 111.048ZM467.733 117H471.453V100.2H467.733V117ZM474.671 117H478.391V100.2H474.671V117ZM487.032 117.36C489.312 117.36 491.184 116.424 492.288 114.816C492.984 113.784 493.368 112.512 493.368 111.048C493.368 109.584 492.984 108.312 492.288 107.28C491.184 105.672 489.312 104.736 487.032 104.736C484.752 104.736 482.904 105.672 481.8 107.28C481.104 108.312 480.72 109.584 480.72 111.048C480.72 112.512 481.104 113.784 481.8 114.816C482.904 116.424 484.752 117.36 487.032 117.36ZM484.464 111.048C484.464 110.232 484.68 109.536 485.016 109.032C485.472 108.36 486.192 107.976 487.032 107.976C487.896 107.976 488.592 108.36 489.048 109.032C489.408 109.536 489.6 110.232 489.6 111.048C489.6 111.864 489.408 112.56 489.048 113.064C488.592 113.736 487.896 114.12 487.032 114.12C486.192 114.12 485.472 113.736 485.016 113.064C484.68 112.56 484.464 111.864 484.464 111.048ZM496.946 117H502.634L503.882 108.528L503.93 107.208H504.41L504.434 108.528L505.706 117H511.37L513.794 105.096H510.122L508.586 113.616L508.562 114.912H508.082L508.058 113.616L506.786 105.096H501.554L500.258 113.616L500.234 114.912H499.754L499.73 113.616L498.218 105.096H494.546L496.946 117ZM516.061 117H519.781V105.096H516.061V117ZM515.965 103.632H519.901V100.512H515.965V103.632ZM522.999 117H526.719V110.784C526.719 109.128 527.559 108.144 528.903 108.144C530.103 108.144 530.679 108.864 530.679 110.184V117H534.399V109.392C534.399 106.344 532.983 104.736 530.271 104.736C528.303 104.736 526.983 105.936 526.311 108.24H525.831L526.719 105.096H522.999V117ZM542.502 121.656C546.558 121.656 548.574 119.52 548.574 115.176V105.096H544.902L545.91 108.264H545.43C544.83 105.888 543.366 104.736 541.518 104.736C539.91 104.736 538.566 105.456 537.702 106.68C537.03 107.664 536.646 108.96 536.646 110.496C536.646 112.008 537.03 113.304 537.702 114.288C538.566 115.512 539.91 116.232 541.518 116.232C543.366 116.232 544.83 115.08 545.43 112.704H545.91L544.854 115.92V116.352C544.854 117.96 543.966 118.8 542.502 118.8C541.038 118.8 540.366 118.152 540.246 117.12H536.646C536.766 119.976 538.71 121.656 542.502 121.656ZM540.342 110.496C540.342 109.752 540.486 109.176 540.846 108.672C541.254 108.072 541.902 107.76 542.67 107.76C543.462 107.76 544.086 108.072 544.494 108.672C544.854 109.176 544.998 109.752 544.998 110.496C544.998 111.216 544.854 111.792 544.494 112.296C544.086 112.896 543.462 113.208 542.67 113.208C541.902 113.208 541.254 112.896 540.846 112.296C540.486 111.792 540.342 111.216 540.342 110.496ZM561.936 117.36C564 117.36 565.344 116.088 566.04 113.856H566.52L565.608 117H569.352V100.2H565.608V105.096L566.52 108.24H566.04C565.344 106.008 564 104.736 561.936 104.736C560.28 104.736 558.912 105.48 558.024 106.752C557.28 107.832 556.872 109.296 556.872 111.048C556.872 112.8 557.28 114.264 558.024 115.344C558.912 116.64 560.28 117.36 561.936 117.36ZM560.64 111.048C560.64 110.184 560.856 109.464 561.216 108.936C561.648 108.312 562.32 107.976 563.16 107.976C563.976 107.976 564.648 108.312 565.08 108.936C565.44 109.464 565.656 110.184 565.656 111.048C565.656 111.936 565.44 112.656 565.08 113.16C564.648 113.784 563.976 114.12 563.16 114.12C562.32 114.12 561.648 113.784 561.216 113.16C560.856 112.656 560.64 111.936 560.64 111.048ZM577.826 117.36C580.826 117.36 583.034 115.728 583.442 113.304H579.722C579.434 114.12 578.69 114.528 577.754 114.528C576.818 114.528 576.194 114.216 575.786 113.64C575.498 113.232 575.33 112.68 575.234 112.008H583.418V111.048C583.418 107.064 581.354 104.736 577.658 104.736C575.618 104.736 573.866 105.552 572.81 107.064C572.09 108.096 571.658 109.464 571.658 111.096C571.658 112.704 572.042 114.024 572.762 115.056C573.794 116.568 575.522 117.36 577.826 117.36ZM575.282 109.728C575.354 109.224 575.522 108.792 575.762 108.456C576.194 107.808 576.866 107.496 577.658 107.496C579.05 107.496 579.818 108.264 579.866 109.728H575.282ZM587.547 117H593.691L597.099 105.096H593.235L590.931 113.712L590.859 114.912H590.403L590.331 113.712L588.051 105.096H584.163L587.547 117ZM599.03 117H602.75V105.096H599.03V117ZM598.934 103.632H602.87V100.512H598.934V103.632ZM611.103 117.36C614.391 117.36 616.671 115.608 616.815 112.416H613.119C612.951 113.52 612.255 114.12 611.127 114.12C610.383 114.12 609.783 113.808 609.375 113.232C609.015 112.704 608.823 111.984 608.823 111.096C608.823 110.16 609.039 109.464 609.399 108.912C609.831 108.312 610.455 107.976 611.247 107.976C612.399 107.976 613.143 108.576 613.335 109.704H617.007C616.887 106.536 614.559 104.736 611.247 104.736C609.039 104.736 607.263 105.552 606.207 107.064C605.487 108.096 605.079 109.464 605.079 111.096C605.079 112.704 605.463 114.024 606.183 115.056C607.215 116.568 608.943 117.36 611.103 117.36ZM624.536 117.36C627.536 117.36 629.744 115.728 630.152 113.304H626.432C626.144 114.12 625.4 114.528 624.464 114.528C623.528 114.528 622.904 114.216 622.496 113.64C622.208 113.232 622.04 112.68 621.944 112.008H630.128V111.048C630.128 107.064 628.064 104.736 624.368 104.736C622.328 104.736 620.576 105.552 619.52 107.064C618.8 108.096 618.368 109.464 618.368 111.096C618.368 112.704 618.752 114.024 619.472 115.056C620.504 116.568 622.232 117.36 624.536 117.36ZM621.992 109.728C622.064 109.224 622.232 108.792 622.472 108.456C622.904 107.808 623.576 107.496 624.368 107.496C625.76 107.496 626.528 108.264 626.576 109.728H621.992ZM636.747 117.36C638.595 117.36 639.963 116.856 640.827 115.992C641.451 115.368 641.787 114.576 641.787 113.544C641.787 111.504 640.707 110.4 638.187 109.824L636.627 109.488C635.691 109.272 635.331 108.96 635.331 108.432C635.331 108.168 635.427 107.952 635.571 107.784C635.835 107.544 636.219 107.424 636.795 107.424C637.851 107.424 638.475 107.928 638.475 108.864V108.984H641.931V108.864C641.931 106.296 640.107 104.76 636.915 104.76C635.067 104.76 633.675 105.24 632.787 106.104C632.163 106.728 631.851 107.544 631.851 108.504C631.851 110.472 632.931 111.648 635.019 112.104L637.035 112.56C637.923 112.728 638.259 113.088 638.259 113.64C638.259 113.928 638.163 114.144 637.995 114.312C637.755 114.552 637.347 114.672 636.795 114.672C635.739 114.672 635.139 114.192 635.139 113.28V113.16H631.683V113.28C631.683 115.872 633.531 117.36 636.747 117.36ZM654.655 117.36C656.719 117.36 658.063 116.088 658.759 113.856H659.239L658.327 117H662.071V100.2H658.327V105.096L659.239 108.24H658.759C658.063 106.008 656.719 104.736 654.655 104.736C652.999 104.736 651.631 105.48 650.743 106.752C649.999 107.832 649.591 109.296 649.591 111.048C649.591 112.8 649.999 114.264 650.743 115.344C651.631 116.64 652.999 117.36 654.655 117.36ZM653.359 111.048C653.359 110.184 653.575 109.464 653.935 108.936C654.367 108.312 655.039 107.976 655.879 107.976C656.695 107.976 657.367 108.312 657.799 108.936C658.159 109.464 658.375 110.184 658.375 111.048C658.375 111.936 658.159 112.656 657.799 113.16C657.367 113.784 656.695 114.12 655.879 114.12C655.039 114.12 654.367 113.784 653.935 113.16C653.575 112.656 653.359 111.936 653.359 111.048ZM670.688 117.36C672.968 117.36 674.84 116.424 675.944 114.816C676.64 113.784 677.024 112.512 677.024 111.048C677.024 109.584 676.64 108.312 675.944 107.28C674.84 105.672 672.968 104.736 670.688 104.736C668.408 104.736 666.56 105.672 665.456 107.28C664.76 108.312 664.376 109.584 664.376 111.048C664.376 112.512 664.76 113.784 665.456 114.816C666.56 116.424 668.408 117.36 670.688 117.36ZM668.12 111.048C668.12 110.232 668.336 109.536 668.672 109.032C669.128 108.36 669.848 107.976 670.688 107.976C671.552 107.976 672.248 108.36 672.704 109.032C673.064 109.536 673.256 110.232 673.256 111.048C673.256 111.864 673.064 112.56 672.704 113.064C672.248 113.736 671.552 114.12 670.688 114.12C669.848 114.12 669.128 113.736 668.672 113.064C668.336 112.56 668.12 111.864 668.12 111.048ZM688.404 121.656C690.9 121.656 692.484 120.432 693.3 117.624L696.876 105.096H692.868L690.732 113.784H690.3L687.852 105.096H683.844L687.252 115.896H690.204L689.796 117.576C689.58 118.464 689.052 118.824 688.356 118.824C687.684 118.824 687.3 118.488 687.3 117.96V117.792H683.676V118.032C683.676 120.384 685.524 121.656 688.404 121.656ZM703.899 117.36C706.179 117.36 708.051 116.424 709.155 114.816C709.851 113.784 710.235 112.512 710.235 111.048C710.235 109.584 709.851 108.312 709.155 107.28C708.051 105.672 706.179 104.736 703.899 104.736C701.619 104.736 699.771 105.672 698.667 107.28C697.971 108.312 697.587 109.584 697.587 111.048C697.587 112.512 697.971 113.784 698.667 114.816C699.771 116.424 701.619 117.36 703.899 117.36ZM701.331 111.048C701.331 110.232 701.547 109.536 701.883 109.032C702.339 108.36 703.059 107.976 703.899 107.976C704.763 107.976 705.459 108.36 705.915 109.032C706.275 109.536 706.467 110.232 706.467 111.048C706.467 111.864 706.275 112.56 705.915 113.064C705.459 113.736 704.763 114.12 703.899 114.12C703.059 114.12 702.339 113.736 701.883 113.064C701.547 112.56 701.331 111.864 701.331 111.048ZM716.329 117.36C718.249 117.36 719.521 116.184 720.169 113.856H720.673L719.761 117H723.481V105.096H719.761V111.312C719.761 112.968 718.969 113.952 717.721 113.952C716.593 113.952 716.041 113.256 716.041 111.912V105.096H712.321V112.704C712.321 115.752 713.665 117.36 716.329 117.36ZM736.345 117.36C738.265 117.36 739.537 116.184 740.185 113.856H740.689L739.777 117H743.497V105.096H739.777V111.312C739.777 112.968 738.985 113.952 737.737 113.952C736.609 113.952 736.057 113.256 736.057 111.912V105.096H732.337V112.704C732.337 115.752 733.681 117.36 736.345 117.36ZM750.982 117.36C752.83 117.36 754.198 116.856 755.062 115.992C755.686 115.368 756.022 114.576 756.022 113.544C756.022 111.504 754.942 110.4 752.422 109.824L750.862 109.488C749.926 109.272 749.566 108.96 749.566 108.432C749.566 108.168 749.662 107.952 749.806 107.784C750.07 107.544 750.454 107.424 751.03 107.424C752.086 107.424 752.71 107.928 752.71 108.864V108.984H756.166V108.864C756.166 106.296 754.342 104.76 751.15 104.76C749.302 104.76 747.91 105.24 747.022 106.104C746.398 106.728 746.086 107.544 746.086 108.504C746.086 110.472 747.166 111.648 749.254 112.104L751.27 112.56C752.158 112.728 752.494 113.088 752.494 113.64C752.494 113.928 752.398 114.144 752.23 114.312C751.99 114.552 751.582 114.672 751.03 114.672C749.974 114.672 749.374 114.192 749.374 113.28V113.16H745.918V113.28C745.918 115.872 747.766 117.36 750.982 117.36ZM763.943 117.36C766.943 117.36 769.151 115.728 769.559 113.304H765.839C765.551 114.12 764.807 114.528 763.871 114.528C762.935 114.528 762.311 114.216 761.903 113.64C761.615 113.232 761.447 112.68 761.351 112.008H769.535V111.048C769.535 107.064 767.471 104.736 763.775 104.736C761.735 104.736 759.983 105.552 758.927 107.064C758.207 108.096 757.775 109.464 757.775 111.096C757.775 112.704 758.159 114.024 758.879 115.056C759.911 116.568 761.639 117.36 763.943 117.36ZM761.399 109.728C761.471 109.224 761.639 108.792 761.879 108.456C762.311 107.808 762.983 107.496 763.775 107.496C765.167 107.496 765.935 108.264 765.983 109.728H761.399ZM773.513 110.448C773.513 109.92 773.585 109.448 773.729 109.032C773.873 108.616 774.105 108.224 774.425 107.856C774.761 107.488 775.201 107.112 775.745 106.728C776.225 106.376 776.609 106.064 776.897 105.792C777.201 105.52 777.417 105.248 777.545 104.976C777.689 104.704 777.761 104.4 777.761 104.064C777.761 103.552 777.569 103.168 777.185 102.912C776.817 102.64 776.297 102.504 775.625 102.504C774.953 102.504 774.289 102.608 773.633 102.816C772.977 103.024 772.305 103.304 771.617 103.656L770.345 101.088C771.129 100.656 771.977 100.304 772.889 100.032C773.801 99.76 774.801 99.624 775.889 99.624C777.553 99.624 778.841 100.024 779.753 100.824C780.681 101.624 781.145 102.64 781.145 103.872C781.145 104.528 781.041 105.096 780.833 105.576C780.625 106.056 780.313 106.504 779.897 106.92C779.481 107.32 778.961 107.752 778.337 108.216C777.873 108.552 777.513 108.84 777.257 109.08C777.001 109.32 776.825 109.552 776.729 109.776C776.649 110 776.609 110.28 776.609 110.616V111.312H773.513V110.448ZM773.129 115.32C773.129 114.584 773.329 114.072 773.729 113.784C774.129 113.48 774.617 113.328 775.193 113.328C775.753 113.328 776.233 113.48 776.633 113.784C777.033 114.072 777.233 114.584 777.233 115.32C777.233 116.024 777.033 116.536 776.633 116.856C776.233 117.16 775.753 117.312 775.193 117.312C774.617 117.312 774.129 117.16 773.729 116.856C773.329 116.536 773.129 116.024 773.129 115.32Z" fill="#FBF9F0"/>
<path d="M326.483 69H336.251V67.032H328.475V51.936H326.483V69ZM342.364 69.192H344.356L346.564 68.64L348.124 67.608L347.068 66.024L345.82 66.816L344.188 67.224H342.748L341.284 66.504L340.132 64.944L339.82 63.888V63.648H349.084V61.128L348.532 59.52L346.924 57.312L344.5 56.16H342.364L339.964 57.312L338.332 59.52L337.828 61.272V64.128L338.332 65.832L339.964 68.04L342.364 69.192ZM339.82 61.68V61.464L340.108 60.408L341.236 58.872L342.676 58.128H344.164L345.628 58.896L346.78 60.456L347.092 61.368V61.68H339.82ZM355.935 69.192H357.039L359.271 68.688L358.767 66.792L357.063 67.224H356.391L355.527 66.888L354.927 66.024V58.632H358.239V56.664H354.927V52.248H352.935V56.664H350.655V58.632H352.935V66.672L354.255 68.568L355.935 69.192ZM363.904 52.128C363.76 52.688 363.576 53.296 363.352 53.952C363.128 54.608 362.88 55.264 362.608 55.92C362.352 56.56 362.096 57.168 361.84 57.744H360.28C360.392 57.296 360.504 56.816 360.616 56.304C360.744 55.792 360.856 55.28 360.952 54.768C361.064 54.24 361.16 53.728 361.24 53.232C361.336 52.736 361.416 52.28 361.48 51.864H363.736L363.904 52.128ZM369.108 69.192H371.243L372.876 68.712L374.028 67.896L374.94 66.504V64.464L374.004 62.928L372.636 62.016L368.964 61.296L368.292 60.96L367.812 60.312V59.256L368.148 58.68L368.556 58.344L369.468 58.08H371.076L372.42 58.488L373.572 59.28L374.652 57.672L373.212 56.688L371.243 56.16H369.204L367.715 56.568L366.636 57.408L365.844 58.776V60.912L366.852 62.304L368.388 63.12L371.844 63.816L372.564 64.32L372.972 65.016V65.928L372.588 66.528L371.988 66.96L370.98 67.248H369.372L367.884 66.864L367.236 66.36L366.78 65.808L365.388 67.152L365.94 67.776L367.068 68.664L369.108 69.192ZM385.379 69H387.371V50.904H385.379V69ZM394.947 69.192H397.491L399.915 68.04L401.115 66.264L401.595 64.104V61.272L401.115 59.112L399.915 57.336L397.491 56.16H394.947L392.523 57.336L391.323 59.112L390.843 61.272V64.104L391.323 66.264L392.523 68.04L394.947 69.192ZM395.283 67.248L393.867 66.552L393.147 65.472L392.835 63.864V61.464L393.147 59.904L393.843 58.848L395.283 58.128H397.155L398.547 58.848L399.291 59.904L399.603 61.464V63.864L399.291 65.472L398.571 66.552L397.155 67.248H395.283ZM408.33 69.192H410.874L413.298 68.04L414.498 66.264L414.978 64.104V61.272L414.498 59.112L413.298 57.336L410.874 56.16H408.33L405.906 57.336L404.706 59.112L404.226 61.272V64.104L404.706 66.264L405.906 68.04L408.33 69.192ZM408.666 67.248L407.25 66.552L406.53 65.472L406.218 63.864V61.464L406.53 59.904L407.226 58.848L408.666 58.128H410.538L411.93 58.848L412.674 59.904L412.986 61.464V63.864L412.674 65.472L411.954 66.552L410.538 67.248H408.666ZM418.449 69H420.441V64.32L422.025 62.784L426.393 69H428.817L423.393 61.416L428.577 56.352H425.793L420.441 61.704V50.904H418.449V69ZM441.823 69.192H443.311L445.519 68.088L446.071 67.464L447.223 69.192L448.831 68.04L447.895 66.696V59.424L447.247 57.792L445.471 56.592L443.743 56.16H441.511L439.975 56.616L438.823 57.36L438.151 57.984L439.519 59.4L439.975 58.944L440.719 58.464L441.751 58.128H443.455L444.631 58.416L445.639 59.064L445.903 59.784V61.608L445.327 61.2L443.719 60.672H442.183L439.807 61.272L438.031 63.048L437.695 64.68V66.072L439.039 68.016L440.191 68.688L441.823 69.192ZM442.111 67.224L440.983 66.888L440.431 66.552L439.687 65.496V64.848L439.879 64.008L440.815 63.072L442.399 62.64H443.479L444.655 62.976L445.399 63.36L445.903 63.888V64.776L445.663 65.52L444.679 66.552L442.879 67.224H442.111ZM455.474 69.192H456.578L458.81 68.688L458.306 66.792L456.602 67.224H455.93L455.066 66.888L454.466 66.024V58.632H457.778V56.664H454.466V52.248H452.474V56.664H450.194V58.632H452.474V66.672L453.794 68.568L455.474 69.192ZM471.823 69.192H473.311L475.519 68.088L476.071 67.464L477.223 69.192L478.831 68.04L477.895 66.696V59.424L477.247 57.792L475.471 56.592L473.743 56.16H471.511L469.975 56.616L468.823 57.36L468.151 57.984L469.519 59.4L469.975 58.944L470.719 58.464L471.751 58.128H473.455L474.631 58.416L475.639 59.064L475.903 59.784V61.608L475.327 61.2L473.719 60.672H472.183L469.807 61.272L468.031 63.048L467.695 64.68V66.072L469.039 68.016L470.191 68.688L471.823 69.192ZM472.111 67.224L470.983 66.888L470.431 66.552L469.687 65.496V64.848L469.879 64.008L470.815 63.072L472.399 62.64H473.479L474.655 62.976L475.399 63.36L475.903 63.888V64.776L475.663 65.52L474.679 66.552L472.879 67.224H472.111ZM482.105 69H484.097V50.904H482.105V69ZM488.41 69H490.402V50.904H488.41V69ZM505.278 69.192H506.382L508.614 68.688L508.11 66.792L506.406 67.224H505.734L504.87 66.888L504.27 66.024V58.632H507.582V56.664H504.27V52.248H502.278V56.664H499.998V58.632H502.278V66.672L503.598 68.568L505.278 69.192ZM511.496 69H513.488V60.36L514.256 59.232L515.936 58.128H517.472L518.768 58.536L519.368 59.472V69H521.36V58.704L519.896 56.736L517.88 56.16H515.672L514.064 57.072L513.488 57.552V50.904H511.496V69ZM529.137 69.192H531.129L533.337 68.64L534.897 67.608L533.841 66.024L532.593 66.816L530.961 67.224H529.521L528.057 66.504L526.905 64.944L526.593 63.888V63.648H535.857V61.128L535.305 59.52L533.697 57.312L531.273 56.16H529.137L526.737 57.312L525.105 59.52L524.601 61.272V64.128L525.105 65.832L526.737 68.04L529.137 69.192ZM526.593 61.68V61.464L526.881 60.408L528.009 58.872L529.449 58.128H530.937L532.401 58.896L533.553 60.456L533.865 61.368V61.68H526.593ZM546.786 69H548.778V58.632H551.994V56.664H548.778V53.88L549.378 52.992L550.29 52.68H550.938L552.714 53.136L553.218 51.192L551.082 50.712H550.122L548.106 51.336L546.786 53.304V56.664H544.506V58.632H546.786V69ZM555.314 53.856H558.194V50.904H555.314V53.856ZM555.746 69H557.738V56.352H555.746V69ZM562.051 69H564.043V60.264L564.763 59.232L566.491 58.128H568.027L569.443 58.536L570.043 59.472V69H572.035V58.704L570.571 56.736L568.435 56.16H566.227L564.643 57.072L564.043 57.6V56.352H562.051V69ZM579.905 69.192H582.065L583.553 68.28L584.081 67.728V69H586.049V50.904H584.057V57.12L583.385 56.688L581.945 56.16H579.809L577.409 57.312L575.777 59.52L575.273 61.272V64.128L575.777 65.832L577.409 68.04L579.905 69.192ZM580.217 67.224L578.705 66.504L577.553 64.944L577.265 63.864V61.536L577.553 60.408L578.705 58.872L580.121 58.104H581.657L582.641 58.416L583.553 59.016L584.057 59.64V65.088L583.361 66.12L581.801 67.224H580.217ZM589.931 53.856H592.811V50.904H589.931V53.856ZM590.363 69H592.355V56.352H590.363V69ZM596.668 69H598.66V60.264L599.38 59.232L601.108 58.128H602.644L604.06 58.536L604.66 59.472V69H606.652V58.704L605.188 56.736L603.052 56.16H600.844L599.26 57.072L598.66 57.6V56.352H596.668V69ZM614.354 73.032H616.466L618.242 72.432L620.066 71.208L620.666 69.456V56.352H618.674V57.12L618.002 56.688L616.562 56.16H614.426L612.026 57.312L610.394 59.52L609.89 61.272V63.552L610.394 65.256L612.074 67.464L614.522 68.424H616.682L618.17 67.512L618.674 67.032V69.24L618.386 69.96L617.354 70.656L616.25 71.064H614.546L613.394 70.752L612.794 70.344L612.194 69.744L610.802 71.16L611.474 71.808L612.65 72.576L614.354 73.032ZM614.834 66.456L613.274 65.832L612.17 64.32L611.882 63.288V61.536L612.17 60.408L613.322 58.872L614.738 58.104H616.274L617.258 58.416L618.17 59.016L618.674 59.64V64.224L617.978 65.352L616.418 66.456H614.834ZM627.74 69.192H629.876L631.508 68.712L632.66 67.896L633.572 66.504V64.464L632.636 62.928L631.268 62.016L627.596 61.296L626.924 60.96L626.444 60.312V59.256L626.78 58.68L627.188 58.344L628.1 58.08H629.708L631.052 58.488L632.204 59.28L633.284 57.672L631.844 56.688L629.876 56.16H627.836L626.348 56.568L625.268 57.408L624.476 58.776V60.912L625.484 62.304L627.02 63.12L630.476 63.816L631.196 64.32L631.604 65.016V65.928L631.22 66.528L630.62 66.96L629.612 67.248H628.004L626.516 66.864L625.868 66.36L625.412 65.808L624.02 67.152L624.572 67.776L625.7 68.664L627.74 69.192ZM648.116 69.192H650.252L652.652 68.04L654.284 65.832L654.788 64.08V61.224L654.284 59.52L652.652 57.312L650.156 56.16H647.996L646.532 57.072L646.004 57.624V50.904H644.012V69H646.004V68.232L646.676 68.664L648.116 69.192ZM648.404 67.248L647.42 66.936L646.508 66.336L646.004 65.712V60.264L646.7 59.232L648.26 58.128H649.844L651.356 58.848L652.508 60.408L652.796 61.488V63.816L652.508 64.944L651.356 66.48L649.94 67.248H648.404ZM661.958 69.192H663.95L666.158 68.64L667.718 67.608L666.662 66.024L665.414 66.816L663.782 67.224H662.342L660.878 66.504L659.726 64.944L659.414 63.888V63.648H668.678V61.128L668.126 59.52L666.518 57.312L664.094 56.16H661.958L659.558 57.312L657.926 59.52L657.422 61.272V64.128L657.926 65.832L659.558 68.04L661.958 69.192ZM659.414 61.68V61.464L659.702 60.408L660.83 58.872L662.27 58.128H663.758L665.222 58.896L666.374 60.456L666.686 61.368V61.68H659.414ZM672.043 69H674.035V50.904H672.043V69ZM681.612 69.192H684.156L686.58 68.04L687.78 66.264L688.26 64.104V61.272L687.78 59.112L686.58 57.336L684.156 56.16H681.612L679.188 57.336L677.988 59.112L677.508 61.272V64.104L677.988 66.264L679.188 68.04L681.612 69.192ZM681.948 67.248L680.532 66.552L679.812 65.472L679.5 63.864V61.464L679.812 59.904L680.508 58.848L681.948 58.128H683.82L685.212 58.848L685.956 59.904L686.268 61.464V63.864L685.956 65.472L685.236 66.552L683.82 67.248H681.948ZM693.374 69H695.246L698.318 60.168L701.39 69H703.262L706.934 56.352H704.846L702.254 65.688L699.134 56.832H697.502L694.382 65.688L691.79 56.352H689.702L693.374 69ZM708.014 69H710.87V66.048H708.014V69Z" fill="#FBF9F0"/>
<rect x="166" y="259" width="12" height="221" fill="#FBF9F0"/>
<path d="M145 478.38V476.886H131.428V478.38H145ZM145.144 471.185V470.069L144.316 468.413L143.848 467.999L145.144 467.135L144.28 465.929L143.272 466.631H137.818L136.594 467.117L135.694 468.449L135.37 469.745V471.419L135.712 472.571L136.27 473.435L136.738 473.939L137.8 472.913L137.458 472.571L137.098 472.013L136.846 471.239V469.961L137.062 469.079L137.548 468.323L138.088 468.125H139.456L139.15 468.557L138.754 469.763V470.915L139.204 472.697L140.536 474.029L141.76 474.281H142.804L144.262 473.273L144.766 472.409L145.144 471.185ZM143.668 470.969L143.416 471.815L143.164 472.229L142.372 472.787H141.886L141.256 472.643L140.554 471.941L140.23 470.753V469.943L140.482 469.061L140.77 468.503L141.166 468.125H141.832L142.39 468.305L143.164 469.043L143.668 470.393V470.969ZM147.916 463.474V461.98H144.424L144.748 461.476L145.144 460.396V458.794L144.28 456.994L142.624 455.77L141.31 455.392H139.168L137.89 455.77L136.234 456.994L135.37 458.866V460.486L136.054 461.602L136.468 461.998H135.514V463.474H147.916ZM143.686 460.18L143.452 460.918L143.002 461.602L142.534 461.98H138.448L137.674 461.458L136.846 460.288V459.1L137.386 457.966L138.556 457.102L139.366 456.886H141.112L141.958 457.102L143.11 457.966L143.686 459.028V460.18ZM145.144 449.996V449.168L144.766 447.494L143.344 447.872L143.668 449.15V449.654L143.416 450.302L142.768 450.752H137.224V448.268H135.748V450.752H132.436V452.246H135.748V453.956H137.224V452.246H143.254L144.676 451.256L145.144 449.996ZM145.144 443.237V441.329L144.28 439.511L142.948 438.611L141.328 438.251H139.204L137.584 438.611L136.252 439.511L135.37 441.329V443.237L136.252 445.055L137.584 445.955L139.204 446.315H141.328L142.948 445.955L144.28 445.055L145.144 443.237ZM143.686 442.985L143.164 444.047L142.354 444.587L141.148 444.821H139.348L138.178 444.587L137.386 444.065L136.846 442.985V441.581L137.386 440.537L138.178 439.979L139.348 439.745H141.148L142.354 439.979L143.164 440.519L143.686 441.581V442.985ZM147.916 435.648V434.154H144.424L144.748 433.65L145.144 432.57V430.968L144.28 429.168L142.624 427.944L141.31 427.566H139.168L137.89 427.944L136.234 429.168L135.37 431.04V432.66L136.054 433.776L136.468 434.172H135.514V435.648H147.916ZM143.686 432.354L143.452 433.092L143.002 433.776L142.534 434.154H138.448L137.674 433.632L136.846 432.462V431.274L137.386 430.14L138.556 429.276L139.366 429.06H141.112L141.958 429.276L143.11 430.14L143.686 431.202V432.354ZM132.148 420.064L145 424.852V426.4L132.148 421.612V420.064ZM147.916 418.263V416.769H144.424L144.748 416.265L145.144 415.185V413.583L144.28 411.783L142.624 410.559L141.31 410.181H139.168L137.89 410.559L136.234 411.783L135.37 413.655V415.275L136.054 416.391L136.468 416.787H135.514V418.263H147.916ZM143.686 414.969L143.452 415.707L143.002 416.391L142.534 416.769H138.448L137.674 416.247L136.846 415.077V413.889L137.386 412.755L138.556 411.891L139.366 411.675H141.112L141.958 411.891L143.11 412.755L143.686 413.817V414.969ZM145.144 404.803V403.273L144.694 401.869L143.542 400.699L142.516 401.743L143.398 402.679L143.668 403.453V404.515L143.128 405.613L141.958 406.477L141.13 406.711H139.402L138.556 406.495L137.404 405.649L136.846 404.569V403.453L137.098 402.643L137.998 401.743L137.008 400.681L135.82 401.869L135.37 403.273V404.803L136.234 406.603L137.89 407.827L139.204 408.205H141.346L142.624 407.827L144.28 406.603L145.144 404.803Z" fill="#FBF9F0"/>
<rect x="270" y="404" width="12" height="76" fill="#FBF9F0"/>
<path d="M249.144 476.31V474.708L248.784 473.484L248.172 472.62L247.128 471.936H245.598L244.446 472.638L243.762 473.664L243.222 476.418L242.97 476.922L242.484 477.282H241.692L241.26 477.03L241.008 476.724L240.81 476.04V474.834L241.116 473.826L241.71 472.962L240.504 472.152L239.766 473.232L239.37 474.708V476.238L239.676 477.354L240.306 478.164L241.332 478.758H242.934L243.978 478.002L244.59 476.85L245.112 474.258L245.49 473.718L246.012 473.412H246.696L247.146 473.7L247.47 474.15L247.686 474.906V476.112L247.398 477.228L247.02 477.714L246.606 478.056L247.614 479.1L248.082 478.686L248.748 477.84L249.144 476.31ZM249.144 466.949V465.833L248.316 464.177L247.848 463.763L249.144 462.899L248.28 461.693L247.272 462.395H241.818L240.594 462.881L239.694 464.213L239.37 465.509V467.183L239.712 468.335L240.27 469.199L240.738 469.703L241.8 468.677L241.458 468.335L241.098 467.777L240.846 467.003V465.725L241.062 464.843L241.548 464.087L242.088 463.889H243.456L243.15 464.321L242.754 465.527V466.679L243.204 468.461L244.536 469.793L245.76 470.045H246.804L248.262 469.037L248.766 468.173L249.144 466.949ZM247.668 466.733L247.416 467.579L247.164 467.993L246.372 468.551H245.886L245.256 468.407L244.554 467.705L244.23 466.517V465.707L244.482 464.825L244.77 464.267L245.166 463.889H245.832L246.39 464.069L247.164 464.807L247.668 466.157V466.733ZM249 459.237V457.743H242.448L241.674 457.203L240.846 455.907V454.755L241.188 453.837L241.926 453.387H249V451.893H242.52L241.674 451.317L240.846 450.057V448.905L241.152 447.987L241.854 447.537H249V446.043H241.278L239.802 447.141L239.37 448.599V450.255L240.054 451.515L240.738 452.307L239.802 452.991L239.37 454.449V456.105L240.054 457.293L240.45 457.743H239.514V459.237H249ZM249 443.068V441.574H243.006L242.142 441.178L241.314 440.44L240.846 439.45V438.676L241.044 437.956L239.622 437.596L239.37 438.496V439.666L239.946 440.89L240.612 441.574H239.514V443.068H249ZM249.144 432.559V431.731L248.766 430.057L247.344 430.435L247.668 431.713V432.217L247.416 432.865L246.768 433.315H241.224V430.831H239.748V433.315H236.436V434.809H239.748V436.519H241.224V434.809H247.254L248.676 433.819L249.144 432.559ZM249 420.988V419.494H237.678V416.02H236.202V424.39H237.678V420.988H249ZM249 410.554V409.15L236.202 404.308V405.892L246.732 409.852L236.202 413.812V415.396L249 410.554Z" fill="#FBF9F0"/>
<rect x="374" y="451" width="12" height="29" fill="#FBF9F0"/>
<path d="M353.144 475.608V474.078L352.694 472.674L351.542 471.504L350.516 472.548L351.398 473.484L351.668 474.258V475.32L351.128 476.418L349.958 477.282L349.13 477.516H347.402L346.556 477.3L345.404 476.454L344.846 475.374V474.258L345.098 473.448L345.998 472.548L345.008 471.486L343.82 472.674L343.37 474.078V475.608L344.234 477.408L345.89 478.632L347.204 479.01H349.346L350.624 478.632L352.28 477.408L353.144 475.608ZM353 469.151V467.657H346.52L345.674 467.081L344.846 465.821V464.669L345.152 463.697L345.854 463.247H353V461.753H345.278L343.802 462.851L343.37 464.363V466.019L344.054 467.225L344.414 467.657H339.428V469.151H353ZM353 458.782V457.288H347.006L346.142 456.892L345.314 456.154L344.846 455.164V454.39L345.044 453.67L343.622 453.31L343.37 454.21V455.38L343.946 456.604L344.612 457.288H343.514V458.782H353ZM353.144 449.319V447.411L352.28 445.593L350.948 444.693L349.328 444.333H347.204L345.584 444.693L344.252 445.593L343.37 447.411V449.319L344.252 451.137L345.584 452.037L347.204 452.397H349.328L350.948 452.037L352.28 451.137L353.144 449.319ZM351.686 449.067L351.164 450.129L350.354 450.669L349.148 450.903H347.348L346.178 450.669L345.386 450.147L344.846 449.067V447.663L345.386 446.619L346.178 446.061L347.348 445.827H349.148L350.354 446.061L351.164 446.601L351.686 447.663V449.067ZM353 441.73V440.236H346.448L345.674 439.696L344.846 438.4V437.248L345.188 436.33L345.926 435.88H353V434.386H346.52L345.674 433.81L344.846 432.55V431.398L345.152 430.48L345.854 430.03H353V428.536H345.278L343.802 429.634L343.37 431.092V432.748L344.054 434.008L344.738 434.8L343.802 435.484L343.37 436.942V438.598L344.054 439.786L344.45 440.236H343.514V441.73H353ZM353.144 422.698V421.204L352.73 419.548L351.956 418.378L350.768 419.17L351.362 420.106L351.668 421.33V422.41L351.128 423.508L349.958 424.372L349.166 424.606H348.986V417.658H347.096L345.89 418.072L344.234 419.278L343.37 421.096V422.698L344.234 424.498L345.89 425.722L347.204 426.1H349.346L350.624 425.722L352.28 424.498L353.144 422.698ZM347.51 424.606H347.348L346.556 424.39L345.404 423.544L344.846 422.464V421.348L345.422 420.25L346.592 419.386L347.276 419.152H347.51V424.606ZM353.144 412.362V410.832L352.694 409.428L351.542 408.258L350.516 409.302L351.398 410.238L351.668 411.012V412.074L351.128 413.172L349.958 414.036L349.13 414.27H347.402L346.556 414.054L345.404 413.208L344.846 412.128V411.012L345.098 410.202L345.998 409.302L345.008 408.24L343.82 409.428L343.37 410.832V412.362L344.234 414.162L345.89 415.386L347.204 415.764H349.346L350.624 415.386L352.28 414.162L353.144 412.362ZM353.144 403.703V402.587L352.316 400.931L351.848 400.517L353.144 399.653L352.28 398.447L351.272 399.149H345.818L344.594 399.635L343.694 400.967L343.37 402.263V403.937L343.712 405.089L344.27 405.953L344.738 406.457L345.8 405.431L345.458 405.089L345.098 404.531L344.846 403.757V402.479L345.062 401.597L345.548 400.841L346.088 400.643H347.456L347.15 401.075L346.754 402.281V403.433L347.204 405.215L348.536 406.547L349.76 406.799H350.804L352.262 405.791L352.766 404.927L353.144 403.703ZM351.668 403.487L351.416 404.333L351.164 404.747L350.372 405.305H349.886L349.256 405.161L348.554 404.459L348.23 403.271V402.461L348.482 401.579L348.77 401.021L349.166 400.643H349.832L350.39 400.823L351.164 401.561L351.668 402.911V403.487ZM353.144 393.921V392.319L352.784 391.095L352.172 390.231L351.128 389.547H349.598L348.446 390.249L347.762 391.275L347.222 394.029L346.97 394.533L346.484 394.893H345.692L345.26 394.641L345.008 394.335L344.81 393.651V392.445L345.116 391.437L345.71 390.573L344.504 389.763L343.766 390.843L343.37 392.319V393.849L343.676 394.965L344.306 395.775L345.332 396.369H346.934L347.978 395.613L348.59 394.461L349.112 391.869L349.49 391.329L350.012 391.023H350.696L351.146 391.311L351.47 391.761L351.686 392.517V393.723L351.398 394.839L351.02 395.325L350.606 395.667L351.614 396.711L352.082 396.297L352.748 395.451L353.144 393.921ZM353.144 384.412V383.584L352.766 381.91L351.344 382.288L351.668 383.566V384.07L351.416 384.718L350.768 385.168H345.224V382.684H343.748V385.168H340.436V386.662H343.748V388.372H345.224V386.662H351.254L352.676 385.672L353.144 384.412ZM355.412 379.299L352.784 377.787H350.786V379.929H352.712L353 379.191L354.89 380.199L355.412 379.299ZM353 369.503V368.009H347.006L346.142 367.613L345.314 366.875L344.846 365.885V365.111L345.044 364.391L343.622 364.031L343.37 364.931V366.101L343.946 367.325L344.612 368.009H343.514V369.503H353ZM353.144 360.039V358.131L352.28 356.313L350.948 355.413L349.328 355.053H347.204L345.584 355.413L344.252 356.313L343.37 358.131V360.039L344.252 361.857L345.584 362.757L347.204 363.117H349.328L350.948 362.757L352.28 361.857L353.144 360.039ZM351.686 359.787L351.164 360.849L350.354 361.389L349.148 361.623H347.348L346.178 361.389L345.386 360.867L344.846 359.787V358.383L345.386 357.339L346.178 356.781L347.348 356.547H349.148L350.354 356.781L351.164 357.321L351.686 358.383V359.787ZM353 352.45V350.956H349.49L348.338 349.768L353 346.492V344.674L347.312 348.742L343.514 344.854V346.942L347.528 350.956H339.428V352.45H353ZM353.144 340.348V338.89L352.46 337.702L352.046 337.234H353V335.758H343.514V337.252H350.066L350.84 337.81L351.686 339.088V340.114L351.416 341.14L350.66 341.662H343.514V343.156H351.2L352.712 341.986L353.144 340.348ZM355.412 332.067L352.784 330.555H350.786V332.697H352.712L353 331.959L354.89 332.967L355.412 332.067ZM353.144 319.715V318.599L352.316 316.943L351.848 316.529L353.144 315.665L352.28 314.459L351.272 315.161H345.818L344.594 315.647L343.694 316.979L343.37 318.275V319.949L343.712 321.101L344.27 321.965L344.738 322.469L345.8 321.443L345.458 321.101L345.098 320.543L344.846 319.769V318.491L345.062 317.609L345.548 316.853L346.088 316.655H347.456L347.15 317.087L346.754 318.293V319.445L347.204 321.227L348.536 322.559L349.76 322.811H350.804L352.262 321.803L352.766 320.939L353.144 319.715ZM351.668 319.499L351.416 320.345L351.164 320.759L350.372 321.317H349.886L349.256 321.173L348.554 320.471L348.23 319.283V318.473L348.482 317.591L348.77 317.033L349.166 316.655H349.832L350.39 316.835L351.164 317.573L351.668 318.923V319.499ZM355.916 312.003V310.509H352.424L352.748 310.005L353.144 308.925V307.323L352.28 305.523L350.624 304.299L349.31 303.921H347.168L345.89 304.299L344.234 305.523L343.37 307.395V309.015L344.054 310.131L344.468 310.527H343.514V312.003H355.916ZM351.686 308.709L351.452 309.447L351.002 310.131L350.534 310.509H346.448L345.674 309.987L344.846 308.817V307.629L345.386 306.495L346.556 305.631L347.366 305.415H349.112L349.958 305.631L351.11 306.495L351.686 307.557V308.709ZM355.916 301.316V299.822H352.424L352.748 299.318L353.144 298.238V296.636L352.28 294.836L350.624 293.612L349.31 293.234H347.168L345.89 293.612L344.234 294.836L343.37 296.708V298.328L344.054 299.444L344.468 299.84H343.514V301.316H355.916ZM351.686 298.022L351.452 298.76L351.002 299.444L350.534 299.822H346.448L345.674 299.3L344.846 298.13V296.942L345.386 295.808L346.556 294.944L347.366 294.728H349.112L349.958 294.944L351.11 295.808L351.686 296.87V298.022ZM353 290.628V289.134H339.428V290.628H353ZM353.144 283.128V281.634L352.73 279.978L351.956 278.808L350.768 279.6L351.362 280.536L351.668 281.76V282.84L351.128 283.938L349.958 284.802L349.166 285.036H348.986V278.088H347.096L345.89 278.502L344.234 279.708L343.37 281.526V283.128L344.234 284.928L345.89 286.152L347.204 286.53H349.346L350.624 286.152L352.28 284.928L353.144 283.128ZM347.51 285.036H347.348L346.556 284.82L345.404 283.974L344.846 282.894V281.778L345.422 280.68L346.592 279.816L347.276 279.582H347.51V285.036ZM353 268.48V266.986H341.678V263.512H340.202V271.882H341.678V268.48H353ZM353 258.046V256.642L340.202 251.8V253.384L350.732 257.344L340.202 261.304V262.888L353 258.046Z" fill="#FBF9F0"/>
<rect x="478" y="283" width="12" height="197" fill="#FBF9F0"/>
<path d="M457.144 476.31V474.708L456.784 473.484L456.172 472.62L455.128 471.936H453.598L452.446 472.638L451.762 473.664L451.222 476.418L450.97 476.922L450.484 477.282H449.692L449.26 477.03L449.008 476.724L448.81 476.04V474.834L449.116 473.826L449.71 472.962L448.504 472.152L447.766 473.232L447.37 474.708V476.238L447.676 477.354L448.306 478.164L449.332 478.758H450.934L451.978 478.002L452.59 476.85L453.112 474.258L453.49 473.718L454.012 473.412H454.696L455.146 473.7L455.47 474.15L455.686 474.906V476.112L455.398 477.228L455.02 477.714L454.606 478.056L455.614 479.1L456.082 478.686L456.748 477.84L457.144 476.31ZM457 469.415V467.921H450.448L449.674 467.381L448.846 466.085V464.933L449.188 464.015L449.926 463.565H457V462.071H450.52L449.674 461.495L448.846 460.235V459.083L449.152 458.165L449.854 457.715H457V456.221H449.278L447.802 457.319L447.37 458.777V460.433L448.054 461.693L448.738 462.485L447.802 463.169L447.37 464.627V466.283L448.054 467.471L448.45 467.921H447.514V469.415H457ZM457.144 450.689V449.573L456.316 447.917L455.848 447.503L457.144 446.639L456.28 445.433L455.272 446.135H449.818L448.594 446.621L447.694 447.953L447.37 449.249V450.923L447.712 452.075L448.27 452.939L448.738 453.443L449.8 452.417L449.458 452.075L449.098 451.517L448.846 450.743V449.465L449.062 448.583L449.548 447.827L450.088 447.629H451.456L451.15 448.061L450.754 449.267V450.419L451.204 452.201L452.536 453.533L453.76 453.785H454.804L456.262 452.777L456.766 451.913L457.144 450.689ZM455.668 450.473L455.416 451.319L455.164 451.733L454.372 452.291H453.886L453.256 452.147L452.554 451.445L452.23 450.257V449.447L452.482 448.565L452.77 448.007L453.166 447.629H453.832L454.39 447.809L455.164 448.547L455.668 449.897V450.473ZM457 443.068V441.574H451.006L450.142 441.178L449.314 440.44L448.846 439.45V438.676L449.044 437.956L447.622 437.596L447.37 438.496V439.666L447.946 440.89L448.612 441.574H447.514V443.068H457ZM457.144 432.559V431.731L456.766 430.057L455.344 430.435L455.668 431.713V432.217L455.416 432.865L454.768 433.315H449.224V430.831H447.748V433.315H444.436V434.809H447.748V436.519H449.224V434.809H455.254L456.676 433.819L457.144 432.559ZM459.916 427.896V426.402H456.424L456.748 425.898L457.144 424.818V423.216L456.28 421.416L454.624 420.192L453.31 419.814H451.168L449.89 420.192L448.234 421.416L447.37 423.288V424.908L448.054 426.024L448.468 426.42H447.514V427.896H459.916ZM455.686 424.602L455.452 425.34L455.002 426.024L454.534 426.402H450.448L449.674 425.88L448.846 424.71V423.522L449.386 422.388L450.556 421.524L451.366 421.308H453.112L453.958 421.524L455.11 422.388L455.686 423.45V424.602ZM457 417.208V415.714H450.52L449.674 415.138L448.846 413.878V412.726L449.152 411.754L449.854 411.304H457V409.81H449.278L447.802 410.908L447.37 412.42V414.076L448.054 415.282L448.414 415.714H443.428V417.208H457ZM457.144 404.301V402.393L456.28 400.575L454.948 399.675L453.328 399.315H451.204L449.584 399.675L448.252 400.575L447.37 402.393V404.301L448.252 406.119L449.584 407.019L451.204 407.379H453.328L454.948 407.019L456.28 406.119L457.144 404.301ZM455.686 404.049L455.164 405.111L454.354 405.651L453.148 405.885H451.348L450.178 405.651L449.386 405.129L448.846 404.049V402.645L449.386 401.601L450.178 401.043L451.348 400.809H453.148L454.354 401.043L455.164 401.583L455.686 402.645V404.049ZM457 396.712V395.218H450.448L449.674 394.678L448.846 393.382V392.23L449.152 391.168L449.854 390.718H457V389.224H449.278L447.802 390.322L447.37 391.924V393.58L448.054 394.768L448.45 395.218H447.514V396.712H457ZM457.144 383.393V381.899L456.73 380.243L455.956 379.073L454.768 379.865L455.362 380.801L455.668 382.025V383.105L455.128 384.203L453.958 385.067L453.166 385.301H452.986V378.353H451.096L449.89 378.767L448.234 379.973L447.37 381.791V383.393L448.234 385.193L449.89 386.417L451.204 386.795H453.346L454.624 386.417L456.28 385.193L457.144 383.393ZM451.51 385.301H451.348L450.556 385.085L449.404 384.239L448.846 383.159V382.043L449.422 380.945L450.592 380.081L451.276 379.847H451.51V385.301ZM457.144 374.111V372.509L456.784 371.285L456.172 370.421L455.128 369.737H453.598L452.446 370.439L451.762 371.465L451.222 374.219L450.97 374.723L450.484 375.083H449.692L449.26 374.831L449.008 374.525L448.81 373.841V372.635L449.116 371.627L449.71 370.763L448.504 369.953L447.766 371.033L447.37 372.509V374.039L447.676 375.155L448.306 375.965L449.332 376.559H450.934L451.978 375.803L452.59 374.651L453.112 372.059L453.49 371.519L454.012 371.213H454.696L455.146 371.501L455.47 371.951L455.686 372.707V373.913L455.398 375.029L455.02 375.515L454.606 375.857L455.614 376.901L456.082 376.487L456.748 375.641L457.144 374.111Z" fill="#FBF9F0"/>
<rect x="582" y="403" width="12" height="77" fill="#FBF9F0"/>
<path d="M561.144 475.59V474.762L560.766 473.088L559.344 473.466L559.668 474.744V475.248L559.416 475.896L558.768 476.346H553.224V473.862H551.748V476.346H548.436V477.84H551.748V479.55H553.224V477.84H559.254L560.676 476.85L561.144 475.59ZM561.144 468.812V467.696L560.316 466.04L559.848 465.626L561.144 464.762L560.28 463.556L559.272 464.258H553.818L552.594 464.744L551.694 466.076L551.37 467.372V469.046L551.712 470.198L552.27 471.062L552.738 471.566L553.8 470.54L553.458 470.198L553.098 469.64L552.846 468.866V467.588L553.062 466.706L553.548 465.95L554.088 465.752H555.456L555.15 466.184L554.754 467.39V468.542L555.204 470.324L556.536 471.656L557.76 471.908H558.804L560.262 470.9L560.766 470.036L561.144 468.812ZM559.668 468.596L559.416 469.442L559.164 469.856L558.372 470.414H557.886L557.256 470.27L556.554 469.568L556.23 468.38V467.57L556.482 466.688L556.77 466.13L557.166 465.752H557.832L558.39 465.932L559.164 466.67L559.668 468.02V468.596ZM561.144 458.023V456.421L560.28 454.621L558.624 453.397L557.31 453.019H555.168L553.89 453.397L552.234 454.621L551.37 456.493V458.113L552.054 459.211L552.468 459.607H547.428V461.101H561V459.607H560.424L560.748 459.103L561.144 458.023ZM559.686 457.807L559.452 458.545L559.002 459.229L558.534 459.607H554.448L553.674 459.085L552.846 457.915V456.727L553.386 455.593L554.556 454.729L555.366 454.513H557.112L557.958 454.729L559.11 455.593L559.686 456.655V457.807ZM561 450.413V448.919H547.428V450.413H561ZM561.144 442.913V441.419L560.73 439.763L559.956 438.593L558.768 439.385L559.362 440.321L559.668 441.545V442.625L559.128 443.723L557.958 444.587L557.166 444.821H556.986V437.873H555.096L553.89 438.287L552.234 439.493L551.37 441.311V442.913L552.234 444.713L553.89 445.937L555.204 446.315H557.346L558.624 445.937L560.28 444.713L561.144 442.913ZM555.51 444.821H555.348L554.556 444.605L553.404 443.759L552.846 442.679V441.563L553.422 440.465L554.592 439.601L555.276 439.367H555.51V444.821ZM561.144 432.735V431.907L560.766 430.233L559.344 430.611L559.668 431.889V432.393L559.416 433.041L558.768 433.491H553.224V431.007H551.748V433.491H548.436V434.985H551.748V436.695H553.224V434.985H559.254L560.676 433.995L561.144 432.735ZM561.144 426.177V424.575L560.784 423.351L560.172 422.487L559.128 421.803H557.598L556.446 422.505L555.762 423.531L555.222 426.285L554.97 426.789L554.484 427.149H553.692L553.26 426.897L553.008 426.591L552.81 425.907V424.701L553.116 423.693L553.71 422.829L552.504 422.019L551.766 423.099L551.37 424.575V426.105L551.676 427.221L552.306 428.031L553.332 428.625H554.934L555.978 427.869L556.59 426.717L557.112 424.125L557.49 423.585L558.012 423.279H558.696L559.146 423.567L559.47 424.017L559.686 424.773V425.979L559.398 427.095L559.02 427.581L558.606 427.923L559.614 428.967L560.082 428.553L560.748 427.707L561.144 426.177Z" fill="#FBF9F0"/>
<rect x="686" y="462" width="12" height="18" fill="#FBF9F0"/>
<path d="M665 475.878V474.51L655.514 470.748V472.332L662.858 475.194L655.514 478.056V479.64L665 475.878ZM653.642 469.089V466.929H651.428V469.089H653.642ZM665 468.765V467.271H655.514V468.765H665ZM665.144 461.192V459.572L664.46 458.456L664.046 458.06H665V456.584H651.428V458.078H656.09L655.766 458.582L655.37 459.662V461.264L656.234 463.064L657.89 464.288L659.204 464.666H661.346L662.624 464.288L664.28 463.064L665.144 461.192ZM663.668 460.958L663.128 462.092L661.958 462.956L661.148 463.172H659.402L658.556 462.956L657.404 462.092L656.828 461.03V459.878L657.062 459.14L657.512 458.456L657.98 458.078H662.066L662.84 458.6L663.668 459.77V460.958ZM665.144 450.577V449.083L664.73 447.427L663.956 446.257L662.768 447.049L663.362 447.985L663.668 449.209V450.289L663.128 451.387L661.958 452.251L661.166 452.485H660.986V445.537H659.096L657.89 445.951L656.234 447.157L655.37 448.975V450.577L656.234 452.377L657.89 453.601L659.204 453.979H661.346L662.624 453.601L664.28 452.377L665.144 450.577ZM659.51 452.485H659.348L658.556 452.269L657.404 451.423L656.846 450.343V449.227L657.422 448.129L658.592 447.265L659.276 447.031H659.51V452.485ZM665.144 440.565V438.657L664.28 436.839L662.948 435.939L661.328 435.579H659.204L657.584 435.939L656.252 436.839L655.37 438.657V440.565L656.252 442.383L657.584 443.283L659.204 443.643H661.328L662.948 443.283L664.28 442.383L665.144 440.565ZM663.686 440.313L663.164 441.375L662.354 441.915L661.148 442.149H659.348L658.178 441.915L657.386 441.393L656.846 440.313V438.909L657.386 437.865L658.178 437.307L659.348 437.073H661.148L662.354 437.307L663.164 437.847L663.686 438.909V440.313ZM668.024 424.949V423.365L667.574 422.033L666.656 420.665L665.342 420.215H655.514V421.709H656.09L655.766 422.213L655.37 423.293V424.895L656.234 426.695L657.89 427.919L659.204 428.297H660.914L662.192 427.919L663.848 426.659L664.568 424.823V423.203L663.884 422.087L663.524 421.709H665.18L665.72 421.925L666.242 422.699L666.548 423.527V424.805L666.314 425.669L666.008 426.119L665.558 426.569L666.62 427.613L667.106 427.109L667.682 426.227L668.024 424.949ZM663.092 424.589L662.624 425.759L661.49 426.587L660.716 426.803H659.402L658.556 426.587L657.404 425.723L656.828 424.661V423.509L657.062 422.771L657.512 422.087L657.98 421.709H661.418L662.264 422.231L663.092 423.401V424.589ZM665.144 414.514V413.398L664.316 411.742L663.848 411.328L665.144 410.464L664.28 409.258L663.272 409.96H657.818L656.594 410.446L655.694 411.778L655.37 413.074V414.748L655.712 415.9L656.27 416.764L656.738 417.268L657.8 416.242L657.458 415.9L657.098 415.342L656.846 414.568V413.29L657.062 412.408L657.548 411.652L658.088 411.454H659.456L659.15 411.886L658.754 413.092V414.244L659.204 416.026L660.536 417.358L661.76 417.61H662.804L664.262 416.602L664.766 415.738L665.144 414.514ZM663.668 414.298L663.416 415.144L663.164 415.558L662.372 416.116H661.886L661.256 415.972L660.554 415.27L660.23 414.082V413.272L660.482 412.39L660.77 411.832L661.166 411.454H661.832L662.39 411.634L663.164 412.372L663.668 413.722V414.298ZM665 406.802V405.308H658.448L657.674 404.768L656.846 403.472V402.32L657.188 401.402L657.926 400.952H665V399.458H658.52L657.674 398.882L656.846 397.622V396.47L657.152 395.552L657.854 395.102H665V393.608H657.278L655.802 394.706L655.37 396.164V397.82L656.054 399.08L656.738 399.872L655.802 400.556L655.37 402.014V403.67L656.054 404.858L656.45 405.308H655.514V406.802H665ZM665.144 387.77V386.276L664.73 384.62L663.956 383.45L662.768 384.242L663.362 385.178L663.668 386.402V387.482L663.128 388.58L661.958 389.444L661.166 389.678H660.986V382.73H659.096L657.89 383.144L656.234 384.35L655.37 386.168V387.77L656.234 389.57L657.89 390.794L659.204 391.172H661.346L662.624 390.794L664.28 389.57L665.144 387.77ZM659.51 389.678H659.348L658.556 389.462L657.404 388.616L656.846 387.536V386.42L657.422 385.322L658.592 384.458L659.276 384.224H659.51V389.678ZM665.144 372.126V370.596L664.694 369.192L663.542 368.022L662.516 369.066L663.398 370.002L663.668 370.776V371.838L663.128 372.936L661.958 373.8L661.13 374.034H659.402L658.556 373.818L657.404 372.972L656.846 371.892V370.776L657.098 369.966L657.998 369.066L657.008 368.004L655.82 369.192L655.37 370.596V372.126L656.234 373.926L657.89 375.15L659.204 375.528H661.346L662.624 375.15L664.28 373.926L665.144 372.126ZM665.144 363.678V361.77L664.28 359.952L662.948 359.052L661.328 358.692H659.204L657.584 359.052L656.252 359.952L655.37 361.77V363.678L656.252 365.496L657.584 366.396L659.204 366.756H661.328L662.948 366.396L664.28 365.496L665.144 363.678ZM663.686 363.426L663.164 364.488L662.354 365.028L661.148 365.262H659.348L658.178 365.028L657.386 364.506L656.846 363.426V362.022L657.386 360.978L658.178 360.42L659.348 360.186H661.148L662.354 360.42L663.164 360.96L663.686 362.022V363.426ZM665 356.089V354.595H658.448L657.674 354.055L656.846 352.759V351.607L657.152 350.545L657.854 350.095H665V348.601H657.278L655.802 349.699L655.37 351.301V352.957L656.054 354.145L656.45 354.595H655.514V356.089H665ZM665.144 343.472V341.87L664.784 340.646L664.172 339.782L663.128 339.098H661.598L660.446 339.8L659.762 340.826L659.222 343.58L658.97 344.084L658.484 344.444H657.692L657.26 344.192L657.008 343.886L656.81 343.202V341.996L657.116 340.988L657.71 340.124L656.504 339.314L655.766 340.394L655.37 341.87V343.4L655.676 344.516L656.306 345.326L657.332 345.92H658.934L659.978 345.164L660.59 344.012L661.112 341.42L661.49 340.88L662.012 340.574H662.696L663.146 340.862L663.47 341.312L663.686 342.068V343.274L663.398 344.39L663.02 344.876L662.606 345.218L663.614 346.262L664.082 345.848L664.748 345.002L665.144 343.472ZM665.144 334.129V332.221L664.28 330.403L662.948 329.503L661.328 329.143H659.204L657.584 329.503L656.252 330.403L655.37 332.221V334.129L656.252 335.947L657.584 336.847L659.204 337.207H661.328L662.948 336.847L664.28 335.947L665.144 334.129ZM663.686 333.877L663.164 334.939L662.354 335.479L661.148 335.713H659.348L658.178 335.479L657.386 334.957L656.846 333.877V332.473L657.386 331.429L658.178 330.871L659.348 330.637H661.148L662.354 330.871L663.164 331.411L663.686 332.473V333.877ZM665 326.54V325.046H651.428V326.54H665ZM665.144 319.04V317.546L664.73 315.89L663.956 314.72L662.768 315.512L663.362 316.448L663.668 317.672V318.752L663.128 319.85L661.958 320.714L661.166 320.948H660.986V314H659.096L657.89 314.414L656.234 315.62L655.37 317.438V319.04L656.234 320.84L657.89 322.064L659.204 322.442H661.346L662.624 322.064L664.28 320.84L665.144 319.04ZM659.51 320.948H659.348L658.556 320.732L657.404 319.886L656.846 318.806V317.69L657.422 316.592L658.592 315.728L659.276 315.494H659.51V320.948Z" fill="#FBF9F0"/>
<rect x="790" y="332" width="12" height="148" fill="#FBF9F0"/>
<path d="M769.144 475.59V474.762L768.766 473.088L767.344 473.466L767.668 474.744V475.248L767.416 475.896L766.768 476.346H761.224V473.862H759.748V476.346H756.436V477.84H759.748V479.55H761.224V477.84H767.254L768.676 476.85L769.144 475.59ZM769 471.017V469.523H763.006L762.142 469.127L761.314 468.389L760.846 467.399V466.625L761.044 465.905L759.622 465.545L759.37 466.445V467.615L759.946 468.839L760.612 469.523H759.514V471.017H769ZM769.144 461.359V460.243L768.316 458.587L767.848 458.173L769.144 457.309L768.28 456.103L767.272 456.805H761.818L760.594 457.291L759.694 458.623L759.37 459.919V461.593L759.712 462.745L760.27 463.609L760.738 464.113L761.8 463.087L761.458 462.745L761.098 462.187L760.846 461.413V460.135L761.062 459.253L761.548 458.497L762.088 458.299H763.456L763.15 458.731L762.754 459.937V461.089L763.204 462.871L764.536 464.203L765.76 464.455H766.804L768.262 463.447L768.766 462.583L769.144 461.359ZM767.668 461.143L767.416 461.989L767.164 462.403L766.372 462.961H765.886L765.256 462.817L764.554 462.115L764.23 460.927V460.117L764.482 459.235L764.77 458.677L765.166 458.299H765.832L766.39 458.479L767.164 459.217L767.668 460.567V461.143ZM769.144 450.804V449.184L768.46 448.068L768.046 447.672H769V446.196H755.428V447.69H760.09L759.766 448.194L759.37 449.274V450.876L760.234 452.676L761.89 453.9L763.204 454.278H765.346L766.624 453.9L768.28 452.676L769.144 450.804ZM767.668 450.57L767.128 451.704L765.958 452.568L765.148 452.784H763.402L762.556 452.568L761.404 451.704L760.828 450.642V449.49L761.062 448.752L761.512 448.068L761.98 447.69H766.066L766.84 448.212L767.668 449.382V450.57ZM757.642 443.284V441.124H755.428V443.284H757.642ZM769 442.96V441.466H759.514V442.96H769ZM769.144 435.442V434.614L768.766 432.94L767.344 433.318L767.668 434.596V435.1L767.416 435.748L766.768 436.198H761.224V433.714H759.748V436.198H756.436V437.692H759.748V439.402H761.224V437.692H767.254L768.676 436.702L769.144 435.442ZM757.642 431.366V429.206H755.428V431.366H757.642ZM769 431.042V429.548H759.514V431.042H769ZM769.144 423.866V421.958L768.28 420.14L766.948 419.24L765.328 418.88H763.204L761.584 419.24L760.252 420.14L759.37 421.958V423.866L760.252 425.684L761.584 426.584L763.204 426.944H765.328L766.948 426.584L768.28 425.684L769.144 423.866ZM767.686 423.614L767.164 424.676L766.354 425.216L765.148 425.45H763.348L762.178 425.216L761.386 424.694L760.846 423.614V422.21L761.386 421.166L762.178 420.608L763.348 420.374H765.148L766.354 420.608L767.164 421.148L767.686 422.21V423.614ZM769 416.276V414.782H762.448L761.674 414.242L760.846 412.946V411.794L761.152 410.732L761.854 410.282H769V408.788H761.278L759.802 409.886L759.37 411.488V413.144L760.054 414.332L760.45 414.782H759.514V416.276H769ZM769.144 403.264V402.148L768.316 400.492L767.848 400.078L769.144 399.214L768.28 398.008L767.272 398.71H761.818L760.594 399.196L759.694 400.528L759.37 401.824V403.498L759.712 404.65L760.27 405.514L760.738 406.018L761.8 404.992L761.458 404.65L761.098 404.092L760.846 403.318V402.04L761.062 401.158L761.548 400.402L762.088 400.204H763.456L763.15 400.636L762.754 401.842V402.994L763.204 404.776L764.536 406.108L765.76 406.36H766.804L768.262 405.352L768.766 404.488L769.144 403.264ZM767.668 403.048L767.416 403.894L767.164 404.308L766.372 404.866H765.886L765.256 404.722L764.554 404.02L764.23 402.832V402.022L764.482 401.14L764.77 400.582L765.166 400.204H765.832L766.39 400.384L767.164 401.122L767.668 402.472V403.048ZM769 395.552V394.058H755.428V395.552H769ZM769 385.515V384.021H755.428V385.515H769ZM757.642 381.11V378.95H755.428V381.11H757.642ZM769 380.786V379.292H759.514V380.786H769ZM769 373.556V372.188L759.514 368.426V370.01L766.858 372.872L759.514 375.734V377.318L769 373.556ZM769.144 364.022V362.528L768.73 360.872L767.956 359.702L766.768 360.494L767.362 361.43L767.668 362.654V363.734L767.128 364.832L765.958 365.696L765.166 365.93H764.986V358.982H763.096L761.89 359.396L760.234 360.602L759.37 362.42V364.022L760.234 365.822L761.89 367.046L763.204 367.424H765.346L766.624 367.046L768.28 365.822L769.144 364.022ZM763.51 365.93H763.348L762.556 365.714L761.404 364.868L760.846 363.788V362.672L761.422 361.574L762.592 360.71L763.276 360.476H763.51V365.93ZM769 349.375V347.881H757.678V344.407H756.202V352.777H757.678V349.375H769ZM769 338.941V337.537L756.202 332.695V334.279L766.732 338.239L756.202 342.199V343.783L769 338.941Z" fill="#FBF9F0"/>
<rect x="894" y="427" width="12" height="53" fill="#FBF9F0"/>
<path d="M861.642 478.704V476.544H859.428V478.704H861.642ZM873 478.38V476.886H863.514V478.38H873ZM873 473.651V472.157H866.448L865.674 471.617L864.846 470.321V469.169L865.152 468.107L865.854 467.657H873V466.163H865.278L863.802 467.261L863.37 468.863V470.519L864.054 471.707L864.45 472.157H863.514V473.651H873ZM873.144 460.315V459.487L872.766 457.813L871.344 458.191L871.668 459.469V459.973L871.416 460.621L870.768 461.071H865.224V458.587H863.748V461.071H860.436V462.565H863.748V464.275H865.224V462.565H871.254L872.676 461.575L873.144 460.315ZM873.144 453.231V451.737L872.73 450.081L871.956 448.911L870.768 449.703L871.362 450.639L871.668 451.863V452.943L871.128 454.041L869.958 454.905L869.166 455.139H868.986V448.191H867.096L865.89 448.605L864.234 449.811L863.37 451.629V453.231L864.234 455.031L865.89 456.255L867.204 456.633H869.346L870.624 456.255L872.28 455.031L873.144 453.231ZM867.51 455.139H867.348L866.556 454.923L865.404 454.077L864.846 452.997V451.881L865.422 450.783L866.592 449.919L867.276 449.685H867.51V455.139ZM873 445.757V444.263H867.006L866.142 443.867L865.314 443.129L864.846 442.139V441.365L865.044 440.645L863.622 440.285L863.37 441.185V442.355L863.946 443.579L864.612 444.263H863.514V445.757H873ZM873 438.39V436.896H866.448L865.674 436.356L864.846 435.06V433.908L865.152 432.846L865.854 432.396H873V430.902H865.278L863.802 432L863.37 433.602V435.258L864.054 436.446L864.45 436.896H863.514V438.39H873ZM873.144 425.071V423.577L872.73 421.921L871.956 420.751L870.768 421.543L871.362 422.479L871.668 423.703V424.783L871.128 425.881L869.958 426.745L869.166 426.979H868.986V420.031H867.096L865.89 420.445L864.234 421.651L863.37 423.469V425.071L864.234 426.871L865.89 428.095L867.204 428.473H869.346L870.624 428.095L872.28 426.871L873.144 425.071ZM867.51 426.979H867.348L866.556 426.763L865.404 425.917L864.846 424.837V423.721L865.422 422.623L866.592 421.759L867.276 421.525H867.51V426.979ZM873.144 414.893V414.065L872.766 412.391L871.344 412.769L871.668 414.047V414.551L871.416 415.199L870.768 415.649H865.224V413.165H863.748V415.649H860.436V417.143H863.748V418.853H865.224V417.143H871.254L872.676 416.153L873.144 414.893ZM873.144 402.325V400.831L872.73 399.175L871.956 398.005L870.768 398.797L871.362 399.733L871.668 400.957V402.037L871.128 403.135L869.958 403.999L869.166 404.233H868.986V397.285H867.096L865.89 397.699L864.234 398.905L863.37 400.723V402.325L864.234 404.125L865.89 405.349L867.204 405.727H869.346L870.624 405.349L872.28 404.125L873.144 402.325ZM867.51 404.233H867.348L866.556 404.017L865.404 403.171L864.846 402.091V400.975L865.422 399.877L866.592 399.013L867.276 398.779H867.51V404.233ZM873 394.761V393.267H866.448L865.674 392.727L864.846 391.431V390.279L865.152 389.217L865.854 388.767H873V387.273H865.278L863.802 388.371L863.37 389.973V391.629L864.054 392.817L864.45 393.267H863.514V394.761H873ZM873.144 381.748V380.632L872.316 378.976L871.848 378.562L873.144 377.698L872.28 376.492L871.272 377.194H865.818L864.594 377.68L863.694 379.012L863.37 380.308V381.982L863.712 383.134L864.27 383.998L864.738 384.502L865.8 383.476L865.458 383.134L865.098 382.576L864.846 381.802V380.524L865.062 379.642L865.548 378.886L866.088 378.688H867.456L867.15 379.12L866.754 380.326V381.478L867.204 383.26L868.536 384.592L869.76 384.844H870.804L872.262 383.836L872.766 382.972L873.144 381.748ZM871.668 381.532L871.416 382.378L871.164 382.792L870.372 383.35H869.886L869.256 383.206L868.554 382.504L868.23 381.316V380.506L868.482 379.624L868.77 379.066L869.166 378.688H869.832L870.39 378.868L871.164 379.606L871.668 380.956V381.532ZM873.144 370.958V369.356L872.28 367.556L870.624 366.332L869.31 365.954H867.168L865.89 366.332L864.234 367.556L863.37 369.428V371.048L864.054 372.146L864.468 372.542H859.428V374.036H873V372.542H872.424L872.748 372.038L873.144 370.958ZM871.686 370.742L871.452 371.48L871.002 372.164L870.534 372.542H866.448L865.674 372.02L864.846 370.85V369.662L865.386 368.528L866.556 367.664L867.366 367.448H869.112L869.958 367.664L871.11 368.528L871.686 369.59V370.742ZM873 363.349V361.855H859.428V363.349H873ZM873.144 355.848V354.354L872.73 352.698L871.956 351.528L870.768 352.32L871.362 353.256L871.668 354.48V355.56L871.128 356.658L869.958 357.522L869.166 357.756H868.986V350.808H867.096L865.89 351.222L864.234 352.428L863.37 354.246V355.848L864.234 357.648L865.89 358.872L867.204 359.25H869.346L870.624 358.872L872.28 357.648L873.144 355.848ZM867.51 357.756H867.348L866.556 357.54L865.404 356.694L864.846 355.614V354.498L865.422 353.4L866.592 352.536L867.276 352.302H867.51V357.756ZM873.144 345.44V343.82L872.46 342.704L872.046 342.308H873V340.832H859.428V342.326H864.09L863.766 342.83L863.37 343.91V345.512L864.234 347.312L865.89 348.536L867.204 348.914H869.346L870.624 348.536L872.28 347.312L873.144 345.44ZM871.668 345.206L871.128 346.34L869.958 347.204L869.148 347.42H867.402L866.556 347.204L865.404 346.34L864.828 345.278V344.126L865.062 343.388L865.512 342.704L865.98 342.326H870.066L870.84 342.848L871.668 344.018V345.206ZM873 330.513V329.019H861.678V325.545H860.202V333.915H861.678V330.513H873ZM873 320.08V318.676L860.202 313.834V315.418L870.732 319.378L860.202 323.338V324.922L873 320.08Z" fill="#FBF9F0"/>
<path d="M216 474V502H728V474" stroke="#FFC800" stroke-width="2" stroke-linecap="round"/>
<path d="M354.077 527H357.797V520.784C357.797 519.128 358.637 518.144 359.981 518.144C361.181 518.144 361.757 518.864 361.757 520.184V527H365.477V519.392C365.477 516.344 364.085 514.736 361.373 514.736C359.405 514.736 358.061 515.936 357.389 518.24H356.909L357.797 515.096V510.2H354.077V527ZM368.444 527H372.164V515.096H368.444V527ZM368.348 513.632H372.284V510.512H368.348V513.632ZM380.517 531.656C384.573 531.656 386.589 529.52 386.589 525.176V515.096H382.917L383.925 518.264H383.445C382.845 515.888 381.381 514.736 379.533 514.736C377.925 514.736 376.581 515.456 375.717 516.68C375.045 517.664 374.661 518.96 374.661 520.496C374.661 522.008 375.045 523.304 375.717 524.288C376.581 525.512 377.925 526.232 379.533 526.232C381.381 526.232 382.845 525.08 383.445 522.704H383.925L382.869 525.92V526.352C382.869 527.96 381.981 528.8 380.517 528.8C379.053 528.8 378.381 528.152 378.261 527.12H374.661C374.781 529.976 376.725 531.656 380.517 531.656ZM378.357 520.496C378.357 519.752 378.501 519.176 378.861 518.672C379.269 518.072 379.917 517.76 380.685 517.76C381.477 517.76 382.101 518.072 382.509 518.672C382.869 519.176 383.013 519.752 383.013 520.496C383.013 521.216 382.869 521.792 382.509 522.296C382.101 522.896 381.477 523.208 380.685 523.208C379.917 523.208 379.269 522.896 378.861 522.296C378.501 521.792 378.357 521.216 378.357 520.496ZM389.725 527H393.445V520.784C393.445 519.128 394.285 518.144 395.629 518.144C396.829 518.144 397.405 518.864 397.405 520.184V527H401.125V519.392C401.125 516.344 399.733 514.736 397.021 514.736C395.053 514.736 393.709 515.936 393.037 518.24H392.557L393.445 515.096V510.2H389.725V527ZM409.372 527.36C412.372 527.36 414.58 525.728 414.988 523.304H411.268C410.98 524.12 410.236 524.528 409.3 524.528C408.364 524.528 407.74 524.216 407.332 523.64C407.044 523.232 406.876 522.68 406.78 522.008H414.964V521.048C414.964 517.064 412.9 514.736 409.204 514.736C407.164 514.736 405.412 515.552 404.356 517.064C403.636 518.096 403.204 519.464 403.204 521.096C403.204 522.704 403.588 524.024 404.308 525.056C405.34 526.568 407.068 527.36 409.372 527.36ZM406.828 519.728C406.9 519.224 407.068 518.792 407.308 518.456C407.74 517.808 408.412 517.496 409.204 517.496C410.596 517.496 411.364 518.264 411.412 519.728H406.828ZM421.583 527.36C423.431 527.36 424.799 526.856 425.663 525.992C426.287 525.368 426.623 524.576 426.623 523.544C426.623 521.504 425.543 520.4 423.023 519.824L421.463 519.488C420.527 519.272 420.167 518.96 420.167 518.432C420.167 518.168 420.263 517.952 420.407 517.784C420.671 517.544 421.055 517.424 421.631 517.424C422.687 517.424 423.311 517.928 423.311 518.864V518.984H426.767V518.864C426.767 516.296 424.943 514.76 421.751 514.76C419.903 514.76 418.511 515.24 417.623 516.104C416.999 516.728 416.687 517.544 416.687 518.504C416.687 520.472 417.767 521.648 419.855 522.104L421.871 522.56C422.759 522.728 423.095 523.088 423.095 523.64C423.095 523.928 422.999 524.144 422.831 524.312C422.591 524.552 422.183 524.672 421.631 524.672C420.575 524.672 419.975 524.192 419.975 523.28V523.16H416.519V523.28C416.519 525.872 418.367 527.36 421.583 527.36ZM434.784 527.36C437.736 527.36 439.632 525.584 439.632 522.728V520.904H435.888V522.632C435.888 523.736 435.576 524.168 434.832 524.168C434.232 524.168 433.824 523.736 433.824 522.8V518.096H439.632V515.096H433.824V511.664L430.104 513.32V515.096H427.944V518.096H430.104V522.872C430.104 525.776 431.688 527.36 434.784 527.36ZM453.391 527.36C455.671 527.36 457.543 526.424 458.647 524.816C459.343 523.784 459.727 522.512 459.727 521.048C459.727 519.584 459.343 518.312 458.647 517.28C457.543 515.672 455.671 514.736 453.391 514.736C451.111 514.736 449.263 515.672 448.159 517.28C447.463 518.312 447.079 519.584 447.079 521.048C447.079 522.512 447.463 523.784 448.159 524.816C449.263 526.424 451.111 527.36 453.391 527.36ZM450.823 521.048C450.823 520.232 451.039 519.536 451.375 519.032C451.831 518.36 452.551 517.976 453.391 517.976C454.255 517.976 454.951 518.36 455.407 519.032C455.767 519.536 455.959 520.232 455.959 521.048C455.959 521.864 455.767 522.56 455.407 523.064C454.951 523.736 454.255 524.12 453.391 524.12C452.551 524.12 451.831 523.736 451.375 523.064C451.039 522.56 450.823 521.864 450.823 521.048ZM462.053 531.32H465.773V527L464.885 523.856H465.365C466.037 526.088 467.405 527.36 469.469 527.36C471.125 527.36 472.493 526.64 473.381 525.344C474.101 524.264 474.509 522.8 474.509 521.048C474.509 519.296 474.101 517.832 473.381 516.752C472.493 515.48 471.125 514.736 469.469 514.736C467.405 514.736 466.037 516.008 465.365 518.24H464.885L465.773 515.096H462.053V531.32ZM465.725 521.048C465.725 520.184 465.941 519.464 466.301 518.936C466.757 518.312 467.429 517.976 468.245 517.976C469.061 517.976 469.733 518.312 470.165 518.936C470.549 519.464 470.765 520.184 470.765 521.048C470.765 521.936 470.549 522.656 470.165 523.16C469.733 523.784 469.061 524.12 468.245 524.12C467.429 524.12 466.757 523.784 466.301 523.16C465.941 522.656 465.725 521.936 465.725 521.048ZM477.006 531.32H480.726V527L479.838 523.856H480.318C480.99 526.088 482.358 527.36 484.422 527.36C486.078 527.36 487.446 526.64 488.334 525.344C489.054 524.264 489.462 522.8 489.462 521.048C489.462 519.296 489.054 517.832 488.334 516.752C487.446 515.48 486.078 514.736 484.422 514.736C482.358 514.736 480.99 516.008 480.318 518.24H479.838L480.726 515.096H477.006V531.32ZM480.678 521.048C480.678 520.184 480.894 519.464 481.254 518.936C481.71 518.312 482.382 517.976 483.198 517.976C484.014 517.976 484.686 518.312 485.118 518.936C485.502 519.464 485.718 520.184 485.718 521.048C485.718 521.936 485.502 522.656 485.118 523.16C484.686 523.784 484.014 524.12 483.198 524.12C482.382 524.12 481.71 523.784 481.254 523.16C480.894 522.656 480.678 521.936 480.678 521.048ZM497.384 527.36C499.664 527.36 501.536 526.424 502.64 524.816C503.336 523.784 503.72 522.512 503.72 521.048C503.72 519.584 503.336 518.312 502.64 517.28C501.536 515.672 499.664 514.736 497.384 514.736C495.104 514.736 493.256 515.672 492.152 517.28C491.456 518.312 491.072 519.584 491.072 521.048C491.072 522.512 491.456 523.784 492.152 524.816C493.256 526.424 495.104 527.36 497.384 527.36ZM494.816 521.048C494.816 520.232 495.032 519.536 495.368 519.032C495.824 518.36 496.544 517.976 497.384 517.976C498.248 517.976 498.944 518.36 499.4 519.032C499.76 519.536 499.952 520.232 499.952 521.048C499.952 521.864 499.76 522.56 499.4 523.064C498.944 523.736 498.248 524.12 497.384 524.12C496.544 524.12 495.824 523.736 495.368 523.064C495.032 522.56 494.816 521.864 494.816 521.048ZM506.046 527H509.766V520.568C509.766 518.984 510.318 518.168 511.254 518.168C512.094 518.168 512.502 518.672 512.502 519.944V521.528H516.294V518.744C516.294 516.176 515.214 514.736 513.102 514.736C511.182 514.736 509.958 515.84 509.166 518.528H508.662L509.718 515.096H506.046V527ZM523.917 527.36C526.869 527.36 528.765 525.584 528.765 522.728V520.904H525.021V522.632C525.021 523.736 524.709 524.168 523.965 524.168C523.365 524.168 522.957 523.736 522.957 522.8V518.096H528.765V515.096H522.957V511.664L519.237 513.32V515.096H517.077V518.096H519.237V522.872C519.237 525.776 520.821 527.36 523.917 527.36ZM534.985 527.36C536.905 527.36 538.177 526.184 538.825 523.856H539.329L538.417 527H542.137V515.096H538.417V521.312C538.417 522.968 537.625 523.952 536.377 523.952C535.249 523.952 534.697 523.256 534.697 521.912V515.096H530.977V522.704C530.977 525.752 532.321 527.36 534.985 527.36ZM545.35 527H549.07V520.784C549.07 519.128 549.91 518.144 551.254 518.144C552.454 518.144 553.03 518.864 553.03 520.184V527H556.75V519.392C556.75 516.344 555.334 514.736 552.622 514.736C550.654 514.736 549.334 515.936 548.662 518.24H548.182L549.07 515.096H545.35V527ZM559.717 527H563.437V515.096H559.717V527ZM559.621 513.632H563.557V510.512H559.621V513.632ZM572.175 527.36C575.127 527.36 577.023 525.584 577.023 522.728V520.904H573.279V522.632C573.279 523.736 572.967 524.168 572.223 524.168C571.623 524.168 571.215 523.736 571.215 522.8V518.096H577.023V515.096H571.215V511.664L567.495 513.32V515.096H565.335V518.096H567.495V522.872C567.495 525.776 569.079 527.36 572.175 527.36ZM582.763 531.656C585.259 531.656 586.843 530.432 587.659 527.624L591.235 515.096H587.227L585.091 523.784H584.659L582.211 515.096H578.203L581.611 525.896H584.563L584.155 527.576C583.939 528.464 583.411 528.824 582.715 528.824C582.043 528.824 581.659 528.488 581.659 527.96V527.792H578.035V528.032C578.035 530.384 579.883 531.656 582.763 531.656Z" fill="#FFC800"/>
<path d="M181.192 229.888V227.416L180.064 224.92L177.88 223.264L175.768 222.664H168.736L166.864 223.192L164.992 224.488L163.744 226.984V229.816L165.016 232.336L166.792 233.608L168.496 234.064H170.512L172.096 233.608L173.944 232.384L175.216 229.816V227.464L174.4 225.496L174.184 225.256H175.36L176.752 225.64C177.208 225.976 177.568 226.288 177.976 226.624L178.6 228.016V229.288L177.88 230.824L176.92 231.76L178.792 233.608L180.04 232.336L181.192 229.888ZM172.648 229.264L171.952 230.56L171.04 231.208L170.224 231.448H168.832L167.776 231.136L167.008 230.584L166.336 229.24V227.584L167.008 226.216C167.32 226 167.608 225.784 167.92 225.592L169.072 225.256H170.728L171.208 225.496L172.048 226.456L172.648 227.92V229.264ZM181 216.182V213.59H163.936V215.03L166.984 221.078L169.312 219.926L167.392 216.182H181Z" fill="#FFC800"/>
<path d="M285.192 374.632V372.016L284.064 369.472L282.36 367.864L280.416 367.144H278.64L276.696 367.888L275.04 369.544L274.296 371.464L269.904 368.224H267.936V377.224H270.504V371.8L274.464 374.656H276.432V372.88L277.2 371.008L278.112 370.12L279.048 369.76H280.056L281.04 370.168L281.88 370.96L282.6 372.592V374.128L282 375.544L280.92 376.624L282.792 378.496L284.16 377.032L285.192 374.632ZM285 365.392V354.736H282.432V361.648L276.12 355.96L273.96 354.904H271.56L269.016 356.512L267.744 359.104V361.744L268.872 364.264L270.264 365.584L272.112 363.736L271.056 362.728L270.336 361.192V359.728L271.008 358.312L272.328 357.52H273.408L274.704 358.168L282.84 365.392H285Z" fill="#FFC800"/>
<path d="M389 422.104V419.512H371.936V420.952L374.984 427L377.312 425.848L375.392 422.104H389ZM389 416.907V406.251H386.432V413.163L380.12 407.475L377.96 406.419H375.56L373.016 408.027L371.744 410.619V413.259L372.872 415.779L374.264 417.099L376.112 415.251L375.056 414.243L374.336 412.707V411.243L375.008 409.827L376.328 409.035H377.408L378.704 409.683L386.84 416.907H389Z" fill="#FFC800"/>
<path d="M493.192 253.096V250.912L492.472 248.56L490.84 246.88L488.992 246.328H486.736L484.888 246.928L483.736 248.152L483.04 247.384L481.312 246.688H479.56L477.688 247.312L476.416 248.824L475.744 251.08V252.904L476.416 255.16L477.688 256.696L479.56 257.296H481.312L483.04 256.624L483.712 255.856L484.888 257.08L486.736 257.68H488.944L490.84 257.128L492.472 255.448L493.192 253.096ZM482.512 252.976L482.272 253.816L481.6 254.464L480.904 254.704H479.896L479.152 254.44L478.672 253.864L478.336 252.592V251.416L478.672 250.144L479.152 249.568L479.896 249.304H480.904L481.576 249.52L482.248 250.192L482.512 250.984V252.976ZM490.6 252.808L490.216 254.032L489.424 254.848L488.536 255.064H487.048L486.232 254.824L485.392 253.984L485.056 253.096V250.912L485.392 250L486.256 249.184L487.072 248.92H488.584L489.424 249.16L490.216 249.952L490.6 251.2V252.808ZM493 237.592V235H488.752V232.528H486.184V235H475.936V237.328L486.856 244.984H488.752V237.592H493ZM486.184 241.552L480.76 237.592H486.184V241.552Z" fill="#FFC800"/>
<path d="M597.192 374.632V372.016L596.064 369.472L594.36 367.864L592.416 367.144H590.64L588.696 367.888L587.04 369.544L586.296 371.464L581.904 368.224H579.936V377.224H582.504V371.8L586.464 374.656H588.432V372.88L589.2 371.008L590.112 370.12L591.048 369.76H592.056L593.04 370.168L593.88 370.96L594.6 372.592V374.128L594 375.544L592.92 376.624L594.792 378.496L596.16 377.032L597.192 374.632ZM597.192 361.966V359.35L596.064 356.806L594.36 355.198L592.416 354.478H590.424L588.456 355.222L586.776 356.902L585.912 359.158V362.11L585.96 362.302L582.504 361.774V355.63H579.936V364.03L587.64 365.086L589.008 363.214L588.48 361.702V359.662L588.96 358.438L589.968 357.43L590.856 357.094H592.032L593.016 357.502L593.88 358.294L594.6 359.926V361.462L594 362.902L592.92 363.982L594.792 365.83L596.16 364.366L597.192 361.966Z" fill="#FFC800"/>
<path d="M701 436.584V433.656L685.76 426.888H683.936V437.304H686.504V430.008L701 436.584Z" fill="#FFC800"/>
<path d="M805.192 302.096V299.264L803.92 296.744L802.144 295.472L800.44 295.016H798.352L796.768 295.448L794.92 296.72L793.648 299.264V301.544L794.488 303.608L794.704 303.824H793.696L792.256 303.44C791.824 303.128 791.44 302.768 791.008 302.456L790.336 301.04V299.792L791.056 298.232L791.992 297.296L790.144 295.448L788.896 296.744L787.744 299.192V301.64L788.944 304.184L791.128 305.816L793.288 306.416H800.2L802.072 305.888L803.944 304.592L805.192 302.096ZM802.6 301.496L801.928 302.84L801.04 303.488L799.864 303.824H798.112L797.656 303.536L796.84 302.552L796.216 301.088V299.816L796.912 298.52L797.824 297.872L798.664 297.608H800.104L801.184 297.968L801.928 298.496L802.6 299.84V301.496ZM805.192 287.526V285.174L804.136 282.942L802.432 281.238L800.344 280.374L798.184 279.99H794.752L792.592 280.374L790.504 281.238L788.8 282.942L787.744 285.174V287.526L788.8 289.782L790.504 291.462L792.592 292.326L794.752 292.71H798.184L800.344 292.326L802.432 291.462L804.136 289.782L805.192 287.526ZM802.6 286.974L802 288.222L800.896 289.254L799.624 289.782L797.896 290.118H794.944L793.336 289.782L791.992 289.278L790.96 288.246L790.336 286.95V285.75L790.96 284.478L791.992 283.422L793.336 282.918L794.944 282.582H797.896L799.624 282.942L800.92 283.446L802 284.502L802.6 285.75V286.974Z" fill="#FFC800"/>
<path d="M909 402.376V391.72H906.432V398.632L900.12 392.944L897.96 391.888H895.56L893.016 393.496L891.744 396.088V398.728L892.872 401.248L894.264 402.568L896.112 400.72L895.056 399.712L894.336 398.176V396.712L895.008 395.296L896.328 394.504H897.408L898.704 395.152L906.84 402.376H909ZM909.192 386.515V383.899L908.064 381.355L906.36 379.747L904.416 379.027H902.64L900.696 379.771L899.04 381.427L898.296 383.347L893.904 380.107H891.936V389.107H894.504V383.683L898.464 386.539H900.432V384.763L901.2 382.891L902.112 382.003L903.048 381.643H904.056L905.04 382.051L905.88 382.843L906.6 384.475V386.011L906 387.427L904.92 388.507L906.792 390.379L908.16 388.915L909.192 386.515Z" fill="#FFC800"/>
</g>
<defs>
<clipPath id="clip0_79_316">
<rect width="1024" height="576" fill="white"/>
</clipPath>
</defs>
</svg>
