<svg width="1024" height="576" viewBox="0 0 1024 576" fill="none" xmlns="http://www.w3.org/2000/svg">
<g clip-path="url(#clip0_79_431)">
<path d="M244.548 113.808C242.436 113.808 240.9 112.656 240.252 110.832C239.988 110.136 239.892 109.416 239.892 108.6C239.892 107.784 239.988 107.04 240.252 106.368C240.9 104.544 242.436 103.368 244.548 103.368C246.684 103.368 248.196 104.544 248.868 106.368C249.108 107.04 249.228 107.784 249.228 108.6C249.228 109.416 249.108 110.136 248.868 110.832C248.196 112.704 246.66 113.808 244.548 113.808ZM235.788 108.6C235.788 109.848 235.98 111 236.34 112.032C237.42 115.08 239.964 117.024 243.396 117.36V117.672C243.396 120.096 244.644 121.08 247.02 121.08H250.572V117.984H246.204V117.312C249.396 116.832 251.724 114.888 252.756 112.032C253.14 111 253.332 109.848 253.332 108.6C253.332 107.352 253.14 106.2 252.756 105.168C251.58 101.832 248.58 99.768 244.548 99.768C240.54 99.768 237.54 101.832 236.34 105.168C235.98 106.2 235.788 107.352 235.788 108.6ZM254.805 117H259.197V112.944H254.805V117ZM269.251 117H275.563L277.363 104.688L277.387 102.72H277.867L277.915 104.688L279.715 117H286.027L288.883 100.2H284.779L282.859 112.704L282.811 114.72H282.331L282.283 112.704L280.459 100.2H274.819L272.995 112.704L272.947 114.72H272.467L272.419 112.704L270.475 100.2H266.371L269.251 117ZM291.167 117H294.887V110.784C294.887 109.128 295.727 108.144 297.071 108.144C298.271 108.144 298.847 108.864 298.847 110.184V117H302.567V109.392C302.567 106.344 301.175 104.736 298.463 104.736C296.495 104.736 295.151 105.936 294.479 108.24H293.999L294.887 105.096V100.2H291.167V117ZM310.814 117.36C313.814 117.36 316.022 115.728 316.43 113.304H312.71C312.422 114.12 311.678 114.528 310.742 114.528C309.806 114.528 309.182 114.216 308.774 113.64C308.486 113.232 308.318 112.68 308.222 112.008H316.406V111.048C316.406 107.064 314.342 104.736 310.646 104.736C308.606 104.736 306.854 105.552 305.798 107.064C305.078 108.096 304.646 109.464 304.646 111.096C304.646 112.704 305.03 114.024 305.75 115.056C306.782 116.568 308.51 117.36 310.814 117.36ZM308.27 109.728C308.342 109.224 308.51 108.792 308.75 108.456C309.182 107.808 309.854 107.496 310.646 107.496C312.038 107.496 312.806 108.264 312.854 109.728H308.27ZM318.753 117H322.473V110.568C322.473 108.984 323.025 108.168 323.961 108.168C324.801 108.168 325.209 108.672 325.209 109.944V111.528H329.001V108.744C329.001 106.176 327.921 104.736 325.809 104.736C323.889 104.736 322.665 105.84 321.873 108.528H321.369L322.425 105.096H318.753V117ZM336.384 117.36C339.384 117.36 341.592 115.728 342 113.304H338.28C337.992 114.12 337.248 114.528 336.312 114.528C335.376 114.528 334.752 114.216 334.344 113.64C334.056 113.232 333.888 112.68 333.792 112.008H341.976V111.048C341.976 107.064 339.912 104.736 336.216 104.736C334.176 104.736 332.424 105.552 331.368 107.064C330.648 108.096 330.216 109.464 330.216 111.096C330.216 112.704 330.6 114.024 331.32 115.056C332.352 116.568 334.08 117.36 336.384 117.36ZM333.84 109.728C333.912 109.224 334.08 108.792 334.32 108.456C334.752 107.808 335.424 107.496 336.216 107.496C337.608 107.496 338.376 108.264 338.424 109.728H333.84ZM352.507 99.864L346.123 117H342.883L349.267 99.864H352.507ZM354.237 117H357.957V110.784C357.957 109.128 358.797 108.144 360.141 108.144C361.341 108.144 361.917 108.864 361.917 110.184V117H365.637V109.392C365.637 106.344 364.245 104.736 361.533 104.736C359.565 104.736 358.221 105.936 357.549 108.24H357.069L357.957 105.096V100.2H354.237V117ZM374.028 117.36C376.308 117.36 378.18 116.424 379.284 114.816C379.98 113.784 380.364 112.512 380.364 111.048C380.364 109.584 379.98 108.312 379.284 107.28C378.18 105.672 376.308 104.736 374.028 104.736C371.748 104.736 369.9 105.672 368.796 107.28C368.1 108.312 367.716 109.584 367.716 111.048C367.716 112.512 368.1 113.784 368.796 114.816C369.9 116.424 371.748 117.36 374.028 117.36ZM371.46 111.048C371.46 110.232 371.676 109.536 372.012 109.032C372.468 108.36 373.188 107.976 374.028 107.976C374.892 107.976 375.588 108.36 376.044 109.032C376.404 109.536 376.596 110.232 376.596 111.048C376.596 111.864 376.404 112.56 376.044 113.064C375.588 113.736 374.892 114.12 374.028 114.12C373.188 114.12 372.468 113.736 372.012 113.064C371.676 112.56 371.46 111.864 371.46 111.048ZM383.943 117H389.631L390.879 108.528L390.927 107.208H391.407L391.431 108.528L392.703 117H398.367L400.791 105.096H397.119L395.583 113.616L395.559 114.912H395.079L395.055 113.616L393.783 105.096H388.551L387.255 113.616L387.231 114.912H386.751L386.727 113.616L385.215 105.096H381.543L383.943 117ZM413.12 117.36C415.184 117.36 416.528 116.088 417.224 113.856H417.704L416.792 117H420.536V100.2H416.792V105.096L417.704 108.24H417.224C416.528 106.008 415.184 104.736 413.12 104.736C411.464 104.736 410.096 105.48 409.208 106.752C408.464 107.832 408.056 109.296 408.056 111.048C408.056 112.8 408.464 114.264 409.208 115.344C410.096 116.64 411.464 117.36 413.12 117.36ZM411.824 111.048C411.824 110.184 412.04 109.464 412.4 108.936C412.832 108.312 413.504 107.976 414.344 107.976C415.16 107.976 415.832 108.312 416.264 108.936C416.624 109.464 416.84 110.184 416.84 111.048C416.84 111.936 416.624 112.656 416.264 113.16C415.832 113.784 415.16 114.12 414.344 114.12C413.504 114.12 412.832 113.784 412.4 113.16C412.04 112.656 411.824 111.936 411.824 111.048ZM429.153 117.36C431.433 117.36 433.305 116.424 434.409 114.816C435.105 113.784 435.489 112.512 435.489 111.048C435.489 109.584 435.105 108.312 434.409 107.28C433.305 105.672 431.433 104.736 429.153 104.736C426.873 104.736 425.025 105.672 423.921 107.28C423.225 108.312 422.841 109.584 422.841 111.048C422.841 112.512 423.225 113.784 423.921 114.816C425.025 116.424 426.873 117.36 429.153 117.36ZM426.585 111.048C426.585 110.232 426.801 109.536 427.137 109.032C427.593 108.36 428.313 107.976 429.153 107.976C430.017 107.976 430.713 108.36 431.169 109.032C431.529 109.536 431.721 110.232 431.721 111.048C431.721 111.864 431.529 112.56 431.169 113.064C430.713 113.736 430.017 114.12 429.153 114.12C428.313 114.12 427.593 113.736 427.137 113.064C426.801 112.56 426.585 111.864 426.585 111.048ZM446.869 121.656C449.365 121.656 450.949 120.432 451.765 117.624L455.341 105.096H451.333L449.197 113.784H448.765L446.317 105.096H442.309L445.717 115.896H448.669L448.261 117.576C448.045 118.464 447.517 118.824 446.821 118.824C446.149 118.824 445.765 118.488 445.765 117.96V117.792H442.141V118.032C442.141 120.384 443.989 121.656 446.869 121.656ZM462.364 117.36C464.644 117.36 466.516 116.424 467.62 114.816C468.316 113.784 468.7 112.512 468.7 111.048C468.7 109.584 468.316 108.312 467.62 107.28C466.516 105.672 464.644 104.736 462.364 104.736C460.084 104.736 458.236 105.672 457.132 107.28C456.436 108.312 456.052 109.584 456.052 111.048C456.052 112.512 456.436 113.784 457.132 114.816C458.236 116.424 460.084 117.36 462.364 117.36ZM459.796 111.048C459.796 110.232 460.012 109.536 460.348 109.032C460.804 108.36 461.524 107.976 462.364 107.976C463.228 107.976 463.924 108.36 464.38 109.032C464.74 109.536 464.932 110.232 464.932 111.048C464.932 111.864 464.74 112.56 464.38 113.064C463.924 113.736 463.228 114.12 462.364 114.12C461.524 114.12 460.804 113.736 460.348 113.064C460.012 112.56 459.796 111.864 459.796 111.048ZM474.794 117.36C476.714 117.36 477.986 116.184 478.634 113.856H479.138L478.226 117H481.946V105.096H478.226V111.312C478.226 112.968 477.434 113.952 476.186 113.952C475.058 113.952 474.506 113.256 474.506 111.912V105.096H470.786V112.704C470.786 115.752 472.13 117.36 474.794 117.36ZM492.318 117H498.006L499.254 108.528L499.302 107.208H499.782L499.806 108.528L501.078 117H506.742L509.166 105.096H505.494L503.958 113.616L503.934 114.912H503.454L503.43 113.616L502.158 105.096H496.926L495.63 113.616L495.606 114.912H495.126L495.102 113.616L493.59 105.096H489.918L492.318 117ZM514.388 117.36C516.548 117.36 517.796 116.256 518.444 113.856H518.924L518.06 117H521.708V109.344C521.708 106.32 519.788 104.736 516.236 104.736C510.572 104.736 510.524 108.912 510.524 109.32V109.392H514.292V109.32C514.292 109.152 514.316 107.664 516.116 107.664C517.316 107.664 517.964 108.264 517.964 109.344V109.992L514.964 110.256C513.5 110.376 512.396 110.832 511.676 111.552C511.076 112.152 510.764 112.968 510.764 113.976C510.764 114.96 511.1 115.752 511.7 116.352C512.324 117 513.284 117.36 514.388 117.36ZM514.604 113.664C514.604 113.328 514.724 113.04 514.916 112.848C515.204 112.56 515.612 112.392 516.188 112.32L517.964 112.104V112.176C517.964 112.968 517.46 114.768 515.78 114.768C515.396 114.768 515.084 114.648 514.892 114.456C514.7 114.264 514.604 114 514.604 113.664ZM530.007 117.36C532.959 117.36 534.855 115.584 534.855 112.728V110.904H531.111V112.632C531.111 113.736 530.799 114.168 530.055 114.168C529.455 114.168 529.047 113.736 529.047 112.8V108.096H534.855V105.096H529.047V101.664L525.327 103.32V105.096H523.167V108.096H525.327V112.872C525.327 115.776 526.911 117.36 530.007 117.36ZM542.443 117.36C545.731 117.36 548.011 115.608 548.155 112.416H544.459C544.291 113.52 543.595 114.12 542.467 114.12C541.723 114.12 541.123 113.808 540.715 113.232C540.355 112.704 540.163 111.984 540.163 111.096C540.163 110.16 540.379 109.464 540.739 108.912C541.171 108.312 541.795 107.976 542.587 107.976C543.739 107.976 544.483 108.576 544.675 109.704H548.347C548.227 106.536 545.899 104.736 542.587 104.736C540.379 104.736 538.603 105.552 537.547 107.064C536.827 108.096 536.419 109.464 536.419 111.096C536.419 112.704 536.803 114.024 537.523 115.056C538.555 116.568 540.283 117.36 542.443 117.36ZM550.596 117H554.316V110.784C554.316 109.128 555.156 108.144 556.5 108.144C557.7 108.144 558.276 108.864 558.276 110.184V117H561.996V109.392C561.996 106.344 560.604 104.736 557.892 104.736C555.924 104.736 554.58 105.936 553.908 108.24H553.428L554.316 105.096V100.2H550.596V117ZM575.118 117.36C576.966 117.36 578.334 116.856 579.198 115.992C579.822 115.368 580.158 114.576 580.158 113.544C580.158 111.504 579.078 110.4 576.558 109.824L574.998 109.488C574.062 109.272 573.702 108.96 573.702 108.432C573.702 108.168 573.798 107.952 573.942 107.784C574.206 107.544 574.59 107.424 575.166 107.424C576.222 107.424 576.846 107.928 576.846 108.864V108.984H580.302V108.864C580.302 106.296 578.478 104.76 575.286 104.76C573.438 104.76 572.046 105.24 571.158 106.104C570.534 106.728 570.222 107.544 570.222 108.504C570.222 110.472 571.302 111.648 573.39 112.104L575.406 112.56C576.294 112.728 576.63 113.088 576.63 113.64C576.63 113.928 576.534 114.144 576.366 114.312C576.126 114.552 575.718 114.672 575.166 114.672C574.11 114.672 573.51 114.192 573.51 113.28V113.16H570.054V113.28C570.054 115.872 571.902 117.36 575.118 117.36ZM582.799 117H586.519V110.784C586.519 109.128 587.359 108.144 588.703 108.144C589.903 108.144 590.479 108.864 590.479 110.184V117H594.199V109.392C594.199 106.344 592.807 104.736 590.095 104.736C588.127 104.736 586.783 105.936 586.111 108.24H585.631L586.519 105.096V100.2H582.799V117ZM602.591 117.36C604.871 117.36 606.743 116.424 607.847 114.816C608.543 113.784 608.927 112.512 608.927 111.048C608.927 109.584 608.543 108.312 607.847 107.28C606.743 105.672 604.871 104.736 602.591 104.736C600.311 104.736 598.463 105.672 597.359 107.28C596.663 108.312 596.279 109.584 596.279 111.048C596.279 112.512 596.663 113.784 597.359 114.816C598.463 116.424 600.311 117.36 602.591 117.36ZM600.023 111.048C600.023 110.232 600.239 109.536 600.575 109.032C601.031 108.36 601.751 107.976 602.591 107.976C603.455 107.976 604.151 108.36 604.607 109.032C604.967 109.536 605.159 110.232 605.159 111.048C605.159 111.864 604.967 112.56 604.607 113.064C604.151 113.736 603.455 114.12 602.591 114.12C601.751 114.12 601.031 113.736 600.575 113.064C600.239 112.56 600.023 111.864 600.023 111.048ZM612.505 117H618.193L619.441 108.528L619.489 107.208H619.969L619.993 108.528L621.265 117H626.929L629.353 105.096H625.681L624.145 113.616L624.121 114.912H623.641L623.617 113.616L622.345 105.096H617.113L615.817 113.616L615.793 114.912H615.313L615.289 113.616L613.777 105.096H610.105L612.505 117ZM635.798 117.36C637.646 117.36 639.014 116.856 639.878 115.992C640.502 115.368 640.838 114.576 640.838 113.544C640.838 111.504 639.758 110.4 637.238 109.824L635.678 109.488C634.742 109.272 634.382 108.96 634.382 108.432C634.382 108.168 634.478 107.952 634.622 107.784C634.886 107.544 635.27 107.424 635.846 107.424C636.902 107.424 637.526 107.928 637.526 108.864V108.984H640.982V108.864C640.982 106.296 639.158 104.76 635.966 104.76C634.118 104.76 632.726 105.24 631.838 106.104C631.214 106.728 630.902 107.544 630.902 108.504C630.902 110.472 631.982 111.648 634.07 112.104L636.086 112.56C636.974 112.728 637.31 113.088 637.31 113.64C637.31 113.928 637.214 114.144 637.046 114.312C636.806 114.552 636.398 114.672 635.846 114.672C634.79 114.672 634.19 114.192 634.19 113.28V113.16H630.734V113.28C630.734 115.872 632.582 117.36 635.798 117.36ZM652.482 117.36C654.642 117.36 655.89 116.256 656.538 113.856H657.018L656.154 117H659.802V109.344C659.802 106.32 657.882 104.736 654.33 104.736C648.666 104.736 648.618 108.912 648.618 109.32V109.392H652.386V109.32C652.386 109.152 652.41 107.664 654.21 107.664C655.41 107.664 656.058 108.264 656.058 109.344V109.992L653.058 110.256C651.594 110.376 650.49 110.832 649.77 111.552C649.17 112.152 648.858 112.968 648.858 113.976C648.858 114.96 649.194 115.752 649.794 116.352C650.418 117 651.378 117.36 652.482 117.36ZM652.698 113.664C652.698 113.328 652.818 113.04 653.01 112.848C653.298 112.56 653.706 112.392 654.282 112.32L656.058 112.104V112.176C656.058 112.968 655.554 114.768 653.874 114.768C653.49 114.768 653.178 114.648 652.986 114.456C652.794 114.264 652.698 114 652.698 113.664ZM662.768 117H666.488V110.784C666.488 109.128 667.328 108.144 668.672 108.144C669.872 108.144 670.448 108.864 670.448 110.184V117H674.168V109.392C674.168 106.344 672.752 104.736 670.04 104.736C668.072 104.736 666.752 105.936 666.08 108.24H665.6L666.488 105.096H662.768V117ZM681.479 117.36C683.543 117.36 684.887 116.088 685.583 113.856H686.063L685.151 117H688.895V100.2H685.151V105.096L686.063 108.24H685.583C684.887 106.008 683.543 104.736 681.479 104.736C679.823 104.736 678.455 105.48 677.567 106.752C676.823 107.832 676.415 109.296 676.415 111.048C676.415 112.8 676.823 114.264 677.567 115.344C678.455 116.64 679.823 117.36 681.479 117.36ZM680.183 111.048C680.183 110.184 680.399 109.464 680.759 108.936C681.191 108.312 681.863 107.976 682.703 107.976C683.519 107.976 684.191 108.312 684.623 108.936C684.983 109.464 685.199 110.184 685.199 111.048C685.199 111.936 684.983 112.656 684.623 113.16C684.191 113.784 683.519 114.12 682.703 114.12C681.863 114.12 681.191 113.784 680.759 113.16C680.399 112.656 680.183 111.936 680.183 111.048ZM697.971 117H701.691V110.52C701.691 109.008 702.339 108.144 703.515 108.144C704.403 108.144 704.979 108.792 704.979 110.04V117H708.699V110.52C708.699 109.032 709.395 108.144 710.547 108.144C711.507 108.144 711.987 108.792 711.987 110.04V117H715.707V109.248C715.707 106.32 714.435 104.736 712.083 104.736C710.283 104.736 708.771 105.744 708.195 108.24H707.715C707.715 105.936 706.443 104.736 704.811 104.736C703.011 104.736 701.859 105.96 701.283 108.24H700.803L701.691 105.096H697.971V117ZM724.114 117.36C726.394 117.36 728.266 116.424 729.37 114.816C730.066 113.784 730.45 112.512 730.45 111.048C730.45 109.584 730.066 108.312 729.37 107.28C728.266 105.672 726.394 104.736 724.114 104.736C721.834 104.736 719.986 105.672 718.882 107.28C718.186 108.312 717.802 109.584 717.802 111.048C717.802 112.512 718.186 113.784 718.882 114.816C719.986 116.424 721.834 117.36 724.114 117.36ZM721.546 111.048C721.546 110.232 721.762 109.536 722.098 109.032C722.554 108.36 723.274 107.976 724.114 107.976C724.978 107.976 725.674 108.36 726.13 109.032C726.49 109.536 726.682 110.232 726.682 111.048C726.682 111.864 726.49 112.56 726.13 113.064C725.674 113.736 724.978 114.12 724.114 114.12C723.274 114.12 722.554 113.736 722.098 113.064C721.762 112.56 721.546 111.864 721.546 111.048ZM734.559 117H740.703L744.111 105.096H740.247L737.943 113.712L737.871 114.912H737.415L737.343 113.712L735.063 105.096H731.175L734.559 117ZM746.042 117H749.762V105.096H746.042V117ZM745.946 103.632H749.882V100.512H745.946V103.632ZM758.259 117.36C761.259 117.36 763.467 115.728 763.875 113.304H760.155C759.867 114.12 759.123 114.528 758.187 114.528C757.251 114.528 756.627 114.216 756.219 113.64C755.931 113.232 755.763 112.68 755.667 112.008H763.851V111.048C763.851 107.064 761.787 104.736 758.091 104.736C756.051 104.736 754.299 105.552 753.243 107.064C752.523 108.096 752.091 109.464 752.091 111.096C752.091 112.704 752.475 114.024 753.195 115.056C754.227 116.568 755.955 117.36 758.259 117.36ZM755.715 109.728C755.787 109.224 755.955 108.792 756.195 108.456C756.627 107.808 757.299 107.496 758.091 107.496C759.483 107.496 760.251 108.264 760.299 109.728H755.715ZM770.47 117.36C772.318 117.36 773.686 116.856 774.55 115.992C775.174 115.368 775.51 114.576 775.51 113.544C775.51 111.504 774.43 110.4 771.91 109.824L770.35 109.488C769.414 109.272 769.054 108.96 769.054 108.432C769.054 108.168 769.15 107.952 769.294 107.784C769.558 107.544 769.942 107.424 770.518 107.424C771.574 107.424 772.198 107.928 772.198 108.864V108.984H775.654V108.864C775.654 106.296 773.83 104.76 770.638 104.76C768.79 104.76 767.398 105.24 766.51 106.104C765.886 106.728 765.574 107.544 765.574 108.504C765.574 110.472 766.654 111.648 768.742 112.104L770.758 112.56C771.646 112.728 771.982 113.088 771.982 113.64C771.982 113.928 771.886 114.144 771.718 114.312C771.478 114.552 771.07 114.672 770.518 114.672C769.462 114.672 768.862 114.192 768.862 113.28V113.16H765.406V113.28C765.406 115.872 767.254 117.36 770.47 117.36ZM779.783 110.448C779.783 109.92 779.855 109.448 779.999 109.032C780.143 108.616 780.375 108.224 780.695 107.856C781.031 107.488 781.471 107.112 782.015 106.728C782.495 106.376 782.879 106.064 783.167 105.792C783.471 105.52 783.687 105.248 783.815 104.976C783.959 104.704 784.031 104.4 784.031 104.064C784.031 103.552 783.839 103.168 783.455 102.912C783.087 102.64 782.567 102.504 781.895 102.504C781.223 102.504 780.559 102.608 779.903 102.816C779.247 103.024 778.575 103.304 777.887 103.656L776.615 101.088C777.399 100.656 778.247 100.304 779.159 100.032C780.071 99.76 781.071 99.624 782.159 99.624C783.823 99.624 785.111 100.024 786.023 100.824C786.951 101.624 787.415 102.64 787.415 103.872C787.415 104.528 787.311 105.096 787.103 105.576C786.895 106.056 786.583 106.504 786.167 106.92C785.751 107.32 785.231 107.752 784.607 108.216C784.143 108.552 783.783 108.84 783.527 109.08C783.271 109.32 783.095 109.552 782.999 109.776C782.919 110 782.879 110.28 782.879 110.616V111.312H779.783V110.448ZM779.399 115.32C779.399 114.584 779.599 114.072 779.999 113.784C780.399 113.48 780.887 113.328 781.463 113.328C782.023 113.328 782.503 113.48 782.903 113.784C783.303 114.072 783.503 114.584 783.503 115.32C783.503 116.024 783.303 116.536 782.903 116.856C782.503 117.16 782.023 117.312 781.463 117.312C780.887 117.312 780.399 117.16 779.999 116.856C779.599 116.536 779.399 116.024 779.399 115.32Z" fill="#FBF9F0"/>
<path d="M172.144 380.76V378.852L171.298 376.944L170.056 375.774L168.652 375.252H167.338L165.952 375.774L164.692 377.034L164.044 378.762L160.372 376.098H159.202V382.596H160.678V378.078L164.116 380.58H165.304V379.428L165.934 377.862L166.762 377.07L167.554 376.746H168.454L169.3 377.088L170.056 377.808L170.668 379.158V380.49L170.164 381.714L169.48 382.398L170.542 383.46L171.388 382.578L172.144 380.76ZM172.144 369.33V367.62L171.37 365.982L170.092 364.722L168.544 364.074L166.906 363.768H164.296L162.658 364.074L161.11 364.722L159.832 365.982L159.058 367.62V369.33L159.832 370.968L161.11 372.228L162.658 372.876L164.296 373.182H166.906L168.544 372.876L170.092 372.228L171.37 370.968L172.144 369.33ZM170.668 369.042L170.164 370.086L169.21 370.986L168.166 371.418L166.78 371.688H164.404L163.09 371.436L161.974 371.004L161.056 370.104L160.534 369.024V367.926L161.056 366.846L161.974 365.946L163.09 365.514L164.404 365.262H166.78L168.166 365.532L169.21 365.964L170.164 366.864L170.668 367.908V369.042Z" fill="#FFC800"/>
<path d="M276 424.094V422.6H263.202V423.41L265.434 427.82L266.766 427.154L265.182 424.094H276ZM276 420.232V412.438H274.524V418.198L269.196 413.374L267.576 412.582H265.848L263.976 413.77L263.058 415.642V417.586L263.904 419.476L264.732 420.268L265.794 419.206L265.146 418.576L264.534 417.298V416.002L265.11 414.796L266.28 414.076H267.27L268.386 414.634L274.668 420.232H276Z" fill="#FFC800"/>
<path d="M380 412.094V410.6H367.202V411.41L369.434 415.82L370.766 415.154L369.182 412.094H380ZM380 407.638V405.964L368.282 400.762H367.202V408.358H368.678V402.508L380 407.638Z" fill="#FFC800"/>
<path d="M484.144 444.76V442.852L483.298 440.944L482.056 439.774L480.652 439.252H479.338L477.952 439.774L476.692 441.034L476.044 442.762L472.372 440.098H471.202V446.596H472.678V442.078L476.116 444.58H477.304V443.428L477.934 441.862L478.762 441.07L479.554 440.746H480.454L481.3 441.088L482.056 441.808L482.668 443.158V444.49L482.164 445.714L481.48 446.398L482.542 447.46L483.388 446.578L484.144 444.76Z" fill="#FFC800"/>
<path d="M588 339.042V337.548H584.688V335.622H583.212V337.548H575.202V338.952L583.554 344.82H584.688V339.042H588ZM583.212 342.912L577.866 339.042H583.212V342.912ZM588 333.826V332.152L576.282 326.95H575.202V334.546H576.678V328.696L588 333.826Z" fill="#FFC800"/>
<path d="M692 422.74V421.066L680.282 415.864H679.202V423.46H680.678V417.61L692 422.74Z" fill="#FFC800"/>
<path d="M796.144 320.4V318.492L795.298 316.584L794.056 315.414L792.652 314.892H791.158L789.772 315.414L788.512 316.674L787.864 318.33V320.508L788.116 321.084L784.678 320.544V315.792H783.202V321.84L788.836 322.614L789.718 321.39L789.34 320.274V318.636L789.754 317.538L790.6 316.71L791.392 316.386H792.436L793.282 316.728L794.056 317.448L794.668 318.798V320.13L794.164 321.354L793.48 322.038L794.542 323.1L795.388 322.218L796.144 320.4ZM796 313.139V305.345H794.524V311.105L789.196 306.281L787.576 305.489H785.848L783.976 306.677L783.058 308.549V310.493L783.904 312.383L784.732 313.175L785.794 312.113L785.146 311.483L784.534 310.205V308.909L785.11 307.703L786.28 306.983H787.27L788.386 307.541L794.668 313.139H796Z" fill="#FFC800"/>
<path d="M900.144 246.59V244.916L899.64 243.242L898.398 241.964L897.084 241.586H895.41L894.078 242.018L893.016 243.152L892.332 242.36L891.09 241.874H889.794L888.462 242.324L887.544 243.422L887.058 245.06V246.446L887.544 248.084L888.462 249.182L889.794 249.632H891.09L892.332 249.146L893.016 248.354L894.078 249.488L895.41 249.92H897.084L898.398 249.542L899.64 248.264L900.144 246.59ZM892.35 246.572L892.08 247.346L891.522 247.904L890.82 248.138H890.028L889.308 247.886L888.822 247.328L888.534 246.284V245.222L888.822 244.178L889.308 243.62L890.028 243.368H890.82L891.522 243.602L892.08 244.16L892.35 244.934V246.572ZM898.668 246.392L898.326 247.472L897.606 248.228L896.832 248.426H895.626L894.852 248.192L894.096 247.454L893.79 246.626V244.88L894.096 244.052L894.852 243.314L895.626 243.08H896.832L897.606 243.278L898.326 244.034L898.668 245.114V246.392ZM900.144 237.266V235.358L899.298 233.45L898.056 232.28L896.652 231.758H895.338L893.952 232.28L892.692 233.54L892.044 235.268L888.372 232.604H887.202V239.102H888.678V234.584L892.116 237.086H893.304V235.934L893.934 234.368L894.762 233.576L895.554 233.252H896.454L897.3 233.594L898.056 234.314L898.668 235.664V236.996L898.164 238.22L897.48 238.904L898.542 239.966L899.388 239.084L900.144 237.266Z" fill="#FFC800"/>
<rect x="159" y="408" width="12" height="70" fill="#FBF9F0"/>
<path d="M138.144 473.932V472.024L137.28 470.206L135.948 469.306L134.328 468.946H132.204L130.584 469.306L129.252 470.206L128.37 472.024V473.932L129.252 475.75L130.584 476.65L132.204 477.01H134.328L135.948 476.65L137.28 475.75L138.144 473.932ZM136.686 473.68L136.164 474.742L135.354 475.282L134.148 475.516H132.348L131.178 475.282L130.386 474.76L129.846 473.68V472.276L130.386 471.232L131.178 470.674L132.348 470.44H134.148L135.354 470.674L136.164 471.214L136.686 472.276V473.68ZM138 466.343V464.849H131.448L130.674 464.309L129.846 463.013V461.861L130.152 460.799L130.854 460.349H138V458.855H130.278L128.802 459.953L128.37 461.555V463.211L129.054 464.399L129.45 464.849H128.514V466.343H138ZM138.144 447.873V447.045L137.766 445.371L136.344 445.749L136.668 447.027V447.531L136.416 448.179L135.768 448.629H130.224V446.145H128.748V448.629H125.436L125.436 450.123H128.748V451.833H130.224V450.123H136.254L137.676 449.133L138.144 447.873ZM138 443.21V441.716H131.52L130.674 441.14L129.846 439.88V438.728L130.152 437.756L130.854 437.306H138V435.812H130.278L128.802 436.91L128.37 438.422V440.078L129.054 441.284L129.414 441.716H124.428V443.21H138ZM138.144 429.979V428.485L137.73 426.829L136.956 425.659L135.768 426.451L136.362 427.387L136.668 428.611V429.691L136.128 430.789L134.958 431.653L134.166 431.887H133.986V424.939H132.096L130.89 425.353L129.234 426.559L128.37 428.377V429.979L129.234 431.779L130.89 433.003L132.204 433.381H134.346L135.624 433.003L137.28 431.779L138.144 429.979ZM132.51 431.887H132.348L131.556 431.671L130.404 430.825L129.846 429.745V428.629L130.422 427.531L131.592 426.667L132.276 426.433H132.51V431.887ZM141.024 414.389V412.805L140.574 411.473L139.656 410.105L138.342 409.655H128.514V411.149H129.09L128.766 411.653L128.37 412.733V414.335L129.234 416.135L130.89 417.359L132.204 417.737H133.914L135.192 417.359L136.848 416.099L137.568 414.263V412.643L136.884 411.527L136.524 411.149H138.18L138.72 411.365L139.242 412.139L139.548 412.967V414.245L139.314 415.109L139.008 415.559L138.558 416.009L139.62 417.053L140.106 416.549L140.682 415.667L141.024 414.389ZM136.092 414.029L135.624 415.199L134.49 416.027L133.716 416.243H132.402L131.556 416.027L130.404 415.163L129.828 414.101V412.949L130.062 412.211L130.512 411.527L130.98 411.149H134.418L135.264 411.671L136.092 412.841V414.029ZM138.144 403.971V402.063L137.28 400.245L135.948 399.345L134.328 398.985H132.204L130.584 399.345L129.252 400.245L128.37 402.063V403.971L129.252 405.789L130.584 406.689L132.204 407.049H134.328L135.948 406.689L137.28 405.789L138.144 403.971ZM136.686 403.719L136.164 404.781L135.354 405.321L134.148 405.555H132.348L131.178 405.321L130.386 404.799L129.846 403.719V402.315L130.386 401.271L131.178 400.713L132.348 400.479H134.148L135.354 400.713L136.164 401.253L136.686 402.315V403.719Z" fill="#FBF9F0"/>
<rect x="263" y="452" width="12" height="26" fill="#FBF9F0"/>
<path d="M242 475.84V474.346H234.224V471.934H232.748V474.346H230.66L229.994 473.896L229.76 473.212V472.726L230.102 471.394L228.644 471.016L228.284 472.618V473.338L228.752 474.85L230.228 475.84H232.748V477.55H234.224V475.84H242ZM242 469.12V467.626H228.428V469.12H242ZM230.642 464.716V462.556H228.428V464.716H230.642ZM242 464.392V462.898H232.514V464.392H242ZM245.024 456.945V455.361L244.574 454.029L243.656 452.661L242.342 452.211H232.514V453.705H233.09L232.766 454.209L232.37 455.289V456.891L233.234 458.691L234.89 459.915L236.204 460.293H237.914L239.192 459.915L240.848 458.655L241.568 456.819V455.199L240.884 454.083L240.524 453.705H242.18L242.72 453.921L243.242 454.695L243.548 455.523V456.801L243.314 457.665L243.008 458.115L242.558 458.565L243.62 459.609L244.106 459.105L244.682 458.223L245.024 456.945ZM240.092 456.585L239.624 457.755L238.49 458.583L237.716 458.799H236.402L235.556 458.583L234.404 457.719L233.828 456.657V455.505L234.062 454.767L234.512 454.083L234.98 453.705H238.418L239.264 454.227L240.092 455.397V456.585ZM242 448.976V447.482H235.52L234.674 446.906L233.846 445.646V444.494L234.152 443.522L234.854 443.072H242V441.578H234.278L232.802 442.676L232.37 444.188V445.844L233.054 447.05L233.414 447.482H228.428V448.976H242ZM242.144 436.078V435.25L241.766 433.576L240.344 433.954L240.668 435.232V435.736L240.416 436.384L239.768 436.834H234.224V434.35H232.748V436.834H229.436V438.328H232.748V440.038H234.224V438.328H240.254L241.676 437.338L242.144 436.078ZM242.144 429.521V427.919L241.784 426.695L241.172 425.831L240.128 425.147H238.598L237.446 425.849L236.762 426.875L236.222 429.629L235.97 430.133L235.484 430.493H234.692L234.26 430.241L234.008 429.935L233.81 429.251V428.045L234.116 427.037L234.71 426.173L233.504 425.363L232.766 426.443L232.37 427.919V429.449L232.676 430.565L233.306 431.375L234.332 431.969H235.934L236.978 431.213L237.59 430.061L238.112 427.469L238.49 426.929L239.012 426.623H239.696L240.146 426.911L240.47 427.361L240.686 428.117V429.323L240.398 430.439L240.02 430.925L239.606 431.267L240.614 432.311L241.082 431.897L241.748 431.051L242.144 429.521ZM229.148 417.73L242 422.518V424.066L229.148 419.278V417.73ZM242.144 413.139V412.311L241.766 410.637L240.344 411.015L240.668 412.293V412.797L240.416 413.445L239.768 413.895H234.224V411.411H232.748V413.895H229.436V415.389H232.748V417.099H234.224V415.389H240.254L241.676 414.399L242.144 413.139ZM242 408.566V407.072H236.006L235.142 406.676L234.314 405.938L233.846 404.948V404.174L234.044 403.454L232.622 403.094L232.37 403.994V405.164L232.946 406.388L233.612 407.072H232.514V408.566H242ZM242.144 398.908V397.792L241.316 396.136L240.848 395.722L242.144 394.858L241.28 393.652L240.272 394.354H234.818L233.594 394.84L232.694 396.172L232.37 397.468V399.142L232.712 400.294L233.27 401.158L233.738 401.662L234.8 400.636L234.458 400.294L234.098 399.736L233.846 398.962V397.684L234.062 396.802L234.548 396.046L235.088 395.848H236.456L236.15 396.28L235.754 397.486V398.638L236.204 400.42L237.536 401.752L238.76 402.004H239.804L241.262 400.996L241.766 400.132L242.144 398.908ZM240.668 398.692L240.416 399.538L240.164 399.952L239.372 400.51H238.886L238.256 400.366L237.554 399.664L237.23 398.476V397.666L237.482 396.784L237.77 396.226L238.166 395.848H238.832L239.39 396.028L240.164 396.766L240.668 398.116V398.692ZM242 389.151V387.783L232.514 384.021V385.605L239.858 388.467L232.514 391.329V392.913L242 389.151ZM242.144 379.618V378.124L241.73 376.468L240.956 375.298L239.768 376.09L240.362 377.026L240.668 378.25V379.33L240.128 380.428L238.958 381.292L238.166 381.526H237.986V374.578H236.096L234.89 374.992L233.234 376.198L232.37 378.016V379.618L233.234 381.418L234.89 382.642L236.204 383.02H238.346L239.624 382.642L241.28 381.418L242.144 379.618ZM236.51 381.526H236.348L235.556 381.31L234.404 380.464L233.846 379.384V378.268L234.422 377.17L235.592 376.306L236.276 376.072H236.51V381.526ZM242 372.054V370.56H228.428V372.054H242ZM242 367.325V365.831H228.428V367.325H242ZM230.642 362.921V360.761H228.428V362.921H230.642ZM242 362.597V361.103H232.514V362.597H242ZM242 357.868V356.374H235.448L234.674 355.834L233.846 354.538V353.386L234.152 352.324L234.854 351.874H242V350.38H234.278L232.802 351.478L232.37 353.08V354.736L233.054 355.924L233.45 356.374H232.514V357.868H242ZM245.024 344.603V343.019L244.574 341.687L243.656 340.319L242.342 339.869H232.514V341.363H233.09L232.766 341.867L232.37 342.947V344.549L233.234 346.349L234.89 347.573L236.204 347.951H237.914L239.192 347.573L240.848 346.313L241.568 344.477V342.857L240.884 341.741L240.524 341.363H242.18L242.72 341.579L243.242 342.353L243.548 343.181V344.459L243.314 345.323L243.008 345.773L242.558 346.223L243.62 347.267L244.106 346.763L244.682 345.881L245.024 344.603ZM240.092 344.243L239.624 345.413L238.49 346.241L237.716 346.457H236.402L235.556 346.241L234.404 345.377L233.828 344.315V343.163L234.062 342.425L234.512 341.741L234.98 341.363H238.418L239.264 341.885L240.092 343.055V344.243Z" fill="#FBF9F0"/>
<rect x="367" y="440" width="12" height="38" fill="#FBF9F0"/>
<path d="M346 474.796V473.392L339.376 471.088L346 468.784V467.38L336.514 464.626V466.192L343.516 468.136L336.874 470.476V471.7L343.516 474.04L336.514 475.984V477.55L346 474.796ZM346.144 460.467V458.559L345.28 456.741L343.948 455.841L342.328 455.481H340.204L338.584 455.841L337.252 456.741L336.37 458.559V460.467L337.252 462.285L338.584 463.185L340.204 463.545H342.328L343.948 463.185L345.28 462.285L346.144 460.467ZM344.686 460.215L344.164 461.277L343.354 461.817L342.148 462.051H340.348L339.178 461.817L338.386 461.295L337.846 460.215V458.811L338.386 457.767L339.178 457.209L340.348 456.975H342.148L343.354 457.209L344.164 457.749L344.686 458.811V460.215ZM346 452.968V451.474H340.006L339.142 451.078L338.314 450.34L337.846 449.35V448.576L338.044 447.856L336.622 447.496L336.37 448.396V449.566L336.946 450.79L337.612 451.474H336.514V452.968H346ZM346 445.601V444.107H342.49L341.338 442.919L346 439.643V437.825L340.312 441.893L336.514 438.005V440.093L340.528 444.107H332.428V445.601H346Z" fill="#FBF9F0"/>
<rect x="471" y="472" width="12" height="6" fill="#FBF9F0"/>
<path d="M450.144 473.932V472.024L449.28 470.206L447.948 469.306L446.328 468.946H444.204L442.584 469.306L441.252 470.206L440.37 472.024V473.932L441.252 475.75L442.584 476.65L444.204 477.01H446.328L447.948 476.65L449.28 475.75L450.144 473.932ZM448.686 473.68L448.164 474.742L447.354 475.282L446.148 475.516H444.348L443.178 475.282L442.386 474.76L441.846 473.68V472.276L442.386 471.232L443.178 470.674L444.348 470.44H446.148L447.354 470.674L448.164 471.214L448.686 472.276V473.68ZM450.144 463.553V462.725L449.766 461.051L448.344 461.429L448.668 462.707V463.211L448.416 463.859L447.768 464.309H442.224V461.825H440.748V464.309H437.436V465.803H440.748V467.513H442.224V465.803H448.254L449.676 464.813L450.144 463.553ZM450 458.89V457.396H443.52L442.674 456.82L441.846 455.56V454.408L442.152 453.436L442.854 452.986H450V451.492H442.278L440.802 452.59L440.37 454.102V455.758L441.054 456.964L441.414 457.396H436.428V458.89H450ZM450.144 445.659V444.165L449.73 442.509L448.956 441.339L447.768 442.131L448.362 443.067L448.668 444.291V445.371L448.128 446.469L446.958 447.333L446.166 447.567H445.986V440.619H444.096L442.89 441.033L441.234 442.239L440.37 444.057V445.659L441.234 447.459L442.89 448.683L444.204 449.061H446.346L447.624 448.683L449.28 447.459L450.144 445.659ZM444.51 447.567H444.348L443.556 447.351L442.404 446.505L441.846 445.425V444.309L442.422 443.211L443.592 442.347L444.276 442.113H444.51V447.567ZM450 438.185V436.691H444.006L443.142 436.295L442.314 435.557L441.846 434.567V433.793L442.044 433.073L440.622 432.713L440.37 433.613V434.783L440.946 436.007L441.612 436.691H440.514V438.185H450ZM450.144 429.205V427.603L449.784 426.379L449.172 425.515L448.128 424.831H446.598L445.446 425.533L444.762 426.559L444.222 429.313L443.97 429.817L443.484 430.177H442.692L442.26 429.925L442.008 429.619L441.81 428.935V427.729L442.116 426.721L442.71 425.857L441.504 425.047L440.766 426.127L440.37 427.603V429.133L440.676 430.249L441.306 431.059L442.332 431.653H443.934L444.978 430.897L445.59 429.745L446.112 427.153L446.49 426.613L447.012 426.307H447.696L448.146 426.595L448.47 427.045L448.686 427.801V429.007L448.398 430.123L448.02 430.609L447.606 430.951L448.614 431.995L449.082 431.581L449.748 430.735L450.144 429.205Z" fill="#FBF9F0"/>
<rect x="575" y="369" width="12" height="109" fill="#FBF9F0"/>
<path d="M554 476.38V474.886H547.52L546.674 474.31L545.846 473.05V471.898L546.152 470.926L546.854 470.476H554V468.982H546.278L544.802 470.08L544.37 471.592V473.248L545.054 474.454L545.414 474.886H540.428V476.38H554ZM554.144 463.473V461.565L553.28 459.747L551.948 458.847L550.328 458.487H548.204L546.584 458.847L545.252 459.747L544.37 461.565V463.473L545.252 465.291L546.584 466.191L548.204 466.551H550.328L551.948 466.191L553.28 465.291L554.144 463.473ZM552.686 463.221L552.164 464.283L551.354 464.823L550.148 465.057H548.348L547.178 464.823L546.386 464.301L545.846 463.221V461.817L546.386 460.773L547.178 460.215L548.348 459.981H550.148L551.354 460.215L552.164 460.755L552.686 461.817V463.221ZM554 455.884V454.39H547.448L546.674 453.85L545.846 452.554V451.402L546.188 450.484L546.926 450.034H554V448.54H547.52L546.674 447.964L545.846 446.704V445.552L546.152 444.634L546.854 444.184H554V442.69H546.278L544.802 443.788L544.37 445.246V446.902L545.054 448.162L545.738 448.954L544.802 449.638L544.37 451.096V452.752L545.054 453.94L545.45 454.39H544.514V455.884H554ZM554.144 436.852V435.358L553.73 433.702L552.956 432.532L551.768 433.324L552.362 434.26L552.668 435.484V436.564L552.128 437.662L550.958 438.526L550.166 438.76H549.986V431.812H548.096L546.89 432.226L545.234 433.432L544.37 435.25V436.852L545.234 438.652L546.89 439.876L548.204 440.254H550.346L551.624 439.876L553.28 438.652L554.144 436.852ZM548.51 438.76H548.348L547.556 438.544L546.404 437.698L545.846 436.618V435.502L546.422 434.404L547.592 433.54L548.276 433.306H548.51V438.76ZM549.068 424.88C548.084 424.88 547.124 424.79 546.188 424.61C545.252 424.418 544.358 424.124 543.506 423.728C542.654 423.332 541.868 422.834 541.148 422.234V420.74C541.892 421.292 542.696 421.76 543.56 422.144C544.424 422.516 545.318 422.798 546.242 422.99C547.166 423.182 548.102 423.278 549.05 423.278C549.974 423.278 550.892 423.182 551.804 422.99C552.716 422.798 553.592 422.516 554.432 422.144C555.284 421.772 556.088 421.31 556.844 420.758V422.234C556.136 422.834 555.362 423.332 554.522 423.728C553.694 424.124 552.818 424.418 551.894 424.61C550.97 424.79 550.028 424.88 549.068 424.88ZM554 418.583V417.089H547.448L546.674 416.549L545.846 415.253V414.101L546.188 413.183L546.926 412.733H554V411.239H547.52L546.674 410.663L545.846 409.403V408.251L546.152 407.333L546.854 406.883H554V405.389H546.278L544.802 406.487L544.37 407.945V409.601L545.054 410.861L545.738 411.653L544.802 412.337L544.37 413.795V415.451L545.054 416.639L545.45 417.089H544.514V418.583H554ZM554.144 399.875V397.967L553.28 396.149L551.948 395.249L550.328 394.889H548.204L546.584 395.249L545.252 396.149L544.37 397.967V399.875L545.252 401.693L546.584 402.593L548.204 402.953H550.328L551.948 402.593L553.28 401.693L554.144 399.875ZM552.686 399.623L552.164 400.685L551.354 401.225L550.148 401.459H548.348L547.178 401.225L546.386 400.703L545.846 399.623V398.219L546.386 397.175L547.178 396.617L548.348 396.383H550.148L551.354 396.617L552.164 397.157L552.686 398.219V399.623ZM554 392.376V390.882H548.006L547.142 390.486L546.314 389.748L545.846 388.758V387.984L546.044 387.264L544.622 386.904L544.37 387.804V388.974L544.946 390.198L545.612 390.882H544.514V392.376H554ZM554 385.009V383.515H547.448L546.674 382.975L545.846 381.679V380.527L546.152 379.465L546.854 379.015H554V377.521H546.278L544.802 378.619L544.37 380.221V381.877L545.054 383.065L545.45 383.515H544.514V385.009H554ZM542.642 374.786V372.626H540.428V374.786H542.642ZM554 374.462V372.968H544.514V374.462H554ZM554 369.734V368.24H547.448L546.674 367.7L545.846 366.404V365.252L546.152 364.19L546.854 363.74H554V362.246H546.278L544.802 363.344L544.37 364.946V366.602L545.054 367.79L545.45 368.24H544.514V369.734H554ZM557.024 356.469V354.885L556.574 353.553L555.656 352.185L554.342 351.735H544.514V353.229H545.09L544.766 353.733L544.37 354.813V356.415L545.234 358.215L546.89 359.439L548.204 359.817H549.914L551.192 359.439L552.848 358.179L553.568 356.343V354.723L552.884 353.607L552.524 353.229H554.18L554.72 353.445L555.242 354.219L555.548 355.047V356.325L555.314 357.189L555.008 357.639L554.558 358.089L555.62 359.133L556.106 358.629L556.682 357.747L557.024 356.469ZM552.092 356.109L551.624 357.279L550.49 358.107L549.716 358.323H548.402L547.556 358.107L546.404 357.243L545.828 356.181V355.029L546.062 354.291L546.512 353.607L546.98 353.229H550.418L551.264 353.751L552.092 354.921V356.109ZM549.068 345.439C550.028 345.439 550.97 345.535 551.894 345.727C552.818 345.907 553.694 346.195 554.522 346.591C555.362 346.975 556.136 347.473 556.844 348.085V349.561C556.088 349.009 555.284 348.547 554.432 348.175C553.592 347.803 552.716 347.521 551.804 347.329C550.892 347.137 549.974 347.041 549.05 347.041C548.102 347.041 547.166 347.137 546.242 347.329C545.318 347.521 544.424 347.803 543.56 348.175C542.696 348.547 541.892 349.015 541.148 349.579V348.085C541.868 347.473 542.654 346.975 543.506 346.591C544.358 346.195 545.252 345.907 546.188 345.727C547.124 345.535 548.084 345.439 549.068 345.439Z" fill="#FBF9F0"/>
<rect x="679" y="448" width="12" height="30" fill="#FBF9F0"/>
<path d="M658 476.38V474.886H651.52L650.674 474.31L649.846 473.05V471.898L650.152 470.926L650.854 470.476H658V468.982H650.278L648.802 470.08L648.37 471.592V473.248L649.054 474.454L649.414 474.886H644.428V476.38H658ZM658.144 463.473V461.565L657.28 459.747L655.948 458.847L654.328 458.487H652.204L650.584 458.847L649.252 459.747L648.37 461.565V463.473L649.252 465.291L650.584 466.191L652.204 466.551H654.328L655.948 466.191L657.28 465.291L658.144 463.473ZM656.686 463.221L656.164 464.283L655.354 464.823L654.148 465.057H652.348L651.178 464.823L650.386 464.301L649.846 463.221V461.817L650.386 460.773L651.178 460.215L652.348 459.981H654.148L655.354 460.215L656.164 460.755L656.686 461.817V463.221ZM658 455.884V454.39H651.448L650.674 453.85L649.846 452.554V451.402L650.188 450.484L650.926 450.034H658V448.54H651.52L650.674 447.964L649.846 446.704V445.552L650.152 444.634L650.854 444.184H658V442.69H650.278L648.802 443.788L648.37 445.246V446.902L649.054 448.162L649.738 448.954L648.802 449.638L648.37 451.096V452.752L649.054 453.94L649.45 454.39H648.514V455.884H658ZM658.144 436.852V435.358L657.73 433.702L656.956 432.532L655.768 433.324L656.362 434.26L656.668 435.484V436.564L656.128 437.662L654.958 438.526L654.166 438.76H653.986V431.812H652.096L650.89 432.226L649.234 433.432L648.37 435.25V436.852L649.234 438.652L650.89 439.876L652.204 440.254H654.346L655.624 439.876L657.28 438.652L658.144 436.852ZM652.51 438.76H652.348L651.556 438.544L650.404 437.698L649.846 436.618V435.502L650.422 434.404L651.592 433.54L652.276 433.306H652.51V438.76ZM653.068 424.88C652.084 424.88 651.124 424.79 650.188 424.61C649.252 424.418 648.358 424.124 647.506 423.728C646.654 423.332 645.868 422.834 645.148 422.234V420.74C645.892 421.292 646.696 421.76 647.56 422.144C648.424 422.516 649.318 422.798 650.242 422.99C651.166 423.182 652.102 423.278 653.05 423.278C653.974 423.278 654.892 423.182 655.804 422.99C656.716 422.798 657.592 422.516 658.432 422.144C659.284 421.772 660.088 421.31 660.844 420.758V422.234C660.136 422.834 659.362 423.332 658.522 423.728C657.694 424.124 656.818 424.418 655.894 424.61C654.97 424.79 654.028 424.88 653.068 424.88ZM658.144 416.117V415.001L657.316 413.345L656.848 412.931L658.144 412.067L657.28 410.861L656.272 411.563H650.818L649.594 412.049L648.694 413.381L648.37 414.677V416.351L648.712 417.503L649.27 418.367L649.738 418.871L650.8 417.845L650.458 417.503L650.098 416.945L649.846 416.171V414.893L650.062 414.011L650.548 413.255L651.088 413.057H652.456L652.15 413.489L651.754 414.695V415.847L652.204 417.629L653.536 418.961L654.76 419.213H655.804L657.262 418.205L657.766 417.341L658.144 416.117ZM656.668 415.901L656.416 416.747L656.164 417.161L655.372 417.719H654.886L654.256 417.575L653.554 416.873L653.23 415.685V414.875L653.482 413.993L653.77 413.435L654.166 413.057H654.832L655.39 413.237L656.164 413.975L656.668 415.325V415.901ZM658 408.041V406.547H650.224V404.135H648.748V406.547H646.66L645.994 406.097L645.76 405.413V404.927L646.102 403.595L644.644 403.217L644.284 404.819V405.539L644.752 407.051L646.228 408.041H648.748V409.751H650.224V408.041H658ZM658.144 399.076V398.248L657.766 396.574L656.344 396.952L656.668 398.23V398.734L656.416 399.382L655.768 399.832H650.224V397.348H648.748V399.832H645.436V401.326H648.748V403.036H650.224V401.326H656.254L657.676 400.336L658.144 399.076ZM658.144 391.993V390.499L657.73 388.843L656.956 387.673L655.768 388.465L656.362 389.401L656.668 390.625V391.705L656.128 392.803L654.958 393.667L654.166 393.901H653.986V386.953H652.096L650.89 387.367L649.234 388.573L648.37 390.391V391.993L649.234 393.793L650.89 395.017L652.204 395.395H654.346L655.624 395.017L657.28 393.793L658.144 391.993ZM652.51 393.901H652.348L651.556 393.685L650.404 392.839L649.846 391.759V390.643L650.422 389.545L651.592 388.681L652.276 388.447H652.51V393.901ZM658 384.519V383.025H652.006L651.142 382.629L650.314 381.891L649.846 380.901V380.127L650.044 379.407L648.622 379.047L648.37 379.947V381.117L648.946 382.341L649.612 383.025H648.514V384.519H658ZM658 377.151V375.657H651.448L650.674 375.117L649.846 373.821V372.669L650.152 371.607L650.854 371.157H658V369.663H650.278L648.802 370.761L648.37 372.363V374.019L649.054 375.207L649.45 375.657H648.514V377.151H658ZM658.144 364.157V362.249L657.28 360.431L655.948 359.531L654.328 359.171H652.204L650.584 359.531L649.252 360.431L648.37 362.249V364.157L649.252 365.975L650.584 366.875L652.204 367.235H654.328L655.948 366.875L657.28 365.975L658.144 364.157ZM656.686 363.905L656.164 364.967L655.354 365.507L654.148 365.741H652.348L651.178 365.507L650.386 364.985L649.846 363.905V362.501L650.386 361.457L651.178 360.899L652.348 360.665H654.148L655.354 360.899L656.164 361.439L656.686 362.501V363.905ZM658.144 354.119V352.211L657.28 350.393L655.948 349.493L654.328 349.133H652.204L650.584 349.493L649.252 350.393L648.37 352.211V354.119L649.252 355.938L650.584 356.837L652.204 357.197H654.328L655.948 356.837L657.28 355.938L658.144 354.119ZM656.686 353.867L656.164 354.929L655.354 355.469L654.148 355.703H652.348L651.178 355.469L650.386 354.947L649.846 353.867V352.463L650.386 351.419L651.178 350.861L652.348 350.627H654.148L655.354 350.861L656.164 351.401L656.686 352.463V353.867ZM658 346.53V345.036H651.448L650.674 344.496L649.846 343.2V342.048L650.152 340.986L650.854 340.536H658V339.042H650.278L648.802 340.14L648.37 341.742V343.398L649.054 344.586L649.45 345.036H648.514V346.53H658ZM653.068 332.924C654.028 332.924 654.97 333.02 655.894 333.212C656.818 333.392 657.694 333.68 658.522 334.076C659.362 334.46 660.136 334.958 660.844 335.57V337.046C660.088 336.494 659.284 336.032 658.432 335.66C657.592 335.288 656.716 335.006 655.804 334.814C654.892 334.622 653.974 334.526 653.05 334.526C652.102 334.526 651.166 334.622 650.242 334.814C649.318 335.006 648.424 335.288 647.56 335.66C646.696 336.032 645.892 336.5 645.148 337.064V335.57C645.868 334.958 646.654 334.46 647.506 334.076C648.358 333.68 649.252 333.392 650.188 333.212C651.124 333.02 652.084 332.924 653.068 332.924Z" fill="#FBF9F0"/>
<rect x="783" y="348" width="12" height="130" fill="#FBF9F0"/>
<path d="M762 476.38V474.886H755.52L754.674 474.31L753.846 473.05V471.898L754.152 470.926L754.854 470.476H762V468.982H754.278L752.802 470.08L752.37 471.592V473.248L753.054 474.454L753.414 474.886H748.428V476.38H762ZM762.144 463.473V461.565L761.28 459.747L759.948 458.847L758.328 458.487H756.204L754.584 458.847L753.252 459.747L752.37 461.565V463.473L753.252 465.291L754.584 466.191L756.204 466.551H758.328L759.948 466.191L761.28 465.291L762.144 463.473ZM760.686 463.221L760.164 464.283L759.354 464.823L758.148 465.057H756.348L755.178 464.823L754.386 464.301L753.846 463.221V461.817L754.386 460.773L755.178 460.215L756.348 459.981H758.148L759.354 460.215L760.164 460.755L760.686 461.817V463.221ZM762 455.884V454.39H755.448L754.674 453.85L753.846 452.554V451.402L754.188 450.484L754.926 450.034H762V448.54H755.52L754.674 447.964L753.846 446.704V445.552L754.152 444.634L754.854 444.184H762V442.69H754.278L752.802 443.788L752.37 445.246V446.902L753.054 448.162L753.738 448.954L752.802 449.638L752.37 451.096V452.752L753.054 453.94L753.45 454.39H752.514V455.884H762ZM762.144 436.852V435.358L761.73 433.702L760.956 432.532L759.768 433.324L760.362 434.26L760.668 435.484V436.564L760.128 437.662L758.958 438.526L758.166 438.76H757.986V431.812H756.096L754.89 432.226L753.234 433.432L752.37 435.25V436.852L753.234 438.652L754.89 439.876L756.204 440.254H758.346L759.624 439.876L761.28 438.652L762.144 436.852ZM756.51 438.76H756.348L755.556 438.544L754.404 437.698L753.846 436.618V435.502L754.422 434.404L755.592 433.54L756.276 433.306H756.51V438.76ZM757.068 424.88C756.084 424.88 755.124 424.79 754.188 424.61C753.252 424.418 752.358 424.124 751.506 423.728C750.654 423.332 749.868 422.834 749.148 422.234V420.74C749.892 421.292 750.696 421.76 751.56 422.144C752.424 422.516 753.318 422.798 754.242 422.99C755.166 423.182 756.102 423.278 757.05 423.278C757.974 423.278 758.892 423.182 759.804 422.99C760.716 422.798 761.592 422.516 762.432 422.144C763.284 421.772 764.088 421.31 764.844 420.758V422.234C764.136 422.834 763.362 423.332 762.522 423.728C761.694 424.124 760.818 424.418 759.894 424.61C758.97 424.79 758.028 424.88 757.068 424.88ZM762.144 415.811V414.317L761.73 412.661L760.956 411.491L759.768 412.283L760.362 413.219L760.668 414.443V415.523L760.128 416.621L758.958 417.485L758.166 417.719H757.986V410.771H756.096L754.89 411.185L753.234 412.391L752.37 414.209V415.811L753.234 417.611L754.89 418.835L756.204 419.213H758.346L759.624 418.835L761.28 417.611L762.144 415.811ZM756.51 417.719H756.348L755.556 417.503L754.404 416.657L753.846 415.577V414.461L754.422 413.363L755.592 412.499L756.276 412.265H756.51V417.719ZM762 406.29V404.922L752.514 401.16V402.744L759.858 405.606L752.514 408.468V410.052L762 406.29ZM762.144 396.756V395.262L761.73 393.606L760.956 392.436L759.768 393.228L760.362 394.164L760.668 395.388V396.468L760.128 397.566L758.958 398.43L758.166 398.664H757.986V391.716H756.096L754.89 392.13L753.234 393.336L752.37 395.154V396.756L753.234 398.556L754.89 399.78L756.204 400.158H758.346L759.624 399.78L761.28 398.556L762.144 396.756ZM756.51 398.664H756.348L755.556 398.448L754.404 397.602L753.846 396.522V395.406L754.422 394.308L755.592 393.444L756.276 393.21H756.51V398.664ZM762 389.192V387.698H755.448L754.674 387.158L753.846 385.862V384.71L754.152 383.648L754.854 383.198H762V381.704H754.278L752.802 382.802L752.37 384.404V386.061L753.054 387.248L753.45 387.698H752.514V389.192H762ZM750.642 378.97V376.81H748.428V378.97H750.642ZM762 378.646V377.152H752.514V378.646H762ZM762 373.917V372.423H755.448L754.674 371.883L753.846 370.587V369.435L754.152 368.373L754.854 367.923H762V366.429H754.278L752.802 367.527L752.37 369.129V370.785L753.054 371.973L753.45 372.423H752.514V373.917H762ZM765.024 360.652V359.068L764.574 357.736L763.656 356.368L762.342 355.918H752.514V357.412H753.09L752.766 357.916L752.37 358.996V360.598L753.234 362.398L754.89 363.622L756.204 364H757.914L759.192 363.622L760.848 362.362L761.568 360.526V358.906L760.884 357.79L760.524 357.412H762.18L762.72 357.628L763.242 358.402L763.548 359.23V360.508L763.314 361.372L763.008 361.822L762.558 362.272L763.62 363.316L764.106 362.812L764.682 361.93L765.024 360.652ZM760.092 360.292L759.624 361.462L758.49 362.29L757.716 362.506H756.402L755.556 362.29L754.404 361.426L753.828 360.364V359.212L754.062 358.474L754.512 357.79L754.98 357.412H758.418L759.264 357.934L760.092 359.104V360.292ZM757.068 349.623C758.028 349.623 758.97 349.719 759.894 349.911C760.818 350.091 761.694 350.379 762.522 350.775C763.362 351.159 764.136 351.657 764.844 352.269V353.745C764.088 353.193 763.284 352.731 762.432 352.359C761.592 351.987 760.716 351.705 759.804 351.513C758.892 351.321 757.974 351.225 757.05 351.225C756.102 351.225 755.166 351.321 754.242 351.513C753.318 351.705 752.424 351.987 751.56 352.359C750.696 352.731 749.892 353.199 749.148 353.763V352.269C749.868 351.657 750.654 351.159 751.506 350.775C752.358 350.379 753.252 350.091 754.188 349.911C755.124 349.719 756.084 349.623 757.068 349.623Z" fill="#FBF9F0"/>
<rect x="887" y="275" width="12" height="203" fill="#FBF9F0"/>
<path d="M866 476.38V474.886H859.52L858.674 474.31L857.846 473.05V471.898L858.152 470.926L858.854 470.476H866V468.982H858.278L856.802 470.08L856.37 471.592V473.248L857.054 474.454L857.414 474.886H852.428V476.38H866ZM866.144 463.473V461.565L865.28 459.747L863.948 458.847L862.328 458.487H860.204L858.584 458.847L857.252 459.747L856.37 461.565V463.473L857.252 465.291L858.584 466.191L860.204 466.551H862.328L863.948 466.191L865.28 465.291L866.144 463.473ZM864.686 463.221L864.164 464.283L863.354 464.823L862.148 465.057H860.348L859.178 464.823L858.386 464.301L857.846 463.221V461.817L858.386 460.773L859.178 460.215L860.348 459.981H862.148L863.354 460.215L864.164 460.755L864.686 461.817V463.221ZM866 455.884V454.39H859.448L858.674 453.85L857.846 452.554V451.402L858.188 450.484L858.926 450.034H866V448.54H859.52L858.674 447.964L857.846 446.704V445.552L858.152 444.634L858.854 444.184H866V442.69H858.278L856.802 443.788L856.37 445.246V446.902L857.054 448.162L857.738 448.954L856.802 449.638L856.37 451.096V452.752L857.054 453.94L857.45 454.39H856.514V455.884H866ZM866.144 436.852V435.358L865.73 433.702L864.956 432.532L863.768 433.324L864.362 434.26L864.668 435.484V436.564L864.128 437.662L862.958 438.526L862.166 438.76H861.986V431.812H860.096L858.89 432.226L857.234 433.432L856.37 435.25V436.852L857.234 438.652L858.89 439.876L860.204 440.254H862.346L863.624 439.876L865.28 438.652L866.144 436.852ZM860.51 438.76H860.348L859.556 438.544L858.404 437.698L857.846 436.618V435.502L858.422 434.404L859.592 433.54L860.276 433.306H860.51V438.76ZM861.068 424.88C860.084 424.88 859.124 424.79 858.188 424.61C857.252 424.418 856.358 424.124 855.506 423.728C854.654 423.332 853.868 422.834 853.148 422.234V420.74C853.892 421.292 854.696 421.76 855.56 422.144C856.424 422.516 857.318 422.798 858.242 422.99C859.166 423.182 860.102 423.278 861.05 423.278C861.974 423.278 862.892 423.182 863.804 422.99C864.716 422.798 865.592 422.516 866.432 422.144C867.284 421.772 868.088 421.31 868.844 420.758V422.234C868.136 422.834 867.362 423.332 866.522 423.728C865.694 424.124 864.818 424.418 863.894 424.61C862.97 424.79 862.028 424.88 861.068 424.88ZM866.144 415.739V414.119L865.46 413.003L865.046 412.607H866V411.131H852.428V412.625H857.09L856.766 413.129L856.37 414.209V415.811L857.234 417.611L858.89 418.835L860.204 419.213H862.346L863.624 418.835L865.28 417.611L866.144 415.739ZM864.668 415.505L864.128 416.639L862.958 417.503L862.148 417.719H860.402L859.556 417.503L858.404 416.639L857.828 415.577V414.425L858.062 413.687L858.512 413.003L858.98 412.625H863.066L863.84 413.147L864.668 414.317V415.505ZM854.642 408.22V406.06H852.428V408.22H854.642ZM866 407.896V406.402H856.514V407.896H866ZM866 403.167V401.673H859.448L858.674 401.133L857.846 399.837V398.685L858.152 397.623L858.854 397.173H866V395.679H858.278L856.802 396.777L856.37 398.379V400.035L857.054 401.223L857.45 401.673H856.514V403.167H866ZM866 392.62V391.126H859.448L858.674 390.586L857.846 389.29V388.138L858.152 387.076L858.854 386.626H866V385.132H858.278L856.802 386.23L856.37 387.832V389.488L857.054 390.676L857.45 391.126H856.514V392.62H866ZM866.144 379.301V377.807L865.73 376.151L864.956 374.981L863.768 375.773L864.362 376.709L864.668 377.933V379.013L864.128 380.111L862.958 380.975L862.166 381.209H861.986V374.261H860.096L858.89 374.675L857.234 375.881L856.37 377.699V379.301L857.234 381.101L858.89 382.325L860.204 382.703H862.346L863.624 382.325L865.28 381.101L866.144 379.301ZM860.51 381.209H860.348L859.556 380.993L858.404 380.147L857.846 379.067V377.951L858.422 376.853L859.592 375.989L860.276 375.755H860.51V381.209ZM866 371.827V370.333H860.006L859.142 369.937L858.314 369.199L857.846 368.209V367.435L858.044 366.715L856.622 366.355L856.37 367.255V368.425L856.946 369.649L857.612 370.333H856.514V371.827H866ZM866.144 356.713V355.885L865.766 354.211L864.344 354.589L864.668 355.867V356.371L864.416 357.019L863.768 357.469H858.224V354.985H856.748V357.469H853.436V358.963H856.748V360.673H858.224V358.963H864.254L865.676 357.973L866.144 356.713ZM854.642 352.638V350.478H852.428V352.638H854.642ZM866 352.314V350.82H856.514V352.314H866ZM866 347.585V346.091H859.448L858.674 345.551L857.846 344.255V343.103L858.188 342.185L858.926 341.735H866V340.241H859.52L858.674 339.665L857.846 338.405V337.253L858.152 336.335L858.854 335.885H866V334.391H858.278L856.802 335.489L856.37 336.947V338.603L857.054 339.863L857.738 340.655L856.802 341.339L856.37 342.797V344.453L857.054 345.641L857.45 346.091H856.514V347.585H866ZM866.144 328.553V327.059L865.73 325.403L864.956 324.233L863.768 325.025L864.362 325.961L864.668 327.185V328.265L864.128 329.363L862.958 330.227L862.166 330.461H861.986V323.513H860.096L858.89 323.927L857.234 325.133L856.37 326.951V328.553L857.234 330.353L858.89 331.577L860.204 331.955H862.346L863.624 331.577L865.28 330.353L866.144 328.553ZM860.51 330.461H860.348L859.556 330.245L858.404 329.399L857.846 328.319V327.203L858.422 326.105L859.592 325.241L860.276 325.007H860.51V330.461ZM861.068 317.929C862.028 317.929 862.97 318.025 863.894 318.217C864.818 318.397 865.694 318.685 866.522 319.081C867.362 319.465 868.136 319.963 868.844 320.575V322.051C868.088 321.499 867.284 321.037 866.432 320.665C865.592 320.293 864.716 320.011 863.804 319.819C862.892 319.627 861.974 319.531 861.05 319.531C860.102 319.531 859.166 319.627 858.242 319.819C857.318 320.011 856.424 320.293 855.56 320.665C854.696 321.037 853.892 321.505 853.148 322.069V320.575C853.868 319.963 854.654 319.465 855.506 319.081C856.358 318.685 857.252 318.397 858.188 318.217C859.124 318.025 860.084 317.929 861.068 317.929Z" fill="#FBF9F0"/>
<path d="M319.483 69H329.251V67.032H321.475V51.936H319.483V69ZM335.364 69.192H337.356L339.564 68.64L341.124 67.608L340.068 66.024L338.82 66.816L337.188 67.224H335.748L334.284 66.504L333.132 64.944L332.82 63.888V63.648H342.084V61.128L341.532 59.52L339.924 57.312L337.5 56.16H335.364L332.964 57.312L331.332 59.52L330.828 61.272V64.128L331.332 65.832L332.964 68.04L335.364 69.192ZM332.82 61.68V61.464L333.108 60.408L334.236 58.872L335.676 58.128H337.164L338.628 58.896L339.78 60.456L340.092 61.368V61.68H332.82ZM348.935 69.192H350.039L352.271 68.688L351.767 66.792L350.063 67.224H349.391L348.527 66.888L347.927 66.024V58.632H351.239V56.664H347.927V52.248H345.935V56.664H343.655V58.632H345.935V66.672L347.255 68.568L348.935 69.192ZM356.904 52.128C356.76 52.688 356.576 53.296 356.352 53.952C356.128 54.608 355.88 55.264 355.608 55.92C355.352 56.56 355.096 57.168 354.84 57.744H353.28C353.392 57.296 353.504 56.816 353.616 56.304C353.744 55.792 353.856 55.28 353.952 54.768C354.064 54.24 354.16 53.728 354.24 53.232C354.336 52.736 354.416 52.28 354.48 51.864H356.736L356.904 52.128ZM362.108 69.192H364.243L365.876 68.712L367.028 67.896L367.94 66.504V64.464L367.004 62.928L365.636 62.016L361.964 61.296L361.292 60.96L360.812 60.312V59.256L361.148 58.68L361.556 58.344L362.468 58.08H364.076L365.42 58.488L366.572 59.28L367.652 57.672L366.212 56.688L364.243 56.16H362.204L360.715 56.568L359.636 57.408L358.844 58.776V60.912L359.852 62.304L361.388 63.12L364.844 63.816L365.564 64.32L365.972 65.016V65.928L365.588 66.528L364.988 66.96L363.98 67.248H362.372L360.884 66.864L360.236 66.36L359.78 65.808L358.388 67.152L358.94 67.776L360.068 68.664L362.108 69.192ZM378.379 69H380.371V50.904H378.379V69ZM387.947 69.192H390.491L392.915 68.04L394.115 66.264L394.595 64.104V61.272L394.115 59.112L392.915 57.336L390.491 56.16H387.947L385.523 57.336L384.323 59.112L383.843 61.272V64.104L384.323 66.264L385.523 68.04L387.947 69.192ZM388.283 67.248L386.867 66.552L386.147 65.472L385.835 63.864V61.464L386.147 59.904L386.843 58.848L388.283 58.128H390.155L391.547 58.848L392.291 59.904L392.603 61.464V63.864L392.291 65.472L391.571 66.552L390.155 67.248H388.283ZM401.33 69.192H403.874L406.298 68.04L407.498 66.264L407.978 64.104V61.272L407.498 59.112L406.298 57.336L403.874 56.16H401.33L398.906 57.336L397.706 59.112L397.226 61.272V64.104L397.706 66.264L398.906 68.04L401.33 69.192ZM401.666 67.248L400.25 66.552L399.53 65.472L399.218 63.864V61.464L399.53 59.904L400.226 58.848L401.666 58.128H403.538L404.93 58.848L405.674 59.904L405.986 61.464V63.864L405.674 65.472L404.954 66.552L403.538 67.248H401.666ZM411.449 69H413.441V64.32L415.025 62.784L419.393 69H421.817L416.393 61.416L421.577 56.352H418.793L413.441 61.704V50.904H411.449V69ZM434.823 69.192H436.311L438.519 68.088L439.071 67.464L440.223 69.192L441.831 68.04L440.895 66.696V59.424L440.247 57.792L438.471 56.592L436.743 56.16H434.511L432.975 56.616L431.823 57.36L431.151 57.984L432.519 59.4L432.975 58.944L433.719 58.464L434.751 58.128H436.455L437.631 58.416L438.639 59.064L438.903 59.784V61.608L438.327 61.2L436.719 60.672H435.183L432.807 61.272L431.031 63.048L430.695 64.68V66.072L432.039 68.016L433.191 68.688L434.823 69.192ZM435.111 67.224L433.983 66.888L433.431 66.552L432.687 65.496V64.848L432.879 64.008L433.815 63.072L435.399 62.64H436.479L437.655 62.976L438.399 63.36L438.903 63.888V64.776L438.663 65.52L437.679 66.552L435.879 67.224H435.111ZM448.474 69.192H449.578L451.81 68.688L451.306 66.792L449.602 67.224H448.93L448.066 66.888L447.466 66.024V58.632H450.778V56.664H447.466V52.248H445.474V56.664H443.194V58.632H445.474V66.672L446.794 68.568L448.474 69.192ZM464.823 69.192H466.311L468.519 68.088L469.071 67.464L470.223 69.192L471.831 68.04L470.895 66.696V59.424L470.247 57.792L468.471 56.592L466.743 56.16H464.511L462.975 56.616L461.823 57.36L461.151 57.984L462.519 59.4L462.975 58.944L463.719 58.464L464.751 58.128H466.455L467.631 58.416L468.639 59.064L468.903 59.784V61.608L468.327 61.2L466.719 60.672H465.183L462.807 61.272L461.031 63.048L460.695 64.68V66.072L462.039 68.016L463.191 68.688L464.823 69.192ZM465.111 67.224L463.983 66.888L463.431 66.552L462.687 65.496V64.848L462.879 64.008L463.815 63.072L465.399 62.64H466.479L467.655 62.976L468.399 63.36L468.903 63.888V64.776L468.663 65.52L467.679 66.552L465.879 67.224H465.111ZM475.105 69H477.097V50.904H475.105V69ZM481.41 69H483.402V50.904H481.41V69ZM498.278 69.192H499.382L501.614 68.688L501.11 66.792L499.406 67.224H498.734L497.87 66.888L497.27 66.024V58.632H500.582V56.664H497.27V52.248H495.278V56.664H492.998V58.632H495.278V66.672L496.598 68.568L498.278 69.192ZM504.496 69H506.488V60.36L507.256 59.232L508.936 58.128H510.472L511.768 58.536L512.368 59.472V69H514.36V58.704L512.896 56.736L510.88 56.16H508.672L507.064 57.072L506.488 57.552V50.904H504.496V69ZM522.137 69.192H524.129L526.337 68.64L527.897 67.608L526.841 66.024L525.593 66.816L523.961 67.224H522.521L521.057 66.504L519.905 64.944L519.593 63.888V63.648H528.857V61.128L528.305 59.52L526.697 57.312L524.273 56.16H522.137L519.737 57.312L518.105 59.52L517.601 61.272V64.128L518.105 65.832L519.737 68.04L522.137 69.192ZM519.593 61.68V61.464L519.881 60.408L521.009 58.872L522.449 58.128H523.937L525.401 58.896L526.553 60.456L526.865 61.368V61.68H519.593ZM539.786 69H541.778V58.632H544.994V56.664H541.778V53.88L542.378 52.992L543.29 52.68H543.938L545.714 53.136L546.218 51.192L544.082 50.712H543.122L541.106 51.336L539.786 53.304V56.664H537.506V58.632H539.786V69ZM548.314 53.856H551.194V50.904H548.314V53.856ZM548.746 69H550.738V56.352H548.746V69ZM555.051 69H557.043V60.264L557.763 59.232L559.491 58.128H561.027L562.443 58.536L563.043 59.472V69H565.035V58.704L563.571 56.736L561.435 56.16H559.227L557.643 57.072L557.043 57.6V56.352H555.051V69ZM572.905 69.192H575.065L576.553 68.28L577.081 67.728V69H579.049V50.904H577.057V57.12L576.385 56.688L574.945 56.16H572.809L570.409 57.312L568.777 59.52L568.273 61.272V64.128L568.777 65.832L570.409 68.04L572.905 69.192ZM573.217 67.224L571.705 66.504L570.553 64.944L570.265 63.864V61.536L570.553 60.408L571.705 58.872L573.121 58.104H574.657L575.641 58.416L576.553 59.016L577.057 59.64V65.088L576.361 66.12L574.801 67.224H573.217ZM582.931 53.856H585.811V50.904H582.931V53.856ZM583.363 69H585.355V56.352H583.363V69ZM589.668 69H591.66V60.264L592.38 59.232L594.108 58.128H595.644L597.06 58.536L597.66 59.472V69H599.652V58.704L598.188 56.736L596.052 56.16H593.844L592.26 57.072L591.66 57.6V56.352H589.668V69ZM607.354 73.032H609.466L611.242 72.432L613.066 71.208L613.666 69.456V56.352H611.674V57.12L611.002 56.688L609.562 56.16H607.426L605.026 57.312L603.394 59.52L602.89 61.272V63.552L603.394 65.256L605.074 67.464L607.522 68.424H609.682L611.17 67.512L611.674 67.032V69.24L611.386 69.96L610.354 70.656L609.25 71.064H607.546L606.394 70.752L605.794 70.344L605.194 69.744L603.802 71.16L604.474 71.808L605.65 72.576L607.354 73.032ZM607.834 66.456L606.274 65.832L605.17 64.32L604.882 63.288V61.536L605.17 60.408L606.322 58.872L607.738 58.104H609.274L610.258 58.416L611.17 59.016L611.674 59.64V64.224L610.978 65.352L609.418 66.456H607.834ZM620.74 69.192H622.876L624.508 68.712L625.66 67.896L626.572 66.504V64.464L625.636 62.928L624.268 62.016L620.596 61.296L619.924 60.96L619.444 60.312V59.256L619.78 58.68L620.188 58.344L621.1 58.08H622.708L624.052 58.488L625.204 59.28L626.284 57.672L624.844 56.688L622.876 56.16H620.836L619.348 56.568L618.268 57.408L617.476 58.776V60.912L618.484 62.304L620.02 63.12L623.476 63.816L624.196 64.32L624.604 65.016V65.928L624.22 66.528L623.62 66.96L622.612 67.248H621.004L619.516 66.864L618.868 66.36L618.412 65.808L617.02 67.152L617.572 67.776L618.7 68.664L620.74 69.192ZM641.116 69.192H643.252L645.652 68.04L647.284 65.832L647.788 64.08V61.224L647.284 59.52L645.652 57.312L643.156 56.16H640.996L639.532 57.072L639.004 57.624V50.904H637.012V69H639.004V68.232L639.676 68.664L641.116 69.192ZM641.404 67.248L640.42 66.936L639.508 66.336L639.004 65.712V60.264L639.7 59.232L641.26 58.128H642.844L644.356 58.848L645.508 60.408L645.796 61.488V63.816L645.508 64.944L644.356 66.48L642.94 67.248H641.404ZM654.958 69.192H656.95L659.158 68.64L660.718 67.608L659.662 66.024L658.414 66.816L656.782 67.224H655.342L653.878 66.504L652.726 64.944L652.414 63.888V63.648H661.678V61.128L661.126 59.52L659.518 57.312L657.094 56.16H654.958L652.558 57.312L650.926 59.52L650.422 61.272V64.128L650.926 65.832L652.558 68.04L654.958 69.192ZM652.414 61.68V61.464L652.702 60.408L653.83 58.872L655.27 58.128H656.758L658.222 58.896L659.374 60.456L659.686 61.368V61.68H652.414ZM665.043 69H667.035V50.904H665.043V69ZM674.612 69.192H677.156L679.58 68.04L680.78 66.264L681.26 64.104V61.272L680.78 59.112L679.58 57.336L677.156 56.16H674.612L672.188 57.336L670.988 59.112L670.508 61.272V64.104L670.988 66.264L672.188 68.04L674.612 69.192ZM674.948 67.248L673.532 66.552L672.812 65.472L672.5 63.864V61.464L672.812 59.904L673.508 58.848L674.948 58.128H676.82L678.212 58.848L678.956 59.904L679.268 61.464V63.864L678.956 65.472L678.236 66.552L676.82 67.248H674.948ZM686.374 69H688.246L691.318 60.168L694.39 69H696.262L699.934 56.352H697.846L695.254 65.688L692.134 56.832H690.502L687.382 65.688L684.79 56.352H682.702L686.374 69ZM701.014 69H703.87V66.048H701.014V69Z" fill="#FBF9F0"/>
</g>
<defs>
<clipPath id="clip0_79_431">
<rect width="1024" height="576" fill="white"/>
</clipPath>
</defs>
</svg>
