<svg width="1024" height="576" viewBox="0 0 1024 576" fill="none" xmlns="http://www.w3.org/2000/svg">
<g clip-path="url(#clip0_79_390)">
<path d="M229.899 120.556C227.787 120.556 226.251 119.404 225.603 117.58C225.339 116.884 225.243 116.164 225.243 115.348C225.243 114.532 225.339 113.788 225.603 113.116C226.251 111.292 227.787 110.116 229.899 110.116C232.035 110.116 233.547 111.292 234.219 113.116C234.459 113.788 234.579 114.532 234.579 115.348C234.579 116.164 234.459 116.884 234.219 117.58C233.547 119.452 232.011 120.556 229.899 120.556ZM221.139 115.348C221.139 116.596 221.331 117.748 221.691 118.78C222.771 121.828 225.315 123.772 228.747 124.108V124.42C228.747 126.844 229.995 127.828 232.371 127.828H235.923V124.732H231.555V124.06C234.747 123.58 237.075 121.636 238.107 118.78C238.491 117.748 238.683 116.596 238.683 115.348C238.683 114.1 238.491 112.948 238.107 111.916C236.931 108.58 233.931 106.516 229.899 106.516C225.891 106.516 222.891 108.58 221.691 111.916C221.331 112.948 221.139 114.1 221.139 115.348ZM240.156 123.748H244.548V119.692H240.156V123.748ZM254.602 123.748H260.914L262.714 111.436L262.738 109.468H263.218L263.266 111.436L265.066 123.748H271.378L274.234 106.948H270.13L268.21 119.452L268.162 121.468H267.682L267.634 119.452L265.81 106.948H260.17L258.346 119.452L258.298 121.468H257.818L257.77 119.452L255.826 106.948H251.722L254.602 123.748ZM276.518 123.748H280.238V117.532C280.238 115.876 281.078 114.892 282.422 114.892C283.622 114.892 284.198 115.612 284.198 116.932V123.748H287.918V116.14C287.918 113.092 286.526 111.484 283.814 111.484C281.846 111.484 280.502 112.684 279.83 114.988H279.35L280.238 111.844V106.948H276.518V123.748ZM290.885 123.748H294.605V111.844H290.885V123.748ZM290.789 110.38H294.725V107.26H290.789V110.38ZM302.959 124.108C306.247 124.108 308.527 122.356 308.671 119.164H304.975C304.807 120.268 304.111 120.868 302.983 120.868C302.239 120.868 301.639 120.556 301.231 119.98C300.871 119.452 300.679 118.732 300.679 117.844C300.679 116.908 300.895 116.212 301.255 115.66C301.687 115.06 302.311 114.724 303.103 114.724C304.255 114.724 304.999 115.324 305.191 116.452H308.863C308.743 113.284 306.415 111.484 303.103 111.484C300.895 111.484 299.119 112.3 298.063 113.812C297.343 114.844 296.935 116.212 296.935 117.844C296.935 119.452 297.319 120.772 298.039 121.804C299.071 123.316 300.799 124.108 302.959 124.108ZM311.112 123.748H314.832V117.532C314.832 115.876 315.672 114.892 317.016 114.892C318.216 114.892 318.792 115.612 318.792 116.932V123.748H322.512V116.14C322.512 113.092 321.12 111.484 318.408 111.484C316.44 111.484 315.096 112.684 314.424 114.988H313.944L314.832 111.844V106.948H311.112V123.748ZM335.634 124.108C337.482 124.108 338.85 123.604 339.714 122.74C340.338 122.116 340.674 121.324 340.674 120.292C340.674 118.252 339.594 117.148 337.074 116.572L335.514 116.236C334.578 116.02 334.218 115.708 334.218 115.18C334.218 114.916 334.314 114.7 334.458 114.532C334.722 114.292 335.106 114.172 335.682 114.172C336.738 114.172 337.362 114.676 337.362 115.612V115.732H340.818V115.612C340.818 113.044 338.994 111.508 335.802 111.508C333.954 111.508 332.562 111.988 331.674 112.852C331.05 113.476 330.738 114.292 330.738 115.252C330.738 117.22 331.818 118.396 333.906 118.852L335.922 119.308C336.81 119.476 337.146 119.836 337.146 120.388C337.146 120.676 337.05 120.892 336.882 121.06C336.642 121.3 336.234 121.42 335.682 121.42C334.626 121.42 334.026 120.94 334.026 120.028V119.908H330.57V120.028C330.57 122.62 332.418 124.108 335.634 124.108ZM348.835 124.108C351.787 124.108 353.683 122.332 353.683 119.476V117.652H349.939V119.38C349.939 120.484 349.627 120.916 348.883 120.916C348.283 120.916 347.875 120.484 347.875 119.548V114.844H353.683V111.844H347.875V108.412L344.155 110.068V111.844H341.995V114.844H344.155V119.62C344.155 122.524 345.739 124.108 348.835 124.108ZM356.135 123.748H359.855V117.316C359.855 115.732 360.407 114.916 361.343 114.916C362.183 114.916 362.591 115.42 362.591 116.692V118.276H366.383V115.492C366.383 112.924 365.303 111.484 363.191 111.484C361.271 111.484 360.047 112.588 359.255 115.276H358.751L359.807 111.844H356.135V123.748ZM373.767 124.108C376.767 124.108 378.975 122.476 379.383 120.052H375.663C375.375 120.868 374.631 121.276 373.695 121.276C372.759 121.276 372.135 120.964 371.727 120.388C371.439 119.98 371.271 119.428 371.175 118.756H379.359V117.796C379.359 113.812 377.295 111.484 373.599 111.484C371.559 111.484 369.807 112.3 368.751 113.812C368.031 114.844 367.599 116.212 367.599 117.844C367.599 119.452 367.983 120.772 368.703 121.804C369.735 123.316 371.463 124.108 373.767 124.108ZM371.223 116.476C371.295 115.972 371.463 115.54 371.703 115.204C372.135 114.556 372.807 114.244 373.599 114.244C374.991 114.244 375.759 115.012 375.807 116.476H371.223ZM384.826 124.108C386.986 124.108 388.234 123.004 388.882 120.604H389.362L388.498 123.748H392.146V116.092C392.146 113.068 390.226 111.484 386.674 111.484C381.01 111.484 380.962 115.66 380.962 116.068V116.14H384.73V116.068C384.73 115.9 384.754 114.412 386.554 114.412C387.754 114.412 388.402 115.012 388.402 116.092V116.74L385.402 117.004C383.938 117.124 382.834 117.58 382.114 118.3C381.514 118.9 381.202 119.716 381.202 120.724C381.202 121.708 381.538 122.5 382.138 123.1C382.762 123.748 383.722 124.108 384.826 124.108ZM385.042 120.412C385.042 120.076 385.162 119.788 385.354 119.596C385.642 119.308 386.05 119.14 386.626 119.068L388.402 118.852V118.924C388.402 119.716 387.898 121.516 386.218 121.516C385.834 121.516 385.522 121.396 385.33 121.204C385.138 121.012 385.042 120.748 385.042 120.412ZM395.112 123.748H398.832V117.268C398.832 115.756 399.48 114.892 400.656 114.892C401.544 114.892 402.12 115.54 402.12 116.788V123.748H405.84V117.268C405.84 115.78 406.536 114.892 407.688 114.892C408.648 114.892 409.128 115.54 409.128 116.788V123.748H412.848V115.996C412.848 113.068 411.576 111.484 409.224 111.484C407.424 111.484 405.912 112.492 405.336 114.988H404.856C404.856 112.684 403.584 111.484 401.952 111.484C400.152 111.484 399 112.708 398.424 114.988H397.944L398.832 111.844H395.112V123.748ZM415.831 123.748H419.551V111.844H415.831V123.748ZM415.735 110.38H419.671V107.26H415.735V110.38ZM422.768 123.748H426.488V117.532C426.488 115.876 427.328 114.892 428.672 114.892C429.872 114.892 430.448 115.612 430.448 116.932V123.748H434.168V116.14C434.168 113.092 432.752 111.484 430.04 111.484C428.072 111.484 426.752 112.684 426.08 114.988H425.6L426.488 111.844H422.768V123.748ZM442.271 128.404C446.327 128.404 448.343 126.268 448.343 121.924V111.844H444.671L445.679 115.012H445.199C444.599 112.636 443.135 111.484 441.287 111.484C439.679 111.484 438.335 112.204 437.471 113.428C436.799 114.412 436.415 115.708 436.415 117.244C436.415 118.756 436.799 120.052 437.471 121.036C438.335 122.26 439.679 122.98 441.287 122.98C443.135 122.98 444.599 121.828 445.199 119.452H445.679L444.623 122.668V123.1C444.623 124.708 443.735 125.548 442.271 125.548C440.807 125.548 440.135 124.9 440.015 123.868H436.415C436.535 126.724 438.479 128.404 442.271 128.404ZM440.111 117.244C440.111 116.5 440.255 115.924 440.615 115.42C441.023 114.82 441.671 114.508 442.439 114.508C443.231 114.508 443.855 114.82 444.263 115.42C444.623 115.924 444.767 116.5 444.767 117.244C444.767 117.964 444.623 118.54 444.263 119.044C443.855 119.644 443.231 119.956 442.439 119.956C441.671 119.956 441.023 119.644 440.615 119.044C440.255 118.54 440.111 117.964 440.111 117.244ZM461.634 124.108C463.482 124.108 464.85 123.604 465.714 122.74C466.338 122.116 466.674 121.324 466.674 120.292C466.674 118.252 465.594 117.148 463.074 116.572L461.514 116.236C460.578 116.02 460.218 115.708 460.218 115.18C460.218 114.916 460.314 114.7 460.458 114.532C460.722 114.292 461.106 114.172 461.682 114.172C462.738 114.172 463.362 114.676 463.362 115.612V115.732H466.818V115.612C466.818 113.044 464.994 111.508 461.802 111.508C459.954 111.508 458.562 111.988 457.674 112.852C457.05 113.476 456.738 114.292 456.738 115.252C456.738 117.22 457.818 118.396 459.906 118.852L461.922 119.308C462.81 119.476 463.146 119.836 463.146 120.388C463.146 120.676 463.05 120.892 462.882 121.06C462.642 121.3 462.234 121.42 461.682 121.42C460.626 121.42 460.026 120.94 460.026 120.028V119.908H456.57V120.028C456.57 122.62 458.418 124.108 461.634 124.108ZM474.595 124.108C477.595 124.108 479.803 122.476 480.211 120.052H476.491C476.203 120.868 475.459 121.276 474.523 121.276C473.587 121.276 472.963 120.964 472.555 120.388C472.267 119.98 472.099 119.428 472.003 118.756H480.187V117.796C480.187 113.812 478.123 111.484 474.427 111.484C472.387 111.484 470.635 112.3 469.579 113.812C468.859 114.844 468.427 116.212 468.427 117.844C468.427 119.452 468.811 120.772 469.531 121.804C470.563 123.316 472.291 124.108 474.595 124.108ZM472.051 116.476C472.123 115.972 472.291 115.54 472.531 115.204C472.963 114.556 473.635 114.244 474.427 114.244C475.819 114.244 476.587 115.012 476.635 116.476H472.051ZM482.534 123.748H486.254V117.316C486.254 115.732 486.806 114.916 487.742 114.916C488.582 114.916 488.99 115.42 488.99 116.692V118.276H492.782V115.492C492.782 112.924 491.702 111.484 489.59 111.484C487.67 111.484 486.446 112.588 485.654 115.276H485.15L486.206 111.844H482.534V123.748ZM496.949 123.748H503.093L506.501 111.844H502.637L500.333 120.46L500.261 121.66H499.805L499.733 120.46L497.453 111.844H493.565L496.949 123.748ZM508.432 123.748H512.152V111.844H508.432V123.748ZM508.336 110.38H512.272V107.26H508.336V110.38ZM520.506 124.108C523.794 124.108 526.074 122.356 526.218 119.164H522.522C522.354 120.268 521.658 120.868 520.53 120.868C519.786 120.868 519.186 120.556 518.778 119.98C518.418 119.452 518.226 118.732 518.226 117.844C518.226 116.908 518.442 116.212 518.802 115.66C519.234 115.06 519.858 114.724 520.65 114.724C521.802 114.724 522.546 115.324 522.738 116.452H526.41C526.29 113.284 523.962 111.484 520.65 111.484C518.442 111.484 516.666 112.3 515.61 113.812C514.89 114.844 514.482 116.212 514.482 117.844C514.482 119.452 514.866 120.772 515.586 121.804C516.618 123.316 518.346 124.108 520.506 124.108ZM533.939 124.108C536.939 124.108 539.147 122.476 539.555 120.052H535.835C535.547 120.868 534.803 121.276 533.867 121.276C532.931 121.276 532.307 120.964 531.899 120.388C531.611 119.98 531.443 119.428 531.347 118.756H539.531V117.796C539.531 113.812 537.467 111.484 533.771 111.484C531.731 111.484 529.979 112.3 528.923 113.812C528.203 114.844 527.771 116.212 527.771 117.844C527.771 119.452 528.155 120.772 528.875 121.804C529.907 123.316 531.635 124.108 533.939 124.108ZM531.395 116.476C531.467 115.972 531.635 115.54 531.875 115.204C532.307 114.556 532.979 114.244 533.771 114.244C535.163 114.244 535.931 115.012 535.979 116.476H531.395ZM546.15 124.108C547.998 124.108 549.366 123.604 550.23 122.74C550.854 122.116 551.19 121.324 551.19 120.292C551.19 118.252 550.11 117.148 547.59 116.572L546.03 116.236C545.094 116.02 544.734 115.708 544.734 115.18C544.734 114.916 544.83 114.7 544.974 114.532C545.238 114.292 545.622 114.172 546.198 114.172C547.254 114.172 547.878 114.676 547.878 115.612V115.732H551.334V115.612C551.334 113.044 549.51 111.508 546.318 111.508C544.47 111.508 543.078 111.988 542.19 112.852C541.566 113.476 541.254 114.292 541.254 115.252C541.254 117.22 542.334 118.396 544.422 118.852L546.438 119.308C547.326 119.476 547.662 119.836 547.662 120.388C547.662 120.676 547.566 120.892 547.398 121.06C547.158 121.3 546.75 121.42 546.198 121.42C545.142 121.42 544.542 120.94 544.542 120.028V119.908H541.086V120.028C541.086 122.62 542.934 124.108 546.15 124.108ZM564.057 124.108C566.121 124.108 567.465 122.836 568.161 120.604H568.641L567.729 123.748H571.473V106.948H567.729V111.844L568.641 114.988H568.161C567.465 112.756 566.121 111.484 564.057 111.484C562.401 111.484 561.033 112.228 560.145 113.5C559.401 114.58 558.993 116.044 558.993 117.796C558.993 119.548 559.401 121.012 560.145 122.092C561.033 123.388 562.401 124.108 564.057 124.108ZM562.761 117.796C562.761 116.932 562.977 116.212 563.337 115.684C563.769 115.06 564.441 114.724 565.281 114.724C566.097 114.724 566.769 115.06 567.201 115.684C567.561 116.212 567.777 116.932 567.777 117.796C567.777 118.684 567.561 119.404 567.201 119.908C566.769 120.532 566.097 120.868 565.281 120.868C564.441 120.868 563.769 120.532 563.337 119.908C562.977 119.404 562.761 118.684 562.761 117.796ZM580.091 124.108C582.371 124.108 584.243 123.172 585.347 121.564C586.043 120.532 586.427 119.26 586.427 117.796C586.427 116.332 586.043 115.06 585.347 114.028C584.243 112.42 582.371 111.484 580.091 111.484C577.811 111.484 575.963 112.42 574.859 114.028C574.163 115.06 573.779 116.332 573.779 117.796C573.779 119.26 574.163 120.532 574.859 121.564C575.963 123.172 577.811 124.108 580.091 124.108ZM577.523 117.796C577.523 116.98 577.739 116.284 578.075 115.78C578.531 115.108 579.251 114.724 580.091 114.724C580.955 114.724 581.651 115.108 582.107 115.78C582.467 116.284 582.659 116.98 582.659 117.796C582.659 118.612 582.467 119.308 582.107 119.812C581.651 120.484 580.955 120.868 580.091 120.868C579.251 120.868 578.531 120.484 578.075 119.812C577.739 119.308 577.523 118.612 577.523 117.796ZM597.806 128.404C600.302 128.404 601.886 127.18 602.702 124.372L606.278 111.844H602.27L600.134 120.532H599.702L597.254 111.844H593.246L596.654 122.644H599.606L599.198 124.324C598.982 125.212 598.454 125.572 597.758 125.572C597.086 125.572 596.702 125.236 596.702 124.708V124.54H593.078V124.78C593.078 127.132 594.926 128.404 597.806 128.404ZM613.302 124.108C615.582 124.108 617.454 123.172 618.558 121.564C619.254 120.532 619.638 119.26 619.638 117.796C619.638 116.332 619.254 115.06 618.558 114.028C617.454 112.42 615.582 111.484 613.302 111.484C611.022 111.484 609.174 112.42 608.07 114.028C607.374 115.06 606.99 116.332 606.99 117.796C606.99 119.26 607.374 120.532 608.07 121.564C609.174 123.172 611.022 124.108 613.302 124.108ZM610.734 117.796C610.734 116.98 610.95 116.284 611.286 115.78C611.742 115.108 612.462 114.724 613.302 114.724C614.166 114.724 614.862 115.108 615.318 115.78C615.678 116.284 615.87 116.98 615.87 117.796C615.87 118.612 615.678 119.308 615.318 119.812C614.862 120.484 614.166 120.868 613.302 120.868C612.462 120.868 611.742 120.484 611.286 119.812C610.95 119.308 610.734 118.612 610.734 117.796ZM625.731 124.108C627.651 124.108 628.923 122.932 629.571 120.604H630.075L629.163 123.748H632.883V111.844H629.163V118.06C629.163 119.716 628.371 120.7 627.123 120.7C625.995 120.7 625.443 120.004 625.443 118.66V111.844H621.723V119.452C621.723 122.5 623.067 124.108 625.731 124.108ZM645.747 124.108C647.667 124.108 648.939 122.932 649.587 120.604H650.091L649.179 123.748H652.899V111.844H649.179V118.06C649.179 119.716 648.387 120.7 647.139 120.7C646.011 120.7 645.459 120.004 645.459 118.66V111.844H641.739V119.452C641.739 122.5 643.083 124.108 645.747 124.108ZM660.384 124.108C662.232 124.108 663.6 123.604 664.464 122.74C665.088 122.116 665.424 121.324 665.424 120.292C665.424 118.252 664.344 117.148 661.824 116.572L660.264 116.236C659.328 116.02 658.968 115.708 658.968 115.18C658.968 114.916 659.064 114.7 659.208 114.532C659.472 114.292 659.856 114.172 660.432 114.172C661.488 114.172 662.112 114.676 662.112 115.612V115.732H665.568V115.612C665.568 113.044 663.744 111.508 660.552 111.508C658.704 111.508 657.312 111.988 656.424 112.852C655.8 113.476 655.488 114.292 655.488 115.252C655.488 117.22 656.568 118.396 658.656 118.852L660.672 119.308C661.56 119.476 661.896 119.836 661.896 120.388C661.896 120.676 661.8 120.892 661.632 121.06C661.392 121.3 660.984 121.42 660.432 121.42C659.376 121.42 658.776 120.94 658.776 120.028V119.908H655.32V120.028C655.32 122.62 657.168 124.108 660.384 124.108ZM673.345 124.108C676.345 124.108 678.553 122.476 678.961 120.052H675.241C674.953 120.868 674.209 121.276 673.273 121.276C672.337 121.276 671.713 120.964 671.305 120.388C671.017 119.98 670.849 119.428 670.753 118.756H678.937V117.796C678.937 113.812 676.873 111.484 673.177 111.484C671.137 111.484 669.385 112.3 668.329 113.812C667.609 114.844 667.177 116.212 667.177 117.844C667.177 119.452 667.561 120.772 668.281 121.804C669.313 123.316 671.041 124.108 673.345 124.108ZM670.801 116.476C670.873 115.972 671.041 115.54 671.281 115.204C671.713 114.556 672.385 114.244 673.177 114.244C674.569 114.244 675.337 115.012 675.385 116.476H670.801ZM692.452 124.108C695.404 124.108 697.3 122.332 697.3 119.476V117.652H693.556V119.38C693.556 120.484 693.244 120.916 692.5 120.916C691.9 120.916 691.492 120.484 691.492 119.548V114.844H697.3V111.844H691.492V108.412L687.772 110.068V111.844H685.612V114.844H687.772V119.62C687.772 122.524 689.356 124.108 692.452 124.108ZM699.753 123.748H703.473V117.532C703.473 115.876 704.313 114.892 705.657 114.892C706.857 114.892 707.433 115.612 707.433 116.932V123.748H711.153V116.14C711.153 113.092 709.761 111.484 707.049 111.484C705.081 111.484 703.737 112.684 703.065 114.988H702.585L703.473 111.844V106.948H699.753V123.748ZM719.4 124.108C722.4 124.108 724.608 122.476 725.016 120.052H721.296C721.008 120.868 720.264 121.276 719.328 121.276C718.392 121.276 717.768 120.964 717.36 120.388C717.072 119.98 716.904 119.428 716.808 118.756H724.992V117.796C724.992 113.812 722.928 111.484 719.232 111.484C717.192 111.484 715.44 112.3 714.384 113.812C713.664 114.844 713.232 116.212 713.232 117.844C713.232 119.452 713.616 120.772 714.336 121.804C715.368 123.316 717.096 124.108 719.4 124.108ZM716.856 116.476C716.928 115.972 717.096 115.54 717.336 115.204C717.768 114.556 718.44 114.244 719.232 114.244C720.624 114.244 721.392 115.012 721.44 116.476H716.856ZM733.221 123.748H736.941V117.268C736.941 115.756 737.589 114.892 738.765 114.892C739.653 114.892 740.229 115.54 740.229 116.788V123.748H743.949V117.268C743.949 115.78 744.645 114.892 745.797 114.892C746.757 114.892 747.237 115.54 747.237 116.788V123.748H750.957V115.996C750.957 113.068 749.685 111.484 747.333 111.484C745.533 111.484 744.021 112.492 743.445 114.988H742.965C742.965 112.684 741.693 111.484 740.061 111.484C738.261 111.484 737.109 112.708 736.533 114.988H736.053L736.941 111.844H733.221V123.748ZM759.364 124.108C761.644 124.108 763.516 123.172 764.62 121.564C765.316 120.532 765.7 119.26 765.7 117.796C765.7 116.332 765.316 115.06 764.62 114.028C763.516 112.42 761.644 111.484 759.364 111.484C757.084 111.484 755.236 112.42 754.132 114.028C753.436 115.06 753.052 116.332 753.052 117.796C753.052 119.26 753.436 120.532 754.132 121.564C755.236 123.172 757.084 124.108 759.364 124.108ZM756.796 117.796C756.796 116.98 757.012 116.284 757.348 115.78C757.804 115.108 758.524 114.724 759.364 114.724C760.228 114.724 760.924 115.108 761.38 115.78C761.74 116.284 761.932 116.98 761.932 117.796C761.932 118.612 761.74 119.308 761.38 119.812C760.924 120.484 760.228 120.868 759.364 120.868C758.524 120.868 757.804 120.484 757.348 119.812C757.012 119.308 756.796 118.612 756.796 117.796ZM772.298 124.108C774.146 124.108 775.514 123.604 776.378 122.74C777.002 122.116 777.338 121.324 777.338 120.292C777.338 118.252 776.258 117.148 773.738 116.572L772.178 116.236C771.242 116.02 770.882 115.708 770.882 115.18C770.882 114.916 770.978 114.7 771.122 114.532C771.386 114.292 771.77 114.172 772.346 114.172C773.402 114.172 774.026 114.676 774.026 115.612V115.732H777.482V115.612C777.482 113.044 775.658 111.508 772.466 111.508C770.618 111.508 769.226 111.988 768.338 112.852C767.714 113.476 767.402 114.292 767.402 115.252C767.402 117.22 768.482 118.396 770.57 118.852L772.586 119.308C773.474 119.476 773.81 119.836 773.81 120.388C773.81 120.676 773.714 120.892 773.546 121.06C773.306 121.3 772.898 121.42 772.346 121.42C771.29 121.42 770.69 120.94 770.69 120.028V119.908H767.234V120.028C767.234 122.62 769.082 124.108 772.298 124.108ZM785.499 124.108C788.451 124.108 790.347 122.332 790.347 119.476V117.652H786.603V119.38C786.603 120.484 786.291 120.916 785.547 120.916C784.947 120.916 784.539 120.484 784.539 119.548V114.844H790.347V111.844H784.539V108.412L780.819 110.068V111.844H778.659V114.844H780.819V119.62C780.819 122.524 782.403 124.108 785.499 124.108ZM794.431 117.196C794.431 116.668 794.503 116.196 794.647 115.78C794.791 115.364 795.023 114.972 795.343 114.604C795.679 114.236 796.119 113.86 796.663 113.476C797.143 113.124 797.527 112.812 797.815 112.54C798.119 112.268 798.335 111.996 798.463 111.724C798.607 111.452 798.679 111.148 798.679 110.812C798.679 110.3 798.487 109.916 798.103 109.66C797.735 109.388 797.215 109.252 796.543 109.252C795.871 109.252 795.207 109.356 794.551 109.564C793.895 109.772 793.223 110.052 792.535 110.404L791.263 107.836C792.047 107.404 792.895 107.052 793.807 106.78C794.719 106.508 795.719 106.372 796.807 106.372C798.471 106.372 799.759 106.772 800.671 107.572C801.599 108.372 802.063 109.388 802.063 110.62C802.063 111.276 801.959 111.844 801.751 112.324C801.543 112.804 801.231 113.252 800.815 113.668C800.399 114.068 799.879 114.5 799.255 114.964C798.791 115.3 798.431 115.588 798.175 115.828C797.919 116.068 797.743 116.3 797.647 116.524C797.567 116.748 797.527 117.028 797.527 117.364V118.06H794.431V117.196ZM794.047 122.068C794.047 121.332 794.247 120.82 794.647 120.532C795.047 120.228 795.535 120.076 796.111 120.076C796.671 120.076 797.151 120.228 797.551 120.532C797.951 120.82 798.151 121.332 798.151 122.068C798.151 122.772 797.951 123.284 797.551 123.604C797.151 123.908 796.671 124.06 796.111 124.06C795.535 124.06 795.047 123.908 794.647 123.604C794.247 123.284 794.047 122.772 794.047 122.068Z" fill="#FBF9F0"/>
<path d="M198 476V504H920V476" stroke="#FFC800" stroke-width="2" stroke-linecap="round"/>
<path d="M445.608 528H449.328V521.784C449.328 520.128 450.168 519.144 451.512 519.144C452.712 519.144 453.288 519.864 453.288 521.184V528H457.008V520.392C457.008 517.344 455.616 515.736 452.904 515.736C450.936 515.736 449.592 516.936 448.92 519.24H448.44L449.328 516.096V511.2H445.608V528ZM459.975 528H463.695V516.096H459.975V528ZM459.879 514.632H463.815V511.512H459.879V514.632ZM472.049 532.656C476.105 532.656 478.121 530.52 478.121 526.176V516.096H474.449L475.457 519.264H474.977C474.377 516.888 472.913 515.736 471.065 515.736C469.457 515.736 468.113 516.456 467.249 517.68C466.577 518.664 466.193 519.96 466.193 521.496C466.193 523.008 466.577 524.304 467.249 525.288C468.113 526.512 469.457 527.232 471.065 527.232C472.913 527.232 474.377 526.08 474.977 523.704H475.457L474.401 526.92V527.352C474.401 528.96 473.513 529.8 472.049 529.8C470.585 529.8 469.913 529.152 469.793 528.12H466.193C466.313 530.976 468.257 532.656 472.049 532.656ZM469.889 521.496C469.889 520.752 470.033 520.176 470.393 519.672C470.801 519.072 471.449 518.76 472.217 518.76C473.009 518.76 473.633 519.072 474.041 519.672C474.401 520.176 474.545 520.752 474.545 521.496C474.545 522.216 474.401 522.792 474.041 523.296C473.633 523.896 473.009 524.208 472.217 524.208C471.449 524.208 470.801 523.896 470.393 523.296C470.033 522.792 469.889 522.216 469.889 521.496ZM481.256 528H484.976V521.784C484.976 520.128 485.816 519.144 487.16 519.144C488.36 519.144 488.936 519.864 488.936 521.184V528H492.656V520.392C492.656 517.344 491.264 515.736 488.552 515.736C486.584 515.736 485.24 516.936 484.568 519.24H484.088L484.976 516.096V511.2H481.256V528ZM500.904 528.36C503.904 528.36 506.112 526.728 506.52 524.304H502.8C502.512 525.12 501.768 525.528 500.832 525.528C499.896 525.528 499.272 525.216 498.864 524.64C498.576 524.232 498.408 523.68 498.312 523.008H506.496V522.048C506.496 518.064 504.432 515.736 500.736 515.736C498.696 515.736 496.944 516.552 495.888 518.064C495.168 519.096 494.736 520.464 494.736 522.096C494.736 523.704 495.12 525.024 495.84 526.056C496.872 527.568 498.6 528.36 500.904 528.36ZM498.36 520.728C498.432 520.224 498.6 519.792 498.84 519.456C499.272 518.808 499.944 518.496 500.736 518.496C502.128 518.496 502.896 519.264 502.944 520.728H498.36ZM513.114 528.36C514.962 528.36 516.33 527.856 517.194 526.992C517.818 526.368 518.154 525.576 518.154 524.544C518.154 522.504 517.074 521.4 514.554 520.824L512.994 520.488C512.058 520.272 511.698 519.96 511.698 519.432C511.698 519.168 511.794 518.952 511.938 518.784C512.202 518.544 512.586 518.424 513.162 518.424C514.218 518.424 514.842 518.928 514.842 519.864V519.984H518.298V519.864C518.298 517.296 516.474 515.76 513.282 515.76C511.434 515.76 510.042 516.24 509.154 517.104C508.53 517.728 508.218 518.544 508.218 519.504C508.218 521.472 509.298 522.648 511.386 523.104L513.402 523.56C514.29 523.728 514.626 524.088 514.626 524.64C514.626 524.928 514.53 525.144 514.362 525.312C514.122 525.552 513.714 525.672 513.162 525.672C512.106 525.672 511.506 525.192 511.506 524.28V524.16H508.05V524.28C508.05 526.872 509.898 528.36 513.114 528.36ZM526.316 528.36C529.268 528.36 531.164 526.584 531.164 523.728V521.904H527.42V523.632C527.42 524.736 527.108 525.168 526.364 525.168C525.764 525.168 525.355 524.736 525.355 523.8V519.096H531.164V516.096H525.355V512.664L521.636 514.32V516.096H519.476V519.096H521.636V523.872C521.636 526.776 523.22 528.36 526.316 528.36ZM544.923 528.36C547.203 528.36 549.075 527.424 550.179 525.816C550.875 524.784 551.259 523.512 551.259 522.048C551.259 520.584 550.875 519.312 550.179 518.28C549.075 516.672 547.203 515.736 544.923 515.736C542.643 515.736 540.795 516.672 539.691 518.28C538.995 519.312 538.611 520.584 538.611 522.048C538.611 523.512 538.995 524.784 539.691 525.816C540.795 527.424 542.643 528.36 544.923 528.36ZM542.355 522.048C542.355 521.232 542.571 520.536 542.907 520.032C543.363 519.36 544.083 518.976 544.923 518.976C545.787 518.976 546.483 519.36 546.939 520.032C547.299 520.536 547.491 521.232 547.491 522.048C547.491 522.864 547.299 523.56 546.939 524.064C546.483 524.736 545.787 525.12 544.923 525.12C544.083 525.12 543.363 524.736 542.907 524.064C542.571 523.56 542.355 522.864 542.355 522.048ZM553.585 532.32H557.305V528L556.417 524.856H556.897C557.569 527.088 558.937 528.36 561.001 528.36C562.657 528.36 564.025 527.64 564.913 526.344C565.633 525.264 566.041 523.8 566.041 522.048C566.041 520.296 565.633 518.832 564.913 517.752C564.025 516.48 562.657 515.736 561.001 515.736C558.937 515.736 557.569 517.008 556.897 519.24H556.417L557.305 516.096H553.585V532.32ZM557.257 522.048C557.257 521.184 557.473 520.464 557.833 519.936C558.289 519.312 558.961 518.976 559.777 518.976C560.593 518.976 561.265 519.312 561.697 519.936C562.081 520.464 562.297 521.184 562.297 522.048C562.297 522.936 562.081 523.656 561.697 524.16C561.265 524.784 560.593 525.12 559.777 525.12C558.961 525.12 558.289 524.784 557.833 524.16C557.473 523.656 557.257 522.936 557.257 522.048ZM568.538 532.32H572.258V528L571.37 524.856H571.85C572.522 527.088 573.89 528.36 575.954 528.36C577.61 528.36 578.978 527.64 579.866 526.344C580.586 525.264 580.994 523.8 580.994 522.048C580.994 520.296 580.586 518.832 579.866 517.752C578.978 516.48 577.61 515.736 575.954 515.736C573.89 515.736 572.522 517.008 571.85 519.24H571.37L572.258 516.096H568.538V532.32ZM572.21 522.048C572.21 521.184 572.426 520.464 572.786 519.936C573.242 519.312 573.914 518.976 574.73 518.976C575.546 518.976 576.218 519.312 576.65 519.936C577.034 520.464 577.25 521.184 577.25 522.048C577.25 522.936 577.034 523.656 576.65 524.16C576.218 524.784 575.546 525.12 574.73 525.12C573.914 525.12 573.242 524.784 572.786 524.16C572.426 523.656 572.21 522.936 572.21 522.048ZM588.915 528.36C591.195 528.36 593.067 527.424 594.171 525.816C594.867 524.784 595.251 523.512 595.251 522.048C595.251 520.584 594.867 519.312 594.171 518.28C593.067 516.672 591.195 515.736 588.915 515.736C586.635 515.736 584.787 516.672 583.683 518.28C582.987 519.312 582.603 520.584 582.603 522.048C582.603 523.512 582.987 524.784 583.683 525.816C584.787 527.424 586.635 528.36 588.915 528.36ZM586.347 522.048C586.347 521.232 586.563 520.536 586.899 520.032C587.355 519.36 588.075 518.976 588.915 518.976C589.779 518.976 590.475 519.36 590.931 520.032C591.291 520.536 591.483 521.232 591.483 522.048C591.483 522.864 591.291 523.56 590.931 524.064C590.475 524.736 589.779 525.12 588.915 525.12C588.075 525.12 587.355 524.736 586.899 524.064C586.563 523.56 586.347 522.864 586.347 522.048ZM597.577 528H601.297V521.568C601.297 519.984 601.849 519.168 602.785 519.168C603.625 519.168 604.033 519.672 604.033 520.944V522.528H607.825V519.744C607.825 517.176 606.745 515.736 604.633 515.736C602.713 515.736 601.489 516.84 600.697 519.528H600.193L601.249 516.096H597.577V528ZM615.448 528.36C618.4 528.36 620.296 526.584 620.296 523.728V521.904H616.552V523.632C616.552 524.736 616.24 525.168 615.496 525.168C614.896 525.168 614.488 524.736 614.488 523.8V519.096H620.296V516.096H614.488V512.664L610.768 514.32V516.096H608.608V519.096H610.768V523.872C610.768 526.776 612.352 528.36 615.448 528.36ZM626.517 528.36C628.437 528.36 629.709 527.184 630.357 524.856H630.861L629.949 528H633.669V516.096H629.949V522.312C629.949 523.968 629.157 524.952 627.909 524.952C626.781 524.952 626.229 524.256 626.229 522.912V516.096H622.509V523.704C622.509 526.752 623.853 528.36 626.517 528.36ZM636.881 528H640.601V521.784C640.601 520.128 641.441 519.144 642.785 519.144C643.985 519.144 644.561 519.864 644.561 521.184V528H648.281V520.392C648.281 517.344 646.865 515.736 644.153 515.736C642.185 515.736 640.865 516.936 640.193 519.24H639.713L640.601 516.096H636.881V528ZM651.249 528H654.969V516.096H651.249V528ZM651.153 514.632H655.089V511.512H651.153V514.632ZM663.706 528.36C666.658 528.36 668.554 526.584 668.554 523.728V521.904H664.81V523.632C664.81 524.736 664.498 525.168 663.754 525.168C663.154 525.168 662.746 524.736 662.746 523.8V519.096H668.554V516.096H662.746V512.664L659.026 514.32V516.096H656.866V519.096H659.026V523.872C659.026 526.776 660.61 528.36 663.706 528.36ZM674.294 532.656C676.79 532.656 678.374 531.432 679.19 528.624L682.766 516.096H678.758L676.622 524.784H676.19L673.742 516.096H669.734L673.142 526.896H676.094L675.686 528.576C675.47 529.464 674.942 529.824 674.246 529.824C673.574 529.824 673.19 529.488 673.19 528.96V528.792H669.566V529.032C669.566 531.384 671.414 532.656 674.294 532.656Z" fill="#FFC800"/>
<path d="M319.983 76H329.751V74.032H321.975V58.936H319.983V76ZM335.864 76.192H337.856L340.064 75.64L341.624 74.608L340.568 73.024L339.32 73.816L337.688 74.224H336.248L334.784 73.504L333.632 71.944L333.32 70.888V70.648H342.584V68.128L342.032 66.52L340.424 64.312L338 63.16H335.864L333.464 64.312L331.832 66.52L331.328 68.272V71.128L331.832 72.832L333.464 75.04L335.864 76.192ZM333.32 68.68V68.464L333.608 67.408L334.736 65.872L336.176 65.128H337.664L339.128 65.896L340.28 67.456L340.592 68.368V68.68H333.32ZM349.435 76.192H350.539L352.771 75.688L352.267 73.792L350.563 74.224H349.891L349.027 73.888L348.427 73.024V65.632H351.739V63.664H348.427V59.248H346.435V63.664H344.155V65.632H346.435V73.672L347.755 75.568L349.435 76.192ZM357.404 59.128C357.26 59.688 357.076 60.296 356.852 60.952C356.628 61.608 356.38 62.264 356.108 62.92C355.852 63.56 355.596 64.168 355.34 64.744H353.78C353.892 64.296 354.004 63.816 354.116 63.304C354.244 62.792 354.356 62.28 354.452 61.768C354.564 61.24 354.66 60.728 354.74 60.232C354.836 59.736 354.916 59.28 354.98 58.864H357.236L357.404 59.128ZM362.608 76.192H364.743L366.376 75.712L367.528 74.896L368.44 73.504V71.464L367.504 69.928L366.136 69.016L362.464 68.296L361.792 67.96L361.312 67.312V66.256L361.648 65.68L362.056 65.344L362.968 65.08H364.576L365.92 65.488L367.072 66.28L368.152 64.672L366.712 63.688L364.743 63.16H362.704L361.215 63.568L360.136 64.408L359.344 65.776V67.912L360.352 69.304L361.888 70.12L365.344 70.816L366.064 71.32L366.472 72.016V72.928L366.088 73.528L365.488 73.96L364.48 74.248H362.872L361.384 73.864L360.736 73.36L360.28 72.808L358.888 74.152L359.44 74.776L360.568 75.664L362.608 76.192ZM378.879 76H380.871V57.904H378.879V76ZM388.447 76.192H390.991L393.415 75.04L394.615 73.264L395.095 71.104V68.272L394.615 66.112L393.415 64.336L390.991 63.16H388.447L386.023 64.336L384.823 66.112L384.343 68.272V71.104L384.823 73.264L386.023 75.04L388.447 76.192ZM388.783 74.248L387.367 73.552L386.647 72.472L386.335 70.864V68.464L386.647 66.904L387.343 65.848L388.783 65.128H390.655L392.047 65.848L392.791 66.904L393.103 68.464V70.864L392.791 72.472L392.071 73.552L390.655 74.248H388.783ZM401.83 76.192H404.374L406.798 75.04L407.998 73.264L408.478 71.104V68.272L407.998 66.112L406.798 64.336L404.374 63.16H401.83L399.406 64.336L398.206 66.112L397.726 68.272V71.104L398.206 73.264L399.406 75.04L401.83 76.192ZM402.166 74.248L400.75 73.552L400.03 72.472L399.718 70.864V68.464L400.03 66.904L400.726 65.848L402.166 65.128H404.038L405.43 65.848L406.174 66.904L406.486 68.464V70.864L406.174 72.472L405.454 73.552L404.038 74.248H402.166ZM411.949 76H413.941V71.32L415.525 69.784L419.893 76H422.317L416.893 68.416L422.077 63.352H419.293L413.941 68.704V57.904H411.949V76ZM435.323 76.192H436.811L439.019 75.088L439.571 74.464L440.723 76.192L442.331 75.04L441.395 73.696V66.424L440.747 64.792L438.971 63.592L437.243 63.16H435.011L433.475 63.616L432.323 64.36L431.651 64.984L433.019 66.4L433.475 65.944L434.219 65.464L435.251 65.128H436.955L438.131 65.416L439.139 66.064L439.403 66.784V68.608L438.827 68.2L437.219 67.672H435.683L433.307 68.272L431.531 70.048L431.195 71.68V73.072L432.539 75.016L433.691 75.688L435.323 76.192ZM435.611 74.224L434.483 73.888L433.931 73.552L433.187 72.496V71.848L433.379 71.008L434.315 70.072L435.899 69.64H436.979L438.155 69.976L438.899 70.36L439.403 70.888V71.776L439.163 72.52L438.179 73.552L436.379 74.224H435.611ZM448.974 76.192H450.078L452.31 75.688L451.806 73.792L450.102 74.224H449.43L448.566 73.888L447.966 73.024V65.632H451.278V63.664H447.966V59.248H445.974V63.664H443.694V65.632H445.974V73.672L447.294 75.568L448.974 76.192ZM465.323 76.192H466.811L469.019 75.088L469.571 74.464L470.723 76.192L472.331 75.04L471.395 73.696V66.424L470.747 64.792L468.971 63.592L467.243 63.16H465.011L463.475 63.616L462.323 64.36L461.651 64.984L463.019 66.4L463.475 65.944L464.219 65.464L465.251 65.128H466.955L468.131 65.416L469.139 66.064L469.403 66.784V68.608L468.827 68.2L467.219 67.672H465.683L463.307 68.272L461.531 70.048L461.195 71.68V73.072L462.539 75.016L463.691 75.688L465.323 76.192ZM465.611 74.224L464.483 73.888L463.931 73.552L463.187 72.496V71.848L463.379 71.008L464.315 70.072L465.899 69.64H466.979L468.155 69.976L468.899 70.36L469.403 70.888V71.776L469.163 72.52L468.179 73.552L466.379 74.224H465.611ZM475.605 76H477.597V57.904H475.605V76ZM481.91 76H483.902V57.904H481.91V76ZM498.778 76.192H499.882L502.114 75.688L501.61 73.792L499.906 74.224H499.234L498.37 73.888L497.77 73.024V65.632H501.082V63.664H497.77V59.248H495.778V63.664H493.498V65.632H495.778V73.672L497.098 75.568L498.778 76.192ZM504.996 76H506.988V67.36L507.756 66.232L509.436 65.128H510.972L512.268 65.536L512.868 66.472V76H514.86V65.704L513.396 63.736L511.38 63.16H509.172L507.564 64.072L506.988 64.552V57.904H504.996V76ZM522.637 76.192H524.629L526.837 75.64L528.397 74.608L527.341 73.024L526.093 73.816L524.461 74.224H523.021L521.557 73.504L520.405 71.944L520.093 70.888V70.648H529.357V68.128L528.805 66.52L527.197 64.312L524.773 63.16H522.637L520.237 64.312L518.605 66.52L518.101 68.272V71.128L518.605 72.832L520.237 75.04L522.637 76.192ZM520.093 68.68V68.464L520.381 67.408L521.509 65.872L522.949 65.128H524.437L525.901 65.896L527.053 67.456L527.365 68.368V68.68H520.093ZM540.286 76H542.278V65.632H545.494V63.664H542.278V60.88L542.878 59.992L543.79 59.68H544.438L546.214 60.136L546.718 58.192L544.582 57.712H543.622L541.606 58.336L540.286 60.304V63.664H538.006V65.632H540.286V76ZM548.814 60.856H551.694V57.904H548.814V60.856ZM549.246 76H551.238V63.352H549.246V76ZM555.551 76H557.543V67.264L558.263 66.232L559.991 65.128H561.527L562.943 65.536L563.543 66.472V76H565.535V65.704L564.071 63.736L561.935 63.16H559.727L558.143 64.072L557.543 64.6V63.352H555.551V76ZM573.405 76.192H575.565L577.053 75.28L577.581 74.728V76H579.549V57.904H577.557V64.12L576.885 63.688L575.445 63.16H573.309L570.909 64.312L569.277 66.52L568.773 68.272V71.128L569.277 72.832L570.909 75.04L573.405 76.192ZM573.717 74.224L572.205 73.504L571.053 71.944L570.765 70.864V68.536L571.053 67.408L572.205 65.872L573.621 65.104H575.157L576.141 65.416L577.053 66.016L577.557 66.64V72.088L576.861 73.12L575.301 74.224H573.717ZM583.431 60.856H586.311V57.904H583.431V60.856ZM583.863 76H585.855V63.352H583.863V76ZM590.168 76H592.16V67.264L592.88 66.232L594.608 65.128H596.144L597.56 65.536L598.16 66.472V76H600.152V65.704L598.688 63.736L596.552 63.16H594.344L592.76 64.072L592.16 64.6V63.352H590.168V76ZM607.854 80.032H609.966L611.742 79.432L613.566 78.208L614.166 76.456V63.352H612.174V64.12L611.502 63.688L610.062 63.16H607.926L605.526 64.312L603.894 66.52L603.39 68.272V70.552L603.894 72.256L605.574 74.464L608.022 75.424H610.182L611.67 74.512L612.174 74.032V76.24L611.886 76.96L610.854 77.656L609.75 78.064H608.046L606.894 77.752L606.294 77.344L605.694 76.744L604.302 78.16L604.974 78.808L606.15 79.576L607.854 80.032ZM608.334 73.456L606.774 72.832L605.67 71.32L605.382 70.288V68.536L605.67 67.408L606.822 65.872L608.238 65.104H609.774L610.758 65.416L611.67 66.016L612.174 66.64V71.224L611.478 72.352L609.918 73.456H608.334ZM621.24 76.192H623.376L625.008 75.712L626.16 74.896L627.072 73.504V71.464L626.136 69.928L624.768 69.016L621.096 68.296L620.424 67.96L619.944 67.312V66.256L620.28 65.68L620.688 65.344L621.6 65.08H623.208L624.552 65.488L625.704 66.28L626.784 64.672L625.344 63.688L623.376 63.16H621.336L619.848 63.568L618.768 64.408L617.976 65.776V67.912L618.984 69.304L620.52 70.12L623.976 70.816L624.696 71.32L625.104 72.016V72.928L624.72 73.528L624.12 73.96L623.112 74.248H621.504L620.016 73.864L619.368 73.36L618.912 72.808L617.52 74.152L618.072 74.776L619.2 75.664L621.24 76.192ZM641.616 76.192H643.752L646.152 75.04L647.784 72.832L648.288 71.08V68.224L647.784 66.52L646.152 64.312L643.656 63.16H641.496L640.032 64.072L639.504 64.624V57.904H637.512V76H639.504V75.232L640.176 75.664L641.616 76.192ZM641.904 74.248L640.92 73.936L640.008 73.336L639.504 72.712V67.264L640.2 66.232L641.76 65.128H643.344L644.856 65.848L646.008 67.408L646.296 68.488V70.816L646.008 71.944L644.856 73.48L643.44 74.248H641.904ZM655.458 76.192H657.45L659.658 75.64L661.218 74.608L660.162 73.024L658.914 73.816L657.282 74.224H655.842L654.378 73.504L653.226 71.944L652.914 70.888V70.648H662.178V68.128L661.626 66.52L660.018 64.312L657.594 63.16H655.458L653.058 64.312L651.426 66.52L650.922 68.272V71.128L651.426 72.832L653.058 75.04L655.458 76.192ZM652.914 68.68V68.464L653.202 67.408L654.33 65.872L655.77 65.128H657.258L658.722 65.896L659.874 67.456L660.186 68.368V68.68H652.914ZM665.543 76H667.535V57.904H665.543V76ZM675.112 76.192H677.656L680.08 75.04L681.28 73.264L681.76 71.104V68.272L681.28 66.112L680.08 64.336L677.656 63.16H675.112L672.688 64.336L671.488 66.112L671.008 68.272V71.104L671.488 73.264L672.688 75.04L675.112 76.192ZM675.448 74.248L674.032 73.552L673.312 72.472L673 70.864V68.464L673.312 66.904L674.008 65.848L675.448 65.128H677.32L678.712 65.848L679.456 66.904L679.768 68.464V70.864L679.456 72.472L678.736 73.552L677.32 74.248H675.448ZM686.874 76H688.746L691.818 67.168L694.89 76H696.762L700.434 63.352H698.346L695.754 72.688L692.634 63.832H691.002L687.882 72.688L685.29 63.352H683.202L686.874 76ZM701.514 76H704.37V73.048H701.514V76Z" fill="#FBF9F0"/>
<path d="M579.192 218.72V216.344L578.064 213.848L575.928 212.216L573.888 211.64H566.568L564.768 212.144L562.968 213.392L561.744 215.864V218.672L562.968 221.12L564.672 222.32L566.424 222.8H568.344L570 222.344L571.728 221.168L572.976 218.672V216.392L572.136 214.4L571.464 213.632H573.552L575.064 214.04L576.504 215.168L577.224 216.776V218.288L576.408 219.968L575.64 220.76L577.056 222.176L578.064 221.12L579.192 218.72ZM571.008 218.24L570.192 219.8L569.184 220.496L568.128 220.808H566.688L565.416 220.424L564.48 219.776L563.712 218.24V216.32L564.48 214.784L565.632 213.968L566.856 213.632H568.752L569.424 213.968L570.336 215.072L571.008 216.68V218.24ZM579.192 206.005V203.461L578.064 200.917L576.408 199.357L574.536 198.661H572.544L570.696 199.357L569.016 201.037L568.152 203.245V206.149L568.488 206.917L563.904 206.197V199.861H561.936V207.925L569.448 208.957L570.624 207.325L570.12 205.837V203.653L570.672 202.189L571.8 201.085L572.856 200.653H574.248L575.376 201.109L576.408 202.069L577.224 203.869V205.645L576.552 207.277L575.64 208.189L577.056 209.605L578.184 208.429L579.192 206.005Z" fill="#FFC800"/>
<rect x="159" y="368" width="12" height="111" fill="#FBF9F0"/>
<path d="M138 477.85V476.356H124.428V477.85H138ZM138.144 470.673V468.765L137.28 466.947L135.948 466.047L134.328 465.687H132.204L130.584 466.047L129.252 466.947L128.37 468.765V470.673L129.252 472.491L130.584 473.391L132.204 473.751H134.328L135.948 473.391L137.28 472.491L138.144 470.673ZM136.686 470.421L136.164 471.483L135.354 472.023L134.148 472.257H132.348L131.178 472.023L130.386 471.501L129.846 470.421V469.017L130.386 467.973L131.178 467.415L132.348 467.181H134.148L135.354 467.415L136.164 467.955L136.686 469.017V470.421ZM138.144 460.312V458.782L137.694 457.378L136.542 456.208L135.516 457.252L136.398 458.188L136.668 458.962V460.024L136.128 461.122L134.958 461.986L134.13 462.22H132.402L131.556 462.004L130.404 461.158L129.846 460.078V458.962L130.098 458.152L130.998 457.252L130.008 456.19L128.82 457.378L128.37 458.782V460.312L129.234 462.112L130.89 463.336L132.204 463.714H134.346L135.624 463.336L137.28 462.112L138.144 460.312ZM138.144 451.653V450.537L137.316 448.881L136.848 448.467L138.144 447.603L137.28 446.397L136.272 447.099H130.818L129.594 447.585L128.694 448.917L128.37 450.213V451.887L128.712 453.039L129.27 453.903L129.738 454.407L130.8 453.381L130.458 453.039L130.098 452.481L129.846 451.707V450.429L130.062 449.547L130.548 448.791L131.088 448.593H132.456L132.15 449.025L131.754 450.231V451.383L132.204 453.165L133.536 454.497L134.76 454.749H135.804L137.262 453.741L137.766 452.877L138.144 451.653ZM136.668 451.437L136.416 452.283L136.164 452.697L135.372 453.255H134.886L134.256 453.111L133.554 452.409L133.23 451.221V450.411L133.482 449.529L133.77 448.971L134.166 448.593H134.832L135.39 448.773L136.164 449.511L136.668 450.861V451.437ZM138 443.942V442.448H124.428V443.942H138ZM138.144 431.132V429.602L137.694 428.198L136.542 427.028L135.516 428.072L136.398 429.008L136.668 429.782V430.844L136.128 431.942L134.958 432.806L134.13 433.04H132.402L131.556 432.824L130.404 431.978L129.846 430.898V429.782L130.098 428.972L130.998 428.072L130.008 427.01L128.82 428.198L128.37 429.602V431.132L129.234 432.932L130.89 434.156L132.204 434.534H134.346L135.624 434.156L137.28 432.932L138.144 431.132ZM138.144 422.474V421.358L137.316 419.702L136.848 419.288L138.144 418.424L137.28 417.218L136.272 417.92H130.818L129.594 418.406L128.694 419.738L128.37 421.034V422.708L128.712 423.86L129.27 424.724L129.738 425.228L130.8 424.202L130.458 423.86L130.098 423.302L129.846 422.528V421.25L130.062 420.368L130.548 419.612L131.088 419.414H132.456L132.15 419.846L131.754 421.052V422.204L132.204 423.986L133.536 425.318L134.76 425.57H135.804L137.262 424.562L137.766 423.698L138.144 422.474ZM136.668 422.258L136.416 423.104L136.164 423.518L135.372 424.076H134.886L134.256 423.932L133.554 423.23L133.23 422.042V421.232L133.482 420.35L133.77 419.792L134.166 419.414H134.832L135.39 419.594L136.164 420.332L136.668 421.682V422.258ZM138.144 411.684V410.082L137.28 408.282L135.624 407.058L134.31 406.68H132.168L130.89 407.058L129.234 408.282L128.37 410.154V411.774L129.054 412.872L129.468 413.268H124.428V414.762H138V413.268H137.424L137.748 412.764L138.144 411.684ZM136.686 411.468L136.452 412.206L136.002 412.89L135.534 413.268H131.448L130.674 412.746L129.846 411.576V410.388L130.386 409.254L131.556 408.39L132.366 408.174H134.112L134.958 408.39L136.11 409.254L136.686 410.316V411.468ZM138 404.074V402.58H124.428V404.074H138ZM138.144 396.574V395.08L137.73 393.424L136.956 392.254L135.768 393.046L136.362 393.982L136.668 395.206V396.286L136.128 397.384L134.958 398.248L134.166 398.482H133.986V391.534H132.096L130.89 391.948L129.234 393.154L128.37 394.972V396.574L129.234 398.374L130.89 399.598L132.204 399.976H134.346L135.624 399.598L137.28 398.374L138.144 396.574ZM132.51 398.482H132.348L131.556 398.266L130.404 397.42L129.846 396.34V395.224L130.422 394.126L131.592 393.262L132.276 393.028H132.51V398.482ZM138 383.701V382.207H131.448L130.674 381.667L129.846 380.371V379.219L130.152 378.157L130.854 377.707H138V376.213H130.278L128.802 377.311L128.37 378.913V380.569L129.054 381.757L129.45 382.207H128.514V383.701H138ZM138.144 370.382V368.888L137.73 367.232L136.956 366.062L135.768 366.854L136.362 367.79L136.668 369.014V370.094L136.128 371.192L134.958 372.056L134.166 372.29H133.986V365.342H132.096L130.89 365.756L129.234 366.962L128.37 368.78V370.382L129.234 372.182L130.89 373.406L132.204 373.784H134.346L135.624 373.406L137.28 372.182L138.144 370.382ZM132.51 372.29H132.348L131.556 372.074L130.404 371.228L129.846 370.148V369.032L130.422 367.934L131.592 367.07L132.276 366.836H132.51V372.29ZM138.144 360.204V359.376L137.766 357.702L136.344 358.08L136.668 359.358V359.862L136.416 360.51L135.768 360.96H130.224V358.476H128.748V360.96H125.436V362.454H128.748V364.164H130.224V362.454H136.254L137.676 361.464L138.144 360.204ZM138 354.414V353.01L131.376 350.706L138 348.402V346.998L128.514 344.244V345.81L135.516 347.754L128.874 350.094V351.318L135.516 353.658L128.514 355.602V357.168L138 354.414ZM138.144 340.085V338.177L137.28 336.359L135.948 335.459L134.328 335.099H132.204L130.584 335.459L129.252 336.359L128.37 338.177V340.085L129.252 341.903L130.584 342.803L132.204 343.163H134.328L135.948 342.803L137.28 341.903L138.144 340.085ZM136.686 339.833L136.164 340.895L135.354 341.435L134.148 341.669H132.348L131.178 341.435L130.386 340.913L129.846 339.833V338.429L130.386 337.385L131.178 336.827L132.348 336.593H134.148L135.354 336.827L136.164 337.367L136.686 338.429V339.833ZM138 332.586V331.092H132.006L131.142 330.696L130.314 329.958L129.846 328.968V328.194L130.044 327.474L128.622 327.114L128.37 328.014V329.184L128.946 330.408L129.612 331.092H128.514V332.586H138ZM138 325.219V323.725H134.49L133.338 322.537L138 319.261V317.443L132.312 321.511L128.514 317.623V319.711L132.528 323.725H124.428V325.219H138Z" fill="#FBF9F0"/>
<rect x="263" y="418" width="12" height="61" fill="#FBF9F0"/>
<path d="M244.916 477.184V475.582L232.514 469.984V471.64L238.976 474.484L232.514 477.328V479.02L240.74 475.294L244.916 477.184ZM242.144 466.191V464.283L241.28 462.465L239.948 461.565L238.328 461.205H236.204L234.584 461.565L233.252 462.465L232.37 464.283V466.191L233.252 468.009L234.584 468.909L236.204 469.269H238.328L239.948 468.909L241.28 468.009L242.144 466.191ZM240.686 465.939L240.164 467.001L239.354 467.541L238.148 467.775H236.348L235.178 467.541L234.386 467.019L233.846 465.939V464.535L234.386 463.491L235.178 462.933L236.348 462.699H238.148L239.354 462.933L240.164 463.473L240.686 464.535V465.939ZM242.144 455.974V454.516L241.46 453.328L241.046 452.86H242V451.384H232.514V452.878H239.066L239.84 453.436L240.686 454.714V455.74L240.416 456.766L239.66 457.288H232.514V458.782H240.2L241.712 457.612L242.144 455.974ZM242.144 445.353V444.525L241.766 442.851L240.344 443.229L240.668 444.507V445.011L240.416 445.659L239.768 446.109H234.224V443.625H232.748V446.109H229.436V447.603H232.748V449.313H234.224V447.603H240.254L241.676 446.613L242.144 445.353ZM242.144 438.325V436.867L241.46 435.679L241.046 435.211H242V433.735H232.514V435.229H239.066L239.84 435.787L240.686 437.065V438.091L240.416 439.117L239.66 439.639H232.514V441.133H240.2L241.712 439.963L242.144 438.325ZM242.144 427.416V425.814L241.28 424.014L239.624 422.79L238.31 422.412H236.168L234.89 422.79L233.234 424.014L232.37 425.886V427.506L233.054 428.604L233.468 429H228.428V430.494H242V429H241.424L241.748 428.496L242.144 427.416ZM240.686 427.2L240.452 427.938L240.002 428.622L239.534 429H235.448L234.674 428.478L233.846 427.308V426.12L234.386 424.986L235.556 424.122L236.366 423.906H238.112L238.958 424.122L240.11 424.986L240.686 426.048V427.2ZM242.144 417.035V415.541L241.73 413.885L240.956 412.715L239.768 413.507L240.362 414.443L240.668 415.667V416.747L240.128 417.845L238.958 418.709L238.166 418.943H237.986V411.995H236.096L234.89 412.409L233.234 413.615L232.37 415.433V417.035L233.234 418.835L234.89 420.059L236.204 420.437H238.346L239.624 420.059L241.28 418.835L242.144 417.035ZM236.51 418.943H236.348L235.556 418.727L234.404 417.881L233.846 416.801V415.685L234.422 414.587L235.592 413.723L236.276 413.489H236.51V418.943ZM229.148 404.575L242 409.363V410.911L229.148 406.123V404.575ZM242.144 400.308V399.192L241.316 397.536L240.848 397.122L242.144 396.258L241.28 395.052L240.272 395.754H234.818L233.594 396.24L232.694 397.572L232.37 398.868V400.542L232.712 401.694L233.27 402.558L233.738 403.062L234.8 402.036L234.458 401.694L234.098 401.136L233.846 400.362V399.084L234.062 398.202L234.548 397.446L235.088 397.248H236.456L236.15 397.68L235.754 398.886V400.038L236.204 401.82L237.536 403.152L238.76 403.404H239.804L241.262 402.396L241.766 401.532L242.144 400.308ZM240.668 400.092L240.416 400.938L240.164 401.352L239.372 401.91H238.886L238.256 401.766L237.554 401.064L237.23 399.876V399.066L237.482 398.184L237.77 397.626L238.166 397.248H238.832L239.39 397.428L240.164 398.166L240.668 399.516V400.092ZM242 392.596V391.102H235.448L234.674 390.562L233.846 389.266V388.114L234.188 387.196L234.926 386.746H242V385.252H235.52L234.674 384.676L233.846 383.416V382.264L234.152 381.346L234.854 380.896H242V379.402H234.278L232.802 380.5L232.37 381.958V383.614L233.054 384.874L233.738 385.666L232.802 386.35L232.37 387.808V389.464L233.054 390.652L233.45 391.102H232.514V392.596H242ZM242.144 373.87V372.754L241.316 371.098L240.848 370.684L242.144 369.82L241.28 368.614L240.272 369.316H234.818L233.594 369.802L232.694 371.134L232.37 372.43V374.104L232.712 375.256L233.27 376.12L233.738 376.624L234.8 375.598L234.458 375.256L234.098 374.698L233.846 373.924V372.646L234.062 371.764L234.548 371.008L235.088 370.81H236.456L236.15 371.242L235.754 372.448V373.6L236.204 375.382L237.536 376.714L238.76 376.966H239.804L241.262 375.958L241.766 375.094L242.144 373.87ZM240.668 373.654L240.416 374.5L240.164 374.914L239.372 375.472H238.886L238.256 375.328L237.554 374.626L237.23 373.438V372.628L237.482 371.746L237.77 371.188L238.166 370.81H238.832L239.39 370.99L240.164 371.728L240.668 373.078V373.654ZM242 366.878V359.624H240.524V364.844L233.702 359.714H232.514V366.608H233.972V361.712L240.812 366.878H242ZM242.144 355.115V353.207L241.28 351.389L239.948 350.489L238.328 350.129H236.204L234.584 350.489L233.252 351.389L232.37 353.207V355.115L233.252 356.933L234.584 357.833L236.204 358.193H238.328L239.948 357.833L241.28 356.933L242.144 355.115ZM240.686 354.863L240.164 355.925L239.354 356.465L238.148 356.699H236.348L235.178 356.465L234.386 355.943L233.846 354.863V353.459L234.386 352.415L235.178 351.857L236.348 351.623H238.148L239.354 351.857L240.164 352.397L240.686 353.459V354.863ZM242 347.526V346.032H235.448L234.674 345.492L233.846 344.196V343.044L234.152 341.982L234.854 341.532H242V340.038H234.278L232.802 341.136L232.37 342.738V344.394L233.054 345.582L233.45 346.032H232.514V347.526H242ZM242 331.76V330.266H236.006L235.142 329.87L234.314 329.132L233.846 328.142V327.368L234.044 326.648L232.622 326.288L232.37 327.188V328.358L232.946 329.582L233.612 330.266H232.514V331.76H242ZM242.144 321.972V320.478L241.73 318.822L240.956 317.652L239.768 318.444L240.362 319.38L240.668 320.604V321.684L240.128 322.782L238.958 323.646L238.166 323.88H237.986V316.932H236.096L234.89 317.346L233.234 318.552L232.37 320.37V321.972L233.234 323.772L234.89 324.996L236.204 325.374H238.346L239.624 324.996L241.28 323.772L242.144 321.972ZM236.51 323.88H236.348L235.556 323.664L234.404 322.818L233.846 321.738V320.622L234.422 319.524L235.592 318.66L236.276 318.426H236.51V323.88ZM242 314.408V312.914H235.448L234.674 312.374L233.846 311.078V309.926L234.152 308.864L234.854 308.414H242V306.92H234.278L232.802 308.018L232.37 309.62V311.276L233.054 312.464L233.45 312.914H232.514V314.408H242ZM242.144 301.071V300.243L241.766 298.569L240.344 298.947L240.668 300.225V300.729L240.416 301.377L239.768 301.827H234.224V299.343H232.748V301.827H229.436V303.321H232.748V305.031H234.224V303.321H240.254L241.676 302.331L242.144 301.071ZM242.144 294.294V293.178L241.316 291.522L240.848 291.108L242.144 290.244L241.28 289.038L240.272 289.74H234.818L233.594 290.226L232.694 291.558L232.37 292.854V294.528L232.712 295.68L233.27 296.544L233.738 297.048L234.8 296.022L234.458 295.68L234.098 295.122L233.846 294.348V293.07L234.062 292.188L234.548 291.432L235.088 291.234H236.456L236.15 291.666L235.754 292.872V294.024L236.204 295.806L237.536 297.138L238.76 297.39H239.804L241.262 296.382L241.766 295.518L242.144 294.294ZM240.668 294.078L240.416 294.924L240.164 295.338L239.372 295.896H238.886L238.256 295.752L237.554 295.05L237.23 293.862V293.052L237.482 292.17L237.77 291.612L238.166 291.234H238.832L239.39 291.414L240.164 292.152L240.668 293.502V294.078ZM242 286.582V285.088H228.428V286.582H242ZM242.144 279.784V278.182L241.784 276.958L241.172 276.094L240.128 275.41H238.598L237.446 276.112L236.762 277.138L236.222 279.892L235.97 280.396L235.484 280.756H234.692L234.26 280.504L234.008 280.198L233.81 279.514V278.308L234.116 277.3L234.71 276.436L233.504 275.626L232.766 276.706L232.37 278.182V279.712L232.676 280.828L233.306 281.638L234.332 282.232H235.934L236.978 281.476L237.59 280.324L238.112 277.732L238.49 277.192L239.012 276.886H239.696L240.146 277.174L240.47 277.624L240.686 278.38V279.586L240.398 280.702L240.02 281.188L239.606 281.53L240.614 282.574L241.082 282.16L241.748 281.314L242.144 279.784Z" fill="#FBF9F0"/>
<rect x="367" y="394" width="12" height="85" fill="#FBF9F0"/>
<path d="M346.144 474.59V473.762L345.766 472.088L344.344 472.466L344.668 473.744V474.248L344.416 474.896L343.768 475.346H338.224V472.862H336.748V475.346H333.436V476.84H336.748V478.55H338.224V476.84H344.254L345.676 475.85L346.144 474.59ZM346 467.97V466.602L336.514 462.84V464.424L343.858 467.286L336.514 470.148V471.732L346 467.97ZM346.144 453.478V451.876L345.784 450.652L345.172 449.788L344.128 449.104H342.598L341.446 449.806L340.762 450.832L340.222 453.586L339.97 454.09L339.484 454.45H338.692L338.26 454.198L338.008 453.892L337.81 453.208V452.002L338.116 450.994L338.71 450.13L337.504 449.32L336.766 450.4L336.37 451.876V453.406L336.676 454.522L337.306 455.332L338.332 455.926H339.934L340.978 455.17L341.59 454.018L342.112 451.426L342.49 450.886L343.012 450.58H343.696L344.146 450.868L344.47 451.318L344.686 452.074V453.28L344.398 454.396L344.02 454.882L343.606 455.224L344.614 456.268L345.082 455.854L345.748 455.008L346.144 453.478ZM334.642 446.907V444.747H332.428V446.907H334.642ZM346 446.583V445.089H336.514V446.583H346ZM346.144 439.065V438.237L345.766 436.563L344.344 436.941L344.668 438.219V438.723L344.416 439.371L343.768 439.821H338.224V437.337H336.748V439.821H333.436V441.315H336.748V443.025H338.224V441.315H344.254L345.676 440.325L346.144 439.065ZM346.144 431.981V430.487L345.73 428.831L344.956 427.661L343.768 428.453L344.362 429.389L344.668 430.613V431.693L344.128 432.791L342.958 433.655L342.166 433.889H341.986V426.941H340.096L338.89 427.355L337.234 428.561L336.37 430.379V431.981L337.234 433.781L338.89 435.005L340.204 435.383H342.346L343.624 435.005L345.28 433.781L346.144 431.981ZM340.51 433.889H340.348L339.556 433.673L338.404 432.827L337.846 431.747V430.631L338.422 429.533L339.592 428.669L340.276 428.435H340.51V433.889ZM346.144 422.699V421.097L345.784 419.873L345.172 419.009L344.128 418.325H342.598L341.446 419.027L340.762 420.053L340.222 422.807L339.97 423.311L339.484 423.671H338.692L338.26 423.419L338.008 423.113L337.81 422.429V421.223L338.116 420.215L338.71 419.351L337.504 418.541L336.766 419.621L336.37 421.097V422.627L336.676 423.743L337.306 424.553L338.332 425.147H339.934L340.978 424.391L341.59 423.239L342.112 420.647L342.49 420.107L343.012 419.801H343.696L344.146 420.089L344.47 420.539L344.686 421.295V422.501L344.398 423.617L344.02 424.103L343.606 424.445L344.614 425.489L345.082 425.075L345.748 424.229L346.144 422.699ZM346 410.495V409.001H332.428V410.495H346ZM334.642 406.091V403.931H332.428V406.091H334.642ZM346 405.767V404.273H336.514V405.767H346ZM346 401.038V399.544H342.49L341.338 398.356L346 395.08V393.262L340.312 397.33L336.514 393.442V395.53L340.528 399.544H332.428V401.038H346ZM346.144 389.055V387.561L345.73 385.905L344.956 384.735L343.768 385.527L344.362 386.463L344.668 387.687V388.767L344.128 389.865L342.958 390.729L342.166 390.963H341.986V384.015H340.096L338.89 384.429L337.234 385.635L336.37 387.453V389.055L337.234 390.855L338.89 392.079L340.204 392.457H342.346L343.624 392.079L345.28 390.855L346.144 389.055ZM340.51 390.963H340.348L339.556 390.747L338.404 389.901L337.846 388.821V387.705L338.422 386.607L339.592 385.743L340.276 385.509H340.51V390.963ZM346 376.093V374.599H339.934L339.934 368.785H346V367.291H333.202V368.785H338.458L338.458 374.599H333.202V376.093H346ZM346 363.876V357.918L345.298 356.424L344.164 355.488L342.418 355.074L340.672 355.47L339.556 356.244L339.214 356.784L338.926 356.244L338.098 355.668L336.676 355.308L334.948 355.686L333.652 356.874L333.202 358.53V363.876H346ZM338.458 362.382H334.678V358.674L334.966 357.684L335.668 357.054L336.676 356.838L337.486 357.054L337.846 357.306L338.458 358.206V362.382ZM344.524 362.382H339.934V358.278L340.51 357.324L341.266 356.874L342.418 356.604L343.498 356.874L344.128 357.414L344.524 358.296V362.382ZM346.144 348.744V346.764L345.298 344.838L344.074 343.632L342.472 342.84L340.924 342.498H338.278L336.694 342.84L335.092 343.632L333.886 344.874L333.058 346.764V348.744L333.886 350.634L335.092 351.876L336.694 352.668L338.278 353.01H340.924L342.472 352.668L344.074 351.876L345.298 350.67L346.144 348.744ZM344.668 348.456L344.056 349.788L343.192 350.634L341.986 351.246L340.816 351.516H338.404L337.18 351.246L335.974 350.634L335.11 349.77L334.534 348.492V347.016L335.11 345.738L335.974 344.874L337.18 344.262L338.386 343.992H340.798L342.004 344.262L343.192 344.874L344.056 345.72L344.668 347.016V348.456ZM348.412 340.067L345.784 338.555H343.786V340.697H345.712L346 339.959L347.89 340.967L348.412 340.067ZM346.144 332.875V330.751L345.424 328.789L344.434 327.925L343.462 327.475H341.716L340.33 328.051L339.376 329.437L338.332 333.235L337.666 334.153L337.27 334.387L336.478 334.549L335.542 334.279L334.876 333.613L334.534 332.533V331.111L334.966 329.491L335.578 328.465L334.318 327.655L333.598 328.825L333.058 330.913V332.803L333.598 334.459L334.804 335.611L336.334 336.097L337.81 335.845L338.764 335.251L339.718 333.901L340.726 330.229L341.212 329.383L342.04 328.969H343.12L343.642 329.221L344.146 329.653L344.668 331.003V332.551L344.182 334.171L343.678 334.909L343.246 335.251L344.29 336.331L344.794 335.917L345.55 334.837L346.144 332.875ZM346.144 322.389V320.481L345.28 318.663L343.948 317.763L342.328 317.403H340.204L338.584 317.763L337.252 318.663L336.37 320.481V322.389L337.252 324.207L338.584 325.107L340.204 325.467H342.328L343.948 325.107L345.28 324.207L346.144 322.389ZM344.686 322.137L344.164 323.199L343.354 323.739L342.148 323.973H340.348L339.178 323.739L338.386 323.217L337.846 322.137V320.733L338.386 319.689L339.178 319.131L340.348 318.897H342.148L343.354 319.131L344.164 319.671L344.686 320.733V322.137ZM346 314.8V313.306H339.448L338.674 312.766L337.846 311.47V310.318L338.152 309.256L338.854 308.806H346V307.312H338.278L336.802 308.41L336.37 310.012V311.668L337.054 312.856L337.45 313.306H336.514V314.8H346ZM348.916 303.939V302.337L336.514 296.739V298.395L342.976 301.239L336.514 304.083V305.775L344.74 302.049L348.916 303.939ZM346 295.128V287.802H344.524V293.634H333.202V295.128H346ZM346 285.724V284.23H333.202V285.724H346ZM346 277.49V276.086L333.202 271.244V272.828L343.732 276.788L333.202 280.748V282.332L346 277.49ZM348.412 270.616L345.784 269.104H343.786V271.246H345.712L346 270.508L347.89 271.516L348.412 270.616ZM346.144 263.266V261.772L345.73 260.116L344.956 258.946L343.768 259.738L344.362 260.674L344.668 261.898V262.978L344.128 264.076L342.958 264.94L342.166 265.174H341.986V258.226H340.096L338.89 258.64L337.234 259.846L336.37 261.664V263.266L337.234 265.066L338.89 266.29L340.204 266.668H342.346L343.624 266.29L345.28 265.066L346.144 263.266ZM340.51 265.174H340.348L339.556 264.958L338.404 264.112L337.846 263.032V261.916L338.422 260.818L339.592 259.954L340.276 259.72H340.51V265.174ZM346.144 253.088V252.26L345.766 250.586L344.344 250.964L344.668 252.242V252.746L344.416 253.394L343.768 253.844H338.224V251.36H336.748V253.844H333.436V255.338H336.748V257.048H338.224V255.338H344.254L345.676 254.348L346.144 253.088ZM346.144 246.004V244.474L345.694 243.07L344.542 241.9L343.516 242.944L344.398 243.88L344.668 244.654V245.716L344.128 246.814L342.958 247.678L342.13 247.912H340.402L339.556 247.696L338.404 246.85L337.846 245.77V244.654L338.098 243.844L338.998 242.944L338.008 241.882L336.82 243.07L336.37 244.474V246.004L337.234 247.804L338.89 249.028L340.204 249.406H342.346L343.624 249.028L345.28 247.804L346.144 246.004Z" fill="#FBF9F0"/>
<rect x="471" y="269" width="12" height="210" fill="#FBF9F0"/>
<path d="M450 470.182V468.598L437.202 473.26V474.448L450 479.11V477.526L446.166 476.194V471.514L450 470.182ZM444.69 475.672L439.452 473.854L444.69 472.036V475.672ZM450 466.617V465.123H443.448L442.674 464.583L441.846 463.287V462.135L442.188 461.217L442.926 460.767H450V459.273H443.52L442.674 458.697L441.846 457.437V456.285L442.152 455.367L442.854 454.917H450V453.423H442.278L440.802 454.521L440.37 455.979V457.635L441.054 458.895L441.738 459.687L440.802 460.371L440.37 461.829V463.485L441.054 464.673L441.45 465.123H440.514V466.617H450ZM450.144 447.892V446.776L449.316 445.12L448.848 444.706L450.144 443.842L449.28 442.636L448.272 443.338H442.818L441.594 443.824L440.694 445.156L440.37 446.452V448.126L440.712 449.278L441.27 450.142L441.738 450.646L442.8 449.62L442.458 449.278L442.098 448.72L441.846 447.946V446.668L442.062 445.786L442.548 445.03L443.088 444.832H444.456L444.15 445.264L443.754 446.47V447.622L444.204 449.404L445.536 450.736L446.76 450.988H447.804L449.262 449.98L449.766 449.116L450.144 447.892ZM448.668 447.676L448.416 448.522L448.164 448.936L447.372 449.494H446.886L446.256 449.35L445.554 448.648L445.23 447.46V446.65L445.482 445.768L445.77 445.21L446.166 444.832H446.832L447.39 445.012L448.164 445.75L448.668 447.1V447.676ZM450 440.9V433.646H448.524V438.866L441.702 433.736H440.514V440.63H441.972V435.734L448.812 440.9H450ZM450.144 429.136V427.228L449.28 425.41L447.948 424.51L446.328 424.15H444.204L442.584 424.51L441.252 425.41L440.37 427.228V429.136L441.252 430.954L442.584 431.854L444.204 432.214H446.328L447.948 431.854L449.28 430.954L450.144 429.136ZM448.686 428.884L448.164 429.946L447.354 430.486L446.148 430.72H444.348L443.178 430.486L442.386 429.964L441.846 428.884V427.48L442.386 426.436L443.178 425.878L444.348 425.644H446.148L447.354 425.878L448.164 426.418L448.686 427.48V428.884ZM450 421.547V420.053H443.448L442.674 419.513L441.846 418.217V417.065L442.152 416.003L442.854 415.553H450V414.059H442.278L440.802 415.157L440.37 416.759V418.415L441.054 419.603L441.45 420.053H440.514V421.547H450ZM450 405.602V404.108H444.672V399.77L443.844 398.114L442.548 397.232L440.784 396.746L438.966 397.268L437.634 398.6L437.202 400.274V405.602H450ZM443.196 404.108H438.678V400.436L438.984 399.374L439.758 398.6L440.838 398.294L441.9 398.6L442.674 399.122L443.196 400.202V404.108ZM450 394.76V393.266H444.006L443.142 392.87L442.314 392.132L441.846 391.142V390.368L442.044 389.648L440.622 389.288L440.37 390.188V391.358L440.946 392.582L441.612 393.266H440.514V394.76H450ZM438.642 388.174V386.014H436.428V388.174H438.642ZM450 387.85V386.356H440.514V387.85H450ZM450 383.121V381.627H443.448L442.674 381.087L441.846 379.791V378.639L442.188 377.721L442.926 377.271H450V375.777H443.52L442.674 375.201L441.846 373.941V372.789L442.152 371.871L442.854 371.421H450V369.927H442.278L440.802 371.025L440.37 372.483V374.139L441.054 375.399L441.738 376.191L440.802 376.875L440.37 378.333V379.989L441.054 381.177L441.45 381.627H440.514V383.121H450ZM450.144 364.089V362.595L449.73 360.939L448.956 359.769L447.768 360.561L448.362 361.497L448.668 362.721V363.801L448.128 364.899L446.958 365.763L446.166 365.997H445.986V359.049H444.096L442.89 359.463L441.234 360.669L440.37 362.487V364.089L441.234 365.889L442.89 367.113L444.204 367.491H446.346L447.624 367.113L449.28 365.889L450.144 364.089ZM444.51 365.997H444.348L443.556 365.781L442.404 364.935L441.846 363.855V362.739L442.422 361.641L443.592 360.777L444.276 360.543H444.51V365.997ZM450 348.079V346.675L437.202 341.833V343.417L447.732 347.377L437.202 351.337V352.921L450 348.079ZM438.642 340.361V338.201H436.428V340.361H438.642ZM450 340.037V338.543H440.514V340.037H450ZM450.144 332.465V330.845L449.46 329.729L449.046 329.333H450V327.857H436.428V329.351H441.09L440.766 329.855L440.37 330.935V332.537L441.234 334.337L442.89 335.561L444.204 335.939H446.346L447.624 335.561L449.28 334.337L450.144 332.465ZM448.668 332.231L448.128 333.365L446.958 334.229L446.148 334.445H444.402L443.556 334.229L442.404 333.365L441.828 332.303V331.151L442.062 330.413L442.512 329.729L442.98 329.351H447.066L447.84 329.873L448.668 331.043V332.231ZM450.144 321.849V320.355L449.73 318.699L448.956 317.529L447.768 318.321L448.362 319.257L448.668 320.481V321.561L448.128 322.659L446.958 323.523L446.166 323.757H445.986V316.809H444.096L442.89 317.223L441.234 318.429L440.37 320.247V321.849L441.234 323.649L442.89 324.873L444.204 325.251H446.346L447.624 324.873L449.28 323.649L450.144 321.849ZM444.51 323.757H444.348L443.556 323.541L442.404 322.695L441.846 321.615V320.499L442.422 319.401L443.592 318.537L444.276 318.303H444.51V323.757ZM450.144 311.837V309.929L449.28 308.111L447.948 307.211L446.328 306.851H444.204L442.584 307.211L441.252 308.111L440.37 309.929V311.837L441.252 313.655L442.584 314.555L444.204 314.915H446.328L447.948 314.555L449.28 313.655L450.144 311.837ZM448.686 311.585L448.164 312.647L447.354 313.187L446.148 313.421H444.348L443.178 313.187L442.386 312.665L441.846 311.585V310.181L442.386 309.137L443.178 308.579L444.348 308.345H446.148L447.354 308.579L448.164 309.119L448.686 310.181V311.585Z" fill="#FBF9F0"/>
<rect x="575" y="248" width="12" height="231" fill="#FBF9F0"/>
<path d="M554 477.76V476.266H544.064L554 469.498V467.896H541.202V469.39H551.57L541.202 476.482V477.76H554ZM554.144 461.789V460.295L553.73 458.639L552.956 457.469L551.768 458.261L552.362 459.197L552.668 460.421V461.501L552.128 462.599L550.958 463.463L550.166 463.697H549.986V456.749H548.096L546.89 457.163L545.234 458.369L544.37 460.187V461.789L545.234 463.589L546.89 464.813L548.204 465.191H550.346L551.624 464.813L553.28 463.589L554.144 461.789ZM548.51 463.697H548.348L547.556 463.481L546.404 462.635L545.846 461.555V460.439L546.422 459.341L547.592 458.477L548.276 458.243H548.51V463.697ZM554.144 451.611V450.783L553.766 449.109L552.344 449.487L552.668 450.765V451.269L552.416 451.917L551.768 452.367H546.224V449.883H544.748V452.367H541.436V453.861H544.748V455.571H546.224V453.861H552.254L553.676 452.871L554.144 451.611ZM554 446.864V445.37H546.224V442.958H544.748V445.37H542.66L541.994 444.92L541.76 444.236V443.75L542.102 442.418L540.644 442.04L540.284 443.642V444.362L540.752 445.874L542.228 446.864H544.748V448.574H546.224V446.864H554ZM554 440.145V438.651H540.428V440.145H554ZM542.642 435.74V433.58H540.428V435.74H542.642ZM554 435.416V433.922H544.514V435.416H554ZM554 431.858V429.968L550.436 427.34L554 424.712V422.822L549.248 426.422L544.514 422.858V424.73L548.042 427.34L544.514 429.95V431.822L549.248 428.258L554 431.858Z" fill="#FBF9F0"/>
<rect x="679" y="352" width="12" height="127" fill="#FBF9F0"/>
<path d="M658 477.76V476.266H651.934V470.452H658V468.958H645.202V470.452H650.458V476.266H645.202V477.76H658ZM658.144 463.005V461.547L657.46 460.359L657.046 459.891H658V458.415H648.514V459.909H655.066L655.84 460.467L656.686 461.745V462.771L656.416 463.797L655.66 464.319H648.514V465.813H656.2L657.712 464.643L658.144 463.005ZM658 455.174V453.68H644.428V455.174H658ZM658.144 447.817V446.359L657.46 445.171L657.046 444.703H658V443.227H648.514V444.721H655.066L655.84 445.279L656.686 446.557V447.583L656.416 448.609L655.66 449.131H648.514V450.625H656.2L657.712 449.455L658.144 447.817ZM660.412 439.536L657.784 438.024H655.786V440.166H657.712L658 439.428L659.89 440.436L660.412 439.536ZM658.144 426.015V424.035L657.406 422.163L656.776 421.353L655.948 420.651L654.94 421.713L655.642 422.325L656.092 422.883L656.668 424.251V425.763L656.056 427.059L655.192 427.905L654.004 428.517L652.798 428.787H650.386L649.18 428.517L647.974 427.905L647.11 427.041L646.534 425.763V424.251L647.11 422.901L647.56 422.343L648.262 421.713L647.254 420.651L646.426 421.353L645.796 422.163L645.058 424.035V426.015L645.886 427.905L647.092 429.147L648.694 429.939L650.278 430.281H652.924L654.472 429.939L656.074 429.147L657.298 427.941L658.144 426.015ZM658 418.227V416.733H652.006L651.142 416.337L650.314 415.599L649.846 414.609V413.835L650.044 413.115L648.622 412.755L648.37 413.655V414.825L648.946 416.049L649.612 416.733H648.514V418.227H658ZM658.144 408.231V406.773L657.46 405.585L657.046 405.117H658V403.641H648.514V405.135H655.066L655.84 405.693L656.686 406.971V407.997L656.416 409.023L655.66 409.545H648.514V411.039H656.2L657.712 409.869L658.144 408.231ZM658 400.401V398.907H651.448L650.674 398.367L649.846 397.071V395.919L650.152 394.857L650.854 394.407H658V392.913H650.278L648.802 394.011L648.37 395.613V397.269L649.054 398.457L649.45 398.907H648.514V400.401H658ZM658.144 387.082V385.552L657.694 384.148L656.542 382.978L655.516 384.022L656.398 384.958L656.668 385.732V386.794L656.128 387.892L654.958 388.756L654.13 388.99H652.402L651.556 388.774L650.404 387.928L649.846 386.848V385.732L650.098 384.922L650.998 384.022L650.008 382.96L648.82 384.148L648.37 385.552V387.082L649.234 388.882L650.89 390.106L652.204 390.484H654.346L655.624 390.106L657.28 388.882L658.144 387.082ZM658 380.625V379.131H651.52L650.674 378.555L649.846 377.295V376.143L650.152 375.171L650.854 374.721H658V373.227H650.278L648.802 374.325L648.37 375.837V377.493L649.054 378.699L649.414 379.131H644.428V380.625H658ZM660.916 370.221V368.619L648.514 363.021V364.677L654.976 367.521L648.514 370.365V372.057L656.74 368.331L660.916 370.221ZM658 361.41V359.916H652.672V356.478L658 354.156V352.5L652.402 354.984L651.844 353.922L650.548 353.04L648.784 352.554L646.966 353.076L645.634 354.408L645.202 356.082V361.41H658ZM651.196 359.916H646.678V356.244L646.984 355.182L647.758 354.408L648.838 354.102L649.9 354.408L650.674 354.93L651.196 356.01V359.916ZM658.144 347.978V346.07L657.28 344.252L655.948 343.352L654.328 342.992H652.204L650.584 343.352L649.252 344.252L648.37 346.07V347.978L649.252 349.796L650.584 350.696L652.204 351.056H654.328L655.948 350.696L657.28 349.796L658.144 347.978ZM656.686 347.726L656.164 348.788L655.354 349.328L654.148 349.562H652.348L651.178 349.328L650.386 348.806L649.846 347.726V346.322L650.386 345.278L651.178 344.72L652.348 344.486H654.148L655.354 344.72L656.164 345.26L656.686 346.322V347.726ZM658 340.389V338.895H644.428V340.389H658ZM658 335.66V334.166H644.428V335.66H658Z" fill="#FBF9F0"/>
<rect x="783" y="335.974" width="12" height="143.496" fill="#FBF9F0"/>
<path d="M764.916 477.184V475.582L752.514 469.984V471.64L758.976 474.484L752.514 477.328V479.02L760.74 475.294L764.916 477.184ZM762.144 466.191V464.283L761.28 462.465L759.948 461.565L758.328 461.205H756.204L754.584 461.565L753.252 462.465L752.37 464.283V466.191L753.252 468.009L754.584 468.909L756.204 469.269H758.328L759.948 468.909L761.28 468.009L762.144 466.191ZM760.686 465.939L760.164 467.001L759.354 467.541L758.148 467.775H756.348L755.178 467.541L754.386 467.019L753.846 465.939V464.535L754.386 463.491L755.178 462.933L756.348 462.699H758.148L759.354 462.933L760.164 463.473L760.686 464.535V465.939ZM762.144 455.974V454.516L761.46 453.328L761.046 452.86H762V451.384H752.514V452.878H759.066L759.84 453.436L760.686 454.714V455.74L760.416 456.766L759.66 457.288H752.514V458.782H760.2L761.712 457.612L762.144 455.974ZM762.144 445.353V444.525L761.766 442.851L760.344 443.229L760.668 444.507V445.011L760.416 445.659L759.768 446.109H754.224V443.625H752.748V446.109H749.436V447.603H752.748V449.313H754.224V447.603H760.254L761.676 446.613L762.144 445.353ZM762.144 438.325V436.867L761.46 435.679L761.046 435.211H762V433.735H752.514V435.229H759.066L759.84 435.787L760.686 437.065V438.091L760.416 439.117L759.66 439.639H752.514V441.133H760.2L761.712 439.963L762.144 438.325ZM762.144 427.416V425.814L761.28 424.014L759.624 422.79L758.31 422.412H756.168L754.89 422.79L753.234 424.014L752.37 425.886V427.506L753.054 428.604L753.468 429H748.428V430.494H762V429H761.424L761.748 428.496L762.144 427.416ZM760.686 427.2L760.452 427.938L760.002 428.622L759.534 429H755.448L754.674 428.478L753.846 427.308V426.12L754.386 424.986L755.556 424.122L756.366 423.906H758.112L758.958 424.122L760.11 424.986L760.686 426.048V427.2ZM762.144 417.035V415.541L761.73 413.885L760.956 412.715L759.768 413.507L760.362 414.443L760.668 415.667V416.747L760.128 417.845L758.958 418.709L758.166 418.943H757.986V411.995H756.096L754.89 412.409L753.234 413.615L752.37 415.433V417.035L753.234 418.835L754.89 420.059L756.204 420.437H758.346L759.624 420.059L761.28 418.835L762.144 417.035ZM756.51 418.943H756.348L755.556 418.727L754.404 417.881L753.846 416.801V415.685L754.422 414.587L755.592 413.723L756.276 413.489H756.51V418.943ZM762 404.162V402.668H755.448L754.674 402.128L753.846 400.832V399.68L754.188 398.762L754.926 398.312H762V396.818H755.52L754.674 396.242L753.846 394.982V393.83L754.152 392.912L754.854 392.462H762V390.968H754.278L752.802 392.066L752.37 393.524V395.18L753.054 396.44L753.738 397.232L752.802 397.916L752.37 399.374V401.03L753.054 402.218L753.45 402.668H752.514V404.162H762ZM762.144 385.274V383.816L761.46 382.628L761.046 382.16H762V380.684H752.514V382.178H759.066L759.84 382.736L760.686 384.014V385.04L760.416 386.066L759.66 386.588H752.514V388.082H760.2L761.712 386.912L762.144 385.274ZM762.144 375.373V373.771L761.784 372.547L761.172 371.683L760.128 370.999H758.598L757.446 371.701L756.762 372.727L756.222 375.481L755.97 375.985L755.484 376.345H754.692L754.26 376.093L754.008 375.787L753.81 375.103V373.897L754.116 372.889L754.71 372.025L753.504 371.215L752.766 372.295L752.37 373.771V375.301L752.676 376.417L753.306 377.227L754.332 377.821H755.934L756.978 377.065L757.59 375.913L758.112 373.321L758.49 372.781L759.012 372.475H759.696L760.146 372.763L760.47 373.213L760.686 373.969V375.175L760.398 376.291L760.02 376.777L759.606 377.119L760.614 378.163L761.082 377.749L761.748 376.903L762.144 375.373ZM750.642 368.803V366.643H748.428V368.803H750.642ZM762 368.479V366.985H752.514V368.479H762ZM762.144 360.978V359.448L761.694 358.044L760.542 356.874L759.516 357.918L760.398 358.854L760.668 359.628V360.69L760.128 361.788L758.958 362.652L758.13 362.886H756.402L755.556 362.67L754.404 361.824L753.846 360.744V359.628L754.098 358.818L754.998 357.918L754.008 356.856L752.82 358.044L752.37 359.448V360.978L753.234 362.778L754.89 364.002L756.204 364.38H758.346L759.624 364.002L761.28 362.778L762.144 360.978Z" fill="#FBF9F0"/>
<rect x="887" y="283" width="12" height="196" fill="#FBF9F0"/>
<path d="M866.144 475.78V474.178L865.784 472.954L865.172 472.09L864.128 471.406H862.598L861.446 472.108L860.762 473.134L860.222 475.888L859.97 476.392L859.484 476.752H858.692L858.26 476.5L858.008 476.194L857.81 475.51V474.304L858.116 473.296L858.71 472.432L857.504 471.622L856.766 472.702L856.37 474.178V475.708L856.676 476.824L857.306 477.634L858.332 478.228H859.934L860.978 477.472L861.59 476.32L862.112 473.728L862.49 473.188L863.012 472.882H863.696L864.146 473.17L864.47 473.62L864.686 474.376V475.582L864.398 476.698L864.02 477.184L863.606 477.526L864.614 478.57L865.082 478.156L865.748 477.31L866.144 475.78ZM868.916 468.885V467.391H865.424L865.748 466.887L866.144 465.807V464.205L865.28 462.405L863.624 461.181L862.31 460.803H860.168L858.89 461.181L857.234 462.405L856.37 464.277V465.897L857.054 467.013L857.468 467.409H856.514V468.885H868.916ZM864.686 465.591L864.452 466.329L864.002 467.013L863.534 467.391H859.448L858.674 466.869L857.846 465.699V464.511L858.386 463.377L859.556 462.513L860.366 462.297H862.112L862.958 462.513L864.11 463.377L864.686 464.439V465.591ZM866.144 455.749V453.841L865.28 452.023L863.948 451.123L862.328 450.763H860.204L858.584 451.123L857.252 452.023L856.37 453.841V455.749L857.252 457.567L858.584 458.467L860.204 458.827H862.328L863.948 458.467L865.28 457.567L866.144 455.749ZM864.686 455.497L864.164 456.559L863.354 457.099L862.148 457.333H860.348L859.178 457.099L858.386 456.577L857.846 455.497V454.093L858.386 453.049L859.178 452.491L860.348 452.257H862.148L863.354 452.491L864.164 453.031L864.686 454.093V455.497ZM866.144 445.37V444.542L865.766 442.868L864.344 443.246L864.668 444.524V445.028L864.416 445.676L863.768 446.126H858.224V443.642H856.748V446.126H853.436V447.62H856.748V449.33H858.224V447.62H864.254L865.676 446.63L866.144 445.37ZM854.642 441.295V439.135H852.428V441.295H854.642ZM866 440.971V439.477H856.514V440.971H866ZM866 435.702V434.208H858.224V431.796H856.748V434.208H854.66L853.994 433.758L853.76 433.074V432.588L854.102 431.256L852.644 430.878L852.284 432.48V433.2L852.752 434.712L854.228 435.702H856.748V437.412H858.224V435.702H866ZM868.916 428.949V427.347L856.514 421.749V423.405L862.976 426.249L856.514 429.093V430.785L864.74 427.059L868.916 428.949Z" fill="#FBF9F0"/>
<path d="M174 336.056V334.064H169.584V331.496H167.616V334.064H156.936V335.936L168.072 343.76H169.584V336.056H174ZM167.616 341.216L160.488 336.056H167.616V341.216ZM174.192 325.466V322.658L172.968 320.21L171.264 319.01L169.512 318.53H167.52L165.864 318.986L164.136 320.162L162.888 322.658V324.914L163.728 326.93L164.4 327.698H162.504L160.968 327.29L159.48 326.162L158.712 324.554V323.042L159.528 321.362L160.296 320.57L158.88 319.154L157.872 320.21L156.744 322.61V324.986L157.92 327.482L160.104 329.114L162.168 329.69H169.368L171.168 329.186L172.968 327.938L174.192 325.466ZM172.224 325.01L171.456 326.546L170.304 327.362L169.08 327.698H167.112L166.44 327.314L165.528 326.186L164.856 324.578V323.09L165.672 321.53L166.68 320.834L167.736 320.522H169.248L170.52 320.906L171.456 321.554L172.224 323.09V325.01Z" fill="#FFC800"/>
<path d="M278 393.112V382.72H276.032V390.4L268.928 383.968L266.768 382.912H264.464L261.968 384.496L260.744 386.992V389.584L261.872 392.104L262.976 393.16L264.392 391.744L263.528 390.904L262.712 389.2V387.472L263.48 385.864L265.04 384.904H266.36L267.848 385.648L276.224 393.112H278ZM278 380.203V377.971L262.376 371.035H260.936V381.163H262.904V373.363L278 380.203Z" fill="#FFC800"/>
<path d="M382.192 365.68V363.136L381.064 360.592L379.408 359.032L377.536 358.336H375.784L373.936 359.032L372.256 360.712L371.392 363.016L366.496 359.464H364.936V368.128H366.904V362.104L371.488 365.44H373.072V363.904L373.912 361.816L375.016 360.76L376.072 360.328H377.272L378.4 360.784L379.408 361.744L380.224 363.544V365.32L379.552 366.952L378.64 367.864L380.056 369.28L381.184 368.104L382.192 365.68ZM382.192 352.942V350.398L381.064 347.854L379.408 346.294L377.536 345.598H375.544L373.696 346.294L372.016 347.974L371.152 350.182V353.086L371.488 353.854L366.904 353.134V346.798H364.936V354.862L372.448 355.894L373.624 354.262L373.12 352.774V350.59L373.672 349.126L374.8 348.022L375.856 347.59H377.248L378.376 348.046L379.408 349.006L380.224 350.806V352.582L379.552 354.214L378.64 355.126L380.056 356.542L381.184 355.366L382.192 352.942Z" fill="#FFC800"/>
<path d="M486.192 239.12V236.888L485.52 234.656L483.864 232.952L482.112 232.448H479.88L478.104 233.024L476.688 234.536L475.776 233.48L474.12 232.832H472.392L470.616 233.432L469.392 234.896L468.744 237.08V238.928L469.392 241.112L470.616 242.576L472.392 243.176H474.12L475.776 242.528L476.688 241.472L478.104 242.984L479.88 243.56H482.112L483.864 243.056L485.52 241.352L486.192 239.12ZM475.8 239.096L475.44 240.128L474.696 240.872L473.76 241.184H472.704L471.744 240.848L471.096 240.104L470.712 238.712V237.296L471.096 235.904L471.744 235.16L472.704 234.824H473.76L474.696 235.136L475.44 235.88L475.8 236.912V239.096ZM484.224 238.856L483.768 240.296L482.808 241.304L481.776 241.568H480.168L479.136 241.256L478.128 240.272L477.72 239.168V236.84L478.128 235.736L479.136 234.752L480.168 234.44H481.776L482.808 234.704L483.768 235.712L484.224 237.152V238.856ZM486 229.797V227.565L470.376 220.629H468.936V230.757H470.904V222.957L486 229.797Z" fill="#FFC800"/>
<path d="M694.192 323.2V320.656L693.064 318.112L691.408 316.552L689.536 315.856H687.544L685.696 316.552L684.016 318.232L683.152 320.44V323.344L683.488 324.112L678.904 323.392V317.056H676.936V325.12L684.448 326.152L685.624 324.52L685.12 323.032V320.848L685.672 319.384L686.8 318.28L687.856 317.848H689.248L690.376 318.304L691.408 319.264L692.224 321.064V322.84L691.552 324.472L690.64 325.384L692.056 326.8L693.184 325.624L694.192 323.2ZM694 313.518V303.126H692.032V310.806L684.928 304.374L682.768 303.318H680.464L677.968 304.902L676.744 307.398V309.99L677.872 312.51L678.976 313.566L680.392 312.15L679.528 311.31L678.712 309.606V307.878L679.48 306.27L681.04 305.31H682.36L683.848 306.054L692.224 313.518H694Z" fill="#FFC800"/>
<path d="M798.192 306.216V303.408L796.968 300.96L795.264 299.76L793.512 299.28H791.52L789.864 299.736L788.136 300.912L786.888 303.408V305.664L787.728 307.68L788.4 308.448H786.504L784.968 308.04L783.48 306.912L782.712 305.304V303.792L783.528 302.112L784.296 301.32L782.88 299.904L781.872 300.96L780.744 303.36V305.736L781.92 308.232L784.104 309.864L786.168 310.44H793.368L795.168 309.936L796.968 308.688L798.192 306.216ZM796.224 305.76L795.456 307.296L794.304 308.112L793.08 308.448H791.112L790.44 308.064L789.528 306.936L788.856 305.328V303.84L789.672 302.28L790.68 301.584L791.736 301.272H793.248L794.52 301.656L795.456 302.304L796.224 303.84V305.76ZM798.192 291.502V289.222L797.16 287.038L795.456 285.358L793.392 284.494L791.208 284.086H787.728L785.544 284.494L783.48 285.358L781.776 287.038L780.744 289.222V291.502L781.776 293.686L783.48 295.366L785.544 296.23L787.728 296.638H791.208L793.392 296.23L795.456 295.366L797.16 293.686L798.192 291.502ZM796.224 291.118L795.552 292.51L794.28 293.71L792.888 294.286L791.04 294.646H787.872L786.12 294.31L784.632 293.734L783.408 292.534L782.712 291.094V289.63L783.408 288.19L784.632 286.99L786.12 286.414L787.872 286.078H791.04L792.888 286.438L794.28 287.014L795.552 288.214L796.224 289.606V291.118Z" fill="#FFC800"/>
<path d="M902.192 253.12V250.888L901.52 248.656L899.864 246.952L898.112 246.448H895.88L894.104 247.024L892.688 248.536L891.776 247.48L890.12 246.832H888.392L886.616 247.432L885.392 248.896L884.744 251.08V252.928L885.392 255.112L886.616 256.576L888.392 257.176H890.12L891.776 256.528L892.688 255.472L894.104 256.984L895.88 257.56H898.112L899.864 257.056L901.52 255.352L902.192 253.12ZM891.8 253.096L891.44 254.128L890.696 254.872L889.76 255.184H888.704L887.744 254.848L887.096 254.104L886.712 252.712V251.296L887.096 249.904L887.744 249.16L888.704 248.824H889.76L890.696 249.136L891.44 249.88L891.8 250.912V253.096ZM900.224 252.856L899.768 254.296L898.808 255.304L897.776 255.568H896.168L895.136 255.256L894.128 254.272L893.72 253.168V250.84L894.128 249.736L895.136 248.752L896.168 248.44H897.776L898.808 248.704L899.768 249.712L900.224 251.152V252.856ZM902.192 240.688V238.144L901.064 235.6L899.408 234.04L897.536 233.344H895.784L893.936 234.04L892.256 235.72L891.392 238.024L886.496 234.472H884.936V243.136H886.904V237.112L891.488 240.448H893.072V238.912L893.912 236.824L895.016 235.768L896.072 235.336H897.272L898.4 235.792L899.408 236.752L900.224 238.552V240.328L899.552 241.96L898.64 242.872L900.056 244.288L901.184 243.112L902.192 240.688Z" fill="#FFC800"/>
</g>
<defs>
<clipPath id="clip0_79_390">
<rect width="1024" height="576" fill="white"/>
</clipPath>
</defs>
</svg>
