<svg width="1024" height="576" viewBox="0 0 1024 576" fill="none" xmlns="http://www.w3.org/2000/svg">
<g clip-path="url(#clip0_79_470)">
<path d="M240.598 118.808C238.486 118.808 236.95 117.656 236.302 115.832C236.038 115.136 235.942 114.416 235.942 113.6C235.942 112.784 236.038 112.04 236.302 111.368C236.95 109.544 238.486 108.368 240.598 108.368C242.734 108.368 244.246 109.544 244.918 111.368C245.158 112.04 245.278 112.784 245.278 113.6C245.278 114.416 245.158 115.136 244.918 115.832C244.246 117.704 242.71 118.808 240.598 118.808ZM231.838 113.6C231.838 114.848 232.03 116 232.39 117.032C233.47 120.08 236.014 122.024 239.446 122.36V122.672C239.446 125.096 240.694 126.08 243.07 126.08H246.622V122.984H242.254V122.312C245.446 121.832 247.774 119.888 248.806 117.032C249.19 116 249.382 114.848 249.382 113.6C249.382 112.352 249.19 111.2 248.806 110.168C247.63 106.832 244.63 104.768 240.598 104.768C236.59 104.768 233.59 106.832 232.39 110.168C232.03 111.2 231.838 112.352 231.838 113.6ZM250.856 122H255.248V117.944H250.856V122ZM274.195 122H278.107V105.2H274.195V111.776H267.883V105.2H263.971V122H267.883V115.376H274.195V122ZM286.946 122.36C289.226 122.36 291.098 121.424 292.202 119.816C292.898 118.784 293.282 117.512 293.282 116.048C293.282 114.584 292.898 113.312 292.202 112.28C291.098 110.672 289.226 109.736 286.946 109.736C284.666 109.736 282.818 110.672 281.714 112.28C281.018 113.312 280.634 114.584 280.634 116.048C280.634 117.512 281.018 118.784 281.714 119.816C282.818 121.424 284.666 122.36 286.946 122.36ZM284.378 116.048C284.378 115.232 284.594 114.536 284.93 114.032C285.386 113.36 286.106 112.976 286.946 112.976C287.81 112.976 288.506 113.36 288.962 114.032C289.322 114.536 289.514 115.232 289.514 116.048C289.514 116.864 289.322 117.56 288.962 118.064C288.506 118.736 287.81 119.12 286.946 119.12C286.106 119.12 285.386 118.736 284.93 118.064C284.594 117.56 284.378 116.864 284.378 116.048ZM296.861 122H302.549L303.797 113.528L303.845 112.208H304.325L304.349 113.528L305.621 122H311.285L313.709 110.096H310.037L308.501 118.616L308.477 119.912H307.997L307.973 118.616L306.701 110.096H301.469L300.173 118.616L300.148 119.912H299.669L299.645 118.616L298.133 110.096H294.461L296.861 122ZM326.038 122.36C328.102 122.36 329.446 121.088 330.142 118.856H330.622L329.71 122H333.454V105.2H329.71V110.096L330.622 113.24H330.142C329.446 111.008 328.102 109.736 326.038 109.736C324.382 109.736 323.014 110.48 322.126 111.752C321.382 112.832 320.974 114.296 320.974 116.048C320.974 117.8 321.382 119.264 322.126 120.344C323.014 121.64 324.382 122.36 326.038 122.36ZM324.742 116.048C324.742 115.184 324.958 114.464 325.318 113.936C325.75 113.312 326.422 112.976 327.262 112.976C328.078 112.976 328.75 113.312 329.182 113.936C329.542 114.464 329.758 115.184 329.758 116.048C329.758 116.936 329.542 117.656 329.182 118.16C328.75 118.784 328.078 119.12 327.262 119.12C326.422 119.12 325.75 118.784 325.318 118.16C324.958 117.656 324.742 116.936 324.742 116.048ZM342.071 122.36C344.351 122.36 346.223 121.424 347.327 119.816C348.023 118.784 348.407 117.512 348.407 116.048C348.407 114.584 348.023 113.312 347.327 112.28C346.223 110.672 344.351 109.736 342.071 109.736C339.791 109.736 337.943 110.672 336.839 112.28C336.143 113.312 335.759 114.584 335.759 116.048C335.759 117.512 336.143 118.784 336.839 119.816C337.943 121.424 339.791 122.36 342.071 122.36ZM339.503 116.048C339.503 115.232 339.719 114.536 340.055 114.032C340.511 113.36 341.231 112.976 342.071 112.976C342.935 112.976 343.631 113.36 344.087 114.032C344.447 114.536 344.639 115.232 344.639 116.048C344.639 116.864 344.447 117.56 344.087 118.064C343.631 118.736 342.935 119.12 342.071 119.12C341.231 119.12 340.511 118.736 340.055 118.064C339.719 117.56 339.503 116.864 339.503 116.048ZM359.787 126.656C362.283 126.656 363.867 125.432 364.683 122.624L368.259 110.096H364.251L362.115 118.784H361.683L359.235 110.096H355.227L358.635 120.896H361.587L361.179 122.576C360.963 123.464 360.435 123.824 359.739 123.824C359.067 123.824 358.683 123.488 358.683 122.96V122.792H355.059V123.032C355.059 125.384 356.907 126.656 359.787 126.656ZM375.282 122.36C377.562 122.36 379.434 121.424 380.538 119.816C381.234 118.784 381.618 117.512 381.618 116.048C381.618 114.584 381.234 113.312 380.538 112.28C379.434 110.672 377.562 109.736 375.282 109.736C373.002 109.736 371.154 110.672 370.05 112.28C369.354 113.312 368.97 114.584 368.97 116.048C368.97 117.512 369.354 118.784 370.05 119.816C371.154 121.424 373.002 122.36 375.282 122.36ZM372.714 116.048C372.714 115.232 372.93 114.536 373.266 114.032C373.722 113.36 374.442 112.976 375.282 112.976C376.146 112.976 376.842 113.36 377.298 114.032C377.658 114.536 377.85 115.232 377.85 116.048C377.85 116.864 377.658 117.56 377.298 118.064C376.842 118.736 376.146 119.12 375.282 119.12C374.442 119.12 373.722 118.736 373.266 118.064C372.93 117.56 372.714 116.864 372.714 116.048ZM387.712 122.36C389.632 122.36 390.904 121.184 391.552 118.856H392.056L391.144 122H394.864V110.096H391.144V116.312C391.144 117.968 390.352 118.952 389.104 118.952C387.976 118.952 387.424 118.256 387.424 116.912V110.096H383.704V117.704C383.704 120.752 385.048 122.36 387.712 122.36ZM403.96 122H407.68V119.264L409.024 117.752L411.88 122H416.008L411.424 115.472L416.128 110.096H412.096L407.248 115.568H406.768L407.68 113.864V105.2H403.96V122ZM422.505 122.36C425.505 122.36 427.713 120.728 428.121 118.304H424.401C424.113 119.12 423.369 119.528 422.433 119.528C421.497 119.528 420.873 119.216 420.465 118.64C420.177 118.232 420.009 117.68 419.913 117.008H428.097V116.048C428.097 112.064 426.033 109.736 422.337 109.736C420.297 109.736 418.545 110.552 417.489 112.064C416.769 113.096 416.337 114.464 416.337 116.096C416.337 117.704 416.721 119.024 417.441 120.056C418.473 121.568 420.201 122.36 422.505 122.36ZM419.961 114.728C420.033 114.224 420.201 113.792 420.441 113.456C420.873 112.808 421.545 112.496 422.337 112.496C423.729 112.496 424.497 113.264 424.545 114.728H419.961ZM435.724 122.36C438.724 122.36 440.932 120.728 441.34 118.304H437.62C437.332 119.12 436.588 119.528 435.652 119.528C434.716 119.528 434.092 119.216 433.684 118.64C433.396 118.232 433.228 117.68 433.132 117.008H441.316V116.048C441.316 112.064 439.252 109.736 435.556 109.736C433.516 109.736 431.764 110.552 430.708 112.064C429.988 113.096 429.556 114.464 429.556 116.096C429.556 117.704 429.94 119.024 430.66 120.056C431.692 121.568 433.42 122.36 435.724 122.36ZM433.18 114.728C433.252 114.224 433.42 113.792 433.66 113.456C434.092 112.808 434.764 112.496 435.556 112.496C436.948 112.496 437.716 113.264 437.764 114.728H433.18ZM443.663 126.32H447.383V122L446.495 118.856H446.975C447.647 121.088 449.015 122.36 451.079 122.36C452.735 122.36 454.103 121.64 454.991 120.344C455.711 119.264 456.119 117.8 456.119 116.048C456.119 114.296 455.711 112.832 454.991 111.752C454.103 110.48 452.735 109.736 451.079 109.736C449.015 109.736 447.647 111.008 446.975 113.24H446.495L447.383 110.096H443.663V126.32ZM447.335 116.048C447.335 115.184 447.551 114.464 447.911 113.936C448.367 113.312 449.039 112.976 449.855 112.976C450.671 112.976 451.343 113.312 451.775 113.936C452.159 114.464 452.375 115.184 452.375 116.048C452.375 116.936 452.159 117.656 451.775 118.16C451.343 118.784 450.671 119.12 449.855 119.12C449.039 119.12 448.367 118.784 447.911 118.16C447.551 117.656 447.335 116.936 447.335 116.048ZM475.667 122.36C478.619 122.36 480.515 120.584 480.515 117.728V115.904H476.771V117.632C476.771 118.736 476.459 119.168 475.715 119.168C475.115 119.168 474.707 118.736 474.707 117.8V113.096H480.515V110.096H474.707V106.664L470.987 108.32V110.096H468.827V113.096H470.987V117.872C470.987 120.776 472.571 122.36 475.667 122.36ZM482.967 122H486.687V115.568C486.687 113.984 487.239 113.168 488.175 113.168C489.015 113.168 489.423 113.672 489.423 114.944V116.528H493.215V113.744C493.215 111.176 492.135 109.736 490.023 109.736C488.103 109.736 486.879 110.84 486.087 113.528H485.583L486.639 110.096H482.967V122ZM498.439 122.36C500.599 122.36 501.847 121.256 502.495 118.856H502.975L502.111 122H505.759V114.344C505.759 111.32 503.839 109.736 500.287 109.736C494.623 109.736 494.575 113.912 494.575 114.32V114.392H498.343V114.32C498.343 114.152 498.367 112.664 500.167 112.664C501.367 112.664 502.015 113.264 502.015 114.344V114.992L499.015 115.256C497.551 115.376 496.447 115.832 495.727 116.552C495.127 117.152 494.815 117.968 494.815 118.976C494.815 119.96 495.151 120.752 495.751 121.352C496.375 122 497.335 122.36 498.439 122.36ZM498.655 118.664C498.655 118.328 498.775 118.04 498.967 117.848C499.255 117.56 499.663 117.392 500.239 117.32L502.015 117.104V117.176C502.015 117.968 501.511 119.768 499.831 119.768C499.447 119.768 499.135 119.648 498.943 119.456C498.751 119.264 498.655 119 498.655 118.664ZM513.861 122.36C517.149 122.36 519.429 120.608 519.573 117.416H515.877C515.709 118.52 515.013 119.12 513.885 119.12C513.141 119.12 512.541 118.808 512.133 118.232C511.773 117.704 511.581 116.984 511.581 116.096C511.581 115.16 511.797 114.464 512.157 113.912C512.589 113.312 513.213 112.976 514.005 112.976C515.157 112.976 515.901 113.576 516.093 114.704H519.765C519.645 111.536 517.317 109.736 514.005 109.736C511.797 109.736 510.021 110.552 508.965 112.064C508.245 113.096 507.837 114.464 507.837 116.096C507.837 117.704 508.221 119.024 508.941 120.056C509.973 121.568 511.701 122.36 513.861 122.36ZM522.014 122H525.734V119.264L527.078 117.752L529.934 122H534.062L529.478 115.472L534.182 110.096H530.15L525.302 115.568H524.822L525.734 113.864V105.2H522.014V122ZM546.915 122.36C549.195 122.36 551.067 121.424 552.171 119.816C552.867 118.784 553.251 117.512 553.251 116.048C553.251 114.584 552.867 113.312 552.171 112.28C551.067 110.672 549.195 109.736 546.915 109.736C544.635 109.736 542.787 110.672 541.683 112.28C540.987 113.312 540.603 114.584 540.603 116.048C540.603 117.512 540.987 118.784 541.683 119.816C542.787 121.424 544.635 122.36 546.915 122.36ZM544.347 116.048C544.347 115.232 544.563 114.536 544.899 114.032C545.355 113.36 546.075 112.976 546.915 112.976C547.779 112.976 548.475 113.36 548.931 114.032C549.291 114.536 549.483 115.232 549.483 116.048C549.483 116.864 549.291 117.56 548.931 118.064C548.475 118.736 547.779 119.12 546.915 119.12C546.075 119.12 545.355 118.736 544.899 118.064C544.563 117.56 544.347 116.864 544.347 116.048ZM556.323 109.256V110.096H554.163V113.096H556.323V122H560.043V113.096H564.243V110.096H560.043V108.992C560.043 108.128 560.499 107.6 561.267 107.6C561.939 107.6 562.371 108.008 562.371 108.848V108.92H565.971V108.848C565.971 106.184 564.243 104.816 561.219 104.816C558.147 104.816 556.323 106.496 556.323 109.256ZM571.796 122H575.516V115.568C575.516 113.984 576.068 113.168 577.004 113.168C577.844 113.168 578.252 113.672 578.252 114.944V116.528H582.044V113.744C582.044 111.176 580.964 109.736 578.852 109.736C576.932 109.736 575.708 110.84 574.916 113.528H574.412L575.468 110.096H571.796V122ZM589.427 122.36C592.427 122.36 594.635 120.728 595.043 118.304H591.323C591.035 119.12 590.291 119.528 589.355 119.528C588.419 119.528 587.795 119.216 587.387 118.64C587.099 118.232 586.931 117.68 586.835 117.008H595.019V116.048C595.019 112.064 592.955 109.736 589.259 109.736C587.219 109.736 585.467 110.552 584.411 112.064C583.691 113.096 583.259 114.464 583.259 116.096C583.259 117.704 583.643 119.024 584.363 120.056C585.395 121.568 587.123 122.36 589.427 122.36ZM586.883 114.728C586.955 114.224 587.123 113.792 587.363 113.456C587.795 112.808 588.467 112.496 589.259 112.496C590.651 112.496 591.419 113.264 591.467 114.728H586.883ZM602.502 122.36C605.79 122.36 608.07 120.608 608.214 117.416H604.518C604.35 118.52 603.654 119.12 602.526 119.12C601.782 119.12 601.182 118.808 600.774 118.232C600.414 117.704 600.222 116.984 600.222 116.096C600.222 115.16 600.438 114.464 600.798 113.912C601.23 113.312 601.854 112.976 602.646 112.976C603.798 112.976 604.542 113.576 604.734 114.704H608.406C608.286 111.536 605.958 109.736 602.646 109.736C600.438 109.736 598.662 110.552 597.606 112.064C596.886 113.096 596.478 114.464 596.478 116.096C596.478 117.704 596.862 119.024 597.582 120.056C598.614 121.568 600.342 122.36 602.502 122.36ZM616.079 122.36C618.359 122.36 620.231 121.424 621.335 119.816C622.031 118.784 622.415 117.512 622.415 116.048C622.415 114.584 622.031 113.312 621.335 112.28C620.231 110.672 618.359 109.736 616.079 109.736C613.799 109.736 611.951 110.672 610.847 112.28C610.151 113.312 609.767 114.584 609.767 116.048C609.767 117.512 610.151 118.784 610.847 119.816C611.951 121.424 613.799 122.36 616.079 122.36ZM613.511 116.048C613.511 115.232 613.727 114.536 614.063 114.032C614.519 113.36 615.239 112.976 616.079 112.976C616.943 112.976 617.639 113.36 618.095 114.032C618.455 114.536 618.647 115.232 618.647 116.048C618.647 116.864 618.455 117.56 618.095 118.064C617.639 118.736 616.943 119.12 616.079 119.12C615.239 119.12 614.519 118.736 614.063 118.064C613.727 117.56 613.511 116.864 613.511 116.048ZM624.741 122H628.461V115.52C628.461 114.008 629.109 113.144 630.285 113.144C631.173 113.144 631.749 113.792 631.749 115.04V122H635.469V115.52C635.469 114.032 636.165 113.144 637.317 113.144C638.277 113.144 638.757 113.792 638.757 115.04V122H642.477V114.248C642.477 111.32 641.205 109.736 638.853 109.736C637.053 109.736 635.541 110.744 634.965 113.24H634.485C634.485 110.936 633.213 109.736 631.581 109.736C629.781 109.736 628.629 110.96 628.053 113.24H627.573L628.461 110.096H624.741V122ZM645.46 122H649.18V115.52C649.18 114.008 649.828 113.144 651.004 113.144C651.892 113.144 652.468 113.792 652.468 115.04V122H656.188V115.52C656.188 114.032 656.884 113.144 658.036 113.144C658.996 113.144 659.476 113.792 659.476 115.04V122H663.196V114.248C663.196 111.32 661.924 109.736 659.572 109.736C657.772 109.736 656.26 110.744 655.684 113.24H655.204C655.204 110.936 653.932 109.736 652.3 109.736C650.5 109.736 649.348 110.96 648.772 113.24H648.292L649.18 110.096H645.46V122ZM671.458 122.36C674.458 122.36 676.666 120.728 677.074 118.304H673.354C673.066 119.12 672.322 119.528 671.386 119.528C670.45 119.528 669.826 119.216 669.418 118.64C669.13 118.232 668.962 117.68 668.866 117.008H677.05V116.048C677.05 112.064 674.986 109.736 671.29 109.736C669.25 109.736 667.498 110.552 666.442 112.064C665.722 113.096 665.29 114.464 665.29 116.096C665.29 117.704 665.674 119.024 666.394 120.056C667.426 121.568 669.154 122.36 671.458 122.36ZM668.914 114.728C668.986 114.224 669.154 113.792 669.394 113.456C669.826 112.808 670.498 112.496 671.29 112.496C672.682 112.496 673.45 113.264 673.498 114.728H668.914ZM679.397 122H683.117V115.784C683.117 114.128 683.957 113.144 685.301 113.144C686.501 113.144 687.077 113.864 687.077 115.184V122H690.797V114.392C690.797 111.344 689.381 109.736 686.669 109.736C684.701 109.736 683.381 110.936 682.709 113.24H682.229L683.117 110.096H679.397V122ZM698.108 122.36C700.172 122.36 701.516 121.088 702.212 118.856H702.692L701.78 122H705.524V105.2H701.78V110.096L702.692 113.24H702.212C701.516 111.008 700.172 109.736 698.108 109.736C696.452 109.736 695.084 110.48 694.196 111.752C693.452 112.832 693.044 114.296 693.044 116.048C693.044 117.8 693.452 119.264 694.196 120.344C695.084 121.64 696.452 122.36 698.108 122.36ZM696.812 116.048C696.812 115.184 697.028 114.464 697.388 113.936C697.82 113.312 698.492 112.976 699.332 112.976C700.148 112.976 700.82 113.312 701.252 113.936C701.612 114.464 701.828 115.184 701.828 116.048C701.828 116.936 701.612 117.656 701.252 118.16C700.82 118.784 700.148 119.12 699.332 119.12C698.492 119.12 697.82 118.784 697.388 118.16C697.028 117.656 696.812 116.936 696.812 116.048ZM711.837 122.36C713.997 122.36 715.245 121.256 715.893 118.856H716.373L715.509 122H719.157V114.344C719.157 111.32 717.237 109.736 713.685 109.736C708.021 109.736 707.973 113.912 707.973 114.32V114.392H711.741V114.32C711.741 114.152 711.765 112.664 713.565 112.664C714.765 112.664 715.413 113.264 715.413 114.344V114.992L712.413 115.256C710.949 115.376 709.845 115.832 709.125 116.552C708.525 117.152 708.213 117.968 708.213 118.976C708.213 119.96 708.549 120.752 709.149 121.352C709.773 122 710.733 122.36 711.837 122.36ZM712.053 118.664C712.053 118.328 712.173 118.04 712.365 117.848C712.653 117.56 713.061 117.392 713.637 117.32L715.413 117.104V117.176C715.413 117.968 714.909 119.768 713.229 119.768C712.845 119.768 712.533 119.648 712.341 119.456C712.149 119.264 712.053 119 712.053 118.664ZM727.456 122.36C730.408 122.36 732.304 120.584 732.304 117.728V115.904H728.56V117.632C728.56 118.736 728.248 119.168 727.504 119.168C726.904 119.168 726.496 118.736 726.496 117.8V113.096H732.304V110.096H726.496V106.664L722.776 108.32V110.096H720.616V113.096H722.776V117.872C722.776 120.776 724.36 122.36 727.456 122.36ZM734.756 122H738.476V110.096H734.756V122ZM734.66 108.632H738.596V105.512H734.66V108.632ZM747.118 122.36C749.398 122.36 751.27 121.424 752.374 119.816C753.07 118.784 753.454 117.512 753.454 116.048C753.454 114.584 753.07 113.312 752.374 112.28C751.27 110.672 749.398 109.736 747.118 109.736C744.838 109.736 742.99 110.672 741.886 112.28C741.19 113.312 740.806 114.584 740.806 116.048C740.806 117.512 741.19 118.784 741.886 119.816C742.99 121.424 744.838 122.36 747.118 122.36ZM744.55 116.048C744.55 115.232 744.766 114.536 745.102 114.032C745.558 113.36 746.278 112.976 747.118 112.976C747.982 112.976 748.678 113.36 749.134 114.032C749.494 114.536 749.686 115.232 749.686 116.048C749.686 116.864 749.494 117.56 749.134 118.064C748.678 118.736 747.982 119.12 747.118 119.12C746.278 119.12 745.558 118.736 745.102 118.064C744.766 117.56 744.55 116.864 744.55 116.048ZM755.78 122H759.5V115.784C759.5 114.128 760.34 113.144 761.684 113.144C762.884 113.144 763.46 113.864 763.46 115.184V122H767.18V114.392C767.18 111.344 765.764 109.736 763.052 109.736C761.084 109.736 759.764 110.936 759.092 113.24H758.612L759.5 110.096H755.78V122ZM774.419 122.36C776.267 122.36 777.635 121.856 778.499 120.992C779.123 120.368 779.459 119.576 779.459 118.544C779.459 116.504 778.379 115.4 775.859 114.824L774.299 114.488C773.363 114.272 773.003 113.96 773.003 113.432C773.003 113.168 773.099 112.952 773.243 112.784C773.507 112.544 773.891 112.424 774.467 112.424C775.523 112.424 776.147 112.928 776.147 113.864V113.984H779.603V113.864C779.603 111.296 777.779 109.76 774.587 109.76C772.739 109.76 771.347 110.24 770.459 111.104C769.835 111.728 769.523 112.544 769.523 113.504C769.523 115.472 770.603 116.648 772.691 117.104L774.707 117.56C775.595 117.728 775.931 118.088 775.931 118.64C775.931 118.928 775.835 119.144 775.667 119.312C775.427 119.552 775.019 119.672 774.467 119.672C773.411 119.672 772.811 119.192 772.811 118.28V118.16H769.355V118.28C769.355 120.872 771.203 122.36 774.419 122.36ZM783.732 115.448C783.732 114.92 783.804 114.448 783.948 114.032C784.092 113.616 784.324 113.224 784.644 112.856C784.98 112.488 785.42 112.112 785.964 111.728C786.444 111.376 786.828 111.064 787.116 110.792C787.42 110.52 787.636 110.248 787.764 109.976C787.908 109.704 787.98 109.4 787.98 109.064C787.98 108.552 787.788 108.168 787.404 107.912C787.036 107.64 786.516 107.504 785.844 107.504C785.172 107.504 784.508 107.608 783.852 107.816C783.196 108.024 782.524 108.304 781.836 108.656L780.564 106.088C781.348 105.656 782.196 105.304 783.108 105.032C784.02 104.76 785.02 104.624 786.108 104.624C787.772 104.624 789.06 105.024 789.972 105.824C790.9 106.624 791.364 107.64 791.364 108.872C791.364 109.528 791.26 110.096 791.052 110.576C790.844 111.056 790.532 111.504 790.116 111.92C789.7 112.32 789.18 112.752 788.556 113.216C788.092 113.552 787.732 113.84 787.476 114.08C787.22 114.32 787.044 114.552 786.948 114.776C786.868 115 786.828 115.28 786.828 115.616V116.312H783.732V115.448ZM783.348 120.32C783.348 119.584 783.548 119.072 783.948 118.784C784.348 118.48 784.836 118.328 785.412 118.328C785.972 118.328 786.452 118.48 786.852 118.784C787.252 119.072 787.452 119.584 787.452 120.32C787.452 121.024 787.252 121.536 786.852 121.856C786.452 122.16 785.972 122.312 785.412 122.312C784.836 122.312 784.348 122.16 783.948 121.856C783.548 121.536 783.348 121.024 783.348 120.32Z" fill="#FBF9F0"/>
<rect x="144" y="336" width="12" height="144" fill="#FBF9F0"/>
<path d="M123 478.38V476.886H116.448L115.674 476.346L114.846 475.05V473.898L115.188 472.98L115.926 472.53H123V471.036H116.52L115.674 470.46L114.846 469.2V468.048L115.152 467.13L115.854 466.68H123V465.186H115.278L113.802 466.284L113.37 467.742V469.398L114.054 470.658L114.738 471.45L113.802 472.134L113.37 473.592V475.248L114.054 476.436L114.45 476.886H113.514V478.38H123ZM123.144 459.654V458.538L122.316 456.882L121.848 456.468L123.144 455.604L122.28 454.398L121.272 455.1H115.818L114.594 455.586L113.694 456.918L113.37 458.214V459.888L113.712 461.04L114.27 461.904L114.738 462.408L115.8 461.382L115.458 461.04L115.098 460.482L114.846 459.708V458.43L115.062 457.548L115.548 456.792L116.088 456.594H117.456L117.15 457.026L116.754 458.232V459.384L117.204 461.166L118.536 462.498L119.76 462.75H120.804L122.262 461.742L122.766 460.878L123.144 459.654ZM121.668 459.438L121.416 460.284L121.164 460.698L120.372 461.256H119.886L119.256 461.112L118.554 460.41L118.23 459.222V458.412L118.482 457.53L118.77 456.972L119.166 456.594H119.832L120.39 456.774L121.164 457.512L121.668 458.862V459.438ZM123 451.942V450.448H119.49L118.338 449.26L123 445.984V444.166L117.312 448.234L113.514 444.346V446.434L117.528 450.448H109.428L109.428 451.942H123ZM123.144 439.96V438.466L122.73 436.81L121.956 435.64L120.768 436.432L121.362 437.368L121.668 438.592V439.672L121.128 440.77L119.958 441.634L119.166 441.868H118.986V434.92H117.096L115.89 435.334L114.234 436.54L113.37 438.358V439.96L114.234 441.76L115.89 442.984L117.204 443.362H119.346L120.624 442.984L122.28 441.76L123.144 439.96ZM117.51 441.868H117.348L116.556 441.652L115.404 440.806L114.846 439.726V438.61L115.422 437.512L116.592 436.648L117.276 436.414H117.51V441.868ZM123.144 424.621V423.505L122.316 421.849L121.848 421.435L123.144 420.571L122.28 419.365L121.272 420.067H115.818L114.594 420.553L113.694 421.885L113.37 423.181V424.855L113.712 426.007L114.27 426.871L114.738 427.375L115.8 426.349L115.458 426.007L115.098 425.449L114.846 424.675V423.397L115.062 422.515L115.548 421.759L116.088 421.561H117.456L117.15 421.993L116.754 423.199V424.351L117.204 426.133L118.536 427.465L119.76 427.717H120.804L122.262 426.709L122.766 425.845L123.144 424.621ZM121.668 424.405L121.416 425.251L121.164 425.665L120.372 426.223H119.886L119.256 426.079L118.554 425.377L118.23 424.189V423.379L118.482 422.497L118.77 421.939L119.166 421.561H119.832L120.39 421.741L121.164 422.479L121.668 423.829V424.405ZM123 411.601V410.107H116.448L115.674 409.567L114.846 408.271V407.119L115.188 406.201L115.926 405.751H123V404.257H116.52L115.674 403.681L114.846 402.421V401.269L115.152 400.351L115.854 399.901H123V398.407H115.278L113.802 399.505L113.37 400.963V402.619L114.054 403.879L114.738 404.671L113.802 405.355L113.37 406.813V408.469L114.054 409.657L114.45 410.107H113.514V411.601H123ZM123.144 392.569V391.075L122.73 389.419L121.956 388.249L120.768 389.041L121.362 389.977L121.668 391.201V392.281L121.128 393.379L119.958 394.243L119.166 394.477H118.986V387.529H117.096L115.89 387.943L114.234 389.149L113.37 390.967V392.569L114.234 394.369L115.89 395.593L117.204 395.971H119.346L120.624 395.593L122.28 394.369L123.144 392.569ZM117.51 394.477H117.348L116.556 394.261L115.404 393.415L114.846 392.335V391.219L115.422 390.121L116.592 389.257L117.276 389.023H117.51V394.477ZM123 385.005V383.511H116.448L115.674 382.971L114.846 381.675V380.523L115.152 379.461L115.854 379.011H123V377.517H115.278L113.802 378.615L113.37 380.217V381.873L114.054 383.061L114.45 383.511H113.514V385.005H123ZM123.144 371.668V370.84L122.766 369.166L121.344 369.544L121.668 370.822V371.326L121.416 371.974L120.768 372.424H115.224V369.94H113.748V372.424H110.436V373.918H113.748V375.628H115.224V373.918H121.254L122.676 372.928L123.144 371.668ZM123.144 364.891V363.775L122.316 362.119L121.848 361.705L123.144 360.841L122.28 359.635L121.272 360.337H115.818L114.594 360.823L113.694 362.155L113.37 363.451V365.125L113.712 366.277L114.27 367.141L114.738 367.645L115.8 366.619L115.458 366.277L115.098 365.719L114.846 364.945V363.667L115.062 362.785L115.548 362.029L116.088 361.831H117.456L117.15 362.263L116.754 363.469V364.621L117.204 366.403L118.536 367.735L119.76 367.987H120.804L122.262 366.979L122.766 366.115L123.144 364.891ZM121.668 364.675L121.416 365.521L121.164 365.935L120.372 366.493H119.886L119.256 366.349L118.554 365.647L118.23 364.459V363.649L118.482 362.767L118.77 362.209L119.166 361.831H119.832L120.39 362.011L121.164 362.749L121.668 364.099V364.675ZM123 357.179V355.685H109.428V357.179H123ZM123 347.142V345.648H116.448L115.674 345.108L114.846 343.812V342.66L115.152 341.598L115.854 341.148H123V339.654H115.278L113.802 340.752L113.37 342.354V344.01L114.054 345.198L114.45 345.648H113.514V347.142H123ZM123.144 334.147V332.239L122.28 330.421L120.948 329.521L119.328 329.161H117.204L115.584 329.521L114.252 330.421L113.37 332.239V334.147L114.252 335.965L115.584 336.865L117.204 337.225H119.328L120.948 336.865L122.28 335.965L123.144 334.147ZM121.686 333.895L121.164 334.957L120.354 335.497L119.148 335.731H117.348L116.178 335.497L115.386 334.975L114.846 333.895V332.491L115.386 331.447L116.178 330.889L117.348 330.655H119.148L120.354 330.889L121.164 331.429L121.686 332.491V333.895ZM123.144 323.768V322.94L122.766 321.266L121.344 321.644L121.668 322.922V323.426L121.416 324.074L120.768 324.524H115.224V322.04H113.748V324.524H110.436V326.018H113.748V327.728H115.224V326.018H121.254L122.676 325.028L123.144 323.768ZM123.144 316.684V315.19L122.73 313.534L121.956 312.364L120.768 313.156L121.362 314.092L121.668 315.316V316.396L121.128 317.494L119.958 318.358L119.166 318.592H118.986V311.644H117.096L115.89 312.058L114.234 313.264L113.37 315.082V316.684L114.234 318.484L115.89 319.708L117.204 320.086H119.346L120.624 319.708L122.28 318.484L123.144 316.684ZM117.51 318.592H117.348L116.556 318.376L115.404 317.53L114.846 316.45V315.334L115.422 314.236L116.592 313.372L117.276 313.138H117.51V318.592Z" fill="#FBF9F0"/>
<rect x="248" y="458" width="12" height="22" fill="#FBF9F0"/>
<path d="M227 476.796V475.392L220.376 473.088L227 470.784V469.38L217.514 466.626V468.192L224.516 470.136L217.874 472.476V473.7L224.516 476.04L217.514 477.984V479.55L227 476.796ZM227 464.741V463.247H221.006L220.142 462.851L219.314 462.113L218.846 461.123V460.349L219.044 459.629L217.622 459.269L217.37 460.169V461.339L217.946 462.563L218.612 463.247H217.514V464.741H227ZM215.642 458.155V455.995H213.428V458.155H215.642ZM227 457.831V456.337H217.514V457.831H227ZM227.144 450.313V449.485L226.766 447.811L225.344 448.189L225.668 449.467V449.971L225.416 450.619L224.768 451.069H219.224V448.585H217.748V451.069H214.436V452.563H217.748V454.273H219.224V452.563H225.254L226.676 451.573L227.144 450.313ZM227.144 443.229V441.735L226.73 440.079L225.956 438.909L224.768 439.701L225.362 440.637L225.668 441.861V442.941L225.128 444.039L223.958 444.903L223.166 445.137H222.986V438.189H221.096L219.89 438.603L218.234 439.809L217.37 441.627V443.229L218.234 445.029L219.89 446.253L221.204 446.631H223.346L224.624 446.253L226.28 445.029L227.144 443.229ZM221.51 445.137H221.348L220.556 444.921L219.404 444.075L218.846 442.995V441.879L219.422 440.781L220.592 439.917L221.276 439.683H221.51V445.137ZM227.144 427.742V426.914L226.766 425.24L225.344 425.618L225.668 426.896V427.4L225.416 428.048L224.768 428.498H219.224V426.014H217.748V428.498H214.436V429.992H217.748V431.702H219.224V429.992H225.254L226.676 429.002L227.144 427.742ZM227 423.079L227 421.585H220.52L219.674 421.009L218.846 419.749V418.597L219.152 417.625L219.854 417.175H227V415.681H219.278L217.802 416.779L217.37 418.291V419.947L218.054 421.153L218.414 421.585H213.428V423.079H227ZM227.144 409.848V408.354L226.73 406.698L225.956 405.528L224.768 406.32L225.362 407.256L225.668 408.48V409.56L225.128 410.658L223.958 411.522L223.166 411.756H222.986V404.808H221.096L219.89 405.222L218.234 406.428L217.37 408.246V409.848L218.234 411.648L219.89 412.872L221.204 413.25H223.346L224.624 412.872L226.28 411.648L227.144 409.848ZM221.51 411.756H221.348L220.556 411.54L219.404 410.694L218.846 409.614V408.498L219.422 407.4L220.592 406.536L221.276 406.302H221.51V411.756ZM227 402.284V400.79H220.448L219.674 400.25L218.846 398.954V397.802L219.188 396.884L219.926 396.434H227V394.94H220.52L219.674 394.364L218.846 393.104V391.952L219.152 391.034L219.854 390.584H227V389.09H219.278L217.802 390.188L217.37 391.646V393.302L218.054 394.562L218.738 395.354L217.802 396.038L217.37 397.496V399.152L218.054 400.34L218.45 400.79H217.514V402.284H227ZM227.144 377.872V376.252L226.46 375.136L226.046 374.74H227V373.264H213.428V374.758H218.09L217.766 375.262L217.37 376.342V377.944L218.234 379.744L219.89 380.968L221.204 381.346H223.346L224.624 380.968L226.28 379.744L227.144 377.872ZM225.668 377.638L225.128 378.772L223.958 379.636L223.148 379.852H221.402L220.556 379.636L219.404 378.772L218.828 377.71V376.558L219.062 375.82L219.512 375.136L219.98 374.758H224.066L224.84 375.28L225.668 376.45V377.638ZM227.144 367.58V365.672L226.28 363.854L224.948 362.954L223.328 362.594H221.204L219.584 362.954L218.252 363.854L217.37 365.672V367.58L218.252 369.398L219.584 370.298L221.204 370.658H223.328L224.948 370.298L226.28 369.398L227.144 367.58ZM225.686 367.328L225.164 368.39L224.354 368.93L223.148 369.164H221.348L220.178 368.93L219.386 368.408L218.846 367.328V365.924L219.386 364.88L220.178 364.322L221.348 364.088H223.148L224.354 364.322L225.164 364.862L225.686 365.924V367.328ZM227 358.759V357.355L220.376 355.051L227 352.747V351.343L217.514 348.589V350.155L224.516 352.099L217.874 354.439V355.663L224.516 358.003L217.514 359.947V361.513L227 358.759ZM227 346.614V345.12H220.448L219.674 344.58L218.846 343.284V342.132L219.152 341.07L219.854 340.62H227V339.126H219.278L217.802 340.224L217.37 341.826V343.482L218.054 344.67L218.45 345.12H217.514V346.614H227Z" fill="#FBF9F0"/>
<rect x="352" y="348" width="12" height="132" fill="#FBF9F0"/>
<path d="M331.144 475.752V474.294L330.46 473.106L330.046 472.638H331V471.162H321.514V472.656H328.066L328.84 473.214L329.686 474.492V475.518L329.416 476.544L328.66 477.066H321.514V478.56H329.2L330.712 477.39L331.144 475.752ZM331.144 465.851V464.249L330.784 463.025L330.172 462.161L329.128 461.477H327.598L326.446 462.179L325.762 463.205L325.222 465.959L324.97 466.463L324.484 466.823H323.692L323.26 466.571L323.008 466.265L322.81 465.581V464.375L323.116 463.367L323.71 462.503L322.504 461.693L321.766 462.773L321.37 464.249V465.779L321.676 466.895L322.306 467.705L323.332 468.299H324.934L325.978 467.543L326.59 466.391L327.112 463.799L327.49 463.259L328.012 462.953H328.696L329.146 463.241L329.47 463.691L329.686 464.447V465.653L329.398 466.769L329.02 467.255L328.606 467.597L329.614 468.641L330.082 468.227L330.748 467.381L331.144 465.851ZM331.144 456.184V454.69L330.73 453.034L329.956 451.864L328.768 452.656L329.362 453.592L329.668 454.816V455.896L329.128 456.994L327.958 457.858L327.166 458.092H326.986V451.144H325.096L323.89 451.558L322.234 452.764L321.37 454.582V456.184L322.234 457.984L323.89 459.208L325.204 459.586H327.346L328.624 459.208L330.28 457.984L331.144 456.184ZM325.51 458.092H325.348L324.556 457.876L323.404 457.03L322.846 455.95V454.834L323.422 453.736L324.592 452.872L325.276 452.638H325.51V458.092ZM331.144 440.846V439.73L330.316 438.074L329.848 437.66L331.144 436.796L330.28 435.59L329.272 436.292H323.818L322.594 436.778L321.694 438.11L321.37 439.406V441.08L321.712 442.232L322.27 443.096L322.738 443.6L323.8 442.574L323.458 442.232L323.098 441.674L322.846 440.9V439.622L323.062 438.74L323.548 437.984L324.088 437.786H325.456L325.15 438.218L324.754 439.424V440.576L325.204 442.358L326.536 443.69L327.76 443.942H328.804L330.262 442.934L330.766 442.07L331.144 440.846ZM329.668 440.63L329.416 441.476L329.164 441.89L328.372 442.448H327.886L327.256 442.304L326.554 441.602L326.23 440.414V439.604L326.482 438.722L326.77 438.164L327.166 437.786H327.832L328.39 437.966L329.164 438.704L329.668 440.054V440.63ZM331 427.825V426.331H324.448L323.674 425.791L322.846 424.495V423.343L323.152 422.281L323.854 421.831H331V420.337H323.278L321.802 421.435L321.37 423.037V424.693L322.054 425.881L322.45 426.331H321.514V427.825H331ZM331.144 414.83V412.922L330.28 411.104L328.948 410.204L327.328 409.844H325.204L323.584 410.204L322.252 411.104L321.37 412.922V414.83L322.252 416.648L323.584 417.548L325.204 417.908H327.328L328.948 417.548L330.28 416.648L331.144 414.83ZM329.686 414.578L329.164 415.64L328.354 416.18L327.148 416.414H325.348L324.178 416.18L323.386 415.658L322.846 414.578V413.174L323.386 412.13L324.178 411.572L325.348 411.338H327.148L328.354 411.572L329.164 412.112L329.686 413.174V414.578ZM331.144 404.451V403.623L330.766 401.949L329.344 402.327L329.668 403.605V404.109L329.416 404.757L328.768 405.207H323.224V402.723H321.748V405.207H318.436V406.701H321.748V408.411H323.224V406.701H329.254L330.676 405.711L331.144 404.451ZM331.144 397.368V395.874L330.73 394.218L329.956 393.048L328.768 393.84L329.362 394.776L329.668 396V397.08L329.128 398.178L327.958 399.042L327.166 399.276H326.986V392.328H325.096L323.89 392.742L322.234 393.948L321.37 395.766V397.368L322.234 399.168L323.89 400.392L325.204 400.77H327.346L328.624 400.392L330.28 399.168L331.144 397.368ZM325.51 399.276H325.348L324.556 399.06L323.404 398.214L322.846 397.134V396.018L323.422 394.92L324.592 394.056L325.276 393.822H325.51V399.276ZM331.144 387.19V386.362L330.766 384.688L329.344 385.066L329.668 386.344V386.848L329.416 387.496L328.768 387.946H323.224V385.462H321.748V387.946H318.436V389.44H321.748V391.15H323.224V389.44H329.254L330.676 388.45L331.144 387.19ZM331.144 380.412V379.296L330.316 377.64L329.848 377.226L331.144 376.362L330.28 375.156L329.272 375.858H323.818L322.594 376.344L321.694 377.676L321.37 378.972V380.646L321.712 381.798L322.27 382.662L322.738 383.166L323.8 382.14L323.458 381.798L323.098 381.24L322.846 380.466V379.188L323.062 378.306L323.548 377.55L324.088 377.352H325.456L325.15 377.784L324.754 378.99V380.142L325.204 381.924L326.536 383.256L327.76 383.508H328.804L330.262 382.5L330.766 381.636L331.144 380.412ZM329.668 380.196L329.416 381.042L329.164 381.456L328.372 382.014H327.886L327.256 381.87L326.554 381.168L326.23 379.98V379.17L326.482 378.288L326.77 377.73L327.166 377.352H327.832L328.39 377.532L329.164 378.27L329.668 379.62V380.196ZM331 372.7V371.206H327.49L326.338 370.018L331 366.742V364.924L325.312 368.992L321.514 365.104V367.192L325.528 371.206H317.428V372.7H331ZM319.642 363.444V361.284H317.428V363.444H319.642ZM331 363.12V361.626H321.514V363.12H331ZM331 358.392V356.898H324.448L323.674 356.358L322.846 355.062V353.91L323.152 352.848L323.854 352.398H331V350.904H323.278L321.802 352.002L321.37 353.604V355.26L322.054 356.448L322.45 356.898H321.514V358.392H331ZM334.024 345.127V343.543L333.574 342.211L332.656 340.843L331.342 340.393H321.514V341.887H322.09L321.766 342.391L321.37 343.471V345.073L322.234 346.873L323.89 348.097L325.204 348.475H326.914L328.192 348.097L329.848 346.837L330.568 345.001V343.381L329.884 342.265L329.524 341.887H331.18L331.72 342.103L332.242 342.877L332.548 343.705V344.983L332.314 345.847L332.008 346.297L331.558 346.747L332.62 347.791L333.106 347.287L333.682 346.405L334.024 345.127ZM329.092 344.767L328.624 345.937L327.49 346.765L326.716 346.981H325.402L324.556 346.765L323.404 345.901L322.828 344.839V343.687L323.062 342.949L323.512 342.265L323.98 341.887H327.418L328.264 342.409L329.092 343.579V344.767ZM331.144 329.383V328.267L330.316 326.611L329.848 326.197L331.144 325.333L330.28 324.127L329.272 324.829H323.818L322.594 325.315L321.694 326.647L321.37 327.943V329.617L321.712 330.769L322.27 331.633L322.738 332.137L323.8 331.111L323.458 330.769L323.098 330.211L322.846 329.437V328.159L323.062 327.277L323.548 326.521L324.088 326.323H325.456L325.15 326.755L324.754 327.961V329.113L325.204 330.895L326.536 332.227L327.76 332.479H328.804L330.262 331.471L330.766 330.607L331.144 329.383ZM329.668 329.167L329.416 330.013L329.164 330.427L328.372 330.985H327.886L327.256 330.841L326.554 330.139L326.23 328.951V328.141L326.482 327.259L326.77 326.701L327.166 326.323H327.832L328.39 326.503L329.164 327.241L329.668 328.591V329.167ZM333.916 321.671V320.177H330.424L330.748 319.673L331.144 318.593V316.991L330.28 315.191L328.624 313.967L327.31 313.589H325.168L323.89 313.967L322.234 315.191L321.37 317.063V318.683L322.054 319.799L322.468 320.195H321.514V321.671H333.916ZM329.686 318.377L329.452 319.115L329.002 319.799L328.534 320.177H324.448L323.674 319.655L322.846 318.485V317.297L323.386 316.163L324.556 315.299L325.366 315.083H327.112L327.958 315.299L329.11 316.163L329.686 317.225V318.377ZM333.916 310.984V309.49H330.424L330.748 308.986L331.144 307.906V306.304L330.28 304.504L328.624 303.28L327.31 302.902H325.168L323.89 303.28L322.234 304.504L321.37 306.376V307.996L322.054 309.112L322.468 309.508H321.514V310.984H333.916ZM329.686 307.69L329.452 308.428L329.002 309.112L328.534 309.49H324.448L323.674 308.968L322.846 307.798V306.61L323.386 305.476L324.556 304.612L325.366 304.396H327.112L327.958 304.612L329.11 305.476L329.686 306.538V307.69Z" fill="#FBF9F0"/>
<rect x="456" y="282" width="12" height="198" fill="#FBF9F0"/>
<path d="M435.144 475.59V474.762L434.766 473.088L433.344 473.466L433.668 474.744V475.248L433.416 475.896L432.768 476.346H427.224V473.862H425.748V476.346H422.436V477.84H425.748V479.55H427.224V477.84H433.254L434.676 476.85L435.144 475.59ZM435 471.017V469.523H429.006L428.142 469.127L427.314 468.389L426.846 467.399V466.625L427.044 465.905L425.622 465.545L425.37 466.445V467.615L425.946 468.839L426.612 469.523H425.514V471.017H435ZM435.144 461.229V459.735L434.73 458.079L433.956 456.909L432.768 457.701L433.362 458.637L433.668 459.861V460.941L433.128 462.039L431.958 462.903L431.166 463.137H430.986V456.189H429.096L427.89 456.603L426.234 457.809L425.37 459.627V461.229L426.234 463.029L427.89 464.253L429.204 464.631H431.346L432.624 464.253L434.28 463.029L435.144 461.229ZM429.51 463.137H429.348L428.556 462.921L427.404 462.075L426.846 460.995V459.879L427.422 458.781L428.592 457.917L429.276 457.683H429.51V463.137ZM435 453.665V452.171H428.448L427.674 451.631L426.846 450.335V449.183L427.152 448.121L427.854 447.671H435V446.177H427.278L425.802 447.275L425.37 448.877V450.533L426.054 451.721L426.45 452.171H425.514V453.665H435ZM435.144 440.274V438.654L434.46 437.538L434.046 437.142H435V435.666H421.428V437.16H426.09L425.766 437.664L425.37 438.744V440.346L426.234 442.146L427.89 443.37L429.204 443.748H431.346L432.624 443.37L434.28 442.146L435.144 440.274ZM433.668 440.04L433.128 441.174L431.958 442.038L431.148 442.254H429.402L428.556 442.038L427.404 441.174L426.828 440.112V438.96L427.062 438.222L427.512 437.538L427.98 437.16H432.066L432.84 437.682L433.668 438.852V440.04ZM435.144 430.361V428.759L434.784 427.535L434.172 426.671L433.128 425.987H431.598L430.446 426.689L429.762 427.715L429.222 430.469L428.97 430.973L428.484 431.333H427.692L427.26 431.081L427.008 430.775L426.81 430.091V428.885L427.116 427.877L427.71 427.013L426.504 426.203L425.766 427.283L425.37 428.759V430.289L425.676 431.405L426.306 432.215L427.332 432.809H428.934L429.978 432.053L430.59 430.901L431.112 428.309L431.49 427.769L432.012 427.463H432.696L433.146 427.751L433.47 428.201L433.686 428.957V430.163L433.398 431.279L433.02 431.765L432.606 432.107L433.614 433.151L434.082 432.737L434.748 431.891L435.144 430.361ZM435.144 415.709V413.801L434.28 411.983L432.948 411.083L431.328 410.723H429.204L427.584 411.083L426.252 411.983L425.37 413.801V415.709L426.252 417.527L427.584 418.427L429.204 418.787H431.328L432.948 418.427L434.28 417.527L435.144 415.709ZM433.686 415.457L433.164 416.519L432.354 417.059L431.148 417.293H429.348L428.178 417.059L427.386 416.537L426.846 415.457V414.053L427.386 413.009L428.178 412.451L429.348 412.217H431.148L432.354 412.451L433.164 412.991L433.686 414.053V415.457ZM435 408.12V406.626H428.448L427.674 406.086L426.846 404.79V403.638L427.152 402.576L427.854 402.126H435V400.632H427.278L425.802 401.73L425.37 403.332V404.988L426.054 406.176L426.45 406.626H425.514V408.12H435ZM435.144 390.195V388.593L434.784 387.369L434.172 386.505L433.128 385.821H431.598L430.446 386.523L429.762 387.549L429.222 390.303L428.97 390.807L428.484 391.167H427.692L427.26 390.915L427.008 390.609L426.81 389.925V388.719L427.116 387.711L427.71 386.847L426.504 386.037L425.766 387.117L425.37 388.593V390.123L425.676 391.239L426.306 392.049L427.332 392.643H428.934L429.978 391.887L430.59 390.735L431.112 388.143L431.49 387.603L432.012 387.297H432.696L433.146 387.585L433.47 388.035L433.686 388.791V389.997L433.398 391.113L433.02 391.599L432.606 391.941L433.614 392.985L434.082 392.571L434.748 391.725L435.144 390.195ZM435.144 380.852V378.944L434.28 377.126L432.948 376.226L431.328 375.866H429.204L427.584 376.226L426.252 377.126L425.37 378.944V380.852L426.252 382.67L427.584 383.57L429.204 383.93H431.328L432.948 383.57L434.28 382.67L435.144 380.852ZM433.686 380.6L433.164 381.662L432.354 382.202L431.148 382.436H429.348L428.178 382.202L427.386 381.68L426.846 380.6V379.196L427.386 378.152L428.178 377.594L429.348 377.36H431.148L432.354 377.594L433.164 378.134L433.686 379.196V380.6ZM435.144 370.491V368.961L434.694 367.557L433.542 366.387L432.516 367.431L433.398 368.367L433.668 369.141V370.203L433.128 371.301L431.958 372.165L431.13 372.399H429.402L428.556 372.183L427.404 371.337L426.846 370.257V369.141L427.098 368.331L427.998 367.431L427.008 366.369L425.82 367.557L425.37 368.961V370.491L426.234 372.291L427.89 373.515L429.204 373.893H431.346L432.624 373.515L434.28 372.291L435.144 370.491ZM423.642 364.71V362.55H421.428V364.71H423.642ZM435 364.386V362.892H425.514V364.386H435ZM435.144 357.191V356.075L434.316 354.419L433.848 354.005L435.144 353.141L434.28 351.935L433.272 352.637H427.818L426.594 353.123L425.694 354.455L425.37 355.751V357.425L425.712 358.577L426.27 359.441L426.738 359.945L427.8 358.919L427.458 358.577L427.098 358.019L426.846 357.245V355.967L427.062 355.085L427.548 354.329L428.088 354.131H429.456L429.15 354.563L428.754 355.769V356.921L429.204 358.703L430.536 360.035L431.76 360.287H432.804L434.262 359.279L434.766 358.415L435.144 357.191ZM433.668 356.975L433.416 357.821L433.164 358.235L432.372 358.793H431.886L431.256 358.649L430.554 357.947L430.23 356.759V355.949L430.482 355.067L430.77 354.509L431.166 354.131H431.832L432.39 354.311L433.164 355.049L433.668 356.399V356.975ZM435 349.48V347.986H421.428V349.48H435ZM435 339.442V337.948H428.448L427.674 337.408L426.846 336.112V334.96L427.188 334.042L427.926 333.592H435V332.098H428.52L427.674 331.522L426.846 330.262V329.11L427.152 328.192L427.854 327.742H435V326.248H427.278L425.802 327.346L425.37 328.804V330.46L426.054 331.72L426.738 332.512L425.802 333.196L425.37 334.654V336.311L426.054 337.498L426.45 337.948H425.514V339.442H435ZM435.144 320.411V318.917L434.73 317.261L433.956 316.091L432.768 316.883L433.362 317.819L433.668 319.043V320.123L433.128 321.221L431.958 322.085L431.166 322.319H430.986V315.371H429.096L427.89 315.785L426.234 316.991L425.37 318.809V320.411L426.234 322.211L427.89 323.435L429.204 323.813H431.346L432.624 323.435L434.28 322.211L435.144 320.411ZM429.51 322.319H429.348L428.556 322.103L427.404 321.257L426.846 320.177V319.061L427.422 317.963L428.592 317.099L429.276 316.865H429.51V322.319ZM435.144 310.003V308.383L434.46 307.267L434.046 306.871H435V305.395H421.428V306.889H426.09L425.766 307.393L425.37 308.473V310.075L426.234 311.875L427.89 313.099L429.204 313.477H431.346L432.624 313.099L434.28 311.875L435.144 310.003ZM433.668 309.769L433.128 310.903L431.958 311.767L431.148 311.983H429.402L428.556 311.767L427.404 310.903L426.828 309.841V308.689L427.062 307.951L427.512 307.267L427.98 306.889H432.066L432.84 307.411L433.668 308.581V309.769ZM423.642 302.483V300.323H421.428V302.483H423.642ZM435 302.159V300.665H425.514V302.159H435ZM435.144 294.965V293.849L434.316 292.193L433.848 291.779L435.144 290.915L434.28 289.709L433.272 290.411H427.818L426.594 290.897L425.694 292.229L425.37 293.525V295.199L425.712 296.351L426.27 297.215L426.738 297.719L427.8 296.693L427.458 296.351L427.098 295.793L426.846 295.019V293.741L427.062 292.859L427.548 292.103L428.088 291.905H429.456L429.15 292.337L428.754 293.543V294.695L429.204 296.477L430.536 297.809L431.76 298.061H432.804L434.262 297.053L434.766 296.189L435.144 294.965ZM433.668 294.749L433.416 295.595L433.164 296.009L432.372 296.567H431.886L431.256 296.423L430.554 295.721L430.23 294.533V293.723L430.482 292.841L430.77 292.283L431.166 291.905H431.832L432.39 292.085L433.164 292.823L433.668 294.173V294.749Z" fill="#FBF9F0"/>
<rect x="560" y="417" width="12" height="63" fill="#FBF9F0"/>
<path d="M539 478.38V476.886H525.428V478.38H539ZM539.144 471.203V469.295L538.28 467.477L536.948 466.577L535.328 466.217H533.204L531.584 466.577L530.252 467.477L529.37 469.295V471.203L530.252 473.021L531.584 473.921L533.204 474.281H535.328L536.948 473.921L538.28 473.021L539.144 471.203ZM537.686 470.951L537.164 472.013L536.354 472.553L535.148 472.787H533.348L532.178 472.553L531.386 472.031L530.846 470.951V469.547L531.386 468.503L532.178 467.945L533.348 467.711H535.148L536.354 467.945L537.164 468.485L537.686 469.547V470.951ZM539.144 461.166V459.258L538.28 457.44L536.948 456.54L535.328 456.18H533.204L531.584 456.54L530.252 457.44L529.37 459.258V461.166L530.252 462.984L531.584 463.884L533.204 464.244H535.328L536.948 463.884L538.28 462.984L539.144 461.166ZM537.686 460.914L537.164 461.976L536.354 462.516L535.148 462.75H533.348L532.178 462.516L531.386 461.994L530.846 460.914V459.51L531.386 458.466L532.178 457.908L533.348 457.674H535.148L536.354 457.908L537.164 458.448L537.686 459.51V460.914ZM539 453.577V452.083H535.49L534.338 450.895L539 447.619V445.801L533.312 449.869L529.514 445.981V448.069L533.528 452.083H525.428V453.577H539ZM539.144 441.918V440.01L538.28 438.192L536.948 437.292L535.328 436.932H533.204L531.584 437.292L530.252 438.192L529.37 440.01V441.918L530.252 443.736L531.584 444.636L533.204 444.996H535.328L536.948 444.636L538.28 443.736L539.144 441.918ZM537.686 441.666L537.164 442.728L536.354 443.268L535.148 443.502H533.348L532.178 443.268L531.386 442.746L530.846 441.666V440.262L531.386 439.218L532.178 438.66L533.348 438.426H535.148L536.354 438.66L537.164 439.2L537.686 440.262V441.666ZM539.144 431.701V430.243L538.46 429.055L538.046 428.587H539V427.111H529.514V428.605H536.066L536.84 429.163L537.686 430.441V431.467L537.416 432.493L536.66 433.015H529.514V434.509H537.2L538.712 433.339L539.144 431.701ZM539.144 421.08V420.252L538.766 418.578L537.344 418.956L537.668 420.234V420.738L537.416 421.386L536.768 421.836H531.224V419.352H529.748V421.836H526.436V423.33H529.748V425.04H531.224V423.33H537.254L538.676 422.34L539.144 421.08ZM539 410.92V409.426H531.224V407.014H529.748V409.426H527.66L526.994 408.976L526.76 408.292V407.806L527.102 406.474L525.644 406.096L525.284 407.698V408.418L525.752 409.93L527.228 410.92H529.748V412.63H531.224V410.92H539ZM539.144 402.561V400.653L538.28 398.835L536.948 397.935L535.328 397.575H533.204L531.584 397.935L530.252 398.835L529.37 400.653V402.561L530.252 404.379L531.584 405.279L533.204 405.639H535.328L536.948 405.279L538.28 404.379L539.144 402.561ZM537.686 402.309L537.164 403.371L536.354 403.911L535.148 404.145H533.348L532.178 403.911L531.386 403.389L530.846 402.309V400.905L531.386 399.861L532.178 399.303L533.348 399.069H535.148L536.354 399.303L537.164 399.843L537.686 400.905V402.309ZM539 395.062V393.568H533.006L532.142 393.172L531.314 392.434L530.846 391.444V390.67L531.044 389.95L529.622 389.59L529.37 390.49V391.66L529.946 392.884L530.612 393.568H529.514V395.062H539ZM539 382.562V381.068H532.448L531.674 380.528L530.846 379.232V378.08L531.152 377.018L531.854 376.568H539V375.074H531.278L529.802 376.172L529.37 377.774V379.43L530.054 380.618L530.45 381.068H529.514V382.562H539ZM539.144 369.243V367.749L538.73 366.093L537.956 364.923L536.768 365.715L537.362 366.651L537.668 367.875V368.955L537.128 370.053L535.958 370.917L535.166 371.151H534.986V364.203H533.096L531.89 364.617L530.234 365.823L529.37 367.641V369.243L530.234 371.043L531.89 372.267L533.204 372.645H535.346L536.624 372.267L538.28 371.043L539.144 369.243ZM533.51 371.151H533.348L532.556 370.935L531.404 370.089L530.846 369.009V367.893L531.422 366.795L532.592 365.931L533.276 365.697H533.51V371.151ZM539 360.446V359.042L532.376 356.738L539 354.434V353.03L529.514 350.276V351.842L536.516 353.786L529.874 356.126V357.35L536.516 359.69L529.514 361.634V363.2L539 360.446ZM539.144 346.601V344.999L538.784 343.775L538.172 342.911L537.128 342.227H535.598L534.446 342.929L533.762 343.955L533.222 346.709L532.97 347.213L532.484 347.573H531.692L531.26 347.321L531.008 347.015L530.81 346.331V345.125L531.116 344.117L531.71 343.253L530.504 342.443L529.766 343.523L529.37 344.999V346.529L529.676 347.645L530.306 348.455L531.332 349.049H532.934L533.978 348.293L534.59 347.141L535.112 344.549L535.49 344.009L536.012 343.703H536.696L537.146 343.991L537.47 344.441L537.686 345.197V346.403L537.398 347.519L537.02 348.005L536.606 348.347L537.614 349.391L538.082 348.977L538.748 348.131L539.144 346.601Z" fill="#FBF9F0"/>
<rect x="664" y="403" width="12" height="77" fill="#FBF9F0"/>
<path d="M643.144 476.31V474.708L642.784 473.484L642.172 472.62L641.128 471.936H639.598L638.446 472.638L637.762 473.664L637.222 476.418L636.97 476.922L636.484 477.282H635.692L635.26 477.03L635.008 476.724L634.81 476.04V474.834L635.116 473.826L635.71 472.962L634.504 472.152L633.766 473.232L633.37 474.708V476.238L633.676 477.354L634.306 478.164L635.332 478.758H636.934L637.978 478.002L638.59 476.85L639.112 474.258L639.49 473.718L640.012 473.412H640.696L641.146 473.7L641.47 474.15L641.686 474.906V476.112L641.398 477.228L641.02 477.714L640.606 478.056L641.614 479.1L642.082 478.686L642.748 477.84L643.144 476.31ZM643.144 466.643V465.149L642.73 463.493L641.956 462.323L640.768 463.115L641.362 464.051L641.668 465.275V466.355L641.128 467.453L639.958 468.317L639.166 468.551H638.986V461.603H637.096L635.89 462.017L634.234 463.223L633.37 465.041V466.643L634.234 468.443L635.89 469.667L637.204 470.045H639.346L640.624 469.667L642.28 468.443L643.144 466.643ZM637.51 468.551H637.348L636.556 468.335L635.404 467.489L634.846 466.409V465.293L635.422 464.195L636.592 463.331L637.276 463.097H637.51V468.551ZM643.144 456.465V455.637L642.766 453.963L641.344 454.341L641.668 455.619V456.123L641.416 456.771L640.768 457.221H635.224V454.737H633.748V457.221H630.436V458.715H633.748V460.425H635.224V458.715H641.254L642.676 457.725L643.144 456.465ZM643 446.759V445.265H637.006L636.142 444.869L635.314 444.131L634.846 443.141V442.367L635.044 441.647L633.622 441.287L633.37 442.187V443.357L633.946 444.581L634.612 445.265H633.514V446.759H643ZM643.144 436.971V435.477L642.73 433.821L641.956 432.651L640.768 433.443L641.362 434.379L641.668 435.603V436.683L641.128 437.781L639.958 438.645L639.166 438.879H638.986V431.931H637.096L635.89 432.345L634.234 433.551L633.37 435.369V436.971L634.234 438.771L635.89 439.995L637.204 440.373H639.346L640.624 439.995L642.28 438.771L643.144 436.971ZM637.51 438.879H637.348L636.556 438.663L635.404 437.817L634.846 436.737V435.621L635.422 434.523L636.592 433.659L637.276 433.425H637.51V438.879ZM643 429.407V427.913H636.448L635.674 427.373L634.846 426.077V424.925L635.188 424.007L635.926 423.557H643V422.063H636.52L635.674 421.487L634.846 420.227V419.075L635.152 418.157L635.854 417.707H643V416.213H635.278L633.802 417.311L633.37 418.769V420.425L634.054 421.685L634.738 422.477L633.802 423.161L633.37 424.619V426.275L634.054 427.463L634.45 427.913H633.514V429.407H643ZM631.642 413.472V411.312H629.428V413.472H631.642ZM643 413.148V411.654H633.514V413.148H643ZM643 408.419V406.925H636.448L635.674 406.385L634.846 405.089V403.937L635.152 402.875L635.854 402.425H643V400.931H635.278L633.802 402.029L633.37 403.631V405.287L634.054 406.475L634.45 406.925H633.514V408.419H643ZM643.144 395.028V393.408L642.46 392.292L642.046 391.896H643V390.42H629.428V391.914H634.09L633.766 392.418L633.37 393.498V395.1L634.234 396.9L635.89 398.124L637.204 398.502H639.346L640.624 398.124L642.28 396.9L643.144 395.028ZM641.668 394.794L641.128 395.928L639.958 396.792L639.148 397.008H637.402L636.556 396.792L635.404 395.928L634.828 394.866V393.714L635.062 392.976L635.512 392.292L635.98 391.914H640.066L640.84 392.436L641.668 393.606V394.794ZM643.144 384.413V382.919L642.73 381.263L641.956 380.093L640.768 380.885L641.362 381.821L641.668 383.045V384.125L641.128 385.223L639.958 386.087L639.166 386.321H638.986V379.373H637.096L635.89 379.787L634.234 380.993L633.37 382.811V384.413L634.234 386.213L635.89 387.437L637.204 387.815H639.346L640.624 387.437L642.28 386.213L643.144 384.413ZM637.51 386.321H637.348L636.556 386.105L635.404 385.259L634.846 384.179V383.063L635.422 381.965L636.592 381.101L637.276 380.867H637.51V386.321ZM643 376.939V375.445H637.006L636.142 375.049L635.314 374.311L634.846 373.321V372.547L635.044 371.827L633.622 371.467L633.37 372.367V373.537L633.946 374.761L634.612 375.445H633.514V376.939H643ZM643.144 367.958V366.356L642.784 365.132L642.172 364.268L641.128 363.584H639.598L638.446 364.286L637.762 365.312L637.222 368.066L636.97 368.57L636.484 368.93H635.692L635.26 368.678L635.008 368.372L634.81 367.688V366.482L635.116 365.474L635.71 364.61L634.504 363.8L633.766 364.88L633.37 366.356V367.886L633.676 369.002L634.306 369.812L635.332 370.406H636.934L637.978 369.65L638.59 368.498L639.112 365.906L639.49 365.366L640.012 365.06H640.696L641.146 365.348L641.47 365.798L641.686 366.554V367.76L641.398 368.876L641.02 369.362L640.606 369.704L641.614 370.748L642.082 370.334L642.748 369.488L643.144 367.958ZM643.144 353.307V351.399L642.28 349.581L640.948 348.681L639.328 348.321H637.204L635.584 348.681L634.252 349.581L633.37 351.399V353.307L634.252 355.125L635.584 356.025L637.204 356.385H639.328L640.948 356.025L642.28 355.125L643.144 353.307ZM641.686 353.055L641.164 354.117L640.354 354.657L639.148 354.891H637.348L636.178 354.657L635.386 354.135L634.846 353.055V351.651L635.386 350.607L636.178 350.049L637.348 349.815H639.148L640.354 350.049L641.164 350.589L641.686 351.651V353.055ZM643 345.718V344.224H636.448L635.674 343.684L634.846 342.388V341.236L635.152 340.174L635.854 339.724H643V338.23H635.278L633.802 339.328L633.37 340.93V342.586L634.054 343.774L634.45 344.224H633.514V345.718H643ZM645.916 329.862V328.368H642.424L642.748 327.864L643.144 326.784V325.182L642.28 323.382L640.624 322.158L639.31 321.78H637.168L635.89 322.158L634.234 323.382L633.37 325.254V326.874L634.054 327.99L634.468 328.386H633.514V329.862H645.916ZM641.686 326.568L641.452 327.306L641.002 327.99L640.534 328.368H636.448L635.674 327.846L634.846 326.676V325.488L635.386 324.354L636.556 323.49L637.366 323.274H639.112L639.958 323.49L641.11 324.354L641.686 325.416V326.568ZM643 319.175V317.681H636.52L635.674 317.105L634.846 315.845V314.693L635.152 313.721L635.854 313.271H643V311.777H635.278L633.802 312.875L633.37 314.387V316.043L634.054 317.249L634.414 317.681H629.428V319.175H643ZM643.144 306.268V304.36L642.28 302.542L640.948 301.642L639.328 301.282H637.204L635.584 301.642L634.252 302.542L633.37 304.36V306.268L634.252 308.086L635.584 308.986L637.204 309.346H639.328L640.948 308.986L642.28 308.086L643.144 306.268ZM641.686 306.016L641.164 307.078L640.354 307.618L639.148 307.852H637.348L636.178 307.618L635.386 307.096L634.846 306.016V304.612L635.386 303.568L636.178 303.01L637.348 302.776H639.148L640.354 303.01L641.164 303.55L641.686 304.612V306.016ZM643 298.679V297.185H636.448L635.674 296.645L634.846 295.349V294.197L635.152 293.135L635.854 292.685H643V291.191H635.278L633.802 292.289L633.37 293.891V295.547L634.054 296.735L634.45 297.185H633.514V298.679H643ZM643.144 285.36V283.866L642.73 282.21L641.956 281.04L640.768 281.832L641.362 282.768L641.668 283.992V285.072L641.128 286.17L639.958 287.034L639.166 287.268H638.986V280.32H637.096L635.89 280.734L634.234 281.94L633.37 283.758V285.36L634.234 287.16L635.89 288.384L637.204 288.762H639.346L640.624 288.384L642.28 287.16L643.144 285.36ZM637.51 287.268H637.348L636.556 287.052L635.404 286.206L634.846 285.126V284.01L635.422 282.912L636.592 282.048L637.276 281.814H637.51V287.268Z" fill="#FBF9F0"/>
<rect x="768" y="437" width="12" height="43" fill="#FBF9F0"/>
<path d="M747 478.47V476.976H741.006L740.142 476.58L739.314 475.842L738.846 474.852V474.078L739.044 473.358L737.622 472.998L737.37 473.898V475.068L737.946 476.292L738.612 476.976H737.514V478.47H747ZM747.144 468.682V467.188L746.73 465.532L745.956 464.362L744.768 465.154L745.362 466.09L745.668 467.314V468.394L745.128 469.492L743.958 470.356L743.166 470.59H742.986V463.642H741.096L739.89 464.056L738.234 465.262L737.37 467.08V468.682L738.234 470.482L739.89 471.706L741.204 472.084H743.346L744.624 471.706L746.28 470.482L747.144 468.682ZM741.51 470.59H741.348L740.556 470.374L739.404 469.528L738.846 468.448V467.332L739.422 466.234L740.592 465.37L741.276 465.136H741.51V470.59ZM747.144 458.346V456.816L746.694 455.412L745.542 454.242L744.516 455.286L745.398 456.222L745.668 456.996V458.058L745.128 459.156L743.958 460.02L743.13 460.254H741.402L740.556 460.038L739.404 459.192L738.846 458.112V456.996L739.098 456.186L739.998 455.286L739.008 454.224L737.82 455.412L737.37 456.816V458.346L738.234 460.146L739.89 461.37L741.204 461.748H743.346L744.624 461.37L746.28 460.146L747.144 458.346ZM747.144 449.899V447.991L746.28 446.173L744.948 445.273L743.328 444.913H741.204L739.584 445.273L738.252 446.173L737.37 447.991V449.899L738.252 451.717L739.584 452.617L741.204 452.977H743.328L744.948 452.617L746.28 451.717L747.144 449.899ZM745.686 449.647L745.164 450.709L744.354 451.249L743.148 451.483H741.348L740.178 451.249L739.386 450.727L738.846 449.647V448.243L739.386 447.199L740.178 446.641L741.348 446.407H743.148L744.354 446.641L745.164 447.181L745.686 448.243V449.647ZM747 442.4V440.906H741.006L740.142 440.51L739.314 439.772L738.846 438.782V438.008L739.044 437.288L737.622 436.928L737.37 437.828V438.998L737.946 440.222L738.612 440.906H737.514V442.4H747ZM747.144 432.54V430.92L746.46 429.804L746.046 429.408H747V427.932H733.428V429.426H738.09L737.766 429.93L737.37 431.01V432.612L738.234 434.412L739.89 435.636L741.204 436.014H743.346L744.624 435.636L746.28 434.412L747.144 432.54ZM745.668 432.306L745.128 433.44L743.958 434.304L743.148 434.52H741.402L740.556 434.304L739.404 433.44L738.828 432.378V431.226L739.062 430.488L739.512 429.804L739.98 429.426H744.066L744.84 429.948L745.668 431.118V432.306ZM747.144 416.94V415.032L746.28 413.214L744.948 412.314L743.328 411.954H741.204L739.584 412.314L738.252 413.214L737.37 415.032V416.94L738.252 418.758L739.584 419.658L741.204 420.018H743.328L744.948 419.658L746.28 418.758L747.144 416.94ZM745.686 416.688L745.164 417.75L744.354 418.29L743.148 418.524H741.348L740.178 418.29L739.386 417.768L738.846 416.688V415.284L739.386 414.24L740.178 413.682L741.348 413.448H743.148L744.354 413.682L745.164 414.222L745.686 415.284V416.688ZM747 409.351V407.857H740.448L739.674 407.317L738.846 406.021V404.869L739.152 403.807L739.854 403.357H747V401.863H739.278L737.802 402.961L737.37 404.563V406.219L738.054 407.407L738.45 407.857H737.514V409.351H747ZM747 391.72V390.226H735.678V386.752H734.202V395.122H735.678V391.72H747ZM747 381.287V379.883L734.202 375.041V376.625L744.732 380.585L734.202 384.545V386.129L747 381.287ZM749.916 368.2V366.706H746.424L746.748 366.202L747.144 365.122V363.52L746.28 361.72L744.624 360.496L743.31 360.118H741.168L739.89 360.496L738.234 361.72L737.37 363.592V365.212L738.054 366.328L738.468 366.724H737.514V368.2H749.916ZM745.686 364.906L745.452 365.644L745.002 366.328L744.534 366.706H740.448L739.674 366.184L738.846 365.014V363.826L739.386 362.692L740.556 361.828L741.366 361.612H743.112L743.958 361.828L745.11 362.692L745.686 363.754V364.906ZM747 357.603V356.109H741.006L740.142 355.713L739.314 354.975L738.846 353.985V353.211L739.044 352.491L737.622 352.131L737.37 353.031V354.201L737.946 355.425L738.612 356.109H737.514V357.603H747ZM747.144 348.139V346.231L746.28 344.413L744.948 343.513L743.328 343.153H741.204L739.584 343.513L738.252 344.413L737.37 346.231V348.139L738.252 349.957L739.584 350.857L741.204 351.217H743.328L744.948 350.857L746.28 349.957L747.144 348.139ZM745.686 347.887L745.164 348.949L744.354 349.489L743.148 349.723H741.348L740.178 349.489L739.386 348.967L738.846 347.887V346.483L739.386 345.439L740.178 344.881L741.348 344.647H743.148L744.354 344.881L745.164 345.421L745.686 346.483V347.887ZM747 338.399V337.031L737.514 333.269V334.853L744.858 337.715L737.514 340.577V342.161L747 338.399ZM735.642 331.61V329.45H733.428V331.61H735.642ZM747 331.286V329.792H737.514V331.286H747ZM747.144 323.714V322.094L746.46 320.978L746.046 320.582H747V319.106H733.428V320.6H738.09L737.766 321.104L737.37 322.184V323.786L738.234 325.586L739.89 326.81L741.204 327.188H743.346L744.624 326.81L746.28 325.586L747.144 323.714ZM745.668 323.48L745.128 324.614L743.958 325.478L743.148 325.694H741.402L740.556 325.478L739.404 324.614L738.828 323.552V322.4L739.062 321.662L739.512 320.978L739.98 320.6H744.066L744.84 321.122L745.668 322.292V323.48ZM747.144 313.098V311.604L746.73 309.948L745.956 308.778L744.768 309.57L745.362 310.506L745.668 311.73V312.81L745.128 313.908L743.958 314.772L743.166 315.006H742.986V308.058H741.096L739.89 308.472L738.234 309.678L737.37 311.496V313.098L738.234 314.898L739.89 316.122L741.204 316.5H743.346L744.624 316.122L746.28 314.898L747.144 313.098ZM741.51 315.006H741.348L740.556 314.79L739.404 313.944L738.846 312.864V311.748L739.422 310.65L740.592 309.786L741.276 309.552H741.51V315.006ZM747 305.624V304.13H741.006L740.142 303.734L739.314 302.996L738.846 302.006V301.232L739.044 300.512L737.622 300.152L737.37 301.052V302.222L737.946 303.446L738.612 304.13H737.514V305.624H747Z" fill="#FBF9F0"/>
<rect x="872" y="447" width="12" height="33" fill="#FBF9F0"/>
<path d="M851 478.47V476.976H845.006L844.142 476.58L843.314 475.842L842.846 474.852V474.078L843.044 473.358L841.622 472.998L841.37 473.898V475.068L841.946 476.292L842.612 476.976H841.514V478.47H851ZM851.144 468.682V467.188L850.73 465.532L849.956 464.362L848.768 465.154L849.362 466.09L849.668 467.314V468.394L849.128 469.492L847.958 470.356L847.166 470.59H846.986V463.642H845.096L843.89 464.056L842.234 465.262L841.37 467.08V468.682L842.234 470.482L843.89 471.706L845.204 472.084H847.346L848.624 471.706L850.28 470.482L851.144 468.682ZM845.51 470.59H845.348L844.556 470.374L843.404 469.528L842.846 468.448V467.332L843.422 466.234L844.592 465.37L845.276 465.136H845.51V470.59ZM853.916 461.118V459.624H850.424L850.748 459.12L851.144 458.04V456.438L850.28 454.638L848.624 453.414L847.31 453.036H845.168L843.89 453.414L842.234 454.638L841.37 456.51V458.13L842.054 459.246L842.468 459.642H841.514V461.118H853.916ZM849.686 457.824L849.452 458.562L849.002 459.246L848.534 459.624H844.448L843.674 459.102L842.846 457.932V456.744L843.386 455.61L844.556 454.746L845.366 454.53H847.112L847.958 454.746L849.11 455.61L849.686 456.672V457.824ZM851.144 447.659V446.165L850.73 444.509L849.956 443.339L848.768 444.131L849.362 445.067L849.668 446.291V447.371L849.128 448.469L847.958 449.333L847.166 449.567H846.986V442.619H845.096L843.89 443.033L842.234 444.239L841.37 446.057V447.659L842.234 449.459L843.89 450.683L845.204 451.061H847.346L848.624 450.683L850.28 449.459L851.144 447.659ZM845.51 449.567H845.348L844.556 449.351L843.404 448.505L842.846 447.425V446.309L843.422 445.211L844.592 444.347L845.276 444.113H845.51V449.567ZM851.144 437.805V436.689L850.316 435.033L849.848 434.619L851.144 433.755L850.28 432.549L849.272 433.251H843.818L842.594 433.737L841.694 435.069L841.37 436.365V438.039L841.712 439.191L842.27 440.055L842.738 440.559L843.8 439.533L843.458 439.191L843.098 438.633L842.846 437.859V436.581L843.062 435.699L843.548 434.943L844.088 434.745H845.456L845.15 435.177L844.754 436.383V437.535L845.204 439.317L846.536 440.649L847.76 440.901H848.804L850.262 439.893L850.766 439.029L851.144 437.805ZM849.668 437.589L849.416 438.435L849.164 438.849L848.372 439.407H847.886L847.256 439.263L846.554 438.561L846.23 437.373V436.563L846.482 435.681L846.77 435.123L847.166 434.745H847.832L848.39 434.925L849.164 435.663L849.668 437.013V437.589ZM851.144 427.567V426.739L850.766 425.065L849.344 425.443L849.668 426.721V427.225L849.416 427.873L848.768 428.323H843.224V425.839H841.748V428.323H838.436V429.817H841.748V431.527H843.224V429.817H849.254L850.676 428.827L851.144 427.567ZM851.144 420.483V418.989L850.73 417.333L849.956 416.163L848.768 416.955L849.362 417.891L849.668 419.115V420.195L849.128 421.293L847.958 422.157L847.166 422.391H846.986V415.443H845.096L843.89 415.857L842.234 417.063L841.37 418.881V420.483L842.234 422.283L843.89 423.507L845.204 423.885H847.346L848.624 423.507L850.28 422.283L851.144 420.483ZM845.51 422.391H845.348L844.556 422.175L843.404 421.329L842.846 420.249V419.133L843.422 418.035L844.592 417.171L845.276 416.937H845.51V422.391ZM851.144 410.075V408.455L850.46 407.339L850.046 406.943H851V405.467H837.428V406.961H842.09L841.766 407.465L841.37 408.545V410.147L842.234 411.947L843.89 413.171L845.204 413.549H847.346L848.624 413.171L850.28 411.947L851.144 410.075ZM849.668 409.841L849.128 410.975L847.958 411.839L847.148 412.055H845.402L844.556 411.839L843.404 410.975L842.828 409.913V408.761L843.062 408.023L843.512 407.339L843.98 406.961H848.066L848.84 407.483L849.668 408.653V409.841ZM851 402.232V400.738H837.428V402.232H851ZM853.916 397.294V395.692L841.514 390.094V391.75L847.976 394.594L841.514 397.438V399.13L849.74 395.404L853.916 397.294ZM851.144 380.254V379.138L850.316 377.482L849.848 377.068L851.144 376.204L850.28 374.998L849.272 375.7H843.818L842.594 376.186L841.694 377.518L841.37 378.814V380.488L841.712 381.64L842.27 382.504L842.738 383.008L843.8 381.982L843.458 381.64L843.098 381.082L842.846 380.308V379.03L843.062 378.148L843.548 377.392L844.088 377.194H845.456L845.15 377.626L844.754 378.832V379.984L845.204 381.766L846.536 383.098L847.76 383.35H848.804L850.262 382.342L850.766 381.478L851.144 380.254ZM849.668 380.038L849.416 380.884L849.164 381.298L848.372 381.856H847.886L847.256 381.712L846.554 381.01L846.23 379.822V379.012L846.482 378.13L846.77 377.572L847.166 377.194H847.832L848.39 377.374L849.164 378.112L849.668 379.462V380.038ZM851.144 370.472V368.87L850.784 367.646L850.172 366.782L849.128 366.098H847.598L846.446 366.8L845.762 367.826L845.222 370.58L844.97 371.084L844.484 371.444H843.692L843.26 371.192L843.008 370.886L842.81 370.202V368.996L843.116 367.988L843.71 367.124L842.504 366.314L841.766 367.394L841.37 368.87V370.4L841.676 371.516L842.306 372.326L843.332 372.92H844.934L845.978 372.164L846.59 371.012L847.112 368.42L847.49 367.88L848.012 367.574H848.696L849.146 367.862L849.47 368.312L849.686 369.068V370.274L849.398 371.39L849.02 371.876L848.606 372.218L849.614 373.262L850.082 372.848L850.748 372.002L851.144 370.472ZM851 363.577V362.083H847.49L846.338 360.895L851 357.619V355.801L845.312 359.869L841.514 355.981V358.069L845.528 362.083H837.428V363.577H851ZM853.916 347.847V346.245L841.514 340.647V342.303L847.976 345.147L841.514 347.991V349.683L849.74 345.957L853.916 347.847ZM851.144 336.854V334.946L850.28 333.128L848.948 332.228L847.328 331.868H845.204L843.584 332.228L842.252 333.128L841.37 334.946V336.854L842.252 338.672L843.584 339.572L845.204 339.932H847.328L848.948 339.572L850.28 338.672L851.144 336.854ZM849.686 336.602L849.164 337.664L848.354 338.204L847.148 338.438H845.348L844.178 338.204L843.386 337.682L842.846 336.602V335.198L843.386 334.154L844.178 333.596L845.348 333.362H847.148L848.354 333.596L849.164 334.136L849.686 335.198V336.602ZM851.144 326.637V325.179L850.46 323.991L850.046 323.523H851V322.047H841.514V323.541H848.066L848.84 324.099L849.686 325.377V326.403L849.416 327.429L848.66 327.951H841.514V329.445H849.2L850.712 328.275L851.144 326.637ZM851 318.896V317.402H845.006L844.142 317.006L843.314 316.268L842.846 315.278V314.504L843.044 313.784L841.622 313.424L841.37 314.324V315.494L841.946 316.718L842.612 317.402H841.514V318.896H851ZM851 306.031V304.537H843.224V302.125H841.748V304.537H839.66L838.994 304.087L838.76 303.403V302.917L839.102 301.585L837.644 301.207L837.284 302.809V303.529L837.752 305.041L839.228 306.031H841.748V307.741H843.224V306.031H851ZM851 299.753V298.259H845.006L844.142 297.863L843.314 297.125L842.846 296.135V295.361L843.044 294.641L841.622 294.281L841.37 295.181V296.351L841.946 297.575L842.612 298.259H841.514V299.753H851ZM839.642 293.167V291.007H837.428V293.167H839.642ZM851 292.843V291.349H841.514V292.843H851ZM851.144 285.342V283.848L850.73 282.192L849.956 281.022L848.768 281.814L849.362 282.75L849.668 283.974V285.054L849.128 286.152L847.958 287.016L847.166 287.25H846.986V280.302H845.096L843.89 280.716L842.234 281.922L841.37 283.74V285.342L842.234 287.142L843.89 288.366L845.204 288.744H847.346L848.624 288.366L850.28 287.142L851.144 285.342ZM845.51 287.25H845.348L844.556 287.034L843.404 286.188L842.846 285.108V283.992L843.422 282.894L844.592 282.03L845.276 281.796H845.51V287.25ZM851 277.778V276.284H844.448L843.674 275.744L842.846 274.448V273.296L843.152 272.234L843.854 271.784H851V270.29H843.278L841.802 271.388L841.37 272.99V274.646L842.054 275.834L842.45 276.284H841.514V277.778H851ZM851.144 264.388V262.768L850.46 261.652L850.046 261.256H851V259.78H837.428V261.274H842.09L841.766 261.778L841.37 262.858V264.46L842.234 266.26L843.89 267.484L845.204 267.862H847.346L848.624 267.484L850.28 266.26L851.144 264.388ZM849.668 264.154L849.128 265.288L847.958 266.152L847.148 266.368H845.402L844.556 266.152L843.404 265.288L842.828 264.226V263.074L843.062 262.336L843.512 261.652L843.98 261.274H848.066L848.84 261.796L849.668 262.966V264.154ZM851.144 254.474V252.872L850.784 251.648L850.172 250.784L849.128 250.1H847.598L846.446 250.802L845.762 251.828L845.222 254.582L844.97 255.086L844.484 255.446H843.692L843.26 255.194L843.008 254.888L842.81 254.204V252.998L843.116 251.99L843.71 251.126L842.504 250.316L841.766 251.396L841.37 252.872V254.402L841.676 255.518L842.306 256.328L843.332 256.922H844.934L845.978 256.166L846.59 255.014L847.112 252.422L847.49 251.882L848.012 251.576H848.696L849.146 251.864L849.47 252.314L849.686 253.07V254.276L849.398 255.392L849.02 255.878L848.606 256.22L849.614 257.264L850.082 256.85L850.748 256.004L851.144 254.474Z" fill="#FBF9F0"/>
<path d="M290 476V504H702V476" stroke="#FFC800" stroke-width="2" stroke-linecap="round"/>
<path d="M361.608 527H365.328V520.784C365.328 519.128 366.168 518.144 367.512 518.144C368.712 518.144 369.288 518.864 369.288 520.184V527H373.008V519.392C373.008 516.344 371.616 514.736 368.904 514.736C366.936 514.736 365.592 515.936 364.92 518.24H364.44L365.328 515.096V510.2H361.608V527ZM375.975 527H379.695V515.096H375.975V527ZM375.879 513.632H379.815V510.512H375.879V513.632ZM388.049 531.656C392.105 531.656 394.121 529.52 394.121 525.176V515.096H390.449L391.457 518.264H390.977C390.377 515.888 388.913 514.736 387.065 514.736C385.457 514.736 384.113 515.456 383.249 516.68C382.577 517.664 382.193 518.96 382.193 520.496C382.193 522.008 382.577 523.304 383.249 524.288C384.113 525.512 385.457 526.232 387.065 526.232C388.913 526.232 390.377 525.08 390.977 522.704H391.457L390.401 525.92V526.352C390.401 527.96 389.513 528.8 388.049 528.8C386.585 528.8 385.913 528.152 385.793 527.12H382.193C382.313 529.976 384.257 531.656 388.049 531.656ZM385.889 520.496C385.889 519.752 386.033 519.176 386.393 518.672C386.801 518.072 387.449 517.76 388.217 517.76C389.009 517.76 389.633 518.072 390.041 518.672C390.401 519.176 390.545 519.752 390.545 520.496C390.545 521.216 390.401 521.792 390.041 522.296C389.633 522.896 389.009 523.208 388.217 523.208C387.449 523.208 386.801 522.896 386.393 522.296C386.033 521.792 385.889 521.216 385.889 520.496ZM397.256 527H400.976V520.784C400.976 519.128 401.816 518.144 403.16 518.144C404.36 518.144 404.936 518.864 404.936 520.184V527H408.656V519.392C408.656 516.344 407.264 514.736 404.552 514.736C402.584 514.736 401.24 515.936 400.568 518.24H400.088L400.976 515.096V510.2H397.256V527ZM416.904 527.36C419.904 527.36 422.112 525.728 422.52 523.304H418.8C418.512 524.12 417.768 524.528 416.832 524.528C415.896 524.528 415.272 524.216 414.864 523.64C414.576 523.232 414.408 522.68 414.312 522.008H422.496V521.048C422.496 517.064 420.432 514.736 416.736 514.736C414.696 514.736 412.944 515.552 411.888 517.064C411.168 518.096 410.736 519.464 410.736 521.096C410.736 522.704 411.12 524.024 411.84 525.056C412.872 526.568 414.6 527.36 416.904 527.36ZM414.36 519.728C414.432 519.224 414.6 518.792 414.84 518.456C415.272 517.808 415.944 517.496 416.736 517.496C418.128 517.496 418.896 518.264 418.944 519.728H414.36ZM429.114 527.36C430.962 527.36 432.33 526.856 433.194 525.992C433.818 525.368 434.154 524.576 434.154 523.544C434.154 521.504 433.074 520.4 430.554 519.824L428.994 519.488C428.058 519.272 427.698 518.96 427.698 518.432C427.698 518.168 427.794 517.952 427.938 517.784C428.202 517.544 428.586 517.424 429.162 517.424C430.218 517.424 430.842 517.928 430.842 518.864V518.984H434.298V518.864C434.298 516.296 432.474 514.76 429.282 514.76C427.434 514.76 426.042 515.24 425.154 516.104C424.53 516.728 424.218 517.544 424.218 518.504C424.218 520.472 425.298 521.648 427.386 522.104L429.402 522.56C430.29 522.728 430.626 523.088 430.626 523.64C430.626 523.928 430.53 524.144 430.362 524.312C430.122 524.552 429.714 524.672 429.162 524.672C428.106 524.672 427.506 524.192 427.506 523.28V523.16H424.05V523.28C424.05 525.872 425.898 527.36 429.114 527.36ZM442.316 527.36C445.268 527.36 447.164 525.584 447.164 522.728V520.904H443.42V522.632C443.42 523.736 443.108 524.168 442.364 524.168C441.764 524.168 441.355 523.736 441.355 522.8V518.096H447.164V515.096H441.355V511.664L437.636 513.32V515.096H435.476V518.096H437.636V522.872C437.636 525.776 439.22 527.36 442.316 527.36ZM460.923 527.36C463.203 527.36 465.075 526.424 466.179 524.816C466.875 523.784 467.259 522.512 467.259 521.048C467.259 519.584 466.875 518.312 466.179 517.28C465.075 515.672 463.203 514.736 460.923 514.736C458.643 514.736 456.795 515.672 455.691 517.28C454.995 518.312 454.611 519.584 454.611 521.048C454.611 522.512 454.995 523.784 455.691 524.816C456.795 526.424 458.643 527.36 460.923 527.36ZM458.355 521.048C458.355 520.232 458.571 519.536 458.907 519.032C459.363 518.36 460.083 517.976 460.923 517.976C461.787 517.976 462.483 518.36 462.939 519.032C463.299 519.536 463.491 520.232 463.491 521.048C463.491 521.864 463.299 522.56 462.939 523.064C462.483 523.736 461.787 524.12 460.923 524.12C460.083 524.12 459.363 523.736 458.907 523.064C458.571 522.56 458.355 521.864 458.355 521.048ZM469.585 531.32H473.305V527L472.417 523.856H472.897C473.569 526.088 474.937 527.36 477.001 527.36C478.657 527.36 480.025 526.64 480.913 525.344C481.633 524.264 482.041 522.8 482.041 521.048C482.041 519.296 481.633 517.832 480.913 516.752C480.025 515.48 478.657 514.736 477.001 514.736C474.937 514.736 473.569 516.008 472.897 518.24H472.417L473.305 515.096H469.585V531.32ZM473.257 521.048C473.257 520.184 473.473 519.464 473.833 518.936C474.289 518.312 474.961 517.976 475.777 517.976C476.593 517.976 477.265 518.312 477.697 518.936C478.081 519.464 478.297 520.184 478.297 521.048C478.297 521.936 478.081 522.656 477.697 523.16C477.265 523.784 476.593 524.12 475.777 524.12C474.961 524.12 474.289 523.784 473.833 523.16C473.473 522.656 473.257 521.936 473.257 521.048ZM484.538 531.32H488.258V527L487.37 523.856H487.85C488.522 526.088 489.89 527.36 491.954 527.36C493.61 527.36 494.978 526.64 495.866 525.344C496.586 524.264 496.994 522.8 496.994 521.048C496.994 519.296 496.586 517.832 495.866 516.752C494.978 515.48 493.61 514.736 491.954 514.736C489.89 514.736 488.522 516.008 487.85 518.24H487.37L488.258 515.096H484.538V531.32ZM488.21 521.048C488.21 520.184 488.426 519.464 488.786 518.936C489.242 518.312 489.914 517.976 490.73 517.976C491.546 517.976 492.218 518.312 492.65 518.936C493.034 519.464 493.25 520.184 493.25 521.048C493.25 521.936 493.034 522.656 492.65 523.16C492.218 523.784 491.546 524.12 490.73 524.12C489.914 524.12 489.242 523.784 488.786 523.16C488.426 522.656 488.21 521.936 488.21 521.048ZM504.915 527.36C507.195 527.36 509.067 526.424 510.171 524.816C510.867 523.784 511.251 522.512 511.251 521.048C511.251 519.584 510.867 518.312 510.171 517.28C509.067 515.672 507.195 514.736 504.915 514.736C502.635 514.736 500.787 515.672 499.683 517.28C498.987 518.312 498.603 519.584 498.603 521.048C498.603 522.512 498.987 523.784 499.683 524.816C500.787 526.424 502.635 527.36 504.915 527.36ZM502.347 521.048C502.347 520.232 502.563 519.536 502.899 519.032C503.355 518.36 504.075 517.976 504.915 517.976C505.779 517.976 506.475 518.36 506.931 519.032C507.291 519.536 507.483 520.232 507.483 521.048C507.483 521.864 507.291 522.56 506.931 523.064C506.475 523.736 505.779 524.12 504.915 524.12C504.075 524.12 503.355 523.736 502.899 523.064C502.563 522.56 502.347 521.864 502.347 521.048ZM513.577 527H517.297V520.568C517.297 518.984 517.849 518.168 518.785 518.168C519.625 518.168 520.033 518.672 520.033 519.944V521.528H523.825V518.744C523.825 516.176 522.745 514.736 520.633 514.736C518.713 514.736 517.489 515.84 516.697 518.528H516.193L517.249 515.096H513.577V527ZM531.448 527.36C534.4 527.36 536.296 525.584 536.296 522.728V520.904H532.552V522.632C532.552 523.736 532.24 524.168 531.496 524.168C530.896 524.168 530.488 523.736 530.488 522.8V518.096H536.296V515.096H530.488V511.664L526.768 513.32V515.096H524.608V518.096H526.768V522.872C526.768 525.776 528.352 527.36 531.448 527.36ZM542.517 527.36C544.437 527.36 545.709 526.184 546.357 523.856H546.861L545.949 527H549.669V515.096H545.949V521.312C545.949 522.968 545.157 523.952 543.909 523.952C542.781 523.952 542.229 523.256 542.229 521.912V515.096H538.509V522.704C538.509 525.752 539.853 527.36 542.517 527.36ZM552.881 527H556.601V520.784C556.601 519.128 557.441 518.144 558.785 518.144C559.985 518.144 560.561 518.864 560.561 520.184V527H564.281V519.392C564.281 516.344 562.865 514.736 560.153 514.736C558.185 514.736 556.865 515.936 556.193 518.24H555.713L556.601 515.096H552.881V527ZM567.249 527H570.969V515.096H567.249V527ZM567.153 513.632H571.089V510.512H567.153V513.632ZM579.706 527.36C582.658 527.36 584.554 525.584 584.554 522.728V520.904H580.81V522.632C580.81 523.736 580.498 524.168 579.754 524.168C579.154 524.168 578.746 523.736 578.746 522.8V518.096H584.554V515.096H578.746V511.664L575.026 513.32V515.096H572.866V518.096H575.026V522.872C575.026 525.776 576.61 527.36 579.706 527.36ZM590.294 531.656C592.79 531.656 594.374 530.432 595.19 527.624L598.766 515.096H594.758L592.622 523.784H592.19L589.742 515.096H585.734L589.142 525.896H592.094L591.686 527.576C591.47 528.464 590.942 528.824 590.246 528.824C589.574 528.824 589.19 528.488 589.19 527.96V527.792H585.566V528.032C585.566 530.384 587.414 531.656 590.294 531.656Z" fill="#FFC800"/>
<path d="M319.483 74H329.251V72.032H321.475V56.936H319.483V74ZM335.364 74.192H337.356L339.564 73.64L341.124 72.608L340.068 71.024L338.82 71.816L337.188 72.224H335.748L334.284 71.504L333.132 69.944L332.82 68.888V68.648H342.084V66.128L341.532 64.52L339.924 62.312L337.5 61.16H335.364L332.964 62.312L331.332 64.52L330.828 66.272V69.128L331.332 70.832L332.964 73.04L335.364 74.192ZM332.82 66.68V66.464L333.108 65.408L334.236 63.872L335.676 63.128H337.164L338.628 63.896L339.78 65.456L340.092 66.368V66.68H332.82ZM348.935 74.192H350.039L352.271 73.688L351.767 71.792L350.063 72.224H349.391L348.527 71.888L347.927 71.024V63.632H351.239V61.664H347.927V57.248H345.935V61.664H343.655V63.632H345.935V71.672L347.255 73.568L348.935 74.192ZM356.904 57.128C356.76 57.688 356.576 58.296 356.352 58.952C356.128 59.608 355.88 60.264 355.608 60.92C355.352 61.56 355.096 62.168 354.84 62.744H353.28C353.392 62.296 353.504 61.816 353.616 61.304C353.744 60.792 353.856 60.28 353.952 59.768C354.064 59.24 354.16 58.728 354.24 58.232C354.336 57.736 354.416 57.28 354.48 56.864H356.736L356.904 57.128ZM362.108 74.192H364.243L365.876 73.712L367.028 72.896L367.94 71.504V69.464L367.004 67.928L365.636 67.016L361.964 66.296L361.292 65.96L360.812 65.312V64.256L361.148 63.68L361.556 63.344L362.468 63.08H364.076L365.42 63.488L366.572 64.28L367.652 62.672L366.212 61.688L364.243 61.16H362.204L360.715 61.568L359.636 62.408L358.844 63.776V65.912L359.852 67.304L361.388 68.12L364.844 68.816L365.564 69.32L365.972 70.016V70.928L365.588 71.528L364.988 71.96L363.98 72.248H362.372L360.884 71.864L360.236 71.36L359.78 70.808L358.388 72.152L358.94 72.776L360.068 73.664L362.108 74.192ZM378.379 74H380.371V55.904H378.379V74ZM387.947 74.192H390.491L392.915 73.04L394.115 71.264L394.595 69.104V66.272L394.115 64.112L392.915 62.336L390.491 61.16H387.947L385.523 62.336L384.323 64.112L383.843 66.272V69.104L384.323 71.264L385.523 73.04L387.947 74.192ZM388.283 72.248L386.867 71.552L386.147 70.472L385.835 68.864V66.464L386.147 64.904L386.843 63.848L388.283 63.128H390.155L391.547 63.848L392.291 64.904L392.603 66.464V68.864L392.291 70.472L391.571 71.552L390.155 72.248H388.283ZM401.33 74.192H403.874L406.298 73.04L407.498 71.264L407.978 69.104V66.272L407.498 64.112L406.298 62.336L403.874 61.16H401.33L398.906 62.336L397.706 64.112L397.226 66.272V69.104L397.706 71.264L398.906 73.04L401.33 74.192ZM401.666 72.248L400.25 71.552L399.53 70.472L399.218 68.864V66.464L399.53 64.904L400.226 63.848L401.666 63.128H403.538L404.93 63.848L405.674 64.904L405.986 66.464V68.864L405.674 70.472L404.954 71.552L403.538 72.248H401.666ZM411.449 74H413.441V69.32L415.025 67.784L419.393 74H421.817L416.393 66.416L421.577 61.352H418.793L413.441 66.704V55.904H411.449V74ZM434.823 74.192H436.311L438.519 73.088L439.071 72.464L440.223 74.192L441.831 73.04L440.895 71.696V64.424L440.247 62.792L438.471 61.592L436.743 61.16H434.511L432.975 61.616L431.823 62.36L431.151 62.984L432.519 64.4L432.975 63.944L433.719 63.464L434.751 63.128H436.455L437.631 63.416L438.639 64.064L438.903 64.784V66.608L438.327 66.2L436.719 65.672H435.183L432.807 66.272L431.031 68.048L430.695 69.68V71.072L432.039 73.016L433.191 73.688L434.823 74.192ZM435.111 72.224L433.983 71.888L433.431 71.552L432.687 70.496V69.848L432.879 69.008L433.815 68.072L435.399 67.64H436.479L437.655 67.976L438.399 68.36L438.903 68.888V69.776L438.663 70.52L437.679 71.552L435.879 72.224H435.111ZM448.474 74.192H449.578L451.81 73.688L451.306 71.792L449.602 72.224H448.93L448.066 71.888L447.466 71.024V63.632H450.778V61.664H447.466V57.248H445.474V61.664H443.194V63.632H445.474V71.672L446.794 73.568L448.474 74.192ZM464.823 74.192H466.311L468.519 73.088L469.071 72.464L470.223 74.192L471.831 73.04L470.895 71.696V64.424L470.247 62.792L468.471 61.592L466.743 61.16H464.511L462.975 61.616L461.823 62.36L461.151 62.984L462.519 64.4L462.975 63.944L463.719 63.464L464.751 63.128H466.455L467.631 63.416L468.639 64.064L468.903 64.784V66.608L468.327 66.2L466.719 65.672H465.183L462.807 66.272L461.031 68.048L460.695 69.68V71.072L462.039 73.016L463.191 73.688L464.823 74.192ZM465.111 72.224L463.983 71.888L463.431 71.552L462.687 70.496V69.848L462.879 69.008L463.815 68.072L465.399 67.64H466.479L467.655 67.976L468.399 68.36L468.903 68.888V69.776L468.663 70.52L467.679 71.552L465.879 72.224H465.111ZM475.105 74H477.097V55.904H475.105V74ZM481.41 74H483.402V55.904H481.41V74ZM498.278 74.192H499.382L501.614 73.688L501.11 71.792L499.406 72.224H498.734L497.87 71.888L497.27 71.024V63.632H500.582V61.664H497.27V57.248H495.278V61.664H492.998V63.632H495.278V71.672L496.598 73.568L498.278 74.192ZM504.496 74H506.488V65.36L507.256 64.232L508.936 63.128H510.472L511.768 63.536L512.368 64.472V74H514.36V63.704L512.896 61.736L510.88 61.16H508.672L507.064 62.072L506.488 62.552V55.904H504.496V74ZM522.137 74.192H524.129L526.337 73.64L527.897 72.608L526.841 71.024L525.593 71.816L523.961 72.224H522.521L521.057 71.504L519.905 69.944L519.593 68.888V68.648H528.857V66.128L528.305 64.52L526.697 62.312L524.273 61.16H522.137L519.737 62.312L518.105 64.52L517.601 66.272V69.128L518.105 70.832L519.737 73.04L522.137 74.192ZM519.593 66.68V66.464L519.881 65.408L521.009 63.872L522.449 63.128H523.937L525.401 63.896L526.553 65.456L526.865 66.368V66.68H519.593ZM539.786 74H541.778V63.632H544.994V61.664H541.778V58.88L542.378 57.992L543.29 57.68H543.938L545.714 58.136L546.218 56.192L544.082 55.712H543.122L541.106 56.336L539.786 58.304V61.664H537.506V63.632H539.786V74ZM548.314 58.856H551.194V55.904H548.314V58.856ZM548.746 74H550.738V61.352H548.746V74ZM555.051 74H557.043V65.264L557.763 64.232L559.491 63.128H561.027L562.443 63.536L563.043 64.472V74H565.035V63.704L563.571 61.736L561.435 61.16H559.227L557.643 62.072L557.043 62.6V61.352H555.051V74ZM572.905 74.192H575.065L576.553 73.28L577.081 72.728V74H579.049V55.904H577.057V62.12L576.385 61.688L574.945 61.16H572.809L570.409 62.312L568.777 64.52L568.273 66.272V69.128L568.777 70.832L570.409 73.04L572.905 74.192ZM573.217 72.224L571.705 71.504L570.553 69.944L570.265 68.864V66.536L570.553 65.408L571.705 63.872L573.121 63.104H574.657L575.641 63.416L576.553 64.016L577.057 64.64V70.088L576.361 71.12L574.801 72.224H573.217ZM582.931 58.856H585.811V55.904H582.931V58.856ZM583.363 74H585.355V61.352H583.363V74ZM589.668 74H591.66V65.264L592.38 64.232L594.108 63.128H595.644L597.06 63.536L597.66 64.472V74H599.652V63.704L598.188 61.736L596.052 61.16H593.844L592.26 62.072L591.66 62.6V61.352H589.668V74ZM607.354 78.032H609.466L611.242 77.432L613.066 76.208L613.666 74.456V61.352H611.674V62.12L611.002 61.688L609.562 61.16H607.426L605.026 62.312L603.394 64.52L602.89 66.272V68.552L603.394 70.256L605.074 72.464L607.522 73.424H609.682L611.17 72.512L611.674 72.032V74.24L611.386 74.96L610.354 75.656L609.25 76.064H607.546L606.394 75.752L605.794 75.344L605.194 74.744L603.802 76.16L604.474 76.808L605.65 77.576L607.354 78.032ZM607.834 71.456L606.274 70.832L605.17 69.32L604.882 68.288V66.536L605.17 65.408L606.322 63.872L607.738 63.104H609.274L610.258 63.416L611.17 64.016L611.674 64.64V69.224L610.978 70.352L609.418 71.456H607.834ZM620.74 74.192H622.876L624.508 73.712L625.66 72.896L626.572 71.504V69.464L625.636 67.928L624.268 67.016L620.596 66.296L619.924 65.96L619.444 65.312V64.256L619.78 63.68L620.188 63.344L621.1 63.08H622.708L624.052 63.488L625.204 64.28L626.284 62.672L624.844 61.688L622.876 61.16H620.836L619.348 61.568L618.268 62.408L617.476 63.776V65.912L618.484 67.304L620.02 68.12L623.476 68.816L624.196 69.32L624.604 70.016V70.928L624.22 71.528L623.62 71.96L622.612 72.248H621.004L619.516 71.864L618.868 71.36L618.412 70.808L617.02 72.152L617.572 72.776L618.7 73.664L620.74 74.192ZM641.116 74.192H643.252L645.652 73.04L647.284 70.832L647.788 69.08V66.224L647.284 64.52L645.652 62.312L643.156 61.16H640.996L639.532 62.072L639.004 62.624V55.904H637.012V74H639.004V73.232L639.676 73.664L641.116 74.192ZM641.404 72.248L640.42 71.936L639.508 71.336L639.004 70.712V65.264L639.7 64.232L641.26 63.128H642.844L644.356 63.848L645.508 65.408L645.796 66.488V68.816L645.508 69.944L644.356 71.48L642.94 72.248H641.404ZM654.958 74.192H656.95L659.158 73.64L660.718 72.608L659.662 71.024L658.414 71.816L656.782 72.224H655.342L653.878 71.504L652.726 69.944L652.414 68.888V68.648H661.678V66.128L661.126 64.52L659.518 62.312L657.094 61.16H654.958L652.558 62.312L650.926 64.52L650.422 66.272V69.128L650.926 70.832L652.558 73.04L654.958 74.192ZM652.414 66.68V66.464L652.702 65.408L653.83 63.872L655.27 63.128H656.758L658.222 63.896L659.374 65.456L659.686 66.368V66.68H652.414ZM665.043 74H667.035V55.904H665.043V74ZM674.612 74.192H677.156L679.58 73.04L680.78 71.264L681.26 69.104V66.272L680.78 64.112L679.58 62.336L677.156 61.16H674.612L672.188 62.336L670.988 64.112L670.508 66.272V69.104L670.988 71.264L672.188 73.04L674.612 74.192ZM674.948 72.248L673.532 71.552L672.812 70.472L672.5 68.864V66.464L672.812 64.904L673.508 63.848L674.948 63.128H676.82L678.212 63.848L678.956 64.904L679.268 66.464V68.864L678.956 70.472L678.236 71.552L676.82 72.248H674.948ZM686.374 74H688.246L691.318 65.168L694.39 74H696.262L699.934 61.352H697.846L695.254 70.688L692.134 61.832H690.502L687.382 70.688L684.79 61.352H682.702L686.374 74ZM701.014 74H703.87V71.048H701.014V74Z" fill="#FBF9F0"/>
<path d="M885 419.094V417.6H872.202V418.41L874.434 422.82L875.766 422.154L874.182 419.094H885ZM885.144 412.658V410.75L884.298 408.842L883.056 407.672L881.652 407.15H880.338L878.952 407.672L877.692 408.932L877.044 410.66L873.372 407.996H872.202V414.494H873.678V409.976L877.116 412.478H878.304V411.326L878.934 409.76L879.762 408.968L880.554 408.644H881.454L882.3 408.986L883.056 409.706L883.668 411.056V412.388L883.164 413.612L882.48 414.296L883.542 415.358L884.388 414.476L885.144 412.658Z" fill="#FFC800"/>
<path d="M781 409.094V407.6H768.202V408.41L770.434 412.82L771.766 412.154L770.182 409.094H781ZM781.144 401.938V400.156L780.298 398.284L778.696 397.06L777.166 396.628H771.676L770.326 397.006L768.976 397.942L768.058 399.796V401.902L768.976 403.738L770.254 404.638L771.568 404.998H773.008L774.25 404.656L775.546 403.774L776.482 401.902V400.192L775.852 398.698L775.348 398.122H776.914L778.048 398.428L779.128 399.274L779.668 400.48V401.614L779.056 402.874L778.48 403.468L779.542 404.53L780.298 403.738L781.144 401.938ZM775.006 401.578L774.394 402.748L773.638 403.27L772.846 403.504H771.766L770.812 403.216L770.11 402.73L769.534 401.578V400.138L770.11 398.986L770.974 398.374L771.892 398.122H773.314L773.818 398.374L774.502 399.202L775.006 400.408V401.578Z" fill="#FFC800"/>
<path d="M677.144 375.76V373.852L676.298 371.944L675.056 370.774L673.652 370.252H672.338L670.952 370.774L669.692 372.034L669.044 373.762L665.372 371.098H664.202V377.596H665.678V373.078L669.116 375.58H670.304V374.428L670.934 372.862L671.762 372.07L672.554 371.746H673.454L674.3 372.088L675.056 372.808L675.668 374.158V375.49L675.164 376.714L674.48 377.398L675.542 378.46L676.388 377.578L677.144 375.76ZM677 368.596V360.802H675.524V366.562L670.196 361.738L668.576 360.946H666.848L664.976 362.134L664.058 364.006V365.95L664.904 367.84L665.732 368.632L666.794 367.57L666.146 366.94L665.534 365.662V364.366L666.11 363.16L667.28 362.44H668.27L669.386 362.998L675.668 368.596H677Z" fill="#FFC800"/>
<path d="M573 392.334V384.54H571.524V390.3L566.196 385.476L564.576 384.684H562.848L560.976 385.872L560.058 387.744V389.688L560.904 391.578L561.732 392.37L562.794 391.308L562.146 390.678L561.534 389.4V388.104L562.11 386.898L563.28 386.178H564.27L565.386 386.736L571.668 392.334H573ZM573 382.652V380.978L561.282 375.776H560.202V383.372H561.678V377.522L573 382.652Z" fill="#FFC800"/>
<path d="M469.144 253.59V251.916L468.64 250.242L467.398 248.964L466.084 248.586H464.41L463.078 249.018L462.016 250.152L461.332 249.36L460.09 248.874H458.794L457.462 249.324L456.544 250.422L456.058 252.06V253.446L456.544 255.084L457.462 256.182L458.794 256.632H460.09L461.332 256.146L462.016 255.354L463.078 256.488L464.41 256.92H466.084L467.398 256.542L468.64 255.264L469.144 253.59ZM461.35 253.572L461.08 254.346L460.522 254.904L459.82 255.138H459.028L458.308 254.886L457.822 254.328L457.534 253.284V252.222L457.822 251.178L458.308 250.62L459.028 250.368H459.82L460.522 250.602L461.08 251.16L461.35 251.934V253.572ZM467.668 253.392L467.326 254.472L466.606 255.228L465.832 255.426H464.626L463.852 255.192L463.096 254.454L462.79 253.626V251.88L463.096 251.052L463.852 250.314L464.626 250.08H465.832L466.606 250.278L467.326 251.034L467.668 252.114V253.392ZM469 243.951V242.457H456.202V243.267L458.434 247.677L459.766 247.011L458.182 243.951H469Z" fill="#FFC800"/>
<path d="M365.144 320.4V318.492L364.298 316.584L363.056 315.414L361.652 314.892H360.158L358.772 315.414L357.512 316.674L356.864 318.33V320.508L357.116 321.084L353.678 320.544V315.792H352.202V321.84L357.836 322.614L358.718 321.39L358.34 320.274V318.636L358.754 317.538L359.6 316.71L360.392 316.386H361.436L362.282 316.728L363.056 317.448L363.668 318.798V320.13L363.164 321.354L362.48 322.038L363.542 323.1L364.388 322.218L365.144 320.4ZM365.144 310.916V309.008L364.298 307.1L363.056 305.93L361.652 305.408H360.338L358.952 305.93L357.692 307.19L357.044 308.918L353.372 306.254H352.202V312.752H353.678V308.234L357.116 310.736H358.304V309.584L358.934 308.018L359.762 307.226L360.554 306.902H361.454L362.3 307.244L363.056 307.964L363.668 309.314V310.646L363.164 311.87L362.48 312.554L363.542 313.616L364.388 312.734L365.144 310.916Z" fill="#FFC800"/>
<path d="M261.144 430.04V428.258L260.298 426.386L258.696 425.162L257.166 424.73H251.676L250.326 425.108L248.976 426.044L248.058 427.898V430.004L248.976 431.84L250.254 432.74L251.568 433.1H253.008L254.25 432.758L255.546 431.876L256.482 430.004V428.294L255.852 426.8L255.348 426.224H256.914L258.048 426.53L259.128 427.376L259.668 428.582V429.716L259.056 430.976L258.48 431.57L259.542 432.632L260.298 431.84L261.144 430.04ZM255.006 429.68L254.394 430.85L253.638 431.372L252.846 431.606H251.766L250.812 431.318L250.11 430.832L249.534 429.68V428.24L250.11 427.088L250.974 426.476L251.892 426.224H253.314L253.818 426.476L254.502 427.304L255.006 428.51V429.68Z" fill="#FFC800"/>
<path d="M157.144 307.662V305.556L156.226 303.72L154.948 302.82L153.634 302.46H152.14L150.898 302.802L149.602 303.684L148.666 305.556V307.248L149.296 308.76L149.8 309.336H148.378L147.226 309.03L146.11 308.184L145.534 306.978V305.844L146.146 304.584L146.722 303.99L145.66 302.928L144.904 303.72L144.058 305.52V307.302L144.94 309.174L146.578 310.398L148.126 310.83H153.526L154.876 310.452L156.226 309.516L157.144 307.662ZM155.668 307.32L155.092 308.472L154.228 309.084L153.31 309.336H151.834L151.33 309.048L150.646 308.202L150.142 306.996V305.88L150.754 304.71L151.51 304.188L152.302 303.954H153.436L154.39 304.242L155.092 304.728L155.668 305.88V307.32ZM157.144 296.627V294.917L156.37 293.279L155.092 292.019L153.544 291.371L151.906 291.065H149.296L147.658 291.371L146.11 292.019L144.832 293.279L144.058 294.917V296.627L144.832 298.265L146.11 299.525L147.658 300.173L149.296 300.479H151.906L153.544 300.173L155.092 299.525L156.37 298.265L157.144 296.627ZM155.668 296.339L155.164 297.383L154.21 298.283L153.166 298.715L151.78 298.985H149.404L148.09 298.733L146.974 298.301L146.056 297.401L145.534 296.321V295.223L146.056 294.143L146.974 293.243L148.09 292.811L149.404 292.559H151.78L153.166 292.829L154.21 293.261L155.164 294.161L155.668 295.205V296.339Z" fill="#FFC800"/>
</g>
<defs>
<clipPath id="clip0_79_470">
<rect width="1024" height="576" fill="white"/>
</clipPath>
</defs>
</svg>
