<svg width="1024" height="576" viewBox="0 0 1024 576" fill="none" xmlns="http://www.w3.org/2000/svg">
<g clip-path="url(#clip0_79_510)">
<path d="M199.895 113.808C197.783 113.808 196.247 112.656 195.599 110.832C195.335 110.136 195.239 109.416 195.239 108.6C195.239 107.784 195.335 107.04 195.599 106.368C196.247 104.544 197.783 103.368 199.895 103.368C202.031 103.368 203.543 104.544 204.215 106.368C204.455 107.04 204.575 107.784 204.575 108.6C204.575 109.416 204.455 110.136 204.215 110.832C203.543 112.704 202.007 113.808 199.895 113.808ZM191.135 108.6C191.135 109.848 191.327 111 191.687 112.032C192.767 115.08 195.311 117.024 198.743 117.36V117.672C198.743 120.096 199.991 121.08 202.367 121.08H205.919V117.984H201.551V117.312C204.743 116.832 207.071 114.888 208.103 112.032C208.487 111 208.679 109.848 208.679 108.6C208.679 107.352 208.487 106.2 208.103 105.168C206.927 101.832 203.927 99.768 199.895 99.768C195.887 99.768 192.887 101.832 191.687 105.168C191.327 106.2 191.135 107.352 191.135 108.6ZM210.153 117H214.545V112.944H210.153V117ZM233.492 117H237.404V100.2H233.492V106.776H227.18V100.2H223.268V117H227.18V110.376H233.492V117ZM246.243 117.36C248.523 117.36 250.395 116.424 251.499 114.816C252.195 113.784 252.579 112.512 252.579 111.048C252.579 109.584 252.195 108.312 251.499 107.28C250.395 105.672 248.523 104.736 246.243 104.736C243.963 104.736 242.115 105.672 241.011 107.28C240.315 108.312 239.931 109.584 239.931 111.048C239.931 112.512 240.315 113.784 241.011 114.816C242.115 116.424 243.963 117.36 246.243 117.36ZM243.675 111.048C243.675 110.232 243.891 109.536 244.227 109.032C244.683 108.36 245.403 107.976 246.243 107.976C247.107 107.976 247.803 108.36 248.259 109.032C248.619 109.536 248.811 110.232 248.811 111.048C248.811 111.864 248.619 112.56 248.259 113.064C247.803 113.736 247.107 114.12 246.243 114.12C245.403 114.12 244.683 113.736 244.227 113.064C243.891 112.56 243.675 111.864 243.675 111.048ZM256.157 117H261.845L263.093 108.528L263.141 107.208H263.621L263.645 108.528L264.917 117H270.581L273.005 105.096H269.333L267.797 113.616L267.773 114.912H267.293L267.269 113.616L265.997 105.096H260.765L259.469 113.616L259.445 114.912H258.965L258.941 113.616L257.429 105.096H253.757L256.157 117ZM280.991 117H284.711V110.52C284.711 109.008 285.359 108.144 286.535 108.144C287.423 108.144 287.999 108.792 287.999 110.04V117H291.719V110.52C291.719 109.032 292.415 108.144 293.567 108.144C294.527 108.144 295.007 108.792 295.007 110.04V117H298.727V109.248C298.727 106.32 297.455 104.736 295.103 104.736C293.303 104.736 291.791 105.744 291.215 108.24H290.735C290.735 105.936 289.463 104.736 287.831 104.736C286.031 104.736 284.879 105.96 284.303 108.24H283.823L284.711 105.096H280.991V117ZM304.83 117.36C306.99 117.36 308.238 116.256 308.886 113.856H309.366L308.502 117H312.15V109.344C312.15 106.32 310.23 104.736 306.678 104.736C301.014 104.736 300.966 108.912 300.966 109.32V109.392H304.734V109.32C304.734 109.152 304.758 107.664 306.558 107.664C307.758 107.664 308.406 108.264 308.406 109.344V109.992L305.406 110.256C303.942 110.376 302.838 110.832 302.118 111.552C301.518 112.152 301.206 112.968 301.206 113.976C301.206 114.96 301.542 115.752 302.142 116.352C302.766 117 303.726 117.36 304.83 117.36ZM305.046 113.664C305.046 113.328 305.166 113.04 305.358 112.848C305.646 112.56 306.054 112.392 306.63 112.32L308.406 112.104V112.176C308.406 112.968 307.902 114.768 306.222 114.768C305.838 114.768 305.526 114.648 305.334 114.456C305.142 114.264 305.046 114 305.046 113.664ZM315.116 117H318.836V110.784C318.836 109.128 319.676 108.144 321.02 108.144C322.22 108.144 322.796 108.864 322.796 110.184V117H326.516V109.392C326.516 106.344 325.1 104.736 322.388 104.736C320.42 104.736 319.1 105.936 318.428 108.24H317.948L318.836 105.096H315.116V117ZM332.63 121.656C335.126 121.656 336.71 120.432 337.526 117.624L341.102 105.096H337.094L334.958 113.784H334.526L332.078 105.096H328.07L331.478 115.896H334.43L334.022 117.576C333.806 118.464 333.278 118.824 332.582 118.824C331.91 118.824 331.526 118.488 331.526 117.96V117.792H327.902V118.032C327.902 120.384 329.75 121.656 332.63 121.656ZM348.631 117H352.351V110.784C352.351 109.128 353.191 108.144 354.535 108.144C355.735 108.144 356.311 108.864 356.311 110.184V117H360.031V109.392C360.031 106.344 358.639 104.736 355.927 104.736C353.959 104.736 352.615 105.936 351.943 108.24H351.463L352.351 105.096V100.2H348.631V117ZM368.423 117.36C370.703 117.36 372.575 116.424 373.679 114.816C374.375 113.784 374.759 112.512 374.759 111.048C374.759 109.584 374.375 108.312 373.679 107.28C372.575 105.672 370.703 104.736 368.423 104.736C366.143 104.736 364.295 105.672 363.191 107.28C362.495 108.312 362.111 109.584 362.111 111.048C362.111 112.512 362.495 113.784 363.191 114.816C364.295 116.424 366.143 117.36 368.423 117.36ZM365.855 111.048C365.855 110.232 366.071 109.536 366.407 109.032C366.863 108.36 367.583 107.976 368.423 107.976C369.287 107.976 369.983 108.36 370.439 109.032C370.799 109.536 370.991 110.232 370.991 111.048C370.991 111.864 370.799 112.56 370.439 113.064C369.983 113.736 369.287 114.12 368.423 114.12C367.583 114.12 366.863 113.736 366.407 113.064C366.071 112.56 365.855 111.864 365.855 111.048ZM380.853 117.36C382.773 117.36 384.045 116.184 384.693 113.856H385.197L384.285 117H388.005V105.096H384.285V111.312C384.285 112.968 383.493 113.952 382.245 113.952C381.117 113.952 380.565 113.256 380.565 111.912V105.096H376.845V112.704C376.845 115.752 378.189 117.36 380.853 117.36ZM391.217 117H394.937V110.568C394.937 108.984 395.489 108.168 396.425 108.168C397.265 108.168 397.673 108.672 397.673 109.944V111.528H401.465V108.744C401.465 106.176 400.385 104.736 398.273 104.736C396.353 104.736 395.129 105.84 394.337 108.528H393.833L394.889 105.096H391.217V117ZM407.841 117.36C409.689 117.36 411.057 116.856 411.921 115.992C412.545 115.368 412.881 114.576 412.881 113.544C412.881 111.504 411.801 110.4 409.281 109.824L407.721 109.488C406.785 109.272 406.425 108.96 406.425 108.432C406.425 108.168 406.521 107.952 406.665 107.784C406.929 107.544 407.313 107.424 407.889 107.424C408.945 107.424 409.569 107.928 409.569 108.864V108.984H413.025V108.864C413.025 106.296 411.201 104.76 408.009 104.76C406.161 104.76 404.769 105.24 403.881 106.104C403.257 106.728 402.945 107.544 402.945 108.504C402.945 110.472 404.025 111.648 406.113 112.104L408.129 112.56C409.017 112.728 409.353 113.088 409.353 113.64C409.353 113.928 409.257 114.144 409.089 114.312C408.849 114.552 408.441 114.672 407.889 114.672C406.833 114.672 406.233 114.192 406.233 113.28V113.16H402.777V113.28C402.777 115.872 404.625 117.36 407.841 117.36ZM426.829 117.36C429.109 117.36 430.981 116.424 432.085 114.816C432.781 113.784 433.165 112.512 433.165 111.048C433.165 109.584 432.781 108.312 432.085 107.28C430.981 105.672 429.109 104.736 426.829 104.736C424.549 104.736 422.701 105.672 421.597 107.28C420.901 108.312 420.517 109.584 420.517 111.048C420.517 112.512 420.901 113.784 421.597 114.816C422.701 116.424 424.549 117.36 426.829 117.36ZM424.261 111.048C424.261 110.232 424.477 109.536 424.813 109.032C425.269 108.36 425.989 107.976 426.829 107.976C427.693 107.976 428.389 108.36 428.845 109.032C429.205 109.536 429.397 110.232 429.397 111.048C429.397 111.864 429.205 112.56 428.845 113.064C428.389 113.736 427.693 114.12 426.829 114.12C425.989 114.12 425.269 113.736 424.813 113.064C424.477 112.56 424.261 111.864 424.261 111.048ZM436.237 104.256V105.096H434.077V108.096H436.237V117H439.957V108.096H444.157V105.096H439.957V103.992C439.957 103.128 440.413 102.6 441.181 102.6C441.853 102.6 442.285 103.008 442.285 103.848V103.92H445.885V103.848C445.885 101.184 444.157 99.816 441.133 99.816C438.061 99.816 436.237 101.496 436.237 104.256ZM451.71 117H455.43V110.52C455.43 109.008 456.078 108.144 457.254 108.144C458.142 108.144 458.718 108.792 458.718 110.04V117H462.438V110.52C462.438 109.032 463.134 108.144 464.286 108.144C465.246 108.144 465.726 108.792 465.726 110.04V117H469.446V109.248C469.446 106.32 468.174 104.736 465.822 104.736C464.022 104.736 462.51 105.744 461.934 108.24H461.454C461.454 105.936 460.182 104.736 458.55 104.736C456.75 104.736 455.598 105.96 455.022 108.24H454.542L455.43 105.096H451.71V117ZM477.708 117.36C480.708 117.36 482.916 115.728 483.324 113.304H479.604C479.316 114.12 478.572 114.528 477.636 114.528C476.7 114.528 476.076 114.216 475.668 113.64C475.38 113.232 475.212 112.68 475.116 112.008H483.3V111.048C483.3 107.064 481.236 104.736 477.54 104.736C475.5 104.736 473.748 105.552 472.692 107.064C471.972 108.096 471.54 109.464 471.54 111.096C471.54 112.704 471.924 114.024 472.644 115.056C473.676 116.568 475.404 117.36 477.708 117.36ZM475.164 109.728C475.236 109.224 475.404 108.792 475.644 108.456C476.076 107.808 476.748 107.496 477.54 107.496C478.932 107.496 479.7 108.264 479.748 109.728H475.164ZM489.991 117.36C492.055 117.36 493.399 116.088 494.095 113.856H494.575L493.663 117H497.407V100.2H493.663V105.096L494.575 108.24H494.095C493.399 106.008 492.055 104.736 489.991 104.736C488.335 104.736 486.967 105.48 486.079 106.752C485.335 107.832 484.927 109.296 484.927 111.048C484.927 112.8 485.335 114.264 486.079 115.344C486.967 116.64 488.335 117.36 489.991 117.36ZM488.695 111.048C488.695 110.184 488.911 109.464 489.271 108.936C489.703 108.312 490.375 107.976 491.215 107.976C492.031 107.976 492.703 108.312 493.135 108.936C493.495 109.464 493.711 110.184 493.711 111.048C493.711 111.936 493.495 112.656 493.135 113.16C492.703 113.784 492.031 114.12 491.215 114.12C490.375 114.12 489.703 113.784 489.271 113.16C488.911 112.656 488.695 111.936 488.695 111.048ZM500.6 117H504.32V105.096H500.6V117ZM500.504 103.632H504.44V100.512H500.504V103.632ZM510.658 117.36C512.818 117.36 514.066 116.256 514.714 113.856H515.194L514.33 117H517.978V109.344C517.978 106.32 516.058 104.736 512.506 104.736C506.842 104.736 506.794 108.912 506.794 109.32V109.392H510.562V109.32C510.562 109.152 510.586 107.664 512.386 107.664C513.586 107.664 514.234 108.264 514.234 109.344V109.992L511.234 110.256C509.77 110.376 508.666 110.832 507.946 111.552C507.346 112.152 507.034 112.968 507.034 113.976C507.034 114.96 507.37 115.752 507.97 116.352C508.594 117 509.554 117.36 510.658 117.36ZM510.874 113.664C510.874 113.328 510.994 113.04 511.186 112.848C511.474 112.56 511.882 112.392 512.458 112.32L514.234 112.104V112.176C514.234 112.968 513.73 114.768 512.05 114.768C511.666 114.768 511.354 114.648 511.162 114.456C510.97 114.264 510.874 114 510.874 113.664ZM531.171 117.36C533.235 117.36 534.579 116.088 535.275 113.856H535.755L534.843 117H538.587V100.2H534.843V105.096L535.755 108.24H535.275C534.579 106.008 533.235 104.736 531.171 104.736C529.515 104.736 528.147 105.48 527.259 106.752C526.515 107.832 526.107 109.296 526.107 111.048C526.107 112.8 526.515 114.264 527.259 115.344C528.147 116.64 529.515 117.36 531.171 117.36ZM529.875 111.048C529.875 110.184 530.091 109.464 530.451 108.936C530.883 108.312 531.555 107.976 532.395 107.976C533.211 107.976 533.883 108.312 534.315 108.936C534.675 109.464 534.891 110.184 534.891 111.048C534.891 111.936 534.675 112.656 534.315 113.16C533.883 113.784 533.211 114.12 532.395 114.12C531.555 114.12 530.883 113.784 530.451 113.16C530.091 112.656 529.875 111.936 529.875 111.048ZM547.204 117.36C549.484 117.36 551.356 116.424 552.46 114.816C553.156 113.784 553.54 112.512 553.54 111.048C553.54 109.584 553.156 108.312 552.46 107.28C551.356 105.672 549.484 104.736 547.204 104.736C544.924 104.736 543.076 105.672 541.972 107.28C541.276 108.312 540.892 109.584 540.892 111.048C540.892 112.512 541.276 113.784 541.972 114.816C543.076 116.424 544.924 117.36 547.204 117.36ZM544.636 111.048C544.636 110.232 544.852 109.536 545.188 109.032C545.644 108.36 546.364 107.976 547.204 107.976C548.068 107.976 548.764 108.36 549.22 109.032C549.58 109.536 549.772 110.232 549.772 111.048C549.772 111.864 549.58 112.56 549.22 113.064C548.764 113.736 548.068 114.12 547.204 114.12C546.364 114.12 545.644 113.736 545.188 113.064C544.852 112.56 544.636 111.864 544.636 111.048ZM564.919 121.656C567.415 121.656 568.999 120.432 569.815 117.624L573.391 105.096H569.383L567.247 113.784H566.815L564.367 105.096H560.359L563.767 115.896H566.719L566.311 117.576C566.095 118.464 565.567 118.824 564.871 118.824C564.199 118.824 563.815 118.488 563.815 117.96V117.792H560.191V118.032C560.191 120.384 562.039 121.656 564.919 121.656ZM580.415 117.36C582.695 117.36 584.567 116.424 585.671 114.816C586.367 113.784 586.751 112.512 586.751 111.048C586.751 109.584 586.367 108.312 585.671 107.28C584.567 105.672 582.695 104.736 580.415 104.736C578.135 104.736 576.287 105.672 575.183 107.28C574.487 108.312 574.103 109.584 574.103 111.048C574.103 112.512 574.487 113.784 575.183 114.816C576.287 116.424 578.135 117.36 580.415 117.36ZM577.847 111.048C577.847 110.232 578.063 109.536 578.399 109.032C578.855 108.36 579.575 107.976 580.415 107.976C581.279 107.976 581.975 108.36 582.431 109.032C582.791 109.536 582.983 110.232 582.983 111.048C582.983 111.864 582.791 112.56 582.431 113.064C581.975 113.736 581.279 114.12 580.415 114.12C579.575 114.12 578.855 113.736 578.399 113.064C578.063 112.56 577.847 111.864 577.847 111.048ZM592.845 117.36C594.765 117.36 596.037 116.184 596.685 113.856H597.189L596.277 117H599.997V105.096H596.277V111.312C596.277 112.968 595.485 113.952 594.237 113.952C593.109 113.952 592.557 113.256 592.557 111.912V105.096H588.837V112.704C588.837 115.752 590.181 117.36 592.845 117.36ZM614.228 117.36C617.516 117.36 619.796 115.608 619.94 112.416H616.244C616.076 113.52 615.38 114.12 614.252 114.12C613.508 114.12 612.908 113.808 612.5 113.232C612.14 112.704 611.948 111.984 611.948 111.096C611.948 110.16 612.164 109.464 612.524 108.912C612.956 108.312 613.58 107.976 614.372 107.976C615.524 107.976 616.268 108.576 616.46 109.704H620.132C620.012 106.536 617.684 104.736 614.372 104.736C612.164 104.736 610.388 105.552 609.332 107.064C608.612 108.096 608.204 109.464 608.204 111.096C608.204 112.704 608.588 114.024 609.308 115.056C610.34 116.568 612.068 117.36 614.228 117.36ZM627.805 117.36C630.085 117.36 631.957 116.424 633.061 114.816C633.757 113.784 634.141 112.512 634.141 111.048C634.141 109.584 633.757 108.312 633.061 107.28C631.957 105.672 630.085 104.736 627.805 104.736C625.525 104.736 623.677 105.672 622.573 107.28C621.877 108.312 621.493 109.584 621.493 111.048C621.493 112.512 621.877 113.784 622.573 114.816C623.677 116.424 625.525 117.36 627.805 117.36ZM625.237 111.048C625.237 110.232 625.453 109.536 625.789 109.032C626.245 108.36 626.965 107.976 627.805 107.976C628.669 107.976 629.365 108.36 629.821 109.032C630.181 109.536 630.373 110.232 630.373 111.048C630.373 111.864 630.181 112.56 629.821 113.064C629.365 113.736 628.669 114.12 627.805 114.12C626.965 114.12 626.245 113.736 625.789 113.064C625.453 112.56 625.237 111.864 625.237 111.048ZM636.467 117H640.187V110.784C640.187 109.128 641.027 108.144 642.371 108.144C643.571 108.144 644.147 108.864 644.147 110.184V117H647.867V109.392C647.867 106.344 646.451 104.736 643.739 104.736C641.771 104.736 640.451 105.936 639.779 108.24H639.299L640.187 105.096H636.467V117ZM655.107 117.36C656.955 117.36 658.323 116.856 659.187 115.992C659.811 115.368 660.147 114.576 660.147 113.544C660.147 111.504 659.067 110.4 656.547 109.824L654.987 109.488C654.051 109.272 653.691 108.96 653.691 108.432C653.691 108.168 653.787 107.952 653.931 107.784C654.195 107.544 654.579 107.424 655.155 107.424C656.211 107.424 656.835 107.928 656.835 108.864V108.984H660.291V108.864C660.291 106.296 658.467 104.76 655.275 104.76C653.427 104.76 652.035 105.24 651.147 106.104C650.523 106.728 650.211 107.544 650.211 108.504C650.211 110.472 651.291 111.648 653.379 112.104L655.395 112.56C656.283 112.728 656.619 113.088 656.619 113.64C656.619 113.928 656.523 114.144 656.355 114.312C656.115 114.552 655.707 114.672 655.155 114.672C654.099 114.672 653.499 114.192 653.499 113.28V113.16H650.043V113.28C650.043 115.872 651.891 117.36 655.107 117.36ZM666.556 117.36C668.476 117.36 669.748 116.184 670.396 113.856H670.9L669.988 117H673.708V105.096H669.988V111.312C669.988 112.968 669.196 113.952 667.948 113.952C666.82 113.952 666.268 113.256 666.268 111.912V105.096H662.548V112.704C662.548 115.752 663.892 117.36 666.556 117.36ZM676.921 117H680.641V110.52C680.641 109.008 681.289 108.144 682.465 108.144C683.353 108.144 683.929 108.792 683.929 110.04V117H687.648V110.52C687.648 109.032 688.345 108.144 689.497 108.144C690.457 108.144 690.937 108.792 690.937 110.04V117H694.657V109.248C694.657 106.32 693.385 104.736 691.033 104.736C689.233 104.736 687.721 105.744 687.145 108.24H686.665C686.665 105.936 685.393 104.736 683.761 104.736C681.961 104.736 680.809 105.96 680.233 108.24H679.753L680.641 105.096H676.921V117ZM702.919 117.36C705.919 117.36 708.127 115.728 708.535 113.304H704.815C704.527 114.12 703.783 114.528 702.847 114.528C701.911 114.528 701.287 114.216 700.879 113.64C700.591 113.232 700.423 112.68 700.327 112.008H708.511V111.048C708.511 107.064 706.447 104.736 702.751 104.736C700.711 104.736 698.959 105.552 697.903 107.064C697.183 108.096 696.751 109.464 696.751 111.096C696.751 112.704 697.135 114.024 697.855 115.056C698.887 116.568 700.615 117.36 702.919 117.36ZM700.375 109.728C700.447 109.224 700.615 108.792 700.855 108.456C701.287 107.808 701.959 107.496 702.751 107.496C704.143 107.496 704.911 108.264 704.959 109.728H700.375ZM716.741 117H720.461V105.096H716.741V117ZM716.645 103.632H720.581V100.512H716.645V103.632ZM723.678 117H727.398V110.784C727.398 109.128 728.238 108.144 729.582 108.144C730.782 108.144 731.358 108.864 731.358 110.184V117H735.078V109.392C735.078 106.344 733.662 104.736 730.95 104.736C728.982 104.736 727.662 105.936 726.99 108.24H726.51L727.398 105.096H723.678V117ZM747.048 117.36C749.208 117.36 750.456 116.256 751.104 113.856H751.584L750.72 117H754.368V109.344C754.368 106.32 752.448 104.736 748.896 104.736C743.232 104.736 743.184 108.912 743.184 109.32V109.392H746.952V109.32C746.952 109.152 746.976 107.664 748.776 107.664C749.976 107.664 750.624 108.264 750.624 109.344V109.992L747.624 110.256C746.16 110.376 745.056 110.832 744.336 111.552C743.736 112.152 743.424 112.968 743.424 113.976C743.424 114.96 743.76 115.752 744.36 116.352C744.984 117 745.944 117.36 747.048 117.36ZM747.264 113.664C747.264 113.328 747.384 113.04 747.576 112.848C747.864 112.56 748.272 112.392 748.848 112.32L750.624 112.104V112.176C750.624 112.968 750.12 114.768 748.44 114.768C748.056 114.768 747.744 114.648 747.552 114.456C747.36 114.264 747.264 114 747.264 113.664ZM764.493 117H770.181L771.429 108.528L771.477 107.208H771.957L771.981 108.528L773.253 117H778.917L781.341 105.096H777.669L776.133 113.616L776.109 114.912H775.629L775.605 113.616L774.333 105.096H769.101L767.805 113.616L767.781 114.912H767.301L767.277 113.616L765.765 105.096H762.093L764.493 117ZM788.701 117.36C791.701 117.36 793.909 115.728 794.317 113.304H790.597C790.309 114.12 789.565 114.528 788.629 114.528C787.693 114.528 787.069 114.216 786.661 113.64C786.373 113.232 786.205 112.68 786.109 112.008H794.293V111.048C794.293 107.064 792.229 104.736 788.533 104.736C786.493 104.736 784.741 105.552 783.685 107.064C782.965 108.096 782.533 109.464 782.533 111.096C782.533 112.704 782.917 114.024 783.637 115.056C784.669 116.568 786.397 117.36 788.701 117.36ZM786.157 109.728C786.229 109.224 786.397 108.792 786.637 108.456C787.069 107.808 787.741 107.496 788.533 107.496C789.925 107.496 790.693 108.264 790.741 109.728H786.157ZM801.919 117.36C804.919 117.36 807.127 115.728 807.535 113.304H803.815C803.527 114.12 802.783 114.528 801.847 114.528C800.911 114.528 800.287 114.216 799.879 113.64C799.591 113.232 799.423 112.68 799.327 112.008H807.511V111.048C807.511 107.064 805.447 104.736 801.751 104.736C799.711 104.736 797.959 105.552 796.903 107.064C796.183 108.096 795.751 109.464 795.751 111.096C795.751 112.704 796.135 114.024 796.855 115.056C797.887 116.568 799.615 117.36 801.919 117.36ZM799.375 109.728C799.447 109.224 799.615 108.792 799.855 108.456C800.287 107.808 800.959 107.496 801.751 107.496C803.143 107.496 803.911 108.264 803.959 109.728H799.375ZM809.858 117H813.578V114.264L814.922 112.752L817.778 117H821.906L817.322 110.472L822.026 105.096H817.994L813.146 110.568H812.666L813.578 108.864V100.2H809.858V117ZM825.435 110.448C825.435 109.92 825.507 109.448 825.651 109.032C825.795 108.616 826.027 108.224 826.347 107.856C826.683 107.488 827.123 107.112 827.667 106.728C828.147 106.376 828.531 106.064 828.819 105.792C829.123 105.52 829.339 105.248 829.467 104.976C829.611 104.704 829.683 104.4 829.683 104.064C829.683 103.552 829.491 103.168 829.107 102.912C828.739 102.64 828.219 102.504 827.547 102.504C826.875 102.504 826.211 102.608 825.555 102.816C824.899 103.024 824.227 103.304 823.539 103.656L822.267 101.088C823.051 100.656 823.899 100.304 824.811 100.032C825.723 99.76 826.723 99.624 827.811 99.624C829.475 99.624 830.763 100.024 831.675 100.824C832.603 101.624 833.067 102.64 833.067 103.872C833.067 104.528 832.963 105.096 832.755 105.576C832.547 106.056 832.235 106.504 831.819 106.92C831.403 107.32 830.883 107.752 830.259 108.216C829.795 108.552 829.435 108.84 829.179 109.08C828.923 109.32 828.747 109.552 828.651 109.776C828.571 110 828.531 110.28 828.531 110.616V111.312H825.435V110.448ZM825.051 115.32C825.051 114.584 825.251 114.072 825.651 113.784C826.051 113.48 826.539 113.328 827.115 113.328C827.675 113.328 828.155 113.48 828.555 113.784C828.955 114.072 829.155 114.584 829.155 115.32C829.155 116.024 828.955 116.536 828.555 116.856C828.155 117.16 827.675 117.312 827.115 117.312C826.539 117.312 826.051 117.16 825.651 116.856C825.251 116.536 825.051 116.024 825.051 115.32Z" fill="#FBF9F0"/>
<path d="M319.483 69H329.251V67.032H321.475V51.936H319.483V69ZM335.364 69.192H337.356L339.564 68.64L341.124 67.608L340.068 66.024L338.82 66.816L337.188 67.224H335.748L334.284 66.504L333.132 64.944L332.82 63.888V63.648H342.084V61.128L341.532 59.52L339.924 57.312L337.5 56.16H335.364L332.964 57.312L331.332 59.52L330.828 61.272V64.128L331.332 65.832L332.964 68.04L335.364 69.192ZM332.82 61.68V61.464L333.108 60.408L334.236 58.872L335.676 58.128H337.164L338.628 58.896L339.78 60.456L340.092 61.368V61.68H332.82ZM348.935 69.192H350.039L352.271 68.688L351.767 66.792L350.063 67.224H349.391L348.527 66.888L347.927 66.024V58.632H351.239V56.664H347.927V52.248H345.935V56.664H343.655V58.632H345.935V66.672L347.255 68.568L348.935 69.192ZM356.904 52.128C356.76 52.688 356.576 53.296 356.352 53.952C356.128 54.608 355.88 55.264 355.608 55.92C355.352 56.56 355.096 57.168 354.84 57.744H353.28C353.392 57.296 353.504 56.816 353.616 56.304C353.744 55.792 353.856 55.28 353.952 54.768C354.064 54.24 354.16 53.728 354.24 53.232C354.336 52.736 354.416 52.28 354.48 51.864H356.736L356.904 52.128ZM362.108 69.192H364.243L365.876 68.712L367.028 67.896L367.94 66.504V64.464L367.004 62.928L365.636 62.016L361.964 61.296L361.292 60.96L360.812 60.312V59.256L361.148 58.68L361.556 58.344L362.468 58.08H364.076L365.42 58.488L366.572 59.28L367.652 57.672L366.212 56.688L364.243 56.16H362.204L360.715 56.568L359.636 57.408L358.844 58.776V60.912L359.852 62.304L361.388 63.12L364.844 63.816L365.564 64.32L365.972 65.016V65.928L365.588 66.528L364.988 66.96L363.98 67.248H362.372L360.884 66.864L360.236 66.36L359.78 65.808L358.388 67.152L358.94 67.776L360.068 68.664L362.108 69.192ZM378.379 69H380.371V50.904H378.379V69ZM387.947 69.192H390.491L392.915 68.04L394.115 66.264L394.595 64.104V61.272L394.115 59.112L392.915 57.336L390.491 56.16H387.947L385.523 57.336L384.323 59.112L383.843 61.272V64.104L384.323 66.264L385.523 68.04L387.947 69.192ZM388.283 67.248L386.867 66.552L386.147 65.472L385.835 63.864V61.464L386.147 59.904L386.843 58.848L388.283 58.128H390.155L391.547 58.848L392.291 59.904L392.603 61.464V63.864L392.291 65.472L391.571 66.552L390.155 67.248H388.283ZM401.33 69.192H403.874L406.298 68.04L407.498 66.264L407.978 64.104V61.272L407.498 59.112L406.298 57.336L403.874 56.16H401.33L398.906 57.336L397.706 59.112L397.226 61.272V64.104L397.706 66.264L398.906 68.04L401.33 69.192ZM401.666 67.248L400.25 66.552L399.53 65.472L399.218 63.864V61.464L399.53 59.904L400.226 58.848L401.666 58.128H403.538L404.93 58.848L405.674 59.904L405.986 61.464V63.864L405.674 65.472L404.954 66.552L403.538 67.248H401.666ZM411.449 69H413.441V64.32L415.025 62.784L419.393 69H421.817L416.393 61.416L421.577 56.352H418.793L413.441 61.704V50.904H411.449V69ZM434.823 69.192H436.311L438.519 68.088L439.071 67.464L440.223 69.192L441.831 68.04L440.895 66.696V59.424L440.247 57.792L438.471 56.592L436.743 56.16H434.511L432.975 56.616L431.823 57.36L431.151 57.984L432.519 59.4L432.975 58.944L433.719 58.464L434.751 58.128H436.455L437.631 58.416L438.639 59.064L438.903 59.784V61.608L438.327 61.2L436.719 60.672H435.183L432.807 61.272L431.031 63.048L430.695 64.68V66.072L432.039 68.016L433.191 68.688L434.823 69.192ZM435.111 67.224L433.983 66.888L433.431 66.552L432.687 65.496V64.848L432.879 64.008L433.815 63.072L435.399 62.64H436.479L437.655 62.976L438.399 63.36L438.903 63.888V64.776L438.663 65.52L437.679 66.552L435.879 67.224H435.111ZM448.474 69.192H449.578L451.81 68.688L451.306 66.792L449.602 67.224H448.93L448.066 66.888L447.466 66.024V58.632H450.778V56.664H447.466V52.248H445.474V56.664H443.194V58.632H445.474V66.672L446.794 68.568L448.474 69.192ZM464.823 69.192H466.311L468.519 68.088L469.071 67.464L470.223 69.192L471.831 68.04L470.895 66.696V59.424L470.247 57.792L468.471 56.592L466.743 56.16H464.511L462.975 56.616L461.823 57.36L461.151 57.984L462.519 59.4L462.975 58.944L463.719 58.464L464.751 58.128H466.455L467.631 58.416L468.639 59.064L468.903 59.784V61.608L468.327 61.2L466.719 60.672H465.183L462.807 61.272L461.031 63.048L460.695 64.68V66.072L462.039 68.016L463.191 68.688L464.823 69.192ZM465.111 67.224L463.983 66.888L463.431 66.552L462.687 65.496V64.848L462.879 64.008L463.815 63.072L465.399 62.64H466.479L467.655 62.976L468.399 63.36L468.903 63.888V64.776L468.663 65.52L467.679 66.552L465.879 67.224H465.111ZM475.105 69H477.097V50.904H475.105V69ZM481.41 69H483.402V50.904H481.41V69ZM498.278 69.192H499.382L501.614 68.688L501.11 66.792L499.406 67.224H498.734L497.87 66.888L497.27 66.024V58.632H500.582V56.664H497.27V52.248H495.278V56.664H492.998V58.632H495.278V66.672L496.598 68.568L498.278 69.192ZM504.496 69H506.488V60.36L507.256 59.232L508.936 58.128H510.472L511.768 58.536L512.368 59.472V69H514.36V58.704L512.896 56.736L510.88 56.16H508.672L507.064 57.072L506.488 57.552V50.904H504.496V69ZM522.137 69.192H524.129L526.337 68.64L527.897 67.608L526.841 66.024L525.593 66.816L523.961 67.224H522.521L521.057 66.504L519.905 64.944L519.593 63.888V63.648H528.857V61.128L528.305 59.52L526.697 57.312L524.273 56.16H522.137L519.737 57.312L518.105 59.52L517.601 61.272V64.128L518.105 65.832L519.737 68.04L522.137 69.192ZM519.593 61.68V61.464L519.881 60.408L521.009 58.872L522.449 58.128H523.937L525.401 58.896L526.553 60.456L526.865 61.368V61.68H519.593ZM539.786 69H541.778V58.632H544.994V56.664H541.778V53.88L542.378 52.992L543.29 52.68H543.938L545.714 53.136L546.218 51.192L544.082 50.712H543.122L541.106 51.336L539.786 53.304V56.664H537.506V58.632H539.786V69ZM548.314 53.856H551.194V50.904H548.314V53.856ZM548.746 69H550.738V56.352H548.746V69ZM555.051 69H557.043V60.264L557.763 59.232L559.491 58.128H561.027L562.443 58.536L563.043 59.472V69H565.035V58.704L563.571 56.736L561.435 56.16H559.227L557.643 57.072L557.043 57.6V56.352H555.051V69ZM572.905 69.192H575.065L576.553 68.28L577.081 67.728V69H579.049V50.904H577.057V57.12L576.385 56.688L574.945 56.16H572.809L570.409 57.312L568.777 59.52L568.273 61.272V64.128L568.777 65.832L570.409 68.04L572.905 69.192ZM573.217 67.224L571.705 66.504L570.553 64.944L570.265 63.864V61.536L570.553 60.408L571.705 58.872L573.121 58.104H574.657L575.641 58.416L576.553 59.016L577.057 59.64V65.088L576.361 66.12L574.801 67.224H573.217ZM582.931 53.856H585.811V50.904H582.931V53.856ZM583.363 69H585.355V56.352H583.363V69ZM589.668 69H591.66V60.264L592.38 59.232L594.108 58.128H595.644L597.06 58.536L597.66 59.472V69H599.652V58.704L598.188 56.736L596.052 56.16H593.844L592.26 57.072L591.66 57.6V56.352H589.668V69ZM607.354 73.032H609.466L611.242 72.432L613.066 71.208L613.666 69.456V56.352H611.674V57.12L611.002 56.688L609.562 56.16H607.426L605.026 57.312L603.394 59.52L602.89 61.272V63.552L603.394 65.256L605.074 67.464L607.522 68.424H609.682L611.17 67.512L611.674 67.032V69.24L611.386 69.96L610.354 70.656L609.25 71.064H607.546L606.394 70.752L605.794 70.344L605.194 69.744L603.802 71.16L604.474 71.808L605.65 72.576L607.354 73.032ZM607.834 66.456L606.274 65.832L605.17 64.32L604.882 63.288V61.536L605.17 60.408L606.322 58.872L607.738 58.104H609.274L610.258 58.416L611.17 59.016L611.674 59.64V64.224L610.978 65.352L609.418 66.456H607.834ZM620.74 69.192H622.876L624.508 68.712L625.66 67.896L626.572 66.504V64.464L625.636 62.928L624.268 62.016L620.596 61.296L619.924 60.96L619.444 60.312V59.256L619.78 58.68L620.188 58.344L621.1 58.08H622.708L624.052 58.488L625.204 59.28L626.284 57.672L624.844 56.688L622.876 56.16H620.836L619.348 56.568L618.268 57.408L617.476 58.776V60.912L618.484 62.304L620.02 63.12L623.476 63.816L624.196 64.32L624.604 65.016V65.928L624.22 66.528L623.62 66.96L622.612 67.248H621.004L619.516 66.864L618.868 66.36L618.412 65.808L617.02 67.152L617.572 67.776L618.7 68.664L620.74 69.192ZM641.116 69.192H643.252L645.652 68.04L647.284 65.832L647.788 64.08V61.224L647.284 59.52L645.652 57.312L643.156 56.16H640.996L639.532 57.072L639.004 57.624V50.904H637.012V69H639.004V68.232L639.676 68.664L641.116 69.192ZM641.404 67.248L640.42 66.936L639.508 66.336L639.004 65.712V60.264L639.7 59.232L641.26 58.128H642.844L644.356 58.848L645.508 60.408L645.796 61.488V63.816L645.508 64.944L644.356 66.48L642.94 67.248H641.404ZM654.958 69.192H656.95L659.158 68.64L660.718 67.608L659.662 66.024L658.414 66.816L656.782 67.224H655.342L653.878 66.504L652.726 64.944L652.414 63.888V63.648H661.678V61.128L661.126 59.52L659.518 57.312L657.094 56.16H654.958L652.558 57.312L650.926 59.52L650.422 61.272V64.128L650.926 65.832L652.558 68.04L654.958 69.192ZM652.414 61.68V61.464L652.702 60.408L653.83 58.872L655.27 58.128H656.758L658.222 58.896L659.374 60.456L659.686 61.368V61.68H652.414ZM665.043 69H667.035V50.904H665.043V69ZM674.612 69.192H677.156L679.58 68.04L680.78 66.264L681.26 64.104V61.272L680.78 59.112L679.58 57.336L677.156 56.16H674.612L672.188 57.336L670.988 59.112L670.508 61.272V64.104L670.988 66.264L672.188 68.04L674.612 69.192ZM674.948 67.248L673.532 66.552L672.812 65.472L672.5 63.864V61.464L672.812 59.904L673.508 58.848L674.948 58.128H676.82L678.212 58.848L678.956 59.904L679.268 61.464V63.864L678.956 65.472L678.236 66.552L676.82 67.248H674.948ZM686.374 69H688.246L691.318 60.168L694.39 69H696.262L699.934 56.352H697.846L695.254 65.688L692.134 56.832H690.502L687.382 65.688L684.79 56.352H682.702L686.374 69ZM701.014 69H703.87V66.048H701.014V69Z" fill="#FBF9F0"/>
<rect x="159" y="465" width="12" height="15" fill="#FBF9F0"/>
<path d="M138.144 475.914V474.798L137.316 473.142L136.848 472.728L138.144 471.864L137.28 470.658L136.272 471.36H130.818L129.594 471.846L128.694 473.178L128.37 474.474V476.148L128.712 477.3L129.27 478.164L129.738 478.668L130.8 477.642L130.458 477.3L130.098 476.742L129.846 475.968V474.69L130.062 473.808L130.548 473.052L131.088 472.854H132.456L132.15 473.286L131.754 474.492V475.644L132.204 477.426L133.536 478.758L134.76 479.01H135.804L137.262 478.002L137.766 477.138L138.144 475.914ZM136.668 475.698L136.416 476.544L136.164 476.958L135.372 477.516H134.886L134.256 477.372L133.554 476.67L133.23 475.482V474.672L133.482 473.79L133.77 473.232L134.166 472.854H134.832L135.39 473.034L136.164 473.772L136.668 475.122V475.698ZM140.916 468.202V466.708H137.424L137.748 466.204L138.144 465.124V463.522L137.28 461.722L135.624 460.498L134.31 460.12H132.168L130.89 460.498L129.234 461.722L128.37 463.594V465.214L129.054 466.33L129.468 466.726H128.514V468.202H140.916ZM136.686 464.908L136.452 465.646L136.002 466.33L135.534 466.708H131.448L130.674 466.186L129.846 465.016V463.828L130.386 462.694L131.556 461.83L132.366 461.614H134.112L134.958 461.83L136.11 462.694L136.686 463.756V464.908ZM140.916 457.515V456.021H137.424L137.748 455.517L138.144 454.437V452.835L137.28 451.035L135.624 449.811L134.31 449.433H132.168L130.89 449.811L129.234 451.035L128.37 452.907V454.527L129.054 455.643L129.468 456.039H128.514V457.515H140.916ZM136.686 454.221L136.452 454.959L136.002 455.643L135.534 456.021H131.448L130.674 455.499L129.846 454.329V453.141L130.386 452.007L131.556 451.143L132.366 450.927H134.112L134.958 451.143L136.11 452.007L136.686 453.069V454.221ZM138 446.917V445.423H132.006L131.142 445.027L130.314 444.289L129.846 443.299V442.525L130.044 441.805L128.622 441.445L128.37 442.345V443.515L128.946 444.739L129.612 445.423H128.514V446.917H138ZM138.144 437.453V435.545L137.28 433.727L135.948 432.827L134.328 432.467H132.204L130.584 432.827L129.252 433.727L128.37 435.545V437.453L129.252 439.271L130.584 440.171L132.204 440.531H134.328L135.948 440.171L137.28 439.271L138.144 437.453ZM136.686 437.201L136.164 438.263L135.354 438.803L134.148 439.037H132.348L131.178 438.803L130.386 438.281L129.846 437.201V435.797L130.386 434.753L131.178 434.195L132.348 433.961H134.148L135.354 434.195L136.164 434.735L136.686 435.797V437.201ZM138 431.579V429.689L134.436 427.061L138 424.433V422.543L133.248 426.143L128.514 422.579V424.451L132.042 427.061L128.514 429.671V431.543L133.248 427.979L138 431.579ZM138 413.059V411.565H125.202V412.375L127.434 416.785L128.766 416.119L127.182 413.059H138Z" fill="#FBF9F0"/>
<rect x="263" y="456" width="12" height="24" fill="#FBF9F0"/>
<path d="M242 476.094V474.6H229.202V475.41L231.434 479.82L232.766 479.154L231.182 476.094H242ZM237.14 471.638V465.518H235.736V471.638H237.14ZM242.144 461.01V459.102L241.298 457.194L240.056 456.024L238.652 455.502H237.338L235.952 456.024L234.692 457.284L234.044 459.012L230.372 456.348H229.202V462.846H230.678V458.328L234.116 460.83H235.304V459.678L235.934 458.112L236.762 457.32L237.554 456.996H238.454L239.3 457.338L240.056 458.058L240.668 459.408V460.74L240.164 461.964L239.48 462.648L240.542 463.71L241.388 462.828L242.144 461.01Z" fill="#FBF9F0"/>
<rect x="367" y="452" width="12" height="28" fill="#FBF9F0"/>
<path d="M346.144 476.76V474.852L345.298 472.944L344.056 471.774L342.652 471.252H341.338L339.952 471.774L338.692 473.034L338.044 474.762L334.372 472.098H333.202V478.596H334.678V474.078L338.116 476.58H339.304V475.428L339.934 473.862L340.762 473.07L341.554 472.746H342.454L343.3 473.088L344.056 473.808L344.668 475.158V476.49L344.164 477.714L343.48 478.398L344.542 479.46L345.388 478.578L346.144 476.76ZM341.14 469.002V462.882H339.736V469.002H341.14ZM346.144 458.013V456.105L345.298 454.197L344.056 453.027L342.652 452.505H341.158L339.772 453.027L338.512 454.287L337.864 455.943V458.121L338.116 458.697L334.678 458.157V453.405H333.202V459.453L338.836 460.227L339.718 459.003L339.34 457.887V456.249L339.754 455.151L340.6 454.323L341.392 453.999H342.436L343.282 454.341L344.056 455.061L344.668 456.411V457.743L344.164 458.967L343.48 459.651L344.542 460.713L345.388 459.831L346.144 458.013Z" fill="#FBF9F0"/>
<rect x="471" y="447" width="12" height="33" fill="#FBF9F0"/>
<path d="M450.144 476.4V474.492L449.298 472.584L448.056 471.414L446.652 470.892H445.158L443.772 471.414L442.512 472.674L441.864 474.33V476.508L442.116 477.084L438.678 476.544V471.792H437.202V477.84L442.836 478.614L443.718 477.39L443.34 476.274V474.636L443.754 473.538L444.6 472.71L445.392 472.386H446.436L447.282 472.728L448.056 473.448L448.668 474.798V476.13L448.164 477.354L447.48 478.038L448.542 479.1L449.388 478.218L450.144 476.4ZM445.14 468.545V462.425H443.736V468.545H445.14ZM450 459.896V458.222L438.282 453.02H437.202V460.616H438.678V454.766L450 459.896Z" fill="#FBF9F0"/>
<rect x="575" y="432" width="12" height="48" fill="#FBF9F0"/>
<path d="M554 478.74V477.066L542.282 471.864H541.202V479.46H542.678V473.61L554 478.74ZM549.14 470.338V464.218H547.736V470.338H549.14ZM554.144 458.989V457.207L553.298 455.335L551.696 454.111L550.166 453.679H544.676L543.326 454.057L541.976 454.993L541.058 456.847V458.953L541.976 460.789L543.254 461.689L544.568 462.049H546.008L547.25 461.707L548.546 460.825L549.482 458.953V457.243L548.852 455.749L548.348 455.173H549.914L551.048 455.479L552.128 456.325L552.668 457.531V458.665L552.056 459.925L551.48 460.519L552.542 461.581L553.298 460.789L554.144 458.989ZM548.006 458.629L547.394 459.799L546.638 460.321L545.846 460.555H544.766L543.812 460.267L543.11 459.781L542.534 458.629V457.189L543.11 456.037L543.974 455.425L544.892 455.173H546.314L546.818 455.425L547.502 456.253L548.006 457.459V458.629Z" fill="#FBF9F0"/>
<rect x="679" y="444" width="12" height="36" fill="#FBF9F0"/>
<path d="M658.144 476.04V474.258L657.298 472.386L655.696 471.162L654.166 470.73H648.676L647.326 471.108L645.976 472.044L645.058 473.898V476.004L645.976 477.84L647.254 478.74L648.568 479.1H650.008L651.25 478.758L652.546 477.876L653.482 476.004V474.294L652.852 472.8L652.348 472.224H653.914L655.048 472.53L656.128 473.376L656.668 474.582V475.716L656.056 476.976L655.48 477.57L656.542 478.632L657.298 477.84L658.144 476.04ZM652.006 475.68L651.394 476.85L650.638 477.372L649.846 477.606H648.766L647.812 477.318L647.11 476.832L646.534 475.68V474.24L647.11 473.088L647.974 472.476L648.892 472.224H650.314L650.818 472.476L651.502 473.304L652.006 474.51V475.68ZM653.14 468.299V462.179H651.736V468.299H653.14ZM658 457.004V455.51H645.202V456.32L647.434 460.73L648.766 460.064L647.182 457.004H658ZM658 449.903V448.409H645.202V449.219L647.434 453.629L648.766 452.963L647.182 449.903H658Z" fill="#FBF9F0"/>
<rect x="783" y="394" width="12" height="86" fill="#FBF9F0"/>
<path d="M762 476.094V474.6H749.202V475.41L751.434 479.82L752.766 479.154L751.182 476.094H762ZM762 468.992V467.498H749.202V468.308L751.434 472.718L752.766 472.052L751.182 468.992H762ZM757.14 464.537V458.417H755.736V464.537H757.14ZM762 453.242V451.748H749.202V452.558L751.434 456.968L752.766 456.302L751.182 453.242H762ZM762.144 446.807V444.899L761.298 442.991L760.056 441.821L758.652 441.299H757.338L755.952 441.821L754.692 443.081L754.044 444.809L750.372 442.145H749.202V448.643H750.678V444.125L754.116 446.627H755.304V445.475L755.934 443.909L756.762 443.117L757.554 442.793H758.454L759.3 443.135L760.056 443.855L760.668 445.205V446.537L760.164 447.761L759.48 448.445L760.542 449.507L761.388 448.625L762.144 446.807Z" fill="#FBF9F0"/>
<rect x="887" y="423" width="12" height="57" fill="#FBF9F0"/>
<path d="M866 476.094V474.6H853.202V475.41L855.434 479.82L856.766 479.154L855.182 476.094H866ZM866.144 469.658V467.75L865.298 465.842L864.056 464.672L862.652 464.15H861.338L859.952 464.672L858.692 465.932L858.044 467.66L854.372 464.996H853.202V471.494H854.678V466.976L858.116 469.478H859.304V468.326L859.934 466.76L860.762 465.968L861.554 465.644H862.454L863.3 465.986L864.056 466.706L864.668 468.056V469.388L864.164 470.612L863.48 471.296L864.542 472.358L865.388 471.476L866.144 469.658ZM861.14 461.9V455.78H859.736V461.9H861.14ZM866 450.606V449.112H853.202V449.922L855.434 454.332L856.766 453.666L855.182 450.606H866ZM866.144 443.81V441.902L865.298 439.994L864.056 438.824L862.652 438.302H861.158L859.772 438.824L858.512 440.084L857.864 441.74V443.918L858.116 444.494L854.678 443.954V439.202H853.202V445.25L858.836 446.024L859.718 444.8L859.34 443.684V442.046L859.754 440.948L860.6 440.12L861.392 439.796H862.436L863.282 440.138L864.056 440.858L864.668 442.208V443.54L864.164 444.764L863.48 445.448L864.542 446.51L865.388 445.628L866.144 443.81Z" fill="#FBF9F0"/>
<path d="M590 403.104V400.512H572.936V401.952L575.984 408L578.312 406.848L576.392 403.104H590ZM590.192 393.419V390.947L589.064 388.451L586.88 386.795L584.768 386.195H577.736L575.864 386.723L573.992 388.019L572.744 390.515V393.347L574.016 395.867L575.792 397.139L577.496 397.595H579.512L581.096 397.139L582.944 395.915L584.216 393.347V390.995L583.4 389.027L583.184 388.787H584.36L585.752 389.171C586.208 389.507 586.568 389.819 586.976 390.155L587.6 391.547V392.819L586.88 394.355L585.92 395.291L587.792 397.139L589.04 395.867L590.192 393.419ZM581.648 392.795L580.952 394.091L580.04 394.739L579.224 394.979H577.832L576.776 394.667L576.008 394.115L575.336 392.771V391.115L576.008 389.747C576.32 389.531 576.608 389.315 576.92 389.123L578.072 388.787H579.728L580.208 389.027L581.048 389.987L581.648 391.451V392.795Z" fill="#FFC800"/>
<path d="M486 418.104V415.512H468.936V416.952L471.984 423L474.312 421.848L472.392 418.104H486ZM486 412.907V402.251H483.432V409.163L477.12 403.475L474.96 402.419H472.56L470.016 404.027L468.744 406.619V409.259L469.872 411.779L471.264 413.099L473.112 411.251L472.056 410.243L471.336 408.707V407.243L472.008 405.827L473.328 405.035H474.408L475.704 405.683L483.84 412.907H486Z" fill="#FFC800"/>
<path d="M382.192 422.096V419.264L380.92 416.744L379.144 415.472L377.44 415.016H375.352L373.768 415.448L371.92 416.72L370.648 419.264V421.544L371.488 423.608L371.704 423.824H370.696L369.256 423.44C368.824 423.128 368.44 422.768 368.008 422.456L367.336 421.04V419.792L368.056 418.232L368.992 417.296L367.144 415.448L365.896 416.744L364.744 419.192V421.64L365.944 424.184L368.128 425.816L370.288 426.416H377.2L379.072 425.888L380.944 424.592L382.192 422.096ZM379.6 421.496L378.928 422.84L378.04 423.488L376.864 423.824H375.112L374.656 423.536L373.84 422.552L373.216 421.088V419.816L373.912 418.52L374.824 417.872L375.664 417.608H377.104L378.184 417.968L378.928 418.496L379.6 419.84V421.496Z" fill="#FFC800"/>
<path d="M278.192 427.224V424.608L277.064 422.064L275.36 420.456L273.416 419.736H271.424L269.456 420.48L267.776 422.16L266.912 424.416V427.368L266.96 427.56L263.504 427.032V420.888H260.936V429.288L268.64 430.344L270.008 428.472L269.48 426.96V424.92L269.96 423.696L270.968 422.688L271.856 422.352H273.032L274.016 422.76L274.88 423.552L275.6 425.184V426.72L275 428.16L273.92 429.24L275.792 431.088L277.16 429.624L278.192 427.224Z" fill="#FFC800"/>
<path d="M174 440.376V429.72H171.432V436.632L165.12 430.944L162.96 429.888H160.56L158.016 431.496L156.744 434.088V436.728L157.872 439.248L159.264 440.568L161.112 438.72L160.056 437.712L159.336 436.176V434.712L160.008 433.296L161.328 432.504H162.408L163.704 433.152L171.84 440.376H174Z" fill="#FFC800"/>
<path d="M694 415.104V412.512H676.936V413.952L679.984 420L682.312 418.848L680.392 415.104H694ZM694 409.907V399.251H691.432V406.163L685.12 400.475L682.96 399.419H680.56L678.016 401.027L676.744 403.619V406.259L677.872 408.779L679.264 410.099L681.112 408.251L680.056 407.243L679.336 405.707V404.243L680.008 402.827L681.328 402.035H682.408L683.704 402.683L691.84 409.907H694Z" fill="#FFC800"/>
<path d="M798.192 365.632V363.016L797.064 360.472L795.36 358.864L793.416 358.144H791.64L789.696 358.888L788.04 360.544L787.296 362.464L782.904 359.224H780.936V368.224H783.504V362.8L787.464 365.656H789.432V363.88L790.2 362.008L791.112 361.12L792.048 360.76H793.056L794.04 361.168L794.88 361.96L795.6 363.592V365.128L795 366.544L793.92 367.624L795.792 369.496L797.16 368.032L798.192 365.632ZM798.192 352.966V350.35L797.064 347.806L795.36 346.198L793.416 345.478H791.424L789.456 346.222L787.776 347.902L786.912 350.158V353.11L786.96 353.302L783.504 352.774V346.63H780.936V355.03L788.64 356.086L790.008 354.214L789.48 352.702V350.662L789.96 349.438L790.968 348.43L791.856 348.094H793.032L794.016 348.502L794.88 349.294L795.6 350.926V352.462L795 353.902L793.92 354.982L795.792 356.83L797.16 355.366L798.192 352.966Z" fill="#FFC800"/>
<path d="M902 398.376V387.72H899.432V394.632L893.12 388.944L890.96 387.888H888.56L886.016 389.496L884.744 392.088V394.728L885.872 397.248L887.264 398.568L889.112 396.72L888.056 395.712L887.336 394.176V392.712L888.008 391.296L889.328 390.504H890.408L891.704 391.152L899.84 398.376H902ZM902.192 382.515V379.899L901.064 377.355L899.36 375.747L897.416 375.027H895.64L893.696 375.771L892.04 377.427L891.296 379.347L886.904 376.107H884.936V385.107H887.504V379.683L891.464 382.539H893.432V380.763L894.2 378.891L895.112 378.003L896.048 377.643H897.056L898.04 378.051L898.88 378.843L899.6 380.475V382.011L899 383.427L897.92 384.507L899.792 386.379L901.16 384.915L902.192 382.515Z" fill="#FFC800"/>
</g>
<defs>
<clipPath id="clip0_79_510">
<rect width="1024" height="576" fill="white"/>
</clipPath>
</defs>
</svg>
