<svg width="32" height="32" viewBox="0 0 32 32" fill="none" xmlns="http://www.w3.org/2000/svg">
<g clip-path="url(#clip0_269_83)">
<path d="M16 0C7.168 0 0 7.168 0 16C0 24.832 7.168 32 16 32H24V28.8H16C9.056 28.8 3.2 22.944 3.2 16C3.2 9.056 9.056 3.2 16 3.2C22.944 3.2 28.8 9.056 28.8 16V18.288C28.8 19.552 27.664 20.8 26.4 20.8C25.136 20.8 24 19.552 24 18.288V16C24 11.584 20.416 8 16 8C11.584 8 8 11.584 8 16C8 20.416 11.584 24 16 24C18.208 24 20.224 23.104 21.664 21.648C22.704 23.072 24.496 24 26.4 24C29.552 24 32 21.44 32 18.288V16C32 7.168 24.832 0 16 0ZM16 20.8C13.344 20.8 11.2 18.656 11.2 16C11.2 13.344 13.344 11.2 16 11.2C18.656 11.2 20.8 13.344 20.8 16C20.8 18.656 18.656 20.8 16 20.8Z" fill="#bdbdbd"/>
</g>
<defs>
<clipPath id="clip0_269_83">
<rect width="32" height="32" fill="white"/>
</clipPath>
</defs>
</svg>
