<svg width="32" height="32" viewBox="0 0 32 32" fill="none" xmlns="http://www.w3.org/2000/svg">
<g clip-path="url(#clip0_269_87)">
<path d="M15.9917 2.88134C20.2628 2.88134 20.7678 2.89784 22.4545 2.97375C23.4689 2.9859 24.4738 3.17235 25.4251 3.52493C26.1147 3.79106 26.741 4.19856 27.2637 4.72123C27.7864 5.24389 28.1939 5.87015 28.46 6.55974C28.8126 7.51099 28.9991 8.51578 29.0112 9.5302C29.0888 11.2168 29.1037 11.7217 29.1037 15.9926C29.1037 20.2634 29.0872 20.7684 29.0112 22.455C28.9991 23.4694 28.8126 24.4742 28.46 25.4254C28.1939 26.115 27.7864 26.7413 27.2637 27.2639C26.741 27.7866 26.1147 28.1941 25.4251 28.4602C24.4738 28.8128 23.4689 28.9992 22.4545 29.0114C20.7678 29.089 20.2628 29.1038 15.9917 29.1038C11.7207 29.1038 11.2157 29.0873 9.52904 29.0114C8.51456 28.9992 7.50973 28.8128 6.55843 28.4602C5.86881 28.1941 5.24251 27.7866 4.71982 27.2639C4.19713 26.7413 3.78961 26.115 3.52347 25.4254C3.17086 24.4742 2.98441 23.4694 2.97225 22.455C2.89469 20.7684 2.87983 20.2634 2.87983 15.9926C2.87983 11.7217 2.89634 11.2168 2.97225 9.5302C2.98441 8.51578 3.17086 7.51099 3.52347 6.55974C3.78979 5.86999 4.19756 5.24363 4.72055 4.72096C5.24354 4.19828 5.87015 3.79087 6.56008 3.52493C7.51138 3.17235 8.51621 2.9859 9.53069 2.97375C11.2173 2.89619 11.7223 2.88134 15.9934 2.88134M15.9934 0C11.6497 0 11.1051 0.0181529 9.39206 0.0957147C8.06497 0.12197 6.75194 0.373066 5.50882 0.838327C4.4476 1.25022 3.48406 1.87908 2.67983 2.68469C1.87561 3.4903 1.24841 4.4549 0.83837 5.51679C0.373085 6.75985 0.121976 8.07281 0.0957196 9.39982C0.0181538 11.1062 0 11.6508 0 16.0008C0 20.3509 0.0181538 20.8889 0.0957196 22.6018C0.121976 23.9288 0.373085 25.2418 0.83837 26.4849C1.24933 27.5471 1.87763 28.5118 2.68302 29.3171C3.48841 30.1225 4.45315 30.7507 5.51542 31.1617C6.75855 31.6269 8.07157 31.878 9.39866 31.9043C11.1051 31.9818 11.6497 32 16 32C20.3503 32 20.8883 31.9818 22.6013 31.9043C23.9284 31.878 25.2415 31.6269 26.4846 31.1617C27.5469 30.7507 28.5116 30.1225 29.317 29.3171C30.1224 28.5118 30.7507 27.5471 31.1616 26.4849C31.6269 25.2418 31.878 23.9288 31.9043 22.6018C31.9818 20.8955 32 20.3509 32 16.0008C32 11.6508 31.9818 11.1128 31.9043 9.39982C31.878 8.07281 31.6269 6.75985 31.1616 5.51679C30.7507 4.45457 30.1224 3.48988 29.317 2.68453C28.5116 1.87918 27.5469 1.25092 26.4846 0.839977C25.2415 0.374716 23.9284 0.12362 22.6013 0.0973648C20.8949 0.019803 20.3503 0.00165013 16 0.00165013L15.9934 0Z" fill="#bdbdbd"/>
<path d="M16.5 8C14.8189 8 13.1755 8.49852 11.7777 9.43251C10.3798 10.3665 9.29038 11.694 8.64703 13.2472C8.00369 14.8004 7.83535 16.5094 8.16333 18.1583C8.4913 19.8071 9.30085 21.3217 10.4896 22.5104C11.6783 23.6992 13.1929 24.5087 14.8417 24.8367C16.4906 25.1646 18.1996 24.9963 19.7528 24.353C21.306 23.7096 22.6335 22.6202 23.5675 21.2224C24.5015 19.8245 25 18.1811 25 16.5C25 14.2457 24.1045 12.0836 22.5104 10.4896C20.9163 8.89553 18.7543 8 16.5 8V8ZM16.5 22.0164C15.409 22.0164 14.3424 21.6929 13.4353 21.0867C12.5281 20.4806 11.8211 19.619 11.4035 18.611C10.986 17.603 10.8768 16.4939 11.0896 15.4238C11.3025 14.3537 11.8279 13.3708 12.5993 12.5993C13.3708 11.8279 14.3537 11.3025 15.4238 11.0896C16.4939 10.8768 17.603 10.986 18.611 11.4035C19.619 11.8211 20.4806 12.5281 21.0867 13.4353C21.6929 14.3424 22.0164 15.409 22.0164 16.5C22.0159 17.9629 21.4346 19.3657 20.4002 20.4002C19.3657 21.4346 17.9629 22.0159 16.5 22.0164Z" fill="#bdbdbd"/>
<path d="M24 10C25.6569 10 27 8.65685 27 7C27 5.34315 25.6569 4 24 4C22.3431 4 21 5.34315 21 7C21 8.65685 22.3431 10 24 10Z" fill="#bdbdbd"/>
</g>
<defs>
<clipPath id="clip0_269_87">
<rect width="32" height="32" fill="white"/>
</clipPath>
</defs>
</svg>
