<svg width="32" height="32" viewBox="0 0 32 32" fill="none" xmlns="http://www.w3.org/2000/svg">
<g clip-path="url(#clip0_269_86)">
<path d="M0.659445 10.9045V32H7.3222V10.9045H0.659445ZM18.0031 19.7506C17.9491 19.2267 18.0055 18.697 18.1684 18.1971C18.3313 17.6972 18.597 17.2385 18.9477 16.8519C19.2984 16.4653 19.726 16.1596 20.2018 15.9554C20.6777 15.7511 21.1908 15.653 21.7069 15.6675C23.7074 15.6675 25.3372 17.0291 25.3372 20.4306V32H32V19.7506C32 13.626 28.6652 10.2245 23.9979 10.2245C22.7831 10.2549 21.5958 10.5995 20.5473 11.2262C19.4987 11.8528 18.6233 12.7409 18.0031 13.8073L17.781 10.8958H11.2173C11.2173 11.614 11.3284 15.6588 11.3284 15.6588V32H17.9911L18.0031 19.7506ZM3.9635 7.50129C4.47412 7.54781 4.98863 7.4858 5.47458 7.31918C5.96054 7.15255 6.40737 6.88493 6.78686 6.5332C7.16636 6.18146 7.47029 5.75327 7.67946 5.27563C7.88863 4.798 7.99851 4.28129 8.00215 3.75814C8.00124 3.24091 7.8958 2.72943 7.6924 2.25568C7.48901 1.78193 7.19202 1.35609 6.82004 1.00478C6.44805 0.653468 6.00905 0.384245 5.53047 0.21394C5.0519 0.0436344 4.54405 -0.0240919 4.03866 0.0149949C3.52804 -0.0315271 3.01352 0.0304834 2.52756 0.19711C2.04161 0.363737 1.59478 0.631362 1.21528 0.983092C0.835783 1.33482 0.531854 1.76302 0.322684 2.24066C0.113515 2.71829 0.00363688 3.23499 5.40702e-07 3.75814C-0.000272966 4.27267 0.103219 4.78175 0.30402 5.25372C0.50482 5.72568 0.798635 6.15043 1.1672 6.50153C1.53576 6.85263 1.97119 7.12257 2.44637 7.29457C2.92156 7.46657 3.42634 7.53693 3.92932 7.50129H3.9635Z" fill="#bdbdbd"/>
</g>
<defs>
<clipPath id="clip0_269_86">
<rect width="32" height="32" fill="white"/>
</clipPath>
</defs>
</svg>
