<svg width="32" height="32" viewBox="0 0 32 32" fill="none" xmlns="http://www.w3.org/2000/svg">
<g clip-path="url(#clip0_269_85)">
<path d="M32 6.95547C30.763 7.46952 29.4494 7.80556 28.1042 7.95212C29.5208 7.16738 30.5803 5.92622 31.0824 4.46303C29.7577 5.19154 28.3118 5.70874 26.8044 5.9933C26.1625 5.36768 25.3921 4.86881 24.5392 4.52637C23.6863 4.18394 22.7682 4.00494 21.8395 4.00001C20.9514 3.99871 20.0717 4.16088 19.251 4.47724C18.4302 4.79359 17.6845 5.2579 17.0567 5.84352C16.4288 6.42914 15.9312 7.12456 15.5923 7.88988C15.2534 8.6552 15.0799 9.47538 15.0817 10.3034C15.074 10.7937 15.1254 11.2833 15.2349 11.763C12.5552 11.6482 9.93078 11.0124 7.53013 9.89633C5.12949 8.78029 3.00564 7.20867 1.29487 5.28235C0.694172 6.20556 0.376779 7.26476 0.377277 8.34454C0.376959 9.38152 0.652365 10.4024 1.17886 11.3159C1.70535 12.2293 2.46651 13.0069 3.39425 13.579C2.32422 13.5429 1.27794 13.2748 0.338532 12.7958V12.8664C0.335469 14.3241 0.874014 15.7378 1.86262 16.8672C2.85122 17.9965 4.22886 18.7719 5.76133 19.0614C5.1755 19.2045 4.57225 19.2763 3.96664 19.2748C3.54371 19.2747 3.12166 19.239 2.70561 19.1681C3.13344 20.4204 3.97136 21.5162 5.10164 22.3016C6.23193 23.0871 7.59777 23.5226 9.00726 23.5471C6.64761 25.3978 3.68673 26.4513 0.604478 26.5371C0.0676166 26.537 -0.468564 26.5013 -1 26.4303C2.12809 28.1967 5.7354 29.0865 9.39121 28.9934C11.9238 29.01 14.4346 28.5572 16.7778 27.6614C19.1211 26.7656 21.25 25.4445 23.0409 23.7751C24.8318 22.1056 26.249 20.121 27.2101 17.9366C28.1713 15.7522 28.6572 13.4114 28.6396 11.0504V10.2295C29.9557 9.32887 31.0929 8.22089 32 6.95547V6.95547Z" fill="#bdbdbd"/>
</g>
<defs>
<clipPath id="clip0_269_85">
<rect width="32" height="32" fill="white"/>
</clipPath>
</defs>
</svg>
